<svg xmlns="http://www.w3.org/2000/svg" xmlns:xlink="http://www.w3.org/1999/xlink" width="62" height="62" viewBox="0 0 62 62">
    <defs>
        <filter id="prefix__a" width="125.9%" height="125.9%" x="-13%" y="-9.3%" filterUnits="objectBoundingBox">
            <feOffset dy="2" in="SourceAlpha" result="shadowOffsetOuter1"/>
            <feGaussianBlur in="shadowOffsetOuter1" result="shadowBlurOuter1" stdDeviation="2"/>
            <feComposite in="shadowBlurOuter1" in2="SourceAlpha" operator="out" result="shadowBlurOuter1"/>
            <feColorMatrix in="shadowBlurOuter1" values="0 0 0 0 0.628623188 0 0 0 0 0.628623188 0 0 0 0 0.628623188 0 0 0 0.5 0"/>
        </filter>
        <rect id="prefix__b" width="54" height="54" x="0" y="0" rx="27"/>
        <path id="prefix__c" d="M22.24 16.297c.317-.344.835-.392 1.206-.128l.09.072 11 10.083c.368.338.394.9.079 1.27l-.079.082-11 10.083c-.373.342-.953.317-1.295-.056-.316-.345-.319-.865-.024-1.212l.08-.083L32.56 27l-10.262-9.408c-.344-.315-.392-.834-.128-1.205l.072-.09z"/>
    </defs>
    <g fill="none" fill-rule="evenodd" transform="translate(4 2)">
        <use fill="#000" filter="url(#prefix__a)" xlink:href="#prefix__b"/>
        <rect width="53" height="53" x=".5" y=".5" fill="#63BAF5" stroke="#FFF" stroke-linejoin="square" rx="26.5"/>
        <use fill="#FFF" fill-rule="nonzero" stroke="#FFF" stroke-width=".5" xlink:href="#prefix__c"/>
    </g>
</svg>
