<svg xmlns="http://www.w3.org/2000/svg" xmlns:xlink="http://www.w3.org/1999/xlink" width="54" height="54" viewBox="0 0 54 54">
    <defs>
        <rect id="b" width="54" height="54" rx="8"/>
        <filter id="a" width="225.9%" height="225.9%" x="-63%" y="-48.1%" filterUnits="objectBoundingBox">
            <feOffset dy="8" in="SourceAlpha" result="shadowOffsetOuter1"/>
            <feGaussianBlur in="shadowOffsetOuter1" result="shadowBlurOuter1" stdDeviation="10"/>
            <feColorMatrix in="shadowBlurOuter1" values="0 0 0 0 0 0 0 0 0 0 0 0 0 0 0 0 0 0 0.05 0"/>
        </filter>
        <path id="c" d="M0 0h40v40H0z"/>
        <path id="e" d="M12.33.258a1 1 0 0 1 1.428 1.394l-.088.09L2.48 11.851l11.202 10.417a1 1 0 0 1 .131 1.316l-.08.097a1 1 0 0 1-1.316.131l-.097-.08-12-11.159a1 1 0 0 1-.076-1.386L.33 11.1l12-10.841z"/>
    </defs>
    <g fill="none" fill-rule="evenodd">
        <g>
            <use fill="#000" filter="url(#a)" xlink:href="#b"/>
            <use fill="#63BAF5" xlink:href="#b"/>
        </g>
        <g transform="translate(8 7)">
            <mask id="d" fill="#fff">
                <use xlink:href="#c"/>
            </mask>
            <g mask="url(#d)">
                <g transform="translate(11 8)">
                    <mask id="f" fill="#fff">
                        <use xlink:href="#e"/>
                    </mask>
                    <path stroke="#000" stroke-opacity=".05" d="M3.219 11.856l10.802 10.046c.556.516.637 1.364.178 1.999l-.1.12a1.507 1.507 0 0 1-2 .178l-.12-.1-12-11.16a1.506 1.506 0 0 1-.093-2.102l.108-.11 12-10.84a1.5 1.5 0 0 1 2.12.107c.508.563.514 1.415.002 2.008l-.11.111-10.787 9.743z"/>
                    <g mask="url(#f)">
                        <path fill="#FFF" d="M-11-8h40v40h-40z"/>
                    </g>
                </g>
            </g>
        </g>
    </g>
</svg>
