<svg xmlns="http://www.w3.org/2000/svg" width="44" height="44" viewBox="0 0 44 44" style="background:#00000000">
    <g fill="none" fill-rule="evenodd">
        <g>
            <path fill="#00000000" d="M0 0H44V44H0z"/>
            <path d="M0 0H44V44H0z" opacity=".513"/>
            <g stroke="#FFF" stroke-linecap="round" stroke-width="2" opacity=".8">
                <path d="M0 8.154V3.846c0-1.337.14-1.822.4-2.311.262-.49.646-.873 1.135-1.134C2.024.139 2.509 0 3.845 0h4.31" transform="translate(10.5 10.5)"/>
                <path d="M0 22.654v-4.308c0-1.337.14-1.822.4-2.311.262-.49.646-.873 1.135-1.134.489-.262.974-.401 2.31-.401h4.31" transform="translate(10.5 10.5) matrix(1 0 0 -1 0 37.154)"/>
                <path d="M14.5 8.154V3.846c0-1.337.14-1.822.4-2.311.262-.49.646-.873 1.135-1.134.489-.262.974-.401 2.31-.401h4.31" transform="translate(10.5 10.5) rotate(90 18.577 4.077)"/>
                <path d="M14.5 22.654v-4.308c0-1.337.14-1.822.4-2.311.262-.49.646-.873 1.135-1.134.489-.262.974-.401 2.31-.401h4.31" transform="translate(10.5 10.5) matrix(0 -1 -1 0 37.154 37.154)"/>
            </g>
        </g>
    </g>
</svg>
