<svg xmlns="http://www.w3.org/2000/svg" xmlns:xlink="http://www.w3.org/1999/xlink" width="21" height="21" viewBox="0 0 21 21">
    <defs>
        <path id="6kmiyu9jja" d="M0 0H21V21H0z"/>
    </defs>
    <g fill="none" fill-rule="evenodd">
        <g>
            <g transform="translate(-646 -132) translate(646 132)">
                <mask id="p79sy04sjb" fill="#fff">
                    <use xlink:href="#6kmiyu9jja"/>
                </mask>
                <g mask="url(#p79sy04sjb)">
                    <g transform="translate(2.212 2.212)">
                        <circle cx="8.4" cy="8.4" r="8.4" fill="#1DB6FF"/>
                        <path fill="#FFF" fill-rule="nonzero" d="M11.275 4.583c.203-.374.642-.495.98-.27.309.206.426.631.287.989l-.044.095-3.71 6.82c-.222.41-.712.502-1.043.222l-.074-.072-3.263-3.63c-.278-.308-.277-.808.002-1.116.254-.28.65-.304.93-.074l.08.077 2.617 2.912 3.238-5.953z"/>
                    </g>
                </g>
            </g>
        </g>
    </g>
</svg>
