<svg xmlns="http://www.w3.org/2000/svg" xmlns:xlink="http://www.w3.org/1999/xlink" width="58" height="58" viewBox="0 0 58 58">
    <defs>
        <path id="xlaz63pena" d="M29 58c3.978 0 7.717-.76 11.218-2.282 3.5-1.522 6.584-3.615 9.25-6.28 2.664-2.666 4.753-5.744 6.265-9.235C57.244 36.713 58 32.978 58 29c0-3.978-.756-7.712-2.267-11.203-1.512-3.49-3.606-6.574-6.28-9.25-2.676-2.674-5.764-4.768-9.265-6.28C36.688.756 32.948 0 28.97 0c-3.938 0-7.658.756-11.158 2.267-3.501 1.512-6.589 3.606-9.264 6.28-2.675 2.676-4.769 5.76-6.28 9.25C.755 21.287 0 25.022 0 29c0 3.978.76 7.712 2.282 11.203 1.522 3.49 3.615 6.569 6.28 9.234 2.666 2.666 5.749 4.759 9.25 6.28C21.312 57.24 25.042 58 29 58zm-3.163-15.127c-.517 0-.99-.114-1.417-.343-.427-.228-.83-.591-1.208-1.089l-6.982-8.533c-.258-.298-.447-.611-.566-.94-.12-.328-.18-.66-.18-.999 0-.676.24-1.258.717-1.745.477-.488 1.054-.731 1.73-.731.418 0 .806.084 1.164.253.358.17.706.483 1.044.94l5.58 7.13 11.844-18.974c.577-.915 1.303-1.373 2.178-1.373.656 0 1.248.209 1.775.627.527.417.79.974.79 1.67 0 .339-.074.672-.223 1-.15.328-.323.641-.522.94L28.344 41.44c-.319.478-.687.836-1.104 1.074-.418.24-.885.358-1.403.358z"/>
    </defs>
    <g fill="none" fill-rule="evenodd">
        <g>
            <g>
                <g transform="translate(-975 -482) translate(785 411) translate(190 71)">
                    <mask id="2nbnj19glb" fill="#fff">
                        <use xlink:href="#xlaz63pena"/>
                    </mask>
                    <use fill="#1DB6FF" fill-rule="nonzero" xlink:href="#xlaz63pena"/>
                    <path d="M0 0H58V58H0z" mask="url(#2nbnj19glb)"/>
                </g>
            </g>
        </g>
    </g>
</svg>
