<svg width="270" height="360" viewBox="0 0 270 360" fill="none" xmlns="http://www.w3.org/2000/svg">
<rect opacity="0.7" width="270" height="360" rx="16" fill="black"/>
<path d="M180 180.5C180 205.629 159.629 226 134.5 226C109.371 226 89 205.629 89 180.5C89 155.371 109.371 135 134.5 135C159.629 135 180 155.371 180 180.5Z" fill="#2A2A2A"/>
<path fill-rule="evenodd" clip-rule="evenodd" d="M134.5 222C157.42 222 176 203.42 176 180.5C176 157.58 157.42 139 134.5 139C111.58 139 93 157.58 93 180.5C93 203.42 111.58 222 134.5 222ZM134.5 226C159.629 226 180 205.629 180 180.5C180 155.371 159.629 135 134.5 135C109.371 135 89 155.371 89 180.5C89 205.629 109.371 226 134.5 226Z" fill="#727272"/>
<path fill-rule="evenodd" clip-rule="evenodd" d="M125.311 169.46H143.689C143.122 164.5 139.132 160.811 134.5 160.811C129.868 160.811 125.879 164.5 125.311 169.46ZM147.85 169.46H147.85C147.647 167.014 146.839 164.735 145.578 162.797C146.839 164.735 147.647 167.014 147.85 169.46ZM148.339 169.46C147.749 162.118 141.877 156.182 134.5 156.182C127.123 156.182 121.252 162.118 120.662 169.46H119.182C115.868 169.46 113.182 172.146 113.182 175.46V192.696C113.182 196.01 115.868 198.696 119.182 198.696H149.818C153.132 198.696 155.818 196.01 155.818 192.696V175.46C155.818 172.146 153.132 169.46 149.818 169.46H148.339ZM124.821 169.46H124.821C125.391 164.247 129.581 160.323 134.5 160.323C137.313 160.323 139.888 161.607 141.683 163.681C139.888 161.607 137.313 160.324 134.5 160.324C129.581 160.324 125.392 164.247 124.821 169.46ZM136.327 186.104C137.768 185.42 138.764 183.952 138.764 182.251C138.764 179.896 136.855 177.987 134.5 177.987C132.145 177.987 130.236 179.896 130.236 182.251C130.236 183.952 131.232 185.42 132.673 186.104V188.342C132.673 189.351 133.491 190.169 134.5 190.169C135.509 190.169 136.327 189.351 136.327 188.342V186.104Z" fill="white"/>
</svg>
