<svg xmlns="http://www.w3.org/2000/svg" width="17" height="17" viewBox="0 0 17 17">
    <g fill="none" fill-rule="evenodd">
        <g>
            <g transform="translate(-465 -420) translate(466 421)">
                <circle cx="7.5" cy="7.5" r="7.5" stroke="#979797"/>
                <path fill="#AFAFAF" fill-rule="nonzero" d="M8.373 9.38l.2-5.911H6.767l.199 5.912h1.406zm-.703 2.714c.285 0 .515-.084.688-.252.174-.168.261-.381.261-.639 0-.262-.087-.476-.26-.644-.174-.168-.404-.252-.69-.252-.28 0-.508.085-.682.255-.174.17-.26.383-.26.641s.086.47.26.639c.174.168.402.252.683.252z"/>
            </g>
        </g>
    </g>
</svg>
