<svg xmlns="http://www.w3.org/2000/svg" width="37" height="37" viewBox="0 0 37 37">
    <g fill="none" fill-rule="evenodd">
        <g>
            <g transform="translate(-309 -235) translate(309 235)">
                <rect width="37" height="37" fill="#000" fill-opacity=".4" rx="5"/>
                <g fill="#FFF" fill-rule="nonzero">
                    <path d="M18.79 13.32c.287 0 .526.208.576.48l.009.106v2.93c0 1.341-1.04 2.44-2.358 2.533l-.181.006h-2.93c-.323 0-.586-.262-.586-.586 0-.288.208-.527.48-.576l.106-.01h2.93c.705 0 1.285-.533 1.36-1.218l.007-.15v-2.929c0-.323.262-.586.586-.586zm-17.58 0c.289 0 .528.208.577.48l.01.106v2.93c0 .705.533 1.285 1.218 1.36l.15.007h2.929c.323 0 .586.262.586.586 0 .288-.208.527-.48.577l-.106.009h-2.93c-1.341 0-2.44-1.04-2.533-2.358l-.006-.181v-2.93c0-.323.262-.586.586-.586zM6.095.625c.323 0 .586.262.586.586 0 .288-.208.527-.48.576l-.106.01h-2.93c-.705 0-1.285.533-1.36 1.218l-.007.15v2.929c0 .323-.262.586-.586.586-.288 0-.527-.208-.577-.48l-.009-.106v-2.93c0-1.341 1.04-2.44 2.358-2.533l.181-.006h2.93zm10.742 0c1.341 0 2.44 1.04 2.533 2.358l.006.181v2.93c0 .323-.262.586-.586.586-.288 0-.527-.208-.576-.48l-.01-.106v-2.93c0-.705-.533-1.285-1.218-1.36l-.15-.007h-2.929c-.323 0-.586-.262-.586-.586 0-.288.208-.527.48-.577l.106-.009h2.93z" transform="translate(9 9)"/>
                </g>
            </g>
        </g>
    </g>
</svg>
