<svg width="50" height="50" viewBox="0 0 50 50" fill="none" xmlns="http://www.w3.org/2000/svg">
<path fill-rule="evenodd" clip-rule="evenodd" d="M15.3489 12.317C18.2386 10.118 21.7926 8.97184 25.4225 9.06811C28.3469 9.14566 31.1793 10.0259 33.6178 11.5933L32.576 11.7943C31.8982 11.925 31.4546 12.5805 31.5853 13.2584C31.7161 13.9362 32.3716 14.3798 33.0494 14.249L36.6953 13.5459C37.2835 13.4325 37.7086 12.9176 37.7086 12.3185V8.33415C37.7086 7.64379 37.1489 7.08415 36.4586 7.08415C35.7682 7.08415 35.2086 7.64379 35.2086 8.33415V9.64657C32.3344 7.73549 28.9679 6.66125 25.4888 6.56898C21.2894 6.45762 17.178 7.78362 13.8349 10.3275C10.4919 12.8714 8.11786 16.4805 7.1057 20.5576C6.09354 24.6347 6.50399 28.9352 8.26911 32.7472C10.0342 36.5592 13.0482 39.6541 16.8121 41.5196C20.5759 43.3852 24.864 43.9095 28.9665 43.0058C33.0689 42.1021 36.7398 39.8245 39.3714 36.5501C42.003 33.2757 43.4375 29.2008 43.4375 25C43.4375 24.3097 42.8779 23.75 42.1875 23.75C41.4972 23.75 40.9375 24.3097 40.9375 25C40.9375 28.6312 39.6975 32.1536 37.4227 34.984C35.148 37.8144 31.9748 39.7832 28.4286 40.5643C24.8824 41.3455 21.1758 40.8923 17.9223 39.2797C14.6688 37.6671 12.0635 34.9918 10.5377 31.6967C9.01193 28.4016 8.65713 24.6842 9.53204 21.16C10.407 17.6357 12.4591 14.5159 15.3489 12.317ZM26.0209 26.6752C25.7234 26.8571 25.3737 26.9619 24.9995 26.9619C23.9166 26.9619 23.0387 26.0841 23.0387 25.0012C23.0387 24.3008 23.4059 23.6862 23.9583 23.3393V15.1042C23.9583 14.5289 24.4247 14.0625 25 14.0625C25.5753 14.0625 26.0417 14.5289 26.0417 15.1042V23.3399C26.5423 23.6547 26.8906 24.1894 26.951 24.8085L31.1971 26.6833C31.7234 26.9157 31.9617 27.5307 31.7293 28.057C31.497 28.5833 30.882 28.8215 30.3557 28.5892L26.0209 26.6752Z" fill="white"/>
</svg>
