<svg width="50" height="50" viewBox="0 0 50 50" fill="none" xmlns="http://www.w3.org/2000/svg">
<path fill-rule="evenodd" clip-rule="evenodd" d="M8.82489 20.1378C10.7561 13.7043 16.4204 8.88557 23.3017 8.19777C21.7438 11.7321 20.0197 14.3959 17.76 16.3331C15.5431 18.2337 12.7212 19.5102 8.82489 20.1378ZM8.11426 25.0005C8.11426 24.236 8.16507 23.4833 8.26349 22.7456C12.9823 22.128 16.5525 20.6612 19.3871 18.2311C21.7254 16.2266 23.4916 13.6267 25.0023 10.4828C26.513 13.6267 28.2792 16.2266 30.6174 18.2311C33.4517 20.6609 37.0215 22.1277 41.7395 22.7454C41.838 23.4831 41.8888 24.2359 41.8888 25.0005C41.8888 34.3271 34.3281 41.8878 25.0015 41.8878C15.6749 41.8878 8.11426 34.3271 8.11426 25.0005ZM26.703 8.19793C33.5834 8.88631 39.2469 13.7046 41.1781 20.1375C37.2826 19.5099 34.4612 18.2334 32.2446 16.3331C29.9849 14.396 28.2608 11.7322 26.703 8.19793ZM5.61426 25.0005C5.61426 14.2933 14.2942 5.61328 25.0015 5.61328C35.7088 5.61328 44.3888 14.2933 44.3888 25.0005C44.3888 35.7078 35.7088 44.3878 25.0015 44.3878C14.2942 44.3878 5.61426 35.7078 5.61426 25.0005ZM19.6442 29.6628C19.2418 29.102 18.4608 28.9736 17.8999 29.376C17.339 29.7785 17.2106 30.5595 17.6131 31.1204C19.3176 33.4956 21.9722 35.073 25.0012 35.073C28.0303 35.073 30.6849 33.4956 32.3893 31.1204C32.7918 30.5595 32.6634 29.7785 32.1026 29.376C31.5417 28.9736 30.7607 29.102 30.3582 29.6628C29.0586 31.4738 27.1199 32.573 25.0012 32.573C22.8825 32.573 20.9438 31.4738 19.6442 29.6628ZM22.0602 24.5089C22.0602 25.5918 21.1824 26.4697 20.0995 26.4697C19.0165 26.4697 18.1387 25.5918 18.1387 24.5089C18.1387 23.426 19.0165 22.5481 20.0995 22.5481C21.1824 22.5481 22.0602 23.426 22.0602 24.5089ZM31.8633 24.5089C31.8633 25.5918 30.9854 26.4697 29.9025 26.4697C28.8196 26.4697 27.9417 25.5918 27.9417 24.5089C27.9417 23.426 28.8196 22.5481 29.9025 22.5481C30.9854 22.5481 31.8633 23.426 31.8633 24.5089Z" fill="white"/>
</svg>
