<svg width="50" height="50" viewBox="0 0 50 50" fill="none" xmlns="http://www.w3.org/2000/svg">
<path fill-rule="evenodd" clip-rule="evenodd" d="M25.0025 8.11328C15.6759 8.11328 8.11523 15.674 8.11523 25.0005C8.11523 34.3271 15.6759 41.8878 25.0025 41.8878C34.3291 41.8878 41.8897 34.3271 41.8897 25.0005C41.8897 15.674 34.3291 8.11328 25.0025 8.11328ZM5.61523 25.0005C5.61523 14.2933 14.2952 5.61328 25.0025 5.61328C35.7098 5.61328 44.3897 14.2933 44.3897 25.0005C44.3897 35.7078 35.7098 44.3878 25.0025 44.3878C14.2952 44.3878 5.61523 35.7078 5.61523 25.0005ZM25.0025 26.4719C25.8147 26.4719 26.4731 25.8135 26.4731 25.0014C26.4731 24.1892 25.8147 23.5308 25.0025 23.5308C24.1903 23.5308 23.5319 24.1892 23.5319 25.0014C23.5319 25.8135 24.1903 26.4719 25.0025 26.4719ZM29.7933 24.9997C29.7933 27.646 27.648 29.7913 25.0016 29.7913C22.3553 29.7913 20.21 27.646 20.21 24.9997C20.21 22.3533 22.3553 20.208 25.0016 20.208C27.648 20.208 29.7933 22.3533 29.7933 24.9997ZM26.0409 32.2178C29.237 31.7617 31.765 29.2331 32.2201 26.0368C32.2443 26.0385 32.2687 26.0393 32.2933 26.0393H34.3766C34.9519 26.0393 35.4183 25.5729 35.4183 24.9976C35.4183 24.4223 34.9519 23.956 34.3766 23.956H32.2933L32.2863 23.956C32.2639 23.9561 32.2416 23.957 32.2195 23.9585C31.7628 20.764 29.2355 18.2372 26.0406 17.7815C26.0424 17.7565 26.0433 17.7314 26.0433 17.706V15.6226C26.0433 15.0473 25.5769 14.581 25.0016 14.581C24.4263 14.581 23.96 15.0473 23.96 15.6226V17.706C23.96 17.7314 23.9609 17.7565 23.9627 17.7815C20.7678 18.2372 18.2404 20.764 17.7837 23.9585C17.7594 23.9568 17.7348 23.956 17.71 23.956H15.6266C15.0513 23.956 14.585 24.4223 14.585 24.9976C14.585 25.5729 15.0513 26.0393 15.6266 26.0393H17.71C17.7123 26.0393 17.7146 26.0393 17.717 26.0393C17.7392 26.0391 17.7613 26.0383 17.7832 26.0368C18.2383 29.2331 20.7663 31.7617 23.9623 32.2178C23.9608 32.2412 23.96 32.2647 23.96 32.2885V34.3718C23.96 34.9471 24.4263 35.4135 25.0016 35.4135C25.5769 35.4135 26.0433 34.9471 26.0433 34.3718V32.2885C26.0433 32.2647 26.0425 32.2412 26.0409 32.2178Z" fill="white"/>
</svg>
