<svg width="22" height="22" viewBox="0 0 22 22" fill="none" xmlns="http://www.w3.org/2000/svg">
<path d="M6.20711 8.09294C5.81658 7.70242 5.18342 7.70242 4.79289 8.09294C4.40237 8.48347 4.40237 9.11663 4.79289 9.50716L6.20711 8.09294ZM11 14.3L10.2929 15.0072C10.6834 15.3977 11.3166 15.3977 11.7071 15.0072L11 14.3ZM17.2071 9.50716C17.5976 9.11663 17.5976 8.48347 17.2071 8.09294C16.8166 7.70242 16.1834 7.70242 15.7929 8.09294L17.2071 9.50716ZM4.79289 9.50716L10.2929 15.0072L11.7071 13.5929L6.20711 8.09294L4.79289 9.50716ZM11.7071 15.0072L17.2071 9.50716L15.7929 8.09294L10.2929 13.5929L11.7071 15.0072Z" fill="#AEAEAE"/>
</svg>
