<svg width="34" height="34" viewBox="0 0 34 34" fill="none" xmlns="http://www.w3.org/2000/svg">
<path fill-rule="evenodd" clip-rule="evenodd" d="M17.0001 3.76844C9.69246 3.76844 3.76844 9.69246 3.76844 17.0001C3.76844 24.3078 9.69246 30.2318 17.0001 30.2318C24.3078 30.2318 30.2318 24.3078 30.2318 17.0001C30.2318 9.69246 24.3078 3.76844 17.0001 3.76844ZM1.89844 17.0001C1.89844 8.65969 8.65969 1.89844 17.0001 1.89844C25.3405 1.89844 32.1018 8.65969 32.1018 17.0001C32.1018 25.3405 25.3405 32.1018 17.0001 32.1018C8.65969 32.1018 1.89844 25.3405 1.89844 17.0001Z" fill="#5B5B5B"/>
<path fill-rule="evenodd" clip-rule="evenodd" d="M17.0001 9.86035C17.6573 9.86035 18.1901 10.3931 18.1901 11.0504L18.1901 17.8504C18.1901 18.5076 17.6573 19.0404 17.0001 19.0404C16.3428 19.0404 15.8101 18.5076 15.8101 17.8504L15.8101 11.0504C15.8101 10.3931 16.3428 9.86035 17.0001 9.86035Z" fill="#5B5B5B"/>
<path fill-rule="evenodd" clip-rule="evenodd" d="M15.8101 22.6666C15.8101 22.0093 16.3428 21.4766 17.0001 21.4766H17.0142C17.6714 21.4766 18.2042 22.0093 18.2042 22.6666C18.2042 23.3238 17.6714 23.8566 17.0142 23.8566H17.0001C16.3428 23.8566 15.8101 23.3238 15.8101 22.6666Z" fill="#5B5B5B"/>
</svg>
