<svg xmlns="http://www.w3.org/2000/svg" xmlns:xlink="http://www.w3.org/1999/xlink" width="20" height="20" viewBox="0 0 20 20">
    <defs>
        <path id="if21w8poca" d="M0 0H20V20H0z"/>
    </defs>
    <g fill="none" fill-rule="evenodd">
        <g>
            <g transform="translate(-203 -331) translate(203 331)">
                <mask id="whmud6sb2b" fill="#fff">
                    <use xlink:href="#if21w8poca"/>
                </mask>
                <g fill="#1DB6FF" mask="url(#whmud6sb2b)">
                    <g>
                        <path d="M5.475 0c.5 0 .966.25 1.243.665l1.127 1.691c.139.208.372.333.622.333h7.667c.99 0 1.793.803 1.793 1.793l-.001.918H4.303c-.512 0-.734.04-.93.118l-.072.031c-.217.1-.395.247-.532.443-.137.195-.225.392-.33.958l-1.56 8.398c-.009.044-.013.088-.013.132 0 .195.078.372.204.502-.63-.278-1.07-.908-1.07-1.64V1.791C0 .803.803 0 1.793 0h3.682z" transform="translate(0 1.5)"/>
                        <path d="M5.437 7.34H18.25c.795 0 1.44.646 1.44 1.44 0 .096-.01.19-.028.283l-1.223 6.11c-.112.56-.2.754-.338.947-.138.192-.315.337-.53.435-.216.097-.424.146-.995.146H2.885c-.398 0-.72-.322-.72-.72 0-.048.005-.095.014-.141l1.395-6.972c.112-.56.2-.753.338-.946.138-.192.315-.338.53-.435.217-.097.424-.146.995-.146z" transform="translate(0 1.5)"/>
                    </g>
                </g>
            </g>
        </g>
    </g>
</svg>
