<svg width="20" height="20" viewBox="0 0 20 20" fill="none" xmlns="http://www.w3.org/2000/svg">
<path fill-rule="evenodd" clip-rule="evenodd" d="M10.0002 16.6664C11.7911 16.6371 13.5257 16.0355 14.9502 14.9497L11.7679 11.7675C11.7576 11.7778 11.7472 11.788 11.7367 11.7981C11.287 12.2325 10.6748 12.4997 10.0002 12.4997C8.61945 12.4997 7.50016 11.3804 7.50016 9.99967C7.50016 9.32536 7.76713 8.71339 8.20115 8.26372C8.21147 8.25302 8.22188 8.24242 8.23239 8.23192L5.05016 5.0497C3.30778 6.3802 1.87007 8.06794 0.833496 9.99969C0.833496 9.99969 4.16683 16.6664 10.0002 16.6664ZM10.0002 3.33303C9.41105 3.33164 8.82377 3.39876 8.25016 3.53303L17.3668 12.658C18.0577 11.837 18.661 10.946 19.1668 9.99969C19.1668 9.99969 15.8335 3.33303 10.0002 3.33303Z" fill="#999999"/>
<path d="M1 1L18.5 18.5" stroke="#999999" stroke-width="2" stroke-linecap="round" stroke-linejoin="round"/>
</svg>
