<svg xmlns="http://www.w3.org/2000/svg" width="50" height="50" viewBox="0 0 50 50">
    <g fill="none" fill-rule="evenodd">
        <g>
            <g>
                <g>
                    <path d="M0 0H50V50H0z" transform="translate(-20 -1932) translate(0 1915) translate(20 17)"/>
                    <g fill="#FFF">
                        <g transform="translate(-20 -1932) translate(0 1915) translate(20 17) translate(4.5 13)">
                            <circle cx="1.95" cy="1.95" r="1.95"/>
                            <path d="M7.8.65H39c.718 0 1.3.582 1.3 1.3 0 .718-.582 1.3-1.3 1.3H7.8c-.718 0-1.3-.582-1.3-1.3 0-.718.582-1.3 1.3-1.3z"/>
                        </g>
                        <g transform="translate(-20 -1932) translate(0 1915) translate(20 17) translate(4.5 13) translate(0 10.4)">
                            <circle cx="1.95" cy="1.95" r="1.95"/>
                            <path d="M7.8.65H39c.718 0 1.3.582 1.3 1.3 0 .718-.582 1.3-1.3 1.3H7.8c-.718 0-1.3-.582-1.3-1.3 0-.718.582-1.3 1.3-1.3z"/>
                        </g>
                        <g transform="translate(-20 -1932) translate(0 1915) translate(20 17) translate(4.5 13) translate(0 20.8)">
                            <circle cx="1.95" cy="1.95" r="1.95"/>
                            <path d="M7.8.65H39c.718 0 1.3.582 1.3 1.3 0 .718-.582 1.3-1.3 1.3H7.8c-.718 0-1.3-.582-1.3-1.3 0-.718.582-1.3 1.3-1.3z"/>
                        </g>
                    </g>
                </g>
            </g>
        </g>
    </g>
</svg>
