<svg width="15" height="15" viewBox="0 0 15 15" fill="none" xmlns="http://www.w3.org/2000/svg">
<path fill-rule="evenodd" clip-rule="evenodd" d="M7.3587 1.19995C9.65706 1.19995 11.5201 3.06303 11.5201 5.36139C11.5201 6.24339 11.1605 7.12424 10.4411 8.0051L10.3953 8.06122C9.92681 8.6225 9.6708 9.32981 9.6708 10.06V10.729C9.6708 10.8321 9.65992 10.8699 9.63987 10.9071C9.61983 10.9449 9.59005 10.9747 9.55225 10.9947C9.51445 11.0148 9.47779 11.0257 9.3747 11.0257H5.3427C5.23961 11.0257 5.20296 11.0148 5.16516 10.9947C5.12736 10.9747 5.09757 10.9449 5.07753 10.9071C5.0592 10.8727 5.04889 10.8384 5.04717 10.7519V10.06C5.04717 9.34986 4.80434 8.66087 4.3599 8.10704L4.32267 8.06122C3.5724 7.16204 3.19727 6.26171 3.19727 5.36139C3.19727 3.06303 5.06035 1.19995 7.3587 1.19995ZM5.50937 11.4879H9.20804C9.46347 11.4879 9.6708 11.6952 9.6708 11.9506C9.6708 12.2061 9.46347 12.4128 9.20804 12.4128H5.50937C5.25393 12.4128 5.0466 12.2061 5.0466 11.9506C5.0466 11.6952 5.25393 11.4879 5.50937 11.4879ZM5.97156 12.875H8.74585C8.74585 13.3859 8.33177 13.8 7.82089 13.8H6.89708C6.39595 13.8 5.98759 13.4013 5.9727 12.9042L5.97213 12.8756L5.97156 12.875Z" fill="#FFA944"/>
</svg>
