<svg xmlns="http://www.w3.org/2000/svg" width="15" height="15" viewBox="0 0 15 15">
    <g fill="none" fill-rule="evenodd">
        <g>
            <path d="M0 0H15V15H0z"/>
            <g>
                <path fill="#FFF" fill-rule="nonzero" d="M5.457.441c.244 0 .441.198.441.441 0 .217-.156.397-.361.434l-.08.008H2.276c-.496 0-.896.348-.947.787l-.005.095v10.588c0 .45.367.829.847.877l.105.005h10.448c.496 0 .896-.348.947-.787l.005-.095V9.443c0-.244.198-.441.442-.441.216 0 .396.156.434.362l.007.079v3.351c0 .935-.753 1.693-1.698 1.76l-.137.005H2.276c-.963 0-1.76-.715-1.83-1.633l-.005-.132V2.206c0-.935.753-1.693 1.698-1.76l.137-.005h3.181zm7.267 0c.963 0 1.76.715 1.83 1.633l.005.132V5.65c0 .243-.198.44-.441.44-.217 0-.397-.155-.434-.361l-.008-.08V2.207c0-.45-.367-.829-.847-.877l-.105-.005H9.226c-.244 0-.442-.198-.442-.442 0-.216.157-.396.362-.434l.08-.007h3.498z"/>
                <path stroke="#FFF" stroke-linecap="round" stroke-linejoin="round" d="M6.507 8.162L13.125 1.544"/>
            </g>
        </g>
    </g>
</svg>
