<svg xmlns="http://www.w3.org/2000/svg" width="84" height="84" viewBox="0 0 84 84">
    <g fill="none" fill-rule="evenodd">
        <g>
            <g>
                <path fill="#141821" d="M41.6 0c22.975 0 41.6 18.625 41.6 41.6S64.575 83.2 41.6 83.2 0 64.575 0 41.6 18.625 0 41.6 0zm0 9.6c-17.673 0-32 14.327-32 32 0 17.673 14.327 32 32 32 17.673 0 32-14.327 32-32 0-17.673-14.327-32-32-32z" transform="translate(-919 -396) translate(919 396)"/>
                <path fill="#2C9EE0" d="M41.6 0c22.975 0 41.6 18.624 41.6 41.599h-9.6l-.004-.528C73.313 23.64 59.096 9.6 41.6 9.6V0z" transform="translate(-919 -396) translate(919 396)"/>
            </g>
        </g>
    </g>
</svg>
