<svg width="40" height="40" viewBox="0 0 40 40" fill="none" xmlns="http://www.w3.org/2000/svg">
<rect width="40" height="40" rx="12" fill="#FFBA00"/>
<rect x="1.18571" y="1.18571" width="37.6286" height="37.6286" rx="10.8143" stroke="white" stroke-opacity="0.2" stroke-width="2.37143" stroke-linejoin="round"/>
<path fill-rule="evenodd" clip-rule="evenodd" d="M9.46219 11.4417C8.96875 12.4101 8.96875 13.6779 8.96875 16.2134V23.7867C8.96875 26.3222 8.96875 27.59 9.46219 28.5584C9.89624 29.4103 10.5888 30.1028 11.4407 30.5369C12.4091 31.0303 13.6769 31.0303 16.2124 31.0303H23.7857C26.3212 31.0303 27.589 31.0303 28.5574 30.5369C29.4093 30.1028 30.1019 29.4103 30.5359 28.5584C31.0294 27.59 31.0294 26.3222 31.0294 23.7867V16.2134C31.0294 13.6779 31.0294 12.4101 30.5359 11.4417C30.1019 10.5898 29.4093 9.89721 28.5574 9.46317C27.589 8.96973 26.3212 8.96973 23.7857 8.96973H16.2124C13.6769 8.96973 12.4091 8.96973 11.4407 9.46317C10.5888 9.89721 9.89624 10.5898 9.46219 11.4417ZM25.3421 29.1734C27.8294 29.1734 29.2984 27.6752 29.2984 25.9152C29.2984 24.3443 28.4694 23.5297 27.1312 22.9915L25.7203 22.3952C24.8039 22.0461 24.033 21.7115 24.033 20.9843C24.033 20.2715 24.6439 19.8497 25.5894 19.8497C26.4766 19.8497 27.1894 20.1697 27.873 20.737L28.9639 19.3843C28.0912 18.497 26.8694 18.0025 25.5894 18.0025C23.4221 18.0025 21.8657 19.3552 21.8657 21.1152C21.8657 22.6861 22.9566 23.5443 24.0475 24.0097L25.4875 24.6206C25.5505 24.6479 25.6121 24.6743 25.6722 24.7001C26.5421 25.0731 27.1021 25.3133 27.1021 26.0752C27.1021 26.8315 26.5057 27.3115 25.3857 27.3115C24.4403 27.3115 23.4221 26.8315 22.6512 26.1188L21.4148 27.6025C22.4621 28.6061 23.8875 29.1734 25.3421 29.1734ZM16.8863 29.1734C19.1991 29.1734 20.2172 27.5152 20.2172 25.4934V18.2061H18.0645V25.3188C18.0645 26.817 17.57 27.3115 16.6245 27.3115C15.9991 27.3115 15.4463 27.0061 15.0245 26.1915L13.5409 27.2825C14.2827 28.5625 15.3154 29.1734 16.8863 29.1734Z" fill="white"/>
</svg>
