<svg xmlns="http://www.w3.org/2000/svg" width="15" height="15" viewBox="0 0 15 15">
    <g fill="none" fill-rule="evenodd">
        <g fill="#FFF" fill-rule="nonzero">
            <g>
                <path d="M14.878 1.789L13.21.122C13.133.044 13.027 0 12.917 0c-.11 0-.217.044-.295.122l-5 5c-.078.078-.122.184-.122.295v1.666c0 .23.187.417.417.417h1.666c.11 0 .217-.044.295-.122l5-5c.078-.078.122-.184.122-.295 0-.11-.044-.216-.122-.294zM9.41 6.667H8.333V5.589l4.584-4.583 1.077 1.077-4.583 4.584z" transform="translate(-66 -351) translate(66 351)"/>
                <path d="M13.75 6.667c-.23 0-.417.186-.417.416v6.25c0 .46-.373.833-.833.834H1.667c-.46 0-.833-.374-.834-.834V4.167c0-.46.374-.833.834-.834H6.25c.23 0 .417-.186.417-.416 0-.23-.187-.417-.417-.417H1.667C.747 2.501 0 3.247 0 4.167v9.166C.001 14.253.747 15 1.667 15H12.5c.92-.001 1.666-.747 1.667-1.667v-6.25c0-.23-.187-.416-.417-.416z" transform="translate(-66 -351) translate(66 351)"/>
            </g>
        </g>
    </g>
</svg>
