<svg xmlns="http://www.w3.org/2000/svg" width="31" height="20" viewBox="0 0 31 20">
    <g fill="none">
        <path fill="#AB6B13" d="M29.95 4.283l-3.962 1.133c-.412.118-.704.474-.698.878.001.064 0 .13-.005.195-.083 1.13-1.06 2.045-2.264 2.121-1.424.09-2.608-.966-2.608-2.282 0-.37.094-.72.26-1.029.196-.363.105-.806-.207-1.089l-4.4-3.995c-.316-.287-.816-.287-1.131 0L10.52 4.222c-.31.282-.385.72-.191 1.083.19.358.285.77.25 1.204-.093 1.12-1.064 2.024-2.259 2.1-1.425.093-2.612-.964-2.612-2.28v-.01c.002-.413-.275-.782-.697-.903L1.051 4.283C.46 4.114-.107 4.6.017 5.166l1.06 4.818c.26-.066.531-.101.812-.101 1.728 0 3.133 1.318 3.133 2.938 0 .42-.094.818-.264 1.179h7.873c-.196-.418-.292-.886-.257-1.379.104-1.45 1.35-2.627 2.897-2.73 1.83-.123 3.362 1.239 3.362 2.93 0 .42-.095.818-.264 1.179h7.873c-.17-.361-.264-.76-.264-1.179 0-1.62 1.405-2.938 3.133-2.938.28 0 .553.035.812.1l1.06-4.817c.124-.567-.443-1.052-1.034-.883z"/>
        <path fill="#8C5407" d="M2 16v2.576C2 19.36 2.664 20 3.48 20h24.04c.816 0 1.48-.639 1.48-1.424V16H2zm4.248 2.945h-.865c-.543 0-.982-.423-.982-.945s.44-.946.982-.946h.865c.542 0 .982.424.982.946s-.44.945-.982.945zm6.456 0h-.865c-.542 0-.982-.423-.982-.945s.44-.946.982-.946h.865c.543 0 .982.424.982.946s-.44.945-.982.945zm6.457 0h-.865c-.543 0-.983-.423-.983-.945s.44-.946.983-.946h.865c.542 0 .982.424.982.946s-.44.945-.982.945zm6.456 0h-.865c-.542 0-.982-.423-.982-.945s.44-.946.982-.946h.865c.543 0 .982.424.982.946s-.44.945-.982.945zM2 12c-.551 0-1 .449-1 1 0 .551.449 1 1 1 .551 0 1-.449 1-1 0-.551-.449-1-1-1zM16 12c-.551 0-1 .449-1 1 0 .551.449 1 1 1 .551 0 1-.449 1-1 0-.551-.449-1-1-1zM29 12c-.551 0-1 .449-1 1 0 .551.449 1 1 1 .551 0 1-.449 1-1 0-.551-.449-1-1-1z"/>
    </g>
</svg>
