<svg xmlns="http://www.w3.org/2000/svg" xmlns:xlink="http://www.w3.org/1999/xlink" width="30" height="30" viewBox="0 0 30 30">
    <defs>
        <path id="wu9eag6aha" d="M0 0H30V30H0z"/>
    </defs>
    <g fill="none" fill-rule="evenodd">
        <g>
            <g transform="translate(-637 -20) translate(637 20)">
                <mask id="j2qzovhlxb" fill="#fff">
                    <use xlink:href="#wu9eag6aha"/>
                </mask>
                <g fill="#FFF" mask="url(#j2qzovhlxb)">
                    <g>
                        <path d="M14.5 0c.828 0 1.5.672 1.5 1.5v25c0 .828-.672 1.5-1.5 1.5s-1.5-.672-1.5-1.5v-25c0-.828.672-1.5 1.5-1.5z" transform="rotate(-45 16.218 13.789)"/>
                        <path d="M14.5 0c.828 0 1.5.672 1.5 1.5v25c0 .828-.672 1.5-1.5 1.5s-1.5-.672-1.5-1.5v-25c0-.828.672-1.5 1.5-1.5z" transform="rotate(-45 16.218 13.789) rotate(90 14.5 14)"/>
                    </g>
                </g>
            </g>
        </g>
    </g>
</svg>
