<svg xmlns="http://www.w3.org/2000/svg" width="20" height="20" viewBox="0 0 20 20">
    <g fill="none" fill-rule="evenodd">
        <g fill="#AFAFAF">
            <g>
                <path d="M10 0c5.523 0 10 4.477 10 10s-4.477 10-10 10S0 15.523 0 10 4.477 0 10 0zm0 5.607c-.172 0-.333.047-.472.128-.138.081-.254.197-.335.335-.081.139-.128.3-.128.472v2.616H6.449c-.13 0-.252.027-.364.074l-.108.054c-.139.082-.254.197-.335.336-.081.138-.128.3-.128.471 0 .173.047.334.128.472.08.139.196.254.335.335.138.082.3.128.472.128h2.616v2.617c0 .129.027.252.074.364l.054.108c.081.138.197.254.335.335.139.08.3.127.472.127s.333-.046.472-.127c.138-.081.254-.197.335-.335.081-.139.128-.3.128-.472l-.001-2.617h2.617c.13 0 .252-.026.364-.073l.108-.055c.139-.08.254-.196.335-.335.081-.138.128-.3.128-.472s-.047-.333-.128-.471c-.08-.139-.196-.254-.335-.336-.138-.08-.3-.127-.472-.127l-2.617-.001V6.542c0-.129-.026-.252-.073-.364l-.054-.108c-.081-.138-.197-.254-.335-.335-.139-.081-.3-.128-.472-.128z" transform="translate(-171 -292) translate(171 292)"/>
            </g>
        </g>
    </g>
</svg>
