<svg width="16" height="11" viewBox="0 0 16 11" fill="none" xmlns="http://www.w3.org/2000/svg">
<path fill-rule="evenodd" clip-rule="evenodd" d="M15.7924 5.22623C13.86 2.18674 11.2625 0.666992 7.99994 0.666992C4.70187 0.666992 2.08345 2.22014 0.144683 5.32642C-0.0483167 5.63565 -0.0483084 6.03223 0.144704 6.34144L0.207479 6.44109C2.13982 9.48058 4.73731 11.0003 7.99994 11.0003C11.2981 11.0003 13.9165 9.44718 15.8552 6.3409C16.0482 6.03167 16.0482 5.63509 15.8552 5.32588L15.7924 5.22623ZM8 9.30942C9.84951 9.30942 11.3488 7.79533 11.3488 5.9276C11.3488 4.05987 9.84951 2.54578 8 2.54578C6.15049 2.54578 4.65116 4.05987 4.65116 5.9276C4.65116 7.79533 6.15049 9.30942 8 9.30942Z" fill="#8E8E8E"/>
</svg>
