<svg width="207" height="217" viewBox="0 0 207 217" fill="none" xmlns="http://www.w3.org/2000/svg">
<rect width="207" height="217" rx="16" fill="black" fill-opacity="0.35"/>
<path fill-rule="evenodd" clip-rule="evenodd" d="M92.14 61.9H92C88.6863 61.9 86 64.5863 86 67.9V79.9C86 83.2137 88.6863 85.9 92 85.9H115C118.314 85.9 121 83.2137 121 79.9V67.9C121 64.5863 118.314 61.9 115 61.9H114.86C114.376 55.8732 109.556 51 103.5 51C97.4442 51 92.6243 55.8732 92.14 61.9ZM95.9567 61.9H111.043C110.577 57.8286 107.302 54.8 103.5 54.8C99.6976 54.8 96.4226 57.8286 95.9567 61.9ZM105 75.5632C106.182 75.0014 107 73.7962 107 72.4C107 70.467 105.433 68.9 103.5 68.9C101.567 68.9 100 70.467 100 72.4C100 73.7962 100.818 75.0014 102 75.5632V77.4C102 78.2284 102.672 78.9 103.5 78.9C104.328 78.9 105 78.2284 105 77.4V75.5632Z" fill="#BFBFBF"/>
</svg>
