<svg width="344" height="458" viewBox="0 0 344 458" fill="none" xmlns="http://www.w3.org/2000/svg">
<rect opacity="0.7" width="344" height="458" rx="16" fill="black"/>
<circle cx="172" cy="228" r="53" fill="#2A2A2A" stroke="#727272" stroke-width="4"/>
<path fill-rule="evenodd" clip-rule="evenodd" d="M160.892 214.655H183.108C182.422 208.66 177.599 204.2 172 204.2C166.401 204.2 161.578 208.66 160.892 214.655ZM188.137 214.655H188.137C187.528 207.313 182.411 201.209 175.575 199.605C182.411 201.209 187.528 207.313 188.137 214.655ZM188.728 214.655C188.015 205.78 180.917 198.604 172 198.604C163.083 198.604 155.985 205.78 155.272 214.655H152.231C148.917 214.655 146.231 217.341 146.231 220.655V243.996C146.231 247.309 148.917 249.996 152.231 249.996H191.769C195.083 249.996 197.769 247.309 197.769 243.996V220.655C197.769 217.341 195.083 214.655 191.769 214.655H188.728ZM160.3 214.655H160.3C160.99 208.353 166.054 203.611 172 203.611C172.2 203.611 172.4 203.616 172.598 203.627C172.4 203.616 172.201 203.611 172 203.611C166.054 203.611 160.99 208.353 160.3 214.655ZM174.209 234.774C175.95 233.947 177.154 232.172 177.154 230.116C177.154 227.27 174.846 224.963 172 224.963C169.154 224.963 166.846 227.27 166.846 230.116C166.846 232.172 168.05 233.947 169.791 234.774V237.479C169.791 238.699 170.78 239.688 172 239.688C173.22 239.688 174.209 238.699 174.209 237.479V234.774Z" fill="white"/>
</svg>
