<svg width="153" height="153" viewBox="0 0 153 153" fill="none" xmlns="http://www.w3.org/2000/svg">
<rect x="3" y="3" width="66.8947" height="67.0807" rx="12" fill="#E14635" stroke="#FB7567" stroke-width="5.4"/>
<path d="M37.2043 55.8827C34.4572 55.8827 31.9955 55.4355 29.8192 54.5411C27.6428 53.6467 25.8947 52.3229 24.5746 50.5699C23.5875 49.2226 22.9586 47.6639 22.688 45.894C22.5503 44.9934 23.2938 44.2375 24.2049 44.2375H30.8213C31.6504 44.2375 32.3131 44.8782 32.5814 45.6626C32.8294 46.3876 33.2109 46.9859 33.7258 47.4574C34.5464 48.1729 35.6167 48.5306 36.9368 48.5306C38.2925 48.5306 39.3628 48.2265 40.1477 47.6183C40.9326 46.9744 41.325 46.0978 41.325 44.9888C41.325 44.0586 41.0039 43.2894 40.3618 42.6812C39.7552 42.073 38.9882 41.5721 38.0606 41.1786C37.1687 40.7851 35.8843 40.3378 34.2074 39.837C31.7814 39.0857 29.8013 38.3344 28.2672 37.5831C26.7331 36.8318 25.413 35.7227 24.307 34.2559C23.201 32.789 22.648 30.875 22.648 28.5138C22.648 25.0077 23.9146 22.2708 26.4477 20.3031C28.9807 18.2996 32.2809 17.2979 36.3481 17.2979C40.4866 17.2979 43.8224 18.2996 46.3555 20.3031C48.4706 21.946 49.7648 24.1378 50.2382 26.8782C50.3956 27.7894 49.6475 28.5674 48.7228 28.5674H42.0467C41.1907 28.5674 40.5287 27.8747 40.1972 27.0855C39.9725 26.5505 39.6349 26.0964 39.1844 25.7232C38.3638 25.0077 37.3114 24.6499 36.027 24.6499C34.921 24.6499 34.0291 24.954 33.3512 25.5622C32.6733 26.1346 32.3344 26.9754 32.3344 28.0844C32.3344 29.3008 32.9052 30.2489 34.0469 30.9287C35.1886 31.6084 36.9724 32.3418 39.3985 33.1289C41.8245 33.9518 43.7868 34.7388 45.2852 35.4901C46.8193 36.2415 48.1394 37.3326 49.2454 38.7637C50.3514 40.1947 50.9044 42.0372 50.9044 44.2911C50.9044 46.4377 50.3514 48.3875 49.2454 50.1406C48.1751 51.8936 46.6053 53.2889 44.536 54.3264C42.4667 55.3639 40.0228 55.8827 37.2043 55.8827Z" fill="white"/>
<rect x="3" y="82.9189" width="66.8947" height="67.0807" rx="12" fill="#2B7FE0" stroke="#5AA3F7" stroke-width="5.4"/>
<path d="M34.4363 105.106V112.726H46.6805C47.5732 112.726 48.2969 113.45 48.2969 114.343V118.194C48.2969 119.086 47.5732 119.81 46.6805 119.81H34.4363V128.074H46.6805C47.5732 128.074 48.2969 128.798 48.2969 129.691V133.81C48.2969 134.703 47.5732 135.426 46.6805 135.426H26.9016C26.0089 135.426 25.2852 134.703 25.2852 133.81V99.3703C25.2852 98.4776 26.0089 97.7539 26.9016 97.7539H46.6805C47.5732 97.7539 48.2969 98.4776 48.2969 99.3703V103.49C48.2969 104.382 47.5732 105.106 46.6805 105.106H34.4363Z" fill="white"/>
<rect x="83.1055" y="3" width="66.8947" height="67.0807" rx="12" fill="#8055C8" stroke="#986FDC" stroke-width="5.4"/>
<path d="M129.255 18.835C130.148 18.835 130.872 19.5587 130.872 20.4514V24.5706C130.872 25.4633 130.148 26.187 129.255 26.187H120.918V54.8911C120.918 55.7838 120.194 56.5075 119.301 56.5075H113.383C112.49 56.5075 111.766 55.7838 111.766 54.8911V26.187H103.429C102.536 26.187 101.812 25.4633 101.812 24.5706V20.4514C101.812 19.5587 102.536 18.835 103.429 18.835H129.255Z" fill="white"/>
<rect x="83.1055" y="82.9189" width="66.8947" height="67.0807" rx="12" fill="#5EB00D" stroke="#89D83C" stroke-width="5.4"/>
<path d="M135.998 98C136.89 98 137.614 98.7237 137.614 99.6164V133.384C137.614 134.276 136.89 135 135.998 135H130.222C129.329 135 128.605 134.276 128.605 133.384V112.811L120.726 133.948C120.49 134.581 119.886 135 119.211 135H114.184C113.51 135 112.907 134.582 112.67 133.95L104.739 112.758V133.384C104.739 134.276 104.016 135 103.123 135H97.3469C96.4542 135 95.7305 134.276 95.7305 133.384V99.6164C95.7305 98.7237 96.4542 98 97.3469 98H105.283C105.942 98 106.534 98.3993 106.782 99.0094L116.751 123.615L126.618 99.0147C126.863 98.4018 127.457 98 128.118 98H135.998Z" fill="white"/>
</svg>
