<svg width="22" height="22" viewBox="0 0 22 22" fill="none" xmlns="http://www.w3.org/2000/svg">
<path d="M11.2071 6.20711C11.5976 5.81658 11.5976 5.18342 11.2071 4.79289C10.8166 4.40237 10.1834 4.40237 9.79289 4.79289L11.2071 6.20711ZM5 11L4.29289 10.2929C3.90237 10.6834 3.90237 11.3166 4.29289 11.7071L5 11ZM9.79289 17.2071C10.1834 17.5976 10.8166 17.5976 11.2071 17.2071C11.5976 16.8166 11.5976 16.1834 11.2071 15.7929L9.79289 17.2071ZM9.79289 4.79289L4.29289 10.2929L5.70711 11.7071L11.2071 6.20711L9.79289 4.79289ZM4.29289 11.7071L9.79289 17.2071L11.2071 15.7929L5.70711 10.2929L4.29289 11.7071Z" fill="#AEAEAE"/>
<path d="M6.30078 11L17.3008 11" stroke="#AEAEAE" stroke-width="2" stroke-linecap="round" stroke-linejoin="round"/>
</svg>
