<svg xmlns="http://www.w3.org/2000/svg" xmlns:xlink="http://www.w3.org/1999/xlink" width="31" height="28" viewBox="0 0 31 28">
    <defs>
        <path id="ucczh0juta" d="M0 0.063L6.128 0.063 6.128 7.854 0 7.854z"/>
    </defs>
    <g fill="none" fill-rule="evenodd">
        <g>
            <g>
                <path fill="#391B1B" d="M15.3 0C6.85 0 0 5.374 0 12.004c0 4.316 2.902 8.097 7.258 10.213-.32 1.186-1.158 4.296-1.327 4.962-.207.825.305.814.64.592.264-.174 4.194-2.825 5.889-3.97.92.136 1.87.208 2.84.208 8.45 0 15.3-5.375 15.3-12.005C30.6 5.374 23.75 0 15.3 0" transform="translate(-132 -456) translate(132 456)"/>
                <g>
                    <g transform="translate(-132 -456) translate(132 456) translate(3.809 8.338) translate(0 .047)">
                        <mask id="4fpurv8iyb" fill="#fff">
                            <use xlink:href="#ucczh0juta"/>
                        </mask>
                        <path fill="#FAE300" d="M5.35.063H.778C.348.063 0 .41 0 .84c0 .43.348.778.778.778h1.486v5.478c0 .199.081.394.224.536.14.141.335.222.535.222h.166c.199 0 .393-.08.533-.221.143-.142.224-.337.224-.537V1.618H5.35c.43 0 .778-.348.778-.778 0-.429-.348-.777-.778-.777" mask="url(#4fpurv8iyb)"/>
                    </g>
                    <path fill="#FAE300" d="M16.338 6.438h-2.126V.844c0-.466-.377-.844-.843-.844-.466 0-.844.378-.844.844v6.03c0 .047.006.09.013.135-.008.044-.013.09-.013.135 0 .39.315.706.706.706h3.107c.391 0 .706-.316.706-.706 0-.39-.315-.706-.706-.706M23.133 6.695l-2.37-3.112 2.141-2.142c.29-.29.29-.76 0-1.05-.29-.29-.76-.29-1.05 0l-2.65 2.65V.845c0-.466-.378-.844-.844-.844-.466 0-.844.378-.844.844V7.06c0 .467.378.844.844.844.466 0 .843-.377.843-.844V5.142l.482-.482 2.241 2.941c.25.334.724.402 1.057.15.333-.25.4-.723.15-1.056M7.456 4.879l1.048-2.99c.012 0 .022.003.034.003l1.047 2.987H7.456zm4.438 2.018L9.615.663 9.607.656C9.461.276 9.041 0 8.54 0c-.557 0-1.017.34-1.108.785-.016.033-.031.066-.044.102l-2.24 6.01c-.139.394.069.826.462.964s.825-.07.964-.463l.387-1.107h3.12l.387 1.107c.138.394.57.601.963.463.394-.138.601-.57.463-.964z" transform="translate(-132 -456) translate(132 456) translate(3.809 8.338)"/>
                </g>
            </g>
        </g>
    </g>
</svg>
