<svg xmlns="http://www.w3.org/2000/svg" width="22" height="22" viewBox="0 0 22 22">
    <g fill="none" fill-rule="evenodd" stroke-linecap="round" stroke-linejoin="round">
        <g stroke="#FFF" stroke-width="2">
            <g>
                <path d="M8 11c.869 1.162 2.2 1.889 3.647 1.992 1.447.104 2.867-.426 3.893-1.452l3-3c1.895-1.962 1.868-5.08-.06-7.01-1.93-1.928-5.048-1.955-7.01-.06L9.75 3.18" transform="translate(-134 -512) translate(135 513)"/>
                <path d="M12 9c-.869-1.162-2.2-1.889-3.647-1.992-1.447-.104-2.867.426-3.893 1.452l-3 3c-1.895 1.962-1.868 5.08.06 7.01 1.93 1.928 5.048 1.955 7.01.06l1.71-1.71" transform="translate(-134 -512) translate(135 513)"/>
            </g>
        </g>
    </g>
</svg>
