<svg xmlns="http://www.w3.org/2000/svg" width="24" height="24" viewBox="0 0 24 24">
    <defs>
        <filter id="a" width="117.3%" height="123.7%" x="-7.2%" y="-11.8%" filterUnits="objectBoundingBox">
            <feOffset in="SourceAlpha" result="shadowOffsetOuter1"/>
            <feGaussianBlur in="shadowOffsetOuter1" result="shadowBlurOuter1" stdDeviation="15"/>
            <feColorMatrix in="shadowBlurOuter1" result="shadowMatrixOuter1" values="0 0 0 0 0 0 0 0 0 0 0 0 0 0 0 0 0 0 0.5 0"/>
            <feMerge>
                <feMergeNode in="shadowMatrixOuter1"/>
                <feMergeNode in="SourceGraphic"/>
            </feMerge>
        </filter>
    </defs>
    <g fill="none" fill-rule="evenodd" filter="url(#a)">
        <rect width="24" height="24" fill="#101010" opacity=".502" rx="2"/>
        <path fill="#FFF" fill-rule="nonzero" d="M14.789 18.42c0 .32-.255.58-.57.58H7.277C6.021 19 5 17.959 5 16.679v-6.442c0-.32.255-.58.57-.58.313 0 .568.26.568.58v6.442c0 .64.51 1.16 1.138 1.16h6.944c.314 0 .569.26.569.58zm3.604-11.298v2.36c0 .32 0 1.47.038.58v2.38c0 .32-.255.58-.57.58a.575.575 0 0 1-.568-.58v-2.38H5.607a.575.575 0 0 1-.57-.58v-1.74C5.038 6.78 5.198 6 6.139 6h11.155c.941 0 1.1.162 1.1 1.122zM6.176 8.902h11.079v-1.16c0-.32-.256-.581-.57-.581h-9.94c-.314 0-.569.26-.569.58v1.16zm10.306 4.962H13.48l.713-.72a.588.588 0 0 0 .004-.82.561.561 0 0 0-.804-.004l-1.057 1.065c-.271.274-.42.638-.421 1.025 0 .388.148.752.418 1.026l1.058 1.074a.562.562 0 0 0 .805-.003.588.588 0 0 0-.002-.82l-.653-.662h2.94c.762 0 1.38.63 1.38 1.407 0 .776-.611 1.407-1.364 1.407-.314 0-.569.26-.569.58 0 .321.255.581.57.581.672 0 1.303-.268 1.775-.754.469-.484.727-1.128.727-1.814 0-1.416-1.13-2.568-2.518-2.568z"/>
    </g>
</svg>
