<svg xmlns="http://www.w3.org/2000/svg" width="12" height="12" viewBox="0 0 12 12">
    <g fill="none" fill-rule="evenodd">
        <g>
            <g>
                <path d="M0 0H12V12H0z" transform="translate(-54 -275) translate(54 275)"/>
                <path fill="#AFAFAF" d="M11.075 1.06C10.483.383 9.679 0 8.842 0 8.004 0 7.2.382 6.608 1.06L6 1.76 5.39 1.06C4.158-.353 2.158-.353.925 1.06s-1.233 3.707 0 5.12l.609.698L6 12l4.466-5.12.609-.698c.592-.68.925-1.6.925-2.56 0-.961-.333-1.882-.925-2.561z" transform="translate(-54 -275) translate(54 275)"/>
            </g>
        </g>
    </g>
</svg>
