<svg width="160" height="90" viewBox="0 0 160 90" fill="none" xmlns="http://www.w3.org/2000/svg">
<path opacity="0.6" d="M0 8C0 3.58172 3.58172 0 8 0H152C156.418 0 160 3.58172 160 8V82C160 86.4183 156.418 90 152 90H8C3.58172 90 0 86.4183 0 82V8Z" fill="black"/>
<path d="M107 45C107 59.9117 94.9117 72 80 72C65.0883 72 53 59.9117 53 45C53 30.0883 65.0883 18 80 18C94.9117 18 107 30.0883 107 45Z" fill="#2A2A2A"/>
<path fill-rule="evenodd" clip-rule="evenodd" d="M80 69.6264C93.6008 69.6264 104.626 58.6008 104.626 45C104.626 31.3992 93.6008 20.3736 80 20.3736C66.3992 20.3736 55.3736 31.3992 55.3736 45C55.3736 58.6008 66.3992 69.6264 80 69.6264ZM80 72C94.9117 72 107 59.9117 107 45C107 30.0883 94.9117 18 80 18C65.0883 18 53 30.0883 53 45C53 59.9117 65.0883 72 80 72Z" fill="#727272"/>
<path fill-rule="evenodd" clip-rule="evenodd" d="M74.5471 38.4485H85.4528C85.116 35.5054 82.7486 33.3161 80 33.3161C77.2513 33.3161 74.8839 35.5054 74.5471 38.4485ZM87.9218 38.4485H87.9217C87.8013 36.9972 87.3222 35.6444 86.5735 34.4947C87.3222 35.6444 87.8014 36.9972 87.9218 38.4485ZM88.2118 38.4485C87.8618 34.0919 84.3776 30.5692 80 30.5692C75.6224 30.5692 72.1382 34.0919 71.7881 38.4485H70.91C68.9437 38.4485 67.3496 40.0426 67.3496 42.0089V52.2371C67.3496 54.2035 68.9437 55.7976 70.91 55.7976H89.0899C91.0562 55.7976 92.6503 54.2035 92.6503 52.2371V42.0089C92.6503 40.0426 91.0562 38.4485 89.0899 38.4485H88.2118ZM74.2562 38.4485H74.2561C74.5948 35.3549 77.0811 33.0269 79.9999 33.0269C81.6692 33.0269 83.197 33.7883 84.2626 35.019C83.197 33.7884 81.6692 33.027 80 33.027C77.0812 33.027 74.5949 35.355 74.2562 38.4485ZM81.0842 48.3252C81.939 47.9192 82.53 47.0479 82.53 46.0386C82.53 44.6413 81.3973 43.5086 80 43.5086C78.6026 43.5086 77.4699 44.6413 77.4699 46.0386C77.4699 47.0479 78.0608 47.9191 78.9156 48.3252V49.653C78.9156 50.2519 79.4011 50.7373 79.9999 50.7373C80.5988 50.7373 81.0842 50.2519 81.0842 49.653V48.3252Z" fill="white"/>
</svg>
