<svg width="150" height="40" viewBox="0 0 150 40" fill="none" xmlns="http://www.w3.org/2000/svg">
<rect width="150" height="40" rx="10" fill="#313131"/>
<path fill-rule="evenodd" clip-rule="evenodd" d="M70.974 15.54H80.026C79.7467 13.0969 77.7816 11.2795 75.5 11.2795C73.2184 11.2795 71.2533 13.0969 70.974 15.54ZM82.0752 15.54H82.0752C82.0368 15.0761 81.9542 14.6244 81.8317 14.1897C81.9542 14.6244 82.0368 15.0761 82.0752 15.54ZM82.316 15.54C82.0257 11.9237 79.1336 8.99951 75.5 8.99951C71.8664 8.99951 68.9743 11.9237 68.684 15.54H67.9552C66.3231 15.54 65 16.8631 65 18.4952V26.9847C65 28.6169 66.3231 29.94 67.9552 29.94H83.0448C84.6769 29.94 86 28.6169 86 26.9847V18.4952C86 16.8631 84.6769 15.54 83.0448 15.54H82.316ZM70.7325 15.54H70.7324C71.0132 12.9719 73.077 11.0393 75.4999 11.0393C77.5375 11.0393 79.3212 12.4061 80.0039 14.3683C79.3211 12.4063 77.5375 11.0395 75.5 11.0395C73.0772 11.0395 71.0135 12.972 70.7325 15.54ZM76.4 23.738C77.1095 23.401 77.6 22.6778 77.6 21.8401C77.6 20.6803 76.6598 19.7401 75.5 19.7401C74.3402 19.7401 73.4 20.6803 73.4 21.8401C73.4 22.6778 73.8905 23.401 74.6 23.738V24.84C74.6 25.337 75.0029 25.74 75.5 25.74C75.997 25.74 76.4 25.337 76.4 24.84V23.738Z" fill="#5F5F5F"/>
</svg>
