<svg xmlns="http://www.w3.org/2000/svg" width="24" height="24" viewBox="0 0 24 24">
    <defs>
        <filter id="a" width="117.3%" height="123.7%" x="-7.2%" y="-11.8%" filterUnits="objectBoundingBox">
            <feOffset in="SourceAlpha" result="shadowOffsetOuter1"/>
            <feGaussianBlur in="shadowOffsetOuter1" result="shadowBlurOuter1" stdDeviation="15"/>
            <feColorMatrix in="shadowBlurOuter1" result="shadowMatrixOuter1" values="0 0 0 0 0 0 0 0 0 0 0 0 0 0 0 0 0 0 0.5 0"/>
            <feMerge>
                <feMergeNode in="shadowMatrixOuter1"/>
                <feMergeNode in="SourceGraphic"/>
            </feMerge>
        </filter>
    </defs>
    <g fill="none" fill-rule="evenodd" filter="url(#a)">
        <rect width="24" height="24" fill="#101010" opacity=".502" rx="2"/>
        <path fill="#FFF" fill-rule="nonzero" d="M17.6 5H9.2c-.77 0-1.4.63-1.4 1.4v8.4c0 .77.63 1.4 1.4 1.4h8.4c.77 0 1.4-.63 1.4-1.4V6.4c0-.77-.63-1.4-1.4-1.4zm-5.95 5.25c0 .581-.469 1.05-1.05 1.05h-.7v.875a.529.529 0 0 1-.525.525.529.529 0 0 1-.525-.525V9.2c0-.385.315-.7.7-.7h1.05c.581 0 1.05.469 1.05 1.05v.7zm3.5 1.4c0 .581-.469 1.05-1.05 1.05h-1.4a.347.347 0 0 1-.35-.35v-3.5c0-.196.154-.35.35-.35h1.4c.581 0 1.05.469 1.05 1.05v2.1zm2.8-2.625a.529.529 0 0 1-.525.525H16.9v.7h.525c.287 0 .525.238.525.525a.529.529 0 0 1-.525.525H16.9v.875a.529.529 0 0 1-.525.525.529.529 0 0 1-.525-.525V9.2c0-.385.315-.7.7-.7h.875c.287 0 .525.238.525.525zM9.9 10.25h.7v-.7h-.7v.7zM5.7 7.8c-.385 0-.7.315-.7.7v9.1c0 .77.63 1.4 1.4 1.4h9.1c.385 0 .7-.315.7-.7 0-.385-.315-.7-.7-.7H7.1a.702.702 0 0 1-.7-.7V8.5c0-.385-.315-.7-.7-.7zm7.7 3.85h.7v-2.1h-.7v2.1z"/>
    </g>
</svg>
