<svg xmlns="http://www.w3.org/2000/svg" width="36" height="36" viewBox="0 0 36 36">
    <defs>
        <linearGradient id="vd5v3n7lia" x1="50%" x2="50%" y1=".716%" y2="100%">
            <stop offset="0%" stop-color="#008DFF"/>
            <stop offset="100%" stop-color="#0064DE"/>
        </linearGradient>
        <linearGradient id="lct02h5okb" x1="50%" x2="50%" y1="0%" y2="100%">
            <stop offset="0%" stop-color="#FAF8EB"/>
            <stop offset="97.258%" stop-color="#E6E7E7"/>
        </linearGradient>
    </defs>
    <g fill="none" fill-rule="evenodd">
        <g>
            <g>
                <path fill-rule="nonzero" d="M36 0v36H0V0h36zm-1.059 1.059H1.06V34.94H34.94V1.06z"/>
                <circle cx="18" cy="18.072" r="12.24" fill="url(#vd5v3n7lia)"/>
            </g>
            <path fill="url(#lct02h5okb)" d="M14.628 13.416l-.015.047-.028.088-.034.113-.034.118-.027.097-.014.05-.028.101-1.295 4.805c-.533 2 .656 4.05 2.654 4.583l2.732.727-2.857.766-.089.023-.086.022-.083.02-.08.02-.079.019-.076.017-.073.016-.071.015-.07.014-.066.013-.065.012-.063.01-.061.01-.06.01-.057.007-.056.007-.055.006-.052.006-.052.004-.05.003-.048.003h-.024l-.047.002h-.023l-.046.001h-.066l-.043-.002-.02-.001-.043-.003-.04-.003-.041-.004-.04-.005-.02-.002-.039-.005-.039-.006-.038-.007-.036-.006-.145-.03c-.505-.119-.945-.373-1.3-.751l-.038-.042-.025-.028-.037-.043-.025-.028-.025-.031-.025-.031-.024-.032-.024-.032-.012-.017-.024-.033-.024-.035-.023-.035-.011-.019-.024-.037-.011-.019-.023-.039-.022-.04-.023-.041-.022-.043-.023-.045-.022-.046-.022-.047-.011-.025-.022-.05-.023-.053-.01-.026-.023-.056-.011-.028-.022-.058-.023-.06-.022-.063-.023-.065-.011-.034-.023-.068-.023-.072-.023-.073-.023-.077-.024-.079-.012-.04-.024-.084-.024-.086-.024-.09-1.105-4.122-.022-.087-.022-.085-.02-.082-.02-.08-.018-.077-.017-.074-.016-.073-.015-.07-.014-.069-.013-.066-.012-.065-.005-.031-.01-.061-.006-.03-.009-.06-.008-.056c0-.01-.002-.02-.003-.028l-.007-.055-.006-.053-.005-.052-.002-.025-.003-.05-.003-.048-.002-.047-.001-.024v-.045l-.001-.045v-.043l.001-.022.002-.042.002-.041.003-.041.001-.02.004-.04.005-.04.005-.038.002-.02.006-.037.006-.038.01-.055.028-.127c.118-.505.372-.945.75-1.3l.041-.037.041-.037.029-.025.043-.036.03-.024.03-.024.03-.023.032-.024.032-.022.033-.023.033-.022.035-.023.036-.022.036-.022.038-.021.02-.011.04-.022.04-.021.043-.022.044-.021.022-.01.047-.022.047-.021.05-.022.051-.02.08-.033.056-.021.058-.022.03-.01.061-.022.063-.022.066-.022.067-.022.07-.022.073-.022.075-.023.078-.022.121-.035.085-.023.087-.024 1.845-.494zm3.571-1.954h.046l.047.002.06.002.063.004.025.002.053.005.053.005.055.007.057.007.058.008.06.01.063.01.097.017.067.013.069.014.071.015.074.016.076.017.078.018.081.02.083.02.087.022.088.023 4.865 1.295c1.484.395 2.372 1.907 2.003 3.391l-.014.054-1.305 4.84-.024.086-.024.084-.023.081-.023.079-.035.112-.033.107-.023.069-.022.066-.022.063-.022.062-.022.059-.021.057-.022.055-.022.054-.021.051-.022.05-.021.048-.027.057-.028.055-.021.043-.011.02-.022.041-.022.04-.022.037-.023.037-.022.036-.023.034-.022.034-.023.033-.024.032-.023.031-.024.031-.024.03-.025.03-.037.043-.024.028-.062.068c-.355.378-.794.631-1.298.75l-.054.011-.036.008-.054.01-.036.007-.055.01-.036.005-.037.004-.047.006-.058.005-.069.005-.04.001-.04.002H22.38l-.044-.001-.045-.002-.046-.003-.048-.003-.048-.004-.05-.005-.026-.003-.052-.006-.053-.007-.055-.007-.056-.009-.059-.01-.06-.01-.06-.011-.097-.019-.066-.013-.068-.015-.07-.015-.073-.017-.074-.017-.077-.019-.079-.02-.081-.02-.127-.034-4.82-1.283c-1.483-.395-2.371-1.906-2.002-3.39l.014-.054 1.305-4.838.034-.124.023-.08.022-.077.022-.074.022-.072.033-.104.021-.066.021-.065.022-.062.02-.06.022-.057.02-.056.022-.055.02-.052.021-.05.021-.05.02-.046.021-.046.021-.044.021-.043.021-.041.02-.04.022-.04.021-.037.032-.054.022-.035.021-.034.022-.033.022-.032.022-.031.023-.03.022-.03.023-.03.035-.044.036-.042.024-.027.024-.028.05-.054c.354-.378.793-.631 1.298-.75.066-.015.131-.028.198-.04l.036-.005.037-.006.04-.005.04-.005.02-.002.04-.003.021-.002.042-.002.042-.002.044-.002h.066z"/>
        </g>
    </g>
</svg>
