<svg xmlns="http://www.w3.org/2000/svg" xmlns:xlink="http://www.w3.org/1999/xlink" width="50" height="50" viewBox="0 0 50 50">
    <defs>
        <filter id="e4rmp0moca" width="110.8%" height="110.8%" x="-5.4%" y="-2.7%" filterUnits="objectBoundingBox">
            <feOffset dy="1" in="SourceAlpha" result="shadowOffsetOuter1"/>
            <feGaussianBlur in="shadowOffsetOuter1" result="shadowBlurOuter1" stdDeviation=".5"/>
            <feColorMatrix in="shadowBlurOuter1" values="0 0 0 0 0 0 0 0 0 0 0 0 0 0 0 0 0 0 0.252236187 0"/>
        </filter>
        <filter id="58dnm19yud" width="110.8%" height="110.8%" x="-5.4%" y="-2.7%" filterUnits="objectBoundingBox">
            <feOffset dy="1" in="SourceAlpha" result="shadowOffsetInner1"/>
            <feComposite in="shadowOffsetInner1" in2="SourceAlpha" k2="-1" k3="1" operator="arithmetic" result="shadowInnerInner1"/>
            <feColorMatrix in="shadowInnerInner1" result="shadowMatrixInner1" values="0 0 0 0 0.999901831 0 0 0 0 1 0 0 0 0 0.999879897 0 0 0 0.5 0"/>
            <feGaussianBlur in="SourceAlpha" result="shadowBlurInner2" stdDeviation=".5"/>
            <feOffset dy="-1" in="shadowBlurInner2" result="shadowOffsetInner2"/>
            <feComposite in="shadowOffsetInner2" in2="SourceAlpha" k2="-1" k3="1" operator="arithmetic" result="shadowInnerInner2"/>
            <feColorMatrix in="shadowInnerInner2" result="shadowMatrixInner2" values="0 0 0 0 1 0 0 0 0 0.368461072 0 0 0 0 0.15323174 0 0 0 0.6 0"/>
            <feGaussianBlur in="SourceAlpha" result="shadowBlurInner3" stdDeviation=".5"/>
            <feOffset dy="-1" in="shadowBlurInner3" result="shadowOffsetInner3"/>
            <feComposite in="shadowOffsetInner3" in2="SourceAlpha" k2="-1" k3="1" operator="arithmetic" result="shadowInnerInner3"/>
            <feColorMatrix in="shadowInnerInner3" result="shadowMatrixInner3" values="0 0 0 0 0 0 0 0 0 0 0 0 0 0 0 0 0 0 0.1 0"/>
            <feMerge>
                <feMergeNode in="shadowMatrixInner1"/>
                <feMergeNode in="shadowMatrixInner2"/>
                <feMergeNode in="shadowMatrixInner3"/>
            </feMerge>
        </filter>
        <filter id="jq5t1xlwhf" width="117.9%" height="127.6%" x="-9%" y="-6.9%" filterUnits="objectBoundingBox">
            <feOffset dy="1" in="SourceAlpha" result="shadowOffsetOuter1"/>
            <feGaussianBlur in="shadowOffsetOuter1" result="shadowBlurOuter1" stdDeviation=".5"/>
            <feColorMatrix in="shadowBlurOuter1" values="0 0 0 0 0 0 0 0 0 0 0 0 0 0 0 0 0 0 0.252236187 0"/>
        </filter>
        <filter id="44kqyv15ei" width="117.9%" height="127.6%" x="-9%" y="-6.9%" filterUnits="objectBoundingBox">
            <feOffset dy="1" in="SourceAlpha" result="shadowOffsetInner1"/>
            <feComposite in="shadowOffsetInner1" in2="SourceAlpha" k2="-1" k3="1" operator="arithmetic" result="shadowInnerInner1"/>
            <feColorMatrix in="shadowInnerInner1" result="shadowMatrixInner1" values="0 0 0 0 0.999901831 0 0 0 0 1 0 0 0 0 0.999879897 0 0 0 0.5 0"/>
            <feGaussianBlur in="SourceAlpha" result="shadowBlurInner2" stdDeviation=".5"/>
            <feOffset dy="-1" in="shadowBlurInner2" result="shadowOffsetInner2"/>
            <feComposite in="shadowOffsetInner2" in2="SourceAlpha" k2="-1" k3="1" operator="arithmetic" result="shadowInnerInner2"/>
            <feColorMatrix in="shadowInnerInner2" result="shadowMatrixInner2" values="0 0 0 0 1 0 0 0 0 0.368461072 0 0 0 0 0.15323174 0 0 0 0.6 0"/>
            <feGaussianBlur in="SourceAlpha" result="shadowBlurInner3" stdDeviation=".5"/>
            <feOffset dy="-1" in="shadowBlurInner3" result="shadowOffsetInner3"/>
            <feComposite in="shadowOffsetInner3" in2="SourceAlpha" k2="-1" k3="1" operator="arithmetic" result="shadowInnerInner3"/>
            <feColorMatrix in="shadowInnerInner3" result="shadowMatrixInner3" values="0 0 0 0 0 0 0 0 0 0 0 0 0 0 0 0 0 0 0.1 0"/>
            <feMerge>
                <feMergeNode in="shadowMatrixInner1"/>
                <feMergeNode in="shadowMatrixInner2"/>
                <feMergeNode in="shadowMatrixInner3"/>
            </feMerge>
        </filter>
        <linearGradient id="0kn0dc80vc" x1="50%" x2="50%" y1="0%" y2="97.258%">
            <stop offset=".055%" stop-color="#FFF"/>
            <stop offset="100%" stop-color="#E8E8E8"/>
        </linearGradient>
        <linearGradient id="d4pe9ifs2e" x1="50%" x2="50%" y1="0%" y2="100%">
            <stop offset="0%" stop-color="#FF5E27"/>
            <stop offset="100%" stop-color="#F74100"/>
        </linearGradient>
        <linearGradient id="f59fp9okqh" x1="50%" x2="50%" y1="0%" y2="97.258%">
            <stop offset=".055%" stop-color="#FFF"/>
            <stop offset="100%" stop-color="#E8E8E8"/>
        </linearGradient>
        <circle id="dtjzdwplnb" cx="25" cy="25.1" r="18.6"/>
        <path id="it33zde99g" d="M13.969.272h.19l.183.003.174.003.166.005.235.008.147.008.141.008.135.01.128.01.123.012.117.013.112.014.108.015.103.017.099.017.095.019.092.02.089.02.043.011.085.023.083.024.08.024.08.027.078.027.077.028.077.03.076.03.038.016c.715.298 1.316.748 1.813 1.358l.053.065.077.1.075.1.05.07.048.07.048.073.048.075.047.078.047.081.024.042.047.086.023.045.047.092.048.096.048.101.048.107.049.111.05.117.05.124.05.13.08.206.053.147.055.154.057.162.058.17.09.272.062.192 1.843 5.754c.493 1.538-.309 3.2-1.79 3.712-.288.1-.589.15-.892.15-1.074 0-2.106-.413-2.883-1.155L15 12.03l-.064-.06-.033-.027-.028-.021-.025-.018-.013-.008c-.047-.028-.095-.048-.149-.06l-.029-.005-.015-.003-.035-.004-.042-.002-.053-.002H7.858l-.048.003-.02.001-.034.004-.03.005-.014.003c-.054.012-.102.032-.149.06l-.025.017-.027.019-.014.011-.033.028-.04.036-.05.047-1.62 1.546c-.717.685-1.652 1.09-2.636 1.148l-.247.007c-1.56 0-2.826-1.314-2.826-2.935 0-.175.033-.42.1-.732l.044-.195 1.875-5.85.06-.188.09-.265.085-.247.055-.154.054-.147.078-.207.051-.13.05-.123.05-.117.05-.111.047-.107.048-.1.048-.097.047-.092.047-.088.023-.043.047-.083.024-.04.047-.078.048-.075.048-.073.049-.07.049-.07.075-.1.051-.067.052-.065.027-.033c.497-.61 1.098-1.06 1.813-1.358L5.39.668l.077-.03.077-.028.078-.027.08-.027.08-.024.083-.024.085-.023.087-.021.045-.01.092-.02.095-.019.1-.017.102-.017.108-.015.112-.014.117-.013.123-.012.128-.01.135-.01.14-.008.148-.008.235-.008.166-.005.174-.003.277-.003h5.634zM7.48 3.5c-.432 0-.782.35-.782.783V5.36H5.621c-.432 0-.783.35-.783.783 0 .432.35.783.783.783l1.076-.001v1.077c0 .433.351.783.783.783.433 0 .783-.35.783-.783V6.925H9.34c.432 0 .783-.35.783-.782 0-.433-.35-.783-.783-.783H8.263l.001-1.076c0-.433-.35-.783-.783-.783zm5.676 2.642c-.648 0-1.174.526-1.174 1.174 0 .649.526 1.174 1.174 1.174.649 0 1.174-.525 1.174-1.174 0-.648-.525-1.174-1.174-1.174zm2.349-2.349c-.649 0-1.175.526-1.175 1.175 0 .648.526 1.174 1.175 1.174.648 0 1.174-.526 1.174-1.174 0-.649-.526-1.175-1.174-1.175z"/>
    </defs>
    <g fill="none" fill-rule="evenodd">
        <g>
            <g>
                <path fill-rule="nonzero" d="M50 0v50H0V0h50zm-1.47 1.47H1.47v47.06h47.06V1.47z"/>
                <g>
                    <use fill="#000" filter="url(#e4rmp0moca)" xlink:href="#dtjzdwplnb"/>
                    <use fill="url(#0kn0dc80vc)" xlink:href="#dtjzdwplnb"/>
                    <use fill="#000" filter="url(#58dnm19yud)" xlink:href="#dtjzdwplnb"/>
                </g>
                <circle cx="25" cy="25.1" r="17" fill="url(#d4pe9ifs2e)"/>
            </g>
            <g transform="translate(13.8 17.5)">
                <use fill="#000" filter="url(#jq5t1xlwhf)" xlink:href="#it33zde99g"/>
                <use fill="url(#f59fp9okqh)" xlink:href="#it33zde99g"/>
                <use fill="#000" filter="url(#44kqyv15ei)" xlink:href="#it33zde99g"/>
            </g>
        </g>
    </g>
</svg>
