<svg xmlns="http://www.w3.org/2000/svg" width="36" height="36" viewBox="0 0 36 36">
    <defs>
        <linearGradient id="8gg78ibx6a" x1="50%" x2="50%" y1="0%" y2="100%">
            <stop offset=".098%" stop-color="#FF296F"/>
            <stop offset="100%" stop-color="#F40D5A"/>
        </linearGradient>
        <linearGradient id="r0udlzxiob" x1="50%" x2="50%" y1="0%" y2="97.258%">
            <stop offset=".055%" stop-color="#FFF"/>
            <stop offset="100%" stop-color="#E8E8E8"/>
        </linearGradient>
    </defs>
    <g fill="none" fill-rule="evenodd">
        <g>
            <g>
                <path fill-rule="nonzero" d="M36 0v36H0V0h36zm-1.059 1.059H1.06V34.94H34.94V1.06z"/>
                <circle cx="18" cy="18.072" r="12.24" fill="url(#8gg78ibx6a)"/>
            </g>
            <path fill="url(#r0udlzxiob)" d="M17.964 14.307l.037-.051c1.21-1.666 2.767-2.1 4.67-1.304 2.86 1.196 4.08 7.279-4.449 12.237-.16.092-.356.092-.516 0-8.442-4.908-7.332-10.918-4.536-12.2l.086-.037c1.904-.797 3.461-.362 4.671 1.304l.037.05z"/>
        </g>
    </g>
</svg>
