<svg xmlns="http://www.w3.org/2000/svg" xmlns:xlink="http://www.w3.org/1999/xlink" width="60" height="60" viewBox="0 0 60 60">
    <defs>
        <filter id="u7hi4uf5ca" width="108.3%" height="106.9%" x="-4.1%" y="-3.4%" filterUnits="objectBoundingBox">
            <feOffset in="SourceAlpha" result="shadowOffsetOuter1"/>
            <feGaussianBlur in="shadowOffsetOuter1" result="shadowBlurOuter1" stdDeviation=".5"/>
            <feColorMatrix in="shadowBlurOuter1" values="0 0 0 0 0 0 0 0 0 0 0 0 0 0 0 0 0 0 0.252236187 0"/>
        </filter>
        <filter id="bxqi1tvvld" width="108.3%" height="106.9%" x="-4.1%" y="-3.4%" filterUnits="objectBoundingBox">
            <feOffset in="SourceAlpha" result="shadowOffsetInner1"/>
            <feComposite in="shadowOffsetInner1" in2="SourceAlpha" k2="-1" k3="1" operator="arithmetic" result="shadowInnerInner1"/>
            <feColorMatrix in="shadowInnerInner1" result="shadowMatrixInner1" values="0 0 0 0 0.999901831 0 0 0 0 1 0 0 0 0 0.999879897 0 0 0 0.5 0"/>
            <feGaussianBlur in="SourceAlpha" result="shadowBlurInner2" stdDeviation=".5"/>
            <feOffset in="shadowBlurInner2" result="shadowOffsetInner2"/>
            <feComposite in="shadowOffsetInner2" in2="SourceAlpha" k2="-1" k3="1" operator="arithmetic" result="shadowInnerInner2"/>
            <feColorMatrix in="shadowInnerInner2" result="shadowMatrixInner2" values="0 0 0 0 0.949993312 0 0 0 0 0.798316777 0 0 0 0 0.261773795 0 0 0 0.6 0"/>
            <feGaussianBlur in="SourceAlpha" result="shadowBlurInner3" stdDeviation=".5"/>
            <feOffset in="shadowBlurInner3" result="shadowOffsetInner3"/>
            <feComposite in="shadowOffsetInner3" in2="SourceAlpha" k2="-1" k3="1" operator="arithmetic" result="shadowInnerInner3"/>
            <feColorMatrix in="shadowInnerInner3" result="shadowMatrixInner3" values="0 0 0 0 0 0 0 0 0 0 0 0 0 0 0 0 0 0 0.195510643 0"/>
            <feMerge>
                <feMergeNode in="shadowMatrixInner1"/>
                <feMergeNode in="shadowMatrixInner2"/>
                <feMergeNode in="shadowMatrixInner3"/>
            </feMerge>
        </filter>
        <filter id="ju7ol7u94f" width="139.2%" height="116.7%" x="-19.6%" y="-8.4%" filterUnits="objectBoundingBox">
            <feOffset in="SourceAlpha" result="shadowOffsetOuter1"/>
            <feGaussianBlur in="shadowOffsetOuter1" result="shadowBlurOuter1" stdDeviation=".5"/>
            <feColorMatrix in="shadowBlurOuter1" values="0 0 0 0 0 0 0 0 0 0 0 0 0 0 0 0 0 0 0.252236187 0"/>
        </filter>
        <filter id="5occryqoei" width="139.2%" height="116.7%" x="-19.6%" y="-8.4%" filterUnits="objectBoundingBox">
            <feOffset in="SourceAlpha" result="shadowOffsetInner1"/>
            <feComposite in="shadowOffsetInner1" in2="SourceAlpha" k2="-1" k3="1" operator="arithmetic" result="shadowInnerInner1"/>
            <feColorMatrix in="shadowInnerInner1" result="shadowMatrixInner1" values="0 0 0 0 0.999901831 0 0 0 0 1 0 0 0 0 0.999879897 0 0 0 0.5 0"/>
            <feGaussianBlur in="SourceAlpha" result="shadowBlurInner2" stdDeviation=".5"/>
            <feOffset in="shadowBlurInner2" result="shadowOffsetInner2"/>
            <feComposite in="shadowOffsetInner2" in2="SourceAlpha" k2="-1" k3="1" operator="arithmetic" result="shadowInnerInner2"/>
            <feColorMatrix in="shadowInnerInner2" result="shadowMatrixInner2" values="0 0 0 0 0.949993312 0 0 0 0 0.798316777 0 0 0 0 0.261773795 0 0 0 0.6 0"/>
            <feGaussianBlur in="SourceAlpha" result="shadowBlurInner3" stdDeviation=".5"/>
            <feOffset in="shadowBlurInner3" result="shadowOffsetInner3"/>
            <feComposite in="shadowOffsetInner3" in2="SourceAlpha" k2="-1" k3="1" operator="arithmetic" result="shadowInnerInner3"/>
            <feColorMatrix in="shadowInnerInner3" result="shadowMatrixInner3" values="0 0 0 0 0 0 0 0 0 0 0 0 0 0 0 0 0 0 0.195510643 0"/>
            <feMerge>
                <feMergeNode in="shadowMatrixInner1"/>
                <feMergeNode in="shadowMatrixInner2"/>
                <feMergeNode in="shadowMatrixInner3"/>
            </feMerge>
        </filter>
        <linearGradient id="ttr2bntjoc" x1="50%" x2="50%" y1="0%" y2="97.258%">
            <stop offset="43.548%" stop-color="#FFF"/>
            <stop offset="100%" stop-color="#E6E6E6"/>
        </linearGradient>
        <linearGradient id="v6l9t7gene" x1="50%" x2="50%" y1=".716%" y2="100%">
            <stop offset="0%" stop-color="#F2CB43"/>
            <stop offset="100%" stop-color="#F6A036"/>
        </linearGradient>
        <linearGradient id="a9b4sfp5sh" x1="50%" x2="50%" y1="0%" y2="97.258%">
            <stop offset="43.548%" stop-color="#FFF"/>
            <stop offset="100%" stop-color="#E6E6E6"/>
        </linearGradient>
        <path id="xwdx4ayitb" d="M33.433 9.456l11.07 4.179.126.048.121.047.116.046.164.066.104.043.148.063.093.04.09.04.084.039.082.038.078.038.075.037.071.036.069.037.097.053.062.035.088.053.056.035.054.035.052.034.05.035.05.035.048.036.046.035.068.054.045.037.065.055.065.058c.443.395.772.862.994 1.41l.037.092.03.081.028.082.027.082.017.056.017.056.016.058.015.059.014.06.014.062.013.064.013.065.012.068.011.07.01.073.01.076.01.078.008.081.012.128.007.09.006.094.006.097.005.102.007.16.003.112.003.117.002.122.002.193v14.145l-.002.206-.002.2-.002.195-.005.283-.006.272-.006.262-.008.25-.01.242-.006.156-.01.226-.009.146-.008.143-.01.138-.009.135-.015.197-.016.189-.018.182-.012.118-.02.172-.013.112-.015.109-.014.106-.016.105-.024.153-.016.1-.026.146-.028.142-.028.14-.02.091-.02.09-.032.134-.032.132-.023.087-.035.13-.024.086-.05.172-.038.129-.013.043c-.443 1.436-1.13 2.685-2.103 3.83l-.147.17-.089.1-.09.1-.06.065-.088.094-.08.083-.055.056-.055.056-.084.083-.086.084-.059.056-.06.057-.092.085-.095.086-.097.086-.101.088-.07.06-.106.089-.074.06-.075.061-.155.125-.122.095-.126.097-.131.1-.09.067-.092.068-.143.104-.148.107-.154.11-.214.15-.225.155-.237.16-.248.167-.26.173-.274.18-.36.233-.383.245-8.483 5.393c-1.14.724-2.595.724-3.734 0l-8.404-5.343-.387-.247-.293-.19-.28-.182-.267-.176-.255-.17-.242-.163-.174-.12-.168-.115-.214-.15-.204-.146-.146-.106-.095-.07-.137-.101-.133-.1-.128-.098-.123-.096-.119-.094-.076-.062-.075-.06-.11-.091-.07-.06-.104-.088-.132-.116-.096-.087-.093-.085-.09-.085-.117-.112-.085-.083-.082-.084-.082-.084-.08-.083-.06-.066-.091-.099-.09-.1-.06-.067-.146-.17c-.974-1.144-1.66-2.393-2.103-3.829l-.026-.085-.038-.128-.037-.127-.023-.085-.035-.129-.022-.086-.033-.13-.03-.133-.03-.134-.03-.137-.027-.14-.018-.095-.017-.097-.025-.148-.015-.1-.016-.104-.014-.105-.022-.162-.013-.111-.013-.114-.012-.116-.012-.119-.017-.183-.01-.127-.01-.13-.01-.132-.01-.136-.008-.14-.011-.216-.008-.149-.01-.23-.009-.24-.005-.166-.005-.17-.006-.262-.003-.181-.005-.28-.002-.194-.003-.3-.002-.417V18.73l.003-.193.002-.122.003-.117.003-.112.004-.108.005-.104.006-.099.006-.095.01-.137.007-.086.009-.083.009-.08.014-.114.01-.073.012-.07.012-.068.012-.065.014-.064.013-.062.015-.06.015-.06.016-.057.016-.056.018-.056.027-.082.028-.082.03-.08.01-.028c.223-.576.56-1.064 1.02-1.475l.066-.058.065-.055.045-.037.068-.054.046-.035.048-.036.05-.035.05-.035.052-.034.054-.035.056-.035.058-.035.03-.018.062-.035.064-.036.067-.035.07-.037.073-.037.116-.056.081-.038.086-.039.089-.04.093-.04.147-.063.104-.043.109-.044.113-.045.18-.07.19-.073 11.006-4.154c2.212-.835 4.653-.835 6.866 0z"/>
        <path id="19mpyxmldg" d="M30.604 38.124c1.248 0 1.992-.816 1.992-2.016V22.572c0-1.608-.696-2.376-2.304-2.376h-3.288c-1.2 0-2.064.528-2.064 1.728s.864 1.728 2.064 1.728h1.608v12.456c0 1.2.768 2.016 1.992 2.016z"/>
    </defs>
    <g fill="none" fill-rule="evenodd">
        <g>
            <g>
                <g transform="translate(-377 -2319) translate(377 2319)">
                    <use fill="#000" filter="url(#u7hi4uf5ca)" xlink:href="#xwdx4ayitb"/>
                    <use fill="url(#ttr2bntjoc)" xlink:href="#xwdx4ayitb"/>
                    <use fill="#000" filter="url(#bxqi1tvvld)" xlink:href="#xwdx4ayitb"/>
                </g>
                <path fill="url(#v6l9t7gene)" d="M27.34 11.217l-.095.035-11.005 4.154-.196.075-.164.064-.168.068-.111.046-.132.055-.072.032-.08.036-.067.03-.076.037-.088.043-.07.036-.068.036-.068.038-.034.02c-.054.033-.107.068-.158.105l-.056.044-.027.02-.04.035-.046.04c-.243.214-.428.487-.537.793l-.016.044c-.022.062-.04.125-.056.188l-.017.074-.008.041-.013.08-.01.072-.014.11-.008.077-.006.072-.007.102-.006.096-.003.046-.005.114-.003.084-.003.086-.002.094-.003.14-.002.175V32.557l.002.393.002.294.003.193.004.28.003.16.007.269.004.161.005.14.009.235.008.21.008.155.012.217.006.102.008.123.009.121.009.118.012.142.013.148.011.11.01.1.014.117.012.096.018.137.012.09.013.085.015.093.02.123.014.079.015.082.023.113.025.12.024.108.026.107.027.111.017.062.032.12.02.07.03.103.036.122.018.061c.356 1.152.892 2.145 1.658 3.066l.079.093.074.087.036.04.069.079.08.089.077.084.046.05.07.073.064.065.073.074.067.065.098.094.074.07.078.072.082.073.112.098.097.083.04.034.103.085.06.049.072.058.117.092.102.08.11.084.135.102.112.082.097.072.126.09.193.138.216.151.15.104.16.11.22.148.246.165.277.182.27.177.288.185.372.238 8.214 5.222c.628.4 1.431.4 2.06 0l8.279-5.264.382-.244.357-.232.25-.163.263-.175.255-.171.212-.144.212-.147.211-.147.152-.109.112-.08.13-.095.094-.07.07-.052.148-.112.1-.077.117-.092.13-.104.061-.05.078-.064.09-.076.062-.052.089-.078.075-.067.086-.077.072-.068.045-.042.056-.054.075-.073.105-.106.055-.056.06-.063.071-.076.053-.058.084-.092.072-.082.08-.091.037-.044c.782-.919 1.332-1.904 1.697-3.04l.038-.12.044-.147.05-.17.013-.05.03-.114.022-.083.027-.109.026-.11.02-.09.01-.05.025-.124.024-.125.02-.114.014-.082.02-.13.013-.088.012-.091.014-.104.012-.1.017-.15.01-.096.016-.175.015-.172.012-.152.01-.147.008-.118.008-.132.006-.12.012-.243.005-.131.01-.233.007-.24.006-.238.005-.268.005-.28.002-.178.002-.196.001-.201.002-.323V18.74l-.003-.168-.004-.197-.004-.13-.006-.157-.004-.067-.005-.083-.005-.072-.006-.075-.009-.097-.006-.06-.007-.055-.008-.063-.012-.074-.008-.045-.01-.052c-.017-.074-.037-.148-.062-.22l-.018-.052-.02-.052c-.11-.292-.292-.553-.527-.76l-.046-.04-.046-.037c-.068-.056-.14-.107-.217-.153l-.042-.025-.062-.036-.1-.053-.062-.032-.077-.038-.091-.042-.067-.03-.079-.036-.066-.029-.137-.058-.1-.04-.145-.06-.081-.031-.12-.046-.122-.048-11.061-4.175c-1.743-.658-3.664-.67-5.414-.035z" transform="translate(-377 -2319) translate(377 2319)"/>
                <path fill-rule="nonzero" d="M60 0v60H0V0h60zm-1.765 1.765H1.765v56.47h56.47V1.765z" transform="translate(-377 -2319) translate(377 2319)"/>
                <g transform="translate(-377 -2319) translate(377 2319)">
                    <use fill="#000" filter="url(#ju7ol7u94f)" xlink:href="#19mpyxmldg"/>
                    <use fill="url(#a9b4sfp5sh)" xlink:href="#19mpyxmldg"/>
                    <use fill="#000" filter="url(#5occryqoei)" xlink:href="#19mpyxmldg"/>
                </g>
            </g>
        </g>
    </g>
</svg>
