<svg xmlns="http://www.w3.org/2000/svg" width="24" height="24" viewBox="0 0 24 24">
    <defs>
        <filter id="a" width="117.3%" height="123.7%" x="-7.2%" y="-11.8%" filterUnits="objectBoundingBox">
            <feOffset in="SourceAlpha" result="shadowOffsetOuter1"/>
            <feGaussianBlur in="shadowOffsetOuter1" result="shadowBlurOuter1" stdDeviation="15"/>
            <feColorMatrix in="shadowBlurOuter1" result="shadowMatrixOuter1" values="0 0 0 0 0 0 0 0 0 0 0 0 0 0 0 0 0 0 0.5 0"/>
            <feMerge>
                <feMergeNode in="shadowMatrixOuter1"/>
                <feMergeNode in="SourceGraphic"/>
            </feMerge>
        </filter>
    </defs>
    <g fill="none" fill-rule="evenodd" filter="url(#a)">
        <rect width="24" height="24" fill="#101010" opacity=".502" rx="2"/>
        <path fill="#FFF" fill-rule="nonzero" d="M17.6 5H6.4C5.63 5 5 5.578 5 6.285v7.713c0 .707.63 1.285 1.4 1.285h11.2c.77 0 1.4-.578 1.4-1.285V6.285C19 5.578 18.37 5 17.6 5zM12 6.767c.79 0 1.432.65 1.432 1.447S12.789 9.66 12 9.66c-.79 0-1.432-.65-1.432-1.446 0-.797.643-1.447 1.432-1.447zm1.961 9.802c.28 0 .42.347.223.546l-1.776 1.793a.317.317 0 0 1-.445 0l-1.776-1.793a.319.319 0 0 1 .223-.546zM12 10.784c1.063 0 3.182.534 3.182 1.607v.964H8.818v-.964c0-1.073 2.12-1.607 3.182-1.607z"/>
    </g>
</svg>
