<svg xmlns="http://www.w3.org/2000/svg" width="15" height="17" viewBox="0 0 15 17">
    <g fill="none" fill-rule="evenodd">
        <g>
            <g>
                <path d="M0 0H15V15H0z" transform="translate(-924 -245) translate(924 246)"/>
                <g stroke="#FFF" stroke-linecap="round" stroke-linejoin="round">
                    <path d="M0 2.935L1.377 2.935 12.391 2.935M11.087 3.196v9.187c0 .725-.626 1.313-1.398 1.313H2.702c-.772 0-1.398-.588-1.398-1.313V3.196m2.097-.457V1.37C3.4.614 4.026 0 4.798 0h2.795c.772 0 1.398.613 1.398 1.37v1.37M4.891 6.522L4.891 10.435M7.5 6.522L7.5 10.435" transform="translate(-924 -245) translate(924 246) translate(1.304 .652)"/>
                </g>
            </g>
        </g>
    </g>
</svg>
