<svg xmlns="http://www.w3.org/2000/svg" width="41" height="41" viewBox="0 0 41 41">
    <g fill="none" fill-rule="evenodd">
        <g>
            <g>
                <g>
                    <path d="M0 0H41V41H0z" transform="translate(-11 -52) translate(11 52)"/>
                </g>
                <path fill="#1DB6FF" fill-rule="nonzero" d="M11.4 25c.773 0 1.4.627 1.4 1.4 0 .773-.627 1.4-1.4 1.4-.773 0-1.4-.627-1.4-1.4 0-.773.627-1.4 1.4-1.4zm19.4.6c.442 0 .8.358.8.8 0 .428-.337.778-.76.799l-.04.001H16c-.442 0-.8-.358-.8-.8 0-.428.337-.778.76-.799L30.8 25.6zm-19.4-7c.773 0 1.4.627 1.4 1.4 0 .773-.627 1.4-1.4 1.4-.773 0-1.4-.627-1.4-1.4 0-.773.627-1.4 1.4-1.4zm19.4.6c.442 0 .8.358.8.8 0 .428-.337.778-.76.799l-.04.001H16c-.442 0-.8-.358-.8-.8 0-.428.337-.778.76-.799L30.8 19.2zm-19.4-7c.773 0 1.4.627 1.4 1.4 0 .773-.627 1.4-1.4 1.4-.773 0-1.4-.627-1.4-1.4 0-.773.627-1.4 1.4-1.4zm19.4.6c.442 0 .8.358.8.8 0 .428-.337.778-.76.799l-.04.001H16c-.442 0-.8-.358-.8-.8 0-.428.337-.778.76-.799L30.8 12.8z" transform="translate(-11 -52) translate(11 52)"/>
            </g>
        </g>
    </g>
</svg>
