<svg xmlns="http://www.w3.org/2000/svg" width="25" height="25" viewBox="0 0 25 25">
    <g fill="none" fill-rule="evenodd">
        <path d="M0 0H44V44H0z" transform="translate(-10 -9)"/>
        <path fill="#7C7C7E" d="M31.053 15.579v3.934s-2.619.013-2.632 0V15.58h-3.947s.013-2.618 0-2.632h3.947V9h2.632v3.947H35v2.632h-3.947zm-3.948 5.263v-3.947h-3.947v-3.948H12.632c-1.448 0-2.632 1.185-2.632 2.632v15.79C10 32.815 11.184 34 12.632 34h15.79c1.446 0 2.63-1.184 2.63-2.632V20.842h-3.947zM12.632 31.368l3.947-5.263 2.632 3.948 3.947-5.264 5.263 6.58h-15.79z" transform="translate(-10 -9)"/>
    </g>
</svg>
