<svg xmlns="http://www.w3.org/2000/svg" xmlns:xlink="http://www.w3.org/1999/xlink" width="58" height="58" viewBox="0 0 58 58">
    <defs>
        <path id="14ko0xaw2a" d="M1003.97 482c3.978 0 7.718.756 11.218 2.267 3.501 1.512 6.589 3.606 9.264 6.28 2.675 2.676 4.769 5.76 6.28 9.25 1.512 3.49 2.268 7.225 2.268 11.203 0 3.978-.756 7.712-2.267 11.203-1.512 3.49-3.6 6.569-6.266 9.234-2.665 2.666-5.748 4.759-9.249 6.28-3.5 1.522-7.24 2.283-11.218 2.283-3.958 0-7.688-.76-11.188-2.282-3.501-1.522-6.584-3.615-9.25-6.28-2.665-2.666-4.758-5.744-6.28-9.235-1.521-3.49-2.282-7.225-2.282-11.203 0-3.978.756-7.712 2.267-11.203 1.512-3.49 3.606-6.574 6.28-9.25 2.676-2.674 5.764-4.768 9.265-6.28 3.5-1.511 7.22-2.267 11.158-2.267zM998 497.692c-1.105 0-2 .896-2 2v22.616c0 .388.113.767.325 1.092.603.926 1.842 1.187 2.768.583l17.338-11.308c.233-.151.431-.35.583-.582.603-.926.343-2.165-.583-2.768l-17.338-11.308c-.325-.212-.705-.325-1.093-.325z"/>
    </defs>
    <g fill="none" fill-rule="evenodd">
        <g transform="translate(-975 -482)">
            <use fill="#1DB6FF" fill-rule="nonzero" xlink:href="#14ko0xaw2a"/>
        </g>
    </g>
</svg>
