<svg xmlns="http://www.w3.org/2000/svg" width="112" height="24" viewBox="0 0 112 24">
    <g fill="#FFF">
        <path d="M33.967 1.846L26.317 24 22.391 24 17 7.804 11.608 24 7.68 24 0 1.846 4.532 1.846 9.872 18.341 14.994 1.846 18.957 1.846 24.154 18.341 29.468 1.846zM35.805 2.464c-.021-.66.215-1.3.652-1.766.437-.467 1.036-.719 1.654-.697.615-.022 1.211.232 1.644.7.433.467.664 1.106.636 1.763.028.655-.203 1.292-.637 1.756-.434.464-1.03.711-1.643.682-.616.029-1.214-.218-1.652-.68-.438-.464-.675-1.1-.654-1.758zm.371 5.117h3.877V24h-3.877V7.581zM47.284 20.572L56.918 10.785 56.918 7.385 43.267 7.385 43.267 10.807 52.888 10.785 43.267 20.572 43.148 24 56.918 24 56.918 20.547zM74.361 20.502L74.361 24 60.59 24 60.59 1.846 64.735 1.846 64.735 20.502zM98.178 21.607L98.178 24 94.557 24 94.557.923 98.23.923 98.23 10.361M90.885 11.768c0-6.46-6.946-6.228-6.946-6.228-7.906 0-7.402 5.723-7.402 5.723h4.043c.698-1.908 3.359-1.629 3.359-1.629 2.797.152 2.819 2.485 2.819 2.485v1.83c-1.19-.238-2.4-.362-3.612-.37-4.188 0-6.95 2.09-6.95 5.288 0 3.073 2.277 5.132 5.647 5.132 2 .03 3.878-.98 4.975-2.675l.09 2.366h3.977V11.768zm-7.86 9.26c-1.668 0-2.548-.891-2.548-2.244 0-1.414 1.273-2.333 3.184-2.333 1.045.01 2.087.124 3.11.337-.043 2.705-1.834 4.24-3.745 4.24zM101.902 7.385v4.106s6.168-.222 6.168 4.05c0 0 .116 4.318-6.168 4.318v4.104s10.094 1.084 10.094-8.422c-.007 0 .575-8.156-10.094-8.156z"/>
    </g>
</svg>
