<svg xmlns="http://www.w3.org/2000/svg" width="93" height="20" viewBox="0 0 93 20">
    <g fill="#FFF" opacity=".8">
        <path d="M28.182 1.563L21.834 20 18.578 20 14.104 6.521 9.631 20 6.372 20 0 1.563 3.76 1.563 8.191 15.29 12.44 1.563 15.728 1.563 20.04 15.29 24.449 1.563zM29.749 2.053c-.018-.55.176-1.082.534-1.471.357-.39.848-.6 1.353-.58.504-.02.992.192 1.347.582.354.39.543.922.52 1.47.023.545-.166 1.076-.521 1.463-.355.386-.844.593-1.346.568-.503.024-.993-.182-1.352-.567-.358-.386-.552-.917-.535-1.465zm.304 4.265h3.173V20h-3.173V6.318zM39.177 17.163L47.283 9.064 47.283 6.25 35.797 6.25 35.797 9.082 43.892 9.064 35.797 17.163 35.697 20 47.283 20 47.283 17.142zM61.687 17.089L61.687 20 50.101 20 50.101 1.563 53.588 1.563 53.588 17.089zM81.684 17.991L81.684 20 78.596 20 78.596.625 81.727.625 81.727 8.549M75.465 9.855c0-5.359-5.775-5.167-5.775-5.167-6.573 0-6.154 4.748-6.154 4.748h3.361c.58-1.583 2.793-1.352 2.793-1.352 2.325.126 2.343 2.061 2.343 2.061v1.519c-.99-.198-1.995-.3-3.003-.307-3.481 0-5.777 1.733-5.777 4.385 0 2.55 1.892 4.257 4.694 4.257 1.663.025 3.224-.812 4.136-2.219l.075 1.963h3.307V9.855zm-6.535 7.68c-1.387 0-2.119-.74-2.119-1.861 0-1.173 1.058-1.935 2.647-1.935.87.009 1.735.102 2.586.279-.036 2.244-1.525 3.517-3.114 3.517zM84.545 6.25v3.398S89.71 9.464 89.71 13c0 0 .097 3.573-5.165 3.573v3.396s8.452.898 8.452-6.97c-.007 0 .481-6.749-8.452-6.749z"/>
    </g>
</svg>
