# Aspose.3D Wavefront OBJ Exporter
# Copyright 2004-2020 Aspose Pty Ltd.
# File created: 12/24/2020 4:15:22 AM


#
# object Cube.015
#

v 0 -1.5453016757965272 1.3343020127669367E-08
v -0.55591177940368656 0.919919581383644 0.5559111526926124
v 0.55591177940368656 0.919919581383644 0.5559111526926124
v -0.55591177940368656 0.91991940024463312 -0.55591216769616688
v 0.55591177940368656 0.91991940024463312 -0.55591216769616688
v -1 0.15469853480784576 0.99999973637784384
v 1 0.15469853480784576 0.99999973637784384
v 1 0.15469820896648654 -1.00000026362212968
v -1 0.15469820896648654 -1.00000026362212968
# 9 vertices

vn 0 -0.50701997542543616 0.8619343272367712
vn 0 -0.50701997542543616 0.8619343272367712
vn 0 -0.50701997542543616 0.8619343272367712
vn 0.86193424463272096 -0.5070201158523492 8.260406181292979E-08
vn 0.86193424463272096 -0.5070201158523492 8.260406181292979E-08
vn 0.86193424463272096 -0.5070201158523492 8.260406181292979E-08
vn -0.86193424463272096 -0.5070201158523492 8.260406181292979E-08
vn -0.86193424463272096 -0.5070201158523492 8.260406181292979E-08
vn -0.86193424463272096 -0.5070201158523492 8.260406181292979E-08
vn -0.86490362882614128 0.5019379854202204 -8.177607768722339E-08
vn -0.86490362882614128 0.5019379854202204 -8.177607768722339E-08
vn -0.86490362882614128 0.5019379854202204 -8.177607768722339E-08
vn -0.86490362882614128 0.5019379854202204 -8.177607768722339E-08
vn 0 0.99999999999998672 -1.6292067961387602E-07
vn 0 0.99999999999998672 -1.6292067961387602E-07
vn 0 0.99999999999998672 -1.6292067961387602E-07
vn 0 0.99999999999998672 -1.6292067961387602E-07
vn 0.86490362882614128 0.5019379854202204 -8.177607768722339E-08
vn 0.86490362882614128 0.5019379854202204 -8.177607768722339E-08
vn 0.86490362882614128 0.5019379854202204 -8.177607768722339E-08
vn 0.86490362882614128 0.5019379854202204 -8.177607768722339E-08
vn 0 0.50193830514483208 0.86490348744537808
vn 0 0.50193830514483208 0.86490348744537808
vn 0 0.50193830514483208 0.86490348744537808
vn 0 0.50193830514483208 0.86490348744537808
vn 0 0.50193778490487896 -0.86490377020684272
vn 0 0.50193778490487896 -0.86490377020684272
vn 0 0.50193778490487896 -0.86490377020684272
vn 0 0.50193778490487896 -0.86490377020684272
vn 0 -0.50702025627926208 -0.86193416202864768
vn 0 -0.50702025627926208 -0.86193416202864768
vn 0 -0.50702025627926208 -0.86193416202864768
# 32 vertex normals

g Cube.015
usemtl Material
s 1
f 7//1 6//2 1//3
f 8//4 7//5 1//6
f 6//7 9//8 1//9
f 2//10 4//11 9//12 6//13
f 2//14 3//15 5//16 4//17
f 5//18 3//19 7//20 8//21
f 3//22 2//23 6//24 7//25
f 4//26 5//27 8//28 9//29
f 9//30 8//31 1//32
#9 polygons

