# Aspose.3D Wavefront OBJ Exporter
# Copyright 2004-2020 Aspose Pty Ltd.
# File created: 12/24/2020 4:15:59 AM


#
# object Cube.002
#

v -1.09999942779541016 0.51333379745481752 -1.4323733592550316E-07
v -1.09999942779541016 -0.51333332061766904 8.363261346347945E-08
v 1.10000038146972656 -0.51333332061766904 8.363261346347945E-08
v 1.10000038146972656 0.51333379745481752 -1.4323733592550316E-07
v 0.513333797454834 1.0999999046325346 -2.984220215887165E-07
v -0.5133328437805176 1.0999999046325346 -2.984220215887165E-07
v -0.5133328437805176 -1.09999990463254416 2.388173768133267E-07
v 0.513333797454834 -1.09999990463254416 2.388173768133267E-07
v -0.46666622161865232 1.00000050942124962 0.1999996463443768
v 0.46666717529296872 1.00000050942124962 0.1999996463443768
v 0.46666717529296872 1.00000044425300127 -0.20000021060447048
v -0.46666622161865232 1.00000044425300127 -0.20000021060447048
v 0.46666717529296872 -0.99999949057869456 0.20000015099967032
v -0.46666622161865232 -0.99999949057869456 0.20000015099967032
v -0.46666622161865232 -1.00000003258410141 -0.19999970594909924
v 0.46666717529296872 -1.00000003258410141 -0.19999970594909924
v -0.99999952316284176 -0.4666666658716704 0.20000006410872408
v -0.99999952316284176 0.46666673103991896 0.1999997928401232
v -0.99999952316284176 0.4666666658716704 -0.20000006410872408
v -0.99999952316284176 -0.46666673103992864 -0.19999985244476796
v 1.0000004768371582 0.46666673103991896 0.1999997928401232
v 1.0000004768371582 -0.4666666658716704 0.20000006410872408
v 1.0000004768371582 -0.46666673103992864 -0.19999985244476796
v 1.0000004768371582 0.4666666658716704 -0.20000006410872408
v 0.46666717529296872 0.46666677991613448 0.49999986436569296
v 0.46666717529296872 -0.46666661699545488 0.50000013563429376
v -0.46666622161865232 0.46666677991613448 0.49999986436569296
v -0.46666622161865232 -0.46666661699545488 0.50000013563429376
v -0.46666622161865232 0.46666661699545488 -0.50000013563429376
v -0.46666622161865232 -0.46666677991614416 -0.49999992397033768
v 0.46666717529296872 0.46666661699545488 -0.50000013563429376
v 0.46666717529296872 -0.46666677991614416 -0.49999992397033768
# 32 vertices

vn 0.62773054838180544 0.627730473383616 -0.46033565496269488
vn 0.62773054838180544 0.627730473383616 -0.46033565496269488
vn 0.62773054838180544 0.627730473383616 -0.46033565496269488
vn 0.62773054838180544 0.627730473383616 -0.46033565496269488
vn 0.62773048877716064 -0.62773056377534808 -0.46033553982909664
vn 0.62773048877716064 -0.62773056377534808 -0.46033553982909664
vn 0.62773048877716064 -0.62773056377534808 -0.46033553982909664
vn 0.62773048877716064 -0.62773056377534808 -0.46033553982909664
vn -0.6277301907539368 -0.62773035417424384 0.46033616160215592
vn -0.6277301907539368 -0.62773035417424384 0.46033616160215592
vn -0.6277301907539368 -0.62773035417424384 0.46033616160215592
vn -0.6277301907539368 -0.62773035417424384 0.46033616160215592
vn -0.62773060798645016 0.62773053298828016 -0.46033553575341512
vn -0.62773060798645016 0.62773053298828016 -0.46033553575341512
vn -0.62773060798645016 0.62773053298828016 -0.46033553575341512
vn -0.62773060798645016 0.62773053298828016 -0.46033553575341512
vn 0.44020456075668336 0.440203956420138 -0.78258569259846512
vn 0.44020456075668336 0.440203956420138 -0.78258569259846512
vn 0.44020456075668336 0.440203956420138 -0.78258569259846512
vn -0.44020456075668336 0.44020442003515736 0.78258554916173424
vn -0.44020456075668336 0.44020442003515736 0.78258554916173424
vn -0.44020456075668336 0.44020442003515736 0.78258554916173424
vn 0.44020456075668336 0.44020442003515736 0.78258554916173424
vn 0.44020456075668336 0.44020442003515736 0.78258554916173424
vn 0.44020456075668336 0.44020442003515736 0.78258554916173424
vn 0 0.49026121987854096 0.87157551407468464
vn 0 0.49026121987854096 0.87157551407468464
vn 0 0.49026121987854096 0.87157551407468464
vn 0 0.49026121987854096 0.87157551407468464
vn -0.44020456075668336 0.440203956420138 -0.78258569259846512
vn -0.44020456075668336 0.440203956420138 -0.78258569259846512
vn -0.44020456075668336 0.440203956420138 -0.78258569259846512
vn 0 0.49026078687153336 -0.87157579303128592
vn 0 0.49026078687153336 -0.87157579303128592
vn 0 0.49026078687153336 -0.87157579303128592
vn 0 0.49026078687153336 -0.87157579303128592
vn -0.89442735910415648 1.1111031306132446E-07 0.44721332192419744
vn -0.89442735910415648 1.1111031306132446E-07 0.44721332192419744
vn -0.89442735910415648 1.1111031306132446E-07 0.44721332192419744
vn -0.89442735910415648 1.1111031306132446E-07 0.44721332192419744
vn 0 -0.894427372359808 -0.44721323580814488
vn 0 -0.894427372359808 -0.44721323580814488
vn 0 -0.894427372359808 -0.44721323580814488
vn 0 -0.894427372359808 -0.44721323580814488
vn 0 0.89442826642920272 0.4472115370756232
vn 0 0.89442826642920272 0.4472115370756232
vn 0 0.89442826642920272 0.4472115370756232
vn 0 0.89442826642920272 0.4472115370756232
vn 0 0.89442812070914016 -0.44721182851732168
vn 0 0.89442812070914016 -0.44721182851732168
vn 0 0.89442812070914016 -0.44721182851732168
vn 0 0.89442812070914016 -0.44721182851732168
vn 0 -0.49026160730871248 -0.87157539486533216
vn 0 -0.49026160730871248 -0.87157539486533216
vn 0 -0.49026160730871248 -0.87157539486533216
vn 0 -0.49026160730871248 -0.87157539486533216
vn 0 -2.3134435811478227E-07 -0.99999994039533088
vn 0 -2.3134435811478227E-07 -0.99999994039533088
vn 0 -2.3134435811478227E-07 -0.99999994039533088
vn 0 -2.3134435811478227E-07 -0.99999994039533088
vn -0.44020447134971616 -0.44020465845370736 -0.78258537034776096
vn -0.44020447134971616 -0.44020465845370736 -0.78258537034776096
vn -0.44020447134971616 -0.44020465845370736 -0.78258537034776096
vn -0.49026134610176088 -1.9417954266742754E-07 -0.87157553434369936
vn -0.49026134610176088 -1.9417954266742754E-07 -0.87157553434369936
vn -0.49026134610176088 -1.9417954266742754E-07 -0.87157553434369936
vn -0.49026134610176088 -1.9417954266742754E-07 -0.87157553434369936
vn 0 -0.49026156173197384 0.87157543540354336
vn 0 -0.49026156173197384 0.87157543540354336
vn 0 -0.49026156173197384 0.87157543540354336
vn 0 -0.49026156173197384 0.87157543540354336
vn 0 2.9976804616360653E-07 0.99999994039531968
vn 0 2.9976804616360653E-07 0.99999994039531968
vn 0 2.9976804616360653E-07 0.99999994039531968
vn 0 2.9976804616360653E-07 0.99999994039531968
vn 0.44020444154739376 -0.44020473128055896 0.78258545418001216
vn 0.44020444154739376 -0.44020473128055896 0.78258545418001216
vn 0.44020444154739376 -0.44020473128055896 0.78258545418001216
vn 0.49026134610176088 2.463613872905057E-07 0.87157541513440144
vn 0.49026134610176088 2.463613872905057E-07 0.87157541513440144
vn 0.49026134610176088 2.463613872905057E-07 0.87157541513440144
vn 0.49026134610176088 2.463613872905057E-07 0.87157541513440144
vn -0.44020444154739376 -0.44020473128055896 0.78258545418001216
vn -0.44020444154739376 -0.44020473128055896 0.78258545418001216
vn -0.44020444154739376 -0.44020473128055896 0.78258545418001216
vn -0.49026134610176088 2.4636140683043095E-07 0.87157553434369088
vn -0.49026134610176088 2.4636140683043095E-07 0.87157553434369088
vn -0.49026134610176088 2.4636140683043095E-07 0.87157553434369088
vn -0.49026134610176088 2.4636140683043095E-07 0.87157553434369088
vn 0.44020447134971616 -0.44020465845370736 -0.78258537034776096
vn 0.44020447134971616 -0.44020465845370736 -0.78258537034776096
vn 0.44020447134971616 -0.44020465845370736 -0.78258537034776096
vn 0.49026134610176088 -1.941795231275023E-07 -0.87157541513440976
vn 0.49026134610176088 -1.941795231275023E-07 -0.87157541513440976
vn 0.49026134610176088 -1.941795231275023E-07 -0.87157541513440976
vn 0.49026134610176088 -1.941795231275023E-07 -0.87157541513440976
vn 0.89442735910415648 1.1111031306132446E-07 0.44721332192419744
vn 0.89442735910415648 1.1111031306132446E-07 0.44721332192419744
vn 0.89442735910415648 1.1111031306132446E-07 0.44721332192419744
vn 0.89442735910415648 1.1111031306132446E-07 0.44721332192419744
vn 0.89442741870880128 -1.0261028676739059E-07 -0.44721314311026448
vn 0.89442741870880128 -1.0261028676739059E-07 -0.44721314311026448
vn 0.89442741870880128 -1.0261028676739059E-07 -0.44721314311026448
vn 0.89442741870880128 -1.0261028676739059E-07 -0.44721314311026448
vn 0 -0.89442627296459872 0.4472152259817728
vn 0 -0.89442627296459872 0.4472152259817728
vn 0 -0.89442627296459872 0.4472152259817728
vn 0 -0.89442627296459872 0.4472152259817728
vn -0.89442718029022224 -1.0261035432446164E-07 -0.4472135901451004
vn -0.89442718029022224 -1.0261035432446164E-07 -0.4472135901451004
vn -0.89442718029022224 -1.0261035432446164E-07 -0.4472135901451004
vn -0.89442718029022224 -1.0261035432446164E-07 -0.4472135901451004
vn -0.62773048877716064 -0.62773062337997328 -0.46033542061979728
vn -0.62773048877716064 -0.62773062337997328 -0.46033542061979728
vn -0.62773048877716064 -0.62773062337997328 -0.46033542061979728
vn -0.62773048877716064 -0.62773062337997328 -0.46033542061979728
vn -0.62773054838180544 0.62773062337997824 0.46033545042211968
vn -0.62773054838180544 0.62773062337997824 0.46033545042211968
vn -0.62773054838180544 0.62773062337997824 0.46033545042211968
vn -0.62773054838180544 0.62773062337997824 0.46033545042211968
vn 0.6277301907539368 -0.62773035417424384 0.46033616160215592
vn 0.6277301907539368 -0.62773035417424384 0.46033616160215592
vn 0.6277301907539368 -0.62773035417424384 0.46033616160215592
vn 0.6277301907539368 -0.62773035417424384 0.46033616160215592
vn 0.62773054838180544 0.62773062337997824 0.46033545042211968
vn 0.62773054838180544 0.62773062337997824 0.46033545042211968
vn 0.62773054838180544 0.62773062337997824 0.46033545042211968
vn 0.62773054838180544 0.62773062337997824 0.46033545042211968
# 128 vertex normals

g Cube.002
usemtl Material
s 1
f 5//1 4//2 24//3 11//4
f 3//5 8//6 16//7 23//8
f 14//9 17//10 2//11 7//12
f 1//13 6//14 12//15 19//16
f 31//17 11//18 24//19
f 27//20 9//21 18//22
f 21//23 10//24 25//25
f 25//26 10//27 9//28 27//29
f 19//30 12//31 29//32
f 29//33 12//34 11//35 31//36
f 17//37 18//38 1//39 2//40
f 8//41 7//42 15//43 16//44
f 9//45 10//46 5//47 6//48
f 6//49 5//50 11//51 12//52
f 15//53 30//54 32//55 16//56
f 30//57 29//58 31//59 32//60
f 20//61 30//62 15//63
f 20//64 19//65 29//66 30//67
f 13//68 26//69 28//70 14//71
f 26//72 25//73 27//74 28//75
f 22//76 26//77 13//78
f 22//79 21//80 25//81 26//82
f 14//83 28//84 17//85
f 28//86 27//87 18//88 17//89
f 16//90 32//91 23//92
f 32//93 31//94 24//95 23//96
f 21//97 22//98 3//99 4//100
f 4//101 3//102 23//103 24//104
f 13//105 14//106 7//107 8//108
f 2//109 1//110 19//111 20//112
f 7//113 2//114 20//115 15//116
f 18//117 9//118 6//119 1//120
f 22//121 13//122 8//123 3//124
f 10//125 21//126 4//127 5//128
#34 polygons

