# Aspose.3D Wavefront OBJ Exporter
# Copyright 2004-2020 Aspose Pty Ltd.
# File created: 12/24/2020 4:16:29 AM


#
# object Cube.005
#

v 0.79999965429306032 1.3033657476575437E-07 0.8000001907348528
v 1.0693047046661377 5.682653400987942E-14 3.4879877830462186E-07
v 0.80000001192092896 -1.303364970791205E-07 -0.79999971389769456
v 0 1.7653462128654684E-07 1.08356177806852827
v 0 -1.7653460186488837E-07 -1.08356165885923872
v -0.79999965429306032 1.3033657476575437E-07 0.8000001907348528
v 0 -1.60000002384184616 2.0345264421927703E-07
v -1.0693047046661377 5.682653400987942E-14 3.4879877830462186E-07
v -0.80000001192092896 -1.303364970791205E-07 -0.79999971389769456
v 0 1.60000002384186632 -7.947497342308496E-08
# 10 vertices

vn 0.28160685300827028 0.5380452172990244 -0.79448410693818288
vn 0.28160685300827028 0.5380452172990244 -0.79448410693818288
vn 0.28160685300827028 0.5380452172990244 -0.79448410693818288
vn 0.8006494641304016 0.53508643726730208 0.26952362283579344
vn 0.8006494641304016 0.53508643726730208 0.26952362283579344
vn 0.8006494641304016 0.53508643726730208 0.26952362283579344
vn 0.8006495237350464 0.53508640905004288 -0.26952337995656748
vn 0.8006495237350464 0.53508640905004288 -0.26952337995656748
vn 0.8006495237350464 0.53508640905004288 -0.26952337995656748
vn 0.2816064953804016 -0.53804527690365952 0.79448416654283744
vn 0.2816064953804016 -0.53804527690365952 0.79448416654283744
vn 0.2816064953804016 -0.53804527690365952 0.79448416654283744
vn 0.800649642944336 -0.53508643726723904 -0.2695232354056024
vn 0.800649642944336 -0.53508643726723904 -0.2695232354056024
vn 0.800649642944336 -0.53508643726723904 -0.2695232354056024
vn 0.28160685300827028 -0.53804535696548768 -0.7944839316207752
vn 0.28160685300827028 -0.53804535696548768 -0.7944839316207752
vn 0.28160685300827028 -0.53804535696548768 -0.7944839316207752
vn 0.8006494641304016 -0.53508640904997496 0.26952379718908092
vn 0.8006494641304016 -0.53508640904997496 0.26952379718908092
vn 0.8006494641304016 -0.53508640904997496 0.26952379718908092
vn -0.281606525182724 0.538045416570152 0.7944840508300552
vn -0.281606525182724 0.538045416570152 0.7944840508300552
vn -0.281606525182724 0.538045416570152 0.7944840508300552
vn -0.28160685300827028 0.5380452172990244 -0.79448410693818288
vn -0.28160685300827028 0.5380452172990244 -0.79448410693818288
vn -0.28160685300827028 0.5380452172990244 -0.79448410693818288
vn -0.8006494641304016 0.53508643726730208 0.26952362283579344
vn -0.8006494641304016 0.53508643726730208 0.26952362283579344
vn -0.8006494641304016 0.53508643726730208 0.26952362283579344
vn -0.8006495237350464 0.53508640905004288 -0.26952337995656748
vn -0.8006495237350464 0.53508640905004288 -0.26952337995656748
vn -0.8006495237350464 0.53508640905004288 -0.26952337995656748
vn -0.2816064953804016 -0.53804527690365952 0.79448416654283744
vn -0.2816064953804016 -0.53804527690365952 0.79448416654283744
vn -0.2816064953804016 -0.53804527690365952 0.79448416654283744
vn -0.800649642944336 -0.53508649687188384 -0.26952323540559276
vn -0.800649642944336 -0.53508649687188384 -0.26952323540559276
vn -0.800649642944336 -0.53508649687188384 -0.26952323540559276
vn -0.28160685300827028 -0.53804535696548768 -0.7944839316207752
vn -0.28160685300827028 -0.53804535696548768 -0.7944839316207752
vn -0.28160685300827028 -0.53804535696548768 -0.7944839316207752
vn -0.8006494641304016 -0.53508640904997496 0.26952379718908092
vn -0.8006494641304016 -0.53508640904997496 0.26952379718908092
vn -0.8006494641304016 -0.53508640904997496 0.26952379718908092
vn 0.281606525182724 0.538045416570152 0.7944840508300552
vn 0.281606525182724 0.538045416570152 0.7944840508300552
vn 0.281606525182724 0.538045416570152 0.7944840508300552
# 48 vertex normals

g Cube.005
usemtl Material
s 1
f 10//1 3//2 5//3
f 2//4 10//5 1//6
f 3//7 10//8 2//9
f 7//10 1//11 4//12
f 3//13 2//14 7//15
f 3//16 7//17 5//18
f 7//19 2//20 1//21
f 6//22 4//23 10//24
f 5//25 9//26 10//27
f 8//28 6//29 10//30
f 9//31 8//32 10//33
f 4//34 6//35 7//36
f 7//37 8//38 9//39
f 9//40 5//41 7//42
f 7//43 6//44 8//45
f 1//46 10//47 4//48
#16 polygons

