# Aspose.3D Wavefront OBJ Exporter
# Copyright 2004-2020 Aspose Pty Ltd.
# File created: 12/24/2020 4:18:39 AM


#
# object Cube.006
#

v 0.4694989323616028 0.47004595610072552 0.74466286392197008
v 0.46958866715431216 -0.46995410111937144 0.74466516283463008
v 0.65145462751388552 6.0439627442413166E-05 -0.72852414847405952
v 0.99991619586944576 1.00009560316869938 -0.01645913622479163
v 1.33664298057556152 0.0001275035621535183 -0.01624952631285883
v 0.48745241761207584 0.487093389483968 -0.7289412219166472
v 0.487545907497406 -0.48700392201238472 -0.72893879823954976
v 0.62776070833206176 6.134270823548965E-05 0.74445718525841792
v 1.00010526180267333 -0.99990475445838896 -0.01645418357282345
v -0.00051860779058188 6.301907543972066E-05 0.74437475203442048
v -0.47050142288208008 0.46995568477197928 0.74408446046377664
v -0.47041073441505432 -0.47004434264579528 0.74408675937643184
v -0.65055376291275024 -6.456634434573974E-05 -0.72932535408876416
v 0.00051377585623413 -0.65968573048151776 -0.72892315368918096
v -0.0005170643562451 0.63659346305164688 0.74406911492132928
v -1.00008344650268554 0.99990361640737472 -0.01768981564593232
v -1.33661818504333496 -0.00012914464377615354 -0.01789448966962133
v -0.48664465546607968 0.48699986969866336 -0.72954060620927232
v -0.48655116558074952 -0.48709744179768944 -0.72953818253217488
v 0.0004504500248003751 -6.788178742546586E-05 -0.7289246320613992
v -0.62867254018783568 -5.928231758787154E-05 0.7436840534306888
v 0.00038711150409653783 0.65968209550293392 -0.72892634887372272
v -0.0003948336816392839 -0.63659137285865752 0.74407224297706208
v -0.99989092350006096 -1.00009680082435714 -0.01768485554337383
v -0.00011762024223571643 1.35445201118751424 -0.01707533462040227
v 0.00014006074343342334 -1.35445261279671712 -0.01706861244437672
# 26 vertices

vn 0.2491169720888138 0.7045797596101648 0.66446084225971904
vn 0.2491169720888138 0.7045797596101648 0.66446084225971904
vn 0.2491169720888138 0.7045797596101648 0.66446084225971904
vn 0.2491169720888138 0.7045797596101648 0.66446084225971904
vn 0.71047019958496096 -0.23909036462799384 0.6618668826531824
vn 0.71047019958496096 -0.23909036462799384 0.6618668826531824
vn 0.71047019958496096 -0.23909036462799384 0.6618668826531824
vn 0.71047019958496096 -0.23909036462799384 0.6618668826531824
vn 0.24625593423843384 -0.69377099573005328 -0.67678648851379328
vn 0.24625593423843384 -0.69377099573005328 -0.67678648851379328
vn 0.24625593423843384 -0.69377099573005328 -0.67678648851379328
vn 0.24625593423843384 -0.69377099573005328 -0.67678648851379328
vn 0.71042430400848392 0.23922840113139012 0.66186632788800584
vn 0.71042430400848392 0.23922840113139012 0.66186632788800584
vn 0.71042430400848392 0.23922840113139012 0.66186632788800584
vn 0.71042430400848392 0.23922840113139012 0.66186632788800584
vn -0.00013120340008754283 0.00048660573989800504 0.9999998807114456
vn -0.00013120340008754283 0.00048660573989800504 0.9999998807114456
vn -0.00013120340008754283 0.00048660573989800504 0.9999998807114456
vn 0.2461228519678116 0.69381458461833368 -0.67679017164957632
vn 0.2461228519678116 0.69381458461833368 -0.67679017164957632
vn 0.2461228519678116 0.69381458461833368 -0.67679017164957632
vn 0.2461228519678116 0.69381458461833368 -0.67679017164957632
vn 0.24925217032432556 -0.70452953480397752 0.66446327720461976
vn 0.24925217032432556 -0.70452953480397752 0.66446327720461976
vn 0.24925217032432556 -0.70452953480397752 0.66446327720461976
vn 0.24925217032432556 -0.70452953480397752 0.66446327720461976
vn -0.00109310867264866 0.0004802993763080021 0.99999934427066992
vn -0.00109310867264866 0.0004802993763080021 0.99999934427066992
vn -0.00109310867264866 0.0004802993763080021 0.99999934427066992
vn 0.00061505095800384 0.00064446055592493 -0.99999964247714048
vn 0.00061505095800384 0.00064446055592493 -0.99999964247714048
vn 0.00061505095800384 0.00064446055592493 -0.99999964247714048
vn 0.70047998428344728 0.23559393934229244 -0.67366413140071192
vn 0.70047998428344728 0.23559393934229244 -0.67366413140071192
vn 0.70047998428344728 0.23559393934229244 -0.67366413140071192
vn 0.70047998428344728 0.23559393934229244 -0.67366413140071192
vn 0.70052516460418704 -0.2354642803286594 -0.67366226651624328
vn 0.70052516460418704 -0.2354642803286594 -0.67366226651624328
vn 0.70052516460418704 -0.2354642803286594 -0.67366226651624328
vn 0.70052516460418704 -0.2354642803286594 -0.67366226651624328
vn -0.00109966285526752 0.00048670251003701814 0.99999928466498208
vn -0.00109966285526752 0.00048670251003701814 0.99999928466498208
vn -0.00109966285526752 0.00048670251003701814 0.99999928466498208
vn -0.00013749235949944705 -0.00047533223081663856 0.99999988086816512
vn -0.00013749235949944705 -0.00047533223081663856 0.99999988086816512
vn -0.00013749235949944705 -0.00047533223081663856 0.99999988086816512
vn 0.00061554735293611 0.00064464833384869 -0.99999958287252656
vn 0.00061554735293611 0.00064464833384869 -0.99999958287252656
vn 0.00061554735293611 0.00064464833384869 -0.99999958287252656
vn -3.1326489988714457E-05 -2.203756077179264E-06 -0.99999999999965424
vn -3.1326489988714457E-05 -2.203756077179264E-06 -0.99999999999965424
vn -3.1326489988714457E-05 -2.203756077179264E-06 -0.99999999999965424
vn 0.001261972123757 -2.363852929399002E-06 -0.99999916553460128
vn 0.001261972123757 -2.363852929399002E-06 -0.99999916553460128
vn 0.001261972123757 -2.363852929399002E-06 -0.99999916553460128
vn -0.25006982684135436 0.70453189703036048 0.66415363992834456
vn -0.25006982684135436 0.70453189703036048 0.66415363992834456
vn -0.25006982684135436 0.70453189703036048 0.66415363992834456
vn -0.25006982684135436 0.70453189703036048 0.66415363992834456
vn -0.71123808622360232 -0.23922559280822764 0.66099284016422752
vn -0.71123808622360232 -0.23922559280822764 0.66099284016422752
vn -0.71123808622360232 -0.23922559280822764 0.66099284016422752
vn -0.71123808622360232 -0.23922559280822764 0.66099284016422752
vn -0.24528969824314116 -0.69381736819306792 -0.67708957812492112
vn -0.24528969824314116 -0.69381736819306792 -0.67708957812492112
vn -0.24528969824314116 -0.69381736819306792 -0.67708957812492112
vn -0.24528969824314116 -0.69381736819306792 -0.67708957812492112
vn -0.71128422021865848 0.23909190635232868 0.6609915105388752
vn -0.71128422021865848 0.23909190635232868 0.6609915105388752
vn -0.71128422021865848 0.23909190635232868 0.6609915105388752
vn -0.71128422021865848 0.23909190635232868 0.6609915105388752
vn -0.0001375949359498918 0.0004803327293851911 0.99999988071246752
vn -0.0001375949359498918 0.0004803327293851911 0.99999988071246752
vn -0.0001375949359498918 0.0004803327293851911 0.99999988071246752
vn -0.2454228848218918 0.69376725848108976 -0.67709272481874568
vn -0.2454228848218918 0.69376725848108976 -0.67709272481874568
vn -0.2454228848218918 0.69376725848108976 -0.67709272481874568
vn -0.2454228848218918 0.69376725848108976 -0.67709272481874568
vn -0.2499346286058426 -0.70457674173256304 0.66415684973352016
vn -0.2499346286058426 -0.70457674173256304 0.66415684973352016
vn -0.2499346286058426 -0.70457674173256304 0.66415684973352016
vn -0.2499346286058426 -0.70457674173256304 0.66415684973352016
vn -0.00109302892815321 -0.00047552099835812545 0.99999928482174832
vn -0.00109302892815321 -0.00047552099835812545 0.99999928482174832
vn -0.00109302892815321 -0.00047552099835812545 0.99999928482174832
vn -3.145918526570313E-05 -2.7598272769324694E-06 -0.99999999999956368
vn -3.145918526570313E-05 -2.7598272769324694E-06 -0.99999999999956368
vn -3.145918526570313E-05 -2.7598272769324694E-06 -0.99999999999956368
vn -0.69969558715820312 0.2354595456291152 -0.67452571651904448
vn -0.69969558715820312 0.2354595456291152 -0.67452571651904448
vn -0.69969558715820312 0.2354595456291152 -0.67452571651904448
vn -0.69969558715820312 0.2354595456291152 -0.67452571651904448
vn -0.69965028762817384 -0.23559755645486368 -0.67452456689049536
vn -0.69965028762817384 -0.23559755645486368 -0.67452456689049536
vn -0.69965028762817384 -0.23559755645486368 -0.67452456689049536
vn -0.69965028762817384 -0.23559755645486368 -0.67452456689049536
vn -0.00013120601943228394 -0.0004816699682386183 0.99999994047384272
vn -0.00013120601943228394 -0.0004816699682386183 0.99999994047384272
vn -0.00013120601943228394 -0.0004816699682386183 0.99999994047384272
vn 0.00126210518646985 -2.3888406239791493E-06 -0.99999922513924208
vn 0.00126210518646985 -2.3888406239791493E-06 -0.99999922513924208
vn 0.00126210518646985 -2.3888406239791493E-06 -0.99999922513924208
vn 0.00061530584935098 -0.00064906588259594 -0.9999995826617536
vn 0.00061530584935098 -0.00064906588259594 -0.9999995826617536
vn 0.00061530584935098 -0.00064906588259594 -0.9999995826617536
vn -0.0010994744952768 -0.000481967816946427 0.99999928482279856
vn -0.0010994744952768 -0.000481967816946427 0.99999928482279856
vn -0.0010994744952768 -0.000481967816946427 0.99999928482279856
vn 0.00061554089188575 -0.00064906588259594 -0.9999995826617536
vn 0.00061554089188575 -0.00064906588259594 -0.9999995826617536
vn 0.00061554089188575 -0.00064906588259594 -0.9999995826617536
# 112 vertex normals

g Cube.006
usemtl Material
s 1
f 1//1 4//2 25//3 15//4
f 5//5 8//6 2//7 9//8
f 7//9 9//10 26//11 14//12
f 4//13 1//14 8//15 5//16
f 8//17 10//18 2//19
f 4//20 6//21 22//22 25//23
f 9//24 2//25 23//26 26//27
f 10//28 1//29 15//30
f 7//31 20//32 3//33
f 6//34 4//35 5//36 3//37
f 3//38 5//39 9//40 7//41
f 12//42 10//43 21//44
f 23//45 10//46 12//47
f 13//48 20//49 19//50
f 20//51 7//52 14//53
f 19//54 20//55 14//56
f 11//57 15//58 25//59 16//60
f 17//61 24//62 12//63 21//64
f 19//65 14//66 26//67 24//68
f 16//69 17//70 21//71 11//72
f 10//73 15//74 11//75
f 16//76 25//77 22//78 18//79
f 24//80 26//81 23//82 12//83
f 2//84 10//85 23//86
f 20//87 22//88 6//89
f 18//90 13//91 17//92 16//93
f 13//94 19//95 24//96 17//97
f 1//98 10//99 8//100
f 22//101 20//102 18//103
f 6//104 3//105 20//106
f 21//107 10//108 11//109
f 18//110 20//111 13//112
#32 polygons

