<svg xmlns="http://www.w3.org/2000/svg" width="132" height="132" viewBox="0 0 132 132">
    <defs>
        <filter id="prefix__a" width="136.4%" height="136.4%" x="-18.2%" y="-18.2%" filterUnits="objectBoundingBox">
            <feOffset dy="6" in="SourceAlpha" result="shadowOffsetOuter1"/>
            <feColorMatrix in="shadowOffsetOuter1" result="shadowMatrixOuter1" values="0 0 0 0 0 0 0 0 0 0 0 0 0 0 0 0 0 0 0.3 0"/>
            <feMerge>
                <feMergeNode in="shadowMatrixOuter1"/>
                <feMergeNode in="SourceGraphic"/>
            </feMerge>
        </filter>
    </defs>
    <g fill="none" fill-rule="evenodd">
        <rect width="132" height="132" fill="#9946E5" rx="20"/>
        <rect width="132" height="121" y="11" fill="#471B70" rx="20"/>
        <rect width="132" height="111" y="8" fill="#6626A0" rx="20"/>
        <rect width="129" height="129" x="1.5" y="1.5" stroke="#000" stroke-width="3" rx="20"/>
        <g fill="#FFF" fill-rule="nonzero" filter="url(#prefix__a)" transform="translate(33 27)">
            <path d="M21.45 1.71c1.443 0 2.847.473 3.996 1.347l31.951 24.304c2.901 2.207 3.464 6.348 1.257 9.249-.34.447-.736.85-1.178 1.196L25.525 62.882c-2.868 2.25-7.017 1.75-9.267-1.118-.912-1.162-1.408-2.597-1.408-4.074V8.31c0-3.645 2.955-6.6 6.6-6.6zm3.3 13.254v35.94l23.255-18.25-23.255-17.69z"/>
        </g>
    </g>
</svg>
