<svg xmlns="http://www.w3.org/2000/svg" width="72" height="72" viewBox="0 0 72 72">
    <path fill="#FFA300" d="M36.734 3.69l.795.007c6.534.115 11.64 1.643 15.27 4.642 3.85 3.183 5.771 7.791 5.771 13.677 0 2.98-.585 5.623-1.77 7.908-.63 1.215-1.42 2.317-2.369 3.301l-.487.483-.099.087.542.314c1.714 1.028 3.151 2.248 4.302 3.662l.419.54.353.5c1.829 2.71 2.729 6.104 2.729 10.141 0 3.41-.764 6.544-2.293 9.378-1.53 2.834-3.692 5.162-6.482 6.978-1.682 1.069-3.548 1.84-5.59 2.313-1.861.431-4.364.656-7.532.686l-.743.003H14.713l-.41-.015c-1.337-.09-2.458-.583-3.258-1.498-.85-.972-1.235-2.294-1.235-3.912 0-1.869.526-3.317 1.72-4.192 1.013-.742 2.72-1.041 5.346-1.075l.359-.004V14.54l-.313-.002c-2.13-.033-3.66-.276-4.695-.855l-.25-.151-.212-.154c-1.164-.912-1.677-2.376-1.677-4.262 0-1.586.399-2.904 1.259-3.886.828-.947 1.972-1.451 3.326-1.528l.374-.011h21.687zm.264 34.477H26.23v21.157h10.303c5.816 0 9.915-.817 12.298-2.451 2.382-1.634 3.573-4.343 3.573-8.127 0-3.819-1.137-6.537-3.41-8.153-2.275-1.617-6.274-2.426-11.997-2.426zm.742-25.336H26.231v18.99h9.7c4.393 0 7.649-.775 9.768-2.323 2.12-1.548 3.18-3.939 3.18-7.173 0-3.061-.96-5.41-2.878-7.043-1.918-1.634-4.672-2.451-8.26-2.451z"/>
</svg>
