<svg xmlns="http://www.w3.org/2000/svg" width="72" height="72" viewBox="0 0 72 72">
    <path fill="#FFA300" d="M36 0c19.882 0 36 16.118 36 36S55.882 72 36 72 0 55.882 0 36 16.118 0 36 0zm0 7.2C20.094 7.2 7.2 20.094 7.2 36S20.094 64.8 36 64.8 64.8 51.906 64.8 36 51.906 7.2 36 7.2zm17.231 32.55c1.905.57 2.988 2.576 2.418 4.481C53.287 52.134 45.204 57.6 35.995 57.6c-9.191 0-17.263-5.447-19.642-13.33-.574-1.903.504-3.911 2.407-4.486 1.817-.548 3.73.41 4.4 2.153l.087.254c1.42 4.708 6.609 8.209 12.748 8.209 5.98 0 11.056-3.32 12.63-7.84l.126-.391c.57-1.905 2.575-2.988 4.48-2.418zM23.4 21.6c2.982 0 5.4 2.418 5.4 5.4s-2.418 5.4-5.4 5.4S18 29.982 18 27s2.418-5.4 5.4-5.4zm25.2 0c2.982 0 5.4 2.418 5.4 5.4s-2.418 5.4-5.4 5.4-5.4-2.418-5.4-5.4 2.418-5.4 5.4-5.4z"/>
</svg>
