<svg xmlns="http://www.w3.org/2000/svg" width="24" height="24" viewBox="0 0 24 24">
    <g fill="none" fill-rule="evenodd">
        <g>
            <g>
                <g>
                    <g>
                        <g>
                            <path d="M0 0H23.901V23.901H0z" transform="translate(-9449 -1185) translate(9223 1000) translate(20 177) translate(206 8)"/>
                        </g>
                        <g fill="#FFF" fill-rule="nonzero">
                            <path d="M8.033 0c-2.28 0-4.066 1.745-4.066 4.066 0 2.374 1.832 4.463 4.066 4.463S12.1 6.44 12.1 4.066C12.1 1.746 10.314 0 8.033 0zm0 1.388c1.521 0 2.678 1.131 2.678 2.678 0 1.645-1.254 3.074-2.678 3.074S5.355 5.711 5.355 4.066c0-1.547 1.157-2.678 2.678-2.678zM8.136 9.52c-2.877 0-5.367 1.172-6.91 2.963-.671.778-1.101 1.62-1.203 2.374-.124.914.252 1.685 1.084 1.966.402.136 1.12.241 2.029.319l.278.022c.094.008.19.014.289.021l.298.02.308.017.317.015.324.015.33.012.338.01.343.01.347.008.175.003.53.007.356.003.359.002h.359l.359-.002.358-.003.357-.005.355-.006.352-.008.349-.009.343-.01.34-.013.332-.013.326-.015.16-.008.315-.017.154-.01.302-.019.291-.02.282-.022.27-.024.258-.024c.671-.068 1.207-.15 1.542-.246.824-.235 1.166-1.008 1.025-1.92-.114-.74-.536-1.58-1.182-2.359-1.527-1.837-3.969-3.033-6.84-3.033zm0 1.39c2.449 0 4.503 1.006 5.77 2.532.497.597.807 1.214.879 1.683.024.156.018.271-.004.338l-.008.019c-.003.008-.003.01-.007.012l-.015.004c-.239.068-.61.128-1.077.18l-.223.024-.236.023-.248.021-.26.02-.27.019-.281.018-.29.016-.298.015-.306.014-.314.013-.319.012-.49.014-.331.009-.504.01-.34.005-.341.004-.514.003h-.684l-.34-.002-.337-.004-.334-.005-.33-.006-.326-.008-.32-.009-.315-.01-.307-.012-.15-.007-.296-.014-.286-.015-.277-.017-.135-.01-.261-.018-.25-.02-.238-.023-.225-.023c-.508-.057-.905-.126-1.146-.207-.275-.093-.254-.684.246-1.477l.066-.102c.08-.12.172-.246.275-.374l.09-.11.048-.056c1.284-1.489 3.39-2.48 5.859-2.48z" transform="translate(-9449 -1185) translate(9223 1000) translate(20 177) translate(206 8) translate(3.868 4.165)"/>
                        </g>
                    </g>
                </g>
            </g>
        </g>
    </g>
</svg>
