<svg xmlns="http://www.w3.org/2000/svg" width="34" height="34" viewBox="0 0 34 34">
    <g fill="none" fill-rule="evenodd">
        <g>
            <g>
                <g>
                    <g>
                        <path d="M0 0H34V34H0z" transform="translate(-476 -2187) translate(476 2187)"/>
                    </g>
                    <path fill="#FFF" fill-opacity=".5" d="M24.123 11.6h.164l.225.006.137.005.129.008.12.009c.135.011.253.027.36.046l.088.017.083.018.078.02.074.023.07.024.068.026.065.027.064.029.062.03.062.033c.391.209.698.516.907.907l.033.062.03.062.03.064.026.065.026.067.024.07.022.075.02.078.02.083.016.089c.017.09.03.19.041.303l.01.115.004.061.008.129.005.137.005.225.001.164v9.61l-.006.225-.005.137-.008.129-.009.12c-.011.135-.027.253-.046.36l-.017.088-.018.083-.02.078-.023.074-.024.07-.026.068-.027.065-.029.064-.03.062-.033.062c-.209.391-.516.698-.907.907l-.062.033-.062.03-.064.03-.065.026-.067.026-.07.024-.075.022-.078.02-.083.02-.089.016c-.09.017-.19.03-.303.041l-.115.01-.061.004-.129.008-.137.005-.225.005-.164.001h-9.61l-.225-.006-.137-.005-.129-.008-.12-.009c-.135-.011-.253-.027-.36-.046l-.088-.017-.083-.018-.078-.02-.074-.023-.07-.024-.068-.026-.065-.027-.064-.029-.062-.03-.062-.033c-.391-.209-.698-.516-.907-.907l-.033-.062-.03-.062-.03-.064-.026-.065-.026-.067-.024-.07-.022-.075-.02-.078-.02-.083-.016-.089c-.017-.09-.03-.19-.041-.303l-.01-.115-.004-.061-.008-.129-.005-.137-.005-.225-.001-.164v-9.446-.164l.006-.225.005-.137.008-.129.009-.12c.011-.135.027-.253.046-.36l.017-.088.018-.083.02-.078.023-.074.024-.07.026-.068.027-.065.029-.064.03-.062.033-.062c.209-.391.516-.698.907-.907l.062-.033.062-.03.064-.03.065-.026.067-.026.07-.024.075-.022.078-.02.083-.02.089-.016c.09-.017.19-.03.303-.041l.115-.01.061-.004.129-.008.137-.005.225-.005.164-.001h9.446zm-4.6-4.6h.164l.225.006.137.005.129.008.12.009c.135.011.253.027.36.046l.088.017.083.018.078.02.074.023.07.024.068.026.065.027.064.029.062.03.062.033c.391.209.698.516.907.907l.033.062.03.062.03.064.026.065.026.067.024.07.022.075.02.078.02.083.016.089c.017.09.03.19.041.303l.01.115.004.061.008.129.005.137.005.225.001.187h-7.923c-1.202 0-1.865.128-2.557.498-.652.349-1.173.87-1.522 1.522-.36.672-.49 1.316-.498 2.452V22.6h-.187l-.225-.006-.137-.005-.129-.008-.12-.009c-.135-.011-.253-.027-.36-.046l-.088-.017-.083-.018-.078-.02-.074-.023-.07-.024-.068-.026-.065-.027-.064-.029-.062-.03-.062-.033c-.391-.209-.698-.516-.907-.907l-.033-.062-.03-.062-.03-.064-.026-.065-.026-.067-.024-.07-.022-.075-.02-.078-.02-.083-.016-.089c-.017-.09-.03-.19-.041-.303l-.01-.115-.004-.061-.008-.129-.005-.137L7 19.687 7 19.523v-9.446-.164l.006-.225.005-.137.008-.129.009-.12c.011-.135.027-.253.046-.36l.017-.088.018-.083.02-.078.023-.074.024-.07.026-.068.027-.065.029-.064.03-.062.033-.062c.209-.391.516-.698.907-.907l.062-.033.062-.03.064-.03.065-.026.067-.026.07-.024.075-.022.078-.02.083-.02.089-.016c.09-.017.19-.03.303-.041l.115-.01.061-.004.129-.008.137-.005L9.913 7 10.077 7h9.446z" transform="translate(-476 -2187) translate(476 2187)"/>
                </g>
                <path d="M0 0H34V34H0z" transform="translate(-476 -2187) translate(476 2187)"/>
            </g>
        </g>
    </g>
</svg>
