<svg xmlns="http://www.w3.org/2000/svg" width="24" height="24" viewBox="0 0 24 24">
    <g fill="none" fill-rule="evenodd">
        <g>
            <g>
                <g>
                    <path d="M0 0H24V24H0z" transform="translate(-204 -394) translate(155 338) translate(49 56)"/>
                    <path fill="#FFF" fill-rule="nonzero" d="M6.166 5.106L12 10.939l5.834-5.833c.266-.267.683-.29.976-.073l.084.073c.293.293.293.767 0 1.06L13.061 12l5.833 5.834c.293.293.293.767 0 1.06-.293.293-.767.293-1.06 0L12 13.061l-5.834 5.833c-.266.267-.683.29-.976.073l-.084-.073c-.293-.293-.293-.767 0-1.06L10.939 12 5.106 6.166c-.293-.293-.293-.767 0-1.06.293-.293.767-.293 1.06 0z" transform="translate(-204 -394) translate(155 338) translate(49 56)"/>
                </g>
            </g>
        </g>
    </g>
</svg>
