<svg xmlns="http://www.w3.org/2000/svg" width="24" height="24" viewBox="0 0 24 24">
    <g fill="none" fill-rule="evenodd">
        <g>
            <g>
                <g>
                    <path d="M0 0H24V24H0z" transform="translate(-163 -394) translate(155 338) translate(8 56)"/>
                    <path fill="#FFF" fill-rule="nonzero" d="M3 11.25h18c.414 0 .75.336.75.75s-.336.75-.75.75H3c-.414 0-.75-.336-.75-.75s.336-.75.75-.75zM3 17.25h18c.414 0 .75.336.75.75s-.336.75-.75.75H3c-.414 0-.75-.336-.75-.75s.336-.75.75-.75zM3 5.25h18c.414 0 .75.336.75.75s-.336.75-.75.75H3c-.414 0-.75-.336-.75-.75s.336-.75.75-.75z" transform="translate(-163 -394) translate(155 338) translate(8 56)"/>
                </g>
            </g>
        </g>
    </g>
</svg>
