<svg xmlns="http://www.w3.org/2000/svg" width="24" height="24" viewBox="0 0 24 24">
    <g fill="none" fill-rule="evenodd">
        <g>
            <g>
                <g>
                    <g>
                        <g>
                            <path d="M0 0H23.901V23.901H0z" transform="translate(-1208 -431) translate(982 186) translate(20 237) translate(206 8)"/>
                        </g>
                        <g fill="#FFF" fill-rule="nonzero">
                            <path d="M15.152 0l.047.001.178.004c.834.023 1.306.134 1.794.395.508.272.912.676 1.184 1.184.26.488.372.96.395 1.794l.004.178.001.19v9.17l-.001.189-.004.178c-.023.835-.134 1.306-.395 1.794-.272.509-.676.912-1.184 1.184-.488.261-.96.372-1.794.395l-.178.004-.19.001h-5.6l-.189-.001-.178-.004c-.834-.023-1.306-.134-1.793-.395-.51-.272-.913-.675-1.185-1.184-.26-.488-.372-.96-.395-1.794l-.004-.178v-1.601h1.387v1.527l.001.038.002.144.002.067.005.128.006.117.008.108.005.051.01.096.014.09c.028.17.068.304.123.429l.029.062.031.06c.143.268.348.473.615.616l.06.03.06.028c.04.018.081.035.124.05l.066.02c.079.024.165.043.263.059l.088.012.046.005.098.01.106.007.115.006.124.004.134.003.146.002h5.753l.146-.002.134-.003.124-.004.115-.006.106-.008.098-.009.046-.005.088-.012c.098-.016.184-.035.263-.058l.066-.021c.043-.015.084-.032.124-.05l.06-.028.06-.03c.267-.143.472-.348.615-.615l.03-.06.028-.06c.018-.04.035-.08.05-.124l.02-.066c.024-.079.043-.165.058-.263l.012-.088.006-.046.01-.098.007-.106.006-.115.004-.124.003-.134.001-.145V3.669l-.001-.146-.003-.134-.004-.124-.006-.115-.008-.106-.01-.098c0-.016-.003-.031-.005-.046l-.012-.088c-.015-.098-.034-.184-.057-.263l-.022-.066c-.014-.043-.03-.084-.049-.124l-.028-.06-.03-.06c-.143-.267-.348-.472-.615-.615l-.06-.03-.06-.028c-.04-.018-.081-.035-.124-.05l-.066-.02c-.079-.024-.165-.043-.263-.058l-.088-.013-.046-.005-.098-.01-.106-.007-.115-.006-.124-.004-.134-.003-.146-.001h-5.83l-.144.002-.067.002-.128.005-.117.006-.108.008-.051.005-.096.01-.089.014c-.171.028-.305.068-.43.123l-.061.029-.062.031c-.267.143-.472.348-.615.615l-.03.06-.028.06c-.018.04-.035.081-.05.124l-.02.066c-.024.079-.043.165-.058.263L7.09 2.9l-.006.046-.01.098-.007.106-.006.115-.004.124-.003.134-.001.146v1.488H5.663V3.603l.001-.047.004-.178c.023-.834.134-1.306.395-1.794C6.336 1.076 6.74.672 7.249.4c.487-.26.959-.372 1.793-.395L9.22 0 9.41 0h5.742z" transform="translate(-1208 -431) translate(982 186) translate(20 237) translate(206 8) translate(2.567 4.066)"/>
                            <path d="M4.27 4.754c.263.262.271.682.027.954l-.026.028-1.902 1.9h9.94c.383 0 .694.311.694.695 0 .37-.29.673-.656.693H2.369l1.902 1.901c.262.262.27.682.026.954l-.026.028c-.262.262-.682.27-.954.026l-.028-.026L.203 8.821c-.262-.262-.27-.681-.026-.954l.026-.027L3.29 4.754c.271-.271.71-.271.982 0z" transform="translate(-1208 -431) translate(982 186) translate(20 237) translate(206 8) translate(2.567 4.066)"/>
                        </g>
                    </g>
                </g>
            </g>
        </g>
    </g>
</svg>
