<svg width="24" height="24" viewBox="0 0 24 24" fill="none" xmlns="http://www.w3.org/2000/svg">
<path fill-rule="evenodd" clip-rule="evenodd" d="M12.0231 4.06592C12.0881 4.06592 12.1511 4.0663 12.2122 4.06707L12.3902 4.07062C13.2249 4.09375 13.6962 4.20497 14.1841 4.46587C14.693 4.73802 15.0965 5.14152 15.3686 5.65038C15.6295 6.13822 15.7407 6.60954 15.7639 7.44424L15.7674 7.62225C15.7678 7.65282 15.7681 7.68385 15.7683 7.71537L15.7683 9.22294H14.38V7.73444L14.3786 7.58924L14.3757 7.45494L14.3714 7.33081L14.3654 7.2161L14.3578 7.11008L14.3484 7.012C14.3467 6.99628 14.3449 6.98085 14.3431 6.96571L14.331 6.87816C14.3158 6.77972 14.2967 6.69371 14.2732 6.61484L14.252 6.54887C14.2371 6.50589 14.2208 6.46475 14.2029 6.42446L14.1748 6.36454C14.165 6.3447 14.1548 6.32495 14.1443 6.30516C14.0015 6.03826 13.7962 5.83295 13.5293 5.69021C13.5089 5.67929 13.4885 5.66881 13.468 5.65876L13.4061 5.62989C13.2812 5.57469 13.1478 5.53454 12.9765 5.50669L12.8877 5.49378L12.7917 5.48284C12.775 5.48118 12.758 5.47959 12.7407 5.47809L12.6325 5.46996L12.5152 5.46362L12.3878 5.45898L12.3202 5.45728L12.1764 5.45506L12.1 5.45452H6.34617L6.20097 5.45591L6.06667 5.45875L5.94254 5.46311L5.82783 5.46907L5.72181 5.4767L5.62373 5.48605C5.60801 5.48776 5.59258 5.48954 5.57744 5.4914L5.48989 5.50348C5.39144 5.51868 5.30544 5.53777 5.22657 5.56125L5.1606 5.58247C5.11762 5.59734 5.07648 5.61369 5.03619 5.63162L4.97627 5.6597C4.95643 5.66946 4.93668 5.67963 4.91689 5.69021C4.64999 5.83295 4.44468 6.03826 4.30194 6.30516C4.29136 6.32495 4.28119 6.3447 4.27143 6.36454L4.24335 6.42446C4.22542 6.46475 4.20907 6.50589 4.19419 6.54887L4.17298 6.61484C4.1495 6.69371 4.13041 6.77972 4.11521 6.87816L4.10313 6.96571C4.10127 6.98085 4.09949 6.99628 4.09778 7.012L4.08842 7.11008L4.0808 7.2161L4.07484 7.33081L4.07047 7.45494L4.06763 7.58924L4.06625 7.73444V17.0585L4.06763 17.2038L4.07047 17.3381L4.07484 17.4622L4.0808 17.5769L4.08842 17.6829L4.09778 17.781L4.10012 17.802L4.10313 17.8273L4.11521 17.9148C4.13041 18.0133 4.1495 18.0993 4.17298 18.1781L4.19419 18.2441C4.20907 18.2871 4.22542 18.3282 4.24335 18.3685L4.27143 18.4284C4.28119 18.4483 4.29136 18.468 4.30194 18.4878C4.44468 18.7547 4.64999 18.96 4.91689 19.1028C4.93668 19.1134 4.95643 19.1235 4.97627 19.1333L5.03619 19.1614C5.07648 19.1793 5.11762 19.1957 5.1606 19.2105L5.22657 19.2317C5.30544 19.2552 5.39144 19.2743 5.48989 19.2895L5.57744 19.3016C5.59258 19.3035 5.60801 19.3052 5.62373 19.3069L5.72181 19.3163L5.82783 19.3239L5.94254 19.3299L6.06667 19.3342L6.20097 19.3371L6.34617 19.3385H12.1L12.2452 19.3371L12.3795 19.3342L12.5037 19.3299L12.6184 19.3239L12.7244 19.3163L12.8225 19.3069C12.8382 19.3052 12.8536 19.3035 12.8688 19.3016L12.9563 19.2895C13.0548 19.2743 13.1408 19.2552 13.2196 19.2317L13.2856 19.2105C13.3286 19.1957 13.3697 19.1793 13.41 19.1614L13.4699 19.1333C13.4898 19.1235 13.5095 19.1134 13.5293 19.1028C13.7962 18.96 14.0015 18.7547 14.1443 18.4878C14.1552 18.4674 14.1657 18.447 14.1757 18.4265L14.2046 18.3646C14.2598 18.2397 14.2999 18.1063 14.3278 17.9351L14.3407 17.8462L14.3516 17.7502C14.3533 17.7335 14.3549 17.7166 14.3564 17.6992L14.3645 17.591L14.3709 17.4737L14.3755 17.3464L14.3772 17.2787L14.3794 17.1349L14.38 17.0585V15.5701H15.7685L15.7686 16.9816C15.7686 17.0466 15.7682 17.1096 15.7674 17.1707L15.7639 17.3488C15.7407 18.1834 15.6295 18.6548 15.3686 19.1426C15.0965 19.6515 14.693 20.055 14.1841 20.3271C13.6962 20.588 13.2249 20.6992 12.3902 20.7224L12.2122 20.7259L12.0231 20.7271H6.4231L6.23397 20.7259L6.05597 20.7224C5.22127 20.6992 4.74995 20.588 4.26211 20.3271C3.75325 20.055 3.34974 19.6515 3.0776 19.1426C2.8167 18.6548 2.70548 18.1834 2.68235 17.3488L2.6788 17.1707L2.67765 16.9816V7.81137L2.6788 7.62225L2.68235 7.44424C2.70548 6.60954 2.8167 6.13822 3.0776 5.65038C3.34974 5.14152 3.75325 4.73802 4.26211 4.46587C4.74995 4.20497 5.22127 4.09375 6.05597 4.07062L6.23397 4.06707C6.26455 4.06669 6.29558 4.0664 6.3271 4.0662L12.0231 4.06592Z" fill="#FF5757"/>
<path fill-rule="evenodd" clip-rule="evenodd" d="M17.1358 9.77414C16.8912 9.50157 16.8999 9.0821 17.162 8.82003C17.4331 8.54892 17.8726 8.54892 18.1437 8.82003L21.2293 11.9056L21.2555 11.9332C21.5001 12.2058 21.4914 12.6253 21.2293 12.8874L18.1437 15.9729L18.1161 15.9991C17.8435 16.2437 17.424 16.235 17.162 15.9729L17.1358 15.9453C16.8912 15.6727 16.8999 15.2532 17.162 14.9911L19.0624 13.0907H9.12392L9.08583 13.0897C8.72014 13.0699 8.4297 12.7671 8.4297 12.3965C8.4297 12.0131 8.74052 11.7023 9.12392 11.7023H19.0624L17.162 9.8018L17.1358 9.77414Z" fill="#FF5757"/>
</svg>
