<svg xmlns="http://www.w3.org/2000/svg" width="32" height="32" viewBox="0 0 32 32">
    <g fill="none" fill-rule="evenodd">
        <g>
            <g>
                <path d="M0 0H32V32H0z"/>
            </g>
            <path fill="#FF6F44" fill-rule="nonzero" d="M13.892 8.585c.435-.425 1.131-.416 1.555.019.413.422.417 1.092.017 1.52l-.035.035L9.035 16.4l6.394 6.241c.422.413.442 1.082.053 1.519l-.035.036c-.412.423-1.082.443-1.518.054l-.037-.035-7.2-7.028c-.43-.42-.442-1.104-.035-1.539l.035-.035 7.2-7.028z"/>
            <path fill="#FF6F44" fill-rule="nonzero" d="M24.7 15.3c.608 0 1.1.492 1.1 1.1 0 .593-.469 1.076-1.056 1.1H12.6c-.277 0-3.143-.1-3.4-.1-.4 0-.8.033-1.2.1-.608 0-1.1-.492-1.1-1.1 0-.593.469-1.076 1.056-1.1H8c.472.067.872.1 1.2.1.31 0 3.177-.1 3.4-.1h12.1z"/>
        </g>
    </g>
</svg>
