<svg xmlns="http://www.w3.org/2000/svg" xmlns:xlink="http://www.w3.org/1999/xlink" width="100" height="100" viewBox="0 0 100 100">
    <defs>
        <filter id="7gitvxrqia" width="91.7%" height="94.5%" x="4.1%" y="9.3%" filterUnits="objectBoundingBox">
            <feOffset dy="1" in="SourceAlpha" result="shadowOffsetOuter1"/>
            <feGaussianBlur in="shadowOffsetOuter1" result="shadowBlurOuter1" stdDeviation=".5"/>
            <feColorMatrix in="shadowBlurOuter1" values="0 0 0 0 0 0 0 0 0 0 0 0 0 0 0 0 0 0 0.252236187 0"/>
        </filter>
        <filter id="8dz0liwwud" width="91.7%" height="94.5%" x="4.1%" y="9.3%" filterUnits="objectBoundingBox">
            <feOffset dy="1" in="SourceAlpha" result="shadowOffsetInner1"/>
            <feComposite in="shadowOffsetInner1" in2="SourceAlpha" k2="-1" k3="1" operator="arithmetic" result="shadowInnerInner1"/>
            <feColorMatrix in="shadowInnerInner1" result="shadowMatrixInner1" values="0 0 0 0 0.999901831 0 0 0 0 1 0 0 0 0 0.999879897 0 0 0 0.5 0"/>
            <feGaussianBlur in="SourceAlpha" result="shadowBlurInner2" stdDeviation=".5"/>
            <feOffset dy="-1" in="shadowBlurInner2" result="shadowOffsetInner2"/>
            <feComposite in="shadowOffsetInner2" in2="SourceAlpha" k2="-1" k3="1" operator="arithmetic" result="shadowInnerInner2"/>
            <feColorMatrix in="shadowInnerInner2" result="shadowMatrixInner2" values="0 0 0 0 1 0 0 0 0 0.752913654 0 0 0 0 0 0 0 0 0.6 0"/>
            <feGaussianBlur in="SourceAlpha" result="shadowBlurInner3" stdDeviation=".5"/>
            <feOffset dy="-1" in="shadowBlurInner3" result="shadowOffsetInner3"/>
            <feComposite in="shadowOffsetInner3" in2="SourceAlpha" k2="-1" k3="1" operator="arithmetic" result="shadowInnerInner3"/>
            <feColorMatrix in="shadowInnerInner3" result="shadowMatrixInner3" values="0 0 0 0 0 0 0 0 0 0 0 0 0 0 0 0 0 0 0.195510643 0"/>
            <feMerge>
                <feMergeNode in="shadowMatrixInner1"/>
                <feMergeNode in="shadowMatrixInner2"/>
                <feMergeNode in="shadowMatrixInner3"/>
            </feMerge>
        </filter>
        <filter id="lmhyy86vuf" width="150%" height="110.7%" x="-25%" y="-2.7%" filterUnits="objectBoundingBox">
            <feOffset dy="1" in="SourceAlpha" result="shadowOffsetOuter1"/>
            <feGaussianBlur in="shadowOffsetOuter1" result="shadowBlurOuter1" stdDeviation=".5"/>
            <feColorMatrix in="shadowBlurOuter1" values="0 0 0 0 0 0 0 0 0 0 0 0 0 0 0 0 0 0 0.252236187 0"/>
        </filter>
        <filter id="w632g2h0ji" width="150%" height="110.7%" x="-25%" y="-2.7%" filterUnits="objectBoundingBox">
            <feOffset dy="1" in="SourceAlpha" result="shadowOffsetInner1"/>
            <feComposite in="shadowOffsetInner1" in2="SourceAlpha" k2="-1" k3="1" operator="arithmetic" result="shadowInnerInner1"/>
            <feColorMatrix in="shadowInnerInner1" result="shadowMatrixInner1" values="0 0 0 0 0.999901831 0 0 0 0 1 0 0 0 0 0.999879897 0 0 0 0.5 0"/>
            <feGaussianBlur in="SourceAlpha" result="shadowBlurInner2" stdDeviation=".5"/>
            <feOffset dy="-1" in="shadowBlurInner2" result="shadowOffsetInner2"/>
            <feComposite in="shadowOffsetInner2" in2="SourceAlpha" k2="-1" k3="1" operator="arithmetic" result="shadowInnerInner2"/>
            <feColorMatrix in="shadowInnerInner2" result="shadowMatrixInner2" values="0 0 0 0 1 0 0 0 0 0.752913654 0 0 0 0 0 0 0 0 0.6 0"/>
            <feGaussianBlur in="SourceAlpha" result="shadowBlurInner3" stdDeviation=".5"/>
            <feOffset dy="-1" in="shadowBlurInner3" result="shadowOffsetInner3"/>
            <feComposite in="shadowOffsetInner3" in2="SourceAlpha" k2="-1" k3="1" operator="arithmetic" result="shadowInnerInner3"/>
            <feColorMatrix in="shadowInnerInner3" result="shadowMatrixInner3" values="0 0 0 0 0 0 0 0 0 0 0 0 0 0 0 0 0 0 0.195510643 0"/>
            <feMerge>
                <feMergeNode in="shadowMatrixInner1"/>
                <feMergeNode in="shadowMatrixInner2"/>
                <feMergeNode in="shadowMatrixInner3"/>
            </feMerge>
        </filter>
        <linearGradient id="1i5fqt9kpc" x1="50%" x2="50%" y1="0%" y2="97.258%">
            <stop offset=".055%" stop-color="#FFF"/>
            <stop offset="100%" stop-color="#E8E8E8"/>
        </linearGradient>
        <linearGradient id="ciktay9dde" x1="50%" x2="50%" y1="0%" y2="100%">
            <stop offset="0%" stop-color="#FFC000"/>
            <stop offset="52.224%" stop-color="#FFBA00"/>
            <stop offset="100%" stop-color="#EFA900"/>
        </linearGradient>
        <linearGradient id="8q0ngxv5ph" x1="50%" x2="50%" y1="0%" y2="97.258%">
            <stop offset=".055%" stop-color="#FFF"/>
            <stop offset="100%" stop-color="#E8E8E8"/>
        </linearGradient>
        <path id="sn4tfytc2b" d="M56.898 18.596l30.646 54.482c2.166 3.85.8 8.728-3.05 10.895C83.295 84.646 81.944 85 80.57 85H19.28c-4.418 0-8-3.582-8-8 0-1.374.354-2.725 1.027-3.922l30.646-54.482c2.167-3.851 7.044-5.217 10.895-3.05 1.277.718 2.332 1.773 3.05 3.05z"/>
        <path id="wt7nuewt0g" d="M50 64.4c2.21 0 4 1.79 4 4s-1.79 4-4 4-4-1.79-4-4 1.79-4 4-4zm.299-29.4c1.988 0 3.6 1.612 3.6 3.6 0 .033 0 .067-.002.1l-.505 18.201C53.34 58.738 51.837 60.2 50 60.2s-3.34-1.462-3.392-3.299L46.103 38.7c-.055-1.987 1.511-3.643 3.498-3.699h.05L50.3 35z"/>
    </defs>
    <g fill="none" fill-rule="evenodd">
        <g>
            <g>
                <g>
                    <path fill-rule="nonzero" d="M100 0v100H0V0h100zm-2.941 2.941H2.94V97.06H97.06V2.94z" transform="translate(-385 -241) translate(385 241)"/>
                    <g transform="translate(-385 -241) translate(385 241)">
                        <use fill="#000" filter="url(#7gitvxrqia)" xlink:href="#sn4tfytc2b"/>
                        <use fill="url(#1i5fqt9kpc)" xlink:href="#sn4tfytc2b"/>
                        <use fill="#000" filter="url(#8dz0liwwud)" xlink:href="#sn4tfytc2b"/>
                    </g>
                    <path fill="url(#ciktay9dde)" d="M52.278 18.334c-2.287-1.286-5.178-.496-6.497 1.762l-.04.069-30.646 54.482c-.404.718-.616 1.529-.616 2.353 0 2.624 2.106 4.757 4.72 4.8h61.372c.825 0 1.635-.212 2.353-.616 2.288-1.287 3.114-4.168 1.87-6.468l-.04-.07L54.11 20.166c-.415-.737-1.016-1.35-1.743-1.78l-.088-.05z" transform="translate(-385 -241) translate(385 241)"/>
                </g>
                <g transform="translate(-385 -241) translate(385 241)">
                    <use fill="#000" filter="url(#lmhyy86vuf)" xlink:href="#wt7nuewt0g"/>
                    <use fill="url(#8q0ngxv5ph)" xlink:href="#wt7nuewt0g"/>
                    <use fill="#000" filter="url(#w632g2h0ji)" xlink:href="#wt7nuewt0g"/>
                </g>
            </g>
        </g>
    </g>
</svg>
