<svg xmlns="http://www.w3.org/2000/svg" width="24" height="24" viewBox="0 0 24 24">
    <g fill="none" fill-rule="evenodd">
        <g>
            <g>
                <path fill="#FFF" fill-rule="nonzero" d="M12 2.975c1.221 0 2.243.906 2.41 2.103 1.92.863 3.306 2.728 3.477 4.96l.24 3.124c.048.644.321 1.251.77 1.717l1.496 1.549c.455.471.444 1.225-.026 1.682-.22.216-.516.336-.824.336h-4.37v.199c0 1.752-1.42 3.173-3.173 3.173-1.753 0-3.174-1.42-3.174-3.173v-.199H4.457c-.654 0-1.184-.533-1.184-1.19 0-.31.12-.606.334-.828l1.496-1.55c.449-.465.721-1.072.77-1.716l.24-3.124c.171-2.232 1.557-4.097 3.477-4.96.167-1.197 1.189-2.103 2.41-2.103zm1.983 15.471h-3.966v.199c0 1.077.858 1.953 1.927 1.982l.056.001c1.077 0 1.953-.858 1.983-1.928v-.254zM12 4.166c-.604 0-1.118.437-1.224 1.03l-.008.047-.09.65-.6.27c-1.542.694-2.61 2.168-2.771 3.882l-.007.084-.24 3.124c-.068.89-.435 1.732-1.04 2.387l-.061.065-1.496 1.55v.001h10.711-.001 4.364v-.002l-1.496-1.549c-.62-.643-1.006-1.476-1.094-2.363l-.008-.09-.239-3.123c-.131-1.721-1.176-3.212-2.702-3.931l-.076-.035-.6-.27-.09-.65c-.087-.617-.612-1.078-1.232-1.078z" transform="translate(-6361 -348) translate(6361 348)"/>
                <g>
                    <path d="M0 0H23.901V23.901H0z" transform="translate(-6361 -348) translate(6361 348)"/>
                </g>
            </g>
        </g>
    </g>
</svg>
