<svg xmlns="http://www.w3.org/2000/svg" width="24" height="24" viewBox="0 0 24 24">
    <g fill="none" fill-rule="evenodd">
        <g>
            <g>
                <path fill="#FFF" fill-rule="nonzero" d="M12 2.975c.634 0 1.214.244 1.649.647-.251.342-.454.722-.599 1.13-.219-.355-.61-.587-1.05-.587-.604 0-1.118.438-1.224 1.03l-.008.048-.09.65-.6.27c-1.542.694-2.61 2.168-2.771 3.882l-.007.084-.24 3.124c-.068.89-.435 1.732-1.04 2.387l-.061.065-1.496 1.55v.001h10.711-.001 4.364v-.002l-1.496-1.549c-.62-.643-1.006-1.476-1.094-2.363l-.008-.09-.197-2.57c.169.019.34.029.514.029.23 0 .457-.018.678-.051l.192 2.502c.05.644.322 1.251.771 1.717l1.496 1.549c.455.471.444 1.225-.026 1.682-.22.216-.516.336-.824.336h-4.37v.199c0 1.752-1.42 3.173-3.173 3.173-1.753 0-3.174-1.42-3.174-3.173v-.199H4.457c-.654 0-1.184-.533-1.184-1.19 0-.31.12-.606.334-.828l1.496-1.55c.449-.465.721-1.072.77-1.716l.24-3.124c.171-2.232 1.557-4.097 3.477-4.96.167-1.197 1.189-2.103 2.41-2.103zm1.983 15.471h-3.966v.199c0 1.077.858 1.953 1.927 1.982l.056.001c1.077 0 1.953-.858 1.983-1.928v-.254z" transform="translate(-6414 -349) translate(6414 349)"/>
                <g>
                    <path d="M0 0H23.901V23.901H0z" transform="translate(-6414 -349) translate(6414 349)"/>
                </g>
                <path fill="#FF6F44" fill-rule="nonzero" d="M17.256 2.975c1.808 0 3.273 1.465 3.273 3.273 0 1.807-1.465 3.273-3.273 3.273-1.807 0-3.273-1.466-3.273-3.273 0-1.808 1.466-3.273 3.273-3.273z" transform="translate(-6414 -349) translate(6414 349)"/>
            </g>
        </g>
    </g>
</svg>
