<svg xmlns="http://www.w3.org/2000/svg" width="34" height="34" viewBox="0 0 34 34">
    <g fill="none" fill-rule="evenodd">
        <g>
            <g>
                <path d="M0 0H34V34H0z" transform="translate(-350 -2186) translate(350 2186)"/>
                <path fill="#FFF" fill-opacity=".5" d="M15.885 12.8h.188l.178.003.17.004.16.006.152.007.145.009.203.016.127.012.12.014c.078.01.152.021.222.033l.103.019.099.02.116.027.11.03.085.025.081.027.079.029.076.03.074.03.073.033.071.034.07.036.071.037c.587.314 1.047.774 1.361 1.36l.037.071.036.07.034.072.032.073.032.074.03.076.028.079.027.081.025.084.03.11.027.117.02.099.019.103c.012.07.023.144.033.222l.014.12.012.127.011.134.005.07.01.144.006.152.006.16.004.17.002.178.001.188v3.358l-.003.178-.004.17-.006.16-.007.152-.009.145-.016.203-.012.127-.014.12c-.01.078-.021.152-.033.222l-.019.103-.02.099-.027.116-.03.11-.025.085-.027.081-.029.079-.03.076-.03.074-.033.073-.034.071-.036.07-.037.071c-.314.587-.774 1.047-1.36 1.361l-.071.037-.07.036-.072.034-.073.032-.074.032-.076.03-.079.028-.081.027-.084.025-.11.03-.117.027-.099.02-.103.019c-.07.012-.144.023-.222.033l-.12.014-.127.012-.134.011-.07.005-.144.01-.152.006-.16.006-.17.004-.178.002-.188.001H13.67l-4.025 3.748c-.137.127-.313.202-.498.213l-.047.001c-.428 0-.778-.337-.799-.76l-.001-.04v-3.166l-.091-.002-.175-.006-.084-.004-.16-.008-.153-.01c-.22-.018-.413-.04-.585-.07l-.112-.02-.105-.022-.101-.024c-.049-.012-.096-.025-.142-.039l-.09-.028c-.088-.029-.17-.06-.25-.094l-.08-.035-.077-.037-.077-.038-.076-.04c-.587-.314-1.047-.774-1.361-1.36l-.037-.071-.036-.07-.034-.072-.032-.073-.032-.074-.03-.076-.028-.079-.027-.081-.025-.084-.03-.11-.027-.117-.02-.099-.019-.103c-.012-.07-.023-.144-.033-.222l-.014-.12-.012-.127-.011-.134-.005-.07-.01-.144-.006-.152-.006-.16-.004-.17-.002-.178-.001-.188V17.32l.003-.271.004-.17.006-.16.007-.152.009-.145.016-.203.012-.127.014-.12c.01-.078.021-.152.033-.222l.019-.103.02-.099.027-.116.03-.11.025-.085.027-.081.029-.079.03-.076.03-.074.033-.073.034-.071.036-.07.037-.071c.314-.587.774-1.047 1.36-1.361l.071-.037.07-.036.072-.034.073-.032.074-.032.076-.03.079-.028.081-.027.084-.025.11-.03.117-.027.099-.02.103-.019c.07-.012.144-.023.222-.033l.12-.014.127-.012.134-.011.07-.005.144-.01.152-.006.16-.006.17-.004.178-.002.188-.001h7.17zm9.4-4.8h.188l.178.003.17.004.16.006.152.007.145.009.203.016.127.012.12.014c.078.01.152.021.222.033l.103.019.099.02.116.027.11.03.085.025.081.027.079.029.076.03.074.03.073.033.071.034.07.036.071.037c.587.314 1.047.774 1.361 1.36l.037.071.036.07.034.072.032.073.032.074.03.076.028.079.027.081.025.084.03.11.027.117.02.099.019.103c.012.07.023.144.033.222l.014.12.012.127.011.134.005.07.01.144.006.152.006.16.004.17.002.178.001.188V19.573l-.003.178-.004.17-.006.16-.007.152-.009.145-.016.203-.012.127-.014.12c-.01.078-.021.152-.033.222l-.019.103-.02.099-.027.116-.03.11-.025.085-.027.081-.029.079-.03.076-.03.074-.033.073-.034.071-.036.07-.037.071c-.314.587-.774 1.047-1.36 1.361l-.071.037-.07.036-.072.034-.073.032-.074.032-.076.03-.079.028-.081.027-.084.025-.11.03-.117.027-.099.02-.103.019c-.07.012-.144.023-.222.033l-.12.014-.127.012-.134.011-.07.005-.144.01-.152.006-.16.006-.17.004-.178.002-.188.001H25.1v3.162c0 .442-.358.8-.8.8-.202 0-.397-.077-.545-.214L20.76 24.96c.231-.268.433-.563.604-.882l.055-.106.05-.098.048-.103.032-.072.046-.108.015-.036.03-.076.042-.117.014-.038.026-.082.013-.039.025-.084.011-.04.046-.17.026-.113.008-.037.02-.098.007-.036.019-.103c.018-.109.032-.204.045-.302l.018-.162.021-.217.013-.171.01-.165.007-.153.006-.179.004-.186.003-.194.001-.201V17.22l-.003-.193-.005-.184-.006-.178-.009-.191-.015-.236-.014-.17-.015-.155-.015-.12-.017-.127-.008-.06-.018-.112-.022-.12-.007-.036-.02-.098-.008-.037-.043-.177-.029-.107-.01-.039-.026-.084-.013-.04-.026-.08-.014-.04-.042-.116-.03-.076-.015-.036-.046-.108-.032-.072-.049-.103-.049-.098-.05-.095c-.461-.864-1.14-1.542-1.992-1.998l-.106-.055-.098-.05-.103-.048L19 11.75l-.108-.046-.036-.015-.076-.03-.117-.042-.038-.014-.082-.026-.039-.013-.084-.025-.04-.011-.17-.046-.113-.026-.037-.008-.098-.02-.036-.007-.103-.019c-.109-.018-.204-.032-.302-.045l-.162-.018-.217-.021-.171-.013-.165-.01-.153-.007-.179-.006-.186-.004-.194-.003-.201-.001H10.56l.011-.102c.01-.078.021-.152.033-.222l.019-.103.02-.099.027-.116.03-.11.025-.085.027-.081.029-.079.03-.076.03-.074.033-.073.034-.071.036-.07.037-.071c.314-.587.774-1.047 1.36-1.361l.071-.037.07-.036.072-.034.073-.032.074-.032.076-.03.079-.028.081-.027.084-.025.11-.03.117-.027.099-.02.103-.019c.07-.012.144-.023.222-.033l.12-.014.127-.012.134-.011.07-.005.144-.01.152-.006.16-.006.17-.004.178-.002.188-.001h10.17z" transform="translate(-350 -2186) translate(350 2186)"/>
            </g>
        </g>
    </g>
</svg>
