<svg xmlns="http://www.w3.org/2000/svg" width="34" height="34" viewBox="0 0 34 34">
    <g fill="none" fill-rule="evenodd">
        <g>
            <g>
                <g>
                    <path d="M0 0H34V34H0z" transform="translate(-706 -706) translate(686 701) translate(20 5)"/>
                    <path fill="#FFF" fill-opacity=".5" d="M21.8 6.8c1.767 0 3.2 1.433 3.2 3.2 0 1.767-1.433 3.2-3.2 3.2-.7 0-1.346-.224-1.872-.605L12.32 17.49c.052.229.079.466.079.71 0 .244-.027.482-.079.71l7.424 4.777c.556-.466 1.273-.747 2.055-.747 1.767 0 3.2 1.433 3.2 3.2 0 1.767-1.433 3.2-3.2 3.2-1.767 0-3.2-1.433-3.2-3.2 0-.195.017-.386.05-.572l-7.503-4.828c-.54.414-1.214.66-1.947.66-1.767 0-3.2-1.433-3.2-3.2C6 16.433 7.433 15 9.2 15c.733 0 1.408.246 1.947.66l7.554-4.86c-.066-.256-.101-.524-.101-.8 0-1.767 1.433-3.2 3.2-3.2z" transform="translate(-706 -706) translate(686 701) translate(20 5)"/>
                </g>
            </g>
        </g>
    </g>
</svg>
