<svg xmlns="http://www.w3.org/2000/svg" width="25" height="25" viewBox="0 0 25 25">
    <g fill="none" fill-rule="evenodd">
        <g>
            <g>
                <g fill="#FFB900">
                    <path d="M7.266 0c4.013 0 7.266 3.253 7.266 7.266 0 1.54-.628 3.078-1.884 4.616l-.08.098c-.818.98-1.265 2.215-1.265 3.49v1.168c0 .18-.019.246-.054.311-.035.066-.087.118-.153.153s-.13.054-.31.054h-7.04c-.18 0-.244-.019-.31-.054s-.118-.087-.153-.153c-.032-.06-.05-.12-.053-.271V15.47c0-1.24-.424-2.443-1.2-3.41l-.065-.08C.655 10.41 0 8.838 0 7.266 0 3.253 3.253 0 7.266 0zM4.037 17.963h6.458c.446 0 .808.362.808.808 0 .446-.362.807-.808.807H4.037c-.446 0-.808-.361-.808-.807 0-.446.362-.808.808-.808zM4.844 20.385h4.844c0 .892-.723 1.615-1.615 1.615H6.46c-.875 0-1.588-.696-1.614-1.564l-.001-.05z" transform="translate(-82 -110) translate(82 110) translate(5)"/>
                </g>
                <path d="M0 0H25V25H0z" transform="translate(-82 -110) translate(82 110)"/>
            </g>
        </g>
    </g>
</svg>
