<svg xmlns="http://www.w3.org/2000/svg" width="32" height="32" viewBox="0 0 32 32">
    <g fill="none" fill-rule="evenodd" opacity=".749">
        <g>
            <g>
                <g>
                    <g>
                        <path d="M0 0H32V32H0z" transform="translate(-975 -536) translate(0 531) translate(975 5) translate(.086)"/>
                    </g>
                    <g fill="#FFF">
                        <path d="M3.614 2.94h.383c.234 0 .319.025.404.07.086.047.153.114.2.2.045.085.07.17.07.404v.383c0 .234-.025.319-.07.404-.047.086-.114.153-.2.2-.085.045-.17.07-.404.07h-.383c-.234 0-.32-.025-.405-.07-.085-.047-.152-.114-.198-.2-.046-.085-.07-.17-.07-.404v-.383c0-.234.024-.32.07-.405.046-.085.113-.152.198-.198.086-.046.17-.07.405-.07z" transform="translate(-975 -536) translate(0 531) translate(975 5) translate(6.746 10.032)"/>
                        <path fill-rule="nonzero" d="M15.355 0h.15l.141.003.134.003.126.005.06.003.116.007.055.004.106.01.05.005.097.01.091.013.087.014c.042.007.082.015.12.024l.076.017.037.009.07.02.067.02c.044.014.086.029.126.045l.06.024.059.026.058.027.056.028.057.03c.423.226.754.558.98.98l.03.057.028.057.027.057.026.059.024.06c.016.04.031.083.045.126l.021.067.02.07.008.037.018.075.023.121.014.087.012.091.011.097.01.102.005.054.007.112.004.059.005.122.003.064.003.134.002.141.001.15V9.97l-.003.141-.003.134-.005.126-.003.06-.007.116-.004.055-.01.106-.005.05-.01.097-.013.091-.014.087c-.007.042-.015.082-.023.12l-.018.076-.009.036-.019.07-.02.068-.046.126-.024.06-.026.059-.027.057-.028.057-.03.057c-.226.422-.557.754-.98.98l-.057.03-.056.028-.058.027-.059.026-.06.024c-.04.016-.082.031-.126.045l-.067.02-.07.02-.037.01-.075.016c-.039.009-.08.016-.121.024l-.087.014-.091.012-.097.011-.102.01-.054.005-.112.007-.059.004-.122.005-.064.003-.134.003-.141.002H3.176l-.141-.002-.134-.003-.126-.005-.06-.003-.116-.007-.055-.004-.106-.01-.05-.005-.097-.01-.091-.013-.087-.014c-.042-.008-.082-.015-.12-.024l-.076-.017-.037-.009-.07-.02-.067-.02c-.043-.014-.085-.029-.126-.045l-.06-.024-.059-.026-.057-.027-.057-.028-.057-.03c-.422-.226-.754-.558-.98-.98l-.03-.057-.028-.057-.027-.057-.026-.059-.024-.06c-.016-.04-.031-.083-.045-.126l-.02-.067-.02-.07-.01-.037-.016-.075c-.009-.04-.017-.08-.024-.121l-.014-.087-.012-.091-.011-.097-.01-.103-.005-.053-.007-.112-.004-.059-.005-.122-.003-.064-.003-.134L0 9.97 0 9.82V3.25l.002-.146.002-.137.002-.066.005-.126.003-.06.007-.116.004-.055.01-.106.005-.05.01-.097.013-.091.014-.087c.007-.042.015-.082.024-.12l.017-.076.009-.037.02-.07.02-.067c.014-.043.029-.085.045-.126l.024-.06.026-.059.027-.057.028-.057.03-.057c.226-.422.558-.754.98-.98l.057-.03.057-.028.057-.027.059-.026.06-.024c.04-.016.083-.031.126-.045l.067-.02.07-.02.037-.01.075-.016c.039-.009.08-.017.121-.024L2.2.063 2.29.051 2.388.04 2.49.03l.054-.005.112-.007.059-.004.122-.005.064-.003.134-.003L3.176 0 3.326 0h12.029zm.063 1.557H3.263l-.186.001-.111.002-.15.005-.089.005-.081.005-.075.006-.068.008-.062.008-.057.01-.052.01-.025.007-.046.012-.044.014-.02.008-.04.016-.02.008-.038.018-.037.02c-.152.08-.262.19-.343.342l-.027.053-.016.036-.015.038-.014.04-.007.02-.012.043-.011.046-.01.05-.005.026-.009.057-.004.03-.007.063-.006.07-.008.116-.005.133-.004.15-.001.11-.001.183v6.557l.001.186.002.111.005.15.005.089.005.081.006.075.008.068.008.062.01.057.01.052.007.025.012.046.014.044.008.02.016.04.008.02.018.038.02.037c.08.152.19.262.342.343l.053.027.036.016.038.015.04.014.02.007.043.012.046.011.05.01.026.005.057.009.03.004.063.007.07.006.116.008.133.005.15.004.11.001.183.001h12.212l.163-.003.098-.003.09-.003.12-.007.074-.006.066-.007.032-.003.058-.008.054-.01.05-.01.046-.01.043-.013.02-.007.04-.014.038-.015.036-.016.054-.027c.151-.081.26-.191.342-.343l.027-.053.016-.036.015-.038.014-.04.007-.02.012-.043.012-.046.01-.05.004-.026.009-.057.004-.03.007-.063.006-.07.008-.116.005-.133.004-.15.002-.11v-6.86l-.003-.163-.003-.097-.003-.09-.007-.122-.006-.073-.006-.066-.004-.031-.008-.06-.01-.053-.01-.05-.01-.046-.013-.043-.007-.02-.014-.04-.015-.038-.016-.036-.027-.053c-.081-.152-.19-.262-.342-.343l-.054-.027-.036-.016-.038-.015-.04-.014-.02-.007-.043-.012-.046-.011-.05-.01-.026-.005-.056-.009-.03-.004-.064-.007-.07-.006-.116-.008-.132-.005-.15-.004-.11-.001-.12-.001z" transform="translate(-975 -536) translate(0 531) translate(975 5) translate(6.746 10.032)"/>
                        <path d="M3.614 5.708h.383c.234 0 .319.024.404.07.086.046.153.113.2.199.045.086.07.17.07.405v.382c0 .235-.025.32-.07.405-.047.086-.114.153-.2.199-.085.045-.17.07-.404.07h-.383c-.234 0-.32-.025-.405-.07-.085-.046-.152-.113-.198-.199-.046-.086-.07-.17-.07-.405v-.382c0-.235.024-.32.07-.405.046-.086.113-.153.198-.199.086-.046.17-.07.405-.07zM6.382 2.94h.382c.235 0 .32.025.405.07.086.047.153.114.199.2.045.085.07.17.07.404v.383c0 .234-.025.319-.07.404-.046.086-.113.153-.199.2-.086.045-.17.07-.405.07h-.382c-.235 0-.32-.025-.405-.07-.086-.047-.153-.114-.199-.2-.046-.085-.07-.17-.07-.404v-.383c0-.234.024-.32.07-.405.046-.085.113-.152.199-.198.086-.046.17-.07.405-.07zM6.382 5.708h.382c.235 0 .32.024.405.07.086.046.153.113.199.199.045.086.07.17.07.405v.382c0 .235-.025.32-.07.405-.046.086-.113.153-.199.199-.086.045-.17.07-.405.07h-.382c-.235 0-.32-.025-.405-.07-.086-.046-.153-.113-.199-.199-.046-.086-.07-.17-.07-.405v-.382c0-.235.024-.32.07-.405.046-.086.113-.153.199-.199.086-.046.17-.07.405-.07zM6.382 8.476h5.917c.235 0 .32.024.405.07.086.046.153.113.199.198.046.086.07.171.07.405v.383c0 .234-.024.319-.07.405-.046.085-.113.152-.199.198-.085.046-.17.07-.405.07H6.382c-.235 0-.32-.024-.405-.07-.086-.046-.153-.113-.199-.198-.046-.086-.07-.17-.07-.405v-.383c0-.234.024-.319.07-.405.046-.085.113-.152.199-.198.086-.046.17-.07.405-.07zM9.15 2.94h.382c.234 0 .319.025.405.07.085.047.152.114.198.2.046.085.07.17.07.404v.383c0 .234-.024.319-.07.404-.046.086-.113.153-.198.2-.086.045-.17.07-.405.07h-.383c-.234 0-.319-.025-.405-.07-.085-.047-.152-.114-.198-.2-.046-.085-.07-.17-.07-.404v-.383c0-.234.024-.32.07-.405.046-.085.113-.152.198-.198.086-.046.171-.07.405-.07zM9.15 5.708h.382c.234 0 .319.024.405.07.085.046.152.113.198.199.046.086.07.17.07.405v.382c0 .235-.024.32-.07.405-.046.086-.113.153-.198.199-.086.045-.17.07-.405.07h-.383c-.234 0-.319-.025-.405-.07-.085-.046-.152-.113-.198-.199-.046-.086-.07-.17-.07-.405v-.382c0-.235.024-.32.07-.405.046-.086.113-.153.198-.199.086-.046.171-.07.405-.07zM11.917 2.94h.382c.235 0 .32.025.405.07.086.047.153.114.199.2.046.085.07.17.07.404v.383c0 .234-.024.319-.07.404-.046.086-.113.153-.199.2-.085.045-.17.07-.405.07h-.382c-.234 0-.32-.025-.405-.07-.086-.047-.153-.114-.199-.2-.045-.085-.07-.17-.07-.404v-.383c0-.234.025-.32.07-.405.046-.085.113-.152.199-.198.086-.046.17-.07.405-.07zM11.917 5.708h.382c.235 0 .32.024.405.07.086.046.153.113.199.199.046.086.07.17.07.405v.382c0 .235-.024.32-.07.405-.046.086-.113.153-.199.199-.085.045-.17.07-.405.07h-.382c-.234 0-.32-.025-.405-.07-.086-.046-.153-.113-.199-.199-.045-.086-.07-.17-.07-.405v-.382c0-.235.025-.32.07-.405.046-.086.113-.153.199-.199.086-.046.17-.07.405-.07zM14.684 2.94h.383c.234 0 .32.025.405.07.085.047.153.114.198.2.046.085.07.17.07.404v.383c0 .234-.024.319-.07.404-.045.086-.113.153-.198.2-.086.045-.17.07-.405.07h-.383c-.234 0-.319-.025-.404-.07-.086-.047-.153-.114-.199-.2-.046-.085-.07-.17-.07-.404v-.383c0-.234.024-.32.07-.405.046-.085.113-.152.199-.198.085-.046.17-.07.404-.07zM14.684 5.708h.383c.234 0 .32.024.405.07.085.046.153.113.198.199.046.086.07.17.07.405v.382c0 .235-.024.32-.07.405-.045.086-.113.153-.198.199-.086.045-.17.07-.405.07h-.383c-.234 0-.319-.025-.404-.07-.086-.046-.153-.113-.199-.199-.046-.086-.07-.17-.07-.405v-.382c0-.235.024-.32.07-.405.046-.086.113-.153.199-.199.085-.046.17-.07.404-.07z" transform="translate(-975 -536) translate(0 531) translate(975 5) translate(6.746 10.032)"/>
                    </g>
                </g>
            </g>
        </g>
    </g>
</svg>
