<svg width="90" height="90" viewBox="0 0 90 90" fill="none" xmlns="http://www.w3.org/2000/svg">
<g filter="url(#filter0_d_2535_13199)">
<circle cx="45" cy="43" r="37" fill="black" fill-opacity="0.2"/>
<circle cx="45" cy="43" r="38" stroke="white" stroke-width="2"/>
</g>
<g clip-path="url(#clip0_2535_13199)">
<path d="M42.629 29.764C46.2538 29.2363 49.9467 30.0478 53.0164 32.0466C56.0861 34.0454 58.3221 37.0944 59.3059 40.6229C60.2896 44.1514 59.9537 47.9175 58.361 51.2161C56.7682 54.5148 54.0279 57.1199 50.6529 58.5438C47.2779 59.9677 43.4997 60.1128 40.0254 58.9519C36.5512 57.791 33.6191 55.4037 31.7781 52.2369C29.9371 49.0701 29.3133 45.3409 30.0236 41.7473C30.6091 38.7851 32.068 36.0824 34.1911 33.9761M50.3102 24.2423L42.1583 28.9488L46.8648 37.1006" stroke="white" stroke-width="3.4" stroke-linecap="round" stroke-linejoin="round"/>
</g>
<defs>
<filter id="filter0_d_2535_13199" x="0" y="0" width="90" height="90" filterUnits="userSpaceOnUse" color-interpolation-filters="sRGB">
<feFlood flood-opacity="0" result="BackgroundImageFix"/>
<feColorMatrix in="SourceAlpha" type="matrix" values="0 0 0 0 0 0 0 0 0 0 0 0 0 0 0 0 0 0 127 0" result="hardAlpha"/>
<feMorphology radius="1" operator="dilate" in="SourceAlpha" result="effect1_dropShadow_2535_13199"/>
<feOffset dy="2"/>
<feGaussianBlur stdDeviation="2.5"/>
<feColorMatrix type="matrix" values="0 0 0 0 0 0 0 0 0 0 0 0 0 0 0 0 0 0 0.2 0"/>
<feBlend mode="normal" in2="BackgroundImageFix" result="effect1_dropShadow_2535_13199"/>
<feBlend mode="normal" in="SourceGraphic" in2="effect1_dropShadow_2535_13199" result="shape"/>
</filter>
<clipPath id="clip0_2535_13199">
<rect width="46" height="46" fill="white" transform="matrix(1 0 0 -1 22 67)"/>
</clipPath>
</defs>
</svg>
