<svg xmlns="http://www.w3.org/2000/svg" width="83" height="83" viewBox="0 0 83 83">
    <g fill="none" fill-rule="evenodd">
        <g>
            <g>
                <g>
                    <path d="M0 0H83V83H0z" transform="translate(-299 -3137) translate(299 3137)"/>
                    <g>
                        <path fill="#FEBD03" stroke="#FFF" stroke-opacity=".2" stroke-width="2.371" d="M53.981 1.186c9.755 0 13.309.973 16.88 2.883 3.479 1.86 6.21 4.591 8.07 8.07 1.91 3.571 2.883 7.125 2.883 16.88h0V53.98c0 9.755-.973 13.309-2.883 16.88-1.86 3.479-4.591 6.21-8.07 8.07-3.571 1.91-7.125 2.883-16.88 2.883h0H29.02c-9.755 0-13.309-.973-16.88-2.883-3.479-1.86-6.21-4.591-8.07-8.07-1.875-3.506-2.847-6.995-2.882-16.354h0l-.001-25.488c0-9.755.973-13.309 2.883-16.88 1.86-3.479 4.591-6.21 8.07-8.07 3.506-1.875 6.995-2.847 16.354-2.882h0z" transform="translate(-299 -3137) translate(299 3137)"/>
                        <g>
                            <path fill="#FFF" d="M46.008 6.036c2.018 0 2.75.21 3.488.605s1.317.974 1.711 1.711c.395.738.605 1.47.605 3.488v34.168c0 2.018-.21 2.75-.605 3.488-.394.738-.973 1.317-1.71 1.711-.739.395-1.47.605-3.489.605H11.84c-2.018 0-2.75-.21-3.488-.605-.737-.394-1.316-.973-1.71-1.71-.396-.739-.606-1.47-.606-3.489V11.84c0-2.018.21-2.75.605-3.488.395-.737.974-1.316 1.711-1.71.738-.396 1.47-.606 3.488-.606h34.168zM29.377 25.202H24.91V39.96c0 3.108-1.026 4.135-2.988 4.135-1.298 0-2.445-.634-3.32-2.324l-3.078 2.263c1.539 2.656 3.682 3.924 6.941 3.924 4.8 0 6.912-3.44 6.912-7.636V25.202zm11.147-.423c-4.497 0-7.726 2.807-7.726 6.46 0 3.259 2.263 5.04 4.527 6.005l2.988 1.268c2.022.875 3.35 1.328 3.35 3.018 0 1.57-1.237 2.566-3.561 2.566-1.962 0-4.075-.996-5.675-2.475l-2.565 3.078c2.173 2.083 5.13 3.26 8.149 3.26 5.161 0 8.21-3.109 8.21-6.76 0-3.26-1.72-4.95-4.498-6.067l-2.927-1.238c-1.902-.724-3.501-1.418-3.501-2.927 0-1.48 1.267-2.355 3.23-2.355 1.84 0 3.32.664 4.738 1.841l2.263-2.806c-1.81-1.842-4.346-2.868-7.002-2.868z" transform="translate(-299 -3137) translate(299 3137) translate(12.576 12.576)"/>
                            <path d="M0 0H57.848V57.848H0z" transform="translate(-299 -3137) translate(299 3137) translate(12.576 12.576)"/>
                        </g>
                    </g>
                </g>
                <path d="M0 0H83V83H0z" transform="translate(-299 -3137) translate(299 3137)"/>
            </g>
        </g>
    </g>
</svg>
