<svg xmlns="http://www.w3.org/2000/svg" width="150" height="150" viewBox="0 0 150 150">
    <g fill="none" fill-rule="evenodd">
        <g>
            <g>
                <path d="M0 0H150V150H0z" transform="translate(-585 -340) translate(585 340)"/>
                <path fill="#FFF" fill-opacity=".2" fill-rule="nonzero" d="M40.999 29.999v4L36.507 34l-.715.014-.26.01-.586.036-.108.01-.403.042c-.826.106-1.365.291-1.912.584-.792.424-1.402 1.034-1.826 1.826-.316.59-.507 1.171-.607 2.114l-.025.266-.03.437-.02.487-.008.264-.008.572.002 82.827.014.715.01.26.036.586.01.108.042.403c.106.826.291 1.365.584 1.912.424.793 1.034 1.402 1.826 1.826.59.316 1.171.507 2.114.607l.266.025.437.03.487.02.264.008.572.009h58.362l.603-.004.542-.012.487-.02.437-.03c1.103-.093 1.736-.288 2.38-.633.792-.424 1.402-1.034 1.826-1.826.316-.59.507-1.171.607-2.114l.025-.266.03-.437.02-.487.005-.173 4 .002c-.058 2.39-.354 3.773-1.049 5.148l-.11.214c-.797 1.489-1.978 2.67-3.467 3.466-1.425.762-2.801 1.088-5.237 1.157l-.373.009-.726.006H36.972l-.726-.006c-2.671-.046-4.114-.366-5.61-1.166-1.489-.796-2.67-1.977-3.466-3.466-.835-1.561-1.146-3.064-1.17-5.966V40.602c.024-2.902.335-4.405 1.17-5.966.796-1.489 1.977-2.67 3.466-3.466 1.561-.835 3.064-1.146 5.966-1.17l4.397-.001zM114.395 16c2.902.024 4.405.335 5.966 1.17 1.489.796 2.67 1.977 3.466 3.466.762 1.425 1.088 2.801 1.157 5.237l.009.373.006.726v24.341c-1.142-1.702-2.487-3.255-4-4.626V26.972l-.004-.603-.012-.542-.02-.487-.03-.437c-.093-1.103-.288-1.736-.633-2.38-.424-.792-1.034-1.402-1.826-1.826-.59-.316-1.171-.507-2.114-.607l-.266-.025-.437-.03-.487-.02-.263-.008-.572-.008-58.828.002-.715.014-.26.01-.586.036-.108.01-.403.042c-.826.106-1.365.291-1.912.584-.792.424-1.402 1.034-1.826 1.826-.316.59-.507 1.171-.607 2.114l-.025.266-.03.437-.02.487-.008.264-.008.572v66.335l14.82.002c2.027.022 3.178.242 4.317.81l.201.105c1.179.63 2.115 1.566 2.745 2.745.647 1.208.892 2.371.915 4.517L71.999 116h42.026l.603-.004.542-.012.487-.02.437-.03c1.103-.093 1.736-.288 2.38-.633.792-.424 1.402-1.034 1.826-1.826.316-.59.507-1.171.607-2.114l.025-.266.03-.437.02-.487.008-.263.008-.572-.001-18.146 4 3.999.002 13.837-.006.726c-.046 2.671-.366 4.114-1.166 5.61-.796 1.489-1.977 2.67-3.466 3.466-1.425.762-2.801 1.088-5.237 1.157l-.373.009-.726.006H72.726c-2.386 0-4.676-.949-6.364-2.637L47.635 98.635c-1.688-1.688-2.636-3.977-2.636-6.364L45 26.602c.023-2.776.309-4.272 1.064-5.762l.106-.204c.796-1.489 1.977-2.67 3.466-3.466 1.561-.835 3.064-1.146 5.966-1.17h58.793zm-50.74 80.999H51.827l16.17 16.17v-11.645l-.003-.52-.005-.234-.017-.42c-.05-.908-.176-1.352-.418-1.804-.257-.481-.623-.847-1.104-1.104-.447-.239-.886-.365-1.775-.416l-.232-.011-.45-.013-.34-.003zM104.22 44.22c11.598 0 21 9.402 21 21 0 4.898-1.677 9.405-4.488 12.977l14.248 14.247c.976.976.976 2.56 0 3.536-.938.937-2.434.974-3.416.112l-.12-.112-14.247-14.248c-3.572 2.811-8.079 4.488-12.977 4.488-11.598 0-21-9.402-21-21s9.402-21 21-21zm0 4c-9.388 0-17 7.612-17 17 0 9.39 7.612 17 17 17 9.39 0 17-7.61 17-17 0-9.388-7.61-17-17-17zM80.15 71.998c.39 1.386.895 2.723 1.507 4H64.999c-1.105 0-2-.895-2-2 0-1.054.815-1.918 1.85-1.994l.15-.005H80.15zm18.136-15.53l.127.116 5.586 5.586 5.585-5.586.128-.117c.785-.662 1.96-.623 2.7.117.74.74.78 1.916.118 2.702l-.117.127-5.585 5.586 5.585 5.585c.78.781.78 2.048 0 2.829-.74.74-1.916.779-2.701.117l-.128-.117L104 67.828l-5.586 5.585-.127.117c-.786.662-1.962.623-2.702-.117s-.779-1.916-.117-2.701l.117-.128L101.17 65l-5.586-5.586c-.78-.781-.78-2.048 0-2.829.74-.74 1.916-.779 2.702-.117zm-18.007 1.53c-.389 1.293-.676 2.629-.853 4H65c-1.105 0-2-.895-2-2 0-1.054.815-1.918 1.85-1.994l.15-.005h15.28zm10.72-14c-1.8 1.124-3.446 2.47-4.9 4h-21.1c-1.105 0-2-.895-2-2 0-1.054.815-1.918 1.85-1.994l.15-.005h26zm14-14c1.104 0 2 .896 2 2 0 1.055-.816 1.919-1.851 1.995l-.15.006h-40c-1.104 0-2-.896-2-2 0-1.055.816-1.919 1.851-1.995l.15-.005h40z" transform="translate(-585 -340) translate(585 340)"/>
            </g>
        </g>
    </g>
</svg>
