<svg xmlns="http://www.w3.org/2000/svg" xmlns:xlink="http://www.w3.org/1999/xlink" width="53" height="54" viewBox="0 0 53 54">
    <defs>
        <filter id="7tkb2d3xka" width="327.3%" height="327.3%" x="-113.6%" y="-113.6%" filterUnits="objectBoundingBox">
            <feMorphology in="SourceAlpha" operator="dilate" radius="2.5" result="shadowSpreadOuter1"/>
            <feOffset in="shadowSpreadOuter1" result="shadowOffsetOuter1"/>
            <feGaussianBlur in="shadowOffsetOuter1" result="shadowBlurOuter1" stdDeviation="10"/>
            <feComposite in="shadowBlurOuter1" in2="SourceAlpha" operator="out" result="shadowBlurOuter1"/>
            <feColorMatrix in="shadowBlurOuter1" values="0 0 0 0 0 0 0 0 0 0 0 0 0 0 0 0 0 0 0.3 0"/>
        </filter>
        <path id="wtvvvdihib" d="M11.537 0h9.926c4.011 0 5.466.418 6.933 1.202 1.466.784 2.618 1.936 3.402 3.402C32.582 6.071 33 7.526 33 11.537v9.926c0 4.011-.418 5.466-1.202 6.933-.784 1.466-1.936 2.618-3.402 3.402-1.467.784-2.922 1.202-6.933 1.202h-9.926c-4.011 0-5.466-.418-6.933-1.202-1.466-.784-2.618-1.936-3.402-3.402C.418 26.929 0 25.474 0 21.463v-9.926c0-4.011.418-5.466 1.202-6.933.784-1.466 1.936-2.618 3.402-3.402C6.071.418 7.526 0 11.537 0z"/>
    </defs>
    <g fill="none" fill-rule="evenodd">
        <g>
            <g>
                <path d="M0 0H53V53H0z" transform="translate(-168 -2622) translate(168 2622.5)"/>
                <g>
                    <g transform="translate(-168 -2622) translate(168 2622.5) translate(10 10)">
                        <use fill="#000" filter="url(#7tkb2d3xka)" xlink:href="#wtvvvdihib"/>
                        <path fill="#FEBD03" stroke="#FFF" stroke-linejoin="square" stroke-opacity=".2" d="M11.537.5h9.926c3.87 0 5.28.385 6.697 1.143 1.378.737 2.46 1.819 3.197 3.197.758 1.417 1.143 2.827 1.143 6.697h0v9.926c0 3.87-.385 5.28-1.143 6.697-.737 1.378-1.819 2.46-3.197 3.197-1.417.758-2.827 1.143-6.697 1.143h0-9.926c-3.87 0-5.28-.385-6.697-1.143-1.378-.737-2.46-1.819-3.197-3.197C.885 26.743.5 25.333.5 21.463h0v-9.926c0-3.87.385-5.28 1.143-6.697.737-1.378 1.819-2.46 3.197-3.197C6.257.885 7.667.5 11.537.5h0z"/>
                    </g>
                    <g>
                        <path fill="#FFF" d="M18.293 2.4c.802 0 1.093.084 1.386.24.293.157.524.388.68.68.157.294.241.585.241 1.387v13.586c0 .802-.084 1.093-.24 1.386-.157.293-.388.524-.68.68-.294.157-.585.241-1.387.241H4.707c-.802 0-1.093-.084-1.386-.24-.293-.157-.524-.388-.68-.68-.157-.294-.241-.585-.241-1.387V4.707c0-.802.084-1.093.24-1.386.157-.293.388-.524.68-.68.294-.157.585-.241 1.387-.241h13.586zm-6.613 7.62H9.904v5.868c0 1.236-.408 1.644-1.188 1.644-.516 0-.972-.252-1.32-.924l-1.224.9c.612 1.056 1.464 1.56 2.76 1.56 1.908 0 2.748-1.368 2.748-3.036V10.02zm4.432-.168c-1.788 0-3.072 1.116-3.072 2.568 0 1.296.9 2.004 1.8 2.388l1.188.504c.804.348 1.332.528 1.332 1.2 0 .624-.492 1.02-1.416 1.02-.78 0-1.62-.396-2.256-.984l-1.02 1.224c.864.828 2.04 1.296 3.24 1.296 2.052 0 3.264-1.236 3.264-2.688 0-1.296-.684-1.968-1.788-2.412l-1.164-.492c-.756-.288-1.392-.564-1.392-1.164 0-.588.504-.936 1.284-.936.732 0 1.32.264 1.884.732l.9-1.116c-.72-.732-1.728-1.14-2.784-1.14z" transform="translate(-168 -2622) translate(168 2622.5) translate(10 10) translate(5 5)"/>
                        <path d="M0 0H23V23H0z" transform="translate(-168 -2622) translate(168 2622.5) translate(10 10) translate(5 5)"/>
                    </g>
                </g>
            </g>
        </g>
    </g>
</svg>
