<svg xmlns="http://www.w3.org/2000/svg" width="102" height="102" viewBox="0 0 102 102">
    <g fill="none" fill-rule="evenodd">
        <path fill="#272B37" d="M0 0H102V102H0z"/>
        <g>
            <path d="M0 0H66V66H0z" transform="translate(18 15)"/>
            <g fill="#FFF" fill-rule="nonzero">
                <path d="M33.938 27.677c-.548-.445-1.328-.445-1.876 0l-7.5 6.077c-.647.524-.752 1.48-.234 2.136.518.656 1.462.762 2.11.237l5.062-4.101V53.17c0 .84.672 1.52 1.5 1.52s1.5-.68 1.5-1.52V32.026l5.063 4.101c.647.525 1.591.419 2.109-.237.518-.655.413-1.612-.234-2.136l-7.5-6.077z" transform="translate(18 15) translate(0 7)"/>
                <path d="M54 18.23c-.08 0-.157 0-.234.003C52.448 8.944 45.272 1.63 36.109.236 26.946-1.158 17.965 3.7 14.01 12.186 5.94 12.73-.253 19.658.014 27.847.28 36.034 6.91 42.533 15 42.536h1.5c.828 0 1.5-.68 1.5-1.519 0-.839-.672-1.519-1.5-1.519H15c-6.627 0-12-5.441-12-12.153 0-6.712 5.373-12.153 12-12.153.605 0 1.151-.37 1.384-.935C19.59 6.453 27.675 1.908 35.91 3.28c8.235 1.372 14.457 8.3 15.026 16.733.029.425.232.818.56 1.083.33.266.753.38 1.168.315.441-.083.888-.13 1.336-.143 4.97 0 9 4.081 9 9.115s-4.03 9.115-9 9.115h-4.5c-.828 0-1.5.68-1.5 1.52 0 .838.672 1.518 1.5 1.518H54c6.627 0 12-5.44 12-12.153 0-6.712-5.373-12.153-12-12.153z" transform="translate(18 15) translate(0 7)"/>
            </g>
        </g>
    </g>
</svg>
