<svg xmlns="http://www.w3.org/2000/svg" width="16" height="15" viewBox="0 0 16 15">
    <g fill="none" fill-rule="evenodd">
        <g>
            <g>
                <g>
                    <path d="M0 0H15V15H0z" transform="translate(-1353 -802) translate(1316.5 800) translate(37 2)"/>
                    <g stroke="#AFAFAF" stroke-linecap="round" stroke-linejoin="round">
                        <path d="M0 6.6c0 3.203 2.597 5.8 5.8 5.8s5.8-2.597 5.8-5.8S9.003.8 5.8.8c-1.468 0-2.808.545-3.83 1.444" transform="translate(-1353 -802) translate(1316.5 800) translate(37 2) translate(2 1)"/>
                        <path d="M0.4 2.8L2.2 1.2 4 2.8" transform="translate(-1353 -802) translate(1316.5 800) translate(37 2) translate(2 1) rotate(-128 2.2 2)"/>
                    </g>
                </g>
            </g>
        </g>
    </g>
</svg>
