<svg xmlns="http://www.w3.org/2000/svg" xmlns:xlink="http://www.w3.org/1999/xlink" width="80" height="80" viewBox="0 0 80 80">
    <defs>
        <path id="u38vfrw9za" d="M14.101 0H65.1c4.903 0 6.681.51 8.474 1.47 1.792.958 3.2 2.365 4.158 4.157.958 1.793 1.469 3.571 1.469 8.474V65.1c0 4.903-.51 6.681-1.47 8.474-.958 1.792-2.365 3.2-4.157 4.158-1.793.958-3.571 1.469-8.474 1.469H14.1c-4.903 0-6.681-.51-8.474-1.47-1.792-.958-3.2-2.365-4.158-4.157C.511 71.78 0 70.002 0 65.099V14.1C0 9.198.51 7.42 1.47 5.627c.958-1.792 2.365-3.2 4.157-4.158C7.42.511 9.198 0 14.101 0z"/>
    </defs>
    <g fill="none" fill-rule="evenodd">
        <g>
            <g>
                <g transform="translate(-450 -209) translate(450 209)">
                    <mask id="91551fuleb" fill="#fff">
                        <use xlink:href="#u38vfrw9za"/>
                    </mask>
                    <use fill="#98CB00" xlink:href="#u38vfrw9za"/>
                    <path fill="#7EA800" d="M33.904 67.11l9.74 15.39 17.776 5.291c22.017-16.54 33.026-25.258 33.026-26.154 0-.897-1.37-4.49-4.113-10.78L55.99 26.668H25.228l5.855 29.48 2.82 10.964z" mask="url(#91551fuleb)"/>
                </g>
                <g fill="#FFF">
                    <path d="M33.535.001l.078.002c.078.01.154.039.258.111l.064.045c.104.073.157.134.193.205.035.07.049.146.04.224-.01.078-.04.154-.112.258l-2.497 3.567c.508.216.989.452 1.452.7 2.064 1.103 3.684 2.723 4.788 4.788 1.104 2.064 1.692 4.388 1.692 5.766H8.728c0-1.621.588-3.702 1.692-5.766 1.104-2.065 2.724-3.685 4.789-4.789.389-.208.789-.407 1.205-.594L13.844.846c-.072-.104-.102-.18-.111-.258-.01-.078.004-.154.04-.224.035-.07.089-.132.192-.205l.064-.045c.104-.072.18-.102.258-.111.079-.01.154.004.225.04.07.035.132.089.204.192l2.71 3.87c1.573-.577 3.41-.956 5.77-.956h1.777c2.238 0 4.028.341 5.561.87l2.65-3.784c.073-.103.134-.157.205-.193.07-.035.146-.048.224-.04zm-16.131 7.89c-.97 0-1.757.787-1.757 1.757 0 .97.787 1.756 1.757 1.756.97 0 1.756-.786 1.756-1.756s-.786-1.757-1.756-1.757zm13.092 0c-.97 0-1.756.787-1.756 1.757 0 .97.786 1.756 1.756 1.756s1.757-.786 1.757-1.756-.787-1.757-1.757-1.757zM39.491 17.79v22.445c0 1.708-.178 2.327-.512 2.952-.334.624-.824 1.114-1.448 1.448-.625.334-1.244.512-2.952.512h-1.05l.001 7.934c0 .728-.123 1.235-.355 1.668-.232.434-.573.774-1.006 1.006-.434.232-.94.356-1.669.356h-.326c-.73 0-1.236-.124-1.67-.356-.433-.232-.773-.572-1.005-1.006-.232-.433-.356-.94-.356-1.668v-7.934h-6.174v7.934c0 .728-.123 1.235-.355 1.668-.232.434-.572.774-1.006 1.006-.433.232-.94.356-1.668.356h-.327c-.729 0-1.235-.124-1.669-.356-.433-.232-.774-.572-1.006-1.006-.232-.433-.355-.94-.355-1.668v-7.934h-.942c-1.708 0-2.328-.178-2.952-.512-.625-.334-1.115-.824-1.449-1.448-.334-.625-.512-1.244-.512-2.952V17.79h30.763zM3.03 18.11h.327c.728 0 1.235.124 1.668.355.434.232.774.573 1.006 1.006.232.434.356.94.356 1.67v13.95c0 .73-.124 1.236-.356 1.67-.232.433-.572.773-1.006 1.005-.433.232-.94.356-1.668.356H3.03c-.729 0-1.235-.124-1.669-.356-.433-.232-.774-.572-1.006-1.006C.124 36.327 0 35.82 0 35.092V21.14c0-.729.124-1.235.355-1.669.232-.433.573-.774 1.006-1.006.434-.231.94-.355 1.67-.355zM44.756 18.11h.327c.729 0 1.235.124 1.669.355.433.232.774.573 1.006 1.006.232.434.355.94.355 1.67v13.95c0 .73-.123 1.236-.355 1.67-.232.433-.573.773-1.006 1.005-.434.232-.94.356-1.669.356h-.327c-.728 0-1.235-.124-1.668-.356-.434-.232-.774-.572-1.006-1.006-.232-.433-.356-.94-.356-1.668V21.14c0-.729.124-1.235.356-1.669.232-.433.572-.774 1.006-1.006.433-.231.94-.355 1.668-.355z" transform="translate(-450 -209) translate(450 209) translate(16.5 11)"/>
                </g>
            </g>
        </g>
    </g>
</svg>
