<svg xmlns="http://www.w3.org/2000/svg" xmlns:xlink="http://www.w3.org/1999/xlink" width="273" height="244" viewBox="0 0 273 244">
    <defs>
        <path id="05mt794axa" d="M0 0H273V244H0z"/>
    </defs>
    <g fill="none" fill-rule="evenodd">
        <g>
            <g transform="translate(-813 -370) translate(813 370)">
                <mask id="sjgsc2cfeb" fill="#fff">
                    <use xlink:href="#05mt794axa"/>
                </mask>
                <path fill="#1B202C" stroke="#282C36" stroke-width="2" d="M81.18 42c4.175 0 5.703.4 7.233 1.217 1.452.777 2.593 1.918 3.37 3.37C92.6 48.117 93 49.645 93 53.82h0v18.362c0 4.174-.4 5.702-1.217 7.232-.777 1.452-1.918 2.593-3.37 3.37C86.883 83.6 85.355 84 81.18 84h0-18.362c-4.174 0-5.702-.4-7.232-1.217-1.452-.777-2.593-1.918-3.37-3.37C51.4 77.883 51 76.355 51 72.18h0V53.819c0-4.174.4-5.702 1.217-7.232.777-1.452 1.918-2.593 3.37-3.37C57.117 42.4 58.645 42 62.82 42h0z" mask="url(#sjgsc2cfeb)"/>
                <path fill="#1B202C" stroke="#282C36" stroke-width="2" d="M189.18 59c4.741 0 6.446.529 8.176 1.454 1.806.966 3.224 2.384 4.19 4.19.925 1.73 1.454 3.435 1.454 8.175h0v197.362c0 4.74-.529 6.445-1.454 8.175-.966 1.806-2.384 3.224-4.19 4.19-1.73.925-3.435 1.454-8.175 1.454h0-97.362c-4.74 0-6.445-.529-8.175-1.454-1.806-.966-3.224-2.384-4.19-4.19-.925-1.73-1.454-3.435-1.454-8.175h0V72.819c0-4.74.529-6.445 1.454-8.175.966-1.806 2.384-3.224 4.19-4.19C85.374 59.529 87.08 59 91.82 59h0z" mask="url(#sjgsc2cfeb)"/>
                <path fill="#282C36" d="M96.974 72h87.052c3.12 0 4.252.325 5.393.935 1.14.61 2.036 1.505 2.646 2.646.61 1.14.935 2.272.935 5.393v181.052c0 3.12-.325 4.252-.935 5.393-.61 1.14-1.505 2.036-2.646 2.646-1.14.61-2.272.935-5.393.935H96.974c-3.12 0-4.252-.325-5.393-.935-1.14-.61-2.036-1.505-2.646-2.646-.61-1.14-.935-2.272-.935-5.393V80.974c0-3.12.325-4.252.935-5.393.61-1.14 1.505-2.036 2.646-2.646 1.14-.61 2.272-.935 5.393-.935z" mask="url(#sjgsc2cfeb)"/>
                <g fill="#1B202C" mask="url(#sjgsc2cfeb)">
                    <g transform="translate(116 125)">
                        <circle cx="5" cy="5" r="5"/>
                        <circle cx="44" cy="5" r="5"/>
                    </g>
                </g>
                <path stroke="#1B202C" stroke-linecap="round" stroke-linejoin="round" stroke-width="4" d="M152 150c-1.403-4.625-5.799-8-11.004-8-5.195 0-9.584 3.362-10.996 7.974" mask="url(#sjgsc2cfeb)"/>
                <path fill="#282C36" d="M126.5 65h28c.828 0 1.5.672 1.5 1.5s-.672 1.5-1.5 1.5h-28c-.828 0-1.5-.672-1.5-1.5s.672-1.5 1.5-1.5z" mask="url(#sjgsc2cfeb)"/>
                <path fill="#1B202C" stroke="#282C36" stroke-width="2" d="M234.201 181.001c6.08.028 8.362.659 10.654 1.884 2.267 1.213 4.047 2.993 5.26 5.26 1.254 2.345 1.885 4.68 1.885 11.084h0v39.542c0 6.403-.631 8.74-1.885 11.084-1.213 2.267-2.993 4.047-5.26 5.26-2.345 1.254-4.68 1.885-11.084 1.885h0-39.542c-6.403 0-8.74-.631-11.084-1.885-2.267-1.213-4.047-2.993-5.26-5.26-1.254-2.345-1.885-4.68-1.885-11.084l.001-39.972c.028-6.08.659-8.362 1.884-10.654 1.213-2.267 2.993-4.047 5.26-5.26 2.345-1.254 4.68-1.885 11.084-1.885z" mask="url(#sjgsc2cfeb)"/>
                <path fill="#1B202C" d="M6 240H279V244H6zM12.82 112h24.36c4.458 0 6.075.464 7.704 1.336 1.63.871 2.909 2.15 3.78 3.78.872 1.63 1.336 3.246 1.336 7.703v24.362c0 4.457-.464 6.074-1.336 7.703-.871 1.63-2.15 2.909-3.78 3.78-1.63.872-3.246 1.336-7.703 1.336H12.819c-4.457 0-6.074-.464-7.703-1.336-1.63-.871-2.909-2.15-3.78-3.78C.464 155.254 0 153.638 0 149.181v-24.362c0-4.457.464-6.074 1.336-7.703.871-1.63 2.15-2.909 3.78-3.78 1.63-.872 3.246-1.336 7.703-1.336z" mask="url(#sjgsc2cfeb)"/>
            </g>
        </g>
    </g>
</svg>
