<svg xmlns="http://www.w3.org/2000/svg" width="30" height="30" viewBox="0 0 30 30">
    <g fill="none" fill-rule="evenodd">
        <g>
            <g>
                <path d="M0 0H30V30H0z" transform="translate(-1195 -871) translate(1195 871)"/>
                <path fill="#D0D0D0" fill-opacity=".3" d="M16.139 11.829l5.739 6.695c.539.629.466 1.576-.163 2.115-.272.233-.618.361-.976.361H9.26c-.828 0-1.5-.672-1.5-1.5 0-.358.128-.704.361-.976l5.74-6.695c.538-.63 1.485-.702 2.114-.163.059.05.113.104.163.163z" transform="translate(-1195 -871) translate(1195 871) matrix(1 0 0 -1 0 31.5)"/>
            </g>
        </g>
    </g>
</svg>
