<svg xmlns="http://www.w3.org/2000/svg" width="132" height="132" viewBox="0 0 132 132">
    <defs>
        <filter id="prefix__a" width="136.4%" height="136.4%" x="-18.2%" y="-18.2%" filterUnits="objectBoundingBox">
            <feOffset dy="6" in="SourceAlpha" result="shadowOffsetOuter1"/>
            <feColorMatrix in="shadowOffsetOuter1" result="shadowMatrixOuter1" values="0 0 0 0 0 0 0 0 0 0 0 0 0 0 0 0 0 0 0.3 0"/>
            <feMerge>
                <feMergeNode in="shadowMatrixOuter1"/>
                <feMergeNode in="SourceGraphic"/>
            </feMerge>
        </filter>
    </defs>
    <g fill="none" fill-rule="evenodd">
        <rect width="132" height="132" fill="#266BDF" rx="20"/>
        <rect width="132" height="121" y="11" fill="#13356E" rx="20"/>
        <rect width="132" height="111" y="8" fill="#1B4893" rx="20"/>
        <rect width="129" height="129" x="1.5" y="1.5" stroke="#000" stroke-width="3" rx="20"/>
        <g fill="#FFF" fill-rule="nonzero" filter="url(#prefix__a)" transform="translate(33 27)">
            <path d="M16.743 6.802c.89 0 1.948.391 2.563 1.057.63.688 1.1 1.593 1.057 2.564-.043.948-.362 1.86-1.057 2.548l-4.46 4.46-2.511 2.513H42.13c1.292 0 2.588-.032 3.882-.012l.97.027c3.938.145 7.877 1.441 11.02 3.852.869.666 1.716 1.347 2.476 2.136.782.811 1.485 1.71 2.13 2.636 1.107 1.571 1.933 3.367 2.52 5.199 2.208 6.93.122 14.822-5.091 19.855-2.448 2.36-5.532 4.127-8.834 4.96-1.818.456-3.686.6-5.554.6h-20.92c-.926 0-1.904-.405-2.563-1.056-.63-.63-1.1-1.659-1.057-2.564.044-.934.348-1.904 1.057-2.563.71-.652 1.579-1.057 2.564-1.057h19.753c1.34 0 2.687.036 4.019-.138l-.399.043.477-.087c.86-.174 1.705-.418 2.525-.73l.041-.018.058-.025c.936-.432 1.83-.956 2.669-1.556l.081-.06.012-.01c.81-.67 1.552-1.414 2.222-2.223l.036-.045.037-.048c.603-.839 1.123-1.732 1.554-2.669l.025-.058.017-.041c.312-.82.556-1.664.73-2.525l.091-.49.013-.118c.102-1.06.102-2.123 0-3.183l-.009-.079-.001-.013c-.15-.873-.372-1.733-.661-2.572l-.179-.492-.052-.117c-.368-.787-.795-1.54-1.282-2.258l-.271-.387-.094-.116c-.646-.773-1.357-1.488-2.13-2.131l-.077-.062c-.985-.71-2.044-1.314-3.16-1.796l.343.154-.474-.172c-.67-.231-1.353-.419-2.047-.562l-.518-.098-.203-.022c-1.482-.135-3.003-.091-4.494-.078l-.637.003H12.35c1.778 1.777 3.559 3.553 5.335 5.33l1.622 1.622c.66.659 1.057 1.629 1.057 2.563 0 .89-.39 1.948-1.057 2.563-.688.63-1.593 1.1-2.563 1.057-.963-.043-1.868-.369-2.563-1.057-1.478-1.477-2.955-2.947-4.432-4.424-2.36-2.36-4.728-4.721-7.089-7.082l-1.622-1.622c-1.383-1.383-1.383-3.736 0-5.12l4.46-4.46c2.354-2.353 4.7-4.706 7.053-7.06l1.63-1.629c.659-.659 1.629-1.057 2.563-1.057z"/>
        </g>
    </g>
</svg>
