<svg xmlns="http://www.w3.org/2000/svg" width="54" height="54" viewBox="0 0 54 54">
    <g fill="none" fill-rule="evenodd">
        <rect width="54" height="54" fill="#63BAF5" rx="8"/>
        <g fill="#FFF" fill-rule="nonzero" transform="translate(15 15)">
            <path d="M12 0c6.627 0 12 5.373 12 12s-5.373 12-12 12S0 18.627 0 12 5.373 0 12 0zm0 2C6.477 2 2 6.477 2 12s4.477 10 10 10 10-4.477 10-10S17.523 2 12 2z"/>
            <path d="M12 6c2.21 0 4 1.79 4 4 0 1.807-1.199 3.335-2.845 3.83l-.155.043v1.247c0 .512-.386.935-.883.993L12 16.12c-.513 0-.936-.386-.993-.884L11 15.12V13c0-.513.386-.936.883-.993L12 12c1.105 0 2-.895 2-2s-.895-2-2-2-2 .895-2 2c0 .552-.448 1-1 1s-1-.448-1-1c0-2.21 1.79-4 4-4z"/>
            <rect width="2" height="2" x="11" y="17" rx="1"/>
        </g>
    </g>
</svg>
