<svg xmlns="http://www.w3.org/2000/svg" xmlns:xlink="http://www.w3.org/1999/xlink" width="54" height="54" viewBox="0 0 54 54">
    <defs>
        <path id="prefix__a" d="M17 25c.552 0 1 .448 1 1s-.448 1-1 1H9c-.552 0-1-.448-1-1s.448-1 1-1h8zM13 5c4.418 0 8 3.582 8 8 0 2.526-1.17 4.779-3 6.245V23c0 .552-.448 1-1 1H9c-.552 0-1-.448-1-1v-3.754C6.171 17.78 5 15.526 5 13c0-4.418 3.582-8 8-8zm0 2c-3.314 0-6 2.686-6 6 0 1.754.755 3.38 2.043 4.51l.208.175.75.6L10 22h6v-3.715l.75-.6C18.163 16.55 19 14.846 19 13c0-3.314-2.686-6-6-6zm1 8c.552 0 1 .448 1 1s-.448 1-1 1h-2c-.552 0-1-.448-1-1s.448-1 1-1h2zm11-4c.552 0 1 .448 1 1s-.448 1-1 1h-2c-.552 0-1-.448-1-1s.448-1 1-1h2zM3 11c.552 0 1 .448 1 1s-.448 1-1 1H1c-.552 0-1-.448-1-1s.448-1 1-1h2zm19.414-7.414c.39.39.39 1.023 0 1.414L21 6.414c-.39.39-1.024.39-1.414 0-.39-.39-.39-1.023 0-1.414L21 3.586c.39-.39 1.024-.39 1.414 0zm-18.828 0c.39-.39 1.023-.39 1.414 0L6.414 5c.39.39.39 1.024 0 1.414-.39.39-1.023.39-1.414 0L3.586 5c-.39-.39-.39-1.024 0-1.414zM13 0c.552 0 1 .448 1 1v2c0 .552-.448 1-1 1s-1-.448-1-1V1c0-.552.448-1 1-1z"/>
    </defs>
    <g fill="none" fill-rule="evenodd">
        <rect width="54" height="54" fill="#63BAF5" rx="8"/>
        <g transform="translate(14 13)">
            <mask id="prefix__b" fill="#fff">
                <use xlink:href="#prefix__a"/>
            </mask>
            <use fill="#979797" fill-rule="nonzero" xlink:href="#prefix__a"/>
            <g fill="#FFF" mask="url(#prefix__b)">
                <path d="M0 0H40V40H0z" transform="translate(-7 -6)"/>
            </g>
        </g>
    </g>
</svg>
