<svg xmlns="http://www.w3.org/2000/svg" xmlns:xlink="http://www.w3.org/1999/xlink" width="54" height="54" viewBox="0 0 54 54">
    <defs>
        <path id="a" d="M0 0h40v40H0z"/>
        <path id="c" d="M12 0c6.627 0 12 5.373 12 12s-5.373 12-12 12S0 18.627 0 12 5.373 0 12 0zm0 2C6.477 2 2 6.477 2 12s4.477 10 10 10 10-4.477 10-10S17.523 2 12 2zm0 15a1 1 0 1 1 0 2 1 1 0 0 1 0-2zm0-11a4 4 0 0 1 1.155 7.83l-.155.043v1.247a1 1 0 0 1-.883.993L12 16.12a1 1 0 0 1-.993-.884L11 15.12V13a1 1 0 0 1 .883-.993L12 12a2 2 0 1 0-2-2 1 1 0 0 1-2 0 4 4 0 0 1 4-4z"/>
    </defs>
    <g fill="none" fill-rule="evenodd">
        <rect width="54" height="54" fill="#63BAF5" rx="8"/>
        <g transform="translate(7 7)">
            <mask id="b" fill="#fff">
                <use xlink:href="#a"/>
            </mask>
            <g mask="url(#b)">
                <g transform="translate(8 8)">
                    <mask id="d" fill="#fff">
                        <use xlink:href="#c"/>
                    </mask>
                    <path stroke="#000" stroke-opacity=".05" d="M12-.5c6.904 0 12.5 5.596 12.5 12.5S18.904 24.5 12 24.5-.5 18.904-.5 12 5.096-.5 12-.5zm0 3a9.5 9.5 0 1 0 0 19 9.5 9.5 0 0 0 0-19zm0 14a1.5 1.5 0 1 1 0 3 1.5 1.5 0 0 1 0-3zm1.5-2.257v.877c0 .763-.573 1.402-1.355 1.492L12 16.62a1.506 1.506 0 0 1-1.492-1.355l-.008-.145V13c0-.763.573-1.403 1.355-1.492L12 11.5a1.5 1.5 0 1 0-1.5-1.5 1.5 1.5 0 0 1-3 0 4.5 4.5 0 1 1 6 4.243z"/>
                    <g mask="url(#d)">
                        <path fill="#FFF" d="M-8-8h40v40H-8z"/>
                    </g>
                </g>
            </g>
        </g>
    </g>
</svg>
