<svg xmlns="http://www.w3.org/2000/svg" width="15" height="15" viewBox="0 0 15 15">
    <g fill="none" fill-rule="evenodd">
        <g fill="#AFAFAF" fill-rule="nonzero">
            <g>
                <g>
                    <path d="M6.413.44c3.3 0 5.974 2.674 5.974 5.973 0 1.513-.562 2.894-1.488 3.946.025.01.05.025.074.041l.057.048 2.472 2.472c.161.16.161.421 0 .582-.143.143-.365.16-.525.048l-.057-.048-2.472-2.472c-.04-.039-.069-.084-.089-.132-1.052.927-2.433 1.49-3.946 1.49C3.114 12.387.44 9.712.44 6.412.44 3.114 3.114.44 6.413.44zm0 .823c-2.844 0-5.15 2.306-5.15 5.15 0 2.844 2.306 5.15 5.15 5.15 2.844 0 5.15-2.306 5.15-5.15 0-2.844-2.306-5.15-5.15-5.15z" transform="translate(-66 -267) translate(66 267) translate(.469 .469)"/>
                </g>
            </g>
        </g>
    </g>
</svg>
