<?xml version="1.0" encoding="UTF-8"?>
<svg width="40px" height="40px" viewBox="0 0 40 40" version="1.1" xmlns="http://www.w3.org/2000/svg" xmlns:xlink="http://www.w3.org/1999/xlink">
    <title>5</title>
    <g id="Page-1" stroke="none" stroke-width="1" fill="none" fill-rule="evenodd">
        <g id="Artboard" transform="translate(-87.000000, -212.000000)">
            <g id="5" transform="translate(87.000000, 212.000000)">
                <rect id="Rectangle" x="0" y="0" width="40" height="40"></rect>
                <path d="M18.5,14 C22.0898509,14 25,16.9101491 25,20.5 C25,24.0898509 22.0898509,27 18.5,27 C14.9101491,27 12,24.0898509 12,20.5 C12,16.9101491 14.9101491,14 18.5,14 Z M18.5,15 C15.4624339,15 13,17.4624339 13,20.5 C13,23.5375661 15.4624339,26 18.5,26 C21.5375661,26 24,23.5375661 24,20.5 C24,17.4624339 21.5375661,15 18.5,15 Z" id="Oval-Copy-3" fill="#FFFFFF" fill-rule="nonzero"></path>
                <g id="Group" transform="translate(25.275821, 20.650909)" fill="#FFFFFF">
                    <path d="M7.27241183,0.0986142085 L7.28792531,0.112201055 L8.86239153,1.55900957 C9.03543919,1.71802651 9.04681347,1.98721822 8.88779671,2.16026608 C8.73345691,2.32822429 8.47532804,2.3438793 8.30205408,2.19926022 L8.28654091,2.18567129 L7.468,1.434 L7.46808455,7.0000005 C7.46808455,7.23501501 7.27756765,7.42553191 7.04255314,7.42553191 C6.80753863,7.42553191 6.61702173,7.23501501 6.61702173,7.0000005 L6.617,1.354 L5.71345909,2.18567129 C5.54550108,2.34001126 5.28697167,2.33383562 5.12651485,2.17511522 L5.11220329,2.16026608 C4.95786349,1.99230787 4.96403914,1.73377815 5.12275934,1.57332114 L5.13760847,1.55900957 L6.71207469,0.112201055 C6.86978848,-0.0327253077 7.10956888,-0.0372542565 7.27241183,0.0986142085 Z" id="Combined-Shape-Copy-6"></path>
                    <path d="M7.27241183,6.09861421 L7.28792531,6.11220105 L8.86239153,7.55900957 C9.03543919,7.71802651 9.04681347,7.98721822 8.88779671,8.16026608 C8.73345691,8.32822429 8.47532804,8.3438793 8.30205408,8.19926022 L8.28654091,8.18567129 L7.468,7.434 L7.46808455,13.0000005 C7.46808455,13.235015 7.27756765,13.4255319 7.04255314,13.4255319 C6.80753863,13.4255319 6.61702173,13.235015 6.61702173,13.0000005 L6.617,7.354 L5.71345909,8.18567129 C5.54550108,8.34001126 5.28697167,8.33383562 5.12651485,8.17511522 L5.11220329,8.16026608 C4.95786349,7.99230787 4.96403914,7.73377815 5.12275934,7.57332114 L5.13760847,7.55900957 L6.71207469,6.11220105 C6.86978848,5.96727469 7.10956888,5.96274574 7.27241183,6.09861421 Z" id="Combined-Shape-Copy-13" transform="translate(7.000000, 9.712766) scale(1, -1) translate(-7.000000, -9.712766) "></path>
                    <path d="M10.2724118,3.09861421 L10.2879253,3.11220105 L11.8623915,4.55900957 C12.0354392,4.71802651 12.0468135,4.98721822 11.8877967,5.16026608 C11.7334569,5.32822429 11.475328,5.3438793 11.3020541,5.19926022 L11.2865409,5.18567129 L10.468,4.434 L10.4680846,10.0000005 C10.4680846,10.235015 10.2775676,10.4255319 10.0425531,10.4255319 C9.80753863,10.4255319 9.61702173,10.235015 9.61702173,10.0000005 L9.617,4.354 L8.71345909,5.18567129 C8.54550108,5.34001126 8.28697167,5.33383562 8.12651485,5.17511522 L8.11220329,5.16026608 C7.95786349,4.99230787 7.96403914,4.73377815 8.12275934,4.57332114 L8.13760847,4.55900957 L9.71207469,3.11220105 C9.86978848,2.96727469 10.1095689,2.96274574 10.2724118,3.09861421 Z" id="Combined-Shape-Copy-6" transform="translate(10.000000, 6.712766) rotate(-270.000000) translate(-10.000000, -6.712766) "></path>
                    <path d="M4.27241183,3.09861421 L4.28792531,3.11220105 L5.86239153,4.55900957 C6.03543919,4.71802651 6.04681347,4.98721822 5.88779671,5.16026608 C5.73345691,5.32822429 5.47532804,5.3438793 5.30205408,5.19926022 L5.28654091,5.18567129 L4.468,4.434 L4.46808455,10.0000005 C4.46808455,10.235015 4.27756765,10.4255319 4.04255314,10.4255319 C3.80753863,10.4255319 3.61702173,10.235015 3.61702173,10.0000005 L3.617,4.354 L2.71345909,5.18567129 C2.54550108,5.34001126 2.28697167,5.33383562 2.12651485,5.17511522 L2.11220329,5.16026608 C1.95786349,4.99230787 1.96403914,4.73377815 2.12275934,4.57332114 L2.13760847,4.55900957 L3.71207469,3.11220105 C3.86978848,2.96727469 4.10956888,2.96274574 4.27241183,3.09861421 Z" id="Combined-Shape-Copy-13" transform="translate(4.000000, 6.712766) scale(1, -1) rotate(-90.000000) translate(-4.000000, -6.712766) "></path>
                </g>
                <path d="M21.6508258,5.5 C22.2998092,5.5 22.6046544,5.53702994 22.9419265,5.65250477 C23.261357,5.76187103 23.5399734,5.93195947 23.7832317,6.16610086 C23.9544619,6.33091366 24.0880952,6.49884071 24.245122,6.76176518 L24.4122056,7.05975853 L24.5058311,7.23888534 L25.707,9.5 L30.1541722,9.5 C31.4488795,9.5 32.0631234,9.61861598 32.701068,9.95979246 C33.2770911,10.267853 33.732147,10.7229089 34.0402075,11.298932 C34.3586389,11.8943469 34.4831954,12.469116 34.4983877,13.5957505 L34.5,18.239551 C34.5,18.5156934 34.2761424,18.739551 34,18.739551 C33.7545401,18.739551 33.5503916,18.5626758 33.5080557,18.3294266 L33.5,18.239551 L33.5,13.8458278 C33.5,12.7020852 33.4115008,12.2437988 33.1583943,11.7705309 C32.9435336,11.3687762 32.6312238,11.0564664 32.2294691,10.8416057 C31.790006,10.6065782 31.3634607,10.5134826 30.3890235,10.5013823 L25.4069636,10.5 L25.3939166,10.4999161 C25.3745642,10.4993931 25.355303,10.4977462 25.3362316,10.4950054 L25.4069636,10.5 C25.3755592,10.5 25.344831,10.4971047 25.3150314,10.4915666 C25.2934178,10.487443 25.2719757,10.4819379 25.2509817,10.4750478 C25.2432772,10.4726599 25.23576,10.4699885 25.228328,10.4671448 C25.209723,10.4599057 25.1914297,10.4516416 25.1736592,10.4422885 C25.1666303,10.4386348 25.1595055,10.4346459 25.152491,10.4304905 C25.1391901,10.4226185 25.1266865,10.4144516 25.114539,10.4057098 C25.1024721,10.3969059 25.0907211,10.3875938 25.079415,10.3777825 C25.0707328,10.3704383 25.0620799,10.362398 25.0536923,10.3540222 C25.0416332,10.3417763 25.0304409,10.3294145 25.0198807,10.3165152 C25.0184566,10.3148968 25.0169837,10.3130667 25.0155222,10.3112241 L24.9970316,10.2863544 C24.9868073,10.271745 24.9773442,10.2565639 24.9686996,10.2408685 L24.9660391,10.2357659 L24.7358798,9.80532166 L23.4704983,7.42047113 C23.3597542,7.21972632 23.2782237,7.09618487 23.1940577,6.99710673 L23.089755,6.88657996 C22.9517285,6.75372642 22.7992542,6.66064466 22.618007,6.59858944 C22.4980257,6.55751035 22.3820757,6.53164585 22.2086917,6.51676958 L21.9691285,6.50392191 C21.9232954,6.50256952 21.8741814,6.50158905 21.8212948,6.50094667 L15.3830253,6.50093202 L15.108516,6.50898912 C14.8712299,6.52157552 14.7338682,6.54855103 14.5907226,6.59712648 C14.4104854,6.65828873 14.2587243,6.75009248 14.1208845,6.8813422 C14.0479024,6.95083511 13.9846165,7.0225075 13.9143129,7.12363937 L13.8015048,7.30084179 L13.6656346,7.54269342 L13.5851339,7.69425645 L12.455258,9.77764795 L12.2810611,10.1619659 C12.2320873,10.3212569 12.1084286,10.4559603 11.9100848,10.4910837 L11.8695988,10.4958972 C11.8589527,10.4972912 11.8482462,10.4983444 11.8374958,10.4990507 L11.8051465,10.5 L6.8458278,10.5 C5.70208522,10.5 5.24379883,10.5884992 4.77053087,10.8416057 C4.36877622,11.0564664 4.05646639,11.3687762 3.84160565,11.7705309 C3.62465725,12.1761891 3.52864481,12.5708405 3.50564021,13.395577 L3.5,13.8458278 L3.5,27.1541722 L3.50564021,27.604423 C3.52864481,28.4291595 3.62465725,28.8238109 3.84160565,29.2294691 C4.05646639,29.6312238 4.36877622,29.9435336 4.77053087,30.1583943 C5.17618912,30.3753427 5.5708405,30.4713552 6.39557702,30.4943598 L6.8458278,30.5 L23.5619915,30.5 C23.8381339,30.5 24.0619915,30.7238576 24.0619915,31 C24.0619915,31.2454599 23.8851163,31.4496084 23.6518671,31.4919443 L23.5619915,31.5 L6.8458278,31.5 C5.55112051,31.5 4.93687657,31.381384 4.29893202,31.0402075 C3.72290889,30.732147 3.267853,30.2770911 2.95979246,29.701068 C2.64136108,29.1056531 2.51680462,28.530884 2.50161234,27.4042495 L2.5,27.1541722 L2.5,13.8458278 C2.5,12.5511205 2.61861598,11.9368766 2.95979246,11.298932 C3.267853,10.7229089 3.72290889,10.267853 4.29893202,9.95979246 C4.89434693,9.64136108 5.46911598,9.51680462 6.59575054,9.50161234 L11.483,9.5 L11.5603517,9.33277365 L12.702621,7.22401798 C13.0021662,6.65246577 13.1749504,6.40123073 13.4313016,6.15713548 C13.6742652,5.92578777 13.9516819,5.7579721 14.2693776,5.65016429 C14.5673342,5.54905481 14.8396369,5.50904719 15.349678,5.50140487 L21.6508258,5.5 Z" id="Combined-Shape" fill="#FFFFFF" fill-rule="nonzero"></path>
            </g>
        </g>
    </g>
</svg>