<svg xmlns="http://www.w3.org/2000/svg" width="22" height="22" viewBox="0 0 22 22">
    <g fill="none" fill-rule="evenodd">
        <path d="M0 0H22V22H0z"/>
        <g stroke="#858997" stroke-linecap="round" stroke-linejoin="round" transform="translate(.688 4.125)">
            <circle cx="3.094" cy="3.094" r="3.094" transform="translate(4.125)"/>
            <path d="M14.094 0c1.708 0 3.094 1.385 3.094 3.094 0 1.708-1.386 3.094-3.094 3.094-.941 0-1.785-.42-2.352-1.084.402-.582.633-1.271.633-2.01 0-.74-.231-1.429-.631-2.011C12.309.42 13.153 0 14.094 0zM17.378 10.313c1.793 0 3.246 1.23 3.246 2.75h0v1.374h-4.583v-1.145c0-1.228-.691-2.314-1.752-2.98zM14.438 14.438v-1.376c0-1.518-1.616-2.75-3.61-2.75H3.61C1.616 10.313 0 11.544 0 13.063v1.376h14.438z"/>
        </g>
    </g>
</svg>
