<?xml version="1.0" encoding="UTF-8"?>
<svg width="15px" height="16px" viewBox="0 0 15 16" version="1.1" xmlns="http://www.w3.org/2000/svg" xmlns:xlink="http://www.w3.org/1999/xlink">
    <!-- Generator: sketchtool 64 (101010) - https://sketch.com -->
    <title>32E1D1BC-7C5A-4CBC-9B93-7C44460AEBC3</title>
    <desc>Created with sketchtool.</desc>
    <g id="design-system" stroke="none" stroke-width="1" fill="none" fill-rule="evenodd">
        <g id="icon" transform="translate(-51.000000, -1293.000000)" fill="#858997">
            <g id="clone" transform="translate(51.000000, 1293.000000)">
                <path d="M13.9862857,12.5188632 L5.27085714,12.5188632 C5.01453587,12.5197679 4.76836763,12.4187391 4.58658485,12.2380282 C4.40480207,12.0573172 4.30231935,11.8117508 4.30171429,11.5554286 L4.30171429,0.963428571 C4.30231935,0.707106391 4.40480207,0.461539902 4.58658485,0.280828953 C4.76836763,0.100118005 5.01453587,-0.000910736254 5.27085714,-6.11167759e-06 L13.9862857,-6.11167759e-06 C14.2423039,-0.000910737942 14.4881814,0.0999975945 14.6697499,0.280494216 C14.8513183,0.460990837 14.9536807,0.706266637 14.9542857,0.962285714 L14.9542857,11.5542857 C14.9539831,11.8106075 14.8517909,12.0562939 14.6702227,12.2372191 C14.4886544,12.4181442 14.242607,12.519464 13.9862857,12.5188632 L13.9862857,12.5188632 Z M10.5462864,15.0331429 C10.5465902,15.2898607 10.444666,15.536135 10.2630318,15.7175548 C10.0813975,15.8989746 9.83500303,16.0006078 9.57828571,16.0000027 L1.82857143,16.0000027 C1.29429638,15.9981158 0.861825232,15.565134 0.860571429,15.0308571 L0.860571429,5.408 C0.860571429,4.87149481 1.29549481,4.43657143 1.832,4.43657143 C2.36850519,4.43657143 2.80342857,4.87149481 2.80342857,5.408 L2.80342857,13.6194286 C2.80342857,13.8719016 3.0080984,14.0765714 3.26057143,14.0765714 L9.57828571,14.0765714 C10.1107464,14.0753052 10.5437667,14.5052581 10.5462864,15.0377143 L10.5462864,15.0331429 Z M8.176,2.88914286 L11.0857143,2.88914286 C11.4376212,2.87701714 11.7681124,3.05783851 11.9476597,3.36073831 C12.127207,3.66363812 12.127207,4.04036188 11.9476597,4.34326169 C11.7681124,4.64616149 11.4376212,4.82698286 11.0857143,4.81485714 L8.176,4.81485714 C7.82409307,4.82698286 7.49360187,4.64616149 7.31405458,4.34326169 C7.13450728,4.04036188 7.13450728,3.66363812 7.31405458,3.36073831 C7.49360187,3.05783851 7.82409307,2.87701714 8.176,2.88914286 Z M8.176,6.49828571 L11.0857143,6.49828571 C11.4376212,6.48616 11.7681124,6.66698136 11.9476597,6.96988117 C12.127207,7.27278097 12.127207,7.64950474 11.9476597,7.95240455 C11.7681124,8.25530435 11.4376212,8.43612571 11.0857143,8.424 L8.176,8.424 C7.82409307,8.43612571 7.49360187,8.25530435 7.31405458,7.95240455 C7.13450728,7.64950474 7.13450728,7.27278097 7.31405458,6.96988117 C7.49360187,6.66698136 7.82409307,6.48616 8.176,6.49828571 L8.176,6.49828571 Z" id="Clone"></path>
            </g>
        </g>
    </g>
</svg>