<svg xmlns="http://www.w3.org/2000/svg" width="120" height="120" viewBox="0 0 120 120">
    <g fill="none" fill-rule="evenodd">
        <circle cx="60" cy="60" r="60" fill="#172842"/>
        <ellipse cx="60" cy="56.5" fill="#22395E" rx="58" ry="56.5"/>
        <circle cx="60" cy="60" r="58.5" stroke="#000" stroke-width="3"/>
        <path fill="#172842" d="M42.676 43.373L60 60.697l17.324-17.324c1.172-1.172 3.071-1.172 4.243 0l1.06 1.06c1.172 1.172 1.172 3.071 0 4.243L65.303 66l17.324 17.324c1.172 1.172 1.172 3.071 0 4.243l-1.06 1.06c-1.172 1.172-3.071 1.172-4.243 0L60 71.303 42.676 88.627c-1.172 1.172-3.071 1.172-4.243 0l-1.06-1.06c-1.172-1.172-1.172-3.071 0-4.243L54.697 66 37.373 48.676c-1.172-1.172-1.172-3.071 0-4.243l1.06-1.06c1.172-1.172 3.071-1.172 4.243 0z"/>
        <path fill="#FFF" d="M42.676 37.373L60 54.697l17.324-17.324c1.172-1.172 3.071-1.172 4.243 0l1.06 1.06c1.172 1.172 1.172 3.071 0 4.243L65.303 60l17.324 17.324c1.172 1.172 1.172 3.071 0 4.243l-1.06 1.06c-1.172 1.172-3.071 1.172-4.243 0L60 65.303 42.676 82.627c-1.172 1.172-3.071 1.172-4.243 0l-1.06-1.06c-1.172-1.172-1.172-3.071 0-4.243L54.697 60 37.373 42.676c-1.172-1.172-1.172-3.071 0-4.243l1.06-1.06c1.172-1.172 3.071-1.172 4.243 0z"/>
    </g>
</svg>
