<?xml version="1.0" encoding="UTF-8"?>
<svg width="20px" height="14px" viewBox="0 0 20 14" version="1.1" xmlns="http://www.w3.org/2000/svg" xmlns:xlink="http://www.w3.org/1999/xlink">
    <!-- Generator: sketchtool 63.1 (101010) - https://sketch.com -->
    <title>C3FE3FEB-BF6C-4192-9EC7-5FE3ABE2B9A4</title>
    <desc>Created with sketchtool.</desc>
    <defs>
        <path d="M319,12 C319.552285,12 320,12.4477153 320,13 C320,13.5522847 319.552285,14 319,14 L319,14 L301,14 C300.447715,14 300,13.5522847 300,13 C300,12.4477153 300.447715,12 301,12 L301,12 Z M319,6 C319.552285,6 320,6.44771525 320,7 C320,7.55228475 319.552285,8 319,8 L319,8 L301,8 C300.447715,8 300,7.55228475 300,7 C300,6.44771525 300.447715,6 301,6 L301,6 Z M319,0 C319.552285,0 320,0.44771525 320,1 C320,1.55228475 319.552285,2 319,2 L319,2 L301,2 C300.447715,2 300,1.55228475 300,1 C300,0.44771525 300.447715,0 301,0 L301,0 Z" id="path-1"></path>
    </defs>
    <g id="Page-1" stroke="none" stroke-width="1" fill="none" fill-rule="evenodd">
        <g id="wizlab_cummunity_360" transform="translate(-320.000000, -15.000000)">
            <g id="해더" transform="translate(20.000000, 15.000000)">
                <mask id="mask-2" fill="white">
                    <use xlink:href="#path-1"></use>
                </mask>
                <use id="Combined-Shape" fill="#FFFFFF" fill-rule="nonzero" xlink:href="#path-1"></use>
            </g>
        </g>
    </g>
</svg>