<svg xmlns="http://www.w3.org/2000/svg" width="16" height="16" viewBox="0 0 16 16">
    <g fill="none" fill-rule="evenodd">
        <g>
            <g>
                <g>
                    <g>
                        <path d="M0 0H16V16H0z" transform="translate(-275 -1541) translate(82 1262) translate(0 165) translate(193 114)"/>
                        <path fill="#FFF" fill-opacity=".5" d="M8 3.733c2.61 0 4.688 1.216 6.234 3.648l.05.08c.155.247.155.564 0 .811C12.734 10.757 10.638 12 8 12c-2.61 0-4.688-1.216-6.234-3.647l-.05-.08c-.155-.247-.155-.565 0-.812C3.266 4.976 5.362 3.733 8 3.733zm0 1.503c-1.48 0-2.68 1.212-2.68 2.706s1.2 2.705 2.68 2.705c1.48 0 2.68-1.211 2.68-2.705S9.48 5.236 8 5.236z" transform="translate(-275 -1541) translate(82 1262) translate(0 165) translate(193 114)"/>
                    </g>
                </g>
            </g>
        </g>
    </g>
</svg>
