<svg xmlns="http://www.w3.org/2000/svg" xmlns:xlink="http://www.w3.org/1999/xlink" width="72" height="58" viewBox="0 0 72 58">
    <defs>
        <path id="vty1h7ipea" d="M0.002 0.38L71.184 0.38 71.184 56.998 0.002 56.998z"/>
    </defs>
    <g fill="none" fill-rule="evenodd">
        <g>
            <g>
                <path fill="#656A71" d="M26 31.498C26 37.298 30.702 42 36.502 42 42.302 42 47 37.298 47 31.498 47 25.698 42.302 21 36.502 21 30.702 21 26 25.698 26 31.498z" transform="translate(-468 -388) translate(468 388)"/>
                <g transform="translate(-468 -388) translate(468 388)">
                    <mask id="i4giv0ez4b" fill="#fff">
                        <use xlink:href="#vty1h7ipea"/>
                    </mask>
                    <path fill="#656A71" d="M61.012 21.314c-.622 1.7-2.51 2.578-4.218 1.958-1.706-.62-2.587-2.5-1.965-4.203.625-1.7 2.512-2.578 4.222-1.959 1.705.62 2.586 2.504 1.96 4.204M36.186 47.407c-8.95 0-16.21-7.231-16.21-16.155 0-8.924 7.26-16.155 16.21-16.155 8.954 0 16.213 7.231 16.213 16.155 0 8.924-7.26 16.155-16.213 16.155M64.397 8.36H55.01c-2.671 0-5.095-1.563-6.19-3.99C47.721 1.944 45.301.38 42.626.38H29.055c-2.66 0-5.08 1.549-6.183 3.964l-.019.052c-1.102 2.415-3.522 3.964-6.179 3.964H6.792c-3.752 0-6.79 3.031-6.79 6.767v35.108c0 3.736 3.038 6.763 6.79 6.763h57.605c3.748 0 6.79-3.027 6.79-6.763V15.127c0-3.736-3.042-6.767-6.79-6.767" mask="url(#i4giv0ez4b)"/>
                </g>
            </g>
        </g>
    </g>
</svg>
