<svg xmlns="http://www.w3.org/2000/svg" xmlns:xlink="http://www.w3.org/1999/xlink" width="143" height="116" viewBox="0 0 143 116">
    <defs>
        <path id="lon5b698ja" d="M0.003 -0.002L142.268 -0.002 142.268 115.964 0.003 115.964z"/>
    </defs>
    <g fill="none" fill-rule="evenodd">
        <g>
            <g transform="translate(-889 -368) translate(889 368)">
                <mask id="79eulwj6db" fill="#fff">
                    <use xlink:href="#lon5b698ja"/>
                </mask>
                <path fill="#464850" d="M21.297 105.57c-5.978 0-10.83-4.838-10.892-10.795l13.412-12.194c3.99-3.619 10.087-3.563 14 .126l1.848 1.736c4.067 3.836 10.45 3.724 14.385-.245l30.247-30.506c3.892-3.927 10.192-4.08 14.273-.35L131.876 83.8V94.67c0 6.013-4.886 10.9-10.9 10.9h-99.68zm32.228-70.575c0 7.96-6.447 14.413-14.413 14.413-7.96 0-14.413-6.454-14.413-14.413 0-7.959 6.454-14.413 14.413-14.413 7.966 0 14.413 6.454 14.413 14.413zm86.009-23.954c-.42-.756-.847-1.505-1.358-2.205-1.463-2.016-3.227-3.8-5.3-5.2-1.126-.764-2.337-1.422-3.611-1.96-2.548-1.079-5.348-1.68-8.288-1.68h-99.68c-2.94 0-5.74.601-8.295 1.68-1.267.538-2.478 1.196-3.612 1.96C3.72 7.463.003 13.945.003 21.295V94.67c0 .147.042.287.042.434.049 2.324.51 4.53 1.246 6.615.119.35.189.714.322 1.05v.007c.105.245.245.476.35.721l.02.028c.7 1.52 1.604 2.92 2.612 4.214.322.413.65.826 1 1.211.414.462.855.91 1.31 1.33.504.462 1.029.882 1.568 1.295.392.294.756.623 1.169.89.945.622 1.953 1.161 3.003 1.63.357.161.742.287 1.12.434.833.315 1.687.581 2.562.798.378.091.749.182 1.134.252 1.246.224 2.527.385 3.836.385h99.68c1.414 0 2.8-.154 4.144-.413.546-.112 1.057-.315 1.596-.469.007 0 .014 0 .02-.007.743-.203 1.492-.392 2.206-.679.707-.294 1.365-.672 2.044-1.036.175-.098.35-.196.532-.287.287-.147.574-.294.847-.462.168-.105.357-.175.51-.28.617-.413 1.149-.938 1.723-1.414.245-.21.51-.399.749-.623.217-.203.469-.35.686-.567.56-.553 1.015-1.21 1.505-1.827.07-.084.133-.16.203-.238.035-.042.07-.077.098-.119.245-.322.42-.686.644-1.022.448-.665.91-1.323 1.288-2.037.007-.007.007-.014.014-.02.014-.029.028-.057.042-.078 0 0 0-.007.007-.007.63-1.239 1.12-2.548 1.49-3.899.267-.847.386-1.743.54-2.632.042-.308.14-.588.175-.903.084-.756.23-1.498.23-2.275V21.296c0-3.738-1.042-7.203-2.736-10.255z" mask="url(#79eulwj6db)"/>
            </g>
        </g>
    </g>
</svg>
