<svg xmlns="http://www.w3.org/2000/svg" width="71" height="71" viewBox="0 0 71 71">
    <path fill="#FFF" d="M33.339 3.325C35.025.916 38.346.331 40.755 2.018l24.406 17.09c2.41 1.686 2.995 5.006 1.308 7.415l-3.054 4.362c-1.687 2.41-5.008 2.995-7.417 1.308l-.198-.14-2.37 21.44c-.144 1.298-.989 2.407-2.189 2.896l-.192.072L14.18 69.06c-.173.06-.355.092-.538.095-.98.02-1.79-.76-1.81-1.74l-.772-38.953c-.027-1.375.743-2.643 1.976-3.252l19.334-9.56-.778-.545c-2.344-1.642-2.962-4.83-1.44-7.22l.132-.197zM37.85 20.86l-19.648 9.716.447 22.573 6.267-8.95c-1.827-2.91-1.934-6.655-.003-9.603l.152-.225c2.812-4.015 8.462-4.91 12.62-1.998 4.159 2.912 5.251 8.527 2.44 12.543-2.088 2.98-5.74 4.241-9.185 3.501l-6.824 9.745 22.501-7.69 2.41-21.786-11.177-7.826zm-4.237 17.33c-.991-.695-2.202-.503-2.732.253-.53.757-.295 1.96.696 2.654.991.694 2.202.503 2.732-.254.53-.756.295-1.96-.696-2.654zm4.52-29.337l-1.017 1.454L58.616 25.36l1.018-1.454-21.5-15.054z"/>
</svg>
