<svg xmlns="http://www.w3.org/2000/svg" width="24" height="24" viewBox="0 0 24 24">
    <g fill="none" fill-rule="evenodd">
        <g>
            <path d="M0 0H24V24H0z"/>
            <g>
                <path stroke="#1DB6FF" stroke-linecap="round" stroke-linejoin="round" stroke-width="1.158" d="M14.715 12.69v3.52c0 .853-.703 1.545-1.57 1.545H3.72L.58 20.842V8.492c0-.853.702-1.545 1.57-1.545h3.508" transform="translate(.421 1.579)"/>
                <path stroke="#1DB6FF" stroke-linecap="round" stroke-linejoin="round" stroke-width="1.158" d="M6.016 10.807c0 .995.811 1.8 1.812 1.8h10.875l3.624 3.604V1.801c0-.995-.812-1.8-1.812-1.8H7.828c-1 0-1.812.805-1.812 1.8v9.006z" transform="translate(.421 1.579)"/>
                <path fill="#1FAEFA" d="M14.381 9.446c0 .303-.245.548-.548.548-.302 0-.547-.245-.547-.548 0-.302.245-.547.547-.547.303 0 .548.245.548.547" transform="translate(.421 1.579)"/>
                <path fill="#1DB6FF" d="M15.72 2.627c-.435-.41-1.016-.614-1.742-.614-.785 0-1.401.239-1.852.717-.448.478-.673 1.051-.673 1.836 0 .269.217.487.486.487.268 0 .485-.218.485-.487.019-.472.095-.774.23-1.026.237-.45.665-.676 1.286-.676.502 0 .861.131 1.078.393.217.263.326.572.326.927 0 .255-.075.5-.227.737-.083.135-.192.264-.325.387l-.445.431c-.427.411-.701.776-.825 1.096-.12.309-.182.584-.186 1.115.01.259.22.467.482.467.24 0 .432-.18.48-.435.015-.094.009-.192.016-.288.005-.085.015-.17.03-.253.025-.134.068-.265.125-.389.108-.234.34-.52.697-.859.49-.465.814-.819.973-1.058.157-.241.236-.554.236-.94 0-.636-.218-1.158-.654-1.568" transform="translate(.421 1.579)"/>
            </g>
        </g>
    </g>
</svg>
