<svg xmlns="http://www.w3.org/2000/svg" width="34" height="34" viewBox="0 0 34 34">
    <g fill="none" fill-rule="evenodd">
        <g>
            <g>
                <path d="M0 0H34V34H0z" transform="translate(-163 -1478) translate(163 1478)"/>
                <path fill="#FFF" fill-opacity=".5" d="M20.929 21.538c1.467 0 2.7 1.035 3.046 2.433.037-.006.077-.01.118-.01h3.1c.445 0 .807.362.807.808 0 .446-.362.808-.808.808h-3.099c-.04 0-.08-.003-.12-.009C23.629 26.966 22.396 28 20.929 28c-1.468 0-2.7-1.034-3.047-2.432-.038.006-.078.009-.118.009H6.808c-.446 0-.808-.362-.808-.808 0-.446.362-.807.808-.807h10.956c.04 0 .08.003.12.008.344-1.397 1.577-2.432 3.045-2.432zm0 1.374c-.998 0-1.807.832-1.807 1.857 0 1.026.809 1.857 1.807 1.857.997 0 1.806-.831 1.806-1.857 0-1.025-.809-1.857-1.806-1.857zM11.5 14.27c1.468 0 2.7 1.034 3.046 2.432.038-.006.078-.009.119-.009h12.527c.446 0 .808.362.808.808 0 .446-.362.808-.808.808H14.665c-.041 0-.081-.003-.12-.01-.345 1.399-1.577 2.433-3.045 2.433s-2.7-1.034-3.046-2.432c-.038.006-.078.009-.119.009H6.808c-.446 0-.808-.362-.808-.808 0-.446.362-.808.808-.808h1.527c.041 0 .081.003.12.01.345-1.399 1.577-2.433 3.045-2.433zm0 1.374c-.998 0-1.806.832-1.806 1.857s.808 1.857 1.806 1.857 1.806-.832 1.806-1.857-.808-1.857-1.806-1.857zM17 7c1.468 0 2.7 1.034 3.046 2.432.038-.006.078-.009.119-.009h7.027c.446 0 .808.362.808.808 0 .446-.362.807-.808.807h-7.027c-.041 0-.081-.003-.12-.008-.345 1.397-1.577 2.432-3.045 2.432s-2.7-1.035-3.046-2.433c-.038.006-.078.01-.119.01H6.808c-.446 0-.808-.362-.808-.808 0-.446.362-.808.808-.808h7.027c.041 0 .081.003.12.009C14.3 8.034 15.533 7 17 7zm0 1.374c-.998 0-1.806.831-1.806 1.857 0 1.025.808 1.857 1.806 1.857s1.806-.832 1.806-1.857c0-1.026-.808-1.857-1.806-1.857z" transform="translate(-163 -1478) translate(163 1478)"/>
            </g>
        </g>
    </g>
</svg>
