<svg xmlns="http://www.w3.org/2000/svg" xmlns:xlink="http://www.w3.org/1999/xlink" width="68" height="67" viewBox="0 0 68 67">
    <defs>
        <radialGradient id="ezixpwgdjb" cx="47.384%" cy="5.696%" r="52.984%" fx="47.384%" fy="5.696%" gradientTransform="matrix(0 .41252 -1 0 .53 -.139)">
            <stop offset="0%" stop-color="#7DDAFF"/>
            <stop offset="100%" stop-color="#66CDF7"/>
        </radialGradient>
        <radialGradient id="agyzlos48d" cx="50%" cy="15.913%" r="72.396%" fx="50%" fy="15.913%" gradientTransform="matrix(0 .8857 -.90453 0 .644 -.284)">
            <stop offset="0%" stop-color="#7DDAFF"/>
            <stop offset="100%" stop-color="#53C7F7"/>
        </radialGradient>
        <radialGradient id="9w2h11fqug" cx="50%" cy="26.492%" r="45.338%" fx="50%" fy="26.492%" gradientTransform="matrix(0 1 -.99621 0 .764 -.235)">
            <stop offset="0%" stop-color="#FFEB9B"/>
            <stop offset="100%" stop-color="#FC0"/>
        </radialGradient>
        <linearGradient id="zkfn9up32c" x1="50%" x2="85.715%" y1="42.932%" y2="51.249%">
            <stop offset="0%" stop-color="#FC0"/>
            <stop offset="100%" stop-color="#FFD000"/>
        </linearGradient>
        <linearGradient id="9bua7ro5gh" x1="50%" x2="50%" y1="0%" y2="100%">
            <stop offset="0%" stop-color="#FFE800"/>
            <stop offset="100%" stop-color="#FC0"/>
        </linearGradient>
        <filter id="prc5g5cs1a" width="172.7%" height="174.4%" x="-36.4%" y="-37.2%" filterUnits="objectBoundingBox">
            <feOffset dy="4" in="SourceAlpha" result="shadowOffsetOuter1"/>
            <feGaussianBlur in="shadowOffsetOuter1" result="shadowBlurOuter1" stdDeviation="2"/>
            <feColorMatrix in="shadowBlurOuter1" result="shadowMatrixOuter1" values="0 0 0 0 0 0 0 0 0 0 0 0 0 0 0 0 0 0 0.1 0"/>
            <feMerge>
                <feMergeNode in="shadowMatrixOuter1"/>
                <feMergeNode in="SourceGraphic"/>
            </feMerge>
        </filter>
        <filter id="juo107w46f" width="110.4%" height="114.9%" x="-5.2%" y="-7.4%" filterUnits="objectBoundingBox">
            <feGaussianBlur in="SourceAlpha" result="shadowBlurInner1" stdDeviation=".5"/>
            <feOffset dy="1" in="shadowBlurInner1" result="shadowOffsetInner1"/>
            <feComposite in="shadowOffsetInner1" in2="SourceAlpha" k2="-1" k3="1" operator="arithmetic" result="shadowInnerInner1"/>
            <feColorMatrix in="shadowInnerInner1" values="0 0 0 0 0 0 0 0 0 0 0 0 0 0 0 0 0 0 0.0709134615 0"/>
        </filter>
        <path id="2670g0fpwe" d="M10.602 14.572h10.986c1.425 0 1.942.149 2.463.427.521.279.93.688 1.209 1.209.279.52.427 1.038.427 2.463v5.251c0 1.425-.148 1.942-.427 2.463-.279.521-.688.93-1.209 1.209-.52.279-1.038.427-2.463.427H10.602c-1.426 0-1.942-.148-2.463-.427-.521-.279-.93-.688-1.21-1.209-.278-.52-.426-1.038-.426-2.463v-5.251c0-1.425.148-1.942.427-2.463.279-.521.688-.93 1.209-1.209.52-.278 1.037-.427 2.463-.427z"/>
    </defs>
    <g fill="none" fill-rule="evenodd">
        <g>
            <g filter="url(#prc5g5cs1a)" transform="translate(-53 -198) translate(65 210)">
                <path fill="url(#ezixpwgdjb)" d="M8.052 25.836c2.943 0 5.33-5.87 5.33-14.648C13.381 2.41 10.994 0 8.051 0S2.723 2.41 2.723 11.188s2.386 14.648 5.33 14.648z"/>
                <path fill="url(#zkfn9up32c)" d="M19.888 6.109c8.604 0 15.833 5.884 17.883 13.848H.937c2.05-7.964 9.28-13.848 17.884-13.848h1.067z"/>
                <ellipse cx="15.987" cy="24.066" fill="url(#agyzlos48d)" rx="15.987" ry="18.05"/>
                <g>
                    <use fill="#F1FBFF" xlink:href="#2670g0fpwe"/>
                    <use fill="#000" filter="url(#juo107w46f)" xlink:href="#2670g0fpwe"/>
                </g>
                <ellipse cx="16.11" cy="34.73" fill="url(#9w2h11fqug)" rx="4.634" ry="4.616"/>
                <path fill="#000" d="M19.54 18.404c.392 0 .71.318.71.71v1.057c0 .392-.318.71-.71.71-.393 0-.711-.318-.711-.71v-1.057c0-.392.318-.71.71-.71zM12.434 18.404c.393 0 .71.318.71.71v1.057c0 .392-.317.71-.71.71-.392 0-.71-.318-.71-.71v-1.057c0-.392.318-.71.71-.71z"/>
                <path fill="url(#9bua7ro5gh)" d="M34.037 23.12l-3.634 1.902c-.26.136-.582.035-.719-.225-.054-.104-.073-.222-.053-.337l.688-4.038-2.942-2.862c-.211-.205-.216-.543-.01-.754.081-.084.189-.139.305-.156l4.059-.582 1.811-3.67c.13-.264.45-.373.714-.243.105.052.19.137.241.242l1.824 3.678 4.065.596c.291.042.493.313.45.604-.017.116-.071.223-.155.305l-2.935 2.853.7 4.035c.05.29-.144.566-.434.617-.116.02-.235 0-.339-.054l-3.636-1.911z" transform="rotate(-27 34.027 18.483)"/>
                <path stroke="#000" stroke-linecap="round" stroke-width=".711" d="M13.855 21.943c0 1.173.955 2.123 2.132 2.123s2.131-.95 2.131-2.123"/>
            </g>
        </g>
    </g>
</svg>
