<svg xmlns="http://www.w3.org/2000/svg" xmlns:xlink="http://www.w3.org/1999/xlink" width="28" height="28" viewBox="0 0 28 28">
    <defs>
        <path id="vpgo58i8da" d="M0 0L12.165 0 12.165 13.276 0 13.276z"/>
    </defs>
    <g fill="none" fill-rule="evenodd">
        <g>
            <g>
                <g>
                    <g>
                        <path d="M0 0H28V28H0z" transform="translate(-6906 -483) translate(6256 149) translate(650 334)"/>
                    </g>
                    <g transform="translate(-6906 -483) translate(6256 149) translate(650 334) translate(7 7)">
                        <mask id="5cgmc2tt2b" fill="#fff">
                            <use xlink:href="#vpgo58i8da"/>
                        </mask>
                        <path fill="#1DB6FF" d="M11.377 1.034C8.187 1.986 6.14 0 3.038 0 1.733 0 .7.686.262 1.03c-.01.008-.014.02-.023.028-.052.046-.09.1-.129.16-.004.01-.013.018-.018.028C.038 1.344 0 1.45 0 1.57v11.019c0 .38.31.687.688.687.378 0 .687-.307.687-.687V8.868c.468-.204 1.033-.366 1.664-.366 3.227 0 5.312 2.149 8.733.903.238-.087.394-.323.394-.576V1.614c0-.41-.396-.697-.788-.58" mask="url(#5cgmc2tt2b)"/>
                    </g>
                </g>
            </g>
        </g>
    </g>
</svg>
