<svg xmlns="http://www.w3.org/2000/svg" width="33" height="23" viewBox="0 0 33 23">
    <g fill="none">
        <path fill="#D4A002" d="M17 0c-.552 0-1 .402-1 .899V1.1c0 .497.448.899 1 .899s1-.402 1-.899V.9C18 .402 17.552 0 17 0zM32.515 5.116c-.457-.245-1.033-.088-1.288.35l-.107.182c-.255.438-.091.992.365 1.236.146.079.305.116.461.116.332 0 .654-.168.828-.466l.106-.182c.255-.438.091-.992-.365-1.236zM1.88 5.648l-.107-.182c-.255-.438-.831-.595-1.288-.35-.456.244-.62.798-.365 1.236l.107.182C.4 6.832.722 7 1.054 7c.156 0 .315-.037.46-.116.457-.244.62-.798.366-1.236z"/>
        <path fill="#FFD23D" d="M30.95 7.283l-3.962 1.133c-.412.118-.704.474-.698.878.001.064 0 .13-.005.195-.083 1.13-1.06 2.045-2.264 2.121-1.424.09-2.608-.966-2.608-2.282 0-.37.094-.72.26-1.029.196-.363.105-.806-.207-1.089l-4.4-3.995c-.316-.287-.816-.287-1.131 0L11.52 7.222c-.31.282-.385.72-.191 1.083.19.358.285.77.25 1.204-.093 1.12-1.064 2.024-2.259 2.1-1.425.093-2.612-.964-2.612-2.28v-.01c.002-.413-.275-.782-.697-.903L2.051 7.283c-.59-.169-1.158.317-1.034.883l1.06 4.818c.26-.066.531-.101.812-.101 1.728 0 3.133 1.318 3.133 2.938 0 .42-.094.818-.264 1.179h7.873c-.196-.418-.292-.886-.257-1.379.104-1.45 1.35-2.627 2.897-2.73 1.83-.123 3.362 1.239 3.362 2.93 0 .42-.095.818-.264 1.179h7.873c-.17-.361-.264-.76-.264-1.179 0-1.62 1.405-2.938 3.133-2.938.28 0 .553.035.812.1l1.06-4.817c.124-.567-.443-1.052-1.034-.883z"/>
        <path fill="#F0B400" d="M3 19v2.576C3 22.36 3.664 23 4.48 23h24.04c.816 0 1.48-.639 1.48-1.424V19H3zm4.248 2.945h-.865c-.543 0-.982-.423-.982-.945s.44-.946.982-.946h.865c.542 0 .982.424.982.946s-.44.945-.982.945zm6.456 0h-.865c-.542 0-.982-.423-.982-.945s.44-.946.982-.946h.865c.543 0 .982.424.982.946s-.44.945-.982.945zm6.457 0h-.865c-.543 0-.983-.423-.983-.945s.44-.946.983-.946h.865c.542 0 .982.424.982.946s-.44.945-.982.945zm6.456 0h-.865c-.542 0-.982-.423-.982-.945s.44-.946.982-.946h.865c.543 0 .982.424.982.946s-.44.945-.982.945zM3 15c-.551 0-1 .449-1 1 0 .551.449 1 1 1 .551 0 1-.449 1-1 0-.551-.449-1-1-1zM17 15c-.551 0-1 .449-1 1 0 .551.449 1 1 1 .551 0 1-.449 1-1 0-.551-.449-1-1-1zM30 15c-.551 0-1 .449-1 1 0 .551.449 1 1 1 .551 0 1-.449 1-1 0-.551-.449-1-1-1z"/>
    </g>
</svg>
