<svg xmlns="http://www.w3.org/2000/svg" width="10" height="14" viewBox="0 0 10 14">
    <g fill="none" fill-rule="evenodd">
        <path d="M0 0H16V16H0z" transform="translate(-3 -1)"/>
        <path fill="#2C9EE0" fill-rule="nonzero" d="M12.589 2c-.005-.554-.456-1-1.01-1h-4.5c-.554 0-1.005.446-1.01 1v.463c0 .558.452 1.01 1.01 1.01h1.066l-2.571 9.053H4.421c-.554 0-1.005.446-1.01 1v.463c0 .268.106.525.295.715.19.19.447.296.715.296h4.572C9.55 14.998 10 14.547 10 13.99v-.463c-.005-.554-.456-1-1.01-1H7.861l2.571-9.053h1.147c.558 0 1.01-.452 1.01-1.01V2z" transform="translate(-3 -1)"/>
    </g>
</svg>
