<?xml version="1.0" encoding="UTF-8"?>
<svg width="16px" height="16px" viewBox="0 0 16 16" version="1.1" xmlns="http://www.w3.org/2000/svg" xmlns:xlink="http://www.w3.org/1999/xlink">
    <!-- Generator: sketchtool 63.1 (101010) - https://sketch.com -->
    <title>252B1E70-56C3-4C5D-A7C2-712425842454</title>
    <desc>Created with sketchtool.</desc>
    <g id="Page-1" stroke="none" stroke-width="1" fill="none" fill-rule="evenodd">
        <g id="wizschool_landing_v.2.0_360(메뉴2)" transform="translate(-327.000000, -15.000000)" fill="#FFFFFF" fill-rule="nonzero">
            <g id="Group-2" transform="translate(327.000000, 15.000000)">
                <path d="M-1,9 L17,9 C17.5522847,9 18,8.55228475 18,8 C18,7.44771525 17.5522847,7 17,7 L-1,7 C-1.55228475,7 -2,7.44771525 -2,8 C-2,8.55228475 -1.55228475,9 -1,9 Z" id="Shape" transform="translate(8.000000, 8.000000) rotate(-315.000000) translate(-8.000000, -8.000000) "></path>
                <path d="M-1,9 L17,9 C17.5522847,9 18,8.55228475 18,8 C18,7.44771525 17.5522847,7 17,7 L-1,7 C-1.55228475,7 -2,7.44771525 -2,8 C-2,8.55228475 -1.55228475,9 -1,9 Z" id="Shape" transform="translate(8.000000, 8.000000) rotate(-45.000000) translate(-8.000000, -8.000000) "></path>
            </g>
        </g>
    </g>
</svg>