<svg xmlns="http://www.w3.org/2000/svg" xmlns:xlink="http://www.w3.org/1999/xlink" width="151" height="151" viewBox="0 0 151 151">
    <defs>
        <path id="prefix__a" d="M0 0.908L150.968 0.908 150.968 151.876 0 151.876z"/>
        <path id="prefix__c" d="M0.386 0.485L1.448 0.485 1.448 1.062 0.386 1.062z"/>
        <path id="prefix__e" d="M0.498 0.286L1.56 0.286 1.56 1.062 0.498 1.062z"/>
        <path id="prefix__g" d="M0.09 0.462L1.152 0.462 1.152 1.062 0.09 1.062z"/>
    </defs>
    <g fill="none" fill-rule="evenodd">
        <g>
            <g transform="translate(0 -1) translate(0 .154)">
                <mask id="prefix__b" fill="#fff">
                    <use xlink:href="#prefix__a"/>
                </mask>
                <path fill="#3058E0" d="M75.484.908C33.794.908 0 34.703 0 76.391c0 41.69 33.795 75.485 75.484 75.485 41.689 0 75.484-33.795 75.484-75.485 0-41.688-33.795-75.483-75.484-75.483m0 6.372c38.108 0 69.111 31.003 69.111 69.111 0 38.11-31.003 69.112-69.11 69.112-38.11 0-69.113-31.003-69.113-69.112 0-38.108 31.003-69.11 69.112-69.11" mask="url(#prefix__b)"/>
            </g>
            <path fill="#3058E0" d="M75.485 11.843c-35.84 0-64.896 29.055-64.896 64.896 0 35.84 29.056 64.896 64.896 64.896s64.896-29.055 64.896-64.896c0-35.84-29.055-64.896-64.896-64.896m0 3.187c34.027 0 61.71 27.682 61.71 61.709s-27.683 61.71-61.71 61.71c-34.026 0-61.71-27.683-61.71-61.71s27.684-61.71 61.71-61.71" transform="translate(0 -1)"/>
            <path fill="#367DE3" d="M148.945 63.852c.08.134.176.249.275.356l.313-.002c.07-.406.012-.639-.081-.82-.08.27-.497.102-.507.466M96.077 147.318c.242-.009.445-.067.573-.223-.074-.087-.165-.172-.28-.253-.168.06-.223.278-.293.476M5.8 62.64c-.057 1.085.025 1.985.561 2.27-.105-.995.542-.97.438-1.968-.291-.15-.582-.315-.999-.302M5.82 90.981c.036-.359.295-.358.454-.153.053-.549-.335-.463-.668-.453-.04.34.023.564.213.606M8.83 106.279c-.562 1.318-.782 3.099.548 3.49.388-.749.87-1.364 1.663-.767.334-.86-.093-1.855.001-2.877-.571-.451-1.373.123-2.212.154M8.234 46.119c-.164.199-.198.913.105.911.158-.198.191-.908-.105-.911M6.5 101.577c.017-.82.925-1.088.547-1.97-.407.34-1.588 1.506-.546 1.97M13.127 81.578c-.058-.842-.29-1.422-.774-1.68-.198 1.182.486 1.148.774 1.68M12.321 35.807l.001.606c.508.239.38-.78 0-.606M9.893 46.416c.127.18.387.178.664.15.175-.794-.693-.75-.664-.15M13.153 117.178c.154-.913-.697-.461-1-.758-.053.258-.166.484-.291.695l.215.337c.232-.393.565-.588 1.076-.274M13.241 85.506c.079.447.033 1.077.333 1.208.088-.484.402-.66.55-1.054-.21-.183-.622-.493-.883-.154M13.24 83.384c.196.14.285.423.66.312.05-.51-.585-.853-.66-.312M8.565 52.036c-.244.335.038.843.44.751-.063-.354-.152-.707-.44-.751M8.789 49.749c.05.747.432 1.015.768 1.37.538-.588-.243-1.297-.768-1.37M25.941 21.54c.08-.174.134-.408.096-.756-.346-.082-.581-.313-.861-.483-.048.043-.098.083-.146.126.187.527.409 1.01.911 1.113M22.615 31.248c-.223.347-.324.8-.239 1.15.284-.342.58-.67.871-1.006-.102-.201-.383-.15-.632-.144M33.553 14.451c.29.461.123.777.512.946.376-.519-.362-.414-.297-.95.075-.396.479-.351.41-.947-.006-.035-.016-.063-.025-.095-.417.274-.837.546-1.249.829.172.131.378.217.65.217M19.962 31.403c.047-.735-.091-1.195-.555-1.21-.171.219-.103.763-.117 1.213.423.01.318.164.672-.003M15.196 33.688c.297.195.224.9.67.906.299-.527-.11-1.104-.222-1.515.373-.656.508-1.627 1.1-1.969.356-.086.25.459.669.295.088-.27.255-.44.325-.762-.961.38-.907-.273-1.655-.447-.083.634-.133.975.002 1.666-.15.154-.412.153-.553.3.08.768-.2 1.043-.336 1.526M23.285 38.06c.388.259 1.03-.263.995-1.067-.089.034-.178.05-.267.072-.708.921-1.395 1.858-2.052 2.816.684-.27 1.145-.854 1.324-1.821M33.98 123.656c.245.53.907.488 1.107 1.065.144-.158-.074-1.104-.22-1.369-.278.13-.95-.289-.887.304M19.643 48.372c-.297.506-.793.733-.778 1.668.183.275.374-.133.78 0 .008-.229-.048-.562.103-.608.152-.05.246-.021.315.042.082-.168.172-.332.255-.498-.19-.249-.334-.56-.675-.604M41.297 129.405c.074-.538.306-.863.547-1.177-.277-.182-.562-.351-.835-.537-.291.485.289 1.001.288 1.714M24.012 123.83c.366.037.53-.2.55-.635-.091-.097-.182-.193-.272-.292-.351.069-.53.52-.278.927M18.745 45.348c.246.567-.097.727-.21 1.205.477.134.783-1.283.21-1.205M20.802 120.045v.758c.455.254.597-.685.332-.91-.023.183-.182.17-.332.152M23.9 113.374c.226.137.318.462.657.447-.024-.63.18-.71-.001-1.214-.294.162-.631.254-.657.767M50.13 7.223c-.31-.065-.329.288-.309.67.323.065.33-.289.308-.67M47.044 7.366c.263-.023.398-.202.406-.545-.125-.025-.168-.175-.267-.246l-.058.023c-.116.302-.196.384-.081.768M19.578 119.288c-.34-.103-.214-.102-.55.007-.294.843-.057 1.889.67 1.81.164-.638-.09-1.216-.12-1.817M19.803 124.141c-.514-.476-.866.372-.885 1.055.588.045.752-.484.885-1.055M18.077 35.797c-.81.425.078 1.825-.218 2.573.024-.001.038.013.06.015.141-.214.28-.43.425-.642-.333-.464-.05-1.243-.267-1.946M18.916 117.012c.181-.034.31-.135.405-.29-.12-.17-.243-.34-.362-.51-.116.205-.163.535-.043.8M24.452 125.496v-.754c-.44 0-.821.07-.774.757.152.213.632.211.774-.003M23.785 112.915c-.475.067-.897.188-.998.762.128.025.119.245.104.461.63.027.525-.914.894-1.223M24.458 129.14c.326-.418.718-1.07.444-1.83-1.04-.76-1.757 1.784-.444 1.83M22.686 127.924c-.17-.198-.396-.965-.552-.306.097.13.353.806.552.306M21.914 124.587c-.068.328-.28.436-.228.911.372.063.571-.88.228-.91M16.42 40.653c-.28.335-.71.458-.67 1.23.235-.404.459-.813.7-1.21-.01-.004-.016-.02-.03-.02M15.323 57.925c-.275.479-.33 1.24.111 1.52.225-.522-.145-1.148-.111-1.52M14.306 34.751c-.005.186-.133.203-.103.451.16.07.278.221.439.297.03-.435.013-.815-.336-.748M15.368 120.353c-.06-.649.034-.93-.11-1.204-.45.175-.668 1.291.11 1.204M13.873 79.686c-.022-.42-.02-.846-.032-1.269-.018-.008-.032-.02-.049-.028-.5.64-.31 1.067.08 1.297M15.204 41.402c-.308.204-.64.354-.777.762.091.434.36.624.333 1.222.058.012.098 0 .134-.017.116-.211.243-.416.36-.625-.026-.514.039-.977-.05-1.342M17.476 120.81c.699-.134.862-.993.552-1.817-.562.093-.435 1.117-.552 1.817M16.31 39.289c-.092-.733-.379-1.192-.445-1.977-.65.3-1.081 1.63-1.11 2.275.374.088.784-.818 1.555-.298M27.225 127.454c-.023.115-.086.177-.226.158-.023.35.022.572.115.755.442.171.444-.897.111-.913M22.892 110.794c.381-.047.59-.298.667-.75-.54-.187-.49.438-.667.75M19.383 102.163l-.108-.24c.014.08.02.16.066.237.017.003.026 0 .042.003M23.338 111.556c-.413.266-.3.466-.77.454l-.002.457h.665c.13-.18.127-.538.107-.911M21.128 111.407c-.123-.007-.235.001-.334.025l.247.385c.038-.122.068-.257.087-.41M25.911 118.386c.053-.14.132-.248.307-.226.444-.1.454.394.823.413-.095-1.205-1.11-1.177-1.543-1.908.053.462.342.627.306 1.22-.03.102-.078.17-.127.231.077.091.157.18.234.27M22.519 43.216c-.467-.283-.047-1.764-.445-2.12-.372.682-1.044 2.614-.002 2.725-.284-.979.193-.44.447-.605M20.853 47.61c-.005.114.004.206.01.303.05-.092.094-.185.142-.277-.048-.017-.099-.027-.152-.026M93.816 4.604c-.265.63.044 1.603.444 1.812.079-.751.304-1.3.446-1.966-.314-.335-.59-.733-.859-1.131-.244-.062-.494-.112-.74-.171-.118.591.297 1.194.71 1.456M92.772 5.654c-.243-.047-.4.023-.513.126.183.65-.062.611-.11 1.238.263-.397.605-.656.623-1.364M91.74 8.506c.191.761.948-.243.52-.683-.018.429-.554.172-.52.683M95.145 8.773c-.116.213-.335.287-.313.68.492.243.71-.56.313-.68M91.02 5.919c.004-.076.01-.158.105-.133.012.21-.015.48.205.411-.088-.385.144-.356.098-.68-.14.01-.223-.062-.302-.138.133.341-.48.33-.107.54M95.48 4.14c-.028.49-.36 1.573.002 1.672.155-.394.26-.862.66-.908.295.564.607 1.092 1.01 1.507.14.008.236-.07.322-.15.038-.756-.603-.586-.665-1.212.064-.423.424-.421.658-.603.004-.049-.001-.085-.002-.128-.47-.143-.945-.27-1.42-.403-.165.029-.206.21-.565.225M95.968 15.286c.145.047.2.192.415.144 0-.13.027-.223.058-.306-.12-.042-.241-.082-.362-.123-.012.016-.028.027-.038.045.003-.017.002-.038.005-.056-.072-.024-.144-.05-.218-.074.071.055.143.104.213.144-.038.051-.058.14-.073.226M90.398 4.703c.409-.01.62-.288.618-.826-.407.017-.621.292-.618.826M98.883 11.514c.19.069.381.134.571.206.08-.154.103-.38.014-.759-.263.088-.427.317-.585.553M96.998 7.685c.066-.307.308-.675.103-.95-.61-.195-.47.927-.103.95M97.004 15.835c.078.299.05.743.304.815.138-.227.367-.337.31-.815-.127-.179-.482-.185-.614 0M98.032 9.17c-.25-.398-.58-.682-.933-.946.091.811.573 1.112.933.946M79.804 13.147c.394.256.402-.349.718.136.067-.436.442-.915.24-1.401-.063-.006-.127-.01-.19-.015-.368.284-.29 1.145-.768 1.28M82.899 13.246c-.015.01-.021.02-.034.042-.387.01-.584.278-.594.803.303.106.506-.06.668-.225.12.001.187-.082.235-.208.097-.072.204-.087.331.028.089-.862-.12-1.34-.499-1.59-.139-.016-.277-.038-.416-.053.069.447.401.542.309 1.203M100.447 134.756c-.147-.052-.211-.216-.435-.155-.096.43.147.399.105.767.292.043.287-.326.33-.612M94.732 9.588c-.018-.485-.382-.495-.312-1.09.424.029.637-.25.615-.813-.201.022-.373.076-.52.167-.076-.216-.159-.33-.03-.667-.537.089-.171.498-.329 1.029-.266.473-.12 1.116.576 1.374M87.82 138.107c.573-.1.273.951.776.91.067-.31.284-.435.226-.917-.345-.135-.397-.686-.47-1.2-.092.02-.181.044-.274.063-.103.359-.175.762-.258 1.144M97.687 142.032c.091.432-.158.39-.116.758.166.085.284.222.447.301.168-.462.388-.846.49-1.387-.136.05-.276.094-.413.141-.091.166-.2.274-.408.187M98.133 146.568c.27.044 1.139-.167 1.128-.96-.671-.066-1.16.116-1.128.96M81.824 11.962c-.154-.015-.309-.022-.463-.035.18.146.342.215.463.035M98.13 144.124v.537c.378.014.59-.223.708-.54-.222-.067-.518-.266-.708.003M96.128 136.434c-.404-.151-.44.747-.11.756.097-.179.15-.405.11-.756M95.598 10.348c-.088.001-.18 0-.267 0 .089.026.18.048.268.076-.002-.028.003-.046 0-.076M97.158 18.77l.002-.986c-.45-.168-.717-.55-.785-1.212-.344-.072-.352.318-.332.753.167.028.41-.057.44.148.041.423.012.748-.055 1.023.245.088.487.182.73.273M58.68 3.67c-.063.326-.307-.152-.104-.277-.291-.108-.26.204-.515.143-.023.763.148.995-.104 1.49.283-.307.8-1.029.723-1.355M71.354 4.19c-.04.263-.4.111-.312.549.191-.04.224.147.414.13.137-.174.157-.662-.102-.678M74.855 12.886c-.059.826.542.749.612.135-.115-.165-.356-.155-.612-.135M41.317 9.844c.012-.222.004-.416-.032-.574-.14.07-.28.142-.42.214-.004.06-.01.118.009.207.155.052.213.214.443.153M34.022 28.497c-.092.173-.149.402-.112.753.26.056.427-.033.552-.154-.005-.376-.155-.573-.44-.599M65.372 7.461c-.054.321-.25.442-.298.76.121-.017.245-.029.366-.046.036-.162.062-.338.142-.442-.001.079.082.165.107.001-.15-.03-.17-.228-.317-.273M68.68 14.665c-.1-.517-.09-1.152-.208-1.638-.634.438-1.263.87-2.06 1.097.366.48.838 1.097 1.311 1.22.151-.018.302-.04.453-.058.174-.097.345-.29.503-.621M78.872 5.227c-.21.043-.247-.164-.453-.146-.205.29-.027.558.002.912.312-.027.472-.264.45-.766M67.841 4.605c-.326.025-.446.306-.402.82.336-.011.388-.397.402-.82M68.811 11.993c-.185.019-.366.049-.55.07.132.15.268.296.418.427.09-.17.121-.335.132-.497M72.069 5.553c.037.396.061.826.306.95.619-.822 1.469-1.332 1.654-2.723-.38-.282-.422.24-.929.126-.036.55.239.69.206 1.233-.699-.238-.638.522-1.237.414M74.344 13.83c.11.627.38.556.67 1.019l.074-.001c.2-.553-.286-1.006-.744-1.018M72.069 3.371c-.155.344.015 1.19.413 1.226.08-.393.212-.72.307-1.086-.355.104-.4-.207-.72-.14M68.26 5.015c.093.42.107.942.514.945-.061-.458-.08-.98-.515-.945M69.6 7.704c.1-.009.2-.015.3-.023 0-.05.003-.096-.004-.154-.167-.038-.245.05-.296.177" transform="translate(0 -1)"/>
            <path fill="#367DE3" d="M34.907 29.396c.111.326.471-.282.618.133-.44.29-.813.664-1.334.82.004.137.01.263.015.387.59-.533 1.191-1.052 1.802-1.56-.154-.208-.285-.443-.273-.87.518.377.838-.056 1.175.138.163-.132.33-.26.496-.39.05-.355-.003-.778.178-.963.182.108.323.279.448.47.264-.202.526-.408.793-.607-.41-.027-.798-.07-1.242-.283-.13-.423-.378-.674-.316-1.35-.48.049-.85-.175-.64-.741-.247.185-.484.384-.728.572.097.713.285 1.304.548 1.796-.809.084-1.553.628-2.474.004.02-.112.025-.205.018-.282-.133.111-.26.228-.393.34.035.163.036.328-.135.49-.06-.006-.18-.06-.309-.105-.135.117-.27.233-.405.352.67.563 2.054-.518 2.158 1.65M70.734 12.208c.053-.075.093-.21.121-.374l-.623.047c-.003.023-.007.04-.008.063.19.06.187.395.51.264M2.158 71.126c-.171.33-.377 1.194.117 1.219.144-.076.257-1.364-.117-1.219M.612 77.65c.195-.38.477-.657.55-1.217-.138-.171-.393-.17-.661-.144.206.352-.217.98.111 1.36M1.065 85.226c-.079.313-.347.65-.412.97.017.125.032.25.047.374.032.057.075.113.133.167-.056-.587.51-1.11.232-1.511M.914 88.189c.056.357.13.707.19 1.062.024.02.044.046.07.065.287-.489.043-.947-.26-1.127M1.06 83.562c.164.071.277.221.447.304.069-.466-.128-.55-.124-.912-.288-.05-.36.21-.323.608M1.704 60.979c-.024-.011-.045-.008-.067-.014-.04.19-.084.382-.122.573.123-.108.22-.248.189-.56M27.378 25.784c-.065.312-.236.493-.336.754.407.229.611-.555.336-.754M28.627 31.996c.59-.503.586.442 1.024.526.367-.48-.388-.877.21-1.48-.272-.193-.495-.115-.681.07l-.021.023c-.058.062-.112.132-.162.208-.008-.007-.006-.016-.015-.023-.067.07-.134.143-.202.213.025.007.052.025.077.024-.084.154-.161.313-.23.44M27.28 38.107c.024-.031.048-.063.073-.093-.025.015-.048.02-.073.039v.054zM27.813 52.238l-.037-.11c-.002.026-.006.051-.007.078.016.01.027.023.044.032M26.98 36.613c-.127.21-.324.527-.109.817.334.193.265-.818.11-.817M37.97 128.652l.003-.753c-.22-.25-.93-.256-.882.306.335.078.354.623.878.447M2.827 80.832c.426-.29.551-.975.66-1.676-.545.066-.817 1.142-.66 1.676M5.27 88.252c-.277-.11-.467.648-.223.757.048-.29.318-.273.223-.757M22.129 120.402c-.71.779-1.394 1.59-1.768 2.823.461-.322.672-.993 1.323-1.058.046-.666.409-1.03.798-1.35-.116-.139-.237-.275-.353-.415M27.995 117.761c.111-.458.268-.855.67-.912.255.046.204.527.55.454l.002-.008c-.214-.243-.427-.49-.637-.736-.134.071-.252.138-.475.138.153.53-.497.716-.11 1.064M25.133 132.754c.593-.086.58-1.012 1.43-.74-.087-.825.76-1.156.228-1.674-.111.116-.176.297-.25.471-.101-.281-.272-.471-.313-.833-.592.127-.988-.208-.719-.81-.251-.053-.395-.207-.723-.136.117.607-.149.716-.41.818.027 1.041.333 1.731.717 2.295-.094.012-.195.014-.294.012.034.144.036.245.025.33.101.09.207.176.31.267M28.666 118.977c-.81.146-.51 1.623.108 1.81-.41-.684.124-1.142-.108-1.81M33.752 121.938c-.102-.093-.198-.192-.3-.287-.076.21.094.608.192.644.054-.099.09-.218.108-.357M32.973 121.196c-.32-.304-.644-.602-.957-.913-.156.473-.306.952-.698 1.106-.128.837.354.83.227 1.672.412.157.749.637 1.216.295-.08-.5-.234-.886-.771-.751-.272-.513.177-1.046-.115-1.52.489-.263.708-.04 1.098.11M22.517 129.58c-.274-.443-.564-.385-.866-.158.14.143.275.295.417.438.144-.159.292-.27.449-.28M23.464 122.166c-.093-.036-.225-.005-.222-.16-.399-.028-.552.725-.338 1.067.442.047.594-.293.56-.907M23.35 126.853c.096-.175.146-.404.113-.75-.283-.036-.348.235-.444.453.163.04.182.254.332.297M40.763 22.455c.053-.412-.2-.422-.474-.408l-.334.214c.082.316.517.16.808.194M31.681 15.924c-.149.193-.1.66-.1 1.063.616.257.559-1.125.1-1.063M27.287 34.033c.276.254.789.399 1.218.693l-.007-.002c-.263.189-.36.599-.649.743.08-.096.125-.217.057-.481-.274.016-.373.29-.376.521-.045-.006-.093-.014-.143-.028.009.473-.298.502-.225 1.063.446.288 1.016-.261 1.457-.054.595-.697 1.206-1.38 1.831-2.049l-.132-.083c-.05-.277-.053-.64-.279-.696.063.603-.327-.077-.662.145.025.161.044.333.06.497-.194-.195-.272-.56-.484-.737.066-.025.134-.097.203-.208-.595.002-.734-1.267-1.224-.912v.301c.321.063.566.61.812.785-.285.165-.012.5-.322.629-.072-.266-.488-.076-.52-.394.003-.092-.004-.183-.011-.253.012-.009.025-.002.041-.013.06-.286-.018-.4-.123-.48-.03-.124-.076-.231-.119-.344l-.416.456c.018.258.036.54.013.901M30.26 24.107c.106-.02.168.017.218.07.185-.158.365-.32.55-.475-.001-.02.003-.033.001-.055-.924-.301-1.906-.512-2.331-1.503.088.383.169.69-.099.908-.93.066-1.826.91-1.446 2.268.603-.218.965-.224 1.22.455.286-.2.45-.347.66-.341.33-.303.676-.586 1.014-.882.072-.146.148-.284.213-.445M50.34 7.091c.128-.435.152-1.01.136-1.763-.249.088-.502.165-.75.254.257.437.486.892.614 1.509M41.497 23.946h-1.031c-.058.52-.34.742-.314 1.368.315-.047.293-.523.615-.552 0 .324.162.437.34.575.183-.124.372-.236.556-.357-.101-.282-.213-.553-.166-1.034M137.936 75.421c.141-.386-.282-.691-.001-.816l.3.005c-.055.719.029 1.237.524 1.222.066-.244.048-.566.203-.685.422.155.092.694 0 .956.142.179.448.128.724.134.006-1.644-1.192-1.688-1.45-2.995-.354-.014-.787.058-.824-.403.6.105.907-.173 1.247-.412.214-.692-.233-.611-.21-1.347-.33-.159-.24-.022-.617 0-.322.498-.573 1.172-.733 1.872.042.752.063 1.51.078 2.27.22-.254.533-.129.759.2M101.79 142.025c-.007.6-.36.737-.45 1.213.167.531 1.064.06.78 1.212.376.07.62-.057.886-.152.368.671.778 1.287 1.022 2.137.202-.082.408-.155.609-.24.01-.028.02-.057.034-.08-.586-1.015-.547-1.966-.672-3.635-.579.091-.51-.72-.887-.917.411-.408.522-.963.218-1.667.364-.604 1.004.088 1.554-.3-.037-.193-.026-.358-.005-.512-1.021.482-2.054.938-3.103 1.37-.26.319-.47.709-.547 1.277.07.26.527-.016.56.294M99.875 147.253c-.192.081.008.689-.185.794.27-.091.54-.18.808-.274.016-.066.02-.146 0-.26-.184-.117-.262-.375-.623-.26M99.06 147.25c-.088.238-.184.659-.215 1.084.278-.09.55-.188.828-.282-.045-.488-.354-.615-.613-.802M96.077 147.318c.07-.198.125-.416.293-.476.115.08.206.166.28.253-.128.156-.33.214-.573.223m1.46 1.435c-.009-.05 0-.087-.024-.146.066.013.107.059.143.112.105-.032.212-.058.315-.09.087-.549.255-.99.263-1.654-.661-.589-1.34-1.104-2.061-.95.075.712-.605.87-.49 1.41-.276.577-.216 1.004.052 1.631.894.292.867-1.083.926-1.487.016.151.098.256.209.334-.063.397-.31.806-.562 1.19.41-.119.823-.226 1.23-.35M108.318 138.534c-.418.191-.513.799-1.226.601-.217-.106.074-.904-.328-.754-.776 1.225 1.69 2.079 1.554.153" transform="translate(0 -1)"/>
            <path fill="#367DE3" d="M105.773 145.656c.015.01.026.013.04.022.38-.167.755-.34 1.131-.511.1-.15.19-.3.268-.418.029.008.062.025.094.045-.03.082-.053.162-.067.239.31-.144.626-.274.933-.422-.107-.397-.39-.552-.402-1.077.13-.019.263-.04.223-.307-.478.115-.548.77-.779 1.213-.464.03-.928.06-.997-.446.654-.761.889-1.685 1.105-2.739-.195-.19-.286-.513-.665-.448.054 1.025-.106 2.153-.66 2.73l-.446.002c.13-.484-.172-.375-.224-.602.373-.566-.034-.573.003-1.376.214-.262.68-.172.663-.754-.204-.12-.406-.25-.665-.305-.227.927-1.506.255-1.665.915.624-.226 1.323.276 1.55 1.357-.34-.045-.529.362-.768.002.063.32-.133.998.11 1.062-.07-.596.61-.177.889-.302-.093.43-.441.517-.667.757.491.153.289 1.12.222 1.671l.075.048c.235-.1.463-.213.698-.316v-.04M91.368 137.194c-.015.374.24 1.369-.108 1.97.362-.265.581-.088.852.123l.029-.008c-.127-.869-.39-1.558-.773-2.085M89.825 139.167c-.04.226-.078.468-.082.687.16-.035.32-.073.478-.11-.033-.299-.147-.553-.396-.577M89.374 137.354c-.106.806.252.979.45 1.358.073-.476.29-.202.55-.144-.063-.609-.062-.463 0-1.067-.187-.255-.656-.122-1-.147M95.135 142.956l-.014-.152c-.12.036-.241.069-.362.103.03.077.08.14.16.19.021-.116.09-.172.216-.141M93.043 148.563l-.004.746c.436.149.436-.89.004-.746M93.218 138.973l.12-.034c-.023-.032-.048-.065-.08-.086-.007.041-.026.08-.04.12M117.583 133.623c.252-.072.533-.118.509-.54-.23-.3-.566.037-.509.54M117.837 135.634c.047-.29.242-.38.223-.754-.346-.045-.59.696-.223.754M116.352 132.275c.713.157.283 1.393.205 2.03.451.338.524-.427.717-.823l-.01-.003c.05-.135.085-.286.131-.426-.096.025-.23.112-.313.24-.201-.346-.165-.99-.399-1.282-.108.081-.222.155-.33.236 0 .01-.003.016 0 .028M118.173 134.12h.441c-.058-.386-.216-.625-.327-.908 0 .358-.198.44-.114.909M118.71 122.454c-.216 0-.129-.418-.435-.317-.247.121-.37.722-.224.915.403.053.565-.228.66-.598M118.501 130.94c-.15.194-.189.898.11.906-.06-.267.138-.893-.11-.906M118.597 138.505c.013-.141.019-.294.02-.456-.264-.155-.299.04-.559-.294.06.32.14.621.124 1.044.14-.095.275-.197.415-.294M109.321 143.83c-.226.024-.366.164-.42.412.144-.072.286-.149.43-.221-.018-.044-.026-.1-.01-.19M109.764 143.689c.064-.075.079-.12.08-.17.034.071.087.117.132.17.188-.096.377-.19.563-.288-.072-.228-.173-.446-.312-.553.249-.005.405.138.621.396.04-.021.081-.04.12-.062-.074-.356-.285-.53-.18-1.116-.227-.177-.436-.192-.634-.135.119-.331.137-.652-.066-1.136-.276.333-.751.388-.885.922.283.015.375.278.543.462-.392.325-.766.825-1.217.973.372.233.769.433 1.235.537M111.971 141.551c.001.16.198.2.233 0-.204.02-.269-.144-.23-.446-.386-.029-.528.287-.778.446.223.548.012 1.07-.085 1.558.189-.102.38-.2.568-.302-.03-.457.04-.904.292-1.256M115.009 133.63c-.032.592.25.758.313 1.226.339.001.686-.003.614-.55-.328-.196-.464-.653-.927-.676M115.401 137.156c-.025.353.02.582.114.76.423.108.24-.985-.114-.76M114.842 137.76c-.33-.022-.484.542-.324.763.344.02.494-.539.324-.763M125.924 130.326c-.133.257-.019.87-.22 1.048-.49-.38-.256-1.147-.78-1.659-.153 1.059.185 2.716.974 3.016.01-.01.02-.019.032-.028.037-.698.382-2.098-.006-2.377M124.692 115.166c-.065.596.252.664.553.765-.054-.445-.232-.697-.553-.765M122.773 116.156c-.15.177-.303.35-.455.525.297.025.396-.221.455-.525M131.57 105.608c.336.236.614.54 1.138.539l-.003-.682c-.47.481-.844-.501-1.135.143M132.703 100.845c-.418-.078-.327.56-.11.676.093-.166.142-.364.11-.676M126.337 127.492c-.273.14-.25.917.099.949.336-.036.253-1.026-.099-.949M140.36 75.045c-.008-.287-.012-.575-.023-.861-.228-.257-.44-.565-.752-.8-.535.76.07 1.456.775 1.661M139.593 85.619c.082-.092.15-.204.202-.335.029-.209.053-.418.08-.627-.45-.12-.673.824-.282.962M134.244 101.521c-.019.159-.162.15-.31.135-.019.835.198 1.371.816 1.363.063-.142.129-.283.191-.425-.044-.412-.378-.827-.697-1.073M133.833 98.942c-.054-.47-.204-.824-.424-1.069-.079.21-.167.415-.246.623.155.239.299.488.67.446M129.796 126.06c-.473.21-.564-.883-.775-.145.189.183.614.82.775.145M133.446 121.81c-.283.03-.434.225-.437.62.234.133.59.137.771 0-.169-.135-.352-.24-.334-.62M133.114 103.56c.33.425.924.086 1.039-.542-.174-.283-.524-.32-.934-.274.067.418-.182.399-.105.816M88.248 148.896c-.12.156-.172.696-.016.88l.146-.002c.121-.244.133-.88-.13-.878M125.842 21.361c.13-.294.26-.515.402-.7-.098-.089-.202-.17-.3-.259-.152.168-.3.334-.433.503.208.022.08.507.331.456M15.349 95.653c-.157.038-.094.376-.11.614.415.32.496-.776.11-.614M36.75 127.743c-.078.32-.184.516-.306.625.11.083.217.168.328.25.048-.35.172-.51-.022-.875M35.088 126.228c-.447-.615-.53-.122-1.109-.302-.19-.278-.124-.927-.557-.898-.129.178-.23.393-.327.618.354.306.7.62 1.06.919.056-.158.13-.291.272-.335.076.199.134.44.18.695.087.07.179.138.266.209.096-.261.302-.377.215-.906M33.331 136.997c-.172.045-.808.202-.442.452.707-.536 1.185-1.4 2.323-1.373.35 1.17-.175 1.487-.89 1.828-.298-.045-.197-.644-.437-.756-.213.268.085.377-.006.91.276-.026.457.072.555.302-.018.22.039.553-.109.6-.494.076-.502-.515-.773-.759-.092.18-.352.536-.35.87l.225.15c.054-.066.126-.11.232-.104.083.11.078.195.056.29.137.09.279.176.416.266.066-.182.13-.371.306-.41.245.318.6-.108.761.004.253-.484.205-1.351.895-1.215.208.316.183.965.44 1.21.385-.55.324-1.685.89-1.969.082-.773-.305-.901-.327-1.516.192-.137.274-.419.664-.297.065.503.027 1.156.55 1.06-.008-.614.135-1.115.356-1.56-1.568-.992-3.1-2.033-4.58-3.143-.145.051-.29.06-.436.004.1.428-.153.394-.101.766.38.224.83.357 1.1.75-1.02.61-1.677.17-2.54.613-.03-.311-.229-.4-.343-.607-.581-.044-.545.458-1.111.151.395.538.733 1.131.896 1.978.445-.068.439-.725 1-.617.33.627-.397 1.121-.785.758-.121.842-.496 1.598-1.213 1.214-.036.073-.064.172-.084.28.244.181.498.35.744.528.37-1.043 1.658-1.37 2.118-.658" transform="translate(0 -1)"/>
            <path fill="#367DE3" d="M35.196 139.268c.008-.002.008-.002.02-.002 0 0-.012-.007-.018 0l-.002.002zM3.273 91.14c.598-.953.641-2.417.11-3.183-.632.452-.862 1.44-1.326 2.113.476.265.746.806 1.216 1.07M4.836 90.682c-.222-.278-.686-.052-.67.455.336-.003.726.08.67-.455M29.892 134.578c.244-.069.39-.264.451-.604-.295-.45-.682.343-.451.604M31.1 122.299c-.384-.331-.223-1.417-.89-1.357.109.87-.235 1.157-.393 1.686.144.142.294.276.438.417.34-.03.693-.422.844-.746M29.103 118.675c.29.148.376.588.672.752.174-.542.585.143.655-.613-.6.58-1.047-.82-1.327-.14M29.22 129.273c.653.22.502-1.028.113-1.059-.096.365-.069.402-.112 1.06M28.563 133.974c-.093-.76.113-1.037-.446-1.211-.29.502.035 1.19.446 1.21M32.886 132.296c.297-.114.286.21.543.154.017-.38.024-.737-.223-.756-.022.306-.29.292-.32.602M31.999 132.61c.008-.377-.058-.636-.238-.768-.06.375-.207.78.238.769M28.45 129.13c-.988.331-.32 1.653.33 1.815.327-.674-.13-1.392-.33-1.815M28.001 126.847c-.007-.072-.022-.141-.038-.208-.252-.239-.506-.476-.753-.718-.033.006-.06.015-.097.02-.054.759.67 1.03.888.906M16.025 100.357c-.029.438.02.767.216.903.251-.232.38-1.065-.216-.903M87.828 145.23c-.295.14-.434.137-.72-.002-.009.262-.286.176-.21.537.387.031.39.58.832.55.184-.754.78.073 1.026.133.462-.11.547-.718.723-1.22.31-.104.298.23.62.127.04-.63-.096-.987-.336-1.185-.748.157-1.504.29-2.261.423.159.145.351.247.326.637M73.299 140.905c-.185-.544-.71.09-1.229-.269-.074.41.062.542.16.723.057.003.116.002.173.004.27-.19.575-.344.896-.458M68.973 147.432c.16-.293.454-.404.418-.95-.154-.397-.482.293-.616-.135l-.003-1.022c-.063-.006-.126-.009-.187-.014-.064.044-.121.098-.22.088.163.737.361 1.422.608 2.033M68.88 138.604c.364-.047.306-.355.24-.68-.082-.007-.163-.02-.245-.03-.145.155-.118.54.004.71M63.31 2.983c.281-.08.648-.61.692-1.05-.243.037-.482.09-.724.129-.084.318-.106.666.032.92M64.354 5.709c-.342-.063-.352.331-.322.756.323.015.561-.444.322-.756M68.567 147.709c-.078-.516-.37-.785-.827-.821-.118.164-.118.485-.097.82.337.16.747.357.924 0M80.62 14.914c.406.106 1.04.331 1.037-.412-.104-.182-.281-.269-.31-.534-.323-.104-.3.233-.621.132 0 .315-.176.398-.107.814M86.609 137.811c.023-.2.136-.412.268-.624-.274.05-.55.1-.825.147v.322c.314-.12.29.22.557.155M76.402 148.917c.017.3-.497.6-.213.815.035-.242.546-.539.213-.815M78.72 14.92c.213-.192.566-.201.671-.552-.415.014-.766.234-1.097.54.14.006.284.005.426.013M43.626 130.613c.172-.176.399-.961-.003-1.062-.103.126-.237.972.003 1.062M44.08 143.186c-.341-.11-.332.262-.675.156-.049.345-.214.771 0 1.062.56.063.612-.595.676-1.218M38.426 141.837c.1-.895-.481-.858-.553-1.518.157-.847.575-1.338 1.104-1.661-.021.273.126.332.105.596-.06.101-.44.46-.103.609.352-.673 1.024-2.38 0-2.876-.263.157.047 1.074-.222 1.206-.416.171-.31-.367-.665-.302-.218.32-.657.323-.668.915.295-.041.472.059.449.455-.115.754-.39 1.282-.667 1.82.516.009.576.63.838.988l.064.037c.05-.168.142-.277.318-.269M40.97 140.015c-.077 1 .633.104.56 1.209.254.045.424-.027.552-.154.197-.824-.702-.626-.328-1.21-.326.02-.481.56-.785.155M42.305 132.307c.04.023.079.044.118.068-.012-.024-.025-.047-.016-.099-.038.005-.07.02-.102.03M39.866 141.376c-.224.145-.238.584-.221 1.07.352.129.696-1.033.22-1.07M40.178 129.706c.08.965.538 1.403 1.228 1.526.226-.503.174-1.688-.445-1.523-.257.048-.066.724-.435.605.091-.487-.174-.477-.348-.608M52.607 136.96c.054-.32.316-.488.11-.756-.423-.15-.447.743-.11.757M55.55 142.709l-.064-.018v.018h.064zM123.86 134.152c.014.211-.044.331-.11.439.193-.16.379-.33.571-.494-.142-.029-.16.052-.462.055M121.906 133.885c-.359-.078-.591.707-.2.818.058-.289.251-.394.2-.818M119.749 17.287c.348.07.428-.22.663-.31.02-.622-.174-.951-.33-1.332-.295-.218-.598-.427-.897-.64.01 1.01.603 1.2.564 2.282M118.2 14.706c.228.137.478.172.718.11-.232-.164-.46-.332-.693-.493-.029.102-.048.217-.026.383M104.92 14.025c.1.047.2.088.3.136.257-.068.507-.149.454-.636-.239-.24-.663.022-.755.5M108.309 15.732c.122.066.243.136.364.203.072-.153.125-.276-.005-.45-.136.016-.258.118-.36.247M102.645 12.995c.022-.068.043-.136.043-.233-.173-.022-.305.012-.42.069l.377.164M146.478 64.397c.463.02.248-.836.82-.688.016-.828-.252-1.295-.621-1.622.175.867-.433 1.494-.2 2.31M149.532 64.206l-.312.002c-.1-.107-.195-.222-.275-.355.01-.365.427-.197.507-.468.094.183.15.415.08.821m-.336-1.214c.037.06.078.114.119.17-.267-.033-.375-.278-.575-.395-.222.345-.424.705-.615 1.091-.012-.418-.673-.323-.826-.149-.132.813.481.638.516 1.233.343-.017.548-.28.715.127-.223.6-.552 1.75.11 2.041.006-.073.015-.154.105-.127-.003-.136.076-.167.104-.28-.326.066-.33-.29-.32-.682.272-.067.373-.177.52.148.018.247-.113.287-.103.534.465-.095.96-.128 1.378-.022-.065-.497-.116-1-.192-1.494l-.044.006c-.107-.378-.272-.54-.439-.99.092-.076.18-.163.271-.25-.086-.513-.177-1.024-.274-1.534-.199.032-.381.196-.45.573M139.201 104.232c.227-.033.337-.95.121-1.188l-.015.039c.048.48-.485.758-.106 1.149M137.862 58.595l-.156-.552c-.067.13-.14.253-.197.398.159.018.266.078.353.154M138.288 60.094c-.05-.19-.109-.376-.16-.564.002.322-.008.635.102.806-.01-.12.017-.19.058-.242M138.126 65.777c.137-.323.383-.508.32-1.097-.398-.035-.77.86-.32 1.097M138.134 70.668c.018-.164.116-.088.21-.002.08-.291.247-.764.102-.952-.192.02-.35.092-.414.272.261-.068-.243.626.102.682M138.668 88.06c-.142-.585-.148-1.357-.626-1.492-.166.561.037.769-.1 1.358.229.09.518.403.726.134M138.132 68.63c-.304.572.21 1.028.625 1.088-.168-.413-.427-.723-.625-1.087M138.931 62.83c-.043-.03-.09-.058-.177-.047-.142.405-.098.668.2.811.024-.106.052-.236.07-.363-.027-.135-.064-.267-.093-.4M138.96 73.786c.009-.413-.094-.686-.302-.819-.01.423-.067.902.302.82M137.519 69.986c-.076-.263-.593-.43-.621.001.123.027.113.21.109.417.293.019.564.003.512-.418M146.193 100.96c.161.144.483.073.674.175l.18-.532c-.29 0-.596-.083-.856-.326-.198.258.061.246.002.684M143.923 100.826c.167 1.04.233 1.355-.2 2.034.12.296.395.392.406.82-.068.375-.252.73-.367 1.097-.137.198-.241.39-.091.618.005.105.019.21.054.32.407.044.568-.243 1.026-.127.087-.303.265-.473.209-.963-.134-.188-.504-.054-.518-.405.174-.728.374-1.404.83-1.758.148.374.561.398.989.403.149-.397.286-.798.427-1.197-.17.072-.359.119-.496.235-.25-.281.143-.541-.106-.811-.713-.091-.194.675-.718.686-.223-.12-.36-.338-.31-.816-.498-.041-.484-.163-1.135-.136M106.46 23.198c.016-.582.216-.901.547-1.042.066.27.07.628.229.759-.062-.497.032-.763.22-.91-.158-.002-.191-.16-.214-.345.151-.013.253-.064.267-.27-.084-.114-.246-.138-.366-.066-.022-.048-.064-.08-.139-.079.026.65-.696.213-.981.768.103.367.088.671.025.949.139.078.276.157.411.236M106.957 19.783c-.056-.03-.11-.064-.166-.095l-.001.189c.059-.02.112-.058.167-.094M110.58 136.498c.243.077-.012.826.206.946.319-.082.372-.515.411-.95-.069-.114-.573-.308-.617.004M111.195 141.248c.15-.219.232-1.2-.111-1.21-.146.223-.22 1.2.111 1.21M117.973 16.223c-.339.397-.78-.044-1.214.005.107 1.376 1.303 1.237 1.77 2.12-.107.605-.136 1.327-.66 1.362.026.52.234.791.66.754.462-.18.344-1.154 1.11-.908-.024-1.014-.976-1.274-.555-2.421-.508-.113-.736-.604-1.11-.912M106.448 10.945c-.053.777.154 1.201.677 1.205-.1-.62.16-.77.106-1.36-.293-.004-.632-.06-.783.155M105.546 140.353c-.057-.55.486-.675.222-1.06-.296.1-.513.296-.662.603.212.07.084.6.44.457M116.203 15.027c.27.31.233.205.658.141.043-.356-.011-.58-.104-.76-.273.08-.568.13-.554.619M113.543 13.653v.46c.526-.26.715.041.996.451.225-.29.26-.61.107-1.057-.481-.111-.625.256-1.103.146M107.126 13.971c.415-.126.358-.911.547-1.361-.107-1.232-.824.457-.547 1.361M112.198 135.489c-.288.025-.435.215-.449.61.331.309.692-.187.45-.61M112.635 125.89c-.037.017-.088.019-.141.016-.159.119-.322.231-.482.35.22.222.604.124.623-.365M113.767 15.924c.43.405.58-.653.775-1.06-.462.08-.614.586-.775 1.06M112.245 18.053c.12.076.241.155.362.231.05-.208.163-.36.388-.386.095.3.206.583.331.848.298.197.603.385.9.586.098-.182.181-.388.208-.677-.277-.024-.343.24-.552.307-.128-.333-.296-.627-.227-1.213-.359.034-.473-.232-.994-.302-.085.275-.246.446-.416.606M113.337 25.784c-.535-.113-.73.211-1.003.443-.187-.135-.223-.489-.441-.597-.132.464-.115.815-.02 1.108.457.333.906.677 1.354 1.024-.043-.615-.118-1.136.11-1.978M113.438 27.137l.004.617c.524.237.383-.782-.004-.617M110.672 25.484c-.04.102-.075.213-.11.32.099.07.196.141.295.21.026-.26.014-.484-.185-.53M111.659 10.636c-.204-.117-.411-.261-.672-.308-.128.448-.022.52.115.904.327 0 .418-.341.557-.596M113.21 17.3c.557-.648.25-2.483-.657-2.432.009.921.193 1.423-.002 1.97.288.063.335.456.658.462M110.33 10.33c-.603.342-.6 1.301-.22 1.977.653-.084.751-1.61.22-1.977M145.854 61.544c-.066.453.53.74.62.542-.283-.074-.26-.567-.62-.542M148.942 61.676c.076-.42-.103-.494-.099-.819-.421-.02-.395.972.1.82M145.338 59.51c.016-.433-.269-.468-.514-.54-.053.198-.149.344-.21.535.198.28.491.075.724.005M144.031 54.366c.303.392.607-.06.665-.461-.339.002-.726-.082-.665.46M138.372 41.348c.233.077.321.376.666.303.241-.655-.695-.916-.666-.303M139.366 38.312c.152-.423.353-.77.573-1.092-.11-.181-.231-.354-.343-.535-.218.5-.277 1.167-.23 1.627M135.964 88.919c-.041.198-.092.395-.135.593.012.009.02.024.032.031.087-.141.125-.396.103-.624M137.598 39.531c.577-.185 1.263-.194 1.44-.916-.424.074-.7-.062-.779-.457.153-.594.266-1.251.443-1.815-.414.381-1.196.29-1.436.92.205.719.635 1.146.885 1.816-.315-.03-.609-.028-.553.452M141.397 55.71c.01.002.019.003.027.006-.013-.015-.026-.031-.041-.046l.014.04M135.472 94.18c.15 0 .226.07.315.145.13-.239.276-.46.196-.964-.405-.054-.59.214-.51.819M135.317 97.266c.378.006.732-.464.436-.907-.47-.148-.47.356-.436.907M142.352 55.716c-.216.032-.641-.06-.9.155l.095.308c.177.14.357.282.49.487-.106.133-.155.333-.196.546.261.895.511 1.794.737 2.704.113-.02.224-.044.286-.13.079-.74-.164-1.061-.31-1.497.143-.045.2-.194.41-.142-.018-.637-.475-.721-.308-1.625-.453.192-.282-.45-.304-.806M139.767 50.009c.183-.747-.433-1.708-.716-.96.617.119.206.749.716.96M139.254 48.248c-.115-.034-.16-.155-.205-.284-.252-.008-.416.13-.501.324.08.179.163.356.242.535.222-.104.396-.268.464-.575M147.087 56.928c-.116.159-.114.48-.107.816.233.106.408.28.728.257.066-.711-.603-.467-.621-1.073M147.916 62.361c.27-.18.126-.912.305-1.229-.905-.775-1.122.832-.305 1.23M128.797 124.856c-.282-.178-.42-.526-.887-.454-.088.18-.144.408-.108.762.27.172.651.216.994.297l.001-.605zM127.674 129.939c.416-.537.56-1.448 1.133-1.774-.285-.377-.54-.774-.944-1 .071-.574.118-1.292-.286-1.402-.379.45-.304 1.056-.075 1.532-.474.723-.288 1.939.172 2.644M126.681 114.1c.406.015.31.691.779.604-.16-.869.084-.567.224-1.216-.386-.175-.762.444-1.003.612M128.616 24.39c-.263.355.017.747-.002 1.211.4.108.282-1.273.002-1.212M125.733 21.663c-.132.402-.077.581.113 1.07.36.036.53-.188.548-.609-.088-.33-.274-.541-.66-.46M125.635 126.274c-.04.104-.075.207-.05.399.207-.033.243.176.446.155.141-.19.141-.559-.001-.76h-.213c.064-.28-.046-.746-.312-.613.055.252-.118.825.13.819M126.122 128.989c-.41.04-.73.203-.713.817.385-.082.462-.574.713-.817M134.712 30.435l.33.003c0-.107-.01-.2-.023-.29-.133-.171-.265-.34-.4-.51-.05.277-.02.658.093.797M134.312 54.628c-.362-.126-.558-.085-.82.005l-.002.802.003.012c.254-.295.736-.299.819-.82M133.826 36.644c-.572.119-.615.952-1.051 1.26.075.112.144.229.22.341.23-.67 1.22-.632.831-1.601M128.068 26.812c.056.372.095.787.438.759.044-.519-.038-.865-.438-.759M133.69 50.563c.355 0 .31-.508.31-.952-.349-.016-.304.498-.31.952M133.166 34.992c.02-.443.012-.835-.338-.762-.187.263-.084.895.338.762M133.829 35.291c.394-.168.655-.515.773-1.066-.59-.614-.543.71-.773 1.066M129.289 31.967c.527.234.464 1.28.885 1.659.534-.365.17-1.061-.003-1.66.38-.69.921-1.155 1-2.28-.518.063-.286 1.132-.893 1.061-.541-.267-.374-1.5-1.22-1.353-.244.588.496 1.135.668 1.66-.362.006-.421.436-.437.913M130.807 46.22c.116.116.269.174.517.133.026-.444-.12-.659-.413-.667-.034.172-.15.25-.104.533M134.65 99.839c.335-.72-.381-1.137-.663-1.508-.021.625.367.452.112 1.048.196.152.322.37.551.46M121.748 23.649c.38.689 1.235 1.32.886 2.417.717.669 1.422 1.35 2.11 2.05.19.07.406.104.772.072.203-1.138.874-1.985.438-3.188-.591.719-.32 2.188-1.54 2.274-.092-1.326.006-1.638-.563-2.57 0-.803.384-1.101.774-1.362.146.253.23.59.556.595.291-.26.225-1.003.222-1.662-.485-.005-1.025-.087-1.22.302-.319-.532-.43-1.663-.113-2.269-.55-.003-.501-1.113-.328-1.67-.074-.102-.144-.214-.212-.328-.29-.238-.592-.461-.884-.696-.292.4-.672.687-.791 1.336.724 1.181 2.73 3.81.667 4.845-.312-.022-.466-.568-.774-.146M124.693 34.244l-.06-.068c0 .022.002.048 0 .068h.06z" transform="translate(0 -1)"/>
            <path fill="#367DE3" d="M122.748 21.663c-.139-.155-.708-.052-.777.316.168.355.743.319.777-.316M121.744 24.249c-.39.196-.402-.011-.772.156 0 .065.003.112.007.165.218.193.444.378.66.573.002-.34.19-.443.105-.894M147.616 76.76c-.426.007-.603-.209-.62-.404-.267.569-.644.045-1.029-.006.373 2.18 2.35 2.194 3.402.96-1.005.364-.304-1.513-1.14-1.363.104-.822 1.15-.07 1.556 0 .17-.221.077-.8.095-1.226-.388-.103-.22.52-.513.545-.738-.962-1.794.199-2.782.137.192 1.074 1.315-.413 1.24 1.222-.103 0-.129.115-.21.135M144.525 80.03c.002 0 .003.003.004.003.242-.58.21-.956.027-1.21-.013.401-.01.807-.031 1.208M142.185 96.503c-.025-.376-.1-.679-.287-.825-.069.242-.134.486-.207.727.162.164.342.269.494.098M146.174 77.985c-.021.157-.113.215-.205.272-.023.101-.015.16 0 .214-.103.304.106.496.19.827-.142.277-.152.734-.19 1.134.254.126.45.324.821.275-.134-.226-.177-.434-.204-.649.06.05.13.076.236.067.18-.507-.004-.973-.27-1.327.078-.14.103-.34.133-.538-.185-.065-.256-.296-.511-.275M141.868 106.673c.338.08.484-.094.726-.136-.015-.758-.334-1.111-.831-1.22-.183.465-.05.968.105 1.356M141.672 110.072c.056-.485-.542-.78-.625-.266.273.03.393.564.625.266M145.15 79.748c.09.52.371.775.412 1.363.74-.267 0-1.335-.413-1.363M146.48 70.653c.215.034.034.592.2.676l.398.003c-.062.37-.225.58-.199 1.062 1.254.774 3.122-.541 2.438-2.427-.07.003-.126.024-.187.038.01-.013.015-.03.025-.04-.268.02-.518.082-.599.36-.38.359-.666.843-1.304.845.127-.3.19-.686.155-1.201-.538.142-.572.583-.927.684M145.547 59.64v.952c.234.041.394-.023.511-.135.07-.57-.032-.95-.511-.817M145.04 77.173c.065-.52-.223-.701-.428-.568 0 .229-.014.453-.018.68.159.052.357.018.445-.112M145.253 78.673c.369-.091.509-.505.713-.82-.329-.124-.576-.068-.924-.408-.358.34-.201 1.135.211 1.228M148.537 72.95c-.079.396.147.354.11.688.392.1.214-.885-.11-.689M147.76 98.398c.041-.134.076-.27.116-.405-.11.082-.143.242-.115.405M144.525 72.425c.006-.199-.026-.346-.08-.464.034.534.07 1.067.093 1.604.118-.04.22-.132.294-.336.327.348.496.845.515 1.23.812-.583-.34-1.592.21-2.44-.571-.167-.603.378-1.032.406M140.638 112.651c.007-.497-.047-.934-.411-.947-.465.243-.462.989 0 1.229.069-.192.212-.264.41-.282M143.47 64.1c.06.327.12.652.174.98.489.155.199 1.325.878 1.23.056-.249-.129-.796.098-.814.215-.254.533.197.826.268-.278-.439-.24-.76-.308-1.23-.616-.164-.807.211-1.038.54-.071-.595-.317-.843-.63-.973M145.141 67.523c-.237-.368-.458-.748-.726-1.088-.053.432-.246.529-.48.547.05.344.09.69.133 1.037.09.095.17.207.247.325.332-.19.699-.35.826-.821M145.576 104.604c.055-.136.108-.273.161-.41-.092.087-.148.222-.161.41M143.207 101.366c-.125.397-.056.625.31.683.017-.197.169-.23.207-.411-.198-.047-.261-.285-.517-.272M143.207 100.414c-.209.089-.68-.16-.723.14.372-.066.655.665.723-.14M143.512 97.962c-.193.185-.456.619-.206.96.593.116.602-.77.206-.96M143.42 108.03c.291-.106.071-1.323.506-.823-.014-.785-.369-1.124-.83-1.347-.036.624-.109.532-.401.948.27.364.138 1.267.725 1.222M149.324 87.397l-.002.608c.415.058.466-.383.56-.77-.315-.122-.291.215-.558.162M147.32 95.384c.06-.197-.125-.696.105-.68.327-.117.14.448.414.41.137-.327.214-.741.212-1.26.093.068.21.107.397.047.033-.53.305-.358.104-.898-.525-.164-.518.38-.775.603.007.005.014.014.022.02-.32.323-.346 1.039-.887 1.08-.088.522.213.527.408.678M149.101 89.668c-.432-.048-.228.792-.446 1.069.514.13.707-.648.446-1.069M148.108 86.632l-.555.007c-.086.423.155.39.107.762.413.107.49-.248.448-.77M149.102 91.479c-.328.382-.876.77-.445 1.369.158-.172.398-.23.617-.316.05-.231.112-.456.16-.689-.084-.16-.107-.4-.332-.364M144.867 106.341c-.098.144-.178.316-.23.509.075-.171.157-.338.23-.509M146.215 68.75c-.585-.054-.286.525-.452.762.402.1.439-.306.452-.762M146 83.16c.224.092.073.7.332.753.018-.258.462.153.78 0 .06-.5-.079-.704-.106-1.066-.495.193-.912-.2-1.005.313M146.57 91.185c.286.39.618-.043.545-.61-.267.082-.57.136-.545.61M147.232 92.545c.207.075.187.434.544.309.08-.473-.112-.56-.106-.921-.285.028-.432.227-.438.612M62.884 148.051c-.277.308-.61.817-1.14.404-.188.565-.073 1.423.316 1.629.504-.603 1.554-.906.824-2.033M61.307 150.678c-.063-.104-.124-.206-.178-.323-.05.085-.077.179-.095.274.09.018.182.031.273.05" transform="translate(0 -1)"/>
            <g transform="translate(0 -1) translate(74.345 150.968)">
                <mask id="prefix__d" fill="#fff">
                    <use xlink:href="#prefix__c"/>
                </mask>
                <path fill="#367DE3" d="M.794.999c-.021.013-.034.036-.054.053.12 0 .236.008.355.01C1.034.986.955.936.794.998" mask="url(#prefix__d)"/>
            </g>
            <g transform="translate(0 -1) translate(75.407 150.968)">
                <mask id="prefix__f" fill="#fff">
                    <use xlink:href="#prefix__e"/>
                </mask>
                <path fill="#367DE3" d="M1.508 1.027C1.309.859 1.102.705.87.584c-.202.04-.24.28-.32.466.32-.001.638-.018.958-.023" mask="url(#prefix__f)"/>
            </g>
            <g transform="translate(0 -1) translate(77.531 150.968)">
                <mask id="prefix__h" fill="#fff">
                    <use xlink:href="#prefix__g"/>
                </mask>
                <path fill="#367DE3" d="M.392.991v.01C.546.996.699.995.852.989.701.984.548.985.391.991" mask="url(#prefix__h)"/>
            </g>
            <path fill="#367DE3" d="M73.387 151.426c.374-.086.4.297.717.273.023-.11.001-.273.108-.272-.195-.422-.49-.978-.926-.684-.155-.8-.86-.854-1.441-1.078-.104 1.043.161 1.829.766 2.292.2.008.4.009.6.015.03-.185-.029-.352.176-.546M90.172 147.459c-.014.387-.009.737.306.671-.095-.239.01-.723-.306-.671M93.984 146.91c-.143.17-.142.633.001.812.375.114.236-.891 0-.813M91.617 150.03l-.41.002c-.024.17.028.246.07.334.115-.024.23-.053.345-.079.002-.082 0-.169-.005-.257" transform="translate(0 -1)"/>
        </g>
        <text fill="#3058E0" font-family="Roboto-Bold, Roboto" font-size="30" font-weight="bold" opacity=".8" transform="translate(0 -1)">
            <tspan x="32.209" y="95.503">Clear !</tspan>
        </text>
    </g>
</svg>
