<svg xmlns="http://www.w3.org/2000/svg" xmlns:xlink="http://www.w3.org/1999/xlink" width="30" height="30" viewBox="0 0 30 30">
    <defs>
        <path id="ze7s7kv35a" d="M0.104 0.388L13.745 0.388 13.745 11.369 0.104 11.369z"/>
    </defs>
    <g fill="none" fill-rule="evenodd">
        <g>
            <g>
                <g>
                    <g>
                        <path d="M0 0H30V30H0z" transform="translate(-7190 -328) translate(6256 149) translate(934 179)"/>
                    </g>
                    <g>
                        <g transform="translate(-7190 -328) translate(6256 149) translate(934 179) translate(8 7) translate(0 .612)">
                            <mask id="sgj52utarb" fill="#fff">
                                <use xlink:href="#ze7s7kv35a"/>
                            </mask>
                            <path fill="#FFF" d="M13.745 10.287c0 .284-.175.55-.442.646C9.467 12.33 7.128 9.921 3.511 9.92c-.966 0-1.8.336-2.397.675C.666 10.85.111 10.515.107 10 .093 7.761.13 3.29.141 2.071c.002-.208.093-.4.257-.528C.89 1.156 2.048.387 3.511.387c3.477.001 5.772 2.227 9.351 1.16.44-.132.883.191.883.65v8.09z" mask="url(#sgj52utarb)"/>
                        </g>
                        <path fill="#FFF" d="M.75 2.835L.75 14.862M.75 15.612c-.414 0-.75-.336-.75-.75V2.835c0-.414.336-.75.75-.75s.75.336.75.75v12.027c0 .414-.336.75-.75.75" transform="translate(-7190 -328) translate(6256 149) translate(934 179) translate(8 7)"/>
                    </g>
                </g>
            </g>
        </g>
    </g>
</svg>
