<svg xmlns="http://www.w3.org/2000/svg" width="25" height="25" viewBox="0 0 25 25">
    <g fill="none" fill-rule="evenodd">
        <g>
            <g>
                <g>
                    <path d="M0 0H24.038V25H0z" transform="translate(-231 -329) translate(231 329) translate(.48)"/>
                    <path fill="#FFF" fill-rule="nonzero" d="M16.346 0c1.593 0 2.885 1.343 2.885 3v19c0 1.657-1.292 3-2.885 3H7.692c-1.593 0-2.884-1.343-2.884-3V3c0-1.657 1.291-3 2.884-3h8.654zm0 2H7.692c-.493 0-.9.386-.955.883L6.731 3v19c0 .513.371.936.85.993l.111.007h8.654c.493 0 .9-.386.955-.883l.007-.117V3c0-.513-.372-.936-.85-.993L16.346 2zm-2.88 17.946c.553 0 1 .448 1 1 0 .553-.447 1-1 1h-2.894c-.553 0-1-.447-1-1 0-.552.447-1 1-1h2.895zM13.356 3.2c.276 0 .5.224.5.5s-.224.5-.5.5h-2.671c-.277 0-.5-.224-.5-.5s.223-.5.5-.5h2.67z" transform="translate(-231 -329) translate(231 329) translate(.48)"/>
                </g>
            </g>
        </g>
    </g>
</svg>
