<svg xmlns="http://www.w3.org/2000/svg" xmlns:xlink="http://www.w3.org/1999/xlink" width="32" height="32" viewBox="0 0 32 32">
    <defs>
        <path id="t5h6b7qqya" d="M0 0L18.2 0 18.2 17.414 0 17.414z"/>
    </defs>
    <g fill="none" fill-rule="evenodd">
        <g>
            <g>
                <g>
                    <g>
                        <path d="M0 0H32V32H0z" transform="translate(-6991 -364) translate(6256 149) translate(735 215)"/>
                    </g>
                    <g transform="translate(-6991 -364) translate(6256 149) translate(735 215) translate(6 7)">
                        <mask id="6npcdt8tvb" fill="#fff">
                            <use xlink:href="#t5h6b7qqya"/>
                        </mask>
                        <path fill="#5F626A" d="M18.2 1.872c.01-.572-.26-1.106-.74-1.465-.447-.333-1.028-.47-1.59-.38L7.12 1.428c-.97.157-1.663.933-1.647 1.832v7.8c-.564-.392-1.247-.626-1.984-.626-1.924 0-3.489 1.566-3.489 3.49 0 1.924 1.565 3.49 3.49 3.49 1.876 0 3.4-1.494 3.475-3.353.001-.015.008-.029.008-.044v-.045c0-.017.005-.032.005-.048 0-.017-.005-.032-.005-.049V3.247c-.002-.154.166-.302.385-.337l8.75-1.403c.16-.024.333.012.455.102.088.067.14.152.137.25v8.708c-.565-.394-1.249-.629-1.989-.629-1.924 0-3.49 1.565-3.49 3.49 0 1.923 1.566 3.488 3.49 3.488 1.924 0 3.49-1.565 3.49-3.489 0-.04-.012-.077-.013-.117.002-.02.012-.039.012-.06V1.872z" mask="url(#6npcdt8tvb)"/>
                    </g>
                </g>
            </g>
        </g>
    </g>
</svg>
