<svg xmlns="http://www.w3.org/2000/svg" xmlns:xlink="http://www.w3.org/1999/xlink" width="76" height="76" viewBox="0 0 76 76">
    <defs>
        <filter id="i7tg3hh4pa" width="131.2%" height="131.2%" x="-15.6%" y="-12.5%" filterUnits="objectBoundingBox">
            <feMorphology in="SourceAlpha" operator="dilate" radius=".5" result="shadowSpreadOuter1"/>
            <feOffset dy="2" in="shadowSpreadOuter1" result="shadowOffsetOuter1"/>
            <feGaussianBlur in="shadowOffsetOuter1" result="shadowBlurOuter1" stdDeviation="2.5"/>
            <feComposite in="shadowBlurOuter1" in2="SourceAlpha" operator="out" result="shadowBlurOuter1"/>
            <feColorMatrix in="shadowBlurOuter1" values="0 0 0 0 0 0 0 0 0 0 0 0 0 0 0 0 0 0 0.1 0"/>
        </filter>
        <circle id="e3z6rlroyb" cx="32" cy="32" r="32"/>
    </defs>
    <g fill="none" fill-rule="evenodd">
        <g>
            <g>
                <g transform="translate(-629 -2798) translate(635 2802)">
                    <use fill="#000" filter="url(#i7tg3hh4pa)" xlink:href="#e3z6rlroyb"/>
                    <use fill="#FFF" fill-opacity=".9" xlink:href="#e3z6rlroyb"/>
                </g>
                <g>
                    <g>
                        <path d="M0 0H44V44H0z" transform="translate(-629 -2798) translate(635 2802) translate(10 10)"/>
                    </g>
                    <path fill="#000" d="M26.298 11.872l11.757 20.227c.543.934.226 2.13-.708 2.673-.298.174-.637.265-.983.265H12.85c-1.08 0-1.955-.875-1.955-1.956 0-.345.091-.684.265-.982l11.757-20.227c.542-.934 1.74-1.251 2.673-.708.294.17.538.414.708.708z" transform="translate(-629 -2798) translate(635 2802) translate(10 10) rotate(90 24.607 22)"/>
                </g>
            </g>
        </g>
    </g>
</svg>
