<svg xmlns="http://www.w3.org/2000/svg" width="20" height="20" viewBox="0 0 20 20">
    <g fill="none" fill-rule="evenodd">
        <g>
            <g>
                <path d="M0 0H20V20H0z" transform="translate(-171 -449) translate(171 449)"/>
                <g fill="#FFF" fill-rule="nonzero">
                    <g>
                        <path d="M2 7C.895 7 0 7.895 0 9s.895 2 2 2 2-.895 2-2-.895-2-2-2zM2 0C.895 0 0 .895 0 2s.895 2 2 2 2-.895 2-2-.895-2-2-2zM2 14c-1.105 0-2 .895-2 2s.895 2 2 2 2-.895 2-2-.895-2-2-2z" transform="translate(-171 -449) translate(171 449) translate(8 1)"/>
                    </g>
                </g>
            </g>
        </g>
    </g>
</svg>
