<svg xmlns="http://www.w3.org/2000/svg" width="33" height="33" viewBox="0 0 33 33">
    <g fill="none" fill-rule="evenodd">
        <g>
            <g>
                <g>
                    <path d="M0 0H33V33H0z" transform="translate(-102 -3035) translate(102 3035)"/>
                    <g>
                        <path fill="#FEBD03" stroke="#FFF" stroke-opacity=".2" stroke-width=".758" d="M16.26.379c2.931 0 4 .292 5.073.866 1.044.558 1.864 1.378 2.422 2.422.574 1.073.866 2.142.866 5.074h0v7.518c0 2.932-.292 4.001-.866 5.074-.558 1.044-1.378 1.864-2.422 2.422-1.073.574-2.142.866-5.074.866h0-7.518c-2.932 0-4.001-.292-5.074-.866-1.044-.558-1.864-1.378-2.422-2.422C.67 20.26.379 19.191.379 16.26h0V8.741c0-2.932.292-4.001.866-5.074.558-1.044 1.378-1.864 2.422-2.422C4.74.67 5.809.379 8.74.379h0z" transform="translate(-102 -3035) translate(102 3035) translate(4 4)"/>
                        <g>
                            <path fill="#FFF" d="M13.858 1.818c.608 0 .828.063 1.05.182.223.12.397.294.516.516.119.222.182.442.182 1.05v10.292c0 .608-.063.828-.182 1.05-.119.223-.293.397-.516.516-.222.119-.442.182-1.05.182H3.566c-.608 0-.828-.063-1.05-.182-.222-.119-.397-.293-.516-.516-.119-.222-.182-.442-.182-1.05V3.566c0-.608.063-.828.182-1.05.12-.222.294-.397.516-.516.222-.119.442-.182 1.05-.182h10.292zm-5.01 5.773H7.503v4.445c0 .937-.31 1.246-.9 1.246-.39 0-.736-.191-1-.7l-.927.682c.463.8 1.109 1.181 2.09 1.181 1.446 0 2.082-1.036 2.082-2.3V7.591zm3.358-.127c-1.354 0-2.327.845-2.327 1.945 0 .982.682 1.518 1.363 1.81l.9.381c.61.264 1.01.4 1.01.91 0 .472-.373.772-1.073.772-.591 0-1.227-.3-1.71-.746l-.772.928c.655.627 1.545.981 2.455.981 1.554 0 2.472-.936 2.472-2.036 0-.982-.518-1.49-1.354-1.827l-.882-.373c-.573-.218-1.055-.427-1.055-.882 0-.445.382-.709.973-.709.555 0 1 .2 1.427.555l.682-.846c-.545-.554-1.309-.863-2.109-.863z" transform="translate(-102 -3035) translate(102 3035) translate(4 4) translate(3.788 3.788)"/>
                            <path d="M0 0H17.424V17.424H0z" transform="translate(-102 -3035) translate(102 3035) translate(4 4) translate(3.788 3.788)"/>
                        </g>
                    </g>
                </g>
                <path stroke="#FFF" d="M12.845 3.5h7.31c3.217 0 4.377.353 5.55.98 1.214.65 2.166 1.601 2.814 2.814.628 1.174.981 2.334.981 5.551h0v7.31c0 3.217-.353 4.377-.98 5.55-.65 1.214-1.601 2.166-2.814 2.814-1.174.628-2.334.981-5.551.981h0-7.31c-3.217 0-4.377-.353-5.55-.98-1.214-.65-2.166-1.601-2.814-2.814-.628-1.174-.981-2.334-.981-5.551h0v-7.31c0-3.217.353-4.377.98-5.55.65-1.214 1.601-2.166 2.814-2.814 1.174-.628 2.334-.981 5.551-.981h0z" transform="translate(-102 -3035) translate(102 3035)"/>
            </g>
        </g>
    </g>
</svg>
