<svg xmlns="http://www.w3.org/2000/svg" width="40" height="40" viewBox="0 0 40 40">
    <g fill="none" fill-rule="evenodd">
        <g>
            <g>
                <path d="M0 0H40V40H0z" transform="translate(-310 -2867) translate(310 2867)"/>
                <g>
                    <path fill="#FF7D3A" stroke="#FFF" stroke-opacity=".2" stroke-width="1.143" d="M26.015.571c4.701 0 6.414.47 8.135 1.39 1.676.897 2.992 2.213 3.889 3.89.92 1.72 1.39 3.433 1.39 8.134h0v12.03c0 4.701-.47 6.414-1.39 8.135-.897 1.676-2.213 2.992-3.89 3.889-1.72.92-3.433 1.39-8.134 1.39h0-12.03c-4.701 0-6.414-.47-8.135-1.39-1.676-.897-2.992-2.213-3.889-3.89-.92-1.72-1.39-3.433-1.39-8.134h0v-12.03c0-4.701.47-6.414 1.39-8.135.897-1.676 2.213-2.992 3.89-3.889 1.72-.92 3.433-1.39 8.134-1.39h0z" transform="translate(-310 -2867) translate(310 2867)"/>
                    <g>
                        <path d="M0 0H27.879V27.879H0z" transform="translate(-310 -2867) translate(310 2867) translate(6.06 6.06)"/>
                        <g fill="#FFF" transform="translate(-310 -2867) translate(310 2867) translate(6.06 6.06) translate(2.91 5.212)">
                            <circle cx="3.758" cy="3.758" r="3.758"/>
                            <path d="M12.673 0h6.448c.993 0 1.353.103 1.716.297.362.194.647.48.841.842.194.363.298.723.298 1.715v1.807c0 .992-.104 1.352-.298 1.715s-.479.648-.841.842c-.363.194-.723.297-1.716.297h-6.448c-.993 0-1.353-.103-1.716-.297s-.647-.48-.841-.842c-.194-.363-.298-.723-.298-1.715V2.854c0-.992.104-1.352.298-1.715s.478-.648.841-.842C11.32.103 11.68 0 12.673 0z"/>
                            <path d="M2.854 9.818h6.45c.992 0 1.352.104 1.714.298.363.194.648.478.842.841.194.363.297.723.297 1.716v1.806c0 .992-.103 1.352-.297 1.715s-.479.648-.842.842c-.362.194-.722.297-1.715.297H2.854c-.992 0-1.352-.103-1.715-.297s-.648-.479-.842-.842C.103 15.831 0 15.471 0 14.48v-1.806c0-.993.103-1.353.297-1.716s.48-.647.842-.841c.363-.194.723-.298 1.715-.298z" transform="rotate(-180 6.079 13.576)"/>
                            <path d="M17.315 9.818h1.806c.993 0 1.353.104 1.716.298.362.194.647.478.841.841.194.363.298.723.298 1.716v1.806c0 .992-.104 1.352-.298 1.715s-.479.648-.841.842c-.363.194-.723.297-1.716.297h-1.806c-.993 0-1.353-.103-1.715-.297-.363-.194-.648-.479-.842-.842-.194-.363-.297-.723-.297-1.715v-1.806c0-.993.103-1.353.297-1.716s.479-.647.842-.841c.362-.194.722-.298 1.715-.298z" transform="rotate(-180 18.218 13.576)"/>
                        </g>
                    </g>
                </g>
            </g>
        </g>
    </g>
</svg>
