<svg xmlns="http://www.w3.org/2000/svg" xmlns:xlink="http://www.w3.org/1999/xlink" width="30" height="30" viewBox="0 0 30 30">
    <defs>
        <path id="xf45odwxfa" d="M0.037 0.441L13.493 0.441 13.493 13.92 0.037 13.92z"/>
        <path id="cwf0jeoevc" d="M0 0.5L15.139 0.5 15.139 2 0 2z"/>
    </defs>
    <g fill="none" fill-rule="evenodd">
        <g>
            <g>
                <g>
                    <path d="M0 0H30V30H0z" transform="translate(-7582 -1058) translate(6256 149) translate(1326 909)"/>
                    <g>
                        <g transform="translate(-7582 -1058) translate(6256 149) translate(1326 909) translate(7 6) translate(0 .56)">
                            <mask id="una3th9arb" fill="#fff">
                                <use xlink:href="#xf45odwxfa"/>
                            </mask>
                            <path fill="#FFF" d="M8.067 4.239l1.61 1.61-4.925 4.927c-.087.086-.188.099-.24.099-.053 0-.153-.013-.24-.1l-1.13-1.13c-.088-.087-.1-.187-.1-.24 0-.052.012-.153.1-.24l4.925-4.926zm2.218-2.218c.086-.086.187-.098.24-.098.052 0 .153.012.24.098l1.13 1.13c.132.134.132.349 0 .48L10.738 4.79l-1.61-1.611 1.157-1.157zM.787 13.92c.091 0 .181-.016.27-.05l3.916-1.51c.06-.022.104-.062.153-.097.254-.09.49-.231.686-.427l7.144-7.144c.716-.717.716-1.883 0-2.6L11.826.96c-.694-.693-1.907-.694-2.602 0L2.081 8.104c-.127.127-.226.273-.309.427-.068.07-.125.157-.16.256L.083 12.909c-.103.277-.034.588.175.795.144.14.334.216.528.216z" mask="url(#una3th9arb)"/>
                        </g>
                        <g transform="translate(-7582 -1058) translate(6256 149) translate(1326 909) translate(7 6) translate(0 15.56)">
                            <mask id="fu7uqjuh3d" fill="#fff">
                                <use xlink:href="#cwf0jeoevc"/>
                            </mask>
                            <path fill="#FFF" d="M14.39.5H.75C.334.5 0 .836 0 1.25S.334 2 .75 2h13.64c.413 0 .75-.336.75-.75S14.802.5 14.39.5" mask="url(#fu7uqjuh3d)"/>
                        </g>
                    </g>
                </g>
            </g>
        </g>
    </g>
</svg>
