<svg xmlns="http://www.w3.org/2000/svg" xmlns:xlink="http://www.w3.org/1999/xlink" width="32" height="32" viewBox="0 0 32 32">
    <defs>
        <path id="plz7lq2vva" d="M0 0L18.085 0 18.085 13.537 0 13.537z"/>
    </defs>
    <g fill="none" fill-rule="evenodd">
        <g>
            <g>
                <g>
                    <path d="M0 0H36V36H0z" transform="translate(-875 -3234) translate(873 3232)"/>
                </g>
                <g transform="translate(-875 -3234) translate(873 3232) translate(9 11)">
                    <mask id="l5ua6qu4cb" fill="#fff">
                        <use xlink:href="#plz7lq2vva"/>
                    </mask>
                    <path fill="#FFF" d="M12.171 9.85H5.826c-.913 0-1.438-.773-1.438-1.727 0-.953.87-1.776 1.654-1.728.04.003.115.003.154.005.014-.679.5-1.211 1.156-1.211.103 0 .261.019.358.044.35-.915 1.136-1.546 2.136-1.546 1.371 0 2.411.927 2.411 2.295 0 .091-.034.362-.06.446.836.086 1.5.798 1.5 1.695 0 .954-.613 1.727-1.526 1.727M15.054 0H3.03C1.36 0 0 1.359 0 3.031v7.476c0 1.671 1.36 3.03 3.03 3.03h12.024c1.671 0 3.031-1.359 3.031-3.03V3.031c0-1.672-1.36-3.031-3.03-3.031" mask="url(#l5ua6qu4cb)"/>
                </g>
            </g>
        </g>
    </g>
</svg>
