<svg xmlns="http://www.w3.org/2000/svg" width="33" height="33" viewBox="0 0 33 33">
    <g fill="none" fill-rule="evenodd">
        <g>
            <g>
                <g>
                    <path d="M0 0H33V33H0z" transform="translate(-102 -2993) translate(102 2993)"/>
                    <g>
                        <path fill="#FF7D3A" stroke="#FFF" stroke-opacity=".2" stroke-width=".758" d="M16.26.379c2.931 0 4 .292 5.073.866 1.044.558 1.864 1.378 2.422 2.422.574 1.073.866 2.142.866 5.074h0v7.518c0 2.932-.292 4.001-.866 5.074-.558 1.044-1.378 1.864-2.422 2.422-1.073.574-2.142.866-5.074.866h0-7.518c-2.932 0-4.001-.292-5.074-.866-1.044-.558-1.864-1.378-2.422-2.422C.67 20.26.379 19.191.379 16.26h0V8.741c0-2.932.292-4.001.866-5.074.558-1.044 1.378-1.864 2.422-2.422C4.74.67 5.809.379 8.74.379h0z" transform="translate(-102 -2993) translate(102 2993) translate(4 4)"/>
                        <g>
                            <path d="M0 0H17.424V17.424H0z" transform="translate(-102 -2993) translate(102 2993) translate(4 4) translate(3.788 3.788)"/>
                            <g fill="#FFF" transform="translate(-102 -2993) translate(102 2993) translate(4 4) translate(3.788 3.788) translate(1.818 3.258)">
                                <circle cx="2.348" cy="2.348" r="2.348"/>
                                <path d="M7.92 0h4.03c.621 0 .846.065 1.073.186.227.121.405.3.526.526.121.227.186.452.186 1.072v1.129c0 .62-.065.845-.186 1.072-.121.227-.3.405-.526.526-.227.121-.452.186-1.072.186H7.92c-.621 0-.846-.065-1.073-.186-.226-.121-.404-.3-.526-.526-.121-.227-.186-.452-.186-1.072V1.784c0-.62.065-.845.186-1.072.122-.227.3-.405.526-.526C7.075.065 7.3 0 7.92 0z"/>
                                <path d="M1.784 6.136h4.03c.62 0 .846.065 1.072.186.227.122.405.3.527.526.12.227.185.452.185 1.072v1.13c0 .62-.064.845-.185 1.071-.122.227-.3.405-.527.526-.226.122-.451.186-1.072.186h-4.03c-.62 0-.845-.064-1.072-.186-.227-.12-.405-.299-.526-.526C.065 9.895 0 9.67 0 9.05V7.92c0-.62.065-.845.186-1.072.121-.226.3-.404.526-.526.227-.121.452-.186 1.072-.186z" transform="rotate(-180 3.8 8.485)"/>
                                <path d="M10.822 6.136h1.129c.62 0 .845.065 1.072.186.227.122.405.3.526.526.121.227.186.452.186 1.072v1.13c0 .62-.065.845-.186 1.071-.121.227-.3.405-.526.526-.227.122-.452.186-1.072.186h-1.13c-.62 0-.844-.064-1.071-.186-.227-.12-.405-.299-.526-.526-.122-.226-.186-.451-.186-1.072V7.92c0-.62.064-.845.186-1.072.121-.226.299-.404.526-.526.227-.121.451-.186 1.072-.186z" transform="rotate(-180 11.386 8.485)"/>
                            </g>
                        </g>
                    </g>
                </g>
                <path stroke="#FFF" d="M12.845 3.5h7.31c3.217 0 4.377.353 5.55.98 1.214.65 2.166 1.601 2.814 2.814.628 1.174.981 2.334.981 5.551h0v7.31c0 3.217-.353 4.377-.98 5.55-.65 1.214-1.601 2.166-2.814 2.814-1.174.628-2.334.981-5.551.981h0-7.31c-3.217 0-4.377-.353-5.55-.98-1.214-.65-2.166-1.601-2.814-2.814-.628-1.174-.981-2.334-.981-5.551h0v-7.31c0-3.217.353-4.377.98-5.55.65-1.214 1.601-2.166 2.814-2.814 1.174-.628 2.334-.981 5.551-.981h0z" transform="translate(-102 -2993) translate(102 2993)"/>
            </g>
        </g>
    </g>
</svg>
