<svg xmlns="http://www.w3.org/2000/svg" xmlns:xlink="http://www.w3.org/1999/xlink" width="40" height="40" viewBox="0 0 40 40">
    <defs>
        <path id="o8owt8k01a" d="M0 0.698L26 0.698 26 18.419 0 18.419z"/>
    </defs>
    <g fill="none" fill-rule="evenodd">
        <g>
            <g>
                <g>
                    <path d="M0 0H40V40H0z" transform="translate(-1574 -333) translate(906 94) translate(668 239)"/>
                    <g>
                        <g>
                            <path d="M0 0H40V40H0z" transform="translate(-1574 -333) translate(906 94) translate(668 239)"/>
                        </g>
                        <g>
                            <g transform="translate(-1574 -333) translate(906 94) translate(668 239) translate(7 8) translate(0 .302)">
                                <mask id="ns1bz5fyxb" fill="#fff">
                                    <use xlink:href="#o8owt8k01a"/>
                                </mask>
                                <path fill="#FFF" d="M21.235 18.419h-3.523c-.415 0-.75-.337-.75-.75 0-.415.335-.75.75-.75h3.523c1.892 0 3.265-1.597 3.265-3.796 0-1.926-1.409-3.524-3.276-3.715-.224-.024-.426-.146-.55-.333-.124-.188-.157-.422-.089-.637.043-.145.126-.768.126-.95 0-3.115-2.3-5.29-5.595-5.29-2.227 0-4.066 1.34-4.92 3.586-.137.357-.519.554-.89.458-.19-.048-.545-.091-.758-.091-1.297 0-2.26 1.032-2.289 2.454-.003.204-.09.399-.243.537-.15.139-.353.208-.556.196l-.165-.005c-.09-.004-.182-.005-.245-.01-.733-.043-1.57.313-2.253.955-.825.775-1.297 1.813-1.297 2.845 0 1.89.938 3.796 3.035 3.796h4.753c.414 0 .75.335.75.75 0 .413-.336.75-.75.75H4.535C1.865 18.419 0 16.24 0 13.123c0-1.444.644-2.88 1.768-3.936.906-.852 2.01-1.34 3.07-1.366.35-1.853 1.84-3.17 3.71-3.17.146 0 .316.01.488.029 1.166-2.472 3.446-3.982 6.08-3.982 4.111 0 7.095 2.856 7.095 6.79 0 .121-.018.338-.046.57 2.233.59 3.835 2.643 3.835 5.066 0 3.018-2.049 5.295-4.765 5.295" mask="url(#ns1bz5fyxb)"/>
                            </g>
                            <path fill="#FFF" d="M13.5 24.302c-.414 0-.75-.336-.75-.75V11.876c0-.414.336-.75.75-.75s.75.336.75.75v11.676c0 .414-.336.75-.75.75" transform="translate(-1574 -333) translate(906 94) translate(668 239) translate(7 8)"/>
                            <path fill="#FFF" d="M15.983 13.468c-.192 0-.384-.073-.53-.22L13.5 11.295l-1.954 1.953c-.292.293-.767.293-1.06 0-.293-.293-.293-.767 0-1.06l2.483-2.484c.282-.28.78-.28 1.061 0l2.483 2.484c.293.293.293.767 0 1.06-.146.147-.338.22-.53.22" transform="translate(-1574 -333) translate(906 94) translate(668 239) translate(7 8)"/>
                        </g>
                    </g>
                </g>
            </g>
        </g>
    </g>
</svg>
