<svg xmlns="http://www.w3.org/2000/svg" width="83" height="83" viewBox="0 0 83 83">
    <g fill="none" fill-rule="evenodd">
        <g>
            <g>
                <path d="M0 0H83V83H0z" transform="translate(-299 -3230) translate(299 3230)"/>
                <g>
                    <path fill="#4390F6" stroke="#FFF" stroke-opacity=".2" stroke-width="2.371" d="M53.981 1.186c9.755 0 13.309.973 16.88 2.883 3.479 1.86 6.21 4.591 8.07 8.07 1.91 3.571 2.883 7.125 2.883 16.88h0V53.98c0 9.755-.973 13.309-2.883 16.88-1.86 3.479-4.591 6.21-8.07 8.07-3.571 1.91-7.125 2.883-16.88 2.883h0H29.02c-9.755 0-13.309-.973-16.88-2.883-3.479-1.86-6.21-4.591-8.07-8.07-1.875-3.506-2.847-6.995-2.882-16.354h0l-.001-25.488c0-9.755.973-13.309 2.883-16.88 1.86-3.479 4.591-6.21 8.07-8.07 3.506-1.875 6.995-2.847 16.354-2.882h0z" transform="translate(-299 -3230) translate(299 3230)"/>
                    <g fill="#FFF">
                        <path d="M18.29 8.254c1.217-.003 2.184-.97 2.194-2.191.01-1.197-.98-2.191-2.192-2.201-1.211-.01-2.203.987-2.197 2.21.005 1.219.977 2.185 2.196 2.182zm-2.036 4.765c2.914 0 5.829-.002 8.743.005.205 0 .258-.053.25-.253-.016-.41-.019-.823 0-1.234.01-.212-.062-.245-.255-.245-3.612.006-7.224.005-10.835.004-.3 0-.6-.01-.9.005-.174.008-.22-.042-.22-.218 0-1.826.004-3.653-.023-5.48-.013-.823.22-1.548.687-2.21.476-.675 1.104-1.177 1.812-1.585 1.153-.664 2.41-1.044 3.705-1.304 2.282-.458 4.59-.548 6.908-.487 1.422.037 2.841.142 4.234.445 1.118.243 2.223.527 3.265 1.03 1.102.533 2.107 1.175 2.831 2.185.633.88.946 1.858.913 2.956-.032 1.052-.01 2.105-.01 3.158v7.886c0 1.026-.139 2.029-.551 2.978-.647 1.488-1.781 2.465-3.265 3.061-1.026.413-2.095.603-3.202.602-4.037-.004-8.074-.01-12.111.005-1.343.006-2.629.287-3.787 1.01-1.402.876-2.22 2.177-2.68 3.73-.239.806-.352 1.631-.35 2.474.007 1.897 0 3.793.008 5.69 0 .186-.049.23-.231.228-1.374-.007-2.747.01-4.12-.006-1.34-.016-2.492-.543-3.502-1.39-1.228-1.028-1.984-2.373-2.519-3.856-.475-1.317-.736-2.681-.886-4.07C.03 26.918-.02 25.7.006 24.48c.042-2.05.267-4.073.965-6.017.548-1.527 1.355-2.888 2.634-3.923 1.234-.999 2.65-1.52 4.24-1.526 2.803-.01 5.606-.003 8.409-.003v.008z" transform="translate(-299 -3230) translate(299 3230) translate(16.6 16.348)"/>
                        <path d="M31.134 21.097c1.216-.003 2.183-.97 2.193-2.191.01-1.197-.98-2.19-2.191-2.2-1.212-.01-2.204.986-2.198 2.208.006 1.22.977 2.186 2.196 2.183zm-2.037 4.766c2.915 0 5.83-.003 8.744.005.205 0 .257-.054.25-.254-.017-.41-.02-.823 0-1.233.01-.212-.063-.246-.256-.245-3.612.006-7.223.004-10.835.004-.3 0-.6-.011-.9.004-.173.009-.219-.042-.219-.217 0-1.827.004-3.654-.024-5.48-.012-.823.22-1.55.688-2.211.475-.674 1.104-1.176 1.811-1.584 1.153-.665 2.41-1.044 3.705-1.305 2.282-.458 4.591-.547 6.908-.487 1.422.037 2.841.143 4.234.445 1.118.243 2.223.527 3.265 1.031 1.102.533 2.107 1.175 2.832 2.184.632.881.945 1.858.912 2.956-.032 1.052-.01 2.106-.01 3.158v7.886c0 1.026-.138 2.029-.55 2.978-.648 1.489-1.782 2.465-3.265 3.062-1.026.412-2.095.603-3.203.602-4.037-.005-8.074-.01-12.11.005-1.343.005-2.63.286-3.787 1.01-1.403.875-2.221 2.177-2.681 3.73-.238.806-.352 1.63-.349 2.473.007 1.897 0 3.793.007 5.69 0 .186-.049.23-.23.228-1.374-.007-2.748.01-4.121-.006-1.34-.016-2.491-.543-3.502-1.39-1.228-1.028-1.983-2.373-2.518-3.855-.475-1.318-.736-2.682-.887-4.07-.131-1.216-.181-2.434-.157-3.654.042-2.05.268-4.073.965-6.017.548-1.527 1.356-2.888 2.635-3.923 1.233-.998 2.65-1.52 4.24-1.526 2.803-.01 5.605-.002 8.408-.002v.008z" transform="translate(-299 -3230) translate(299 3230) translate(16.6 16.348) rotate(-180 31.529 31.571)"/>
                    </g>
                </g>
            </g>
        </g>
    </g>
</svg>
