<svg xmlns="http://www.w3.org/2000/svg" xmlns:xlink="http://www.w3.org/1999/xlink" width="38" height="38" viewBox="0 0 38 38">
    <defs>
        <path id="1s2ttkw0ua" d="M0 0.854L36.068 0.854 36.068 10.27 0 10.27z"/>
        <path id="xu60cp88sc" d="M0.684 0.855L5.151 0.855 5.151 6.732 0.684 6.732z"/>
        <path id="puodo6qdee" d="M0 0.856L4.468 0.856 4.468 6.732 0 6.732z"/>
    </defs>
    <g fill="none" fill-rule="evenodd">
        <g>
            <g>
                <g>
                    <g>
                        <path d="M0 0H38V38H0z" transform="translate(-1488 -168) translate(834 105) translate(654 63)"/>
                    </g>
                    <g>
                        <path fill="#FFF" d="M8.355 13.363v9.728l8.838-3.977V9.386l-8.838 3.977zm-.84 11.867c-.16 0-.318-.046-.456-.135-.239-.154-.384-.42-.384-.705V12.82c0-.33.194-.63.496-.766L17.69 7.32c.26-.116.562-.094.8.06.24.155.384.42.384.706v11.57c0 .33-.193.63-.495.766L7.86 25.156c-.11.049-.228.074-.345.074z" transform="translate(-1488 -168) translate(834 105) translate(654 63) translate(1 4)"/>
                        <path fill="#FFF" d="M18.873 19.114l8.838 3.977v-9.728l-8.838-3.977v9.728zm9.678 6.116c-.117 0-.235-.025-.345-.074L17.69 20.423c-.302-.136-.496-.436-.496-.766V8.087c0-.285.145-.551.384-.705.24-.155.542-.177.801-.061l10.517 4.733c.302.136.496.436.496.766v11.57c0 .285-.144.55-.384.705-.138.089-.297.135-.456.135z" transform="translate(-1488 -168) translate(834 105) translate(654 63) translate(1 4)"/>
                        <path fill="#FFF" d="M18.034 29.963c-.117 0-.235-.024-.345-.074L7.171 25.156c-.424-.19-.612-.688-.421-1.11.19-.423.689-.613 1.11-.422l10.174 4.579 10.172-4.58c.422-.19.922 0 1.111.423.19.422.003.92-.422 1.11l-10.517 4.733c-.11.05-.227.074-.345.074" transform="translate(-1488 -168) translate(834 105) translate(654 63) translate(1 4)"/>
                        <g transform="translate(-1488 -168) translate(834 105) translate(654 63) translate(1 4) translate(0 17.963)">
                            <mask id="dtawjgu9zb" fill="#fff">
                                <use xlink:href="#1s2ttkw0ua"/>
                            </mask>
                            <path fill="#FFF" d="M35.227 10.27c-.116 0-.232-.023-.344-.074l-16.85-7.58-16.848 7.58c-.422.19-.92.002-1.111-.42-.19-.424-.001-.922.422-1.112L17.689.928c.219-.099.47-.099.689 0l17.194 7.736c.423.19.612.688.422 1.111-.141.311-.447.495-.767.495" mask="url(#dtawjgu9zb)"/>
                        </g>
                        <path fill="#FFF" d="M20.242 3.888c-.215 0-.43-.082-.594-.246l-1.614-1.615-1.615 1.615c-.328.328-.86.328-1.188 0-.328-.328-.328-.86 0-1.188L17.44.246c.328-.328.86-.328 1.188 0l2.208 2.208c.328.328.328.86 0 1.188-.164.164-.379.246-.594.246" transform="translate(-1488 -168) translate(834 105) translate(654 63) translate(1 4)"/>
                        <g transform="translate(-1488 -168) translate(834 105) translate(654 63) translate(1 4) translate(31 22.963)">
                            <mask id="3e0nv6bntd" fill="#fff">
                                <use xlink:href="#xu60cp88sc"/>
                            </mask>
                            <path fill="#FFF" d="M1.524 6.732c-.307 0-.603-.168-.75-.461-.209-.414-.043-.92.371-1.13l2.038-1.028-1.03-2.038c-.209-.415-.043-.92.372-1.13.414-.208.92-.042 1.128.372l1.408 2.788c.21.414.043.919-.37 1.128L1.901 6.642c-.12.06-.25.09-.378.09" mask="url(#3e0nv6bntd)"/>
                        </g>
                        <g transform="translate(-1488 -168) translate(834 105) translate(654 63) translate(1 4) translate(0 22.963)">
                            <mask id="0k0pebhwtf" fill="#fff">
                                <use xlink:href="#puodo6qdee"/>
                            </mask>
                            <path fill="#FFF" d="M3.627 6.732c-.127 0-.257-.03-.378-.09L.461 5.232c-.414-.208-.58-.713-.37-1.127l1.407-2.788c.21-.414.715-.58 1.13-.371.413.209.58.714.37 1.129l-1.03 2.038 2.038 1.029c.414.21.58.715.371 1.129-.147.293-.443.46-.75.46" mask="url(#0k0pebhwtf)"/>
                        </g>
                        <path fill="#FFF" d="M18.034 8.927c-.463 0-.84-.376-.84-.84V.84c0-.464.377-.84.84-.84.463 0 .84.376.84.84v7.247c0 .464-.377.84-.84.84" transform="translate(-1488 -168) translate(834 105) translate(654 63) translate(1 4)"/>
                    </g>
                </g>
            </g>
        </g>
    </g>
</svg>
