<svg xmlns="http://www.w3.org/2000/svg" width="65" height="65" viewBox="0 0 65 65">
    <g fill="none" fill-rule="evenodd">
        <g>
            <g>
                <path d="M0 0H65V65H0z" transform="translate(-299 -338) translate(299 338)"/>
                <g>
                    <path stroke="#FFF" stroke-width="1.992" d="M17.018 25.511l14.584-8.239c.12-.068.168-.085.223-.097.055-.012.108-.012.163 0 .055.012.102.03.222.097l14.539 8.239c.21.12.285.388.165.599-.04.07-.098.129-.169.168l-14.584 8.087c-.12.066-.166.083-.22.094-.055.012-.107.012-.162 0-.054-.011-.1-.028-.22-.095L17.021 26.28c-.213-.118-.289-.386-.171-.598.04-.071.098-.13.168-.17z" transform="translate(-299 -338) translate(299 338) translate(0 4.875)"/>
                    <path stroke="#FFF" stroke-width="1.992" d="M17.513 26.027l14.284 8.36c.12.07.16.103.197.145.038.043.065.09.082.144.018.054.026.104.025.244l-.028 16.86c0 .243-.198.44-.44.44-.077 0-.153-.021-.22-.06L17.13 43.926c-.122-.07-.161-.102-.2-.144-.038-.043-.065-.09-.082-.144-.018-.055-.026-.105-.026-.245l.03-16.987c0-.243.197-.44.44-.439.077 0 .154.021.221.06zM46.803 26.027l-14.284 8.36c-.12.07-.16.103-.198.145-.037.043-.064.09-.082.144-.017.054-.025.104-.025.244l.029 16.86c0 .243.198.44.44.44.077 0 .153-.021.22-.06l14.283-8.234c.121-.07.16-.102.2-.144.037-.043.065-.09.082-.144.018-.055.026-.105.025-.245l-.028-16.987c0-.243-.198-.44-.44-.439-.079 0-.155.021-.222.06z" transform="translate(-299 -338) translate(299 338) translate(0 4.875)"/>
                    <path fill="#FFF" d="M32.002.642c.026.017.049.04.066.066l4.728 7.327c.066.102.036.238-.066.304-.035.023-.077.035-.119.035l-3.613-.001v9.279h-2.23V8.373h-3.613c-.121 0-.22-.098-.22-.219 0-.042.012-.084.035-.12L31.698.709c.066-.102.202-.132.304-.066z" transform="translate(-299 -338) translate(299 338) translate(0 4.875)"/>
                    <path fill="#FFF" d="M10.012 39.125c.027.016.049.039.066.065l4.728 7.327c.066.102.036.238-.066.304-.035.023-.077.035-.119.035h-3.613v9.278h-2.23v-9.279l-3.613.001c-.121 0-.22-.098-.22-.22 0-.042.012-.083.035-.119l4.728-7.327c.066-.102.202-.131.304-.065z" transform="translate(-299 -338) translate(299 338) translate(0 4.875) rotate(-119 9.893 47.612)"/>
                    <path fill="#FFF" d="M55.092 39.125c.026.016.048.039.065.065l4.728 7.327c.066.102.037.238-.065.304-.036.023-.077.035-.12.035h-3.612v9.278h-2.231v-9.279l-3.613.001c-.121 0-.22-.098-.22-.22 0-.042.013-.083.036-.119l4.728-7.327c.065-.102.202-.131.304-.065z" transform="translate(-299 -338) translate(299 338) translate(0 4.875) scale(1 -1) rotate(61 135.801 0)"/>
                </g>
            </g>
        </g>
    </g>
</svg>
