<svg xmlns="http://www.w3.org/2000/svg" xmlns:xlink="http://www.w3.org/1999/xlink" width="30" height="30" viewBox="0 0 30 30">
    <defs>
        <path id="8t95p3t6ma" d="M0 0.891L17.166 0.891 17.166 2.391 0 2.391z"/>
    </defs>
    <g fill="none" fill-rule="evenodd">
        <g>
            <g>
                <g fill="#5E616B" fill-opacity=".8" stroke="#FFF" stroke-opacity=".4" stroke-width=".5">
                    <path d="M8.974.25h12.052c3.05 0 4.16.309 5.275.905 1.097.587 1.957 1.447 2.544 2.544.596 1.116.905 2.225.905 5.275h0v12.052c0 3.05-.309 4.16-.905 5.275-.587 1.097-1.447 1.957-2.544 2.544-1.116.596-2.225.905-5.275.905h0H8.974c-3.05 0-4.16-.309-5.275-.905-1.097-.587-1.957-1.447-2.544-2.544C.56 25.185.25 24.076.25 21.026h0V8.974c0-3.05.309-4.16.905-5.275.587-1.097 1.447-1.957 2.544-2.544C4.815.56 5.924.25 8.974.25h0z" transform="translate(-3397 -319) translate(3397 319)"/>
                </g>
                <g opacity=".4">
                    <g transform="translate(-3397 -319) translate(3397 319) translate(6 6) translate(0 1.92)">
                        <mask id="o95gm6l5ib" fill="#fff">
                            <use xlink:href="#8t95p3t6ma"/>
                        </mask>
                        <path fill="#FFF" d="M16.416 2.391H.75c-.413 0-.75-.336-.75-.75s.337-.75.75-.75h15.668c.413 0 .75.336.75.75s-.337.75-.75.75" mask="url(#o95gm6l5ib)"/>
                    </g>
                    <path fill="#FFF" d="M11.551 4.12c-.414 0-.75-.336-.75-.75V2.015c0-.334-.18-.515-.255-.515H6.62c-.074 0-.255.181-.255.515V3.37c0 .414-.336.75-.75.75s-.75-.336-.75-.75V2.015C4.865.905 5.652 0 6.62 0h3.926c.968 0 1.755.904 1.755 2.015V3.37c0 .414-.336.75-.75.75" transform="translate(-3397 -319) translate(3397 319) translate(6 6)"/>
                    <path fill="#FFF" d="M12.09 13.81c0 .415-.336.75-.75.75s-.75-.335-.75-.75V7.524c0-.413.336-.75.75-.75s.75.337.75.75v6.286zm-2.757 0c0 .415-.336.75-.75.75s-.75-.335-.75-.75V7.524c0-.413.336-.75.75-.75s.75.337.75.75v6.286zm-2.756 0c0 .415-.336.75-.75.75s-.75-.335-.75-.75V7.524c0-.413.336-.75.75-.75s.75.337.75.75v6.286zm7.297-10.915c-2.702.015-7.888-.011-10.584-.027-.93-.006-1.665.814-1.597 1.776l.833 11.742c.062.864.755 1.534 1.59 1.534h8.913c.834 0 1.527-.668 1.59-1.53l.854-11.715c.07-.963-.667-1.783-1.6-1.78z" transform="translate(-3397 -319) translate(3397 319) translate(6 6)"/>
                </g>
            </g>
        </g>
    </g>
</svg>
