<svg xmlns="http://www.w3.org/2000/svg" width="34" height="34" viewBox="0 0 34 34">
    <g fill="none" fill-rule="evenodd">
        <g>
            <g>
                <g>
                    <path d="M0 0H34V34H0z" transform="translate(-366 -1030) translate(363 1030) translate(3)"/>
                    <g fill="#FFF" fill-opacity=".5">
                        <path d="M17.45 0C18.858 0 20 1.142 20 2.55v10.9c0 1.408-1.142 2.55-2.55 2.55H2.55C1.142 16 0 14.858 0 13.45V2.55C0 1.142 1.142 0 2.55 0h14.9zM7.959 5.98c-.357-.227-.83-.123-1.056.234L3.12 12.152c-.078.123-.12.265-.12.41 0 .423.343.766.766.766h7.585l.021-.001h4.717c.167 0 .33-.054.464-.156.336-.257.4-.737.143-1.073l-2.334-3.054c-.042-.054-.09-.102-.144-.144-.335-.256-.815-.192-1.072.144l-.95 1.242c-.293.347-.548.515-.768.502-.226-.013-.433-.17-.621-.473L8.193 6.214c-.06-.094-.14-.174-.234-.234zm5.916-2.424c-.897 0-1.625.739-1.625 1.65 0 .912.728 1.651 1.625 1.651s1.625-.739 1.625-1.65c0-.912-.728-1.651-1.625-1.651z" transform="translate(-366 -1030) translate(363 1030) translate(3) translate(7 9)"/>
                    </g>
                </g>
            </g>
        </g>
    </g>
</svg>
