<svg xmlns="http://www.w3.org/2000/svg" xmlns:xlink="http://www.w3.org/1999/xlink" width="32" height="32" viewBox="0 0 32 32">
    <defs>
        <path id="88brgc1q9a" d="M0 0.126L2.587 0.126 2.587 2.712 0 2.712z"/>
    </defs>
    <g fill="none" fill-rule="evenodd">
        <g>
            <g>
                <g>
                    <path d="M0 0H36V36H0z" transform="translate(-875 -3378) translate(873 3376)"/>
                </g>
                <g>
                    <path fill="#FFF" d="M13.006 9.069c-.294 2.467-2.531 4.23-5 3.937-2.466-.294-4.23-2.532-3.935-5 .293-2.466 2.532-4.23 4.998-3.936 2.468.294 4.23 2.532 3.937 4.999M9.874 1.293c0 .714-.578 1.293-1.293 1.293-.714 0-1.293-.579-1.293-1.293S7.867 0 8.58 0c.715 0 1.293.58 1.293 1.293M9.874 15.869c0 .714-.578 1.293-1.293 1.293-.714 0-1.293-.58-1.293-1.293 0-.714.579-1.293 1.293-1.293.715 0 1.293.579 1.293 1.293" transform="translate(-875 -3378) translate(873 3376) translate(9 9)"/>
                    <g transform="translate(-875 -3378) translate(873 3376) translate(9 9) translate(0 7.162)">
                        <mask id="jsibxmmjkb" fill="#fff">
                            <use xlink:href="#88brgc1q9a"/>
                        </mask>
                        <path fill="#FFF" d="M1.293.126c.715 0 1.294.579 1.294 1.293s-.58 1.293-1.294 1.293C.579 2.712 0 2.132 0 1.419 0 .705.579.126 1.293.126" mask="url(#jsibxmmjkb)"/>
                    </g>
                    <path fill="#FFF" d="M15.869 7.288c.714 0 1.293.579 1.293 1.293s-.579 1.293-1.293 1.293c-.715 0-1.293-.58-1.293-1.293 0-.714.578-1.293 1.293-1.293M4.343 2.514c.505.505.505 1.324 0 1.829-.506.505-1.324.505-1.83 0-.504-.506-.504-1.325 0-1.83.506-.504 1.324-.504 1.83 0M14.65 12.82c.504.505.504 1.324 0 1.829-.507.505-1.325.505-1.83 0-.506-.505-.506-1.324 0-1.83.505-.504 1.323-.504 1.83 0M2.514 12.82c.505-.505 1.323-.505 1.829 0 .505.505.505 1.324 0 1.829-.506.505-1.324.505-1.83 0-.504-.505-.504-1.324 0-1.83M12.82 2.514c.505-.505 1.323-.505 1.83 0 .504.505.504 1.324 0 1.829-.507.505-1.325.505-1.83 0-.506-.506-.506-1.325 0-1.83" transform="translate(-875 -3378) translate(873 3376) translate(9 9)"/>
                </g>
            </g>
        </g>
    </g>
</svg>
