<svg xmlns="http://www.w3.org/2000/svg" width="22" height="22" viewBox="0 0 22 22">
    <g fill="none" fill-rule="evenodd">
        <g>
            <g>
                <g>
                    <g>
                        <path fill="#FFF" fill-opacity=".5" d="M11.437 5l.158.001.15.002.144.004.138.005.132.005.126.007.12.008.115.01.164.015.103.012.098.013.048.007.092.015.09.015.084.017.082.018.078.02.076.02.037.01.071.021.07.023.034.012.067.024.065.026.063.026.062.028.062.028.06.03.06.03.06.032c.591.316 1.055.78 1.37 1.37l.032.06.03.06.03.06.029.062.027.063.026.063.013.032.025.066.024.068.023.07.021.071.01.037.02.076.02.078.018.082.017.085.015.088.015.093.007.048.013.098.012.103.01.108.015.171.008.12.007.127.005.131.005.138.004.144.002.15.001.158v2.951l-.001.157-.002.15-.004.145-.005.138-.005.132-.007.126-.008.12-.01.115-.015.164-.012.103-.013.099-.007.047-.015.093-.015.088-.017.085-.018.082-.02.079-.02.075-.01.037-.021.072-.023.07-.012.033-.024.067-.026.065-.026.064-.027.062-.029.061-.03.061-.03.06-.032.06c-.315.591-.779 1.054-1.37 1.37l-.06.032-.06.03-.06.03-.062.029-.062.027-.063.027-.033.012-.065.025-.068.024-.07.023-.071.021-.037.01-.076.021-.078.02-.082.017-.085.017-.089.016-.092.014-.048.007-.098.013-.103.012-.108.01-.17.015-.121.008-.126.007-.132.006-.138.004-.144.004-.15.002-.158.001H8.41c-.407 0-.797.162-1.085.45l-2.293 2.294c-.105.105-.245.168-.393.176L4.604 20c-.324 0-.588-.254-.603-.574L4 19.396v-1.91c0-.23-.176-.42-.405-.439l-.115-.01-.164-.015-.103-.012-.098-.013-.048-.007-.092-.014-.09-.016-.084-.017-.082-.018-.078-.019-.076-.02-.037-.01-.071-.022-.07-.023-.034-.012-.067-.024-.065-.025-.063-.027-.062-.027-.062-.029-.06-.03-.06-.03-.06-.032c-.591-.316-1.055-.779-1.37-1.37l-.032-.06-.03-.06-.03-.06-.029-.062-.027-.062-.026-.064-.013-.032-.025-.066-.024-.068-.023-.07-.021-.071-.01-.037-.02-.075-.02-.079-.018-.082-.017-.085-.015-.088-.015-.093-.007-.047-.013-.1-.012-.102-.01-.108-.015-.17-.008-.121-.007-.126-.005-.132-.005-.138-.004-.144-.002-.15L0 12.514v-2.95l.001-.158.002-.15.004-.145.005-.138.005-.131.007-.126.008-.121.01-.115.015-.164.012-.103.013-.098.007-.048.015-.093.015-.088.017-.085.018-.082.02-.078.02-.076.01-.037.021-.072.023-.07.012-.033.024-.067.026-.065.026-.063.027-.063.029-.061.03-.06.03-.061.032-.06c.315-.59.779-1.054 1.37-1.37l.06-.032.06-.03.06-.03.062-.028.062-.028.063-.026.033-.013.065-.025.068-.024.07-.023.071-.021.037-.01.076-.02.078-.02.082-.018.085-.017.089-.015.092-.015.048-.007.098-.013.103-.012.108-.01.17-.015.121-.008.126-.007.132-.005.138-.005.144-.004.15-.002L4.563 5h6.874z" transform="translate(-192 -2703) translate(142 2649) translate(42 51) translate(8 3)"/>
                        <path d="M0 0H22V22H0z" transform="translate(-192 -2703) translate(142 2649) translate(42 51) translate(8 3)"/>
                    </g>
                </g>
            </g>
        </g>
    </g>
</svg>
