<svg xmlns="http://www.w3.org/2000/svg" xmlns:xlink="http://www.w3.org/1999/xlink" width="32" height="32" viewBox="0 0 32 32">
    <defs>
        <path id="reh2hn4zja" d="M0 0.445L16.771 0.445 16.771 13 0 13z"/>
    </defs>
    <g fill="none" fill-rule="evenodd">
        <g>
            <g>
                <g>
                    <path d="M0 0H36V36H0z" transform="translate(-875 -3306) translate(873 3304)"/>
                </g>
                <g>
                    <path fill="#FFF" d="M10.342 5.91H6.43c-.414 0-.75-.336-.75-.75s.336-.75.75-.75h3.912c.414 0 .75.336.75.75s-.336.75-.75.75" transform="translate(-875 -3306) translate(873 3304) translate(10 11)"/>
                    <path fill="#FFF" d="M8.386 10.058c-.414 0-.75-.336-.75-.75v-4.06c0-.414.336-.75.75-.75s.75.336.75.75v4.06c0 .414-.336.75-.75.75" transform="translate(-875 -3306) translate(873 3304) translate(10 11)"/>
                    <g transform="translate(-875 -3306) translate(873 3304) translate(10 11) translate(0 .555)">
                        <mask id="0a142yezqb" fill="#fff">
                            <use xlink:href="#reh2hn4zja"/>
                        </mask>
                        <path fill="#FFF" d="M2.81 1.945c-.723 0-1.31.588-1.31 1.311v6.933c0 .723.587 1.311 1.31 1.311h11.15c.723 0 1.311-.588 1.311-1.31V3.255c0-.723-.588-1.31-1.31-1.31H2.81zM13.96 13H2.81C1.26 13 0 11.738 0 10.19V3.255C0 1.706 1.26.446 2.81.446h11.15c1.55 0 2.811 1.26 2.811 2.81v6.933c0 1.55-1.26 2.811-2.81 2.811z" mask="url(#0a142yezqb)"/>
                    </g>
                </g>
            </g>
        </g>
    </g>
</svg>
