<svg xmlns="http://www.w3.org/2000/svg" width="163" height="49" viewBox="0 0 163 49">
    <g fill="none">
        <path fill="#000" d="M10.411 48.769c-.419 0-.827-.005-1.243-.014-.861-.01-1.72-.08-2.57-.208-.793-.126-1.56-.362-2.278-.698-.711-.334-1.36-.772-1.921-1.297-.57-.518-1.043-1.12-1.403-1.78-.364-.665-.616-1.378-.747-2.113-.141-.79-.218-1.59-.229-2.39-.009-.27-.02-1.165-.02-1.165V9.651s.012-.882.02-1.14c.01-.8.087-1.598.228-2.388.131-.737.383-1.452.747-2.119.359-.66.83-1.262 1.396-1.782.565-.525 1.216-.965 1.928-1.304C5.035.583 5.801.35 6.592.225c.853-.13 1.715-.2 2.58-.21L10.411 0h141.307l1.255.016c.856.01 1.71.079 2.555.207.8.126 1.574.362 2.298.699 1.427.682 2.588 1.76 3.32 3.085.359.663.607 1.372.737 2.103.142.795.222 1.6.238 2.406.004.361.004.749.004 1.135.011.478.011.933.011 1.392v26.684c0 .463 0 .915-.01 1.37 0 .416 0 .795-.006 1.186-.016.792-.094 1.582-.235 2.363-.128.741-.379 1.46-.742 2.13-.363.653-.834 1.25-1.397 1.766-.562.528-1.211.968-1.924 1.304-.722.34-1.495.576-2.294.701-.85.129-1.709.198-2.57.208-.402.009-.824.014-1.234.014l-1.49.002L10.41 48.77z"/>
        <g fill="#FFF">
            <path d="M21.682 15.683c.03-2.163 1.253-4.16 3.24-5.294-1.259-1.667-3.293-2.687-5.487-2.75-2.31-.225-4.548 1.28-5.724 1.28-1.2 0-3.011-1.258-4.962-1.221-2.567.077-4.902 1.397-6.15 3.478-2.66 4.27-.676 10.544 1.871 13.995 1.275 1.69 2.764 3.577 4.713 3.51 1.908-.073 2.62-1.128 4.922-1.128 2.28 0 2.95 1.128 4.938 1.085 2.046-.03 3.336-1.697 4.565-3.403.916-1.204 1.62-2.535 2.088-3.943-2.43-.953-4.011-3.161-4.014-5.609zM17.926 5.369c1.116-1.242 1.666-2.839 1.533-4.45-1.705.165-3.28.92-4.41 2.115-1.117 1.179-1.683 2.72-1.573 4.286 1.727.017 3.368-.703 4.45-1.951z" transform="translate(11.175 9.084)"/>
            <g>
                <path d="M11.416 12.928H4.907l-1.563 4.28H.587L6.752 1.375h2.864l6.165 15.833h-2.804l-1.561-4.28zM5.58 10.953h5.16L8.196 4.008h-.071L5.58 10.953zM29.095 11.436c0 3.588-2.071 5.892-5.196 5.892-1.615.079-3.136-.706-3.916-2.02h-.06v5.718h-2.555V5.664h2.474v1.92h.047c.815-1.305 2.338-2.09 3.963-2.04 3.16 0 5.243 2.315 5.243 5.892zm-2.627 0c0-2.337-1.302-3.873-3.29-3.873-1.952 0-3.265 1.569-3.265 3.873 0 2.326 1.313 3.884 3.265 3.884 1.988 0 3.29-1.525 3.29-3.884zM42.796 11.436c0 3.588-2.07 5.892-5.195 5.892-1.615.079-3.136-.706-3.917-2.02h-.059v5.718H31.07V5.664h2.473v1.92h.047c.815-1.305 2.338-2.09 3.964-2.04 3.16 0 5.242 2.315 5.242 5.892zm-2.626 0c0-2.337-1.303-3.873-3.29-3.873-1.952 0-3.266 1.569-3.266 3.873 0 2.326 1.314 3.884 3.266 3.884 1.987 0 3.29-1.525 3.29-3.884zM51.852 12.796c.19 1.57 1.834 2.601 4.082 2.601 2.154 0 3.703-1.03 3.703-2.447 0-1.229-.934-1.964-3.147-2.469l-2.213-.494c-3.135-.702-4.591-2.062-4.591-4.268 0-2.732 2.567-4.608 6.213-4.608 3.608 0 6.081 1.876 6.165 4.608h-2.58c-.154-1.58-1.563-2.534-3.621-2.534-2.059 0-3.467.965-3.467 2.37 0 1.119.9 1.777 3.1 2.282l1.881.428c3.504.768 4.96 2.073 4.96 4.389 0 2.962-2.545 4.817-6.592 4.817-3.787 0-6.344-1.811-6.509-4.675h2.616zM67.851 2.932v2.732h2.367V7.54h-2.367v6.364c0 .989.474 1.45 1.515 1.45.28-.005.561-.023.84-.055v1.865c-.468.081-.943.118-1.42.11-2.52 0-3.502-.878-3.502-3.117V7.54h-1.81V5.664h1.81V2.932h2.567zM71.59 11.436c0-3.632 2.306-5.914 5.904-5.914 3.609 0 5.905 2.282 5.905 5.914 0 3.642-2.284 5.915-5.905 5.915-3.62 0-5.905-2.273-5.905-5.915zm9.205 0c0-2.491-1.23-3.962-3.301-3.962s-3.301 1.482-3.301 3.962c0 2.502 1.23 3.961 3.3 3.961 2.071 0 3.302-1.46 3.302-3.96zM85.506 5.664h2.437v1.965h.06c.339-1.265 1.589-2.135 2.993-2.086.295 0 .589.029.876.089v2.216c-.372-.105-.76-.154-1.148-.143-.751-.028-1.478.25-1.99.76s-.758 1.203-.673 1.896v6.847h-2.555V5.664zM103.653 13.817c-.343 2.096-2.544 3.534-5.36 3.534-3.621 0-5.87-2.25-5.87-5.86 0-3.62 2.26-5.969 5.763-5.969 3.444 0 5.61 2.194 5.61 5.694v.812h-8.793v.143c-.082.86.238 1.71.879 2.336.64.625 1.54.965 2.47.934 1.24.107 2.41-.553 2.875-1.624h2.426zm-8.638-3.445h6.224c.046-.772-.257-1.528-.836-2.084-.58-.556-1.383-.863-2.217-.846-.84-.005-1.649.302-2.244.852-.595.55-.929 1.298-.927 2.078z" transform="translate(11.175 9.084) translate(34.375 11.475)"/>
            </g>
        </g>
        <g fill="#FFF">
            <path d="M3.876.94c1.082-.073 2.142.313 2.888 1.051.745.739 1.099 1.752.962 2.76 0 2.452-1.413 3.86-3.85 3.86H.92V.94h2.956zM2.19 7.527h1.543c.773.043 1.526-.243 2.05-.778.523-.535.762-1.263.649-1.982.104-.715-.138-1.437-.66-1.968-.522-.53-1.27-.815-2.04-.775H2.192v5.503zM9.162 5.714c-.106-1.038.425-2.042 1.37-2.592.945-.55 2.14-.55 3.085 0 .945.55 1.476 1.554 1.37 2.592.108 1.039-.423 2.045-1.368 2.596-.946.55-2.143.55-3.089 0-.946-.55-1.476-1.557-1.368-2.596zm4.571 0c0-1.255-.601-1.989-1.657-1.989-1.059 0-1.655.734-1.655 1.99 0 1.264.596 1.992 1.655 1.992 1.056 0 1.657-.733 1.657-1.993zM22.729 8.611L21.465 8.611 20.188 4.347 20.092 4.347 18.821 8.611 17.569 8.611 15.867 2.822 17.103 2.822 18.209 7.24 18.3 7.24 19.57 2.822 20.739 2.822 22.009 7.24 22.105 7.24 23.206 2.822 24.425 2.822zM25.856 2.822h1.173v.92h.092c.316-.678 1.056-1.092 1.842-1.032.61-.043 1.206.176 1.621.595.416.419.606.992.517 1.558v3.748h-1.219v-3.46c0-.931-.431-1.394-1.332-1.394-.413-.018-.814.134-1.097.416-.284.282-.422.666-.378 1.051v3.387h-1.219v-5.79zM33.043.562L34.262.562 34.262 8.611 33.043 8.611zM35.956 5.714c-.106-1.038.425-2.042 1.37-2.592.945-.55 2.14-.55 3.085 0 .945.55 1.476 1.554 1.37 2.592.108 1.039-.423 2.045-1.368 2.596-.946.55-2.143.55-3.089 0-.946-.55-1.476-1.557-1.368-2.596zm4.57 0c0-1.255-.6-1.989-1.656-1.989-1.06 0-1.655.734-1.655 1.99 0 1.264.596 1.992 1.655 1.992 1.055 0 1.657-.733 1.657-1.993zM43.064 6.974c0-1.042.828-1.643 2.297-1.728l1.673-.09v-.5c0-.612-.432-.957-1.265-.957-.68 0-1.151.234-1.287.643h-1.18c.125-.994 1.123-1.632 2.524-1.632 1.548 0 2.421.723 2.421 1.946V8.61h-1.173v-.813h-.097c-.398.594-1.107.941-1.854.909-.525.05-1.048-.108-1.44-.438-.392-.33-.617-.8-.619-1.295zm3.97-.495v-.484l-1.508.09c-.85.054-1.236.325-1.236.836 0 .52.482.824 1.145.824.392.037.784-.076 1.085-.315.302-.239.487-.582.514-.95zM49.849 5.714c0-1.83 1.003-2.988 2.563-2.988.788-.034 1.526.362 1.894 1.016h.091V.562h1.219v8.05h-1.168v-.915h-.096c-.396.648-1.143 1.037-1.94 1.01-1.57 0-2.563-1.16-2.563-2.993zm1.259 0c0 1.228.617 1.967 1.65 1.967 1.027 0 1.662-.75 1.662-1.962 0-1.206-.642-1.967-1.662-1.967-1.026 0-1.65.744-1.65 1.962zM60.658 5.714c-.106-1.038.425-2.042 1.37-2.592.945-.55 2.14-.55 3.085 0 .945.55 1.476 1.554 1.37 2.592.108 1.039-.423 2.045-1.368 2.596-.946.55-2.143.55-3.089 0-.945-.55-1.476-1.557-1.368-2.596zm4.571 0c0-1.255-.601-1.989-1.656-1.989-1.06 0-1.656.734-1.656 1.99 0 1.264.596 1.992 1.656 1.992 1.055 0 1.656-.733 1.656-1.993zM68.118 2.822h1.173v.92h.091c.317-.678 1.057-1.092 1.843-1.032.609-.043 1.205.176 1.621.595.416.419.606.992.517 1.558v3.748h-1.219v-3.46c0-.931-.431-1.394-1.333-1.394-.412-.018-.813.134-1.097.416-.283.282-.42.666-.377 1.051v3.387h-1.219v-5.79zM80.25 1.38v1.468h1.337v.963H80.25v2.977c0 .606.267.872.874.872.155 0 .31-.01.464-.027v.952c-.219.037-.44.056-.663.058-1.355 0-1.895-.447-1.895-1.563V3.81h-.98v-.962h.98V1.381h1.22zM83.252.562h1.208v3.19h.096c.332-.683 1.085-1.098 1.883-1.037.606-.03 1.194.193 1.605.61.412.418.603.985.522 1.549V8.61h-1.22V5.155c0-.924-.46-1.393-1.32-1.393-.424-.032-.842.112-1.142.395-.3.283-.45.676-.413 1.073v3.381h-1.219V.561zM95.673 7.048c-.342 1.092-1.47 1.798-2.676 1.675-.824.02-1.615-.3-2.165-.875-.549-.575-.8-1.348-.688-2.113-.11-.767.141-1.541.687-2.122.547-.58 1.335-.91 2.16-.903 1.719 0 2.755 1.1 2.755 2.919v.398h-4.36v.064c-.04.43.117.855.43 1.17.314.317.754.494 1.214.489.596.067 1.177-.21 1.47-.702h1.173zm-4.288-1.866h3.12c.03-.393-.117-.78-.406-1.065-.29-.286-.694-.443-1.114-.434-.426-.005-.836.151-1.137.433-.301.283-.468.667-.462 1.066z" transform="translate(47.8 9.884)"/>
        </g>
    </g>
</svg>
