<svg xmlns="http://www.w3.org/2000/svg" width="33" height="33" viewBox="0 0 33 33">
    <g fill="none" fill-rule="evenodd">
        <g>
            <g>
                <path d="M0 0H33V33H0z" transform="translate(-149 -2909) translate(149 2909)"/>
                <path fill="#ff6f44" fill-rule="nonzero" d="M16.5 3C23.956 3 30 9.044 30 16.5S23.956 30 16.5 30 3 23.956 3 16.5 9.044 3 16.5 3zm0 2C10.149 5 5 10.149 5 16.5S10.149 28 16.5 28 28 22.851 28 16.5 22.851 5 16.5 5z" transform="translate(-149 -2909) translate(149 2909)"/>
                <path fill="#ff6f44" fill-rule="nonzero" d="M16.444 18.933c.52 0 .83-.271.93-.813l.025-.112.023-.101c.034-.144.06-.252.08-.322.029-.101.07-.203.121-.305.053-.101.132-.213.239-.335.106-.123.248-.265.426-.426.64-.573 1.084-.98 1.332-1.223.247-.242.46-.53.64-.863.18-.334.27-.722.27-1.164 0-.563-.158-1.084-.473-1.563-.315-.479-.762-.858-1.34-1.136-.578-.28-1.245-.418-2-.418-.812 0-1.523.166-2.133.5-.609.333-1.073.753-1.39 1.261-.318.508-.477 1.01-.477 1.504 0 .24.1.462.301.668.2.206.447.309.738.309.495 0 .831-.295 1.008-.883.188-.563.417-.988.688-1.277.27-.29.692-.434 1.265-.434.49 0 .89.143 1.2.43.31.286.464.638.464 1.054 0 .214-.05.412-.152.594s-.227.348-.375.496c-.149.149-.39.369-.723.66-.38.334-.682.621-.906.864-.224.242-.404.523-.54.843-.134.32-.202.7-.202 1.137 0 .35.092.612.277.79.185.176.413.265.684.265zm.086 3.047c.307 0 .578-.104.812-.313.235-.208.352-.495.352-.86 0-.327-.112-.603-.336-.827-.224-.224-.5-.336-.828-.336-.334 0-.615.112-.844.336-.23.224-.344.5-.344.828 0 .37.119.657.356.863.237.206.514.309.832.309z" transform="translate(-149 -2909) translate(149 2909)"/>
            </g>
        </g>
    </g>
</svg>
