<svg xmlns="http://www.w3.org/2000/svg" xmlns:xlink="http://www.w3.org/1999/xlink" width="32" height="32" viewBox="0 0 32 32">
    <defs>
        <path id="00gm9ar8ia" d="M0.464 0.057L7.964 0.057 7.964 11 0.464 11z"/>
    </defs>
    <g fill="none" fill-rule="evenodd">
        <g>
            <g>
                <g>
                    <path fill="#DFDFE2" d="M5.873 8.375l4.874-2.546V3.652c0-.554-.587-.91-1.078-.653l-.713.372-5.312 2.775c-.244.127-.396.378-.396.653v6.321c0 .563.605.918 1.097.642l1.132-.634v-4.1c0-.274.153-.526.396-.653" transform="translate(-911 -3342) translate(911 3342) translate(9 8)"/>
                    <path fill="#DFDFE2" d="M2.625 5.461L7.5 2.915V.738c0-.554-.587-.91-1.078-.653l-.713.372L.396 3.232C.152 3.36 0 3.61 0 3.885V10.206c0 .563.605.918 1.097.642l1.132-.634v-4.1c0-.275.152-.526.396-.653" transform="translate(-911 -3342) translate(911 3342) translate(9 8)"/>
                    <g transform="translate(-911 -3342) translate(911 3342) translate(9 8) translate(6 5.85)">
                        <mask id="ur26k5808b" fill="#fff">
                            <use xlink:href="#00gm9ar8ia"/>
                        </mask>
                        <path fill="#DFDFE2" d="M6.886.141l-.714.373-.437.228L.86 3.288c-.244.127-.396.38-.396.653v6.321c0 .563.607.918 1.098.643l6.025-3.378c.233-.13.377-.376.377-.643V.794c0-.553-.588-.909-1.078-.653" mask="url(#ur26k5808b)"/>
                    </g>
                </g>
            </g>
        </g>
    </g>
</svg>
