<svg xmlns="http://www.w3.org/2000/svg" xmlns:xlink="http://www.w3.org/1999/xlink" width="38" height="38" viewBox="0 0 38 38">
    <defs>
        <path id="14788t9f4a" d="M0 0.043L3.326 0.043 3.326 3.368 0 3.368z"/>
        <path id="ctpz6feuoc" d="M0.307 0.733L18.491 0.733 18.491 2.733 0.307 2.733z"/>
        <path id="1jmu45yo3e" d="M0 0.358L3.326 0.358 3.326 3.684 0 3.684z"/>
        <path id="36ucwjsy7g" d="M0.307 0.049L18.491 0.049 18.491 2.049 0.307 2.049z"/>
        <path id="j1z2g3z4ri" d="M0 0.674L3.326 0.674 3.326 4 0 4z"/>
        <path id="9ssgglybik" d="M0.307 0.364L18.491 0.364 18.491 2.365 0.307 2.365z"/>
    </defs>
    <g fill="none" fill-rule="evenodd">
        <g>
            <g>
                <g>
                    <g>
                        <path d="M0 0H38V38H0z" transform="translate(-6991 -183) translate(6256 149) translate(735 34)"/>
                    </g>
                    <g>
                        <g opacity=".6" transform="translate(-6991 -183) translate(6256 149) translate(735 34) translate(7 10) translate(0 .957)">
                            <mask id="vhz5prpntb" fill="#fff">
                                <use xlink:href="#14788t9f4a"/>
                            </mask>
                            <path fill="#FFF" d="M3.326 1.705c0 .918-.745 1.663-1.663 1.663S0 2.623 0 1.705.745.042 1.663.042s1.663.745 1.663 1.663" mask="url(#vhz5prpntb)"/>
                        </g>
                        <g transform="translate(-6991 -183) translate(6256 149) translate(735 34) translate(7 10) translate(6 .957)">
                            <mask id="ndronxfmyd" fill="#fff">
                                <use xlink:href="#ctpz6feuoc"/>
                            </mask>
                            <path fill="#FFF" d="M17.491 2.733H1.307c-.552 0-1-.448-1-1s.448-1 1-1h16.184c.552 0 1 .448 1 1s-.448 1-1 1" mask="url(#ndronxfmyd)" opacity=".6"/>
                        </g>
                        <g opacity=".6" transform="translate(-6991 -183) translate(6256 149) translate(735 34) translate(7 10) translate(0 7.957)">
                            <mask id="6sj7yqe37f" fill="#fff">
                                <use xlink:href="#1jmu45yo3e"/>
                            </mask>
                            <path fill="#FFF" d="M3.326 2.021c0 .918-.745 1.663-1.663 1.663S0 2.94 0 2.021.745.358 1.663.358s1.663.745 1.663 1.663" mask="url(#6sj7yqe37f)"/>
                        </g>
                        <g opacity=".6" transform="translate(-6991 -183) translate(6256 149) translate(735 34) translate(7 10) translate(6 8.957)">
                            <mask id="51qknlupnh" fill="#fff">
                                <use xlink:href="#36ucwjsy7g"/>
                            </mask>
                            <path fill="#FFF" d="M17.491 2.049H1.307c-.552 0-1-.448-1-1s.448-1 1-1h16.184c.552 0 1 .448 1 1s-.448 1-1 1" mask="url(#51qknlupnh)"/>
                        </g>
                        <g opacity=".6" transform="translate(-6991 -183) translate(6256 149) translate(735 34) translate(7 10) translate(0 14.957)">
                            <mask id="4nhdx2ub1j" fill="#fff">
                                <use xlink:href="#j1z2g3z4ri"/>
                            </mask>
                            <path fill="#FFF" d="M3.326 2.337C3.326 3.255 2.58 4 1.663 4S0 3.255 0 2.337.745.674 1.663.674s1.663.745 1.663 1.663" mask="url(#4nhdx2ub1j)"/>
                        </g>
                        <g opacity=".6" transform="translate(-6991 -183) translate(6256 149) translate(735 34) translate(7 10) translate(6 15.957)">
                            <mask id="igx0ic3thl" fill="#fff">
                                <use xlink:href="#9ssgglybik"/>
                            </mask>
                            <path fill="#FFF" d="M17.491 2.365H1.307c-.552 0-1-.449-1-1 0-.552.448-1 1-1h16.184c.552 0 1 .448 1 1s-.448 1-1 1" mask="url(#igx0ic3thl)"/>
                        </g>
                    </g>
                </g>
            </g>
        </g>
    </g>
</svg>
