<svg xmlns="http://www.w3.org/2000/svg" width="30" height="30" viewBox="0 0 30 30">
    <g fill="none" fill-rule="evenodd">
        <g>
            <g>
                <g>
                    <path fill="#20232C" fill-opacity=".9" stroke="#FFF" stroke-opacity=".1" stroke-width=".5" d="M8.974.25h12.052c3.05 0 4.16.309 5.275.905 1.097.587 1.957 1.447 2.544 2.544.596 1.116.905 2.225.905 5.275h0v12.052c0 3.05-.309 4.16-.905 5.275-.587 1.097-1.447 1.957-2.544 2.544-1.116.596-2.225.905-5.275.905h0H8.974c-3.05 0-4.16-.309-5.275-.905-1.097-.587-1.957-1.447-2.544-2.544C.56 25.185.25 24.076.25 21.026h0V8.974c0-3.05.309-4.16.905-5.275.587-1.097 1.447-1.957 2.544-2.544C4.815.56 5.924.25 8.974.25h0z" transform="translate(-3475 -399) translate(2669 145) translate(806 254)"/>
                    <g fill="#FFF" fill-opacity=".1">
                        <path d="M12.6 0c2.32 0 4.2 1.88 4.2 4.2v2.4c0 .331-.269.6-.6.6-.331 0-.6-.269-.6-.6V4.2c0-1.59-1.238-2.892-2.803-2.994L12.6 1.2c-1.59 0-2.892 1.238-2.994 2.803L9.6 4.2l.001 1.81c.292.02.438.072.585.15.196.105.35.258.454.454.104.195.16.39.16.924v5.324c0 .535-.056.729-.16.924-.105.196-.258.35-.454.454-.195.104-.39.16-.924.16H1.538c-.535 0-.729-.056-.924-.16-.196-.105-.35-.258-.454-.454-.104-.195-.16-.39-.16-.924V7.538c0-.535.056-.729.16-.924.105-.196.258-.35.454-.454.195-.104.39-.16.924-.16H8.4L8.4 4.2c0-2.32 1.88-4.2 4.2-4.2z" transform="translate(-3475 -399) translate(2669 145) translate(806 254) translate(6.5 8)"/>
                    </g>
                </g>
            </g>
        </g>
    </g>
</svg>
