<svg xmlns="http://www.w3.org/2000/svg" width="20" height="20" viewBox="0 0 20 20">
    <g fill="none" fill-rule="evenodd">
        <g>
            <g>
                <path d="M0 0H20V20H0z" transform="translate(-175 -242) translate(175 242)"/>
                <path fill="#FFF" fill-rule="nonzero" d="M10 0c5.523 0 10 4.477 10 10s-4.477 10-10 10S0 15.523 0 10 4.477 0 10 0zM5.613 10.697h-4.19c.313 3.896 3.22 7.06 6.993 7.762-1.637-2.26-2.612-4.945-2.803-7.762zm12.964 0h-4.188c-.188 2.806-1.163 5.496-2.804 7.762 3.772-.702 6.68-3.866 6.992-7.762zm-5.587 0H7.01c.196 2.66 1.173 5.2 2.803 7.301l.187.234.187-.234c1.701-2.193 2.691-4.86 2.824-7.623l-.021.322zM8.415 1.541l-.18.035c-3.684.768-6.504 3.893-6.812 7.727h4.188C5.8 6.496 6.774 3.806 8.415 1.54zM10 1.767l-.187.235C8.178 4.11 7.2 6.656 7.008 9.302h5.982c-.196-2.659-1.173-5.198-2.803-7.3L10 1.767zm1.584-.226l.136.19c1.555 2.22 2.481 4.833 2.667 7.572h4.19c-.313-3.896-3.22-7.06-6.993-7.762z" transform="translate(-175 -242) translate(175 242)"/>
            </g>
        </g>
    </g>
</svg>
