<svg xmlns="http://www.w3.org/2000/svg" width="34" height="34" viewBox="0 0 34 34">
    <defs>
        <filter id="c7h9ba5l3a">
            <feColorMatrix in="SourceGraphic" values="0 0 0 0 0.000000 0 0 0 0 0.482353 0 0 0 0 1.000000 0 0 0 1.000000 0"/>
        </filter>
    </defs>
    <g fill="none" fill-rule="evenodd">
        <g>
            <g>
                <path fill-rule="nonzero" d="M34 0v34H0V0h34zm-1 1H1v32h32V1z" transform="translate(-5852 -985) translate(5852 985)"/>
                <path fill="#FFF" fill-opacity=".5" d="M17.36 12.6c1.318 0 2.185.2 2.945.582.76.382 1.368.946 1.804 1.676.437.73.7 1.58.796 2.894l.296 4.019c.016.22-.15.412-.37.428l-.03.001H11.199c-.22 0-.4-.18-.4-.4v-.015l.297-4.033c.096-1.314.359-2.164.796-2.894.436-.73 1.044-1.294 1.804-1.676.76-.382 1.627-.582 2.944-.582h.722zm2.279 1.815c-.366-.16-.79-.002-.966.35l-.024.053c-.133.313.002.672.303.821l.034.016.061.028c.266.134.467.314.626.56l.034.053.026.046.022.038c.132.243.227.54.292.966l.02.139.017.148.008.077.014.162.007.085.004.037c.042.332.316.587.65.605l.037.001h.058c.016 0 .032 0 .048-.002.347-.025.61-.318.604-.661l-.001-.037-.012-.15c-.076-.926-.242-1.539-.527-2.059l-.033-.057-.033-.057-.046-.074c-.295-.465-.69-.82-1.186-1.07-.012-.007-.025-.012-.037-.018z" transform="translate(-5852 -985) translate(5852 985)"/>
                <path fill="#FFF" fill-opacity=".5" d="M17 5.1c.538 0 .976.424 1 .957V9.1c0 .552-.448 1-1 1-.538 0-.976-.424-1-.957V6.1c0-.552.448-1 1-1zM10.289 23.8H23.71c.424 0 .578.04.735.119.158.078.284.194.376.343.091.15.145.3.182.722l.12 1.346c.038.44-.287.828-.727.867l-.07.003H9.673c-.442 0-.8-.358-.8-.8 0-.023 0-.047.003-.07l.119-1.346c.037-.422.09-.572.182-.722.092-.15.218-.265.376-.343.157-.078.311-.119.735-.119z" transform="translate(-5852 -985) translate(5852 985)"/>
                <path fill="#FFF" fill-opacity=".5" d="M24.637 8.263c.538 0 .976.425.999.957v3.043c0 .553-.447 1-1 1-.537 0-.976-.424-.998-.956l-.001-.044v-3c0-.552.447-1 1-1z" transform="translate(-5852 -985) translate(5852 985) rotate(45 24.637 10.763)"/>
                <path fill="#FFF" fill-opacity=".5" d="M27.8 15.9c.538 0 .976.424 1 .957V19.9c0 .552-.448 1-1 1-.538 0-.976-.424-1-.957V16.9c0-.552.448-1 1-1z" transform="translate(-5852 -985) translate(5852 985) rotate(90 27.8 18.4)"/>
                <path fill="#FFF" fill-opacity=".5" d="M6.2 15.9c.538 0 .976.424 1 .957V19.9c0 .552-.448 1-1 1-.538 0-.976-.424-1-.957V16.9c0-.552.448-1 1-1z" transform="translate(-5852 -985) translate(5852 985) rotate(-90 6.2 18.4)"/>
                <path fill="#FFF" fill-opacity=".5" d="M9.363 8.263c.538 0 .977.425 1 .957v3.043c0 .553-.447 1-1 1-.538 0-.976-.424-.999-.956V9.263c0-.552.447-1 1-1z" transform="translate(-5852 -985) translate(5852 985) rotate(-45 9.363 10.763)"/>
            </g>
        </g>
    </g>
</svg>
