<svg xmlns="http://www.w3.org/2000/svg" width="22" height="22" viewBox="0 0 22 22">
    <g fill="none" fill-rule="evenodd">
        <g>
            <g>
                <path d="M0 0H22V22H0z" transform="translate(-355 -973) translate(355 973)"/>
                <path fill="#FFF" d="M11 3.5c4.142 0 7.5 3.358 7.5 7.5 0 4.142-3.358 7.5-7.5 7.5-4.142 0-7.5-3.358-7.5-7.5 0-4.142 3.358-7.5 7.5-7.5zm-.045 9.884c-.29 0-.544.102-.747.3-.204.199-.309.452-.309.742 0 .318.11.585.33.776.206.178.452.27.726.27.27 0 .513-.094.717-.275.217-.192.325-.457.325-.771 0-.288-.103-.54-.302-.74-.2-.2-.452-.302-.74-.302zm.12-6.823c-.565 0-1.065.117-1.498.354-.43.235-.762.537-.992.904-.23.368-.349.74-.349 1.114 0 .236.097.451.277.636.185.189.42.287.686.287.458 0 .78-.283.93-.776.102-.31.227-.541.365-.689.108-.114.295-.178.58-.178.237 0 .416.064.553.191.135.124.197.266.197.445 0 .084-.019.158-.058.228-.05.091-.113.173-.187.247l-.108.104-.19.174-.145.127c-.1.087-.19.17-.274.248l-.227.22-.096.101c-.166.18-.299.388-.398.623-.103.242-.153.522-.153.838 0 .298.087.544.27.72.174.167.394.252.643.252.436 0 .74-.23.858-.637l.07-.3.035-.138c.013-.045.03-.09.055-.137.02-.04.057-.091.11-.152l.066-.072.179-.172.4-.36.224-.206.227-.216c.18-.176.333-.383.461-.62.139-.258.207-.553.207-.882 0-.416-.117-.804-.35-1.157-.23-.35-.555-.627-.97-.827-.41-.197-.876-.294-1.399-.294z" transform="translate(-355 -973) translate(355 973)"/>
            </g>
        </g>
    </g>
</svg>
