<svg xmlns="http://www.w3.org/2000/svg" xmlns:xlink="http://www.w3.org/1999/xlink" width="32" height="32" viewBox="0 0 32 32">
    <defs>
        <path id="bfr4zy9s6a" d="M0.001 0.445L16.771 0.445 16.771 13 0.001 13z"/>
    </defs>
    <g fill="none" fill-rule="evenodd">
        <g>
            <g>
                <g>
                    <path d="M0 0H36V36H0z" transform="translate(-911 -3306) translate(909 3304)"/>
                </g>
                <g>
                    <path fill="#DFDFE2" d="M10.342 4.41H6.43c-.414 0-.75.336-.75.75s.336.75.75.75h1.206v3.398c0 .414.336.75.75.75s.75-.336.75-.75V5.91h1.206c.414 0 .75-.336.75-.75s-.336-.75-.75-.75" transform="translate(-911 -3306) translate(909 3304) translate(10 11)"/>
                    <g transform="translate(-911 -3306) translate(909 3304) translate(10 11) translate(0 .555)">
                        <mask id="vci477jxnb" fill="#fff">
                            <use xlink:href="#bfr4zy9s6a"/>
                        </mask>
                        <path fill="#DFDFE2" d="M15.271 10.189c0 .723-.588 1.311-1.31 1.311H2.81c-.724 0-1.31-.588-1.31-1.311V3.256c0-.723.587-1.311 1.31-1.311h11.15c.723 0 1.31.588 1.31 1.311v6.933zM13.961.445H2.81C1.26.445 0 1.707 0 3.256v6.933C0 11.739 1.26 13 2.81 13h11.15c1.55 0 2.81-1.261 2.81-2.811V3.256c0-1.549-1.26-2.811-2.81-2.811z" mask="url(#vci477jxnb)"/>
                    </g>
                </g>
            </g>
        </g>
    </g>
</svg>
