<svg xmlns="http://www.w3.org/2000/svg" width="20" height="20" viewBox="0 0 20 20">
    <g fill="none" fill-rule="evenodd">
        <g>
            <g>
                <path d="M0 0H20V20H0z" transform="translate(-202 -371) translate(202 371)"/>
                <path fill="#1DB6FF" fill-rule="nonzero" d="M4.245 7.725c1.198-2.594 3.92-4.079 6.696-3.653 2.777.426 4.952 2.662 5.351 5.5h.071c2.009 0 3.637 1.662 3.637 3.714C20 15.337 18.372 17 16.363 17l-5.66-.001v-5.376l1.127.92c.305.25.75.2.994-.111.24-.308.192-.754-.11-1.001l-2.273-1.857c-.257-.211-.626-.211-.884 0l-2.273 1.857c-.302.247-.35.693-.11 1l.071.079c.252.239.646.26.924.034l1.125-.921v5.376L4.544 17c-2.38 0-4.342-1.872-4.53-4.27l-.011-.22c-.081-2.502 1.795-4.62 4.242-4.785z" transform="translate(-202 -371) translate(202 371)"/>
            </g>
        </g>
    </g>
</svg>
