<svg xmlns="http://www.w3.org/2000/svg" width="83" height="83" viewBox="0 0 83 83">
    <g fill="none" fill-rule="evenodd">
        <g>
            <g>
                <path d="M0 0H83V83H0z" transform="translate(-213 -4191) translate(213 4191)"/>
                <g>
                    <path fill="#FF731B" stroke="#FFF" stroke-opacity=".2" stroke-width="2.371" d="M53.981 1.186c9.755 0 13.309.973 16.88 2.883 3.479 1.86 6.21 4.591 8.07 8.07 1.91 3.571 2.883 7.125 2.883 16.88h0V53.98c0 9.755-.973 13.309-2.883 16.88-1.86 3.479-4.591 6.21-8.07 8.07-3.571 1.91-7.125 2.883-16.88 2.883h0H29.02c-9.755 0-13.309-.973-16.88-2.883-3.479-1.86-6.21-4.591-8.07-8.07-1.875-3.506-2.847-6.995-2.882-16.354h0l-.001-25.488c0-9.755.973-13.309 2.883-16.88 1.86-3.479 4.591-6.21 8.07-8.07 3.506-1.875 6.995-2.847 16.354-2.882h0z" transform="translate(-213 -4191) translate(213 4191)"/>
                    <g>
                        <path d="M0 0H57.848V57.848H0z" transform="translate(-213 -4191) translate(213 4191) translate(12.576 12.576)"/>
                        <g fill="#FFF" transform="translate(-213 -4191) translate(213 4191) translate(12.576 12.576) translate(6.036 10.815)">
                            <circle cx="7.797" cy="7.797" r="7.797"/>
                            <path d="M26.296 0h13.38c2.06 0 2.807.214 3.56.617.753.403 1.344.994 1.746 1.747.403.753.618 1.5.618 3.559V9.67c0 2.06-.215 2.806-.618 3.56-.402.752-.993 1.343-1.746 1.746-.753.402-1.5.617-3.56.617h-13.38c-2.06 0-2.807-.215-3.56-.617-.753-.403-1.343-.994-1.746-1.747-.403-.753-.617-1.5-.617-3.559V5.923c0-2.06.214-2.806.617-3.56.403-.752.993-1.343 1.746-1.746S24.236 0 26.296 0z"/>
                            <path d="M5.923 20.373h13.38c2.06 0 2.807.214 3.56.617.753.403 1.344.993 1.747 1.746.402.753.617 1.5.617 3.56v3.748c0 2.06-.215 2.806-.617 3.559-.403.753-.994 1.344-1.747 1.747-.753.402-1.5.617-3.56.617H5.924c-2.06 0-2.806-.215-3.56-.617-.752-.403-1.343-.994-1.746-1.747-.403-.753-.617-1.5-.617-3.56v-3.747c0-2.06.214-2.807.617-3.56.403-.753.994-1.343 1.747-1.746.753-.403 1.5-.617 3.559-.617z" transform="rotate(-180 12.613 28.17)"/>
                            <path d="M35.929 20.373h3.748c2.06 0 2.806.214 3.559.617.753.403 1.344.993 1.746 1.746.403.753.618 1.5.618 3.56v3.748c0 2.06-.215 2.806-.618 3.559-.402.753-.993 1.344-1.746 1.747-.753.402-1.5.617-3.56.617H35.93c-2.06 0-2.807-.215-3.56-.617-.753-.403-1.344-.994-1.746-1.747-.403-.753-.617-1.5-.617-3.56v-3.747c0-2.06.214-2.807.617-3.56.402-.753.993-1.343 1.746-1.746s1.5-.617 3.56-.617z" transform="rotate(-180 37.803 28.17)"/>
                        </g>
                    </g>
                </g>
            </g>
        </g>
    </g>
</svg>
