<svg xmlns="http://www.w3.org/2000/svg" width="25" height="25" viewBox="0 0 25 25">
    <g fill="none" fill-rule="evenodd">
        <g>
            <g>
                <path d="M0 0H25V25H0z" transform="translate(-231 -284) translate(231 284)"/>
                <g fill="#FFF" fill-rule="nonzero">
                    <path d="M19 12c.513 0 .936.386.993.883L20 13v4c0 1.598-1.249 2.904-2.824 2.995L17 20H3C1.402 20 .096 18.751.005 17.176L0 17v-4c0-.552.448-1 1-1 .513 0 .936.386.993.883L2 13v4c0 .513.386.936.883.993L3 18h14c.513 0 .936-.386.993-.883L18 17v-4c0-.552.448-1 1-1zM10 0c.513 0 .936.386.993.883L11 1v9.585l3.293-3.292c.36-.36.928-.388 1.32-.083l.094.083c.36.36.388.928.083 1.32l-.083.094-5 5c-.028.029-.059.055-.09.08l.09-.08c-.035.036-.073.068-.112.097-.024.018-.049.034-.074.05l-.037.021c-.02.011-.04.022-.06.031l-.053.023-.06.021-.045.014-.065.016-.053.009c-.02.003-.04.006-.062.007-.018.002-.035.003-.053.003L10 14h-.032l-.054-.004L10 14c-.05 0-.1-.004-.149-.011l-.052-.01c-.022-.004-.043-.009-.065-.015l-.046-.014-.06-.021-.051-.023-.061-.03-.037-.022c-.025-.016-.05-.032-.074-.05l-.018-.014c-.035-.028-.066-.054-.094-.083l-5-5c-.39-.39-.39-1.024 0-1.414.36-.36.928-.388 1.32-.083l.094.083L9 10.585V1c0-.552.448-1 1-1z" transform="translate(-231 -284) translate(231 284) translate(2.5 2)"/>
                </g>
            </g>
        </g>
    </g>
</svg>
