<svg xmlns="http://www.w3.org/2000/svg" width="20" height="20" viewBox="0 0 20 20">
    <g fill="none" fill-rule="evenodd">
        <g fill="#FFF" fill-rule="nonzero">
            <g>
                <path d="M17.143 0C18.72 0 20 1.28 20 2.857c0 1.578-1.28 2.857-2.857 2.857-.86 0-1.632-.38-2.156-.982L5.65 9.4c.042.194.063.394.063.6 0 .206-.021.406-.063.6l9.336 4.668c.524-.602 1.295-.982 2.156-.982 1.578 0 2.857 1.279 2.857 2.857C20 18.72 18.72 20 17.143 20c-1.578 0-2.857-1.28-2.857-2.857 0-.358.065-.7.185-1.015l-9.199-4.6c-.507.799-1.399 1.33-2.415 1.33C1.28 12.857 0 11.577 0 10s1.28-2.857 2.857-2.857c1.016 0 1.908.53 2.415 1.33l9.2-4.601c-.12-.315-.186-.657-.186-1.015C14.286 1.28 15.565 0 17.143 0zm0 15.286c-1.026 0-1.857.831-1.857 1.857S16.117 19 17.143 19 19 18.169 19 17.143s-.831-1.857-1.857-1.857zM2.857 8.143C1.831 8.143 1 8.974 1 10s.831 1.857 1.857 1.857S4.714 11.026 4.714 10s-.831-1.857-1.857-1.857zM17.143 1c-1.026 0-1.857.831-1.857 1.857s.831 1.857 1.857 1.857S19 3.883 19 2.857 18.169 1 17.143 1z" transform="translate(-124 -272) translate(124 272)"/>
            </g>
        </g>
    </g>
</svg>
