<svg xmlns="http://www.w3.org/2000/svg" width="34" height="34" viewBox="0 0 34 34">
    <g fill="none" fill-rule="evenodd">
        <g>
            <g>
                <g>
                    <path d="M0 0H34V34H0z" transform="translate(-215 -1544) rotate(-90 896.5 681.5) rotate(90 17 17)"/>
                </g>
                <g fill="#FFF" fill-opacity=".5">
                    <path d="M14.144 11.598l.678.678c.31.31.446.539.522.786.075.248.075.501 0 .749-.076.247-.211.475-.522.785l-.225.226c-.31.31-.539.446-.786.521-.248.075-.501.075-.749 0-.247-.075-.475-.21-.785-.521l-.679-.678c-.156-.157-.156-.41 0-.566l1.98-1.98c.156-.156.41-.156.566 0zM.36.05c.153-.067.327-.067.48 0l2.845 1.245c.183.08.349.193.49.334l8.554 8.555c.157.156.157.41 0 .565l-1.98 1.98c-.156.157-.409.157-.565 0L1.629 4.175c-.14-.141-.254-.308-.334-.49L.05.84C-.082.537.056.183.36.05z" transform="translate(-215 -1544) rotate(-90 896.5 681.5) translate(9.557 9.634)"/>
                </g>
            </g>
        </g>
    </g>
</svg>
