<svg xmlns="http://www.w3.org/2000/svg" width="33" height="33" viewBox="0 0 33 33">
    <g fill="none" fill-rule="evenodd">
        <g>
            <g>
                <path fill="#FEBD03" stroke="#FFF" stroke-opacity=".2" d="M11.537.5h9.926c3.87 0 5.28.385 6.697 1.143 1.378.737 2.46 1.819 3.197 3.197.758 1.417 1.143 2.827 1.143 6.697h0v9.926c0 3.87-.385 5.28-1.143 6.697-.737 1.378-1.819 2.46-3.197 3.197-1.417.758-2.827 1.143-6.697 1.143h0-9.926c-3.87 0-5.28-.385-6.697-1.143-1.378-.737-2.46-1.819-3.197-3.197C.885 26.743.5 25.333.5 21.463h0v-9.926c0-3.87.385-5.28 1.143-6.697.737-1.378 1.819-2.46 3.197-3.197C6.257.885 7.667.5 11.537.5h0z" transform="translate(-532 -682) translate(532 682)"/>
                <g>
                    <path fill="#FFF" d="M18.293 2.4c.802 0 1.093.084 1.386.24.293.157.524.388.68.68.157.294.241.585.241 1.387v13.586c0 .802-.084 1.093-.24 1.386-.157.293-.388.524-.68.68-.294.157-.585.241-1.387.241H4.707c-.802 0-1.093-.084-1.386-.24-.293-.157-.524-.388-.68-.68-.157-.294-.241-.585-.241-1.387V4.707c0-.802.084-1.093.24-1.386.157-.293.388-.524.68-.68.294-.157.585-.241 1.387-.241h13.586zm-6.613 7.62H9.904v5.868c0 1.236-.408 1.644-1.188 1.644-.516 0-.972-.252-1.32-.924l-1.224.9c.612 1.056 1.464 1.56 2.76 1.56 1.908 0 2.748-1.368 2.748-3.036V10.02zm4.432-.168c-1.788 0-3.072 1.116-3.072 2.568 0 1.296.9 2.004 1.8 2.388l1.188.504c.804.348 1.332.528 1.332 1.2 0 .624-.492 1.02-1.416 1.02-.78 0-1.62-.396-2.256-.984l-1.02 1.224c.864.828 2.04 1.296 3.24 1.296 2.052 0 3.264-1.236 3.264-2.688 0-1.296-.684-1.968-1.788-2.412l-1.164-.492c-.756-.288-1.392-.564-1.392-1.164 0-.588.504-.936 1.284-.936.732 0 1.32.264 1.884.732l.9-1.116c-.72-.732-1.728-1.14-2.784-1.14z" transform="translate(-532 -682) translate(532 682) translate(5 5)"/>
                    <path d="M0 0H23V23H0z" transform="translate(-532 -682) translate(532 682) translate(5 5)"/>
                </g>
            </g>
        </g>
    </g>
</svg>
