<?xml version="1.0" encoding="UTF-8"?>
<svg width="15px" height="13px" viewBox="0 0 15 13" version="1.1" xmlns="http://www.w3.org/2000/svg" xmlns:xlink="http://www.w3.org/1999/xlink">
    <!-- Generator: sketchtool 64 (101010) - https://sketch.com -->
    <title>3C3ADA0D-23A6-47E0-ADEA-98016CCBB30D</title>
    <desc>Created with sketchtool.</desc>
    <g id="design-system" stroke="none" stroke-width="1" fill="none" fill-rule="evenodd">
        <g id="icon" transform="translate(-89.000000, -1518.000000)" fill="#858997" fill-rule="nonzero">
            <g id="image-copy" transform="translate(89.000000, 1518.000000)">
                <path d="M13.4378571,0.15275 L1.56214286,0.15275 C0.699221895,0.153348019 0,0.860824156 0,1.73333333 L0,11.2666667 C0,12.1391758 0.699221895,12.846652 1.56214286,12.84725 L13.4378571,12.84725 C14.3007781,12.846652 15,12.1391758 15,11.2666667 L15,1.73333333 C15,0.860824156 14.3007781,0.153348019 13.4378571,0.15275 Z M12.1392857,10.1671035 L2.925,10.1671035 C2.68977778,10.1667773 2.47852151,10.0214656 2.3918547,9.80036159 C2.30518789,9.57925758 2.36063488,9.32706933 2.53178571,9.16391667 L5.91107143,4.63666667 C6.13194772,4.42739352 6.47555228,4.42739352 6.69642857,4.63666667 L8.61857143,7.16625 C8.84510629,7.37916936 9.19785118,7.37197855 9.41571429,7.15 L9.80892857,6.75241667 C10.0322176,6.52735649 10.3934967,6.52735649 10.6167857,6.75241667 L12.5453571,9.17366667 C12.712262,9.33912624 12.7630877,9.59048137 12.6738059,9.8089012 C12.5845241,10.027321 12.3730205,10.1690497 12.1392857,10.1671035 L12.1392857,10.1671035 Z" id="Image"></path>
            </g>
        </g>
    </g>
</svg>