<svg xmlns="http://www.w3.org/2000/svg" width="20" height="20" viewBox="0 0 20 20">
    <g fill="#FFF" opacity=".607">
        <path d="M14.4 0H5.49C2.462 0 0 2.462 0 5.489V14.4c0 3.026 2.462 5.489 5.489 5.489H14.4c3.026 0 5.489-2.463 5.489-5.49V5.49C19.89 2.462 17.427 0 14.4 0zm3.725 14.4c0 2.054-1.67 3.725-3.724 3.725H5.489c-2.054 0-3.724-1.67-3.724-3.724V5.489c0-2.054 1.67-3.724 3.724-3.724H14.4c2.053 0 3.724 1.67 3.724 3.724V14.4z"/>
        <path d="M9.945 4.82c-2.826 0-5.125 2.3-5.125 5.125 0 2.826 2.299 5.125 5.125 5.125s5.125-2.3 5.125-5.125c0-2.826-2.3-5.125-5.125-5.125zm0 8.485c-1.853 0-3.36-1.507-3.36-3.36s1.507-3.36 3.36-3.36 3.36 1.507 3.36 3.36-1.507 3.36-3.36 3.36zM15.285 3.324c-.34 0-.674.137-.914.378-.242.24-.38.575-.38.916 0 .34.139.674.38.915.24.24.574.379.914.379.341 0 .674-.139.915-.379.241-.241.379-.575.379-.915 0-.341-.138-.676-.379-.916-.24-.24-.574-.378-.915-.378z"/>
    </g>
</svg>
