<svg xmlns="http://www.w3.org/2000/svg" xmlns:xlink="http://www.w3.org/1999/xlink" width="175" height="175" viewBox="0 0 175 175">
    <defs>
        <filter id="ad5dtxhh3a" width="128.6%" height="122.2%" x="-14.3%" y="-9.7%" filterUnits="objectBoundingBox">
            <feOffset dy="1" in="SourceAlpha" result="shadowOffsetOuter1"/>
            <feGaussianBlur in="shadowOffsetOuter1" result="shadowBlurOuter1" stdDeviation="2.5"/>
            <feColorMatrix in="shadowBlurOuter1" values="0 0 0 0 0 0 0 0 0 0 0 0 0 0 0 0 0 0 0.0986396416 0"/>
        </filter>
        <path id="5kwhc8bw2b" d="M55.05 61.264c-1.463 2.588-2.841 4.795-3.995 7.114-2.56 5.142-.98 10.615 3.697 12.913 5.882 2.89 15.855 1.167 16.873-9.325.694-7.145-2.187-12.866-7.962-17.1-.87-.637-1.907-1.048-3.145-1.714-.442 4.459.428 8.768-2.052 12.635l-3.416-4.523m-6.12-17.08c.72-2.846.28-5.188-.74-7.274-1.343-2.745-3.05-5.316-4.672-7.917-.782-1.253-1.836-2.342-2.57-3.619-1.246-2.17-.486-4.041 1.9-4.821.854-.28 1.791-.424 2.69-.424 16.143 0 34.821 9.279 41.083 27.92 2.598 7.733 3.117 15.657 1.075 23.579-3.047 11.815-12.633 19.655-24.862 20.558-5.39.398-10.7.01-15.794-2.024-9.265-3.698-14.447-11.695-14.063-21.675.16-4.143.963-8.137 2.618-11.944 2.012-4.63 3.645-9.276 2.996-14.521-.343-2.774 1.54-4.11 4.161-2.951 1.89.836 3.411 2.518 5.077 3.847.317.253.544.618 1.1 1.267"/>
    </defs>
    <g fill="none" fill-rule="evenodd">
        <g>
            <g transform="translate(-392 -1133) translate(392 1133)">
                <circle cx="87.5" cy="87.5" r="75" fill="#FF5B44" stroke="#FFF" stroke-opacity=".05" stroke-width="5"/>
                <g>
                    <g transform="translate(27 27)">
                        <use fill="#000" filter="url(#ad5dtxhh3a)" xlink:href="#5kwhc8bw2b"/>
                        <use fill="#FFF" xlink:href="#5kwhc8bw2b"/>
                    </g>
                    <path d="M0 0H121V121H0z" transform="translate(27 27)"/>
                </g>
                <path d="M0 0H175V175H0z"/>
            </g>
        </g>
    </g>
</svg>
