<svg xmlns="http://www.w3.org/2000/svg" xmlns:xlink="http://www.w3.org/1999/xlink" width="175" height="175" viewBox="0 0 175 175">
    <defs>
        <filter id="t38ebomeqa" width="118.7%" height="125.2%" x="-9.4%" y="-11%" filterUnits="objectBoundingBox">
            <feOffset dy="1" in="SourceAlpha" result="shadowOffsetOuter1"/>
            <feGaussianBlur in="shadowOffsetOuter1" result="shadowBlurOuter1" stdDeviation="2.5"/>
            <feColorMatrix in="shadowBlurOuter1" values="0 0 0 0 0 0 0 0 0 0 0 0 0 0 0 0 0 0 0.0986396416 0"/>
        </filter>
        <path id="9ekf7vd1qb" d="M55.493 52.792V57h10.466v-4.227c-3.497-1.123-6.828-.949-10.466.019M84.67 86.713c3.326-.015 5.774-.671 8.005-2.085 6.576-4.167 6.57-13.096-.01-17.257-4.664-2.95-11.995-2.766-16.472.412-5.874 4.17-5.875 12.3.024 16.447 2.594 1.824 5.524 2.58 8.453 2.483m-47.931-.002c3.16.052 6.076-.735 8.639-2.616 5.553-4.077 5.633-11.864.187-16.058-4.752-3.66-12.809-3.739-17.581-.172-5.59 4.178-5.556 12.224.093 16.32 2.576 1.869 5.504 2.615 8.662 2.526m18.58-44.65h10.698c.06-.873.121-1.642.163-2.412.303-5.495 2.829-8.93 7.483-10.173 5.158-1.376 10.518.494 13.271 4.707.68 1.04 1.212 2.193 1.703 3.34 4.26 9.938 8.515 19.878 12.716 29.841.704 1.668 1.354 3.41 1.671 5.182 2.07 11.548-6.262 17.923-13.88 19.372-5.278 1.003-10.455.44-15.143-2.527-4.98-3.151-7.723-7.612-7.814-13.574-.04-2.608-.007-5.218-.007-8.014-3.703-1.434-7.172-1.176-10.993.147 0 2.295.013 4.551-.002 6.807-.057 8.616-4.703 14.727-13.098 16.863-5.74 1.461-11.32.876-16.438-2.327-6.44-4.03-9.078-11.09-6.896-18.381.423-1.412.98-2.791 1.558-4.15 4.093-9.639 8.202-19.27 12.321-28.897.492-1.15.985-2.315 1.633-3.378 3.3-5.418 11.289-7.18 16.565-3.668 2.641 1.76 3.968 4.321 4.276 7.432.122 1.23.142 2.47.214 3.81"/>
    </defs>
    <g fill="none" fill-rule="evenodd">
        <g>
            <g>
                <path fill="#37DB62" stroke="#FFF" stroke-opacity=".05" stroke-width="5" d="M78.75 12.939c5.415-3.127 12.085-3.127 17.5 0h0l51.447 29.703c2.707 1.563 4.895 3.788 6.406 6.405 1.51 2.617 2.344 5.624 2.344 8.75h0v59.406c0 6.252-3.335 12.03-8.75 15.155h0L96.25 162.061c-5.415 3.127-12.085 3.127-17.5 0h0l-51.447-29.703c-5.415-3.126-8.75-8.903-8.75-15.155h0V57.797c0-3.126.834-6.133 2.344-8.75 1.511-2.617 3.699-4.842 6.406-6.405h0z" transform="translate(-617 -835) translate(617 835)"/>
                <g>
                    <g transform="translate(-617 -835) translate(617 835) translate(27 26)">
                        <use fill="#000" filter="url(#t38ebomeqa)" xlink:href="#9ekf7vd1qb"/>
                        <use fill="#FFF" xlink:href="#9ekf7vd1qb"/>
                    </g>
                    <path d="M0 0H121V121H0z" transform="translate(-617 -835) translate(617 835) translate(27 26)"/>
                </g>
                <path d="M0 0H175V175H0z" transform="translate(-617 -835) translate(617 835)"/>
            </g>
        </g>
    </g>
</svg>
