<svg xmlns="http://www.w3.org/2000/svg" xmlns:xlink="http://www.w3.org/1999/xlink" width="175" height="175" viewBox="0 0 175 175">
    <defs>
        <filter id="jiocpv3eda" width="136.9%" height="132.4%" x="-18.5%" y="-16.2%" filterUnits="objectBoundingBox">
            <feOffset dy="1" in="SourceAlpha" result="shadowOffsetOuter1"/>
            <feGaussianBlur in="shadowOffsetOuter1" result="shadowBlurOuter1" stdDeviation="2.5"/>
            <feColorMatrix in="shadowBlurOuter1" result="shadowMatrixOuter1" values="0 0 0 0 0 0 0 0 0 0 0 0 0 0 0 0 0 0 0.0986396416 0"/>
            <feMerge>
                <feMergeNode in="shadowMatrixOuter1"/>
                <feMergeNode in="SourceGraphic"/>
            </feMerge>
        </filter>
        <path id="wyfjh9n0tb" d="M0.099 0.222L64.006 0.222 64.006 30.802 0.099 30.802z"/>
    </defs>
    <g fill="none" fill-rule="evenodd">
        <g>
            <g>
                <path fill="#00DBAC" stroke="#FFF" stroke-opacity=".05" stroke-width="5" d="M87.632 156.703c19.836-14.009 36.78-32.46 49.641-54.738 12.862-22.278 20.37-46.178 22.92-70.208-22.09-9.81-46.54-15.257-72.263-15.257-25.724 0-50.176 5.448-72.262 15.256 2.55 24.035 10.057 47.933 22.919 70.21 12.797 22.164 29.634 40.542 49.045 54.737z" transform="translate(-1067 -835) translate(1067 835)"/>
                <g>
                    <g filter="url(#jiocpv3eda)" transform="translate(-1067 -835) translate(1067 835) translate(27 26) translate(29.624 12.12)">
                        <g>
                            <mask id="t2bguanimc" fill="#fff">
                                <use xlink:href="#wyfjh9n0tb"/>
                            </mask>
                            <path fill="#FFF" d="M28.496 30.802c-3.105-.424-9.113-1-15.008-2.157-2.825-.554-5.65-1.872-8.097-3.437-5.909-3.78-6.955-10.71-2.705-16.31.885-1.167 1.966-2.225 3.106-3.15C9.03 3.127 12.794 1.522 16.784.445c2.024-.546 3.176-.078 3.72 1.317.585 1.501-.132 2.726-2.199 3.595-1.676.705-3.468 1.178-5.059 2.033-1.786.96-3.619 2.013-5.051 3.414-3.754 3.672-3.214 8.3 1.408 10.742 2.566 1.356 5.491 2.315 8.363 2.76 10.782 1.673 21.567 1.53 32.216-1.073 2.178-.533 4.348-1.422 6.28-2.558 2.512-1.478 2.38-3.445-.188-4.938-3.337-1.941-7.102-2.367-10.853-2.647-8.055-.6-15.905.387-23.489 3.264-1.06.402-2.151.8-3.263.96-1.337.195-2.522-.258-2.968-1.7-.388-1.252.136-2.266 1.183-2.932.76-.484 1.614-.844 2.462-1.159 10.96-4.062 22.198-4.855 33.587-2.421 2.707.579 5.44 1.828 7.73 3.398 4.331 2.971 4.406 7.79.505 11.312-2.422 2.187-5.386 3.363-8.462 4.278-6.947 2.067-14.102 2.458-24.21 2.713" mask="url(#t2bguanimc)"/>
                        </g>
                        <path fill="#FFF" d="M32.535 42.154c-7.36-.407-14.587-1.184-21.682-3.009-.867-.222-1.883-.434-2.47-1.014-.541-.536-.973-1.68-.764-2.337.208-.65 1.234-1.343 1.979-1.444.956-.129 1.994.293 2.988.515 13.91 3.105 27.773 3.051 41.577-.632 1.207-.322 2.373-.8 3.58-1.13 1.328-.364 2.56-.215 3.103 1.267.545 1.488-.29 2.543-1.567 2.949-3.463 1.102-6.93 2.34-10.495 2.934-5.373.897-10.829 1.293-16.25 1.901M34.374 52.915c-2.946-.243-5.893-.47-8.835-.743-.67-.063-1.51-.092-1.943-.492-.592-.546-1.245-1.472-1.174-2.164.07-.674.91-1.488 1.61-1.814.642-.298 1.552-.067 2.338 0 9.957.841 19.793.327 29.42-2.587.868-.263 1.754-.5 2.648-.638 1.272-.194 2.306.247 2.648 1.57.34 1.316-.389 2.178-1.534 2.692-.617.277-1.287.44-1.936.644-7.561 2.37-15.328 3.321-23.242 3.532M38.333 63.672c-2.147-.195-4.296-.38-6.442-.587-1.435-.14-2.436-.876-2.322-2.382.115-1.53 1.275-1.954 2.682-1.995 4.645-.136 9.291-.279 13.932-.51 1.234-.062 2.445-.507 3.68-.674 1.392-.188 2.81-.242 3.33 1.508.431 1.452-.335 2.692-2.362 3.058-4.12.744-8.286 1.233-12.434 1.827-.02-.082-.043-.163-.064-.245M33.034 69.53c1.132 0 2.311-.197 3.377.066.734.182 1.824.99 1.835 1.536.016.815-.724 2.316-1.237 2.358-2.786.228-5.61.205-8.4-.005-.513-.039-1.251-1.307-1.32-2.059-.107-1.181.88-1.774 2.01-1.836 1.242-.068 2.49-.016 3.736-.016v-.045"/>
                    </g>
                    <path d="M0 0H121V121H0z" transform="translate(-1067 -835) translate(1067 835) translate(27 26)"/>
                </g>
                <path d="M0 0H175V175H0z" transform="translate(-1067 -835) translate(1067 835)"/>
            </g>
        </g>
    </g>
</svg>
