<svg xmlns="http://www.w3.org/2000/svg" xmlns:xlink="http://www.w3.org/1999/xlink" width="175" height="175" viewBox="0 0 175 175">
    <defs>
        <filter id="92afs81mza" width="129.8%" height="121.4%" x="-14.9%" y="-9.4%" filterUnits="objectBoundingBox">
            <feOffset dy="1" in="SourceAlpha" result="shadowOffsetOuter1"/>
            <feGaussianBlur in="shadowOffsetOuter1" result="shadowBlurOuter1" stdDeviation="2.5"/>
            <feColorMatrix in="shadowBlurOuter1" values="0 0 0 0 0 0 0 0 0 0 0 0 0 0 0 0 0 0 0.0986396416 0"/>
        </filter>
        <path id="xtm3qvn4mb" d="M81.586 48.925c-.033-11.806-9.048-20.912-20.688-20.897-11.654.015-20.726 9.175-20.704 20.906.02 11.695 9.153 20.944 20.723 20.988 11.467.044 20.7-9.337 20.669-20.997M60.83 83.484c-3.263 3.22-6.166 6.1-9.087 8.961-1.137 1.115-2.282 2.228-3.482 3.275-.993.867-2.145 1.33-3.456.69-1.308-.64-1.608-1.825-1.61-3.147l-.024-15.382c-.002-1.026-.079-2.058.011-3.075.313-3.532-.649-6.273-3.108-9.182-9.19-10.873-7.728-26.988 2.857-36.675 10.389-9.506 26.374-9.227 36.575.638 10.165 9.832 11.087 25.779 1.815 36.502-1.983 2.292-2.671 4.453-2.595 7.325.16 6.035.051 12.077.044 18.116-.001.91.053 1.84-.106 2.727-.386 2.144-2.144 3.06-4.069 2.038-.982-.522-1.831-1.343-2.638-2.134-2.768-2.71-5.477-5.48-8.238-8.197-.79-.777-1.68-1.45-2.889-2.48"/>
    </defs>
    <g fill="none" fill-rule="evenodd">
        <g>
            <g>
                <path fill="#4390F6" stroke="#FFF" stroke-opacity=".05" stroke-width="5" d="M78.75 13.939c5.415-3.127 12.085-3.127 17.5 0h0l51.447 29.703c2.707 1.563 4.895 3.788 6.406 6.405 1.51 2.617 2.344 5.624 2.344 8.75h0v59.406c0 6.252-3.335 12.03-8.75 15.155h0L96.25 163.061c-5.415 3.127-12.085 3.127-17.5 0h0l-51.447-29.703c-5.415-3.126-8.75-8.903-8.75-15.155h0V58.797c0-3.126.834-6.133 2.344-8.75 1.511-2.617 3.699-4.842 6.406-6.405h0z" transform="translate(-1067 -1133) translate(1067 1133)"/>
                <g>
                    <g transform="translate(-1067 -1133) translate(1067 1133) translate(27 27)">
                        <use fill="#000" filter="url(#92afs81mza)" xlink:href="#xtm3qvn4mb"/>
                        <use fill="#FFF" xlink:href="#xtm3qvn4mb"/>
                    </g>
                    <path d="M0 0H121V121H0z" transform="translate(-1067 -1133) translate(1067 1133) translate(27 27)"/>
                </g>
                <path d="M0 0H175V175H0z" transform="translate(-1067 -1133) translate(1067 1133)"/>
            </g>
        </g>
    </g>
</svg>
