<svg xmlns="http://www.w3.org/2000/svg" width="175" height="175" viewBox="0 0 175 175">
    <g fill="none" fill-rule="evenodd">
        <g>
            <g transform="translate(-842 -835) translate(842 835)">
                <circle cx="87.5" cy="86.5" r="75" fill="#FF7D3A" stroke="#FFF" stroke-opacity=".05" stroke-width="5"/>
                <g>
                    <g fill="#FFF">
                        <path d="M27.739 59.912c1.406-.128 2.519-.246 3.265-1.686l-3.618-1.918.353 3.604m20.855-3.116l-.71-.322c-1.03.65-2.062 1.298-3.546 2.231l3.637 1.429.62-3.338m6.428-16.55v4.896l3.223-2.52-3.223-2.376M31.671 26.704l-4.01-1.735c-.11 1.52-.192 2.629-.31 4.236l4.32-2.501m16.5-1.785l-3.901 1.815 4.424 2.522-.523-4.337M17.54 42.69l3.594 2.456-.26-4.842-3.334 2.386m29.475 23.14c-2.803-1.222-5.276-2.357-7.803-3.362-.669-.266-1.6-.387-2.235-.134-2.718 1.082-5.37 2.329-8.242 3.603.67 2.14 1.202 4.105 1.909 6.003.513 1.378 1.139 2.744 1.922 3.984 3.143 4.97 7.613 4.972 10.765 0 1.908-3.008 2.97-6.353 3.684-10.094m6.42-3.688c3.754 1.305 7.263 2.092 10.94 1.913 5.667-.277 7.919-4.015 5.402-9.078-1.688-3.395-4.224-6.112-7.153-8.593-2.4 1.763-4.73 3.379-6.933 5.153-.632.509-1.154 1.435-1.281 2.24-.424 2.675-.645 5.382-.976 8.365m-40.14-15.78c-3.19 2.75-5.832 5.566-7.47 9.138-2.048 4.465.008 8.023 4.871 8.493 4.023.388 7.882-.41 11.759-1.912-.2-1.77-.497-3.442-.556-5.12-.11-3.131-.941-5.685-4.048-7.212-1.6-.786-2.919-2.143-4.556-3.387m49.36-7.356c3.05-2.693 5.779-5.533 7.402-9.234 1.94-4.425.155-7.735-4.602-8.406-4.11-.58-8.043.316-11.922 1.863.323 2.91.552 5.611.964 8.285.126.818.564 1.79 1.183 2.294 2.188 1.78 4.517 3.39 6.975 5.198M22.37 23.412c-3.674-1.75-8.927-2.616-12.073-2.05-4.617.833-6.438 3.939-4.6 8.193 1.646 3.813 4.442 6.749 7.562 9.445 2.43-1.793 4.686-3.33 6.773-5.072.684-.57 1.17-1.627 1.327-2.534.445-2.572.672-5.18 1.01-7.982m6.412-4.007c2.778 1.224 5.45 2.43 8.153 3.566.48.203 1.163.317 1.614.131 2.908-1.198 5.778-2.49 8.82-3.822-.87-2.677-1.578-5.07-2.44-7.405-.428-1.162-1.05-2.28-1.74-3.313-3.066-4.578-7.357-4.638-10.416-.08-2.175 3.242-3.326 6.904-3.991 10.923m-2.059 16.75c0 3.891-.087 7.645.068 11.39.034.836.728 1.938 1.449 2.403 2.675 1.727 5.445 3.327 8.282 4.774.765.39 2.06.406 2.82.02 2.841-1.44 5.55-3.135 8.33-4.697 1.107-.623 1.597-1.472 1.577-2.767-.055-3.638-.019-7.277-.019-11.075-3.33-1.93-6.586-3.79-9.811-5.703-.982-.582-1.833-.648-2.85-.043-3.222 1.918-6.487 3.763-9.846 5.699m-3.276-18.437c.954-2.607 1.564-4.943 2.64-7.04 1.287-2.508 2.674-5.081 4.546-7.15 4.299-4.75 10.24-4.642 14.7-.057 2.516 2.584 4.046 5.76 5.295 9.082.595 1.585 1.091 3.206 1.723 5.082 2.39-.386 4.703-.988 7.036-1.079 2.929-.113 5.958-.203 8.793.403 5.868 1.255 8.725 6.375 7.269 12.207-.878 3.514-2.806 6.45-5.03 9.218-1.134 1.41-2.363 2.744-3.69 4.274 1.22 1.431 2.414 2.776 3.545 4.173 2.383 2.941 4.437 6.06 5.277 9.84 1.142 5.14-1.27 9.65-6.227 11.411-3.878 1.378-7.865 1.022-11.829.475-1.672-.231-3.316-.667-5.183-1.053-.376 1.029-.642 1.999-1.073 2.888-1.529 3.163-2.732 6.573-4.755 9.39-4.79 6.67-12.21 6.654-17.072-.001-1.915-2.621-3.092-5.79-4.526-8.748-.488-1.007-.733-2.132-1.179-3.47-1.583.29-3.097.706-4.633.819-3.166.232-6.38.674-9.51.366-7.58-.747-11.38-6.912-8.607-14.01 1.097-2.811 2.98-5.34 4.667-7.889.931-1.406 2.2-2.587 3.472-4.048-.552-.706-1.127-1.361-1.614-2.076-2.105-3.09-4.646-5.985-6.178-9.34-3.39-7.43.027-13.345 8.064-14.855 3.674-.69 7.257-.05 10.852.548.995.165 1.98.39 3.227.64" transform="translate(27 26) translate(23 18)"/>
                        <path d="M31.001 42.07c-.073-3.859 2.966-7.02 6.796-7.07 3.641-.047 6.79 2.954 6.938 6.613.158 3.87-2.821 7.088-6.65 7.186-3.94.101-7.01-2.815-7.084-6.729" transform="translate(27 26) translate(23 18)"/>
                    </g>
                    <path d="M0 0H121V121H0z" transform="translate(27 26)"/>
                </g>
                <path d="M0 0H175V175H0z"/>
            </g>
        </g>
    </g>
</svg>
