<svg xmlns="http://www.w3.org/2000/svg" xmlns:xlink="http://www.w3.org/1999/xlink" width="175" height="175" viewBox="0 0 175 175">
    <defs>
        <filter id="b5hpucicwa" width="121%" height="121.2%" x="-10.5%" y="-9.3%" filterUnits="objectBoundingBox">
            <feOffset dy="1" in="SourceAlpha" result="shadowOffsetOuter1"/>
            <feGaussianBlur in="shadowOffsetOuter1" result="shadowBlurOuter1" stdDeviation="2.5"/>
            <feColorMatrix in="shadowBlurOuter1" values="0 0 0 0 0 0 0 0 0 0 0 0 0 0 0 0 0 0 0.0986396416 0"/>
        </filter>
        <path id="zm5xjrmzcb" d="M57.593 59.055c-1.293-1.623-2.197-2.762-3.105-3.898-1.278-1.597-2.502-3.243-3.856-4.772-1.029-1.162-2.37-1.328-3.693-.48-1.37.878-1.467 2.221-1.003 3.623.174.522.533 1.004.887 1.44 2.577 3.178 5.107 6.398 7.788 9.488 2.162 2.491 4.46 2.257 6.416-.521.98-1.392 1.846-2.865 2.762-4.303 3.972-6.227 7.963-12.443 11.907-18.688 1.739-2.755 1.652-4.267-.148-5.286-1.693-.959-3.01-.385-4.63 2.107-1.178 1.808-2.293 3.659-3.438 5.49-3.187 5.095-6.375 10.19-9.887 15.8m42.105-9.201c-.937 1.846-1.54 3.584-2.596 4.977-1.366 1.802-3.018 3.413-4.69 4.95-1.54 1.415-2.283 2.973-2.142 5.102.143 2.152.113 4.332-.055 6.484-.364 4.62-2.764 7.04-7.379 7.397-2.378.184-4.78.143-7.168.074-1.603-.047-2.832.48-3.934 1.625-1.657 1.72-3.325 3.45-5.142 4.994-3.632 3.085-6.811 3.08-10.397-.003-1.809-1.555-3.483-3.275-5.14-4.998-1.104-1.149-2.34-1.667-3.941-1.617-2.274.072-4.56.09-6.828-.05-4.877-.305-7.193-2.54-7.668-7.435-.209-2.146-.24-4.324-.157-6.48.08-2.08-.465-3.759-2.095-5.132-1.128-.949-2.114-2.07-3.138-3.138-4.848-5.059-4.818-8.347.121-13.457 1.029-1.064 2.022-2.175 3.142-3.135 1.517-1.3 2.012-2.875 1.973-4.833-.05-2.497-.02-5.02.275-7.495.468-3.924 2.454-5.897 6.37-6.388 2.248-.282 4.548-.378 6.81-.264 2.461.125 4.387-.53 6.022-2.44 1.325-1.55 2.844-2.962 4.422-4.26 3.499-2.876 6.72-2.865 10.163.043 1.647 1.392 3.209 2.916 4.631 4.536 1.407 1.602 3.043 2.177 5.125 2.109 2.27-.075 4.562-.045 6.819.192 4.52.475 6.727 2.74 7.103 7.254.18 2.15.192 4.33.07 6.484-.12 2.097.485 3.717 2.076 5.13 1.613 1.431 3.19 2.959 4.493 4.666 1.132 1.485 1.857 3.28 2.855 5.108"/>
    </defs>
    <g fill="none" fill-rule="evenodd">
        <g>
            <g>
                <path fill="#03C3D3" stroke="#FFF" stroke-opacity=".05" stroke-width="5" d="M87.632 157.703c19.836-14.009 36.78-32.46 49.641-54.738 12.862-22.278 20.37-46.178 22.92-70.208-22.09-9.81-46.54-15.257-72.263-15.257-25.724 0-50.176 5.448-72.262 15.256 2.55 24.035 10.057 47.933 22.919 70.21 12.797 22.164 29.634 40.542 49.045 54.737z" transform="translate(-617 -1133) translate(617 1133)"/>
                <g>
                    <g transform="translate(-617 -1133) translate(617 1133) translate(27 27)">
                        <use fill="#000" filter="url(#b5hpucicwa)" xlink:href="#zm5xjrmzcb"/>
                        <use fill="#FFF" xlink:href="#zm5xjrmzcb"/>
                    </g>
                    <path d="M0 0H121V121H0z" transform="translate(-617 -1133) translate(617 1133) translate(27 27)"/>
                </g>
                <path d="M0 0H175V175H0z" transform="translate(-617 -1133) translate(617 1133)"/>
            </g>
        </g>
    </g>
</svg>
