<?xml version="1.0" encoding="UTF-8"?>
<svg width="40px" height="40px" viewBox="0 0 40 40" version="1.1" xmlns="http://www.w3.org/2000/svg" xmlns:xlink="http://www.w3.org/1999/xlink">
    <title>1</title>
    <g id="Page-1" stroke="none" stroke-width="1" fill="none" fill-rule="evenodd">
        <g id="Artboard" transform="translate(-87.000000, -74.000000)">
            <g id="1" transform="translate(87.000000, 74.000000)">
                <rect id="Rectangle" x="0" y="0" width="40" height="40"></rect>
                <circle id="Oval" stroke="#FFFFFF" cx="20" cy="20" r="19.5"></circle>
                <path d="M11.2724118,6.09861421 L11.2879253,6.11220105 L12.8623915,7.55900957 C13.0354392,7.71802651 13.0468135,7.98721822 12.8877967,8.16026608 C12.7334569,8.32822429 12.475328,8.3438793 12.3020541,8.19926022 L12.2865409,8.18567129 L11.468,7.434 L11.4680846,11.0000005 C11.4680846,11.235015 11.2775676,11.4255319 11.0425531,11.4255319 C10.8075386,11.4255319 10.6170217,11.235015 10.6170217,11.0000005 L10.617,7.354 L9.71345909,8.18567129 C9.54550108,8.34001126 9.28697167,8.33383562 9.12651485,8.17511522 L9.11220329,8.16026608 C8.95786349,7.99230787 8.96403914,7.73377815 9.12275934,7.57332114 L9.13760847,7.55900957 L10.7120747,6.11220105 C10.8697885,5.96727469 11.1095689,5.96274574 11.2724118,6.09861421 Z" id="Combined-Shape-Copy-6" fill="#FFFFFF" transform="translate(11.000000, 8.712766) rotate(-40.000000) translate(-11.000000, -8.712766) "></path>
                <path d="M29.8240543,6.09861421 L29.8395678,6.11220105 L31.414034,7.55900957 C31.5870816,7.71802651 31.5984559,7.98721822 31.4394392,8.16026608 C31.2850994,8.32822429 31.0269705,8.3438793 30.8536965,8.19926022 L30.8381834,8.18567129 L30.0196425,7.434 L30.019727,11.0000005 C30.019727,11.235015 29.8292101,11.4255319 29.5941956,11.4255319 C29.3591811,11.4255319 29.1686642,11.235015 29.1686642,11.0000005 L29.1686425,7.354 L28.2651016,8.18567129 C28.0971435,8.34001126 27.8386141,8.33383562 27.6781573,8.17511522 L27.6638458,8.16026608 C27.509506,7.99230787 27.5156816,7.73377815 27.6744018,7.57332114 L27.6892509,7.55900957 L29.2637171,6.11220105 C29.4214309,5.96727469 29.6612113,5.96274574 29.8240543,6.09861421 Z" id="Combined-Shape-Copy-7" fill="#FFFFFF" transform="translate(29.551642, 8.712766) scale(-1, 1) rotate(-40.000000) translate(-29.551642, -8.712766) "></path>
                <path d="M20,10 C23.3137085,10 26,12.7237849 26,16.0837438 C26,17.5576487 25.4830791,18.9091352 24.6230318,19.9619828 L24.5344104,20.0992027 L24.4483715,20.2335724 L24.3649149,20.3650917 L24.2840404,20.4937608 L24.2057478,20.6195795 L24.1300368,20.742548 L24.0569073,20.8626662 L23.986359,20.9799342 L23.9520527,21.0374993 L23.9520527,21.0374993 L23.8853759,21.1504918 L23.8212798,21.2606341 L23.7597641,21.3679261 L23.7008288,21.4723679 L23.6444736,21.5739594 L23.5906982,21.6727007 L23.5395024,21.7685918 C23.5228671,21.8000804 23.5066617,21.831094 23.4908862,21.8616326 L23.4448491,21.9518232 C23.2357637,22.366585 23.0946936,22.8746895 23.0216388,23.4761366 L23.1384615,23.4778325 C23.5463026,23.4778325 23.8769231,23.8130676 23.8769231,24.226601 L23.8769231,26.2389163 C23.8769231,27.7638207 22.65776,29 21.1538462,29 L18.9384615,29 C17.5760202,29 16.4472766,27.9854553 16.2469722,26.6608038 L16.2153846,26.6600985 L16.2153846,24.226601 C16.2153846,23.8130676 16.5460051,23.4778325 16.9538462,23.4778325 L17.013,23.477 L16.9794199,23.3495601 L16.9447674,23.222758 L16.9105756,23.0996785 L16.8601518,22.922039 L16.8271117,22.8082659 L16.7945324,22.6982154 L16.7624138,22.5918874 L16.730756,22.489282 L16.6995588,22.3903991 L16.6688223,22.2952388 L16.6385466,22.203801 L16.6087315,22.1160859 L16.5793772,22.0320932 L16.5504835,21.9518232 C16.5393574,21.9213874 16.5273269,21.8901103 16.514392,21.8579919 L16.4873165,21.7926333 C16.4590351,21.7261528 16.4271363,21.656307 16.3916201,21.5830959 L16.3548981,21.5087629 C16.3422555,21.4836114 16.3292109,21.4580859 16.3157645,21.4321864 L16.2742192,21.3533664 L16.2302623,21.2723027 C16.2227352,21.2586051 16.2151076,21.2448141 16.2073795,21.2309295 L16.1598052,21.1465005 C16.1435452,21.1179836 16.1268832,21.0890927 16.1098193,21.0598279 L16.0574217,20.9709118 C16.0484878,20.9559054 16.0394535,20.9408056 16.0303186,20.9256123 L15.9743036,20.8333308 L15.915877,20.7388057 L15.8550388,20.6420371 L15.791789,20.5430248 L15.7261275,20.441769 L15.6580544,20.3382696 L15.5875697,20.2325267 C15.5636729,20.1969051 15.5393741,20.1609096 15.5146734,20.1245401 C14.5723563,19.0500459 14,17.6346683 14,16.0837438 C14,12.7237849 16.6862915,10 20,10 Z M22.9054248,26.6611943 L17.186668,26.6602732 C17.3719218,27.4551195 18.0697358,28.0491231 18.9067992,28.0637627 L18.9384615,28.0640394 L21.1538462,28.0640394 C22.0046056,28.0640394 22.7175108,27.4655776 22.9054248,26.6611943 Z M22.9538462,24.4137931 L17.1384615,24.4137931 L17.138,25.724 L22.953,25.724 L22.9538462,24.4137931 Z M20,10.9359606 C17.1960928,10.9359606 14.9230769,13.2407017 14.9230769,16.0837438 C14.9230769,17.34205 15.3688237,18.5276723 16.1650339,19.457088 L16.2044739,19.5025896 L16.242482,19.5459291 L16.3144347,19.6520521 L16.3915884,19.7670935 L16.4662506,19.8799189 L16.5026484,19.9355062 L16.5026484,19.9355062 L16.5735797,20.0450413 C16.5851946,20.0631157 16.596706,20.0810997 16.6081141,20.0989936 L16.6753224,20.205279 L16.7079971,20.2576166 L16.7079971,20.2576166 L16.77149,20.3606928 C16.781866,20.3776953 16.792139,20.3946095 16.802309,20.4114359 L16.8620943,20.5113435 L16.9194121,20.6091613 C16.9474548,20.6575507 16.9745734,20.7051631 17.0007699,20.7520088 L17.0519341,20.8446806 C17.0769021,20.8905084 17.1009493,20.935576 17.1240776,20.9798938 L17.1691097,21.0675325 C17.176411,21.0819733 17.1836104,21.0963315 17.1907079,21.1106075 L17.232071,21.1952804 C17.3056641,21.3487166 17.366947,21.4922978 17.4160149,21.6265238 L17.4326992,21.6725375 L17.4663984,21.7677097 L17.5005424,21.867083 L17.5351357,21.970667 L17.5701829,22.0784713 L17.6056888,22.1905055 L17.6416578,22.3067793 L17.6780947,22.4273022 L17.715004,22.552084 L17.7523904,22.6811341 L17.7902585,22.8144623 L17.8286129,22.952078 L17.87,23.1033547 L19.538,23.103 L19.538303,19.9557632 C18.7421247,19.747904 18.1538462,19.0150394 18.1538462,18.1428571 C18.1538462,17.1090236 18.9803974,16.270936 20,16.270936 C21.0196026,16.270936 21.8461538,17.1090236 21.8461538,18.1428571 C21.8461538,19.0150394 21.2578753,19.747904 20.461697,19.9557632 L20.461,23.103 L22.1412615,23.1033547 L22.1431724,23.0913892 C22.2331258,22.522944 22.3827353,22.0192173 22.5959389,21.5803545 L22.6229208,21.5258345 L22.6734611,21.4268287 L22.7267075,21.3249546 C22.7358076,21.3077362 22.7450205,21.2903979 22.7543463,21.2729397 L22.8116565,21.1667495 L22.8716788,21.057673 L22.9344155,20.945703 L22.9998692,20.8308322 L23.068042,20.7130535 C23.0796309,20.693181 23.0913332,20.673187 23.1031489,20.6530714 L23.1754051,20.5309172 L23.2503864,20.4058371 L23.3280953,20.2778239 L23.4085341,20.1468703 L23.4917051,20.0129692 L23.5776108,19.8761133 L23.6662536,19.7362955 L23.7576357,19.5935086 L23.8797006,19.4046603 L23.9121405,19.3649484 C24.6609777,18.4482412 25.0769231,17.2996627 25.0769231,16.0837438 C25.0769231,13.2407017 22.8039072,10.9359606 20,10.9359606 Z M20,17.2068966 C19.4901987,17.2068966 19.0769231,17.6259404 19.0769231,18.1428571 C19.0769231,18.6597739 19.4901987,19.0788177 20,19.0788177 C20.5098013,19.0788177 20.9230769,18.6597739 20.9230769,18.1428571 C20.9230769,17.6259404 20.5098013,17.2068966 20,17.2068966 Z" id="Combined-Shape-Copy-4" fill="#FFFFFF"></path>
                <path d="M20.2724118,31.0986142 L20.2879253,31.1122011 L21.8623915,32.5590096 C22.0354392,32.7180265 22.0468135,32.9872182 21.8877967,33.1602661 C21.7334569,33.3282243 21.475328,33.3438793 21.3020541,33.1992602 L21.2865409,33.1856713 L20.468,32.434 L20.4680846,36.0000005 C20.4680846,36.235015 20.2775676,36.4255319 20.0425531,36.4255319 C19.8075386,36.4255319 19.6170217,36.235015 19.6170217,36.0000005 L19.617,32.354 L18.7134591,33.1856713 C18.5455011,33.3400113 18.2869717,33.3338356 18.1265149,33.1751152 L18.1122033,33.1602661 C17.9578635,32.9923079 17.9640391,32.7337782 18.1227593,32.5733211 L18.1376085,32.5590096 L19.7120747,31.1122011 C19.8697885,30.9672747 20.1095689,30.9627457 20.2724118,31.0986142 Z" id="Combined-Shape-Copy-8" fill="#FFFFFF" transform="translate(20.000000, 33.712766) scale(-1, 1) rotate(-180.000000) translate(-20.000000, -33.712766) "></path>
            </g>
        </g>
    </g>
</svg>