<svg xmlns="http://www.w3.org/2000/svg" width="20" height="20" viewBox="0 0 20 20">
    <g fill="none" fill-rule="evenodd">
        <g fill="#1DB6FF" fill-rule="nonzero">
            <g>
                <g>
                    <path d="M567 33c1.366 0 2.652-.261 3.858-.784s2.27-1.245 3.191-2.167c.922-.922 1.644-1.985 2.167-3.191.523-1.206.784-2.492.784-3.858s-.261-2.652-.784-3.858-1.245-2.27-2.167-3.191c-.922-.922-1.987-1.644-3.196-2.167-1.21-.523-2.497-.784-3.863-.784s-2.652.261-3.858.784-2.268 1.245-3.186 2.167c-.918.922-1.639 1.985-2.162 3.191-.523 1.206-.784 2.492-.784 3.858s.261 2.652.784 3.858 1.245 2.27 2.167 3.191c.922.922 1.985 1.644 3.191 2.167 1.206.523 2.492.784 3.858.784zm-1.108-5.216c-.17 0-.323-.036-.46-.108-.138-.071-.272-.192-.403-.362l-2.46-3.02c-.072-.098-.13-.2-.172-.309-.042-.108-.064-.217-.064-.328 0-.222.075-.414.226-.574.15-.16.336-.24.559-.24.143 0 .273.03.387.088.114.06.234.17.358.334l1.99 2.568 4.186-6.725c.183-.3.419-.451.706-.451.21 0 .399.067.569.2.17.135.255.316.255.545 0 .111-.027.222-.079.333-.052.111-.108.216-.166.314l-4.608 7.265c-.105.157-.226.274-.363.353-.137.078-.29.117-.46.117z" transform="translate(-576 -121) translate(19 64) translate(0 44)"/>
                </g>
            </g>
        </g>
    </g>
</svg>
