<svg xmlns="http://www.w3.org/2000/svg" width="60" height="60" viewBox="0 0 60 60">
    <g fill="none" fill-rule="evenodd">
        <g>
            <g>
                <g>
                    <path d="M0 0H60V60H0z" transform="translate(-1132 -253) translate(1092 248) translate(40 5)"/>
                    <path fill="#FFF" fill-opacity=".3" d="M24 34.2c7.21 0 11.931 3.009 14.164 9.026.539 1.45-.2 3.06-1.65 3.599-.312.116-.642.175-.975.175H12.461c-1.547 0-2.8-1.254-2.8-2.8 0-.333.059-.663.175-.974C12.069 37.209 16.79 34.2 24 34.2zm27.12-17.855c.68.443.88 1.344.463 2.032l-.028.044-8.5 13c-.544.833-1.729.911-2.38.172l-.034-.04-4.6-5.6c-.526-.641-.433-1.586.207-2.112.626-.515 1.545-.437 2.077.167l.034.04 3.303 4.021 7.383-11.29c.453-.693 1.383-.888 2.076-.434zM24 16c4.142 0 7.5 3.358 7.5 7.5 0 4.142-3.358 7.5-7.5 7.5-4.142 0-7.5-3.358-7.5-7.5 0-4.142 3.358-7.5 7.5-7.5z" transform="translate(-1132 -253) translate(1092 248) translate(40 5)"/>
                </g>
            </g>
        </g>
    </g>
</svg>
