<svg xmlns="http://www.w3.org/2000/svg" width="28" height="28" viewBox="0 0 28 28">
    <g fill="none" fill-rule="evenodd">
        <g>
            <g>
                <g>
                    <g>
                        <path fill="#75D2FF" d="M6.41 0h15.18c2.23 0 3.037.232 3.852.668.815.436 1.454 1.075 1.89 1.89.436.815.668 1.623.668 3.852v9.18c0 2.23-.232 3.037-.668 3.852-.436.815-1.075 1.454-1.89 1.89-.815.436-1.623.668-3.852.668H6.41c-2.23 0-3.037-.232-3.852-.668-.815-.436-1.454-1.075-1.89-1.89C.232 18.627 0 17.82 0 15.59V6.41c0-2.23.232-3.037.668-3.852.436-.815 1.075-1.454 1.89-1.89C3.373.232 4.18 0 6.41 0z" transform="translate(-7350 -962) translate(6256 149) translate(1094 813) translate(0 3)"/>
                        <g stroke="#FFF" stroke-linecap="round" stroke-linejoin="round" stroke-width="1.5">
                            <path d="M3.5 9.5L0 6 3.5 2.5" transform="translate(-7350 -962) translate(6256 149) translate(1094 813) translate(0 3) translate(6 5)"/>
                            <path d="M16 9.5L12.5 6 16 2.5" transform="translate(-7350 -962) translate(6256 149) translate(1094 813) translate(0 3) translate(6 5) matrix(-1 0 0 1 28.5 0)"/>
                            <path d="M10 0.5L6 11.5" transform="translate(-7350 -962) translate(6256 149) translate(1094 813) translate(0 3) translate(6 5)"/>
                        </g>
                    </g>
                    <path d="M0 0H28V28H0z" transform="translate(-7350 -962) translate(6256 149) translate(1094 813)"/>
                </g>
            </g>
        </g>
    </g>
</svg>
