<svg xmlns="http://www.w3.org/2000/svg" xmlns:xlink="http://www.w3.org/1999/xlink" width="28" height="28" viewBox="0 0 28 28">
    <defs>
        <path id="n60lvzrnha" d="M0.001 0.448L7.812 0.448 7.812 11.847 0.001 11.847z"/>
        <path id="b5hqfcp1bc" d="M0.734 0.601L8.545 0.601 8.545 12 0.734 12z"/>
    </defs>
    <g fill="none" fill-rule="evenodd">
        <g>
            <g>
                <path d="M0 0H28V28H0z" transform="translate(-6980 -1031) translate(6980 1031)"/>
                <g>
                    <path fill="#FFF" d="M6.118 9.723l5.077-2.652V4.803c0-.576-.611-.947-1.123-.68l-.742.388-5.534 2.89c-.253.133-.412.395-.412.68v6.584c0 .587.63.956 1.142.67l1.18-.66v-4.272c0-.285.158-.548.412-.68" transform="translate(-6980 -1031) translate(6980 1031) translate(6 5)"/>
                    <g transform="translate(-6980 -1031) translate(6980 1031) translate(6 5) translate(0 .552)">
                        <mask id="6pz1r1xmgb" fill="#fff">
                            <use xlink:href="#n60lvzrnha"/>
                        </mask>
                        <path fill="#FFF" d="M2.734 6.136l5.078-2.652V1.217C7.812.64 7.2.269 6.689.536l-.743.388-5.533 2.89c-.254.133-.412.395-.412.68v6.584c0 .587.63.956 1.142.67l1.179-.661v-4.27c0-.286.159-.55.412-.681" mask="url(#6pz1r1xmgb)"/>
                    </g>
                    <g transform="translate(-6980 -1031) translate(6980 1031) translate(6 5) translate(6 6.552)">
                        <mask id="msbmn3azdd" fill="#fff">
                            <use xlink:href="#b5hqfcp1bc"/>
                        </mask>
                        <path fill="#FFF" d="M7.422.69l-.743.387-.456.238-5.077 2.652c-.254.133-.412.394-.412.68v6.584c0 .587.63.957 1.142.67l6.276-3.518c.243-.136.393-.392.393-.67V1.37c0-.576-.612-.947-1.123-.68" mask="url(#msbmn3azdd)"/>
                    </g>
                </g>
            </g>
        </g>
    </g>
</svg>
