<svg xmlns="http://www.w3.org/2000/svg" width="28" height="28" viewBox="0 0 28 28">
    <g fill="none" fill-rule="evenodd">
        <g>
            <g>
                <g>
                    <path d="M0 0H28V28H0z" transform="translate(-6980 -1059) translate(6980 1059)"/>
                </g>
                <g fill="#FFF">
                    <path d="M11.263 7.854c-.254 2.137-2.192 3.663-4.33 3.409-2.136-.254-3.661-2.192-3.407-4.33.254-2.136 2.192-3.662 4.329-3.408 2.137.254 3.662 2.192 3.408 4.329M8.551 1.12c0 .619-.501 1.12-1.119 1.12-.619 0-1.12-.501-1.12-1.12 0-.618.501-1.12 1.12-1.12.618 0 1.119.502 1.119 1.12M8.551 13.743c0 .619-.501 1.12-1.119 1.12-.619 0-1.12-.501-1.12-1.12 0-.62.501-1.12 1.12-1.12.618 0 1.119.5 1.119 1.12M1.12 6.311c.618 0 1.12.501 1.12 1.12 0 .62-.502 1.12-1.12 1.12-.619 0-1.12-.5-1.12-1.12 0-.619.501-1.12 1.12-1.12M13.742 6.311c.62 0 1.12.501 1.12 1.12 0 .62-.5 1.12-1.12 1.12-.618 0-1.119-.5-1.119-1.12 0-.619.501-1.12 1.12-1.12M3.761 2.176c.437.437.437 1.146 0 1.584-.437.437-1.146.437-1.584 0-.437-.438-.437-1.147 0-1.584.438-.437 1.147-.437 1.584 0M12.686 11.102c.437.437.437 1.146 0 1.584-.437.437-1.146.437-1.584 0-.437-.438-.437-1.147 0-1.584.438-.437 1.147-.437 1.584 0M2.177 11.102c.437-.437 1.146-.437 1.584 0 .437.437.437 1.146 0 1.584-.438.437-1.147.437-1.584 0-.437-.438-.437-1.147 0-1.584M11.102 2.176c.437-.437 1.147-.437 1.584 0 .437.437.437 1.146 0 1.584-.437.437-1.147.437-1.584 0-.437-.438-.437-1.147 0-1.584" transform="translate(-6980 -1059) translate(6980 1059) translate(6 7)"/>
                </g>
            </g>
        </g>
    </g>
</svg>
