<svg xmlns="http://www.w3.org/2000/svg" width="16" height="16" viewBox="0 0 16 16">
    <g fill="none" fill-rule="evenodd">
        <g>
            <g>
                <path fill="#FFF" fill-opacity=".5" d="M10.349 3.467h.107l.103.002.099.002.094.003.09.004.086.005.082.005.079.007.112.01.07.008.067.009.033.005.063.01.06.01.059.012.055.012.054.013.052.013.025.007.049.015.048.015.023.008.045.017.045.017.043.018.043.018.042.02.041.02.041.02.041.022c.404.213.72.526.936.925l.022.04.02.041.02.041.02.042.02.042.017.043.009.022.017.044.016.046.016.047.015.048.007.025.013.051c.005.018.01.035.013.053l.013.055.011.058.01.06.01.062.006.032.009.067.008.07.007.072.01.116.005.081.005.086.004.089.003.093.002.097.002.102V8.65l-.002.101-.002.098-.003.093-.004.089-.005.085-.005.082-.007.077-.01.11-.008.07-.01.067-.004.032-.01.063-.01.06-.012.057-.013.055-.013.053-.013.051-.007.025-.015.049-.016.047-.008.023-.017.045-.017.044-.018.043-.019.042-.02.041-.02.041-.02.04-.022.042c-.216.398-.532.712-.936.925l-.04.021-.042.02-.041.02-.042.02-.043.019-.043.018-.022.008-.045.017-.046.016-.048.016-.049.014-.025.007-.052.014-.054.013-.055.012-.058.011-.06.01-.064.01-.033.005-.067.01-.07.007-.074.008-.117.01-.082.005-.086.004-.09.004-.094.003-.099.002-.103.002H8.273c-.274 0-.537.109-.732.302l-1.57 1.552c-.072.072-.168.114-.268.12h-.024c-.22 0-.401-.172-.412-.388v-1.308c0-.156-.12-.287-.277-.299L4.91 11.6l-.112-.01-.07-.009-.067-.009-.033-.004-.063-.01-.06-.01-.059-.012-.055-.012-.054-.013-.052-.014-.025-.007-.049-.014-.048-.016-.023-.008-.045-.016-.045-.017-.043-.018-.043-.019-.042-.02-.041-.02-.041-.02L3.8 11.3c-.404-.213-.72-.527-.936-.925l-.022-.041-.02-.04-.02-.042-.02-.041-.02-.042-.017-.043-.009-.022-.017-.045-.016-.045-.016-.047-.015-.049-.007-.025-.013-.05c-.005-.018-.01-.036-.013-.054l-.013-.055-.011-.057-.01-.06-.01-.063-.006-.032-.009-.067-.008-.07-.007-.072-.01-.115-.005-.082-.005-.085-.004-.09-.003-.092-.002-.098-.002-.101V6.444l.002-.102.002-.097.003-.093.004-.09.005-.085.005-.081.007-.078.01-.11.008-.07.01-.067.004-.032.01-.062.01-.06.012-.058.013-.055.013-.053.013-.05.007-.026.015-.048.016-.047.008-.023.017-.045.017-.044.018-.043.019-.042.02-.042.02-.04.02-.041.022-.041c.216-.399.532-.712.936-.925l.04-.022.042-.02.041-.02.042-.02.043-.018.043-.018.022-.009.045-.017.046-.016.048-.015.049-.015.025-.007.052-.013c.017-.005.035-.01.054-.013l.055-.012.058-.012.06-.01.064-.01.033-.005.067-.009.07-.008.074-.007.117-.01.082-.005.086-.005.09-.004.094-.003.099-.002.103-.002H10.349z" transform="translate(-392 -2260) translate(392 2260)"/>
                <path d="M0 0H16V16H0z" transform="translate(-392 -2260) translate(392 2260)"/>
            </g>
        </g>
    </g>
</svg>
