<svg xmlns="http://www.w3.org/2000/svg" width="24" height="24" viewBox="0 0 24 24">
    <g fill="none" fill-rule="evenodd">
        <g>
            <g>
                <path d="M0 0H24V24H0z" transform="translate(-992 -287) translate(992 287)"/>
                <path fill="#FFF" fill-rule="nonzero" d="M3.818 14.182c.452 0 .818.366.818.818v2.514l.004.198.006.14.007.127.01.113c.018.17.047.298.087.41l.019.047.03.066.032.065c.114.213.276.375.49.489l.03.016.063.03c.067.03.138.055.22.076l.063.014.085.015.095.013c.044.005.091.01.142.014l.079.005.129.006.143.004.16.001H9c.451 0 .818.367.818.819 0 .452-.366.818-.818.818H6.615c-.973 0-1.489-.093-2.007-.357l-.06-.031c-.498-.267-.894-.662-1.16-1.16-.277-.52-.38-1.019-.388-1.957V15c0-.452.366-.818.818-.818zM21 15v2.385c0 1.01-.1 1.528-.388 2.066-.267.499-.662.894-1.16 1.16-.52.278-1.019.381-1.957.389H15c-.452 0-.818-.366-.818-.818 0-.452.366-.818.818-.818h2.385l.167-.001.151-.003.136-.005.123-.007.11-.01.051-.005.095-.013.085-.015c.098-.02.18-.046.258-.079l.057-.025.062-.032c.213-.114.375-.276.489-.49l.016-.03.03-.063c.03-.068.055-.138.076-.22l.014-.063.015-.085.013-.095c.005-.044.01-.091.014-.142l.005-.079.006-.129.004-.143.001-.16V15c0-.452.367-.818.819-.818.452 0 .818.366.818.818zM17.495 3c.938.008 1.438.11 1.956.388.499.266.894.662 1.16 1.16.278.52.381 1.018.389 1.957V9c0 .452-.366.818-.818.818-.452 0-.818-.366-.818-.818V6.615l-.001-.167-.003-.151-.005-.137-.007-.122-.01-.11-.005-.051-.013-.095-.015-.085c-.02-.098-.046-.18-.079-.258l-.025-.057-.032-.062c-.114-.213-.276-.375-.49-.489l-.03-.016-.063-.03c-.068-.03-.138-.055-.22-.076l-.063-.014-.085-.015-.095-.013c-.044-.005-.091-.01-.142-.014l-.079-.005-.129-.006-.143-.004-.16-.002H15c-.452 0-.818-.366-.818-.818 0-.452.366-.818.818-.818h2.495zm-7.677.818c0 .452-.366.818-.818.818H6.486l-.198.004-.14.006-.127.007-.113.01c-.171.018-.298.047-.41.087l-.047.019-.066.03-.065.032c-.213.114-.375.276-.489.49l-.016.03-.03.063c-.03.067-.055.138-.076.22l-.014.063-.015.085-.013.095c-.005.044-.01.091-.014.142l-.005.079-.006.129-.004.143-.002.16V9c0 .452-.366.818-.818.818C3.366 9.818 3 9.452 3 9V6.505c.007-.901.102-1.397.356-1.894l.032-.063c.266-.498.662-.894 1.16-1.16.52-.277 1.018-.38 1.957-.388H9c.452 0 .818.366.818.818z" transform="translate(-992 -287) translate(992 287)"/>
            </g>
        </g>
    </g>
</svg>
