<svg xmlns="http://www.w3.org/2000/svg" width="36" height="36" viewBox="0 0 36 36">
    <defs>
        <linearGradient id="uatt9kg05a" x1="50%" x2="50%" y1="0%" y2="100%">
            <stop offset="0%" stop-color="#FFC000"/>
            <stop offset="52.224%" stop-color="#FFBA00"/>
            <stop offset="100%" stop-color="#EFA900"/>
        </linearGradient>
        <linearGradient id="boici2yj8b" x1="50%" x2="50%" y1="0%" y2="97.258%">
            <stop offset=".055%" stop-color="#FFF"/>
            <stop offset="100%" stop-color="#E8E8E8"/>
        </linearGradient>
    </defs>
    <g fill="none" fill-rule="evenodd">
        <g>
            <g>
                <g transform="translate(-321 -275) translate(321 275)">
                    <path fill-rule="nonzero" d="M36 0v36H0V0h36zm-1.059 1.059H1.06V34.94H34.94V1.06z"/>
                    <circle cx="18" cy="18.072" r="12.24" fill="url(#uatt9kg05a)"/>
                </g>
                <path fill="url(#boici2yj8b)" d="M18 22.09l-3.886 2.595c-.364.243-.856.145-1.099-.218-.129-.193-.166-.432-.104-.655l1.269-4.499-3.67-2.894c-.344-.27-.403-.768-.132-1.112.143-.182.36-.292.59-.3l4.67-.185 1.619-4.385c.151-.41.607-.62 1.017-.468.218.08.389.251.469.468l1.618 4.385 4.67.184c.437.017.778.386.76.823-.009.231-.119.447-.3.59l-3.67 2.894 1.268 4.499c.118.42-.127.858-.548.977-.223.063-.462.025-.655-.104L18 22.09z" transform="translate(-321 -275) translate(321 275)"/>
            </g>
        </g>
    </g>
</svg>
