<svg xmlns="http://www.w3.org/2000/svg" xmlns:xlink="http://www.w3.org/1999/xlink" width="50" height="50" viewBox="0 0 50 50">
    <defs>
        <linearGradient id="l61cvc57ma" x1="50%" x2="50%" y1="27.46%" y2="100%">
            <stop offset="0%" stop-color="#FFCC18"/>
            <stop offset="100%" stop-color="#FDEA70"/>
        </linearGradient>
        <linearGradient id="pdqpkocivd" x1="24.197%" x2="69.76%" y1="21.639%" y2="97.854%">
            <stop offset="0%" stop-color="#FFF"/>
            <stop offset="100%" stop-color="#FFE98B"/>
        </linearGradient>
        <filter id="8k08zpjxtb" width="127.4%" height="136.4%" x="-13.7%" y="-18.2%" filterUnits="objectBoundingBox">
            <feOffset in="SourceAlpha" result="shadowOffsetOuter1"/>
            <feGaussianBlur in="shadowOffsetOuter1" result="shadowBlurOuter1" stdDeviation="1"/>
            <feColorMatrix in="shadowBlurOuter1" values="0 0 0 0 0 0 0 0 0 0 0 0 0 0 0 0 0 0 0.2 0"/>
        </filter>
        <path id="4i37u6ziuc" d="M10.944 0c1.008 0 1.824.837 1.824 1.87 0 .78-.466 1.45-1.129 1.73l3.009 5.86 4.322-2.759c-.078-.191-.121-.402-.121-.623 0-.878.68-1.59 1.52-1.59s1.52.712 1.52 1.59c0 .878-.68 1.59-1.52 1.59-.086 0-.17-.008-.25-.022l-1.98 8.615.102.196h-.147l-.005.028H3.62L1.595 7.664l-.075.004c-.793 0-1.444-.635-1.514-1.445L0 6.078c0-.878.68-1.59 1.52-1.59s1.52.712 1.52 1.59c0 .256-.058.498-.161.713l4.316 2.756L10.249 3.6c-.662-.28-1.129-.95-1.129-1.73C9.12.837 9.937 0 10.944 0z"/>
    </defs>
    <g fill="none" fill-rule="evenodd">
        <g>
            <g>
                <path fill="#FFE060" d="M26.178.739L45.18 11.71c.792.457 1.28 1.302 1.28 2.217v21.942c0 .915-.488 1.76-1.28 2.217l-19.002 10.97c-.792.458-1.768.458-2.56 0L4.616 38.087c-.792-.457-1.28-1.302-1.28-2.217V13.927c0-.915.488-1.76 1.28-2.217L23.618.739c.792-.457 1.768-.457 2.56 0z" transform="translate(-299 -248) translate(299 248)"/>
                <path fill="#F4C129" d="M3.265 21.943c0 .923.497 1.774 1.3 2.228l19.073 10.786c.782.443 1.738.443 2.52 0l19.073-10.786c.803-.454 1.3-1.305 1.3-2.228v14.5c0 .922-.497 1.774-1.3 2.228L26.158 49.457c-.782.442-1.738.442-2.52 0L4.565 38.671c-.803-.454-1.3-1.306-1.3-2.229z" transform="translate(-299 -248) translate(299 248)"/>
                <path fill="url(#l61cvc57ma)" d="M25.772 4.445l15.4 8.912c.79.458 1.277 1.302 1.277 2.216v17.834c0 .913-.487 1.758-1.278 2.215l-15.399 8.912c-.793.46-1.771.46-2.564 0l-15.4-8.912c-.79-.457-1.277-1.302-1.277-2.215V15.573c0-.914.487-1.758 1.277-2.216l15.4-8.912c.793-.459 1.77-.459 2.564 0zm0 2.752c-.793-.46-1.771-.46-2.564 0l-13.023 7.536c-.79.457-1.277 1.302-1.277 2.215v15.083c0 .914.487 1.758 1.277 2.216l13.023 7.536c.793.46 1.77.46 2.564 0l13.022-7.536c.791-.458 1.278-1.302 1.278-2.216V16.948c0-.913-.487-1.758-1.278-2.215z" transform="translate(-299 -248) translate(299 248)"/>
                <path stroke="#FFB200" stroke-width=".96" d="M23.858 1.155c.644-.372 1.436-.372 2.08 0h0l19.002 10.97c.644.372 1.04 1.059 1.04 1.802h0v21.942c0 .743-.396 1.43-1.04 1.801h0L25.938 48.641c-.644.372-1.436.372-2.08 0h0L4.856 37.671c-.322-.187-.582-.451-.762-.762-.18-.311-.278-.669-.278-1.04h0V13.927c0-.743.396-1.43 1.04-1.801h0z" transform="translate(-299 -248) translate(299 248)"/>
                <path fill="#EB7F14" d="M25.77 7.27l12.993 7.501c.792.457 1.28 1.303 1.28 2.217v15.003c0 .915-.488 1.76-1.28 2.217L25.77 41.71c-.792.457-1.768.457-2.56 0l-12.993-7.502c-.792-.457-1.28-1.302-1.28-2.217V16.988c0-.914.488-1.76 1.28-2.217L23.21 7.27c.792-.458 1.768-.458 2.56 0z" transform="translate(-299 -248) translate(299 248)"/>
                <g opacity=".843">
                    <g transform="translate(-299 -248) translate(299 248) translate(13.878 15.51)">
                        <use fill="#000" filter="url(#8k08zpjxtb)" xlink:href="#4i37u6ziuc"/>
                        <use fill="url(#pdqpkocivd)" xlink:href="#4i37u6ziuc"/>
                    </g>
                </g>
            </g>
        </g>
    </g>
</svg>
