<svg xmlns="http://www.w3.org/2000/svg" xmlns:xlink="http://www.w3.org/1999/xlink" width="50" height="50" viewBox="0 0 50 50">
    <defs>
        <linearGradient id="jom8fzl2ua" x1="50%" x2="50%" y1="27.46%" y2="100%">
            <stop offset="0%" stop-color="#9C9EB4"/>
            <stop offset="100%" stop-color="#D2D2DA"/>
        </linearGradient>
        <linearGradient id="welv44iqtd" x1="24.197%" x2="69.76%" y1="23.019%" y2="95.526%">
            <stop offset="0%" stop-color="#FFF"/>
            <stop offset="100%" stop-color="#D8DBE5"/>
        </linearGradient>
        <filter id="m8pihcj43b" width="113.6%" height="118.5%" x="-6.8%" y="-9.2%" filterUnits="objectBoundingBox">
            <feOffset in="SourceAlpha" result="shadowOffsetOuter1"/>
            <feGaussianBlur in="shadowOffsetOuter1" result="shadowBlurOuter1" stdDeviation=".5"/>
            <feColorMatrix in="shadowBlurOuter1" values="0 0 0 0 0 0 0 0 0 0 0 0 0 0 0 0 0 0 0.2 0"/>
        </filter>
        <path id="83w2asb54c" d="M11.065 0c1.018 0 1.844.826 1.844 1.844 0 .77-.472 1.43-1.141 1.705l3.042 5.78 4.369-2.721c-.08-.189-.123-.396-.123-.615 0-.865.688-1.567 1.537-1.567.848 0 1.536.702 1.536 1.567 0 .866-.688 1.568-1.536 1.568-.087 0-.171-.007-.254-.021l-2 8.494.102.194h-.147l-.006.028H3.66L1.612 7.557l-.075.004c-.802 0-1.46-.626-1.53-1.425L0 5.993c0-.865.688-1.567 1.537-1.567.848 0 1.537.702 1.537 1.567 0 .253-.059.492-.163.703l4.363 2.718 3.088-5.865c-.67-.276-1.141-.935-1.141-1.705C9.22.826 10.046 0 11.065 0z"/>
    </defs>
    <g fill="none" fill-rule="evenodd">
        <g>
            <g>
                <path fill="#D7DBDE" d="M26.15.724l19.052 11c.776.448 1.254 1.276 1.254 2.172v22c0 .895-.478 1.723-1.254 2.171l-19.052 11c-.776.448-1.732.448-2.508 0l-19.053-11c-.776-.448-1.254-1.276-1.254-2.172v-22c0-.895.478-1.723 1.254-2.171l19.053-11c.776-.448 1.732-.448 2.508 0z" transform="translate(-299 -313) translate(299 313)"/>
                <path fill="#BFBED2" d="M3.38 21.486c0 .896.479 1.724 1.255 2.172l19.052 11c.776.448 1.732.448 2.508 0l19.052-11c.776-.448 1.254-1.276 1.254-2.172V36.24c0 .896-.478 1.724-1.254 2.172l-19.052 11c-.776.448-1.732.448-2.508 0l-19.052-11c-.776-.448-1.254-1.276-1.254-2.172z" transform="translate(-299 -313) translate(299 313)"/>
                <path fill="url(#jom8fzl2ua)" d="M26.15 4.72l15.592 9.002c.775.448 1.254 1.276 1.254 2.172v18.004c0 .896-.479 1.724-1.254 2.172L26.15 45.072c-.776.448-1.732.448-2.508 0L8.05 36.07c-.776-.448-1.254-1.276-1.254-2.172V15.894c0-.896.478-1.724 1.254-2.172L23.642 4.72c.776-.448 1.732-.448 2.508 0zm0 2.766c-.776-.448-1.732-.448-2.508 0l-13.197 7.619c-.776.448-1.254 1.276-1.254 2.172v15.238c0 .896.478 1.723 1.254 2.171l13.197 7.62c.776.447 1.732.447 2.508 0l13.196-7.62c.776-.448 1.254-1.275 1.254-2.171V17.277c0-.896-.478-1.724-1.254-2.172z" transform="translate(-299 -313) translate(299 313)"/>
                <path stroke="#898A9C" stroke-width=".941" d="M23.877 1.131c.63-.364 1.407-.364 2.037 0h0l19.053 11c.63.364 1.019 1.037 1.019 1.765h0v22c0 .363-.098.714-.273 1.018-.176.305-.431.564-.746.746h0l-19.053 11c-.315.182-.667.273-1.018.273-.352 0-.704-.091-1.02-.273h0l-19.051-11c-.316-.182-.57-.441-.746-.746-.176-.304-.273-.655-.273-1.019h0v-22c0-.727.388-1.4 1.019-1.764h0z" transform="translate(-299 -313) translate(299 313)"/>
                <path fill="#8182A0" d="M26.15 7.486l13.196 7.619c.776.448 1.254 1.276 1.254 2.172v15.238c0 .896-.478 1.723-1.254 2.171l-13.196 7.62c-.776.447-1.732.447-2.508 0l-13.197-7.62c-.776-.448-1.254-1.275-1.254-2.171V17.277c0-.896.478-1.724 1.254-2.172l13.197-7.62c.776-.447 1.732-.447 2.508 0z" transform="translate(-299 -313) translate(299 313)"/>
                <g opacity=".843">
                    <g transform="translate(-299 -313) translate(299 313) translate(13.83 15.675)">
                        <use fill="#000" filter="url(#m8pihcj43b)" xlink:href="#83w2asb54c"/>
                        <use fill="url(#welv44iqtd)" xlink:href="#83w2asb54c"/>
                    </g>
                </g>
            </g>
        </g>
    </g>
</svg>
