<svg xmlns="http://www.w3.org/2000/svg" width="36" height="36" viewBox="0 0 36 36">
    <defs>
        <linearGradient id="yoicheyn6a" x1="50%" x2="50%" y1="0%" y2="100%">
            <stop offset="0%" stop-color="#FF5E27"/>
            <stop offset="100%" stop-color="#F74100"/>
        </linearGradient>
        <linearGradient id="r4ofb6ak8b" x1="50%" x2="50%" y1="0%" y2="97.258%">
            <stop offset=".055%" stop-color="#FFF"/>
            <stop offset="100%" stop-color="#E8E8E8"/>
        </linearGradient>
    </defs>
    <g fill="none" fill-rule="evenodd">
        <g>
            <g>
                <path fill-rule="nonzero" d="M36 0v36H0V0h36zm-1.059 1.059H1.06V34.94H34.94V1.06z"/>
                <circle cx="18" cy="18.072" r="12.24" fill="url(#yoicheyn6a)"/>
            </g>
            <g fill="url(#r4ofb6ak8b)" transform="translate(9.936 11.96)">
                <path d="M10.195.516l.131.002.125.002.12.004.169.006.106.005.102.006.097.007.092.008.088.008.085.01.08.01.078.01.074.012.072.013.068.013.066.014.064.015.032.008.06.017.06.017.058.018.057.018.112.04.055.022.055.022.028.011c.514.215.947.539 1.305.978l.038.047.056.071.054.073.035.05.035.05.035.053.034.054.034.056.034.059.017.03.034.062.017.032.034.066.034.07.034.072.035.077.035.08.036.085.036.088.037.094.056.149.04.105.039.111.04.117.042.123.065.195.045.139 1.327 4.142c.355 1.108-.222 2.304-1.289 2.673-.207.072-.424.108-.642.108-.773 0-1.517-.298-2.076-.831L10.8 8.98l-.046-.042-.024-.02-.02-.015-.018-.013-.01-.005c-.034-.021-.068-.035-.106-.044l-.021-.004-.011-.001-.025-.003-.03-.002-.039-.001H5.657l-.034.002H5.61l-.025.004-.021.003-.01.002c-.04.01-.073.023-.108.044l-.018.011-.019.014-.01.008-.024.02-.029.026-.036.034-1.166 1.114c-.509.485-1.17.775-1.866.824l-.21.007C.943 10.943.032 9.997.032 8.83c0-.12.022-.287.067-.5l.037-.167 1.35-4.212.044-.135.064-.191.061-.178.04-.11.039-.106.056-.15.037-.093.036-.088.036-.085.035-.08.035-.077.034-.072.034-.07.034-.066.034-.064.017-.03.034-.06.017-.029.034-.056.034-.054.035-.052.035-.051.035-.05.054-.073.037-.047.038-.048.019-.023c.358-.44.79-.763 1.305-.978l.083-.033.055-.022.112-.04.057-.018.058-.018.06-.017.06-.017.063-.015.033-.008.066-.014.068-.013.072-.013.074-.012.077-.01.081-.01.085-.01.088-.008.092-.008.097-.007.102-.006.106-.005.17-.006.119-.004.125-.002L6 .516h4.194zM5.387 2.841c-.312 0-.564.252-.564.563v.775h-.775c-.311 0-.564.253-.564.564 0 .311.253.564.564.564l.774-.001.001.776c0 .31.252.563.564.563.31 0 .563-.252.563-.563v-.776h.775c.312 0 .564-.252.564-.563 0-.311-.252-.564-.564-.564H5.95l.001-.775c0-.311-.252-.563-.563-.563zm4.086 1.902c-.467 0-.845.378-.845.845 0 .467.378.846.845.846.467 0 .846-.379.846-.846 0-.467-.379-.845-.846-.845zm1.691-1.691c-.467 0-.845.378-.845.845 0 .467.378.846.845.846.467 0 .846-.379.846-.846 0-.467-.379-.845-.846-.845z"/>
            </g>
        </g>
    </g>
</svg>
