<svg xmlns="http://www.w3.org/2000/svg" xmlns:xlink="http://www.w3.org/1999/xlink" width="50" height="50" viewBox="0 0 50 50">
    <defs>
        <filter id="i5rixaptqa" width="110.8%" height="110.8%" x="-5.4%" y="-2.7%" filterUnits="objectBoundingBox">
            <feOffset dy="1" in="SourceAlpha" result="shadowOffsetOuter1"/>
            <feGaussianBlur in="shadowOffsetOuter1" result="shadowBlurOuter1" stdDeviation=".5"/>
            <feColorMatrix in="shadowBlurOuter1" values="0 0 0 0 0 0 0 0 0 0 0 0 0 0 0 0 0 0 0.252236187 0"/>
        </filter>
        <filter id="t1hb9x661d" width="110.8%" height="110.8%" x="-5.4%" y="-2.7%" filterUnits="objectBoundingBox">
            <feOffset dy="1" in="SourceAlpha" result="shadowOffsetInner1"/>
            <feComposite in="shadowOffsetInner1" in2="SourceAlpha" k2="-1" k3="1" operator="arithmetic" result="shadowInnerInner1"/>
            <feColorMatrix in="shadowInnerInner1" result="shadowMatrixInner1" values="0 0 0 0 0.999901831 0 0 0 0 1 0 0 0 0 0.999879897 0 0 0 0.5 0"/>
            <feGaussianBlur in="SourceAlpha" result="shadowBlurInner2" stdDeviation=".5"/>
            <feOffset dy="-1" in="shadowBlurInner2" result="shadowOffsetInner2"/>
            <feComposite in="shadowOffsetInner2" in2="SourceAlpha" k2="-1" k3="1" operator="arithmetic" result="shadowInnerInner2"/>
            <feColorMatrix in="shadowInnerInner2" result="shadowMatrixInner2" values="0 0 0 0 0 0 0 0 0 0.475122988 0 0 0 0 0.953478038 0 0 0 0.6 0"/>
            <feGaussianBlur in="SourceAlpha" result="shadowBlurInner3" stdDeviation=".5"/>
            <feOffset dy="-1" in="shadowBlurInner3" result="shadowOffsetInner3"/>
            <feComposite in="shadowOffsetInner3" in2="SourceAlpha" k2="-1" k3="1" operator="arithmetic" result="shadowInnerInner3"/>
            <feColorMatrix in="shadowInnerInner3" result="shadowMatrixInner3" values="0 0 0 0 0 0 0 0 0 0 0 0 0 0 0 0 0 0 0.1 0"/>
            <feMerge>
                <feMergeNode in="shadowMatrixInner1"/>
                <feMergeNode in="shadowMatrixInner2"/>
                <feMergeNode in="shadowMatrixInner3"/>
            </feMerge>
        </filter>
        <filter id="7ql0uigy7f" width="117.2%" height="121%" x="-8.6%" y="-5.3%" filterUnits="objectBoundingBox">
            <feOffset dy="1" in="SourceAlpha" result="shadowOffsetOuter1"/>
            <feGaussianBlur in="shadowOffsetOuter1" result="shadowBlurOuter1" stdDeviation=".5"/>
            <feColorMatrix in="shadowBlurOuter1" values="0 0 0 0 0 0 0 0 0 0 0 0 0 0 0 0 0 0 0.252236187 0"/>
        </filter>
        <filter id="dpu9urriji" width="117.2%" height="121%" x="-8.6%" y="-5.3%" filterUnits="objectBoundingBox">
            <feOffset dy="1" in="SourceAlpha" result="shadowOffsetInner1"/>
            <feComposite in="shadowOffsetInner1" in2="SourceAlpha" k2="-1" k3="1" operator="arithmetic" result="shadowInnerInner1"/>
            <feColorMatrix in="shadowInnerInner1" result="shadowMatrixInner1" values="0 0 0 0 0.999901831 0 0 0 0 1 0 0 0 0 0.999879897 0 0 0 0.5 0"/>
            <feGaussianBlur in="SourceAlpha" result="shadowBlurInner2" stdDeviation=".5"/>
            <feOffset dy="-1" in="shadowBlurInner2" result="shadowOffsetInner2"/>
            <feComposite in="shadowOffsetInner2" in2="SourceAlpha" k2="-1" k3="1" operator="arithmetic" result="shadowInnerInner2"/>
            <feColorMatrix in="shadowInnerInner2" result="shadowMatrixInner2" values="0 0 0 0 0 0 0 0 0 0.475122988 0 0 0 0 0.953478038 0 0 0 0.6 0"/>
            <feGaussianBlur in="SourceAlpha" result="shadowBlurInner3" stdDeviation=".5"/>
            <feOffset dy="-1" in="shadowBlurInner3" result="shadowOffsetInner3"/>
            <feComposite in="shadowOffsetInner3" in2="SourceAlpha" k2="-1" k3="1" operator="arithmetic" result="shadowInnerInner3"/>
            <feColorMatrix in="shadowInnerInner3" result="shadowMatrixInner3" values="0 0 0 0 0 0 0 0 0 0 0 0 0 0 0 0 0 0 0.1 0"/>
            <feMerge>
                <feMergeNode in="shadowMatrixInner1"/>
                <feMergeNode in="shadowMatrixInner2"/>
                <feMergeNode in="shadowMatrixInner3"/>
            </feMerge>
        </filter>
        <linearGradient id="upp1uiv1mc" x1="50%" x2="50%" y1="0%" y2="100%">
            <stop offset="0%" stop-color="#FAF8EB"/>
            <stop offset="97.258%" stop-color="#E6E7E7"/>
        </linearGradient>
        <linearGradient id="tpsaaip2de" x1="50%" x2="50%" y1=".716%" y2="100%">
            <stop offset="0%" stop-color="#008DFF"/>
            <stop offset="100%" stop-color="#0064DE"/>
        </linearGradient>
        <linearGradient id="x5r19k4vkh" x1="50%" x2="50%" y1="0%" y2="100%">
            <stop offset="0%" stop-color="#FAF8EB"/>
            <stop offset="97.258%" stop-color="#E6E7E7"/>
        </linearGradient>
        <circle id="99mw1ucx5b" cx="25" cy="25.1" r="18.6"/>
        <path id="hp38klvl3g" d="M20.316 18.633l-.02.066-.038.121-.048.158-.047.163-.038.135-.02.07-.038.14-1.8 6.674c-.739 2.777.912 5.626 3.687 6.365l3.795 1.01-3.969 1.063-.123.033-.119.03-.116.029-.112.027-.108.026-.106.024-.102.022-.099.02-.096.02-.093.018-.09.017-.087.015-.085.013-.083.013-.08.01-.077.01-.076.009-.073.007-.071.006-.07.005-.067.003-.034.002-.065.002h-.187l-.06-.003-.029-.001-.058-.004-.057-.004-.056-.005-.055-.007c-.01 0-.018-.002-.027-.003l-.055-.007-.054-.009c-.018-.002-.036-.005-.053-.009l-.05-.009c-.068-.012-.134-.026-.2-.042-.703-.164-1.314-.517-1.806-1.043l-.054-.057-.035-.04-.051-.059-.034-.04-.035-.042-.035-.043-.034-.044-.033-.045-.017-.023-.033-.047-.032-.048-.033-.05-.016-.024-.032-.052-.016-.026-.031-.054-.032-.056-.031-.058-.031-.06-.031-.061-.031-.064-.031-.066-.015-.034-.031-.07-.031-.073-.016-.037-.03-.077-.016-.04-.03-.08-.032-.084-.031-.087-.031-.09-.016-.047-.032-.095-.032-.1-.032-.102-.032-.106-.033-.11-.016-.056-.034-.116-.033-.12-.034-.124-1.534-5.725-.032-.121-.03-.118-.028-.114-.027-.11-.026-.108-.023-.104-.023-.1-.02-.099-.02-.094-.018-.092-.016-.09-.008-.043-.014-.086-.007-.042-.012-.081-.011-.08-.005-.038-.01-.076-.008-.074-.006-.072-.003-.035-.005-.07-.004-.066-.003-.066-.001-.032-.002-.063v-.122l.002-.03.002-.059.003-.057.004-.057.002-.028.006-.055.006-.055.007-.054c0-.009.002-.018.003-.026l.009-.054.008-.052.014-.077c.012-.058.024-.116.038-.175.164-.702.517-1.313 1.043-1.805l.056-.053.058-.051.04-.034.06-.051.04-.033.042-.033.043-.033.043-.032.045-.032.045-.031.047-.031.048-.031.05-.03.05-.031.053-.03.027-.015.056-.03.057-.03.058-.03.061-.03.032-.015.064-.03.066-.029.069-.03.071-.029.112-.044.077-.03.08-.03.042-.015.085-.03.088-.03.09-.03.095-.03.097-.031.1-.031.105-.031.108-.032.168-.048.118-.032.12-.033 2.563-.687zm4.961-2.714h.064l.065.003.084.003.086.006.036.003.072.006.074.008.077.009.079.01.081.011.084.013.086.014.135.024.093.018.096.02.099.02.102.022.106.024.108.026.113.027.116.028.12.03.122.033 6.757 1.799c2.06.548 3.295 2.648 2.781 4.71l-.019.074-1.812 6.721-.034.12-.032.117-.033.113-.032.109-.048.156-.046.149-.032.095-.03.091-.03.089-.031.085-.03.082-.03.08-.03.077-.031.074-.03.071-.03.069-.03.067-.037.08-.038.076-.03.06-.015.028-.03.056-.031.054-.031.053-.031.051-.031.05-.032.048-.031.047-.032.045-.033.045-.032.044-.034.042-.033.042-.034.041-.052.06-.033.039c-.028.032-.057.063-.087.094-.492.525-1.101.877-1.802 1.041l-.075.017-.05.01-.075.015-.05.01-.076.012-.05.007-.052.007-.066.008-.08.007-.095.006-.056.003-.057.002h-.147l-.061-.002-.063-.003-.064-.003-.066-.005-.067-.005-.07-.007-.035-.004-.072-.008-.074-.01-.077-.01-.078-.012-.08-.014-.084-.014-.086-.015-.133-.026-.092-.02-.094-.02-.098-.02-.1-.024-.104-.024-.106-.026-.11-.027-.113-.03-.176-.045-6.693-1.782c-2.061-.55-3.295-2.649-2.782-4.71l.02-.075 1.811-6.719.048-.172.032-.11.03-.108.031-.103.03-.1.046-.144.03-.092.03-.09.029-.086.03-.083.029-.08.029-.078.029-.075.028-.073.03-.07.028-.068.029-.066.029-.063.029-.061.029-.06.029-.057.029-.056.029-.053.03-.053.044-.075.03-.048.03-.048.03-.045.03-.045.031-.044.031-.042.032-.042.032-.04.048-.06.05-.06.033-.038.034-.038.07-.075c.491-.525 1.101-.877 1.802-1.04.091-.022.182-.041.275-.057l.05-.008.052-.007.054-.007.056-.007.028-.003.056-.005.029-.002.058-.004.059-.002.06-.002.062-.001h.031z"/>
    </defs>
    <g fill="none" fill-rule="evenodd">
        <g>
            <g>
                <path fill-rule="nonzero" d="M50 0v50H0V0h50zm-1.47 1.47H1.47v47.06h47.06V1.47z"/>
                <g>
                    <use fill="#000" filter="url(#i5rixaptqa)" xlink:href="#99mw1ucx5b"/>
                    <use fill="url(#upp1uiv1mc)" xlink:href="#99mw1ucx5b"/>
                    <use fill="#000" filter="url(#t1hb9x661d)" xlink:href="#99mw1ucx5b"/>
                </g>
                <circle cx="25" cy="25.1" r="17" fill="url(#tpsaaip2de)"/>
            </g>
            <g>
                <use fill="#000" filter="url(#7ql0uigy7f)" xlink:href="#hp38klvl3g"/>
                <use fill="url(#x5r19k4vkh)" xlink:href="#hp38klvl3g"/>
                <use fill="#000" filter="url(#dpu9urriji)" xlink:href="#hp38klvl3g"/>
            </g>
        </g>
    </g>
</svg>
