<svg xmlns="http://www.w3.org/2000/svg" width="24" height="24" viewBox="0 0 24 24">
    <defs>
        <filter id="a" width="117.3%" height="123.7%" x="-7.2%" y="-11.8%" filterUnits="objectBoundingBox">
            <feOffset in="SourceAlpha" result="shadowOffsetOuter1"/>
            <feGaussianBlur in="shadowOffsetOuter1" result="shadowBlurOuter1" stdDeviation="15"/>
            <feColorMatrix in="shadowBlurOuter1" result="shadowMatrixOuter1" values="0 0 0 0 0 0 0 0 0 0 0 0 0 0 0 0 0 0 0.5 0"/>
            <feMerge>
                <feMergeNode in="shadowMatrixOuter1"/>
                <feMergeNode in="SourceGraphic"/>
            </feMerge>
        </filter>
    </defs>
    <g fill="none" fill-rule="evenodd" filter="url(#a)">
        <rect width="24" height="24" fill="#101010" opacity=".502" rx="2"/>
        <path fill="#FFF" fill-rule="nonzero" d="M12 14.474a2.373 2.373 0 0 0 2.383-2.369V7.368A2.373 2.373 0 0 0 11.999 5a2.373 2.373 0 0 0-2.384 2.368v4.737A2.373 2.373 0 0 0 12 14.474zm4.695-2.369a.791.791 0 0 0-.779.671A3.978 3.978 0 0 1 12 16.053a3.978 3.978 0 0 1-3.917-3.277.791.791 0 0 0-.779-.67c-.484 0-.866.426-.794.9.389 2.368 2.296 4.223 4.696 4.562v1.643a.794.794 0 0 0 1.589 0v-1.643c2.4-.34 4.306-2.194 4.696-4.563.08-.473-.31-.9-.795-.9z"/>
    </g>
</svg>
