<svg xmlns="http://www.w3.org/2000/svg" width="24" height="24" viewBox="0 0 24 24">
    <defs>
        <filter id="a" width="117.3%" height="123.7%" x="-7.2%" y="-11.8%" filterUnits="objectBoundingBox">
            <feOffset in="SourceAlpha" result="shadowOffsetOuter1"/>
            <feGaussianBlur in="shadowOffsetOuter1" result="shadowBlurOuter1" stdDeviation="15"/>
            <feColorMatrix in="shadowBlurOuter1" result="shadowMatrixOuter1" values="0 0 0 0 0 0 0 0 0 0 0 0 0 0 0 0 0 0 0.5 0"/>
            <feMerge>
                <feMergeNode in="shadowMatrixOuter1"/>
                <feMergeNode in="SourceGraphic"/>
            </feMerge>
        </filter>
    </defs>
    <g fill="none" fill-rule="evenodd" filter="url(#a)">
        <rect width="24" height="24" fill="#101010" opacity=".502" rx="2"/>
        <path fill="#FFF" fill-rule="nonzero" d="M6 15.64v2.027a.33.33 0 0 0 .333.333H8.36a.313.313 0 0 0 .233-.1l7.279-7.272-2.5-2.5L6.1 15.4a.327.327 0 0 0-.1.24zm11.805-6.945c.26-.26.26-.68 0-.94l-1.56-1.56a.664.664 0 0 0-.94 0l-1.22 1.22 2.5 2.5 1.22-1.22z"/>
    </g>
</svg>
