<svg xmlns="http://www.w3.org/2000/svg" width="24" height="24" viewBox="0 0 24 24">
    <g fill="none" fill-rule="evenodd">
        <g>
            <g>
                <g>
                    <path d="M0 0H23.901V23.901H0z" transform="translate(-4519 -343) translate(4519 343)"/>
                </g>
                <path fill="#FFF" fill-rule="nonzero" d="M5.533 5.93c2.75-2.75 7.209-2.75 9.958 0 2.512 2.512 2.73 6.45.652 9.209l4.379 4.377c.167.167.245.297.288.438.042.14.042.284 0 .424-.043.14-.121.27-.288.437l-.103.104c-.167.166-.298.245-.438.287-.14.043-.284.043-.424 0-.14-.042-.27-.12-.438-.287l-4.377-4.38c-2.759 2.078-6.697 1.861-9.209-.65-2.75-2.75-2.75-7.21 0-9.959zm8.977.982c-2.208-2.208-5.787-2.208-7.995 0-2.207 2.207-2.207 5.787 0 7.994 2.208 2.208 5.787 2.208 7.995 0 2.207-2.207 2.207-5.787 0-7.994z" transform="translate(-4519 -343) translate(4519 343)"/>
            </g>
        </g>
    </g>
</svg>
