<svg xmlns="http://www.w3.org/2000/svg" width="18" height="18" viewBox="0 0 18 18">
    <g fill="none" fill-rule="evenodd">
        <g>
            <g>
                <path d="M0 0H18V18H0z" transform="translate(-677 -876) translate(677 876)"/>
                <path fill="#FB2942" fill-rule="nonzero" d="M9.156 4.422c3.686 0 6.675 2.988 6.675 6.675l-.001 3.181h1.286c.24 0 .435.195.435.436v2.27c0 .24-.195.435-.435.435H.936c-.241 0-.436-.195-.436-.435v-2.27c0-.24.195-.436.435-.436h1.06v-3.181c0-3.687 2.99-6.675 6.676-6.675h.485zm7.394 10.856H1.5v1.141h15.05v-1.14zM9.156 5.422H8.67c-3.062 0-5.557 2.424-5.671 5.457l-.004.218-.001 3.167H14.83v-3.167c0-3.062-2.423-5.557-5.457-5.671l-.217-.004zm-3.73-4.297l.064.064 1.442 1.719c.178.211.15.526-.061.704-.188.158-.458.153-.64.002l-.065-.064-1.442-1.718c-.177-.212-.15-.527.062-.705.188-.158.458-.153.64-.002zm7.107 0c.183-.151.453-.156.64.002.212.178.24.493.063.705L11.793 3.55l-.063.064c-.183.151-.453.156-.641-.002-.211-.178-.24-.493-.062-.704l1.443-1.72zM8.98 0c.245 0 .45.177.492.41L9.48.5v2.244c0 .276-.224.5-.5.5-.246 0-.45-.177-.492-.41l-.008-.09V.5c0-.276.224-.5.5-.5z" transform="translate(-677 -876) translate(677 876)"/>
            </g>
        </g>
    </g>
</svg>
