<svg xmlns="http://www.w3.org/2000/svg" width="44" height="44" viewBox="0 0 44 44">
    <g fill="none" fill-rule="evenodd">
        <g>
            <path d="M0 0L44 0 44 44 0 44z"/>
            <path fill="#00FF7C" d="M25.529 13.6c1.694 0 2.308.176 2.927.508.62.33 1.105.817 1.436 1.436.332.62.508 1.233.508 2.927v7.058c0 1.694-.176 2.308-.508 2.927-.33.62-.817 1.105-1.436 1.436-.62.332-1.233.508-2.927.508H18.47c-1.694 0-2.308-.176-2.927-.508-.62-.33-1.105-.817-1.436-1.436-.332-.62-.508-1.233-.508-2.927V18.47c0-1.694.176-2.308.508-2.927.33-.62.817-1.105 1.436-1.436.62-.332 1.233-.508 2.927-.508h7.058zm.35 4.515c-.474-.284-1.089-.13-1.373.343l-3.296 5.494-1.793-2.24-.03-.037c-.352-.398-.957-.454-1.375-.12-.432.346-.502.975-.157 1.406l2.691 3.364.03.034c.442.507 1.258.44 1.609-.145l4.036-6.727.023-.04c.252-.467.095-1.056-.366-1.332z"/>
        </g>
    </g>
</svg>
