<svg xmlns="http://www.w3.org/2000/svg" width="41" height="41" viewBox="0 0 41 41">
    <g fill="none" fill-rule="evenodd">
        <g>
            <path d="M0 0H41V41H0z" transform="matrix(-1 0 0 1 41 0)"/>
            <path fill="#1DB6FF" fill-rule="nonzero" d="M30.374 7.7c.461 0 .745.055 1.041.213.287.154.518.385.672.672.03.056.056.111.079.167l-.012-.023c.093.18.146.383.146.6V29.49c0 .197-.014.327-.061.48-.051.165-.133.315-.245.446-.104.122-.206.204-.372.31l-6.08 3.868c-.4.256-.867.391-1.342.391-1.38 0-2.5-1.119-2.5-2.5V30.7h-4.136c-.949 0-1.447-.096-1.965-.374-.483-.258-.867-.642-1.125-1.125-.269-.501-.367-.983-.374-1.872V24.7c0-.482.38-.876.858-.898L15 23.8c.497 0 .9.403.9.9v2.605l.001.127.003.116.004.104.005.095.003.044.008.082c.017.156.043.266.082.363l.02.047.023.046.012.023c.09.17.218.297.387.387l.023.012.046.023.047.02c.097.039.207.065.363.082l.082.008.09.006.1.004.169.005H21.7V16.28l.002-.17.002-.158.005-.148.006-.138.003-.065.01-.126c0-.02.002-.04.004-.06l.012-.114.006-.055.015-.107.017-.103c.012-.067.026-.132.042-.196l.024-.096.042-.145c.139-.451.358-.851.665-1.211l.066-.076.067-.073c.045-.048.092-.095.14-.142l.076-.07c.051-.045.106-.092.164-.139l.09-.071.15-.111.108-.078.118-.08.127-.086.21-.137L28.31 9.5H17.495l-.127.001-.116.003-.104.004-.095.005-.044.003-.082.008c-.156.017-.266.043-.363.082l-.047.02-.046.023-.023.012c-.17.09-.297.218-.387.387l-.012.023-.023.046-.02.047c-.039.097-.065.207-.082.363l-.008.082-.006.09-.004.1-.005.169v.127L15.9 14.9c0 .497-.403.9-.9.9s-.9-.403-.9-.9v-3.736c0-.949.096-1.447.374-1.965.258-.483.642-.867 1.125-1.125.501-.269.983-.367 1.872-.374h12.903zm.126 2.54l-5.707 3.631-.16.105-.137.093-.081.056-.074.053-.097.073-.057.046-.052.044-.047.043-.044.042-.041.042-.04.042-.037.043c-.148.174-.249.357-.316.576l-.016.055-.015.056-.017.072-.014.076-.01.065-.008.07-.008.076-.006.082-.005.09-.006.152-.002.113-.002.124-.001.21v16.115c0 .387.313.7.7.7l.05-.001c.115-.009.228-.046.326-.108l5.924-3.77V10.239zm-19.872 3.095c.342-.311.866-.312 1.209-.002l.033.032.03.03c.311.342.312.866.002 1.209l-.032.033L7.708 18.8H18.5l.042.001c.478.022.858.416.858.899 0 .483-.38.877-.858.899l-.042.001H7.908l3.962 3.963.03.03c.322.353.312.901-.03 1.242-.34.34-.885.352-1.239.032l-.033-.032-5.6-5.599-.029-.03c-.311-.342-.312-.866-.002-1.209l.032-.033 5.599-5.6.03-.029z"/>
        </g>
    </g>
</svg>
