<svg xmlns="http://www.w3.org/2000/svg" width="28" height="18" viewBox="0 0 28 18">
    <g fill="none">
        <path fill="#D8D8D8" d="M13.558 1.278C8.942.856 5.394-2.308 2.362 3.248 1.087 5.568.192 9.542.019 12.742c-.344 7.771 3.962 5.626 7.993 1.758 2.514-2.426 8.99-2.426 11.506 0 4.03 3.903 8.337 6.013 7.992-1.758-.138-3.2-1.033-7.138-2.343-9.494-3.031-5.556-6.58-2.357-11.196-1.97h-.413z"/>
        <path fill="#151424" d="M7.412 4.235c.76 0 1.356.626 1.356 1.35v.46h.464c.76 0 1.356.626 1.356 1.35 0 .757-.628 1.35-1.356 1.35h-.464v.494c0 .757-.628 1.35-1.356 1.35-.761 0-1.357-.626-1.357-1.35v-.461h-.463c-.761 0-1.357-.626-1.357-1.35 0-.757.629-1.35 1.357-1.35h.463v-.46c0-.79.629-1.383 1.357-1.383zM20.868 6.882c0-.673.54-1.212 1.213-1.212.674 0 1.213.539 1.213 1.212 0 .674-.539 1.213-1.213 1.213-.674.034-1.213-.539-1.213-1.213zm-1.28-3.706c.674 0 1.213.54 1.213 1.213 0 .674-.539 1.213-1.213 1.213s-1.213-.539-1.213-1.213c0-.64.54-1.213 1.213-1.213zm-3.706 3.706c0-.673.54-1.212 1.213-1.212.674 0 1.213.539 1.213 1.212 0 .674-.539 1.213-1.213 1.213-.674.034-1.213-.539-1.213-1.213zm3.706 1.28c.674 0 1.213.54 1.213 1.213 0 .674-.539 1.213-1.213 1.213s-1.213-.539-1.213-1.213c0-.673.54-1.212 1.213-1.212z"/>
    </g>
</svg>
