<svg xmlns="http://www.w3.org/2000/svg" width="30" height="30" viewBox="0 0 30 30">
    <path fill="#FFF" fill-rule="evenodd" d="M15 0c8.284 0 15 6.716 15 15 0 8.284-6.716 15-15 15-8.284 0-15-6.716-15-15C0 6.716 6.716 0 15 0zM9.372 9.216c-2.592 0-4.986 1.638-4.986 6.12v.648c0 4.266 2.178 5.994 4.95 5.994 2.646 0 4.968-1.62 4.968-6.066v-.63c0-4.392-2.286-6.066-4.932-6.066zm10.494 0c-1.44 0-2.7.396-3.564.882l.324 1.818c.684-.36 1.71-.738 2.484-.738 1.53 0 2.358.486 2.358 1.944S19.992 16.2 18.3 18l-2.142 2.286v1.476h7.992V19.8h-4.716l1.278-1.296c1.26-1.314 3.402-3.51 3.402-5.742 0-2.268-1.404-3.546-4.248-3.546zM9.354 11.124c1.53 0 2.304 1.296 2.304 4.158v.774c0 2.88-.756 4.014-2.322 4.014s-2.268-1.35-2.268-4.14v-.774c0-2.808.738-4.032 2.286-4.032z"/>
</svg>
