<svg xmlns="http://www.w3.org/2000/svg" width="30" height="30" viewBox="0 0 30 30">
    <path fill="#FFF" fill-rule="evenodd" d="M15 0c8.284 0 15 6.716 15 15 0 8.284-6.716 15-15 15-8.284 0-15-6.716-15-15C0 6.716 6.716 0 15 0zm-4.179 9.216c-2.592 0-4.986 1.638-4.986 6.12v.648c0 4.266 2.178 5.994 4.95 5.994 2.646 0 4.968-1.62 4.968-6.066v-.63c0-4.392-2.286-6.066-4.932-6.066zm11.034.144h-1.314l-3.276 1.44v1.494l2.016-.378v9.918h2.574V9.36zm-11.052 1.764c1.53 0 2.304 1.296 2.304 4.158v.774c0 2.88-.756 4.014-2.322 4.014s-2.268-1.35-2.268-4.14v-.774c0-2.808.738-4.032 2.286-4.032z"/>
</svg>
