<svg xmlns="http://www.w3.org/2000/svg" width="18" height="18" viewBox="0 0 18 18">
    <g fill="none" fill-rule="evenodd">
        <g fill-rule="nonzero">
            <g>
                <g>
                    <path d="M18 0v18H0V0h18zm-.5.5H.5v17h17V.5z" transform="translate(-1638 -229) translate(1623 161) translate(15 68)"/>
                    <path fill="#FFF" d="M14.146 2.042c.732.006 1.143.088 1.571.31.418.218.75.542.974.948.222.403.309.792.319 1.464H17c0 .47-.38.852-.858.874H16.1c-.497 0-.9-.39-.9-.874 0-.038.003-.076.007-.113l-.002-.073-.005-.073-.007-.079-.01-.068c-.009-.053-.02-.097-.035-.137l-.011-.028-.016-.035-.017-.033c-.049-.088-.113-.156-.198-.208l-.038-.021-.034-.017-.035-.015-.038-.014-.04-.012-.032-.008-.036-.007-.052-.008-.028-.004-.062-.006-.07-.005-.08-.004-.137-.003-.106-.001H3.825l-.103.002-.092.003-.082.004-.071.005-.063.007-.029.004-.052.009-.024.005-.023.006-.043.012-.039.014-.036.015-.036.018c-.091.047-.16.11-.214.192l-.022.037-.009.017-.016.033-.015.035c-.012.032-.022.066-.031.106l-.008.042-.008.054-.003.03-.003.03-.005.068-.004.077-.003.087-.002.098v7.897l.003.142.003.081.005.073.007.079.01.068c.009.053.02.097.035.137l.011.028.016.035.017.033c.049.088.113.156.198.208l.038.021.034.017.035.015.038.014.04.012.032.008.036.007.052.008.028.004.062.006.07.005.08.004.137.003.106.001h10.342l.138-.004.079-.004.07-.005.032-.003.058-.007.052-.008.036-.007.032-.008.04-.012.038-.014.035-.015.034-.017c.091-.047.16-.11.214-.192l.026-.045.021-.042.015-.035c.012-.032.022-.066.031-.106l.008-.042.008-.054.003-.03.003-.03.005-.068.004-.077.003-.087.002-.098V9.273l-.003-.141-.003-.082-.005-.072-.007-.08-.01-.067c-.009-.054-.02-.098-.035-.137l-.011-.03-.016-.033-.017-.034c-.049-.088-.113-.156-.198-.208l-.038-.02-.034-.018-.035-.015-.038-.013-.04-.012-.032-.008-.036-.008-.052-.008-.028-.003-.062-.007-.07-.005-.08-.003-.137-.004-.106-.001H5c-.497 0-.9-.392-.9-.875s.403-.875.9-.875h9.146c.732.006 1.143.088 1.571.311.418.217.75.541.974.947.229.416.314.816.32 1.528v3.289c0 .764-.082 1.179-.32 1.611-.223.406-.556.73-.974.947-.428.223-.84.305-1.571.311H3.94c-.786 0-1.212-.08-1.657-.31-.418-.218-.75-.542-.974-.948-.229-.416-.314-.816-.32-1.527V4.91c0-.764.082-1.179.32-1.611.223-.406.556-.73.974-.947.428-.223.84-.305 1.571-.311h10.292z" transform="translate(-1638 -229) translate(1623 161) translate(15 68)"/>
                </g>
            </g>
        </g>
    </g>
</svg>
