<svg xmlns="http://www.w3.org/2000/svg" width="18" height="18" viewBox="0 0 18 18">
    <g fill="none" fill-rule="evenodd">
        <g fill-rule="nonzero">
            <g>
                <g>
                    <path d="M18 0v18H0V0h18zm-.5.5H.5v17h17V.5z" transform="translate(-1748 -201) translate(1623 161) translate(125 40)"/>
                    <g fill="#4B5165">
                        <path d="M11.662.358l.031.029 4.667 4.537c.353.344.363.905.03 1.26l-.03.03-4.667 4.538c-.356.347-.926.339-1.273-.018-.336-.346-.338-.894-.011-1.242l.03-.03 4.003-3.893-4.004-3.891c-.346-.337-.363-.884-.046-1.242l.028-.031c.337-.346.884-.364 1.242-.047zm-6.524 0c.346-.307.87-.3 1.208.014l.034.033.028.03c.307.347.3.87-.014 1.21l-.032.033-4.004 3.891 4.004 3.892.03.03c.326.35.324.897-.012 1.243-.336.345-.881.364-1.24.05l-.033-.032L.44 6.215l-.03-.03C.089 5.84.087 5.304.408 4.958l.033-.034L5.107.387l.03-.029z" transform="translate(-1748 -201) translate(1623 161) translate(125 40) translate(.6 3.083)"/>
                    </g>
                </g>
            </g>
        </g>
    </g>
</svg>
