<svg xmlns="http://www.w3.org/2000/svg" width="18" height="18" viewBox="0 0 18 18">
    <g fill="none" fill-rule="evenodd">
        <g fill-rule="nonzero">
            <g>
                <g>
                    <path d="M18 0v18H0V0h18zm-.5.5H.5v17h17V.5z" transform="translate(-1724 -201) translate(1623 161) translate(101 40)"/>
                    <path fill="#4B5165" d="M15.4 11.375c0 1.396-1.164 2.528-2.6 2.528-1.436 0-2.6-1.132-2.6-2.528 0-1.396 1.164-2.528 2.6-2.528.093 0 .206.01.34.03.218.034.422-.116.455-.334.003-.02.005-.04.005-.06V4.194c0-.027-.002-.054-.005-.08l-.006-.041-.008-.037c-.082-.337-.414-.56-.767-.517l-.038.005-4.641.815-.149.028-.084.017-.091.021-.077.02-.053.016-.046.016-.04.017-.02.008-.035.018-.032.019-.032.02c-.074.05-.129.11-.17.184l-.025.046-.017.043-.007.017-.012.037-.01.04-.004.021-.008.048L7.219 5l-.006.057-.005.065-.004.074-.002.083-.002.148v7.308c0 1.396-1.164 2.528-2.6 2.528-1.436 0-2.6-1.132-2.6-2.528 0-1.396 1.164-2.528 2.6-2.528.093 0 .206.01.34.03.218.034.422-.116.456-.334.003-.02.004-.04.004-.06V5.401c0-.055.002-.108.003-.16l.006-.148c.021-.428.085-.716.217-1.012l.023-.05c.178-.376.448-.69.798-.928.307-.208.61-.33 1.107-.435l.08-.017.155-.03.082-.014 4.585-.805c1.358-.238 2.659.639 2.904 1.96.021.114.034.23.038.345l.002.087v7.18z" transform="translate(-1724 -201) translate(1623 161) translate(101 40)"/>
                </g>
            </g>
        </g>
    </g>
</svg>
