<svg xmlns="http://www.w3.org/2000/svg" width="20" height="20" viewBox="0 0 20 20">
    <g fill="none" fill-rule="evenodd">
        <g>
            <g>
                <path fill="#1DB6FF" d="M6.41 0h7.18c2.23 0 3.037.232 3.852.668.815.436 1.454 1.075 1.89 1.89.436.815.668 1.623.668 3.852v7.18c0 2.23-.232 3.037-.668 3.852-.436.815-1.075 1.454-1.89 1.89-.815.436-1.623.668-3.852.668H6.41c-2.23 0-3.037-.232-3.852-.668-.815-.436-1.454-1.075-1.89-1.89C.232 16.627 0 15.82 0 13.59V6.41c0-2.23.232-3.037.668-3.852.436-.815 1.075-1.454 1.89-1.89C3.373.232 4.18 0 6.41 0z" transform="translate(-3419 -931) translate(3419 931)"/>
                <path stroke="#FFF" stroke-linecap="round" stroke-linejoin="round" stroke-width="2" d="M5 10.625L8.636 15 15 6.25" transform="translate(-3419 -931) translate(3419 931)"/>
            </g>
        </g>
    </g>
</svg>
