<svg xmlns="http://www.w3.org/2000/svg" xmlns:xlink="http://www.w3.org/1999/xlink" width="20" height="20" viewBox="0 0 20 20">
    <defs>
        <filter id="76ssvhj6jb" width="115%" height="115%" x="-7.5%" y="-7.5%" filterUnits="objectBoundingBox">
            <feGaussianBlur in="SourceAlpha" result="shadowBlurInner1" stdDeviation="1.5"/>
            <feOffset in="shadowBlurInner1" result="shadowOffsetInner1"/>
            <feComposite in="shadowOffsetInner1" in2="SourceAlpha" k2="-1" k3="1" operator="arithmetic" result="shadowInnerInner1"/>
            <feColorMatrix in="shadowInnerInner1" values="0 0 0 0 0 0 0 0 0 0 0 0 0 0 0 0 0 0 0.0794361888 0"/>
        </filter>
        <path id="dvig8lwnna" d="M6.41 0h7.18c2.23 0 3.037.232 3.852.668.815.436 1.454 1.075 1.89 1.89.436.815.668 1.623.668 3.852v7.18c0 2.23-.232 3.037-.668 3.852-.436.815-1.075 1.454-1.89 1.89-.815.436-1.623.668-3.852.668H6.41c-2.23 0-3.037-.232-3.852-.668-.815-.436-1.454-1.075-1.89-1.89C.232 16.627 0 15.82 0 13.59V6.41c0-2.23.232-3.037.668-3.852.436-.815 1.075-1.454 1.89-1.89C3.373.232 4.18 0 6.41 0z"/>
    </defs>
    <g fill="none" fill-rule="evenodd">
        <g>
            <g transform="translate(-3419 -903) translate(3419 903)">
                <use fill="#1F222C" xlink:href="#dvig8lwnna"/>
                <use fill="#000" filter="url(#76ssvhj6jb)" xlink:href="#dvig8lwnna"/>
            </g>
        </g>
    </g>
</svg>
