<svg xmlns="http://www.w3.org/2000/svg" xmlns:xlink="http://www.w3.org/1999/xlink" width="53" height="53" viewBox="0 0 53 53">
    <defs>
        <filter id="xu2gvf2jwa" width="163.6%" height="163.6%" x="-31.8%" y="-31.8%" filterUnits="objectBoundingBox">
            <feOffset in="SourceAlpha" result="shadowOffsetOuter1"/>
            <feGaussianBlur in="shadowOffsetOuter1" result="shadowBlurOuter1" stdDeviation="3.5"/>
            <feComposite in="shadowBlurOuter1" in2="SourceAlpha" operator="out" result="shadowBlurOuter1"/>
            <feColorMatrix in="shadowBlurOuter1" values="0 0 0 0 0 0 0 0 0 0 0 0 0 0 0 0 0 0 0.495520105 0"/>
        </filter>
        <path id="tmfaga2ezb" d="M11.537 0h9.926c4.011 0 5.466.418 6.933 1.202 1.466.784 2.618 1.936 3.402 3.402C32.582 6.071 33 7.526 33 11.537v9.926c0 4.011-.418 5.466-1.202 6.933-.784 1.466-1.936 2.618-3.402 3.402-1.467.784-2.922 1.202-6.933 1.202h-9.926c-4.011 0-5.466-.418-6.933-1.202-1.466-.784-2.618-1.936-3.402-3.402C.418 26.929 0 25.474 0 21.463v-9.926c0-4.011.418-5.466 1.202-6.933.784-1.466 1.936-2.618 3.402-3.402C6.071.418 7.526 0 11.537 0z"/>
    </defs>
    <g fill="none" fill-rule="evenodd">
        <g>
            <path d="M0 0H53V53H0z"/>
            <g>
                <g transform="translate(10 10)">
                    <use fill="#000" filter="url(#xu2gvf2jwa)" xlink:href="#tmfaga2ezb"/>
                    <path fill="#FF731B" stroke="#FFF" stroke-linejoin="square" stroke-opacity=".2" d="M11.537.5h9.926c3.87 0 5.28.385 6.697 1.143 1.378.737 2.46 1.819 3.197 3.197.758 1.417 1.143 2.827 1.143 6.697h0v9.926c0 3.87-.385 5.28-1.143 6.697-.737 1.378-1.819 2.46-3.197 3.197-1.417.758-2.827 1.143-6.697 1.143h0-9.926c-3.87 0-5.28-.385-6.697-1.143-1.378-.737-2.46-1.819-3.197-3.197C.885 26.743.5 25.333.5 21.463h0v-9.926c0-3.87.385-5.28 1.143-6.697.737-1.378 1.819-2.46 3.197-3.197C6.257.885 7.667.5 11.537.5h0z"/>
                </g>
                <g>
                    <path d="M0 0H23V23H0z" transform="translate(10 10) translate(5 5)"/>
                    <g fill="#FFF" transform="translate(10 10) translate(5 5) translate(2.4 4.3)">
                        <circle cx="3.1" cy="3.1" r="3.1"/>
                        <path d="M10.455 0h5.32c.819 0 1.116.085 1.415.245.3.16.534.395.695.695.16.3.245.596.245 1.415v1.49c0 .819-.085 1.116-.245 1.415-.16.3-.395.535-.695.695-.3.16-.596.245-1.415.245h-5.32c-.819 0-1.116-.085-1.415-.245-.3-.16-.535-.395-.695-.695-.16-.3-.245-.596-.245-1.415v-1.49c0-.819.085-1.116.245-1.415.16-.3.395-.535.695-.695.3-.16.596-.245 1.415-.245z"/>
                        <path d="M2.355 8.1h5.32c.819 0 1.116.085 1.415.245.3.16.534.395.695.695.16.3.245.596.245 1.415v1.49c0 .819-.085 1.116-.245 1.415-.16.3-.395.535-.695.695-.3.16-.596.245-1.415.245h-5.32c-.819 0-1.116-.085-1.415-.245-.3-.16-.535-.395-.695-.695-.16-.3-.245-.596-.245-1.415v-1.49c0-.819.085-1.116.245-1.415.16-.3.395-.535.695-.695.3-.16.596-.245 1.415-.245z" transform="rotate(-180 5.015 11.2)"/>
                        <path d="M14.285 8.1h1.49c.819 0 1.116.085 1.415.245.3.16.534.395.695.695.16.3.245.596.245 1.415v1.49c0 .819-.085 1.116-.245 1.415-.16.3-.395.535-.695.695-.3.16-.596.245-1.415.245h-1.49c-.819 0-1.116-.085-1.415-.245-.3-.16-.535-.395-.695-.695-.16-.3-.245-.596-.245-1.415v-1.49c0-.819.085-1.116.245-1.415.16-.3.395-.535.695-.695.299-.16.596-.245 1.415-.245z" transform="rotate(-180 15.03 11.2)"/>
                    </g>
                </g>
            </g>
        </g>
    </g>
</svg>
