<svg xmlns="http://www.w3.org/2000/svg" width="58" height="58" viewBox="0 0 58 58">
    <g fill="none" fill-rule="evenodd">
        <g>
            <g>
                <g>
                    <g>
                        <path fill="#4A4E5D" d="M44.9 21.48c.884 0 1.6.72 1.6 1.609 0 .871-.69 1.581-1.55 1.608H38.1v1.67c0 .639-.101 1.085-.293 1.466l-.028.054c-.209.394-.516.702-.907.913-.373.2-.805.311-1.423.321H21.64c-.666 0-1.121-.111-1.512-.321-.391-.21-.698-.52-.907-.913-.2-.375-.31-.81-.32-1.43l-.001-.09v-1.67h-2.6v4.795l.002.144.002.068.005.126.008.117c.016.223.044.388.085.527l.02.067.023.064.025.06.013.03.028.058.03.057c.156.295.387.527.68.684l.057.03.057.028.03.013.06.025.063.023.067.021c.138.04.303.07.525.086l.115.007.126.005.067.002.181.002H40.1c1.086 0 1.97.87 2 1.955v.056c0 1.111-.895 2.011-2 2.011h-1.714l3.023 11.343c.214.805-.26 1.632-1.06 1.847-.785.212-1.59-.243-1.824-1.018l-.014-.048-1.676-6.292h-16.87l-1.676 6.292c-.214.804-1.037 1.282-1.837 1.066-.8-.215-1.275-1.042-1.06-1.847l3.022-11.343h-.687l-.178-.003-.17-.004-.16-.005-.152-.008-.145-.008-.203-.016-.127-.013-.12-.014c-.078-.01-.152-.021-.222-.033l-.103-.019-.099-.02-.116-.028-.11-.03-.085-.025-.081-.027-.079-.029-.076-.03-.074-.031-.073-.033-.071-.034-.07-.036-.071-.037c-.587-.316-1.047-.779-1.361-1.368l-.037-.071-.036-.071-.034-.072-.032-.074-.032-.074-.03-.077-.028-.079-.027-.081-.025-.085-.03-.11-.027-.118-.02-.099-.019-.104c-.012-.07-.023-.145-.033-.223l-.014-.121-.012-.128-.011-.134-.005-.07-.01-.145-.006-.153-.006-.162-.004-.17-.002-.18-.001-.188v-6.42h-1.2c-.867 0-1.573-.694-1.6-1.56v-.05c0-.871.69-1.581 1.55-1.607l.05-.001h32.8zm-9.62 14.278H21.52l-.75 2.816h15.26l-.75-2.816zM21.977 7H35.187l.152.004.073.002.137.005.129.008.12.009c.135.012.253.027.36.046l.088.017.083.019.078.02.074.023.07.024.068.026.065.027.064.03.062.03.062.032c.391.21.698.52.907.913l.033.062.03.062.03.064.026.066.026.068.024.07.022.075.02.08.02.083.016.088c.017.092.03.193.041.305l.01.116.004.062.008.129.005.138.004.148.001.078.001.165v8.055c0 .179-.019.244-.053.31-.035.065-.086.116-.152.152-.065.035-.13.053-.308.053H19.413c-.179 0-.243-.018-.308-.053-.066-.036-.117-.087-.152-.153-.032-.06-.05-.12-.053-.27v-8.094-.165l.004-.153.002-.073.005-.138.008-.13.009-.12c.011-.136.027-.255.046-.362l.017-.088.018-.084.02-.079.023-.074.024-.071.026-.068.027-.066.029-.064.03-.062.033-.062c.209-.394.516-.702.907-.913l.062-.032.062-.03.064-.03.065-.027.067-.026.07-.024.075-.022.078-.021.083-.019.089-.017c.09-.016.19-.03.303-.04l.115-.011.061-.004.129-.008.137-.005.148-.004.077-.001.164-.001z" transform="translate(-1628 -356) translate(1297 164) translate(240 172) translate(91 20)"/>
                        <path d="M0 0H58V58H0z" transform="translate(-1628 -356) translate(1297 164) translate(240 172) translate(91 20)"/>
                    </g>
                </g>
            </g>
        </g>
    </g>
</svg>
