<svg xmlns="http://www.w3.org/2000/svg" width="145" height="32" viewBox="0 0 145 32">
    <g fill="none" fill-rule="evenodd">
        <g fill="#FFF" fill-rule="nonzero">
            <g>
                <path d="M44.226 1.638L34.265 31.122 29.154 31.122 22.134 9.567 15.114 31.122 10 31.122 0 1.638 5.9 1.638 12.854 23.591 19.523 1.638 24.682 1.638 31.45 23.591 38.368 1.638zM45.866 3.195c-.03-.855.307-1.684.931-2.29.624-.605 1.479-.932 2.36-.903.879-.029 1.73.3 2.348.906.618.606.947 1.436.908 2.287.04.85-.29 1.676-.91 2.277-.619.602-1.47.923-2.345.885-.879.037-1.733-.283-2.358-.883-.625-.6-.964-1.426-.934-2.279zm.53 6.636h5.534v21.291h-5.534V9.832zM61.104 26.728L73.71 14.186 73.71 9.828 55.848 9.828 55.848 14.215 68.437 14.186 55.848 26.728 55.692 31.122 73.71 31.122 73.71 26.696zM96.642 26.467L96.642 31.122 78.624 31.122 78.624 1.638 84.047 1.638 84.047 26.467zM126.058 28.065L126.058 31.122 121.212 31.122 121.212 1.638 126.126 1.638 126.126 13.697M117.936 14.843c0-8.598-9.295-8.29-9.295-8.29-10.58 0-9.905 7.618-9.905 7.618h5.41c.934-2.54 4.495-2.168 4.495-2.168 3.743.202 3.772 3.307 3.772 3.307v2.436c-1.592-.318-3.21-.483-4.834-.492-5.603 0-9.299 2.781-9.299 7.036 0 4.09 3.046 6.831 7.555 6.831 2.678.04 5.19-1.304 6.658-3.56l.12 3.149h5.323V14.843zm-10.517 12.324c-2.233 0-3.411-1.186-3.411-2.987 0-1.881 1.703-3.105 4.26-3.105 1.4.015 2.793.165 4.163.448-.058 3.601-2.455 5.644-5.012 5.644zM131.04 9.828v5.263s8.004-.285 8.004 5.19c0 0 .151 5.534-8.004 5.534v5.259s13.1 1.39 13.1-10.793c-.01 0 .745-10.453-13.1-10.453z" transform="translate(-532 -237) translate(532 237)"/>
            </g>
        </g>
    </g>
</svg>
