<svg xmlns="http://www.w3.org/2000/svg" width="33" height="33" viewBox="0 0 33 33">
    <g fill="none" fill-rule="evenodd" opacity=".749">
        <g>
            <g>
                <g>
                    <g>
                        <g>
                            <path d="M0 0H32.4V32.4H0z" transform="translate(-896 -535) translate(0 531) translate(896 4)"/>
                        </g>
                        <g stroke="#FFF" stroke-width="1.576">
                            <path d="M16.23.788c1.525.374 2.028.54 2.254.802h0l.34 10.725c-.374 1.576-.537 2.089-.8 2.317h0l-9.532.342c-.402-.003-.786-.17-1.064-.46h0L2.073 8.91c-.275-.288-.413-.659-.413-1.029 0-.37.138-.74.413-1.028h0l5.355-5.605c.28-.294.67-.46 1.076-.46h0z" transform="translate(-896 -535) translate(0 531) translate(896 4) translate(5.517 8.932)"/>
                        </g>
                    </g>
                    <path fill="#FFF" fill-rule="nonzero" d="M15.386 13.186l.032.03 2.358 2.359 2.358-2.359c.342-.341.897-.341 1.239 0 .331.332.341.863.03 1.207l-.03.032-2.358 2.358 2.358 2.358c.342.342.342.896 0 1.238-.332.332-.863.342-1.207.03l-.032-.03-2.358-2.358-2.358 2.358c-.342.342-.896.342-1.238 0-.332-.331-.342-.863-.03-1.206l.03-.032 2.358-2.358-2.358-2.358c-.342-.342-.342-.897 0-1.239.321-.321.83-.34 1.175-.057l.031.027z" transform="translate(-896 -535) translate(0 531) translate(896 4)"/>
                </g>
            </g>
        </g>
    </g>
</svg>
