<svg xmlns="http://www.w3.org/2000/svg" width="32" height="32" viewBox="0 0 32 32">
    <g fill="none" fill-rule="evenodd" opacity=".749">
        <g>
            <g>
                <g>
                    <g>
                        <path d="M0 0H32V32H0z" transform="translate(-936 -536) translate(0 531) translate(936 5)"/>
                    </g>
                    <path fill="#FFF" fill-rule="nonzero" d="M21.582 8.476h.15l.141.003.134.003.156.006.174.011.133.011.05.005.097.011.091.013.087.014c.042.007.082.015.12.023l.076.017.037.01.07.019.067.02c.044.014.086.03.126.045l.06.025.06.025.057.027.056.029.057.03c.423.225.754.557.98.98l.03.056.028.057.027.058.026.058.024.06c.016.041.031.083.045.127l.021.067.02.07.008.036.018.076.023.121.014.086.012.092.012.097.014.156.01.17.009.187.003.133.002.142.001.15v4.049l-.003.141-.003.134-.007.156-.01.174-.011.133-.005.05-.012.097-.012.091-.014.087c-.007.042-.015.082-.023.12l-.018.076-.009.037-.019.07-.02.067-.046.126-.024.06-.026.059-.027.058-.028.056-.03.057c-.226.423-.557.754-.98.98l-.057.03-.056.028-.058.027-.059.026-.06.024c-.04.016-.082.031-.126.045l-.067.02-.07.02-.037.01-.075.016c-.039.009-.08.017-.121.024l-.087.014-.09.012-.098.011-.156.015-.17.01-.187.009-.134.003-.141.002-.15.001H10.441l-.141-.003-.134-.003-.156-.007-.174-.01-.03-.003 3.625 3.625c.295.296.303.77.025 1.075l-.025.026c-.296.296-.77.304-1.075.026l-.026-.026-5.015-5.014c-.295-.296-.304-.77-.025-1.075l.025-.026 1.506-1.506.005-.006 3.504-3.503c.304-.304.797-.304 1.1 0 .296.295.304.769.026 1.074l-.025.027-3.731 3.73.05.008.08.009.069.006.116.008.132.005.15.004.11.001.184.001h11.174l.163-.003.098-.003.09-.003.121-.007.073-.006.082-.008.074-.01.054-.01.05-.01.046-.01.043-.013.02-.007.04-.014.038-.015.036-.016.054-.027c.151-.081.26-.19.342-.342l.027-.054.016-.036.015-.038.014-.04.007-.02.012-.043.012-.046.01-.05.004-.026.011-.071.01-.08.005-.069.008-.116.005-.133.004-.15.002-.11v-4.266l-.003-.162-.003-.098-.003-.09-.007-.121-.006-.073-.008-.082-.01-.074-.01-.054-.01-.05-.01-.046-.013-.044-.007-.02-.014-.04-.015-.037-.016-.036-.027-.054c-.081-.151-.19-.261-.342-.342l-.054-.027-.036-.016-.038-.016-.04-.014-.02-.006-.043-.013-.046-.01-.05-.011-.026-.005-.071-.01-.08-.01-.069-.005-.116-.008-.132-.006-.15-.003-.11-.002H17.556c-.43 0-.779-.35-.779-.779 0-.43.349-.778.779-.778h4.025z" transform="translate(-936 -536) translate(0 531) translate(936 5)"/>
                </g>
            </g>
        </g>
    </g>
</svg>
