<svg xmlns="http://www.w3.org/2000/svg" width="17" height="20" viewBox="0 0 17 20">
    <g fill="#FFF" opacity=".607">
        <path d="M16.248 10.327c-.096-.439-.31-.807-.641-1.104-.331-.297-.712-.472-1.143-.524-1.368-.149-3.432-.223-6.19-.223-2.759 0-4.818.074-6.179.223-.438.052-.821.227-1.149.524C.62 9.521.404 9.89.3 10.327c-.194.863-.29 2.164-.29 3.904 0 1.77.096 3.07.29 3.903.096.439.31.807.641 1.104.33.298.712.469 1.143.513 1.368.156 3.432.234 6.19.234 2.758 0 4.822-.078 6.19-.234.43-.044.81-.215 1.137-.513.327-.297.543-.665.647-1.104.193-.862.29-2.163.29-3.903 0-1.77-.097-3.071-.29-3.904zm-11.52 1.127H3.534V17.8H2.42v-6.346H1.248v-1.048h3.48v1.048zm3.01 6.346h-.992v-.603c-.401.454-.78.68-1.138.68-.342 0-.557-.137-.646-.412-.06-.179-.09-.45-.09-.814v-4.36h.993v4.059c0 .237.004.368.011.39.023.156.1.234.234.234.201 0 .413-.156.636-.468V12.29h.993v5.51zm3.793-1.651c0 .543-.034.915-.1 1.115-.127.41-.39.614-.792.614-.357 0-.703-.205-1.038-.614v.536H8.61v-7.394H9.6v2.42c.32-.402.666-.602 1.038-.602.401 0 .665.208.792.624.066.193.1.561.1 1.104v2.197zm3.77-.915h-1.997v.97c0 .514.17.77.513.77.245 0 .394-.133.446-.401.015-.075.022-.301.022-.68H15.3v.144c0 .365-.007.58-.022.647-.022.2-.1.402-.234.602-.268.395-.67.592-1.205.592-.513 0-.914-.19-1.205-.57-.215-.274-.323-.705-.323-1.293v-1.93c0-.587.104-1.018.312-1.293.29-.38.688-.569 1.194-.569.498 0 .892.19 1.182.569.201.275.301.706.301 1.294v1.148z"/>
        <path d="M10.103 13.127c-.171 0-.338.082-.502.245v3.357c.164.163.33.245.502.245.29 0 .435-.249.435-.747v-2.353c0-.498-.145-.747-.435-.747zM13.806 13.127c-.335 0-.502.253-.502.758v.513h1.004v-.513c0-.506-.168-.758-.502-.758zM4.081 4.45v3.022h1.115V4.45L6.546 0H5.407L4.65 2.933 3.858 0H2.676c.208.625.45 1.32.725 2.086.35 1.026.576 1.814.68 2.364zM8.04 7.55c.513 0 .907-.19 1.182-.568.208-.275.312-.714.312-1.316V3.714c0-.595-.104-1.03-.312-1.305-.275-.38-.67-.569-1.182-.569-.498 0-.889.19-1.171.569-.208.275-.312.71-.312 1.305v1.952c0 .594.104 1.033.312 1.316.282.379.673.568 1.17.568zm-.48-4.037c0-.513.16-.77.48-.77.32 0 .48.257.48.77v2.342c0 .52-.16.78-.48.78-.32 0-.48-.26-.48-.78V3.513zM11.107 7.55c.372 0 .755-.23 1.149-.691v.613h1.014V1.907h-1.014v4.25c-.224.319-.435.479-.636.479-.134 0-.212-.082-.235-.246-.007-.014-.01-.145-.01-.39V1.907h-1.016v4.394c0 .38.03.658.09.837.096.275.316.412.658.412z"/>
    </g>
</svg>
