# Aspose.3D Wavefront OBJ Exporter
# Copyright 2004-2020 Aspose Pty Ltd.
# File created: 12/24/2020 4:16:40 AM


#
# object Cube.007
#

v 0.4230037331581116 0.52860372327561064 -0.42299693494212352
v 0.42300328612327576 0.5286038611065568 0.42300337881671544
v 1.20297169685363768 -0.34966394305183472 2.8345440701959184E-06
v 0.90000343322753904 -0.35024621844364716 -0.8999971772821424
v 0.90000343322753904 -0.35024592518641224 0.90000289424340752
v 0.56539857387542728 0.52833020687154816 3.120654154450945E-06
v -5.2754086937056854E-05 0.52860379218194288 -5.288391774149352E-05
v -0.4229967892169952 0.52860372327561064 -0.42299693494212352
v -0.42299637198448184 0.5286038611065568 0.42300337881671544
v -1.2029651403427124 -0.34966394305183472 2.8345440701959184E-06
v 3.4650167890504235E-06 -0.34966374445038916 1.21900981400940212
v 3.4650167890504235E-06 0.5283301135288552 -0.57293024326050968
v -0.89999657869338992 -0.35024621844364716 -0.8999971772821424
v -0.89999657869338992 -0.35024592518641224 0.90000289424340752
v 3.4650167890504235E-06 -1.95669853687238544 3.0963632383841756E-06
v -0.56539160013198856 0.52833020687154816 3.120654154450945E-06
v 3.4650167890504235E-06 -0.3496641416533114 -1.219004335656398
v 3.4650167890504235E-06 0.52833030021420624 0.57293626999173352
# 18 vertices

vn 0.7807947397232056 0.56674949638822944 0.2629721731467392
vn 0.7807947397232056 0.56674949638822944 0.2629721731467392
vn 0.7807947397232056 0.56674949638822944 0.2629721731467392
vn 0.7807947397232056 0.56674949638822944 0.2629721731467392
vn 0.7807947993278504 0.56674952991030272 -0.26297220880555904
vn 0.7807947993278504 0.56674952991030272 -0.26297220880555904
vn 0.7807947993278504 0.56674952991030272 -0.26297220880555904
vn 0.7807947993278504 0.56674952991030272 -0.26297220880555904
vn -0.7807947397232056 0.56674970872422744 -0.26297226841023304
vn -0.7807947397232056 0.56674970872422744 -0.26297226841023304
vn -0.7807947397232056 0.56674970872422744 -0.26297226841023304
vn -0.7807947397232056 0.56674970872422744 -0.26297226841023304
vn 0.27468129992485048 0.5697281290783088 -0.77457085593161872
vn 0.27468129992485048 0.5697281290783088 -0.77457085593161872
vn 0.27468129992485048 0.5697281290783088 -0.77457085593161872
vn 0.27468129992485048 0.5697281290783088 -0.77457085593161872
vn 0.27468112111091612 0.56972790462841872 0.7745711471278256
vn 0.27468112111091612 0.56972790462841872 0.7745711471278256
vn 0.27468112111091612 0.56972790462841872 0.7745711471278256
vn 0.27468112111091612 0.56972790462841872 0.7745711471278256
vn 0.00048392589087598026 0.99999970189792848 -0.0004840457960455513
vn 0.00048392589087598026 0.99999970189792848 -0.0004840457960455513
vn 0.00048392589087598026 0.99999970189792848 -0.0004840457960455513
vn -0.0004775292763952166 0.99999976150359488 -0.00047777319299613374
vn -0.0004775292763952166 0.99999976150359488 -0.00047777319299613374
vn -0.0004775292763952166 0.99999976150359488 -0.00047777319299613374
vn 0.7730498313903808 -0.57867725430215456 0.25985861311737744
vn 0.7730498313903808 -0.57867725430215456 0.25985861311737744
vn 0.7730498313903808 -0.57867725430215456 0.25985861311737744
vn -0.00048399847582913935 0.9999997018979336 -0.00048401340348225297
vn -0.00048399847582913935 0.9999997018979336 -0.00048401340348225297
vn -0.00048399847582913935 0.9999997018979336 -0.00048401340348225297
vn 0.0004774698172695935 0.99999976165918976 0.0004772604760192589
vn 0.0004774698172695935 0.99999976165918976 0.0004772604760192589
vn 0.0004774698172695935 0.99999976165918976 0.0004772604760192589
vn 0.27142193913459776 -0.58166080141245672 0.76681218086992992
vn 0.27142193913459776 -0.58166080141245672 0.76681218086992992
vn 0.27142193913459776 -0.58166080141245672 0.76681218086992992
vn 0.7730499505996704 -0.5786773389748124 -0.25985845436270292
vn 0.7730499505996704 -0.5786773389748124 -0.25985845436270292
vn 0.7730499505996704 -0.5786773389748124 -0.25985845436270292
vn 0.2714219093322754 -0.58166111087618424 -0.76681193173608848
vn 0.2714219093322754 -0.58166111087618424 -0.76681193173608848
vn 0.2714219093322754 -0.58166111087618424 -0.76681193173608848
vn -0.7807946801185608 0.56674973480683752 0.26297235196063468
vn -0.7807946801185608 0.56674973480683752 0.26297235196063468
vn -0.7807946801185608 0.56674973480683752 0.26297235196063468
vn -0.7807946801185608 0.56674973480683752 0.26297235196063468
vn -0.27468127012252808 0.5697281290783088 -0.77457085593161872
vn -0.27468127012252808 0.5697281290783088 -0.77457085593161872
vn -0.27468127012252808 0.5697281290783088 -0.77457085593161872
vn -0.27468127012252808 0.5697281290783088 -0.77457085593161872
vn -0.27468112111091612 0.56972796423306352 0.77457114712781584
vn -0.27468112111091612 0.56972796423306352 0.77457114712781584
vn -0.27468112111091612 0.56972796423306352 0.77457114712781584
vn -0.27468112111091612 0.56972796423306352 0.77457114712781584
vn 0.0004775625711772591 0.9999997018989656 -0.000477679536859954
vn 0.0004775625711772591 0.9999997018989656 -0.000477679536859954
vn 0.0004775625711772591 0.9999997018989656 -0.000477679536859954
vn -0.0004773136170115322 0.99999976165920496 0.00047735410304183823
vn -0.0004773136170115322 0.99999976165920496 0.00047735410304183823
vn -0.0004773136170115322 0.99999976165920496 0.00047735410304183823
vn -0.77304977178573616 -0.57867737351140528 0.259858851535976
vn -0.77304977178573616 -0.57867737351140528 0.259858851535976
vn -0.77304977178573616 -0.57867737351140528 0.259858851535976
vn 0.0004837329324800521 0.99999976166024736 0.00048375295851754707
vn 0.0004837329324800521 0.99999976166024736 0.00048375295851754707
vn 0.0004837329324800521 0.99999976166024736 0.00048375295851754707
vn -0.27142193913459776 -0.58166080141245672 0.76681218086992992
vn -0.27142193913459776 -0.58166080141245672 0.76681218086992992
vn -0.27142193913459776 -0.58166080141245672 0.76681218086992992
vn -0.7730498313903808 -0.57867739857949128 -0.25985866297894988
vn -0.7730498313903808 -0.57867739857949128 -0.25985866297894988
vn -0.7730498313903808 -0.57867739857949128 -0.25985866297894988
vn -0.2714219093322754 -0.58166111087618424 -0.76681193173608848
vn -0.2714219093322754 -0.58166111087618424 -0.76681193173608848
vn -0.2714219093322754 -0.58166111087618424 -0.76681193173608848
vn -0.0004838054592255503 0.99999976166024224 0.0004837205659542487
vn -0.0004838054592255503 0.99999976166024224 0.0004837205659542487
vn -0.0004838054592255503 0.99999976166024224 0.0004837205659542487
# 80 vertex normals

g Cube.007
usemtl Material
s 1
f 3//1 6//2 2//3 5//4
f 4//5 1//6 6//7 3//8
f 13//9 10//10 16//11 8//12
f 1//13 4//14 17//15 12//16
f 5//17 2//18 18//19 11//20
f 6//21 7//22 2//23
f 7//24 1//25 12//26
f 3//27 5//28 15//29
f 9//30 7//31 16//32
f 18//33 7//34 9//35
f 15//36 5//37 11//38
f 15//39 4//40 3//41
f 4//42 15//43 17//44
f 10//45 14//46 9//47 16//48
f 17//49 13//50 8//51 12//52
f 18//53 9//54 14//55 11//56
f 7//57 12//58 8//59
f 2//60 7//61 18//62
f 10//63 15//64 14//65
f 1//66 7//67 6//68
f 15//69 11//70 14//71
f 15//72 10//73 13//74
f 13//75 17//76 15//77
f 16//78 7//79 8//80
#24 polygons

