# Aspose.3D Wavefront OBJ Exporter
# Copyright 2004-2020 Aspose Pty Ltd.
# File created: 12/24/2020 4:16:50 AM


#
# object Cube.013
#

v -0.3684934377670288 0.5071889570563072 -0.1151155538158248
v 2.0549410351122788E-07 1.6412952950804316 -0.11511573858520014
v 1.56096291542053224 0.5071889570563072 -0.1151155538158248
v 0.96472799777984624 -1.32783307520456328 -0.1151152548527882
v -0.96472835540771488 -1.32783307520456328 -0.1151152548527882
v -1.5609625577926636 0.5071889570563072 -0.1151155538158248
v -0.59623473882675168 -0.19372658816882704 -0.11511543962218782
v 0.36849385499954224 0.5071889570563072 -0.1151155538158248
v -2.083324261548114E-06 -0.62691446034022328 -0.11511536904692528
v 0.59623354673385624 -0.19372353343078232 -0.1151154396226855
v 0.298112690448761 -0.41032205924169584 -0.29906927814746124
v -3.6092033042223193E-06 2.0289230694283165E-06 -0.29906934499774056
v -0.29808712005615236 -0.41034339770452544 -0.29906927814398476
v -0.48237669467926024 0.15669300750119366 -0.29906937052594128
v -5.574453325607465E-07 0.50718892708641704 -0.29906942762897472
v 0.48235872387886048 0.15674794808251538 -0.29906937053489224
v -0.96472835540771488 -1.3278330378948424 0.11389017876623114
v -0.59623473882675168 -0.19372655085910616 0.11388999399683152
v 0.36849385499954224 0.50718899436602808 0.11388987980319456
v 1.56096291542053224 0.50718899436602808 0.11388987980319456
v -1.5609625577926636 0.50718899436602808 0.11388987980319456
v -0.3684934377670288 0.50718899436602808 0.11388987980319456
v -0.48237669467926024 0.15669310513191404 0.30018371770990592
v 2.0549410351122788E-07 1.64129533239015248 0.1138896950338192
v -0.29808712005615236 -0.41034330007380504 0.30018381009186244
v -5.574453325607465E-07 0.50718902471713744 0.30018366060687252
v 0.59623354673385624 -0.19372349612106144 0.11388999399633384
v 0.96472799777984624 -1.3278330378948424 0.11389017876623114
v -2.083324261548114E-06 -0.6269144230305024 0.11389006457209406
v 0.48235872387886048 0.15674804571323576 0.30018371770095496
v 0.298112690448761 -0.41032196161097544 0.30018381008838596
v -3.6092033042223193E-06 2.126553789824416E-06 0.30018374323810664
v 2.0549410351122788E-07 1.64538085469732584 0.00055656312332984
v -0.36941051483154296 0.50845164069663904 0.00055674835261006
v 1.56484854221343992 0.50845164069663904 0.00055674835261006
v 0.36941167712211608 0.50845164069663904 0.00055674835261006
v 0.96712970733642576 -1.3311381339119488 0.00055704805982635
v 0.59771746397018432 -0.19420568635928272 0.00055686283001932
v -1.56484818458557128 0.50845164069663904 0.00055674835261006
v -0.59771901369094848 -0.19420874109732744 0.000556862830517
v -2.083324261548114E-06 -0.62847620239721792 0.00055693358166693
v -0.9671301245689392 -1.3311381339119488 0.00055704805982635
# 42 vertices

vn -0.27320334315299988 -0.37603246689757944 -0.88541483713208496
vn -0.27320334315299988 -0.37603246689757944 -0.88541483713208496
vn -0.27320334315299988 -0.37603246689757944 -0.88541483713208496
vn -0.44664525985717776 2.600566219812528E-06 -0.89471113681836768
vn -0.44664525985717776 2.600566219812528E-06 -0.89471113681836768
vn -0.44664525985717776 2.600566219812528E-06 -0.89471113681836768
vn -0.44197919964790344 0.1436076360783508 -0.8854553337413616
vn -0.44197919964790344 0.1436076360783508 -0.8854553337413616
vn -0.44197919964790344 0.1436076360783508 -0.8854553337413616
vn 0.44201341271400448 0.14361879705114388 -0.88543655828007568
vn 0.44201341271400448 0.14361879705114388 -0.88543655828007568
vn 0.44201341271400448 0.14361879705114388 -0.88543655828007568
vn 0.27317044138908388 -0.37598934294172624 -0.88544332815931344
vn 0.27317044138908388 -0.37598934294172624 -0.88544332815931344
vn 0.27317044138908388 -0.37598934294172624 -0.88544332815931344
vn -0.27318239212036132 -0.37600278378759856 -0.88543397022789376
vn -0.27318239212036132 -0.37600278378759856 -0.88543397022789376
vn -0.27318239212036132 -0.37600278378759856 -0.88543397022789376
vn -0.36134675145149232 -0.2625324693655522 -0.89470954432521152
vn -0.36134675145149232 -0.2625324693655522 -0.89470954432521152
vn -0.36134675145149232 -0.2625324693655522 -0.89470954432521152
vn 0.44201025366783144 0.14361766456262126 -0.8854382272099448
vn 0.44201025366783144 0.14361766456262126 -0.8854382272099448
vn 0.44201025366783144 0.14361766456262126 -0.8854382272099448
vn -0.13799986243247986 -0.42483263883058232 -0.89469175569901456
vn -0.13799986243247986 -0.42483263883058232 -0.89469175569901456
vn -0.13799986243247986 -0.42483263883058232 -0.89469175569901456
vn 0.36134004592895504 0.2625273498552576 -0.89471380219344848
vn 0.36134004592895504 0.2625273498552576 -0.89471380219344848
vn 0.36134004592895504 0.2625273498552576 -0.89471380219344848
vn 0.27320411801338196 -0.376031215200078 -0.885415075550868
vn 0.27320411801338196 -0.376031215200078 -0.885415075550868
vn 0.27320411801338196 -0.376031215200078 -0.885415075550868
vn 0 0.46472192285849032 -0.88545669735970448
vn 0 0.46472192285849032 -0.88545669735970448
vn 0 0.46472192285849032 -0.88545669735970448
vn 0.13797573745250702 0.42475805010692816 -0.89473081594794528
vn 0.13797573745250702 0.42475805010692816 -0.89473081594794528
vn 0.13797573745250702 0.42475805010692816 -0.89473081594794528
vn 0.13803006708621978 -0.42476707372564104 -0.8947182201719768
vn 0.13803006708621978 -0.42476707372564104 -0.8947182201719768
vn 0.13803006708621978 -0.42476707372564104 -0.8947182201719768
vn -0.44201481342315672 0.14361921428380298 -0.885435664210472
vn -0.44201481342315672 0.14361921428380298 -0.885435664210472
vn -0.44201481342315672 0.14361921428380298 -0.885435664210472
vn 0.36139565706253048 -0.26252552542156148 -0.89469190135148928
vn 0.36139565706253048 -0.26252552542156148 -0.89469190135148928
vn 0.36139565706253048 -0.26252552542156148 -0.89469190135148928
vn 0.446643739938736 -2.785172301345007E-06 -0.89471185207322752
vn 0.446643739938736 -2.785172301345007E-06 -0.89471185207322752
vn 0.446643739938736 -2.785172301345007E-06 -0.89471185207322752
vn -0.13803969323635102 0.4247964355027276 -0.89470280177115472
vn -0.13803969323635102 0.4247964355027276 -0.89470280177115472
vn -0.13803969323635102 0.4247964355027276 -0.89470280177115472
vn 0 0.46477902411306968 -0.88542671623268544
vn 0 0.46477902411306968 -0.88542671623268544
vn 0 0.46477902411306968 -0.88542671623268544
vn -0.3613348305225372 0.26248109664836772 -0.89472941860284384
vn -0.3613348305225372 0.26248109664836772 -0.89472941860284384
vn -0.3613348305225372 0.26248109664836772 -0.89472941860284384
vn -0.27591654658317564 -0.37976649919221048 0.88297647464496016
vn -0.27591654658317564 -0.37976649919221048 0.88297647464496016
vn -0.27591654658317564 -0.37976649919221048 0.88297647464496016
vn -0.45117586851119992 2.8460669572183406E-06 0.8924349546427976
vn -0.45117586851119992 2.8460669572183406E-06 0.8924349546427976
vn -0.45117586851119992 2.8460669572183406E-06 0.8924349546427976
vn -0.44636890292167664 0.14503423354630218 0.88301751634896304
vn -0.44636890292167664 0.14503423354630218 0.88301751634896304
vn -0.44636890292167664 0.14503423354630218 0.88301751634896304
vn 0.44640314579010008 0.14504542431522216 0.8829982640468776
vn 0.44640314579010008 0.14504542431522216 0.8829982640468776
vn 0.44640314579010008 0.14504542431522216 0.8829982640468776
vn 0.27588343620300292 -0.37972328582003856 0.88300538289063584
vn 0.27588343620300292 -0.37972328582003856 0.88300538289063584
vn 0.27588343620300292 -0.37972328582003856 0.88300538289063584
vn -0.27589544653892516 -0.37973672666896976 0.8829959653589512
vn -0.27589544653892516 -0.37973672666896976 0.8829959653589512
vn -0.27589544653892516 -0.37973672666896976 0.8829959653589512
vn -0.36501216888427736 -0.26519528392922396 0.89243356733758272
vn -0.36501216888427736 -0.26519528392922396 0.89243356733758272
vn -0.36501216888427736 -0.26519528392922396 0.89243356733758272
vn 0.44640004634857176 0.14504423222262774 0.88300011179105968
vn 0.44640004634857176 0.14504423222262774 0.88300011179105968
vn 0.44640004634857176 0.14504423222262774 0.88300011179105968
vn -0.13939963281154632 -0.42914161447950656 0.89241547423581856
vn -0.13939963281154632 -0.42914161447950656 0.89241547423581856
vn -0.13939963281154632 -0.42914161447950656 0.89241547423581856
vn 0.36500543355941776 0.26519068714079452 0.89243771285651888
vn 0.36500543355941776 0.26519068714079452 0.89243771285651888
vn 0.36500543355941776 0.26519068714079452 0.89243771285651888
vn 0.27591726183891296 -0.37976533690159856 0.88297671306334992
vn 0.27591726183891296 -0.37976533690159856 0.88297671306334992
vn 0.27591726183891296 -0.37976533690159856 0.88297671306334992
vn 0 0.46933775625252408 0.88301865560610832
vn 0 0.46933775625252408 0.88301865560610832
vn 0 0.46933775625252408 0.88301865560610832
vn 0.13937535881996154 0.42906722065189952 0.89245491189998272
vn 0.13937535881996154 0.42906722065189952 0.89245491189998272
vn 0.13937535881996154 0.42906722065189952 0.89245491189998272
vn 0.1394302248954773 -0.4290756619356928 0.89244229631522256
vn 0.1394302248954773 -0.4290756619356928 0.89244229631522256
vn 0.1394302248954773 -0.4290756619356928 0.89244229631522256
vn -0.44640460610389712 0.14504587134993186 0.88299748918642256
vn -0.44640460610389712 0.14504587134993186 0.88299748918642256
vn -0.44640460610389712 0.14504587134993186 0.88299748918642256
vn 0.36506146192550656 -0.26518810157247108 0.8924155071290456
vn 0.36506146192550656 -0.26518810157247108 0.8924155071290456
vn 0.36506146192550656 -0.26518810157247108 0.8924155071290456
vn 0.45117440819740296 -2.6296023653005207E-06 0.89243584871336128
vn 0.45117440819740296 -2.6296023653005207E-06 0.89243584871336128
vn 0.45117440819740296 -2.6296023653005207E-06 0.89243584871336128
vn -0.13943986594676972 0.42910569544546016 0.89242642087351184
vn -0.13943986594676972 0.42910569544546016 0.89242642087351184
vn -0.13943986594676972 0.42910569544546016 0.89242642087351184
vn 0 0.46939515552049024 0.88298825722792144
vn 0 0.46939515552049024 0.88298825722792144
vn 0 0.46939515552049024 0.88298825722792144
vn -0.36500027775764464 0.26514410611349516 0.89245362730426288
vn -0.36500027775764464 0.26514410611349516 0.89245362730426288
vn -0.36500027775764464 0.26514410611349516 0.89245362730426288
vn -0.9509974718093872 0.3089978713062868 0.01113858348274182
vn -0.9509974718093872 0.3089978713062868 0.01113858348274182
vn -0.9509974718093872 0.3089978713062868 0.01113858348274182
vn -0.9509974718093872 0.3089978713062868 0.01113858348274182
vn 0 0.99993795337979168 0.0111403270402054
vn 0 0.99993795337979168 0.0111403270402054
vn 0 0.99993795337979168 0.0111403270402054
vn 0 0.99993795337979168 0.0111403270402054
vn 0.9509974122047424 0.30899793091126588 0.01114063518636399
vn 0.9509974122047424 0.30899793091126588 0.01114063518636399
vn 0.9509974122047424 0.30899793091126588 0.01114063518636399
vn 0.9509974122047424 0.30899793091126588 0.01114063518636399
vn -0.58774876594543456 -0.80896693286629152 0.01113829157913715
vn -0.58774876594543456 -0.80896693286629152 0.01113829157913715
vn -0.58774876594543456 -0.80896693286629152 0.01113829157913715
vn -0.58774876594543456 -0.80896693286629152 0.01113829157913715
vn 0.5877463221549988 -0.80896860179646288 0.01113756887309114
vn 0.5877463221549988 -0.80896860179646288 0.01113756887309114
vn 0.5877463221549988 -0.80896860179646288 0.01113756887309114
vn 0.5877463221549988 -0.80896860179646288 0.01113756887309114
vn 0 0.99993789377514656 0.01114032517756991
vn 0 0.99993789377514656 0.01114032517756991
vn 0 0.99993789377514656 0.01114032517756991
vn 0 0.99993789377514656 0.01114032517756991
vn 0.9509973526000976 0.30899813952768192 0.0111416130750333
vn 0.9509973526000976 0.30899813952768192 0.0111416130750333
vn 0.9509973526000976 0.30899813952768192 0.0111416130750333
vn 0.9509973526000976 0.30899813952768192 0.0111416130750333
vn -0.58774900436401368 -0.80896657523777232 0.01114228415895612
vn -0.58774900436401368 -0.80896657523777232 0.01114228415895612
vn -0.58774900436401368 -0.80896657523777232 0.01114228415895612
vn -0.58774900436401368 -0.80896657523777232 0.01114228415895612
vn -0.950997531414032 0.30899796071359308 0.01114066498868149
vn -0.950997531414032 0.30899796071359308 0.01114066498868149
vn -0.950997531414032 0.30899796071359308 0.01114066498868149
vn -0.950997531414032 0.30899796071359308 0.01114066498868149
vn 0.58775049448013304 -0.80896544274957264 0.01114197030306396
vn 0.58775049448013304 -0.80896544274957264 0.01114197030306396
vn 0.58775049448013304 -0.80896544274957264 0.01114197030306396
vn 0.58775049448013304 -0.80896544274957264 0.01114197030306396
vn 0.58775198459625248 -0.80896753250590752 -0.01091641884620209
vn 0.58775198459625248 -0.80896753250590752 -0.01091641884620209
vn 0.58775198459625248 -0.80896753250590752 -0.01091641884620209
vn 0.58775198459625248 -0.80896753250590752 -0.01091641884620209
vn -0.95099985599517824 0.30899873198056972 -0.01091550109406502
vn -0.95099985599517824 0.30899873198056972 -0.01091550109406502
vn -0.95099985599517824 0.30899873198056972 -0.01091550109406502
vn -0.95099985599517824 0.30899873198056972 -0.01091550109406502
vn -0.58775049448013304 -0.80896860538956384 -0.01091672711379942
vn -0.58775049448013304 -0.80896860538956384 -0.01091672711379942
vn -0.58775049448013304 -0.80896860538956384 -0.01091672711379942
vn -0.58775049448013304 -0.80896860538956384 -0.01091672711379942
vn 0.95099973678588864 0.3089989107943526 -0.01091643055402363
vn 0.95099973678588864 0.3089989107943526 -0.01091643055402363
vn 0.95099973678588864 0.3089989107943526 -0.01091643055402363
vn 0.95099973678588864 0.3089989107943526 -0.01091643055402363
vn 0 0.99994045318153984 -0.01091539107666439
vn 0 0.99994045318153984 -0.01091539107666439
vn 0 0.99994045318153984 -0.01091539107666439
vn 0 0.99994045318153984 -0.01091539107666439
vn 0.58774781227111816 -0.80897057234208864 -0.01091210589086366
vn 0.58774781227111816 -0.80897057234208864 -0.01091210589086366
vn 0.58774781227111816 -0.80897057234208864 -0.01091210589086366
vn 0.58774781227111816 -0.80897057234208864 -0.01091210589086366
vn -0.5877501368522644 -0.80896890341215008 -0.01091281369629237
vn -0.5877501368522644 -0.80896890341215008 -0.01091281369629237
vn -0.5877501368522644 -0.80896890341215008 -0.01091281369629237
vn -0.5877501368522644 -0.80896890341215008 -0.01091281369629237
vn 0.95099985599517824 0.30899873198057436 -0.01091547222306521
vn 0.95099985599517824 0.30899873198057436 -0.01091547222306521
vn 0.95099985599517824 0.30899873198057436 -0.01091547222306521
vn 0.95099985599517824 0.30899873198057436 -0.01091547222306521
vn 0 0.99994045318153952 -0.01091539293930954
vn 0 0.99994045318153952 -0.01091539293930954
vn 0 0.99994045318153952 -0.01091539293930954
vn 0 0.99994045318153952 -0.01091539293930954
vn -0.95099979639053344 0.30899864257393476 -0.01091346149761202
vn -0.95099979639053344 0.30899864257393476 -0.01091346149761202
vn -0.95099979639053344 0.30899864257393476 -0.01091346149761202
vn -0.95099979639053344 0.30899864257393476 -0.01091346149761202
# 200 vertex normals

g Cube.013
usemtl Material
s 1
f 7//1 6//2 14//3
f 1//4 15//5 12//6
f 7//7 13//8 5//9
f 8//10 15//11 2//12
f 3//13 10//14 16//15
f 9//16 11//17 4//18
f 11//19 9//20 12//21
f 4//22 11//23 10//24
f 12//25 7//26 14//27
f 12//28 10//29 11//30
f 5//31 13//32 9//33
f 14//34 6//35 1//36
f 14//37 1//38 12//39
f 10//40 12//41 16//42
f 2//43 15//44 1//45
f 12//46 9//47 13//48
f 12//49 15//50 8//51
f 16//52 12//53 8//54
f 16//55 8//56 3//57
f 7//58 12//59 13//60
f 18//61 23//62 21//63
f 22//64 32//65 26//66
f 18//67 17//68 25//69
f 19//70 24//71 26//72
f 20//73 30//74 27//75
f 29//76 28//77 31//78
f 31//79 32//80 29//81
f 28//82 27//83 31//84
f 32//85 23//86 18//87
f 32//88 31//89 27//90
f 17//91 29//92 25//93
f 23//94 22//95 21//96
f 23//97 32//98 22//99
f 27//100 30//101 32//102
f 24//103 22//104 26//105
f 32//106 25//107 29//108
f 32//109 19//110 26//111
f 30//112 19//113 32//114
f 30//115 20//116 19//117
f 18//118 25//119 32//120
f 34//121 22//122 24//123 33//124
f 36//125 19//126 20//127 35//128
f 38//129 27//130 28//131 37//132
f 40//133 18//134 21//135 39//136
f 35//137 20//138 27//139 38//140
f 39//141 21//142 22//143 34//144
f 33//145 24//146 19//147 36//148
f 37//149 28//150 29//151 41//152
f 42//153 17//154 18//155 40//156
f 41//157 29//158 17//159 42//160
f 9//161 41//162 42//163 5//164
f 5//165 42//166 40//167 7//168
f 4//169 37//170 41//171 9//172
f 2//173 33//174 36//175 8//176
f 6//177 39//178 34//179 1//180
f 3//181 35//182 38//183 10//184
f 7//185 40//186 39//187 6//188
f 10//189 38//190 37//191 4//192
f 8//193 36//194 35//195 3//196
f 1//197 34//198 33//199 2//200
#60 polygons

