# Aspose.3D Wavefront OBJ Exporter
# Copyright 2004-2020 Aspose Pty Ltd.
# File created: 12/24/2020 4:19:08 AM


#
# object Cube.008
#

v 4.76837158203125E-07 -1.1126642227172705 1.812760113471452E-07
v 0.80513238906860352 -0.49760510928082888 0.58495577336143016
v -0.3075265884399414 -0.49760540800777928 0.94648703099087824
v -0.99519538879394528 -0.4976007938384944 8.106945950857279E-08
v -0.3075265884399414 -0.4976057164123736 -0.94648686885040528
v 0.80513238906860352 -0.4976052998835868 -0.58495561122107384
v 0.3075275421142578 0.49760559720308408 0.9464868688504248
v -0.80513143539428704 0.49760506146500768 0.58495561122111272
v -0.80513143539428704 0.49760487086224976 -0.58495577336139128
v 0.3075275421142578 0.49760528879848976 -0.94648703099085872
v 0.99519634246826176 0.49760067462920488 -8.106944008691432E-08
v 4.76837158203125E-07 1.11266386508940184 -1.812759530821698E-07
v -0.180757999420166 -0.94649264093403392 0.55632702035313408
v 0.47324180603027344 -0.94649243713627008 0.34382597131134996
v 0.29248523712158204 -0.5849693739144984 0.9001580237704168
v 0.94648551940917968 -0.58496749401091752 9.53033016762859E-08
v 0.47324180603027344 -0.9464925491689416 -0.34382566290494952
v -0.58496046066284176 -0.94648969173430144 1.5420274382488244E-07
v -0.76572322845458992 -0.58496788021061384 0.5563288688019072
v -0.180757999420166 -0.94649282220833616 -0.55632671194665592
v -0.76572322845458992 -0.5849680614855376 -0.5563286781951484
v 0.29248523712158204 -0.58496966722325904 -0.90015831000031136
v 1.05820846557617188 -6.31927206988213E-08 0.3438272476196438
v 1.05820846557617188 -1.7522585840273804E-07 -0.34382724761960492
v 4.76837158203125E-07 6.206672179636553E-08 1.11266422271728982
v 0.65400838851928712 2.744598415445622E-08 0.90016365051270288
v -1.05820751190185547 -6.31927206988213E-08 0.3438272476196438
v -0.65400743484497072 2.744598415445622E-08 0.90016365051270288
v -0.65400743484497072 -2.658646020993325E-07 -0.90016388893124304
v -1.05820751190185547 -1.7522585840273804E-07 -0.34382724761960492
v 0.65400838851928712 -2.658646020993325E-07 -0.90016388893124304
v 4.76837158203125E-07 -3.0048530089792487E-07 -1.11266422271725118
v 0.76572418212890624 0.58496758464837936 0.55632867819522616
v -0.29248428344726564 0.58496930959531272 0.90015783316321136
v -0.94648504257202144 0.5849672555923384 -9.530326283296896E-08
v -0.29248428344726564 0.58496901628655208 -0.9001585006075168
v 0.76572418212890624 0.58496740337345568 -0.55632886880182952
v 0.18075895309448244 0.94649240497582272 0.55632671194672392
v 0.5849609375 0.94648945331572224 -1.542027049815655E-07
v -0.47324085235595704 0.94649237035500736 0.34382566290497864
v -0.47324085235595704 0.94649225832233568 -0.34382597131132088
v 0.18075895309448244 0.94649222370152048 -0.55632702035306616
# 42 vertices

vn 0.1023809164762497 -0.94352335564776624 0.31508994573263884
vn 0.1023809164762497 -0.94352335564776624 0.31508994573263884
vn 0.1023809164762497 -0.94352335564776624 0.31508994573263884
vn 0.70022416114807128 -0.6616987149343068 0.26803131751166796
vn 0.70022416114807128 -0.6616987149343068 0.26803131751166796
vn 0.70022416114807128 -0.6616987149343068 0.26803131751166796
vn -0.26803386211395264 -0.9435228388139944 0.19473670893808136
vn -0.26803386211395264 -0.9435228388139944 0.19473670893808136
vn -0.26803386211395264 -0.9435228388139944 0.19473670893808136
vn -0.26803386211395264 -0.94352290226721824 -0.19473640149930672
vn -0.26803386211395264 -0.94352290226721824 -0.19473640149930672
vn -0.26803386211395264 -0.94352290226721824 -0.19473640149930672
vn 0.1023809164762497 -0.94352345831705248 -0.3150896382936894
vn 0.1023809164762497 -0.94352345831705248 -0.3150896382936894
vn 0.1023809164762497 -0.94352345831705248 -0.3150896382936894
vn 0.90498906373977664 -0.33038477703188968 0.26803108471984172
vn 0.90498906373977664 -0.33038477703188968 0.26803108471984172
vn 0.90498906373977664 -0.33038477703188968 0.26803108471984172
vn 0.02474706247448921 -0.33038636571295776 0.94352119583270416
vn 0.02474706247448921 -0.33038636571295776 0.94352119583270416
vn 0.02474706247448921 -0.33038636571295776 0.94352119583270416
vn -0.88969737291336064 -0.3303847991666724 0.31509410757179
vn -0.88969737291336064 -0.3303847991666724 0.31509410757179
vn -0.88969737291336064 -0.3303847991666724 0.31509410757179
vn -0.57460182905197144 -0.3303875950987014 -0.74878347497781744
vn -0.57460182905197144 -0.3303875950987014 -0.74878347497781744
vn -0.57460182905197144 -0.3303875950987014 -0.74878347497781744
vn 0.53457611799240112 -0.3303864375460126 -0.77786440234998528
vn 0.53457611799240112 -0.3303864375460126 -0.77786440234998528
vn 0.53457611799240112 -0.3303864375460126 -0.77786440234998528
vn 0.80260896682739264 -0.12562693095849154 0.58312662502427
vn 0.80260896682739264 -0.12562693095849154 0.58312662502427
vn 0.80260896682739264 -0.12562693095849154 0.58312662502427
vn -0.3065694272518158 -0.1256284666669678 0.943521460496632
vn -0.3065694272518158 -0.1256284666669678 0.943521460496632
vn -0.3065694272518158 -0.1256284666669678 0.943521460496632
vn -0.99207729101181024 -0.12562863528728318 2.0467502637178114E-08
vn -0.99207729101181024 -0.12562863528728318 2.0467502637178114E-08
vn -0.99207729101181024 -0.12562863528728318 2.0467502637178114E-08
vn -0.30656909942626952 -0.12562878900644714 -0.94352147916627408
vn -0.30656909942626952 -0.12562878900644714 -0.94352147916627408
vn -0.30656909942626952 -0.12562878900644714 -0.94352147916627408
vn 0.80260902643203728 -0.12562741898845176 -0.5831264052758064
vn 0.80260902643203728 -0.12562741898845176 -0.5831264052758064
vn 0.80260902643203728 -0.12562741898845176 -0.5831264052758064
vn 0.40894609689712528 0.66169886098554272 0.62842477508437424
vn 0.40894609689712528 0.66169886098554272 0.62842477508437424
vn 0.40894609689712528 0.66169886098554272 0.62842477508437424
vn -0.47129938006401064 0.66169861518627696 0.58312244363681232
vn -0.47129938006401064 0.66169861518627696 0.58312244363681232
vn -0.47129938006401064 0.66169861518627696 0.58312244363681232
vn -0.70022398233413696 0.6616987149342144 -0.26803188375579336
vn -0.70022398233413696 0.6616987149342144 -0.26803188375579336
vn -0.70022398233413696 0.6616987149342144 -0.26803188375579336
vn 0.0385303683578968 0.66169911344775704 -0.74877880863303136
vn 0.0385303683578968 0.66169911344775704 -0.74877880863303136
vn 0.0385303683578968 0.66169911344775704 -0.74877880863303136
vn 0.72404205799102784 0.66169538901548952 -0.19473620108656464
vn 0.72404205799102784 0.66169538901548952 -0.19473620108656464
vn 0.72404205799102784 0.66169538901548952 -0.19473620108656464
vn 0.268034428358078 0.94352277920933776 -0.19473678344387756
vn 0.268034428358078 0.94352277920933776 -0.19473678344387756
vn 0.268034428358078 0.94352277920933776 -0.19473678344387756
vn 0.49111926555633544 0.7946575298715208 -0.35682121944913604
vn 0.49111926555633544 0.7946575298715208 -0.35682121944913604
vn 0.49111926555633544 0.7946575298715208 -0.35682121944913604
vn 0.4089461266994476 0.66169859661407008 -0.62842505029783216
vn 0.4089461266994476 0.66169859661407008 -0.62842505029783216
vn 0.4089461266994476 0.66169859661407008 -0.62842505029783216
vn -0.1023806557059288 0.94352347485705584 -0.31508994573265836
vn -0.1023806557059288 0.94352347485705584 -0.31508994573265836
vn -0.1023806557059288 0.94352347485705584 -0.31508994573265836
vn -0.18759413063526152 0.79465761315284464 -0.57734550071250416
vn -0.18759413063526152 0.79465761315284464 -0.57734550071250416
vn -0.18759413063526152 0.79465761315284464 -0.57734550071250416
vn -0.47129979729652408 0.66169842518088064 -0.58312236122233376
vn -0.47129979729652408 0.66169842518088064 -0.58312236122233376
vn -0.47129979729652408 0.66169842518088064 -0.58312236122233376
vn -0.33130431175231932 0.94352394342421248 -1.5371956219034644E-07
vn -0.33130431175231932 0.94352394342421248 -1.5371956219034644E-07
vn -0.33130431175231932 0.94352394342421248 -1.5371956219034644E-07
vn -0.607060432434082 0.79465556144713312 -1.2946582417239227E-07
vn -0.607060432434082 0.79465556144713312 -1.2946582417239227E-07
vn -0.607060432434082 0.79465556144713312 -1.2946582417239227E-07
vn -0.70022398233413696 0.66169880227005272 0.26803166814697056
vn -0.70022398233413696 0.66169880227005272 0.26803166814697056
vn -0.70022398233413696 0.66169880227005272 0.26803166814697056
vn -0.10238082706928254 0.94352357752634192 0.31508963829367008
vn -0.10238082706928254 0.94352357752634192 0.31508963829367008
vn -0.10238082706928254 0.94352357752634192 0.31508963829367008
vn -0.18759417533874512 0.79465744364802496 0.57734553980343872
vn -0.18759417533874512 0.79465744364802496 0.57734553980343872
vn -0.18759417533874512 0.79465744364802496 0.57734553980343872
vn 0.03852969035506248 0.66169911901228632 0.74877883144267104
vn 0.03852969035506248 0.66169911901228632 0.74877883144267104
vn 0.03852969035506248 0.66169911901228632 0.74877883144267104
vn 0.268034428358078 0.94352284266258576 0.19473647600512232
vn 0.268034428358078 0.94352284266258576 0.19473647600512232
vn 0.268034428358078 0.94352284266258576 0.19473647600512232
vn 0.49111935496330264 0.79465752692929552 0.35682093071452444
vn 0.49111935496330264 0.79465752692929552 0.35682093071452444
vn 0.49111935496330264 0.79465752692929552 0.35682093071452444
vn 0.72404205799102784 0.66169545246854824 0.1947358960718622
vn 0.72404205799102784 0.66169545246854824 0.1947358960718622
vn 0.72404205799102784 0.66169545246854824 0.1947358960718622
vn 0.88969731330871584 0.3303848289689268 -0.3150945248043082
vn 0.88969731330871584 0.3303848289689268 -0.3150945248043082
vn 0.88969731330871584 0.3303848289689268 -0.3150945248043082
vn 0.79465562105178832 0.18759484123603592 -0.57734802441379472
vn 0.79465562105178832 0.18759484123603592 -0.57734802441379472
vn 0.79465562105178832 0.18759484123603592 -0.57734802441379472
vn 0.57460194826126096 0.3303873511140682 -0.74878352302707584
vn 0.57460194826126096 0.3303873511140682 -0.74878352302707584
vn 0.57460194826126096 0.3303873511140682 -0.74878352302707584
vn -0.02474650926887989 0.330385799468784 -0.94352149385583584
vn -0.02474650926887989 0.330385799468784 -0.94352149385583584
vn -0.02474650926887989 0.330385799468784 -0.94352149385583584
vn -0.30353108048439024 0.18759718218909936 -0.9341712899667016
vn -0.30353108048439024 0.18759718218909936 -0.9341712899667016
vn -0.30353108048439024 0.18759718218909936 -0.9341712899667016
vn -0.53457605838775632 0.33038633309721292 -0.77786451000353424
vn -0.53457605838775632 0.33038633309721292 -0.77786451000353424
vn -0.53457605838775632 0.33038633309721292 -0.77786451000353424
vn -0.90498894453048704 0.330384479008559 -0.26803174037088584
vn -0.90498894453048704 0.330384479008559 -0.26803174037088584
vn -0.90498894453048704 0.330384479008559 -0.26803174037088584
vn -0.98224580287933344 0.18759839236736048 -3.056365757703183E-08
vn -0.98224580287933344 0.18759839236736048 -3.056365757703183E-08
vn -0.98224580287933344 0.18759839236736048 -3.056365757703183E-08
vn -0.90498894453048704 0.33038456634436808 0.26803163271794376
vn -0.90498894453048704 0.33038456634436808 0.26803163271794376
vn -0.90498894453048704 0.33038456634436808 0.26803163271794376
vn -0.53457564115524288 0.33038658655769248 0.7778648195824744
vn -0.53457564115524288 0.33038658655769248 0.7778648195824744
vn -0.53457564115524288 0.33038658655769248 0.7778648195824744
vn -0.30353140830993652 0.18759790381323584 0.93417116923501824
vn -0.30353140830993652 0.18759790381323584 0.93417116923501824
vn -0.30353140830993652 0.18759790381323584 0.93417116923501824
vn -0.02474718168377876 0.33038667315116908 0.94352108817911168
vn -0.02474718168377876 0.33038667315116908 0.94352108817911168
vn -0.02474718168377876 0.33038667315116908 0.94352108817911168
vn 0.57460206747055056 0.3303871182615432 0.7487834749778952
vn 0.57460206747055056 0.3303871182615432 0.7487834749778952
vn 0.57460206747055056 0.3303871182615432 0.7487834749778952
vn 0.79465550184249872 0.18759486544714708 0.57734814210156704
vn 0.79465550184249872 0.18759486544714708 0.57734814210156704
vn 0.79465550184249872 0.18759486544714708 0.57734814210156704
vn 0.88969731330871584 0.3303849316397376 0.3150944171512498
vn 0.88969731330871584 0.3303849316397376 0.3150944171512498
vn 0.88969731330871584 0.3303849316397376 0.3150944171512498
vn 0.30656909942626952 0.12562861567857974 -0.94352146049665616
vn 0.30656909942626952 0.12562861567857974 -0.94352146049665616
vn 0.30656909942626952 0.12562861567857974 -0.94352146049665616
vn 0.30353108048439024 -0.18759745677842908 -0.9341713480490256
vn 0.30353108048439024 -0.18759745677842908 -0.9341713480490256
vn 0.30353108048439024 -0.18759745677842908 -0.9341713480490256
vn 0.02474637888371944 -0.33038625591870428 -0.94352138620240352
vn 0.02474637888371944 -0.33038625591870428 -0.94352138620240352
vn 0.02474637888371944 -0.33038625591870428 -0.94352138620240352
vn -0.80260902643203728 0.12562719917942212 -0.5831264462103796
vn -0.80260902643203728 0.12562719917942212 -0.5831264462103796
vn -0.80260902643203728 0.12562719917942212 -0.5831264462103796
vn -0.79465544223785408 -0.18759491015062092 -0.57734808249691496
vn -0.79465544223785408 -0.18759491015062092 -0.57734808249691496
vn -0.79465544223785408 -0.18759491015062092 -0.57734808249691496
vn -0.88969737291336064 -0.33038490183734716 -0.3150939999187412
vn -0.88969737291336064 -0.33038490183734716 -0.3150939999187412
vn -0.88969737291336064 -0.33038490183734716 -0.3150939999187412
vn -0.80260896682739264 0.12562712096525696 0.58312658408978912
vn -0.80260896682739264 0.12562712096525696 0.58312658408978912
vn -0.80260896682739264 0.12562712096525696 0.58312658408978912
vn -0.79465538263320928 -0.1875945581139344 0.57734826283232768
vn -0.79465538263320928 -0.1875945581139344 0.57734826283232768
vn -0.79465538263320928 -0.1875945581139344 0.57734826283232768
vn -0.57460182905197144 -0.33038702328849284 0.74878370184095696
vn -0.57460182905197144 -0.33038702328849284 0.74878370184095696
vn -0.57460182905197144 -0.33038702328849284 0.74878370184095696
vn 0.3065694570541382 0.12562858039018066 0.94352141956166304
vn 0.3065694570541382 0.12562858039018066 0.94352141956166304
vn 0.3065694570541382 0.12562858039018066 0.94352141956166304
vn 0.30353137850761412 -0.18759753981697756 0.93417123036211504
vn 0.30353137850761412 -0.18759753981697756 0.93417123036211504
vn 0.30353137850761412 -0.18759753981697756 0.93417123036211504
vn 0.53457564115524288 -0.33038630329484192 0.77786480802675312
vn 0.53457564115524288 -0.33038630329484192 0.77786480802675312
vn 0.53457564115524288 -0.33038630329484192 0.77786480802675312
vn 0.99207729101181024 0.1256286054849608 -2.046749777995238E-08
vn 0.99207729101181024 0.1256286054849608 -2.046749777995238E-08
vn 0.99207729101181024 0.1256286054849608 -2.046749777995238E-08
vn 0.9822457432746888 -0.18759918212890376 3.056378627963596E-08
vn 0.9822457432746888 -0.18759918212890376 3.056378627963596E-08
vn 0.9822457432746888 -0.18759918212890376 3.056378627963596E-08
vn 0.90498912334442144 -0.3303849239721104 -0.26803085785750348
vn 0.90498912334442144 -0.3303849239721104 -0.26803085785750348
vn 0.90498912334442144 -0.3303849239721104 -0.26803085785750348
vn 0.4712998270988464 -0.66169873439549856 -0.58312202640427936
vn 0.4712998270988464 -0.66169873439549856 -0.58312202640427936
vn 0.4712998270988464 -0.66169873439549856 -0.58312202640427936
vn 0.18759435415267944 -0.79465780127581616 -0.57734506296622216
vn 0.18759435415267944 -0.79465780127581616 -0.57734506296622216
vn 0.18759435415267944 -0.79465780127581616 -0.57734506296622216
vn -0.03853063285350799 -0.661699059407622 -0.7487787122333912
vn -0.03853063285350799 -0.661699059407622 -0.7487787122333912
vn -0.03853063285350799 -0.661699059407622 -0.7487787122333912
vn -0.40894591808319088 -0.66169862256703136 -0.6284251923169264
vn -0.40894591808319088 -0.66169862256703136 -0.6284251923169264
vn -0.40894591808319088 -0.66169862256703136 -0.6284251923169264
vn -0.49111947417259216 -0.79465746732465552 -0.35682096051685648
vn -0.49111947417259216 -0.79465746732465552 -0.35682096051685648
vn -0.49111947417259216 -0.79465746732465552 -0.35682096051685648
vn -0.72404259443283088 -0.66169509484066256 -0.19473579176379208
vn -0.72404259443283088 -0.66169509484066256 -0.19473579176379208
vn -0.72404259443283088 -0.66169509484066256 -0.19473579176379208
vn -0.72404259443283088 -0.6616950313876524 0.19473600737141096
vn -0.72404259443283088 -0.6616950313876524 0.19473600737141096
vn -0.72404259443283088 -0.6616950313876524 0.19473600737141096
vn -0.49111935496330264 -0.79465741066222656 0.35682124925143908
vn -0.49111935496330264 -0.79465741066222656 0.35682124925143908
vn -0.49111935496330264 -0.79465741066222656 0.35682124925143908
vn -0.40894591808319088 -0.66169841780007752 0.62842540792567168
vn -0.40894591808319088 -0.66169841780007752 0.62842540792567168
vn -0.40894591808319088 -0.66169841780007752 0.62842540792567168
vn 0.70022416114807128 -0.6616988022699604 -0.2680311019028452
vn 0.70022416114807128 -0.6616988022699604 -0.2680311019028452
vn 0.70022416114807128 -0.6616988022699604 -0.2680311019028452
vn 0.60706090927124024 -0.79465538263319872 1.2946579497352673E-07
vn 0.60706090927124024 -0.79465538263319872 1.2946579497352673E-07
vn 0.60706090927124024 -0.79465538263319872 1.2946579497352673E-07
vn 0.3313046395778656 -0.94352388381956752 1.5371955230936152E-07
vn 0.3313046395778656 -0.94352388381956752 1.5371955230936152E-07
vn 0.3313046395778656 -0.94352388381956752 1.5371955230936152E-07
vn -0.03853007778525352 -0.6616987558198204 0.74877922586548656
vn -0.03853007778525352 -0.6616987558198204 0.74877922586548656
vn -0.03853007778525352 -0.6616987558198204 0.74877922586548656
vn 0.18759439885616304 -0.79465731512958208 0.57734573913103456
vn 0.18759439885616304 -0.79465731512958208 0.57734573913103456
vn 0.18759439885616304 -0.79465731512958208 0.57734573913103456
vn 0.47129943966865536 -0.661698484785506 0.5831224804316328
vn 0.47129943966865536 -0.661698484785506 0.5831224804316328
vn 0.47129943966865536 -0.661698484785506 0.5831224804316328
# 240 vertex normals

g Cube.008
usemtl Material
s 1
f 1//1 14//2 13//3
f 2//4 14//5 16//6
f 1//7 13//8 18//9
f 1//10 18//11 20//12
f 1//13 20//14 17//15
f 2//16 16//17 23//18
f 3//19 15//20 25//21
f 4//22 19//23 27//24
f 5//25 21//26 29//27
f 6//28 22//29 31//30
f 2//31 23//32 26//33
f 3//34 25//35 28//36
f 4//37 27//38 30//39
f 5//40 29//41 32//42
f 6//43 31//44 24//45
f 7//46 33//47 38//48
f 8//49 34//50 40//51
f 9//52 35//53 41//54
f 10//55 36//56 42//57
f 11//58 37//59 39//60
f 39//61 42//62 12//63
f 39//64 37//65 42//66
f 37//67 10//68 42//69
f 42//70 41//71 12//72
f 42//73 36//74 41//75
f 36//76 9//77 41//78
f 41//79 40//80 12//81
f 41//82 35//83 40//84
f 35//85 8//86 40//87
f 40//88 38//89 12//90
f 40//91 34//92 38//93
f 34//94 7//95 38//96
f 38//97 39//98 12//99
f 38//100 33//101 39//102
f 33//103 11//104 39//105
f 24//106 37//107 11//108
f 24//109 31//110 37//111
f 31//112 10//113 37//114
f 32//115 36//116 10//117
f 32//118 29//119 36//120
f 29//121 9//122 36//123
f 30//124 35//125 9//126
f 30//127 27//128 35//129
f 27//130 8//131 35//132
f 28//133 34//134 8//135
f 28//136 25//137 34//138
f 25//139 7//140 34//141
f 26//142 33//143 7//144
f 26//145 23//146 33//147
f 23//148 11//149 33//150
f 31//151 32//152 10//153
f 31//154 22//155 32//156
f 22//157 5//158 32//159
f 29//160 30//161 9//162
f 29//163 21//164 30//165
f 21//166 4//167 30//168
f 27//169 28//170 8//171
f 27//172 19//173 28//174
f 19//175 3//176 28//177
f 25//178 26//179 7//180
f 25//181 15//182 26//183
f 15//184 2//185 26//186
f 23//187 24//188 11//189
f 23//190 16//191 24//192
f 16//193 6//194 24//195
f 17//196 22//197 6//198
f 17//199 20//200 22//201
f 20//202 5//203 22//204
f 20//205 21//206 5//207
f 20//208 18//209 21//210
f 18//211 4//212 21//213
f 18//214 19//215 4//216
f 18//217 13//218 19//219
f 13//220 3//221 19//222
f 16//223 17//224 6//225
f 16//226 14//227 17//228
f 14//229 1//230 17//231
f 13//232 15//233 3//234
f 13//235 14//236 15//237
f 14//238 2//239 15//240
#80 polygons

