<svg xmlns="http://www.w3.org/2000/svg" xmlns:xlink="http://www.w3.org/1999/xlink" width="15" height="13" viewBox="0 0 15 13">
    <defs>
        <path id="3vmdy5lq4a" d="M0 0.235L8.805 0.235 8.805 2 0 2z"/>
    </defs>
    <g fill="none" fill-rule="evenodd">
        <g>
            <g>
                <path fill="#FFF" d="M13.724 1.764H.914c-.486 0-.881-.395-.881-.882S.428 0 .914 0h12.81c.487 0 .882.395.882.882s-.395.882-.882.882M7.955 5.382H.915c-.487 0-.883-.395-.883-.882s.396-.882.882-.882h7.041c.487 0 .883.395.883.882s-.396.882-.883.882M13.724 9.033H.914c-.486 0-.881-.395-.881-.882s.395-.882.881-.882h12.81c.487 0 .882.395.882.882s-.395.882-.882.882" transform="translate(-3332 -2440) translate(3332 2440)"/>
                <g transform="translate(-3332 -2440) translate(3332 2440) translate(0 10.65)">
                    <mask id="vpqic68c3b" fill="#fff">
                        <use xlink:href="#3vmdy5lq4a"/>
                    </mask>
                    <path fill="#FFF" d="M7.923 2H.883C.394 2 0 1.604 0 1.118 0 .631.395.235.882.235h7.041c.487 0 .882.396.882.883 0 .486-.395.882-.882.882" mask="url(#vpqic68c3b)"/>
                </g>
            </g>
        </g>
    </g>
</svg>
