<svg xmlns="http://www.w3.org/2000/svg" xmlns:xlink="http://www.w3.org/1999/xlink" width="17" height="15" viewBox="0 0 17 15">
    <defs>
        <path id="7bdo1eg28a" d="M0 0.609L7.329 0.609 7.329 13.978 0 13.978z"/>
        <path id="ipvmyg1odc" d="M0.773 0.609L8.118 0.609 8.118 14 0.773 14z"/>
    </defs>
    <g fill="none" fill-rule="evenodd">
        <g>
            <g>
                <g transform="translate(-3337 -2382) translate(3337 2382) translate(0 .392)">
                    <mask id="2udqr40a0b" fill="#fff">
                        <use xlink:href="#7bdo1eg28a"/>
                    </mask>
                    <path fill="#FFF" d="M7.33 2.307c.001-.254-.09-.494-.273-.67C6.637 1.237 5.671.61 3.733.61 1.493.609.47 1.867.133 2.406.042 2.55 0 2.72 0 2.89v10.208c0 .452.418.9.871.879.301-.014.575-.166.837-.315 1.22-.692 2.08-1.19 3.512-.81.527.14 1.041.366 1.515.646.235.14.531-.038.532-.311L7.33 2.307" mask="url(#2udqr40a0b)"/>
                </g>
                <g transform="translate(-3337 -2382) translate(3337 2382) translate(8 .392)">
                    <mask id="fs5b94arad" fill="#fff">
                        <use xlink:href="#ipvmyg1odc"/>
                    </mask>
                    <path fill="#FFF" d="M.793 2.28c.001-.255.094-.494.278-.668C1.494 1.214 2.464.594 4.401.61 6.642.625 7.657 1.89 7.99 2.431c.09.146.13.316.13.487L8.04 13.125c-.003.453-.425.9-.878.874-.3-.017-.574-.172-.835-.322-1.213-.702-2.07-1.206-3.505-.835-.528.136-1.044.356-1.52.634-.236.137-.53-.043-.53-.316l.02-10.88" mask="url(#fs5b94arad)"/>
                </g>
            </g>
        </g>
    </g>
</svg>
