<svg xmlns="http://www.w3.org/2000/svg" xmlns:xlink="http://www.w3.org/1999/xlink" width="30" height="30" viewBox="0 0 30 30">
    <defs>
        <path id="q4p167f01a" d="M7.037 7L20.493 7 20.493 20.479 7.037 20.479z"/>
        <path id="ny946lzetc" d="M7 22.059L22.139 22.059 22.139 23.559 7 23.559z"/>
    </defs>
    <g fill="none" fill-rule="evenodd">
        <g>
            <g transform="translate(-872 -2373) translate(872 2373)">
                <path d="M0 0H30V30H0z"/>
                <mask id="391kxtqa1b" fill="#fff">
                    <use xlink:href="#q4p167f01a"/>
                </mask>
                <path fill="#DFDFE2" d="M15.067 10.798l1.61 1.61-4.925 4.927c-.087.086-.188.1-.24.1-.053 0-.153-.014-.24-.1l-1.13-1.13c-.088-.088-.1-.188-.1-.24 0-.053.012-.154.1-.24l4.925-4.927zm2.218-2.218c.086-.086.187-.098.24-.098.052 0 .153.012.24.098l1.13 1.131c.132.133.132.348 0 .48l-1.157 1.157-1.61-1.61 1.157-1.158zm-9.498 11.9c.091 0 .181-.017.27-.05l3.916-1.51c.06-.023.104-.063.153-.098.254-.09.49-.23.686-.427l7.144-7.144c.716-.717.716-1.883 0-2.6l-1.13-1.13c-.694-.694-1.907-.695-2.602 0l-7.143 7.142c-.127.127-.226.273-.309.427-.068.071-.125.157-.16.256l-1.528 4.122c-.103.277-.034.588.175.795.144.141.334.216.528.216z" mask="url(#391kxtqa1b)"/>
                <mask id="k2v99zex8d" fill="#fff">
                    <use xlink:href="#ny946lzetc"/>
                </mask>
                <path fill="#DFDFE2" d="M21.39 22.06H7.75c-.415 0-.75.335-.75.75 0 .414.335.75.75.75h13.64c.413 0 .75-.336.75-.75 0-.415-.337-.75-.75-.75" mask="url(#k2v99zex8d)"/>
            </g>
        </g>
    </g>
</svg>
