<svg xmlns="http://www.w3.org/2000/svg" xmlns:xlink="http://www.w3.org/1999/xlink" width="13" height="14" viewBox="0 0 13 14">
    <defs>
        <path id="pz4jbv0zwa" d="M0 0.613L12.017 0.613 12.017 1.644 0 1.644z"/>
    </defs>
    <g fill="none" fill-rule="evenodd">
        <g>
            <g>
                <g transform="translate(-2871 -552) translate(2871 552.857) translate(0 1.32)">
                    <mask id="sercc2rwxb" fill="#fff">
                        <use xlink:href="#pz4jbv0zwa"/>
                    </mask>
                    <path fill="#DFDFE2" d="M11.492 1.644H.525c-.29 0-.525-.23-.525-.516C0 .844.235.613.525.613h10.967c.29 0 .525.23.525.515 0 .285-.236.516-.525.516" mask="url(#sercc2rwxb)"/>
                </g>
                <path fill="#DFDFE2" d="M8.086 2.833c-.29 0-.525-.232-.525-.516v-.932c0-.23-.127-.354-.179-.354H4.634c-.052 0-.178.125-.178.354v.932c0 .284-.235.515-.525.515-.29 0-.525-.23-.525-.515v-.932C3.406.622 3.956 0 4.634 0h2.748c.678 0 1.229.622 1.229 1.385v.932c0 .284-.235.515-.525.515" transform="translate(-2871 -552) translate(2871 552.857)"/>
                <path fill="#DFDFE2" d="M8.463 9.495c0 .284-.235.515-.525.515-.29 0-.525-.23-.525-.515V5.173c0-.285.235-.516.525-.516.29 0 .525.231.525.516v4.322zm-1.93 0c0 .284-.235.515-.525.515-.29 0-.525-.23-.525-.515V5.173c0-.285.235-.516.525-.516.29 0 .525.231.525.516v4.322zm-1.93 0c0 .284-.234.515-.524.515-.29 0-.525-.23-.525-.515V5.173c0-.285.235-.516.525-.516.29 0 .525.231.525.516v4.322zM9.713 1.99C7.82 2 4.19 1.982 2.302 1.972c-.65-.004-1.165.559-1.117 1.221l.583 8.073c.043.594.529 1.054 1.113 1.054h6.24c.583 0 1.068-.459 1.112-1.052l.598-8.054c.05-.662-.467-1.226-1.12-1.223z" transform="translate(-2871 -552) translate(2871 552.857)"/>
            </g>
        </g>
    </g>
</svg>
