<svg xmlns="http://www.w3.org/2000/svg" xmlns:xlink="http://www.w3.org/1999/xlink" width="28" height="28" viewBox="0 0 28 28">
    <defs>
        <filter id="y7izdbiv0a" width="120%" height="120%" x="-10%" y="-5%" filterUnits="objectBoundingBox">
            <feOffset dy="1" in="SourceAlpha" result="shadowOffsetOuter1"/>
            <feGaussianBlur in="shadowOffsetOuter1" result="shadowBlurOuter1" stdDeviation=".5"/>
            <feColorMatrix in="shadowBlurOuter1" values="0 0 0 0 0 0 0 0 0 0 0 0 0 0 0 0 0 0 0.15 0"/>
        </filter>
        <path id="g2n2w3s5db" d="M10 0c5.523 0 10 4.477 10 10s-4.477 10-10 10S0 15.523 0 10 4.477 0 10 0zM8.109 6H6.641c-.223 0-.304.023-.385.067-.082.043-.146.107-.19.189-.043.081-.066.162-.066.385v6.718c0 .223.023.304.067.385.043.082.107.146.189.19.081.043.162.066.385.066h1.468c.223 0 .304-.023.385-.067.082-.043.146-.107.19-.189.043-.081.066-.162.066-.385V6.641c0-.223-.023-.304-.067-.385-.043-.082-.107-.146-.189-.19C8.413 6.024 8.332 6 8.11 6zm5 0h-1.468c-.223 0-.304.023-.385.067-.082.043-.146.107-.19.189-.043.081-.066.162-.066.385v6.718c0 .223.023.304.067.385.043.082.107.146.189.19.081.043.162.066.385.066h1.468c.223 0 .304-.023.385-.067.082-.043.146-.107.19-.189.043-.081.066-.162.066-.385V6.641c0-.223-.023-.304-.067-.385-.043-.082-.107-.146-.189-.19-.081-.043-.162-.066-.385-.066z"/>
    </defs>
    <g fill="none" fill-rule="evenodd">
        <g>
            <g>
                <path d="M0 0H28V28H0z" transform="translate(-1961 -2552) translate(1961 2552)"/>
                <g>
                    <g transform="translate(-1961 -2552) translate(1961 2552) translate(4 4)">
                        <use fill="#000" filter="url(#y7izdbiv0a)" xlink:href="#g2n2w3s5db"/>
                        <use fill="#1DB6FF" xlink:href="#g2n2w3s5db"/>
                    </g>
                </g>
            </g>
        </g>
    </g>
</svg>
