<svg xmlns="http://www.w3.org/2000/svg" width="30" height="30" viewBox="0 0 30 30">
    <g fill="none" fill-rule="evenodd">
        <g>
            <g>
                <g>
                    <path d="M0 0H30V30H0z" transform="translate(-7582 -962) translate(6256 149) translate(1326 813)"/>
                    <g fill="#FFF">
                        <path d="M8.034 5.043V0H3.956c-.256 0-.465.208-.465.465V2.49h1.385c.03 0 .054.012.081.016.12.006.237.04.326.13.02.018.071.07 4.74 5.573.076.09.104.2.107.313.003.023.012.043.012.066v3.99h2.14c.255 0 .463-.209.463-.465V5.542h-4.21c-.277 0-.5-.223-.5-.5" transform="translate(-7582 -962) translate(6256 149) translate(1326 813) translate(9 7)"/>
                        <path d="M9.034.856v3.687h3.131L9.035.856M5.432 4.348v3.687h3.13C7.61 6.91 6.292 5.358 5.433 4.348" transform="translate(-7582 -962) translate(6256 149) translate(1326 813) translate(9 7)"/>
                        <path d="M5.043 9.145c-.276 0-.5-.224-.5-.5V3.603H.465c-.256 0-.465.208-.465.464v11.65c0 .256.21.464.465.464H8.79c.256 0 .464-.208.464-.464V9.145h-4.21z" transform="translate(-7582 -962) translate(6256 149) translate(1326 813) translate(9 7)"/>
                    </g>
                </g>
            </g>
        </g>
    </g>
</svg>
