<svg xmlns="http://www.w3.org/2000/svg" width="30" height="30" viewBox="0 0 30 30">
    <g fill="none" fill-rule="evenodd">
        <g>
            <g>
                <g fill="#5E616B" fill-opacity=".8" stroke="#FFF" stroke-opacity=".4" stroke-width=".5">
                    <path d="M8.974.25h12.052c3.05 0 4.16.309 5.275.905 1.097.587 1.957 1.447 2.544 2.544.596 1.116.905 2.225.905 5.275h0v12.052c0 3.05-.309 4.16-.905 5.275-.587 1.097-1.447 1.957-2.544 2.544-1.116.596-2.225.905-5.275.905h0H8.974c-3.05 0-4.16-.309-5.275-.905-1.097-.587-1.957-1.447-2.544-2.544C.56 25.185.25 24.076.25 21.026h0V8.974c0-3.05.309-4.16.905-5.275.587-1.097 1.447-1.957 2.544-2.544C4.815.56 5.924.25 8.974.25h0z" transform="translate(-3397 -279) translate(3397 279)"/>
                </g>
                <g fill="#FFF" opacity=".4">
                    <path d="M8.034 5.043V0H3.956c-.256 0-.465.208-.465.465V2.49h1.385c.03 0 .054.012.081.016.12.006.237.04.326.13.02.018.071.07 4.74 5.573.076.09.104.2.107.313.003.023.012.043.012.066v3.99h2.14c.255 0 .463-.209.463-.465V5.542h-4.21c-.277 0-.5-.223-.5-.5" transform="translate(-3397 -279) translate(3397 279) translate(9 6.5)"/>
                    <path d="M9.034.856v3.687h3.131L9.035.856M5.432 4.348v3.687h3.13C7.61 6.91 6.292 5.358 5.433 4.348" transform="translate(-3397 -279) translate(3397 279) translate(9 6.5)"/>
                    <path d="M5.043 9.145c-.276 0-.5-.224-.5-.5V3.603H.465c-.256 0-.465.208-.465.464v11.65c0 .256.21.464.465.464H8.79c.256 0 .464-.208.464-.464V9.145h-4.21z" transform="translate(-3397 -279) translate(3397 279) translate(9 6.5)"/>
                </g>
            </g>
        </g>
    </g>
</svg>
