<svg xmlns="http://www.w3.org/2000/svg" width="40" height="40" viewBox="0 0 40 40">
    <g fill="none" fill-rule="evenodd">
        <g>
            <g>
                <g>
                    <path d="M0 0H40V40H0z" transform="translate(-1574 -283) translate(906 94) translate(668 189)"/>
                    <g>
                        <g>
                            <path d="M0 0H40V40H0z" transform="translate(-1574 -283) translate(906 94) translate(668 189)"/>
                        </g>
                        <g stroke="#FFF" stroke-width="1.5">
                            <path stroke-linecap="round" stroke-linejoin="round" d="M6.654 17.649c-1.97 1.035-4.406.277-5.44-1.693-1.036-1.97-.278-4.405 1.692-5.44 1.97-1.035 4.406-.277 5.44 1.693 1.036 1.969.278 4.405-1.692 5.44zM24.359 8.347c-1.97 1.035-4.406.277-5.44-1.693-1.036-1.97-.278-4.406 1.692-5.441 1.97-1.034 4.406-.277 5.44 1.693 1.036 1.97.278 4.406-1.692 5.44z" transform="translate(-1574 -283) translate(906 94) translate(668 189) translate(6 6)"/>
                            <path d="M19.099 6.379L8.272 12.067" transform="translate(-1574 -283) translate(906 94) translate(668 189) translate(6 6)"/>
                            <path stroke-linecap="round" stroke-linejoin="round" d="M24.359 19.767c-1.97-1.035-4.406-.277-5.44 1.693-1.036 1.97-.278 4.406 1.692 5.44 1.97 1.035 4.406.278 5.44-1.692 1.036-1.97.278-4.406-1.692-5.441z" transform="translate(-1574 -283) translate(906 94) translate(668 189) translate(6 6)"/>
                            <path d="M19.099 21.735L8.272 16.047" transform="translate(-1574 -283) translate(906 94) translate(668 189) translate(6 6)"/>
                        </g>
                    </g>
                </g>
            </g>
        </g>
    </g>
</svg>
