<svg xmlns="http://www.w3.org/2000/svg" xmlns:xlink="http://www.w3.org/1999/xlink" width="28" height="28" viewBox="0 0 28 28">
    <defs>
        <filter id="q17z0fcv9a" width="120%" height="120%" x="-10%" y="-5%" filterUnits="objectBoundingBox">
            <feOffset dy="1" in="SourceAlpha" result="shadowOffsetOuter1"/>
            <feGaussianBlur in="shadowOffsetOuter1" result="shadowBlurOuter1" stdDeviation=".5"/>
            <feColorMatrix in="shadowBlurOuter1" values="0 0 0 0 0 0 0 0 0 0 0 0 0 0 0 0 0 0 0.15 0"/>
        </filter>
        <path id="uzmvnni0vb" d="M10 0c5.523 0 10 4.477 10 10s-4.477 10-10 10S0 15.523 0 10 4.477 0 10 0zM7.5 5.79c-.276 0-.5.224-.5.5v7.42c0 .087.023.172.066.248.137.24.442.323.682.186l6.492-3.71c.078-.044.142-.108.186-.186.137-.24.054-.545-.186-.682l-6.492-3.71c-.075-.043-.161-.066-.248-.066z"/>
    </defs>
    <g fill="none" fill-rule="evenodd">
        <g>
            <g>
                <path d="M0 0H28V28H0z" transform="translate(-1961 -2518) translate(1961 2518)"/>
                <g transform="translate(-1961 -2518) translate(1961 2518) translate(4 4)">
                    <use fill="#000" filter="url(#q17z0fcv9a)" xlink:href="#uzmvnni0vb"/>
                    <use fill="#1DB6FF" xlink:href="#uzmvnni0vb"/>
                </g>
            </g>
        </g>
    </g>
</svg>
