<svg xmlns="http://www.w3.org/2000/svg" xmlns:xlink="http://www.w3.org/1999/xlink" width="38" height="38" viewBox="0 0 38 38">
    <defs>
        <path id="lkiqrdeoxa" d="M0 0.043L3.326 0.043 3.326 3.368 0 3.368z"/>
        <path id="wpu7szxscc" d="M0.307 0.733L18.491 0.733 18.491 2.733 0.307 2.733z"/>
        <path id="i8yyyjiene" d="M0 0.358L3.326 0.358 3.326 3.684 0 3.684z"/>
        <path id="6exl2qz8zg" d="M0.307 0.049L18.491 0.049 18.491 2.049 0.307 2.049z"/>
        <path id="hheegi12ni" d="M0 0.674L3.326 0.674 3.326 4 0 4z"/>
        <path id="kf1dvmeu7k" d="M0.307 0.364L18.491 0.364 18.491 2.365 0.307 2.365z"/>
    </defs>
    <g fill="none" fill-rule="evenodd">
        <g>
            <g>
                <g>
                    <g>
                        <path d="M0 0H38V38H0z" transform="translate(-6906 -183) translate(6256 149) translate(650 34)"/>
                    </g>
                    <g>
                        <g transform="translate(-6906 -183) translate(6256 149) translate(650 34) translate(7 10) translate(0 .957)">
                            <mask id="xl60fezfeb" fill="#fff">
                                <use xlink:href="#lkiqrdeoxa"/>
                            </mask>
                            <path fill="#FFF" d="M3.326 1.705c0 .918-.745 1.663-1.663 1.663S0 2.623 0 1.705.745.042 1.663.042s1.663.745 1.663 1.663" mask="url(#xl60fezfeb)"/>
                        </g>
                        <g transform="translate(-6906 -183) translate(6256 149) translate(650 34) translate(7 10) translate(6 .957)">
                            <mask id="bsslefdeqd" fill="#fff">
                                <use xlink:href="#wpu7szxscc"/>
                            </mask>
                            <path fill="#FFF" d="M17.491 2.733H1.307c-.552 0-1-.448-1-1s.448-1 1-1h16.184c.552 0 1 .448 1 1s-.448 1-1 1" mask="url(#bsslefdeqd)"/>
                        </g>
                        <g transform="translate(-6906 -183) translate(6256 149) translate(650 34) translate(7 10) translate(0 7.957)">
                            <mask id="8w56y63fof" fill="#fff">
                                <use xlink:href="#i8yyyjiene"/>
                            </mask>
                            <path fill="#FFF" d="M3.326 2.021c0 .918-.745 1.663-1.663 1.663S0 2.94 0 2.021.745.358 1.663.358s1.663.745 1.663 1.663" mask="url(#8w56y63fof)"/>
                        </g>
                        <g transform="translate(-6906 -183) translate(6256 149) translate(650 34) translate(7 10) translate(6 8.957)">
                            <mask id="f0ex16mbsh" fill="#fff">
                                <use xlink:href="#6exl2qz8zg"/>
                            </mask>
                            <path fill="#FFF" d="M17.491 2.049H1.307c-.552 0-1-.448-1-1s.448-1 1-1h16.184c.552 0 1 .448 1 1s-.448 1-1 1" mask="url(#f0ex16mbsh)"/>
                        </g>
                        <g transform="translate(-6906 -183) translate(6256 149) translate(650 34) translate(7 10) translate(0 14.957)">
                            <mask id="omnie2wf5j" fill="#fff">
                                <use xlink:href="#hheegi12ni"/>
                            </mask>
                            <path fill="#FFF" d="M3.326 2.337C3.326 3.255 2.58 4 1.663 4S0 3.255 0 2.337.745.674 1.663.674s1.663.745 1.663 1.663" mask="url(#omnie2wf5j)"/>
                        </g>
                        <g transform="translate(-6906 -183) translate(6256 149) translate(650 34) translate(7 10) translate(6 15.957)">
                            <mask id="i4h4aheiil" fill="#fff">
                                <use xlink:href="#kf1dvmeu7k"/>
                            </mask>
                            <path fill="#FFF" d="M17.491 2.365H1.307c-.552 0-1-.449-1-1 0-.552.448-1 1-1h16.184c.552 0 1 .448 1 1s-.448 1-1 1" mask="url(#i4h4aheiil)"/>
                        </g>
                    </g>
                </g>
            </g>
        </g>
    </g>
</svg>
