<svg xmlns="http://www.w3.org/2000/svg" xmlns:xlink="http://www.w3.org/1999/xlink" width="32" height="32" viewBox="0 0 32 32">
    <defs>
        <path id="uo4m6fguna" d="M0.001 0.645L19.239 0.645 19.239 15.999 0.001 15.999z"/>
    </defs>
    <g fill="none" fill-rule="evenodd">
        <g>
            <g>
                <g>
                    <path d="M0 0H36V36H0z" transform="translate(-911 -3198) translate(909 3196)"/>
                </g>
                <g>
                    <path fill="#DFDFE2" d="M6.996 9.386c0 1.548 1.255 2.803 2.803 2.803s2.802-1.255 2.802-2.803S11.347 6.584 9.8 6.584 6.996 7.838 6.996 9.386z" transform="translate(-911 -3198) translate(909 3196) translate(9 9)"/>
                    <g transform="translate(-911 -3198) translate(909 3196) translate(9 9) translate(0 .354)">
                        <mask id="aztl5anlqb" fill="#fff">
                            <use xlink:href="#uo4m6fguna"/>
                        </mask>
                        <path fill="#DFDFE2" d="M16.49 6.322c-.168.462-.678.7-1.14.532-.461-.168-.7-.678-.531-1.14.169-.462.679-.7 1.14-.532.462.168.7.68.53 1.14M9.78 13.4c-2.418 0-4.38-1.961-4.38-4.381s1.962-4.382 4.38-4.382c2.42 0 4.383 1.962 4.383 4.381 0 2.42-1.962 4.382-4.382 4.382m7.625-10.59h-2.537c-.722 0-1.377-.424-1.673-1.082-.297-.658-.951-1.082-1.674-1.082H7.853c-.72 0-1.373.42-1.671 1.075l-.005.014c-.298.655-.952 1.075-1.67 1.075H1.836C.822 2.81 0 3.631 0 4.644v9.521C0 15.18.82 16 1.836 16h15.569c1.013 0 1.835-.822 1.835-1.835v-9.52c0-1.013-.822-1.835-1.835-1.835" mask="url(#aztl5anlqb)"/>
                    </g>
                </g>
            </g>
        </g>
    </g>
</svg>
