<svg xmlns="http://www.w3.org/2000/svg" xmlns:xlink="http://www.w3.org/1999/xlink" width="30" height="30" viewBox="0 0 30 30">
    <defs>
        <path id="hjsipf7e8a" d="M0 0.891L17.166 0.891 17.166 2.391 0 2.391z"/>
    </defs>
    <g fill="none" fill-rule="evenodd">
        <g>
            <g>
                <g>
                    <path d="M0 0H30V30H0z" transform="translate(-3397 -316) translate(3397 316)"/>
                </g>
                <g>
                    <g transform="translate(-3397 -316) translate(3397 316) translate(6 6) translate(0 1.92)">
                        <mask id="gqif5ga3sb" fill="#fff">
                            <use xlink:href="#hjsipf7e8a"/>
                        </mask>
                        <path fill="#9D9FA3" d="M16.416 2.391H.75c-.413 0-.75-.336-.75-.75s.337-.75.75-.75h15.668c.413 0 .75.336.75.75s-.337.75-.75.75" mask="url(#gqif5ga3sb)"/>
                    </g>
                    <path fill="#9D9FA3" d="M11.551 4.12c-.414 0-.75-.336-.75-.75V2.015c0-.334-.18-.515-.255-.515H6.62c-.074 0-.255.181-.255.515V3.37c0 .414-.336.75-.75.75s-.75-.336-.75-.75V2.015C4.865.905 5.652 0 6.62 0h3.926c.968 0 1.755.904 1.755 2.015V3.37c0 .414-.336.75-.75.75" transform="translate(-3397 -316) translate(3397 316) translate(6 6)"/>
                    <path fill="#9D9FA3" d="M12.09 13.81c0 .415-.336.75-.75.75s-.75-.335-.75-.75V7.524c0-.413.336-.75.75-.75s.75.337.75.75v6.286zm-2.757 0c0 .415-.336.75-.75.75s-.75-.335-.75-.75V7.524c0-.413.336-.75.75-.75s.75.337.75.75v6.286zm-2.756 0c0 .415-.336.75-.75.75s-.75-.335-.75-.75V7.524c0-.413.336-.75.75-.75s.75.337.75.75v6.286zm7.297-10.915c-2.702.015-7.888-.011-10.584-.027-.93-.006-1.665.814-1.597 1.776l.833 11.742c.062.864.755 1.534 1.59 1.534h8.913c.834 0 1.527-.668 1.59-1.53l.854-11.715c.07-.963-.667-1.783-1.6-1.78z" transform="translate(-3397 -316) translate(3397 316) translate(6 6)"/>
                </g>
            </g>
        </g>
    </g>
</svg>
