<svg xmlns="http://www.w3.org/2000/svg" width="30" height="30" viewBox="0 0 30 30">
    <g fill="none" fill-rule="evenodd">
        <g>
            <g>
                <path fill="#5E616B" fill-opacity=".8" stroke="#FFF" stroke-opacity=".4" stroke-width=".5" d="M8.974.25h12.052c3.05 0 4.16.309 5.275.905 1.097.587 1.957 1.447 2.544 2.544.596 1.116.905 2.225.905 5.275h0v12.052c0 3.05-.309 4.16-.905 5.275-.587 1.097-1.447 1.957-2.544 2.544-1.116.596-2.225.905-5.275.905h0H8.974c-3.05 0-4.16-.309-5.275-.905-1.097-.587-1.957-1.447-2.544-2.544C.56 25.185.25 24.076.25 21.026h0V8.974c0-3.05.309-4.16.905-5.275.587-1.097 1.447-1.957 2.544-2.544C4.815.56 5.924.25 8.974.25h0z" transform="translate(-3397 -239) translate(3397 239)"/>
                <path fill="#FFF" fill-opacity=".4" d="M9.286 7.002L20.602 7c1.335 0 1.97.114 2.482.332l.215.1c.035.017.07.035.104.054.593.317 1.058.782 1.375 1.374.317.593.486 1.18.486 2.802v6.676c0 1.621-.17 2.21-.486 2.802-.317.592-.782 1.057-1.375 1.374l-.104.055-.215.1c-.513.217-1.147.331-2.482.331H9.562c-1.43 0-2.057-.131-2.591-.38l-.21-.106c-.593-.317-1.058-.782-1.375-1.374l-.106-.21c-.232-.5-.362-1.078-.378-2.316L4.9 11.662c0-1.43.131-2.057.38-2.591l.106-.21c.317-.593.782-1.058 1.374-1.375l.21-.106c.5-.232 1.078-.362 2.316-.378zm7.507 3.293c-.357-.13-.748.028-.92.355l-.041.094-2.91 8-.028.098c-.078.36.12.733.477.863s.748-.028.92-.355l.041-.094 2.91-8 .028-.098c.078-.36-.12-.733-.477-.863zm-4.454 1.63c-.266-.267-.683-.291-.976-.073l-.084.072-2.546 2.546-.072.084c-.194.26-.196.619-.007.882l.08.094 2.545 2.546.084.072c.26.194.62.196.882.008l.094-.08.073-.084c.194-.261.196-.62.007-.883l-.08-.094L10.324 15l2.015-2.015.073-.084c.218-.294.194-.71-.073-.977zm5.485 0c-.266.265-.29.682-.072.976l.072.084L19.84 15l-2.016 2.015c-.266.266-.29.683-.072.977l.072.084c.266.266.683.29.977.072l.084-.072 2.545-2.546c.267-.266.29-.683.073-.976l-.073-.084-2.545-2.546c-.293-.293-.768-.293-1.06 0z" transform="translate(-3397 -239) translate(3397 239)"/>
            </g>
        </g>
    </g>
</svg>
