<svg xmlns="http://www.w3.org/2000/svg" xmlns:xlink="http://www.w3.org/1999/xlink" width="32" height="32" viewBox="0 0 32 32">
    <defs>
        <path id="7ljgs6nbma" d="M0 0L20.324 0 20.324 16.566 0 16.566z"/>
    </defs>
    <g fill="none" fill-rule="evenodd">
        <g>
            <g>
                <g>
                    <g>
                        <path d="M0 0H32V32H0z" transform="translate(-6991 -317) translate(6256 149) translate(735 168)"/>
                    </g>
                    <g transform="translate(-6991 -317) translate(6256 149) translate(735 168) translate(6 8)">
                        <mask id="4zfier22ob" fill="#fff">
                            <use xlink:href="#7ljgs6nbma"/>
                        </mask>
                        <path fill="#5F626A" d="M3.042 15.081c-.854 0-1.547-.69-1.556-1.542l1.916-1.742c.57-.517 1.441-.509 2 .018l.264.248c.581.548 1.493.532 2.055-.035l4.321-4.358c.556-.56 1.456-.583 2.04-.05l4.757 4.351v1.553c0 .86-.698 1.557-1.557 1.557H3.042zM7.646 5c0 1.137-.92 2.06-2.059 2.06-1.137 0-2.059-.923-2.059-2.06S4.45 2.94 5.588 2.94c1.137 0 2.058.922 2.058 2.06zm12.287-3.422c-.06-.108-.12-.215-.194-.315-.209-.288-.46-.543-.757-.743-.16-.109-.334-.203-.516-.28-.364-.154-.764-.24-1.184-.24H3.042c-.42 0-.82.086-1.185.24-.18.077-.354.171-.516.28-.81.547-1.34 1.473-1.34 2.523v10.482c0 .021.005.041.005.062.007.332.073.647.178.945.017.05.027.102.046.15v.001c.015.035.035.068.05.103l.003.004c.1.217.23.417.373.602.046.06.093.118.143.173.06.066.122.13.187.19.072.066.147.126.224.185.056.042.108.09.167.127.135.09.28.166.43.233.05.023.105.041.16.062.118.045.24.083.365.114.054.013.107.026.162.036.178.032.361.055.548.055h14.24c.202 0 .4-.022.592-.059.078-.016.151-.045.228-.067h.003c.106-.03.213-.057.315-.098.101-.042.195-.096.292-.148.025-.014.05-.028.076-.04.041-.022.082-.043.121-.067.024-.015.051-.025.073-.04.088-.059.164-.134.246-.202.035-.03.073-.057.107-.089.031-.029.067-.05.098-.08.08-.08.145-.174.215-.262l.03-.034c.004-.006.01-.01.013-.017.035-.046.06-.098.092-.146.064-.095.13-.189.184-.29l.002-.004.006-.01.001-.002c.09-.177.16-.364.213-.557.038-.12.055-.249.077-.376.006-.044.02-.084.025-.129.012-.108.033-.214.033-.325V3.042c0-.534-.149-1.029-.39-1.465z" mask="url(#4zfier22ob)"/>
                    </g>
                </g>
            </g>
        </g>
    </g>
</svg>
