<svg xmlns="http://www.w3.org/2000/svg" xmlns:xlink="http://www.w3.org/1999/xlink" width="30" height="30" viewBox="0 0 30 30">
    <defs>
        <filter id="q7y2vzcnya" width="213.3%" height="213.3%" x="-56.7%" y="-43.3%" filterUnits="objectBoundingBox">
            <feOffset dy="4" in="SourceAlpha" result="shadowOffsetOuter1"/>
            <feGaussianBlur in="shadowOffsetOuter1" result="shadowBlurOuter1" stdDeviation="5"/>
            <feComposite in="shadowBlurOuter1" in2="SourceAlpha" operator="out" result="shadowBlurOuter1"/>
            <feColorMatrix in="shadowBlurOuter1" values="0 0 0 0 0 0 0 0 0 0 0 0 0 0 0 0 0 0 0.102901005 0"/>
        </filter>
        <path id="wio9k9x9sb" d="M8.974 0h12.052c3.12 0 4.252.325 5.393.935 1.14.61 2.036 1.505 2.646 2.646.61 1.14.935 2.272.935 5.393v12.052c0 3.12-.325 4.252-.935 5.393-.61 1.14-1.505 2.036-2.646 2.646-1.14.61-2.272.935-5.393.935H8.974c-3.12 0-4.252-.325-5.393-.935-1.14-.61-2.036-1.505-2.646-2.646C.325 25.279 0 24.147 0 21.026V8.974c0-3.12.325-4.252.935-5.393.61-1.14 1.505-2.036 2.646-2.646C4.721.325 5.853 0 8.974 0z"/>
    </defs>
    <g fill="none" fill-rule="evenodd">
        <g>
            <g>
                <g>
                    <g transform="translate(-3319 -399) translate(2669 145) translate(650 254)">
                        <use fill="#000" filter="url(#q7y2vzcnya)" xlink:href="#wio9k9x9sb"/>
                        <path fill="#20232C" fill-opacity=".8" stroke="#FFF" stroke-linejoin="square" stroke-opacity=".4" stroke-width=".5" d="M8.974.25h12.052c3.05 0 4.16.309 5.275.905 1.097.587 1.957 1.447 2.544 2.544.596 1.116.905 2.225.905 5.275h0v12.052c0 3.05-.309 4.16-.905 5.275-.587 1.097-1.447 1.957-2.544 2.544-1.116.596-2.225.905-5.275.905h0H8.974c-3.05 0-4.16-.309-5.275-.905-1.097-.587-1.957-1.447-2.544-2.544C.56 25.185.25 24.076.25 21.026h0V8.974c0-3.05.309-4.16.905-5.275.587-1.097 1.447-1.957 2.544-2.544C4.815.56 5.924.25 8.974.25h0z"/>
                    </g>
                    <g fill="#FFF" fill-opacity=".4">
                        <path d="M12.6 0c2.32 0 4.2 1.88 4.2 4.2v2.4c0 .331-.269.6-.6.6-.331 0-.6-.269-.6-.6V4.2c0-1.59-1.238-2.892-2.803-2.994L12.6 1.2c-1.59 0-2.892 1.238-2.994 2.803L9.6 4.2l.001 1.81c.292.02.438.072.585.15.196.105.35.258.454.454.104.195.16.39.16.924v5.324c0 .535-.056.729-.16.924-.105.196-.258.35-.454.454-.195.104-.39.16-.924.16H1.538c-.535 0-.729-.056-.924-.16-.196-.105-.35-.258-.454-.454-.104-.195-.16-.39-.16-.924V7.538c0-.535.056-.729.16-.924.105-.196.258-.35.454-.454.195-.104.39-.16.924-.16H8.4L8.4 4.2c0-2.32 1.88-4.2 4.2-4.2z" transform="translate(-3319 -399) translate(2669 145) translate(650 254) translate(6.5 8)"/>
                    </g>
                </g>
            </g>
        </g>
    </g>
</svg>
