<svg xmlns="http://www.w3.org/2000/svg" width="30" height="30" viewBox="0 0 30 30">
    <g fill="none" fill-rule="evenodd">
        <g>
            <g>
                <g>
                    <path fill="#20232C" fill-opacity=".9" stroke="#FFF" stroke-opacity=".1" stroke-width=".5" d="M8.974.25h12.052c3.05 0 4.16.309 5.275.905 1.097.587 1.957 1.447 2.544 2.544.596 1.116.905 2.225.905 5.275h0v12.052c0 3.05-.309 4.16-.905 5.275-.587 1.097-1.447 1.957-2.544 2.544-1.116.596-2.225.905-5.275.905h0H8.974c-3.05 0-4.16-.309-5.275-.905-1.097-.587-1.957-1.447-2.544-2.544C.56 25.185.25 24.076.25 21.026h0V8.974c0-3.05.309-4.16.905-5.275.587-1.097 1.447-1.957 2.544-2.544C4.815.56 5.924.25 8.974.25h0z" transform="translate(-3475 -279) translate(2669 145) translate(806 134)"/>
                    <path fill="#FFF" fill-opacity=".1" d="M20.54 21.281c.28 0 .568-.052.862-.156.295-.104.564-.266.809-.484.245-.22.443-.5.594-.844.15-.344.226-.76.226-1.25v-6.86h-4.304c-.35 0-.641-.118-.875-.355-.235-.237-.352-.525-.352-.863V5.96h-4.055c-.838 0-1.496.237-1.972.71-.477.475-.715 1.123-.715 1.946v.164h1.328c.734 0 1.342.091 1.824.274.482.182.92.474 1.317.875l4.195 4.203c.37.36.633.802.789 1.328.156.526.234 1.128.234 1.805v4.015h.094zM22.827 10.5c-.005-.151-.064-.3-.176-.445-.112-.146-.256-.308-.433-.485l-2.633-2.75c-.151-.161-.3-.295-.45-.402-.148-.107-.297-.165-.448-.176v3.867c0 .26.13.391.39.391h3.75zm-6.39 14.875c.87 0 1.541-.237 2.015-.71.474-.475.711-1.15.711-2.024v-5.446h-5.547c-.458 0-.81-.123-1.055-.37-.244-.248-.367-.601-.367-1.06v-5.71H9.61c-.87 0-1.541.237-2.015.71-.474.475-.711 1.15-.711 2.024v9.852c0 .875.237 1.55.71 2.023.475.474 1.147.711 2.016.711h6.829zm-2.5-9.46l5.078-.009c-.052-.192-.14-.384-.262-.574-.122-.19-.275-.376-.457-.559l-3.735-3.765c-.182-.188-.36-.344-.535-.469-.174-.125-.36-.219-.558-.281v5.18c0 .317.156.476.469.476z" transform="translate(-3475 -279) translate(2669 145) translate(806 134)"/>
                </g>
            </g>
        </g>
    </g>
</svg>
