<svg xmlns="http://www.w3.org/2000/svg" xmlns:xlink="http://www.w3.org/1999/xlink" width="38" height="38" viewBox="0 0 38 38">
    <defs>
        <path id="xceftiawva" d="M0 0.383L32.343 0.383 32.343 26.824 0 26.824z"/>
        <path id="y7cxy4b54c" d="M.244 7.072C.244 10.898 3.345 14 7.172 14c3.826 0 6.927-3.102 6.927-6.928 0-3.827-3.101-6.928-6.927-6.928C3.345.144.244 3.245.244 7.072zm1.499 0c0-2.993 2.436-5.429 5.429-5.429 2.993 0 5.428 2.436 5.428 5.429 0 2.993-2.435 5.428-5.428 5.428s-5.429-2.435-5.429-5.428z"/>
    </defs>
    <g fill="none" fill-rule="evenodd">
        <g>
            <g>
                <g>
                    <g>
                        <path d="M0 0H38V38H0z" transform="translate(-1488 -314) translate(834 105) translate(654 209)"/>
                    </g>
                    <g>
                        <g transform="translate(-1488 -314) translate(834 105) translate(654 209) translate(3 5) translate(0 .617)">
                            <mask id="732rzurrzb" fill="#fff">
                                <use xlink:href="#xceftiawva"/>
                            </mask>
                            <path fill="#FFF" d="M4.495 5.208c-1.65 0-2.995 1.344-2.995 2.996v14.124c0 1.651 1.344 2.996 2.995 2.996h23.352c1.652 0 2.996-1.345 2.996-2.996V7.821c0-1.44-1.172-2.613-2.612-2.613h-5.329c-.488 0-.895-.353-.98-.816l-.21-.565c-.437-1.163-1.565-1.944-2.807-1.944h-5.434c-1.207 0-2.29.72-2.76 1.832l-.294.697c-.093.454-.495.796-.976.796H4.495zm23.352 21.616H4.495C2.016 26.824 0 24.807 0 22.328V8.204c0-2.479 2.016-4.496 4.495-4.496h4.591l.243-.576c.704-1.67 2.33-2.749 4.142-2.749h5.434c1.864 0 3.556 1.173 4.21 2.918l.153.407h4.963c2.267 0 4.112 1.845 4.112 4.113v14.507c0 2.48-2.017 4.496-4.496 4.496z" mask="url(#732rzurrzb)"/>
                        </g>
                        <g transform="translate(-1488 -314) translate(834 105) translate(654 209) translate(3 5) translate(9 8.617)">
                            <mask id="igodmncrod" fill="#fff">
                                <use xlink:href="#y7cxy4b54c"/>
                            </mask>
                            <path fill="#FFF" d="M-4.756 19L19.1 19 19.1 -4.856 -4.756 -4.856z" mask="url(#igodmncrod)"/>
                        </g>
                        <path fill="#FFF" d="M25.953 9.709c0 .626-.508 1.135-1.135 1.135s-1.135-.51-1.135-1.135c0-.627.508-1.136 1.135-1.136s1.135.508 1.135 1.136" transform="translate(-1488 -314) translate(834 105) translate(654 209) translate(3 5)"/>
                    </g>
                </g>
            </g>
        </g>
    </g>
</svg>
