<svg xmlns="http://www.w3.org/2000/svg" width="30" height="30" viewBox="0 0 30 30">
    <g fill="none" fill-rule="evenodd">
        <g>
            <g>
                <g>
                    <path d="M0 0H30V30H0z" transform="translate(-7617 -1026) translate(6256 149) translate(1361 877)"/>
                    <g fill="#FFF">
                        <path d="M1.538 6h7.724c.535 0 .729.056.924.16.196.105.35.258.454.454.104.195.16.39.16.924v5.324c0 .535-.056.729-.16.924-.105.196-.258.35-.454.454-.195.104-.39.16-.924.16H1.538c-.535 0-.729-.056-.924-.16-.196-.105-.35-.258-.454-.454-.104-.195-.16-.39-.16-.924V7.538c0-.535.056-.729.16-.924.105-.196.258-.35.454-.454.195-.104.39-.16.924-.16z" transform="translate(-7617 -1026) translate(6256 149) translate(1361 877) translate(9.5 8)"/>
                        <path d="M12.6 0c2.32 0 4.2 1.88 4.2 4.2v2.4c0 .331-.269.6-.6.6-.331 0-.6-.269-.6-.6V4.2c0-1.59-1.238-2.892-2.803-2.994L12.6 1.2c-1.59 0-2.892 1.238-2.994 2.803L9.6 4.2v2.4c0 .331-.269.6-.6.6-.331 0-.6-.269-.6-.6V4.2c0-2.32 1.88-4.2 4.2-4.2z" transform="translate(-7617 -1026) translate(6256 149) translate(1361 877) translate(9.5 8)"/>
                    </g>
                </g>
            </g>
        </g>
    </g>
</svg>
