<svg xmlns="http://www.w3.org/2000/svg" width="30" height="30" viewBox="0 0 30 30">
    <g fill="none" fill-rule="evenodd">
        <g>
            <g>
                <g>
                    <path fill="#20232C" fill-opacity=".9" stroke="#FFF" stroke-opacity=".1" stroke-width=".5" d="M8.974.25h12.052c3.05 0 4.16.309 5.275.905 1.097.587 1.957 1.447 2.544 2.544.596 1.116.905 2.225.905 5.275h0v12.052c0 3.05-.309 4.16-.905 5.275-.587 1.097-1.447 1.957-2.544 2.544-1.116.596-2.225.905-5.275.905h0H8.974c-3.05 0-4.16-.309-5.275-.905-1.097-.587-1.957-1.447-2.544-2.544C.56 25.185.25 24.076.25 21.026h0V8.974c0-3.05.309-4.16.905-5.275.587-1.097 1.447-1.957 2.544-2.544C4.815.56 5.924.25 8.974.25h0z" transform="translate(-3475 -319) translate(2669 145) translate(806 174)"/>
                    <path fill="#FFF" fill-opacity=".1" d="M18.273 23.375c.636 0 1.122-.156 1.457-.469.336-.312.52-.776.551-1.39l.461-10.375h.797c.276 0 .503-.086.68-.258.177-.172.265-.396.265-.672 0-.266-.088-.483-.265-.652-.177-.17-.404-.254-.68-.254H18.57V8.258c0-.672-.202-1.188-.605-1.547-.404-.36-.986-.54-1.746-.54H13.39c-.756 0-1.335.18-1.739.54-.403.36-.605.875-.605 1.547l-.001 1.047H8.078c-.27 0-.496.084-.676.254-.18.169-.27.386-.27.652 0 .276.09.5.27.672.18.172.405.258.676.258h.797l.46 10.375c.032.614.217 1.078.556 1.39.338.313.825.469 1.46.469h6.922zm-1.766-14.07h-3.398v-.992c0-.12.037-.211.11-.274.073-.062.182-.094.328-.094h2.523c.14 0 .249.032.325.094.075.063.113.154.113.274l-.001.992zm-4.148 11.398c-.182 0-.333-.057-.453-.172-.12-.114-.182-.265-.187-.453l-.211-7.336c-.005-.193.048-.347.16-.465.112-.117.264-.175.457-.175.198 0 .357.058.477.175.12.118.182.27.187.457l.219 7.329c.005.192-.051.347-.168.464-.117.118-.277.176-.48.176zm2.454 0c-.193 0-.348-.057-.465-.172-.118-.114-.176-.265-.176-.453v-7.351c0-.188.058-.339.176-.454.117-.114.272-.171.464-.171.193 0 .348.057.465.171.118.115.176.266.176.454v7.351c0 .188-.058.339-.176.453-.117.115-.272.172-.464.172zm2.445 0c-.203 0-.362-.058-.477-.176-.114-.117-.172-.272-.172-.465l.227-7.328c.005-.187.068-.34.187-.457.12-.117.276-.175.47-.175.192 0 .346.058.46.175.115.118.17.272.164.465l-.219 7.336c-.005.188-.067.339-.187.453-.12.115-.27.172-.453.172z" transform="translate(-3475 -319) translate(2669 145) translate(806 174)"/>
                </g>
            </g>
        </g>
    </g>
</svg>
