<svg xmlns="http://www.w3.org/2000/svg" xmlns:xlink="http://www.w3.org/1999/xlink" width="38" height="38" viewBox="0 0 38 38">
    <defs>
        <path id="oltmk3n6ga" d="M0.347 0.806L15.195 0.806 15.195 22.993 0.347 22.993z"/>
        <path id="lsfpcfk12c" d="M0 0.488L28.195 0.488 28.195 14 0 14z"/>
    </defs>
    <g fill="none" fill-rule="evenodd">
        <g>
            <g>
                <g>
                    <g>
                        <path d="M0 0H38V38H0z" transform="translate(-1568 -266) translate(834 105) translate(734 161)"/>
                    </g>
                    <g opacity=".6">
                        <path fill="#FFF" d="M1.5 8.241v13.037l11.847-5.331V2.91L1.5 8.241zM.75 23.188c-.142 0-.284-.041-.407-.12-.214-.139-.343-.376-.343-.63V7.756c0-.295.173-.563.442-.684L13.79 1.066c.231-.104.501-.084.714.054.214.138.343.375.343.63v14.681c0 .295-.173.563-.442.685L1.058 23.122c-.099.044-.204.066-.308.066z" transform="translate(-1568 -266) translate(834 105) translate(734 161) translate(5 4)"/>
                        <g transform="translate(-1568 -266) translate(834 105) translate(734 161) translate(5 4) translate(13 .194)">
                            <mask id="n2zi5g0deb" fill="#fff">
                                <use xlink:href="#oltmk3n6ga"/>
                            </mask>
                            <path fill="#FFF" d="M1.847 15.752l11.848 5.331V8.046L1.847 2.716v13.036zm12.598 7.241c-.105 0-.21-.022-.308-.066L.79 16.921c-.269-.12-.442-.389-.442-.684V1.555c0-.254.13-.49.343-.63.214-.138.483-.157.715-.054l13.347 6.006c.27.122.443.39.443.685v14.681c0 .255-.129.492-.343.63-.123.08-.265.12-.407.12z" mask="url(#n2zi5g0deb)"/>
                        </g>
                        <g transform="translate(-1568 -266) translate(834 105) translate(734 161) translate(5 4) translate(0 15.194)">
                            <mask id="vulckvohed" fill="#fff">
                                <use xlink:href="#lsfpcfk12c"/>
                            </mask>
                            <path fill="#FFF" d="M2.578 7.244l11.52 5.184 11.52-5.184-11.52-5.184-11.52 5.184zM14.098 14c-.105 0-.21-.022-.308-.066L.443 7.928C.173 7.807 0 7.538 0 7.244c0-.295.173-.563.443-.684L13.79.554c.195-.088.42-.088.615 0L27.753 6.56c.269.12.442.389.442.684 0 .295-.173.563-.442.684l-13.348 6.006c-.098.044-.202.066-.307.066z" mask="url(#vulckvohed)"/>
                        </g>
                        <path fill="#FFF" d="M12.17 8.667c-.193 0-.385-.073-.53-.22-.294-.293-.294-.767 0-1.06l1.926-1.928c.293-.293.768-.293 1.061 0l1.928 1.928c.293.293.293.767 0 1.06-.293.293-.767.293-1.06 0L14.097 7.05 12.7 8.447c-.146.147-.338.22-.53.22M20.572 22.294c-.291 0-.568-.17-.69-.454-.163-.38.013-.822.394-.985l1.816-.78-.78-1.817c-.163-.38.013-.82.393-.985.382-.163.822.013.985.394l1.076 2.505c.163.381-.013.822-.393.985l-2.506 1.076c-.096.041-.196.061-.295.061M7.21 22.48c-.099 0-.199-.02-.295-.06L4.41 21.344c-.183-.078-.327-.226-.4-.411-.075-.184-.072-.391.007-.574l1.076-2.505c.162-.381.605-.557.985-.393.381.164.556.604.393.985l-.78 1.816 1.816.78c.381.163.557.604.393.985-.12.284-.398.454-.689.454" transform="translate(-1568 -266) translate(834 105) translate(734 161) translate(5 4)"/>
                    </g>
                </g>
            </g>
        </g>
    </g>
</svg>
