<svg xmlns="http://www.w3.org/2000/svg" xmlns:xlink="http://www.w3.org/1999/xlink" width="40" height="40" viewBox="0 0 40 40">
    <defs>
        <path id="aceqjvvn3a" d="M1.728.516C.885.516.202 1.199.202 2.042v7.625h6.101V2.042c0-.843-.682-1.526-1.525-1.526h-3.05z"/>
    </defs>
    <g fill="none" fill-rule="evenodd">
        <g>
            <g>
                <g>
                    <path d="M0 0H40V40H0z" transform="translate(-1574 -183) translate(906 94) translate(668 89)"/>
                    <g>
                        <path d="M0 0H40V40H0z" transform="translate(-1574 -183) translate(906 94) translate(668 89)"/>
                    </g>
                    <g>
                        <g fill="#FFF">
                            <path d="M25.528 12.92c-.176 0-.352-.062-.494-.187L13.322 2.485 1.613 12.573c-.313.27-.786.235-1.058-.079-.27-.314-.235-.787.08-1.058L12.836.923c.283-.243.702-.24.983.004l12.202 10.678c.312.272.343.746.07 1.058-.148.17-.356.256-.564.256" transform="translate(-1574 -183) translate(906 94) translate(668 89) translate(7 7) translate(0 .506)"/>
                            <path d="M22.404 25.174H4.101c-.414 0-.75-.336-.75-.75V9.97c0-.414.336-.75.75-.75s.75.336.75.75v13.705h16.803L21.65 3.82v3.964c0 .414-.336.75-.75.75s-.75-.336-.75-.75V3.07c0-.414.336-.75.75-.75h1.504c.414 0 .75.336.75.75v21.354c0 .414-.336.75-.75.75" transform="translate(-1574 -183) translate(906 94) translate(668 89) translate(7 7) translate(0 .506)"/>
                            <path d="M11.727 15.516h3.051c.843 0 1.525.683 1.525 1.525v7.626h-6.1v-7.626c0-.842.682-1.525 1.524-1.525" transform="translate(-1574 -183) translate(906 94) translate(668 89) translate(7 7) translate(0 .506)"/>
                        </g>
                        <g transform="translate(-1574 -183) translate(906 94) translate(668 89) translate(7 7) translate(10 15.506)">
                            <mask id="v1fysq8o9b" fill="#fff">
                                <use xlink:href="#aceqjvvn3a"/>
                            </mask>
                            <path fill="#FFF" d="M-12 14L18.506 14 18.506 -16.505 -12 -16.505z" mask="url(#v1fysq8o9b)"/>
                            <path fill="#FFF" d="M-2.848 14L9.354 14 9.354 -2.778 -2.848 -2.778z" mask="url(#v1fysq8o9b)"/>
                            <path fill="#FFF" d="M1.727.516h3.051c.843 0 1.525.683 1.525 1.525v7.626h-6.1V2.041C.202 1.2.884.516 1.726.516" mask="url(#v1fysq8o9b)"/>
                            <path fill="#FFF" d="M0.202 10.95L6.304 10.95 6.304 0.273 0.202 0.273z" mask="url(#v1fysq8o9b)"/>
                            <path fill="#FFF" d="M1.727.516h3.051c.843 0 1.525.683 1.525 1.525v7.626h-6.1V2.041C.202 1.2.884.516 1.726.516" mask="url(#v1fysq8o9b)"/>
                            <path fill="#FFF" d="M0.202 10.95L6.304 10.95 6.304 0.273 0.202 0.273z" mask="url(#v1fysq8o9b)"/>
                            <path fill="#FFF" d="M1.727.516h3.051c.843 0 1.525.683 1.525 1.525v7.626h-6.1V2.041C.202 1.2.884.516 1.726.516" mask="url(#v1fysq8o9b)"/>
                        </g>
                    </g>
                </g>
            </g>
        </g>
    </g>
</svg>
