<svg xmlns="http://www.w3.org/2000/svg" xmlns:xlink="http://www.w3.org/1999/xlink" width="38" height="38" viewBox="0 0 38 38">
    <defs>
        <path id="f9d4cughja" d="M0.617 0.54L22.46 0.54 22.46 22.931 0.617 22.931z"/>
    </defs>
    <g fill="none" fill-rule="evenodd">
        <g>
            <g>
                <g>
                    <g>
                        <path d="M0 0H38V38H0z" transform="translate(-1488 -218) translate(834 105) translate(654 113)"/>
                    </g>
                    <g>
                        <path fill="#FFF" d="M2.208 19.387c1.29 3.773 4.273 6.708 8.075 7.936-1.095-1.547-1.954-3.227-2.568-5.018-1.992-.681-3.835-1.66-5.507-2.918m9.997 9.905c-.039 0-.075-.003-.114-.008-6.16-.932-10.944-5.693-11.904-11.85-.05-.317.108-.63.394-.78.283-.148.63-.1.863.122 2.045 1.946 4.43 3.367 7.093 4.222.23.074.41.255.484.485.778 2.42 2.038 4.629 3.745 6.563.21.237.248.578.097.855-.133.244-.387.39-.659.39" transform="translate(-1488 -218) translate(834 105) translate(654 113) translate(5 4)"/>
                        <path fill="#FFF" d="M12.587 27.84c.606.082 1.134.12 1.643.12 5.545 0 10.299-3.498 12.027-8.58-4.771 3.582-10.91 4.86-16.744 3.45.744 1.814 1.774 3.493 3.074 5.01m1.643 1.62c-.66 0-1.34-.056-2.138-.177-.174-.026-.334-.113-.45-.245-1.845-2.09-3.206-4.478-4.048-7.097-.087-.268-.015-.56.183-.76.2-.199.493-.27.76-.183 6.478 2.082 13.557.465 18.478-4.222.234-.222.582-.27.865-.122.285.15.443.463.394.78C27.186 24.402 21.28 29.46 14.23 29.46" transform="translate(-1488 -218) translate(834 105) translate(654 113) translate(5 4)"/>
                        <path fill="#FFF" d="M1.631 16.95c1.647 1.529 3.511 2.72 5.558 3.557-1.517-6.246.023-12.776 4.158-17.662C5.683 4.158 1.5 9.243 1.5 15.23c0 .529.043 1.094.131 1.72m6.676 5.51c-.076 0-.154-.01-.229-.035-2.88-.925-5.459-2.46-7.668-4.564-.119-.114-.198-.264-.224-.427C.061 16.629 0 15.908 0 15.23 0 7.734 5.865 1.5 13.353 1.044c.32-.025.608.16.734.449.125.29.057.626-.172.843-.063.06-.129.117-.194.174-.058.05-.117.1-.173.156-4.936 4.938-6.67 12.148-4.527 18.817.087.267.015.56-.183.76-.143.143-.335.219-.53.219" transform="translate(-1488 -218) translate(834 105) translate(654 113) translate(5 4)"/>
                        <g transform="translate(-1488 -218) translate(834 105) translate(654 113) translate(5 4) translate(6 .46)">
                            <mask id="mpyijxcddb" fill="#fff">
                                <use xlink:href="#f9d4cughja"/>
                            </mask>
                            <path fill="#FFF" d="M2.907 20.652c6.293 1.88 13.104.302 17.921-4.162.09-.627.132-1.192.132-1.72 0-7.02-5.71-12.73-12.73-12.73-.177 0-.35.01-.524.023-.053.045-.107.092-.157.142C2.703 7.051.942 14.087 2.907 20.652zm5.32 2.28c-2.057 0-4.13-.318-6.149-.967-.23-.074-.41-.254-.484-.484-2.318-7.208-.442-15 4.895-20.337.081-.08.165-.154.248-.227l.146-.13c.128-.12.295-.194.471-.204L7.56.57c.222-.015.444-.03.67-.03 7.846 0 14.23 6.384 14.23 14.231 0 .677-.06 1.398-.187 2.204-.025.163-.104.313-.224.427-3.785 3.604-8.75 5.53-13.822 5.53z" mask="url(#mpyijxcddb)"/>
                        </g>
                        <path fill="#FFF" d="M20.493 24.865c-.106 0-.215-.022-.317-.071-.376-.176-.537-.622-.362-.997l1.284-2.743-2.507-1.024c-.384-.157-.568-.595-.41-.978.156-.383.593-.57.977-.411l3.238 1.323c.19.078.34.23.415.422.075.19.067.404-.02.59l-1.618 3.457c-.128.272-.398.432-.68.432" transform="translate(-1488 -218) translate(834 105) translate(654 113) translate(5 4)"/>
                    </g>
                </g>
            </g>
        </g>
    </g>
</svg>
