<svg xmlns="http://www.w3.org/2000/svg" width="30" height="30" viewBox="0 0 30 30">
    <g fill="none" fill-rule="evenodd">
        <g>
            <g>
                <path d="M0 0H30V30H0z" transform="translate(-3475 -248) translate(3475 248)"/>
                <path fill="#9D9FA3" fill-opacity=".5" d="M9.286 7.002L20.602 7c1.335 0 1.97.114 2.482.332l.215.1c.035.017.07.035.104.054.593.317 1.058.782 1.375 1.374.317.593.486 1.18.486 2.802v6.676c0 1.621-.17 2.21-.486 2.802-.317.592-.782 1.057-1.375 1.374l-.104.055-.215.1c-.513.217-1.147.331-2.482.331H9.562c-1.43 0-2.057-.131-2.591-.38l-.21-.106c-.593-.317-1.058-.782-1.375-1.374l-.106-.21c-.232-.5-.362-1.078-.378-2.316L4.9 11.662c0-1.43.131-2.057.38-2.591l.106-.21c.317-.593.782-1.058 1.374-1.375l.21-.106c.5-.232 1.078-.362 2.316-.378zm7.507 3.293c-.357-.13-.748.028-.92.355l-.041.094-2.91 8-.028.098c-.078.36.12.733.477.863s.748-.028.92-.355l.041-.094 2.91-8 .028-.098c.078-.36-.12-.733-.477-.863zm-4.454 1.63c-.266-.267-.683-.291-.976-.073l-.084.072-2.546 2.546-.072.084c-.194.26-.196.619-.007.882l.08.094 2.545 2.546.084.072c.26.194.62.196.882.008l.094-.08.073-.084c.194-.261.196-.62.007-.883l-.08-.094L10.324 15l2.015-2.015.073-.084c.218-.294.194-.71-.073-.977zm5.485 0c-.266.265-.29.682-.072.976l.072.084L19.84 15l-2.016 2.015c-.266.266-.29.683-.072.977l.072.084c.266.266.683.29.977.072l.084-.072 2.545-2.546c.267-.266.29-.683.073-.976l-.073-.084-2.545-2.546c-.293-.293-.768-.293-1.06 0z" transform="translate(-3475 -248) translate(3475 248)"/>
            </g>
        </g>
    </g>
</svg>
