<svg xmlns="http://www.w3.org/2000/svg" xmlns:xlink="http://www.w3.org/1999/xlink" width="32" height="32" viewBox="0 0 32 32">
    <defs>
        <path id="r6ynfsif9a" d="M0 0.318L14.267 0.318 14.267 14.586 0 14.586z"/>
        <path id="9bmyolzekc" d="M0.19 0.508L13.682 0.508 13.682 14 0.19 14z"/>
    </defs>
    <g fill="none" fill-rule="evenodd">
        <g>
            <g>
                <g>
                    <path d="M0 0H36V36H0z" transform="translate(-875 -3270) translate(873 3268)"/>
                </g>
                <g>
                    <g transform="translate(-875 -3270) translate(873 3268) translate(7 7) translate(0 .682)">
                        <mask id="verlg5qfcb" fill="#fff">
                            <use xlink:href="#r6ynfsif9a"/>
                        </mask>
                        <path fill="#FFF" d="M9.257 6.271h5.01C13.68 2.891 10.738.317 7.191.317 3.219.317 0 3.537 0 7.508c0 3.553 2.58 6.497 5.967 7.078V9.561c0-1.817 1.474-3.29 3.29-3.29" mask="url(#verlg5qfcb)"/>
                    </g>
                    <g transform="translate(-875 -3270) translate(873 3268) translate(7 7) translate(7 7.682)">
                        <mask id="jkna7wg97d" fill="#fff">
                            <use xlink:href="#9bmyolzekc"/>
                        </mask>
                        <path fill="#FFF" d="M11.5.508H2.372C1.167.508.19 1.486.19 2.691V11.818C.19 13.022 1.167 14 2.373 14H11.5c1.206 0 2.183-.977 2.183-2.183V2.691c0-1.205-.977-2.183-2.183-2.183" mask="url(#jkna7wg97d)"/>
                    </g>
                </g>
            </g>
        </g>
    </g>
</svg>
