<svg xmlns="http://www.w3.org/2000/svg" xmlns:xlink="http://www.w3.org/1999/xlink" width="28" height="28" viewBox="0 0 28 28">
    <defs>
        <path id="cc7jb3gnga" d="M0 0.089L12.355 0.089 12.355 12.447 0 12.447z"/>
        <path id="2edfq8xv1c" d="M0.227 0.316L11.911 0.316 11.911 12 0.227 12z"/>
    </defs>
    <g fill="none" fill-rule="evenodd">
        <g>
            <g>
                <g>
                    <path d="M0 0H28V28H0z" transform="translate(-6980 -975) translate(6980 975)"/>
                </g>
                <g>
                    <g transform="translate(-6980 -975) translate(6980 975) translate(5 5) translate(0 .911)">
                        <mask id="3kqct6bf6b" fill="#fff">
                            <use xlink:href="#cc7jb3gnga"/>
                        </mask>
                        <path fill="#FFF" d="M8.017 5.245h4.338C11.848 2.317 9.3.088 6.227.088 2.788.088 0 2.876 0 6.316c0 3.077 2.236 5.627 5.169 6.13V8.095c0-1.573 1.276-2.85 2.849-2.85" mask="url(#3kqct6bf6b)"/>
                    </g>
                    <g transform="translate(-6980 -975) translate(6980 975) translate(5 5) translate(6 6.911)">
                        <mask id="3bw7ofbyzd" fill="#fff">
                            <use xlink:href="#2edfq8xv1c"/>
                        </mask>
                        <path fill="#FFF" d="M10.02.316H2.117c-1.044 0-1.89.846-1.89 1.89v7.904c0 1.044.846 1.89 1.89 1.89h7.903c1.045 0 1.891-.846 1.891-1.89V2.206c0-1.044-.846-1.89-1.89-1.89" mask="url(#3bw7ofbyzd)"/>
                    </g>
                </g>
            </g>
        </g>
    </g>
</svg>
