<svg xmlns="http://www.w3.org/2000/svg" width="14" height="28" viewBox="0 0 14 28">
    <g fill="none" fill-rule="evenodd">
        <g>
            <g>
                <g>
                    <path d="M0 0H14V28H0z" transform="translate(-6909 -919) translate(6256 149) translate(653 770)"/>
                    <path fill="#FFF" d="M7.434 11.76l3.139 5.492c.137.24.053.545-.187.682-.075.043-.16.066-.248.066H3.862c-.277 0-.5-.224-.5-.5 0-.087.022-.173.065-.248l3.139-5.492c.137-.24.442-.323.682-.186.078.044.142.108.186.186z" transform="translate(-6909 -919) translate(6256 149) translate(653 770) rotate(-180 7 14.5)"/>
                </g>
            </g>
        </g>
    </g>
</svg>
