<svg xmlns="http://www.w3.org/2000/svg" xmlns:xlink="http://www.w3.org/1999/xlink" width="28" height="28" viewBox="0 0 28 28">
    <defs>
        <path id="z6gfsyvyaa" d="M0.001 0.232L17.068 0.232 17.068 13 0.001 13z"/>
    </defs>
    <g fill="none" fill-rule="evenodd">
        <g>
            <g>
                <g>
                    <path d="M0 0H28V28H0z" transform="translate(-6980 -1003) translate(6980 1003)"/>
                </g>
                <g>
                    <path fill="#FFF" d="M10.528 4.475H6.54c-.414 0-.75.336-.75.75s.336.75.75.75h1.244v3.48c0 .413.336.75.75.75s.75-.337.75-.75v-3.48h1.244c.414 0 .75-.336.75-.75s-.336-.75-.75-.75" transform="translate(-6980 -1003) translate(6980 1003) translate(6 7)"/>
                    <g transform="translate(-6980 -1003) translate(6980 1003) translate(6 7) translate(0 .769)">
                        <mask id="spc542i6cb" fill="#fff">
                            <use xlink:href="#z6gfsyvyaa"/>
                        </mask>
                        <path fill="#FFF" d="M15.569 10.149c0 .745-.605 1.35-1.352 1.35H2.85c-.744 0-1.35-.605-1.35-1.35V3.082c0-.745.606-1.35 1.35-1.35h11.367c.747 0 1.352.605 1.352 1.35v7.067zM14.217.232H2.85C1.278.232 0 1.51 0 3.082v7.067c0 1.572 1.278 2.85 2.85 2.85h11.367c1.573 0 2.852-1.278 2.852-2.85V3.082c0-1.572-1.28-2.85-2.852-2.85z" mask="url(#spc542i6cb)"/>
                    </g>
                </g>
            </g>
        </g>
    </g>
</svg>
