<svg xmlns="http://www.w3.org/2000/svg" xmlns:xlink="http://www.w3.org/1999/xlink" width="28" height="28" viewBox="0 0 28 28">
    <defs>
        <path id="hekvci19xa" d="M0 0.703L16.662 0.703 16.662 14 0 14z"/>
    </defs>
    <g fill="none" fill-rule="evenodd">
        <g>
            <g>
                <g>
                    <path d="M0 0H28V28H0z" transform="translate(-6980 -919) translate(6980 919)"/>
                </g>
                <g>
                    <path fill="#FFF" d="M6.06 8.263c0 1.34 1.085 2.427 2.426 2.427 1.34 0 2.427-1.086 2.427-2.427 0-1.34-1.087-2.427-2.427-2.427S6.06 6.923 6.06 8.263z" transform="translate(-6980 -919) translate(6980 919) translate(6 7)"/>
                    <g transform="translate(-6980 -919) translate(6980 919) translate(6 7) translate(0 .297)">
                        <mask id="i2sxtj32eb" fill="#fff">
                            <use xlink:href="#hekvci19xa"/>
                        </mask>
                        <path fill="#FFF" d="M14.281 5.62c-.146.4-.588.604-.987.46-.4-.147-.606-.589-.46-.988.145-.4.588-.606.987-.46.4.146.606.588.46.987M8.47 11.747c-2.095 0-3.793-1.699-3.793-3.794 0-2.096 1.698-3.794 3.793-3.794 2.096 0 3.794 1.698 3.794 3.794 0 2.095-1.698 3.794-3.794 3.794m6.603-9.17h-2.196c-.625 0-1.193-.367-1.449-.937-.257-.57-.825-.938-1.45-.938H6.801c-.624 0-1.189.364-1.447.932l-.006.012c-.257.567-.823.931-1.446.931H1.59C.712 2.577 0 3.288 0 4.167v8.244c0 .877.712 1.59 1.59 1.59h13.482c.878 0 1.59-.713 1.59-1.59V4.166c0-.878-.712-1.589-1.59-1.589" mask="url(#i2sxtj32eb)"/>
                    </g>
                </g>
            </g>
        </g>
    </g>
</svg>
