<svg xmlns="http://www.w3.org/2000/svg" xmlns:xlink="http://www.w3.org/1999/xlink" width="23" height="28" viewBox="0 0 23 28">
    <defs>
        <filter id="flmhyv5uta" width="131.6%" height="154.5%" x="-15.8%" y="-27.3%" filterUnits="objectBoundingBox">
            <feOffset in="SourceAlpha" result="shadowOffsetOuter1"/>
            <feGaussianBlur in="shadowOffsetOuter1" result="shadowBlurOuter1" stdDeviation="1"/>
            <feColorMatrix in="shadowBlurOuter1" values="0 0 0 0 0 0 0 0 0 0 0 0 0 0 0 0 0 0 0.2 0"/>
        </filter>
        <filter id="7535alf5lc" width="131.6%" height="154.5%" x="-15.8%" y="-27.3%" filterUnits="objectBoundingBox">
            <feOffset in="SourceAlpha" result="shadowOffsetOuter1"/>
            <feGaussianBlur in="shadowOffsetOuter1" result="shadowBlurOuter1" stdDeviation="1"/>
            <feColorMatrix in="shadowBlurOuter1" values="0 0 0 0 0 0 0 0 0 0 0 0 0 0 0 0 0 0 0.2 0"/>
        </filter>
        <path id="vbpv6tigub" d="M2.564 0H13.5C16.538 0 19 2.462 19 5.5v2.936c0 .892-.093 1.215-.267 1.54-.174.327-.43.583-.756.757-.326.174-.65.267-1.54.267H2.563c-.892 0-1.215-.093-1.54-.267-.327-.174-.583-.43-.757-.756C.093 9.65 0 9.327 0 8.437V2.563c0-.892.093-1.215.267-1.54.174-.327.43-.583.756-.757C1.35.093 1.673 0 2.563 0z"/>
        <path id="e2fr6hz4wd" d="M2.564 0h13.872c.892 0 1.215.093 1.54.267.327.174.583.43.757.756.174.326.267.65.267 1.54V5.5c0 3.038-2.462 5.5-5.5 5.5H2.564c-.892 0-1.215-.093-1.54-.267-.327-.174-.583-.43-.757-.756C.093 9.65 0 9.327 0 8.437V2.563c0-.892.093-1.215.267-1.54.174-.327.43-.583.756-.757C1.35.093 1.673 0 2.563 0z"/>
    </defs>
    <g fill="none" fill-rule="evenodd">
        <g>
            <g>
                <path d="M0 0h14.026c3.12 0 4.252.325 5.393.935 1.14.61 2.036 1.505 2.646 2.646.61 1.14.935 2.272.935 5.393v10.052c0 3.12-.325 4.252-.935 5.393-.61 1.14-1.505 2.036-2.646 2.646-1.14.61-2.272.935-5.393.935H0V0z" transform="translate(-3326 -966) translate(3326 966)"/>
                <g>
                    <path fill="#272B37" d="M0 0h13.95c2.451 0 3.34.255 4.236.735.897.479 1.6 1.182 2.08 2.079.479.896.734 1.785.734 4.237v9.898c0 2.452-.255 3.341-.735 4.237-.479.897-1.182 1.6-2.079 2.08-.896.479-1.785.734-4.237.734H0V0z" transform="translate(-3326 -966) translate(3326 966) translate(0 2)"/>
                    <g>
                        <g>
                            <g transform="translate(-3326 -966) translate(3326 966) translate(0 2) translate(2)">
                                <use fill="#000" filter="url(#flmhyv5uta)" xlink:href="#vbpv6tigub"/>
                                <use fill="#393E4F" xlink:href="#vbpv6tigub"/>
                            </g>
                            <path fill="#FFF" d="M10.045 3.448l3.169 3.728c.179.21.153.526-.057.705-.09.077-.205.119-.324.119H6.496c-.277 0-.5-.224-.5-.5 0-.119.042-.233.119-.324l3.168-3.728c.18-.21.495-.236.705-.057.02.018.04.037.057.057z" transform="translate(-3326 -966) translate(3326 966) translate(0 2) translate(2)"/>
                        </g>
                        <g>
                            <g transform="translate(-3326 -966) translate(3326 966) translate(0 2) translate(2) translate(0 13)">
                                <use fill="#000" filter="url(#7535alf5lc)" xlink:href="#e2fr6hz4wd"/>
                                <use fill="#1F222C" xlink:href="#e2fr6hz4wd"/>
                            </g>
                            <path fill="#FFF" fill-opacity=".5" d="M10.045 3.448l3.169 3.728c.179.21.153.526-.057.705-.09.077-.205.119-.324.119H6.496c-.277 0-.5-.224-.5-.5 0-.119.042-.233.119-.324l3.168-3.728c.18-.21.495-.236.705-.057.02.018.04.037.057.057z" transform="translate(-3326 -966) translate(3326 966) translate(0 2) translate(2) translate(0 13) rotate(-180 9.664 5.5)"/>
                        </g>
                    </g>
                </g>
            </g>
        </g>
    </g>
</svg>
