<svg xmlns="http://www.w3.org/2000/svg" xmlns:xlink="http://www.w3.org/1999/xlink" width="40" height="20" viewBox="0 0 40 20">
    <defs>
        <filter id="pvitbram4b" width="107.5%" height="115%" x="-3.8%" y="-7.5%" filterUnits="objectBoundingBox">
            <feGaussianBlur in="SourceAlpha" result="shadowBlurInner1" stdDeviation="1.5"/>
            <feOffset in="shadowBlurInner1" result="shadowOffsetInner1"/>
            <feComposite in="shadowOffsetInner1" in2="SourceAlpha" k2="-1" k3="1" operator="arithmetic" result="shadowInnerInner1"/>
            <feColorMatrix in="shadowInnerInner1" values="0 0 0 0 0 0 0 0 0 0 0 0 0 0 0 0 0 0 0.0794361888 0"/>
        </filter>
        <filter id="p2wh1oe3md" width="301.6%" height="301.6%" x="-100.8%" y="-75.8%" filterUnits="objectBoundingBox">
            <feMorphology in="SourceAlpha" operator="dilate" radius=".625" result="shadowSpreadOuter1"/>
            <feOffset dy="4" in="shadowSpreadOuter1" result="shadowOffsetOuter1"/>
            <feGaussianBlur in="shadowOffsetOuter1" result="shadowBlurOuter1" stdDeviation=".5"/>
            <feComposite in="shadowBlurOuter1" in2="SourceAlpha" operator="out" result="shadowBlurOuter1"/>
            <feColorMatrix in="shadowBlurOuter1" result="shadowMatrixOuter1" values="0 0 0 0 0 0 0 0 0 0 0 0 0 0 0 0 0 0 0.06 0"/>
            <feMorphology in="SourceAlpha" operator="dilate" radius=".625" result="shadowSpreadOuter2"/>
            <feOffset dy="4" in="shadowSpreadOuter2" result="shadowOffsetOuter2"/>
            <feGaussianBlur in="shadowOffsetOuter2" result="shadowBlurOuter2" stdDeviation="4.5"/>
            <feComposite in="shadowBlurOuter2" in2="SourceAlpha" operator="out" result="shadowBlurOuter2"/>
            <feColorMatrix in="shadowBlurOuter2" result="shadowMatrixOuter2" values="0 0 0 0 0 0 0 0 0 0 0 0 0 0 0 0 0 0 0.15 0"/>
            <feMerge>
                <feMergeNode in="shadowMatrixOuter1"/>
                <feMergeNode in="shadowMatrixOuter2"/>
            </feMerge>
        </filter>
        <path id="2g404yiaia" d="M6.41 0h27.18c2.23 0 3.037.232 3.852.668.815.436 1.454 1.075 1.89 1.89.436.815.668 1.623.668 3.852v7.18c0 2.23-.232 3.037-.668 3.852-.436.815-1.075 1.454-1.89 1.89-.815.436-1.623.668-3.852.668H6.41c-2.23 0-3.037-.232-3.852-.668-.815-.436-1.454-1.075-1.89-1.89C.232 16.627 0 15.82 0 13.59V6.41c0-2.23.232-3.037.668-3.852.436-.815 1.075-1.454 1.89-1.89C3.373.232 4.18 0 6.41 0z"/>
        <path id="lhbfsxy74e" d="M5.846 2h8.308c1.337 0 1.822.14 2.311.4.49.262.873.646 1.134 1.135.262.489.401.974.401 2.31v8.31c0 1.336-.14 1.821-.4 2.31-.262.49-.646.873-1.135 1.134-.489.262-.974.401-2.31.401h-8.31c-1.336 0-1.821-.14-2.31-.4-.49-.262-.873-.646-1.134-1.135-.262-.489-.401-.974-.401-2.31v-8.31c0-1.336.14-1.821.4-2.31.262-.49.646-.873 1.135-1.134.489-.262.974-.401 2.31-.401z"/>
    </defs>
    <g fill="none" fill-rule="evenodd">
        <g>
            <g transform="translate(-3371 -903) translate(3371 903)">
                <mask id="7eewjqmvpc" fill="#fff">
                    <use xlink:href="#2g404yiaia"/>
                </mask>
                <g>
                    <use fill="#1F222C" xlink:href="#2g404yiaia"/>
                    <use fill="#000" filter="url(#pvitbram4b)" xlink:href="#2g404yiaia"/>
                </g>
                <g mask="url(#7eewjqmvpc)">
                    <use fill="#000" filter="url(#p2wh1oe3md)" xlink:href="#lhbfsxy74e"/>
                    <path fill="#FFF" stroke="#000" stroke-opacity=".04" stroke-width=".625" d="M14.154 1.688c1.426 0 1.939.159 2.459.437.544.291.97.718 1.262 1.262.278.52.438 1.033.438 2.459h0v8.308c0 1.426-.16 1.939-.438 2.459-.291.544-.718.97-1.262 1.262-.52.278-1.033.438-2.459.438h0-8.308c-1.426 0-1.939-.16-2.459-.438-.544-.291-.97-.718-1.262-1.262-.278-.52-.438-1.033-.438-2.459h0V5.846c0-1.426.16-1.939.438-2.459.291-.544.718-.97 1.262-1.262.52-.278 1.033-.438 2.459-.438h0z"/>
                </g>
            </g>
        </g>
    </g>
</svg>
