<svg xmlns="http://www.w3.org/2000/svg" width="30" height="30" viewBox="0 0 30 30">
    <g fill="none" fill-rule="evenodd">
        <circle cx="15" cy="15" r="15" fill="#3A405B"/>
        <path fill="#FFF" d="M10.427 21.978c-2.772 0-4.95-1.728-4.95-5.994v-.648c0-4.482 2.393-6.12 4.986-6.12 2.646 0 4.932 1.674 4.932 6.066v.63c0 4.446-2.322 6.066-4.968 6.066zm0-1.908c1.566 0 2.322-1.134 2.322-4.014v-.774c0-2.862-.774-4.158-2.305-4.158-1.548 0-2.286 1.224-2.286 4.032v.774c0 2.79.703 4.14 2.269 4.14zm10.08 1.872c-1.423 0-2.737-.36-3.565-.828l.433-1.908c.701.36 1.53.684 2.448.684 1.637 0 2.628-.72 2.628-2.106 0-1.458-.883-2.07-2.52-2.07-.739 0-1.909.396-2.485.684l.468-6.984h6.552v1.926h-4.662l-.18 2.754c.343-.126 1.009-.216 1.44-.216 2.503 0 4.014 1.296 4.014 3.942 0 2.34-1.71 4.122-4.572 4.122z"/>
    </g>
</svg>
