<svg xmlns="http://www.w3.org/2000/svg" width="30" height="30" viewBox="0 0 30 30">
    <path fill="#FFF" fill-rule="evenodd" d="M15 0c8.284 0 15 6.716 15 15 0 8.284-6.716 15-15 15-8.284 0-15-6.716-15-15C0 6.716 6.716 0 15 0zM9.716 9.216c-2.592 0-4.986 1.638-4.986 6.12v.648c0 4.266 2.177 5.994 4.95 5.994 2.646 0 4.968-1.62 4.968-6.066v-.63c0-4.392-2.287-6.066-4.932-6.066zm11.322 0c-2.718 0-4.41 1.314-4.41 3.312 0 1.512.846 2.34 2.105 2.934-1.35.54-2.448 1.656-2.448 3.186 0 1.98 1.639 3.33 4.735 3.33 3.06 0 4.823-1.494 4.823-3.618 0-1.71-1.224-2.628-2.645-3.132 1.296-.576 2.16-1.602 2.16-2.898 0-1.962-1.602-3.114-4.32-3.114zm-.378 7.02c1.727.396 2.645 1.08 2.645 2.25 0 1.008-.881 1.71-2.357 1.71-1.477 0-2.34-.684-2.34-1.8 0-.99.99-1.8 2.052-2.16zM9.697 11.124c1.53 0 2.305 1.296 2.305 4.158v.774c0 2.88-.757 4.014-2.322 4.014-1.566 0-2.268-1.35-2.268-4.14v-.774c0-2.808.737-4.032 2.285-4.032zm11.377-.108c1.331 0 1.961.63 1.961 1.512 0 .918-.81 1.548-1.692 1.89-1.512-.342-2.195-.972-2.195-1.962 0-.882.72-1.44 1.925-1.44z"/>
</svg>
