<svg xmlns="http://www.w3.org/2000/svg" width="30" height="30" viewBox="0 0 30 30">
    <g fill="none" fill-rule="evenodd">
        <circle cx="15" cy="15" r="15" fill="#3A405B"/>
        <path fill="#FFF" d="M9.815 21.978c-2.772 0-4.95-1.728-4.95-5.994v-.648c0-4.482 2.393-6.12 4.986-6.12 2.645 0 4.931 1.674 4.931 6.066v.63c0 4.446-2.322 6.066-4.967 6.066zm0-1.908c1.566 0 2.322-1.134 2.322-4.014v-.774c0-2.862-.774-4.158-2.305-4.158-1.548 0-2.286 1.224-2.286 4.032v.774c0 2.79.702 4.14 2.269 4.14zM20.633 9.234c3.096 0 4.823 1.98 4.823 5.49v.846c0 4.986-2.447 6.408-5.453 6.408-1.242 0-2.448-.45-3.024-.792l.36-1.854c.504.27 1.674.63 2.52.63 1.71 0 2.97-.522 3.077-3.546-.611.504-1.602.99-2.843.99-2.178 0-3.672-1.44-3.672-3.816 0-2.502 1.35-4.356 4.212-4.356zm.072 1.818c-1.224 0-1.872.882-1.872 2.322 0 1.566.864 2.25 2.034 2.25.791 0 1.674-.522 2.052-1.044v-.288c0-1.962-.666-3.24-2.215-3.24z"/>
    </g>
</svg>
