<svg xmlns="http://www.w3.org/2000/svg" width="30" height="30" viewBox="0 0 30 30">
    <g fill="none" fill-rule="evenodd">
        <circle cx="15" cy="15" r="15" fill="#3A405B"/>
        <path fill="#FFF" d="M9.045 21.834v-9.918l-2.016.378V10.8l3.276-1.44h1.314v12.474H9.045zm9.99.144c-2.772 0-4.95-1.728-4.95-5.994v-.648c0-4.482 2.394-6.12 4.986-6.12 2.646 0 4.932 1.674 4.932 6.066v.63c0 4.446-2.322 6.066-4.968 6.066zm0-1.908c1.566 0 2.322-1.134 2.322-4.014v-.774c0-2.862-.774-4.158-2.304-4.158-1.548 0-2.286 1.224-2.286 4.032v.774c0 2.79.702 4.14 2.268 4.14z"/>
    </g>
</svg>
