<svg xmlns="http://www.w3.org/2000/svg" width="30" height="30" viewBox="0 0 30 30">
    <path fill="#FFF" fill-rule="evenodd" d="M15 0c8.284 0 15 6.716 15 15 0 8.284-6.716 15-15 15-8.284 0-15-6.716-15-15C0 6.716 6.716 0 15 0zm-4.6 9.216c-2.593 0-4.987 1.638-4.987 6.12v.648c0 4.266 2.178 5.994 4.95 5.994 2.646 0 4.969-1.62 4.969-6.066v-.63c0-4.392-2.287-6.066-4.933-6.066zm14.76.198h-8.137v1.962h5.364l-4.373 10.386h2.808L25.16 10.89V9.414zm-14.778 1.71c1.53 0 2.303 1.296 2.303 4.158v.774c0 2.88-.755 4.014-2.322 4.014-1.566 0-2.268-1.35-2.268-4.14v-.774c0-2.808.739-4.032 2.287-4.032z"/>
</svg>
