<svg xmlns="http://www.w3.org/2000/svg" width="30" height="30" viewBox="0 0 30 30">
    <path fill="#FFF" fill-rule="evenodd" d="M15 0c8.284 0 15 6.716 15 15 0 8.284-6.716 15-15 15-8.284 0-15-6.716-15-15C0 6.716 6.716 0 15 0zM9.85 9.216c-2.591 0-4.986 1.638-4.986 6.12v.648c0 4.266 2.179 5.994 4.95 5.994 2.646 0 4.969-1.62 4.969-6.066v-.63c0-4.392-2.287-6.066-4.932-6.066zm12.277.018c-3.006 0-5.563 1.638-5.563 6.408v.846c0 3.366 1.602 5.49 4.698 5.49 2.863 0 4.338-1.908 4.338-4.302 0-2.358-1.512-3.69-3.672-3.69-1.242 0-2.232.504-2.844 1.008.18-2.898 1.422-3.744 3.133-3.744.846 0 1.872.288 2.376.54l.431-1.872c-.54-.306-1.655-.684-2.898-.684zm-.99 6.516c1.17 0 2.052.576 2.052 2.124 0 1.458-.774 2.268-1.98 2.268-1.494 0-2.107-1.206-2.107-3.222v-.108c.396-.522 1.242-1.062 2.035-1.062zM9.832 11.124c1.53 0 2.304 1.296 2.304 4.158v.774c0 2.88-.755 4.014-2.321 4.014-1.566 0-2.268-1.35-2.268-4.14v-.774c0-2.808.737-4.032 2.285-4.032z"/>
</svg>
