<svg xmlns="http://www.w3.org/2000/svg" width="30" height="30" viewBox="0 0 30 30">
    <path fill="#FFF" fill-rule="evenodd" d="M15 0c8.284 0 15 6.716 15 15 0 8.284-6.716 15-15 15-8.284 0-15-6.716-15-15C0 6.716 6.716 0 15 0zM9.85 9.216c-2.591 0-4.986 1.638-4.986 6.12v.648c0 4.266 2.179 5.994 4.95 5.994 2.646 0 4.969-1.62 4.969-6.066v-.63c0-4.392-2.287-6.066-4.932-6.066zm10.783.018c-2.863 0-4.212 1.854-4.212 4.356 0 2.376 1.494 3.816 3.672 3.816 1.241 0 2.232-.486 2.843-.99-.108 3.024-1.367 3.546-3.078 3.546-.846 0-2.015-.36-2.52-.63l-.36 1.854c.576.342 1.782.792 3.024.792 3.007 0 5.454-1.422 5.454-6.408v-.846c0-3.51-1.727-5.49-4.823-5.49zm-10.8 1.89c1.53 0 2.303 1.296 2.303 4.158v.774c0 2.88-.755 4.014-2.321 4.014-1.566 0-2.268-1.35-2.268-4.14v-.774c0-2.808.737-4.032 2.285-4.032zm10.871-.072c1.549 0 2.215 1.278 2.215 3.24v.288c-.378.522-1.26 1.044-2.053 1.044-1.17 0-2.034-.684-2.034-2.25 0-1.44.648-2.322 1.872-2.322z"/>
</svg>
