<svg width="44" height="40" viewBox="0 0 44 40" fill="none" xmlns="http://www.w3.org/2000/svg">
<rect x="0.5" y="0.5" width="43" height="39" rx="9.5" stroke="#FF6F44"/>
<path fill-rule="evenodd" clip-rule="evenodd" d="M29.9055 13.84C29.3972 13.2167 28.7831 12.7567 28.0531 12.4525L28.0141 12.4363L27.936 12.4049L27.8577 12.3747L27.7788 12.3457L27.6991 12.3179L27.6181 12.2912L27.5355 12.2657L27.451 12.2415L27.3643 12.2183L27.3199 12.2072L27.2291 12.1859L27.1352 12.1657L27.0378 12.1467L26.9366 12.1288L26.8313 12.1122L26.7214 12.0967L26.6067 12.0823L26.4869 12.0691L26.3615 12.0571L26.2302 12.0462L26.0928 12.0365L25.9488 12.0279L25.7979 12.0205L25.5579 12.0115L25.3882 12.0069L25.2105 12.0035L25.0244 12.0013L24.8294 12.0001H19.1705L19.0719 12.0005L18.7894 12.0035L18.6117 12.0069L18.442 12.0115L18.202 12.0205L18.0511 12.0279L17.9071 12.0365L17.7697 12.0462L17.6384 12.0571L17.513 12.0691L17.3932 12.0823L17.2785 12.0967L17.1686 12.1122L17.0633 12.1288L16.9621 12.1467L16.8647 12.1657L16.7708 12.1859L16.725 12.1964L16.6356 12.2183L16.5489 12.2415L16.4644 12.2657L16.3818 12.2912L16.3008 12.3179L16.2211 12.3457L16.1422 12.3747L16.0639 12.4049L15.9468 12.4525C15.2168 12.7567 14.6027 13.2167 14.0944 13.84L14.0673 13.8734L14.014 13.9405L13.9616 14.0081L13.8848 14.1114L13.8346 14.1819L13.785 14.2543L13.7359 14.3287L13.6872 14.4055L13.6389 14.4852L13.6147 14.5261L13.5666 14.6106L13.5426 14.6541L13.4945 14.7441L13.4462 14.8382L13.3977 14.9368L13.3489 15.0401L13.2996 15.1486L13.2497 15.2626L13.1991 15.3823L13.1477 15.5083L13.0955 15.6407L13.0151 15.8521L12.9601 16.0022L12.9038 16.1599L12.8166 16.4116L12.726 16.6825L12.6634 16.8742L10.9862 22.1095L10.9709 22.1571C10.8171 22.6369 10.6622 23.1201 10.611 23.621C10.6043 23.6861 10.6003 23.7471 10.6003 23.8C10.6003 25.4568 11.8935 26.8 13.4887 26.8C14.5859 26.8 15.6409 26.3773 16.4346 25.6198L18.0899 24.04L18.1414 23.9914L18.1826 23.9543L18.216 23.9261L18.2306 23.9146L18.2575 23.8952L18.2835 23.8786C18.3318 23.8491 18.3804 23.8295 18.4351 23.8172L18.45 23.814L18.4808 23.8087L18.5158 23.8048L18.5361 23.8033L18.5843 23.8011L18.6459 23.8001L25.317 23.8L25.3866 23.8005L25.4411 23.802L25.4841 23.8048L25.5191 23.8087L25.5348 23.8112L25.5648 23.8172C25.6195 23.8295 25.6681 23.8491 25.7164 23.8786L25.7294 23.8867L25.7555 23.9044L25.7839 23.9261L25.8173 23.9543L25.8828 24.0141L27.5651 25.6198C28.3589 26.3773 29.4139 26.8 30.5112 26.8C30.8211 26.8 31.129 26.7482 31.423 26.6466C32.9367 26.1235 33.7555 24.425 33.2518 22.8529L31.3685 16.9736L31.305 16.7772L31.2131 16.4997L31.1539 16.3257L31.0961 16.1599L31.0398 16.0022L30.9848 15.8521L30.9044 15.6407L30.8522 15.5083L30.8008 15.3823L30.7502 15.2626L30.7003 15.1486L30.651 15.0401L30.6022 14.9368L30.5537 14.8382L30.5054 14.7441L30.4814 14.6986L30.4333 14.6106L30.4092 14.5679L30.361 14.4852L30.3127 14.4055L30.264 14.3287L30.2149 14.2543L30.1653 14.1819L30.1151 14.1114L30.0383 14.0081L29.9594 13.9069L29.9055 13.84ZM26.3999 15.6C25.7372 15.6 25.1999 16.1372 25.1999 16.8C25.1999 17.4627 25.7372 18 26.3999 18C27.0627 18 27.5999 17.4627 27.5999 16.8C27.5999 16.1372 27.0627 15.6 26.3999 15.6ZM18.1999 15.3C17.7581 15.3 17.3999 15.6582 17.3999 16.1V17.2H16.2999C15.8581 17.2 15.4999 17.5582 15.4999 18C15.4999 18.4418 15.8581 18.8 16.2999 18.8H17.3999V19.9C17.3999 20.3418 17.7581 20.7 18.1999 20.7C18.6418 20.7 18.9999 20.3418 18.9999 19.9V18.8H20.0999C20.5418 18.8 20.8999 18.4418 20.8999 18C20.8999 17.5582 20.5418 17.2 20.0999 17.2H18.9999V16.1C18.9999 15.6582 18.6418 15.3 18.1999 15.3ZM23.9999 18C23.3372 18 22.7999 18.5372 22.7999 19.2C22.7999 19.8627 23.3372 20.4 23.9999 20.4C24.6627 20.4 25.1999 19.8627 25.1999 19.2C25.1999 18.5372 24.6627 18 23.9999 18Z" fill="#FF6F44"/>
</svg>
