<svg xmlns="http://www.w3.org/2000/svg" width="33" height="33" viewBox="0 0 33 33">
    <g fill="none" fill-rule="evenodd">
        <g>
            <g>
                <path d="M0 0H33V33H0z" transform="translate(-149 -3077) translate(149 3077)"/>
                <g>
                    <path fill="#4390F6" stroke="#FFF" stroke-opacity=".2" stroke-width=".758" d="M16.26.379c2.931 0 4 .292 5.073.866 1.044.558 1.864 1.378 2.422 2.422.574 1.073.866 2.142.866 5.074h0v7.518c0 2.932-.292 4.001-.866 5.074-.558 1.044-1.378 1.864-2.422 2.422-1.073.574-2.142.866-5.074.866h0-7.518c-2.932 0-4.001-.292-5.074-.866-1.044-.558-1.864-1.378-2.422-2.422C.67 20.26.379 19.191.379 16.26h0V8.741c0-2.932.292-4.001.866-5.074.558-1.044 1.378-1.864 2.422-2.422C4.74.67 5.809.379 8.74.379h0z" transform="translate(-149 -3077) translate(149 3077) translate(4 4)"/>
                    <g fill="#FFF">
                        <path d="M5.51 2.486c.366 0 .657-.292.66-.66.003-.36-.295-.66-.66-.663-.365-.003-.664.298-.662.666.002.367.294.658.661.657zm-.614 1.435c.878 0 1.755 0 2.633.002.062 0 .078-.016.075-.076-.004-.124-.005-.248 0-.372.004-.064-.018-.074-.076-.074-1.088.002-2.176.002-3.264.002-.09 0-.18-.004-.27 0-.053.003-.067-.012-.067-.065 0-.55.001-1.1-.007-1.65-.004-.248.066-.467.207-.666.143-.203.332-.354.546-.477.347-.2.725-.315 1.116-.393.687-.138 1.382-.165 2.08-.147.429.011.856.043 1.276.134.336.073.67.159.983.31.332.161.635.354.853.658.19.266.285.56.275.89-.01.318-.003.635-.003.952v2.375c0 .31-.042.611-.166.897-.195.449-.537.743-.984.922-.309.125-.63.182-.964.182-1.216-.001-2.432-.003-3.648.001-.404.002-.792.087-1.14.304-.423.264-.67.656-.808 1.124-.072.243-.106.491-.105.745.002.571 0 1.143.002 1.714 0 .056-.015.069-.07.069-.413-.003-.827.003-1.24-.002-.404-.005-.751-.164-1.055-.419-.37-.31-.598-.715-.759-1.161C.173 9.303.094 8.892.05 8.474c-.04-.366-.055-.733-.047-1.1.012-.618.08-1.227.29-1.813.166-.46.409-.87.794-1.182.372-.3.798-.457 1.277-.46.844-.002 1.689 0 2.533 0v.002z" transform="translate(-149 -3077) translate(149 3077) translate(4 4) translate(5 4.924)"/>
                        <path d="M9.378 6.354c.366 0 .657-.291.66-.66.003-.36-.295-.66-.66-.662-.365-.003-.663.297-.662.665.002.367.295.658.662.657zM8.764 7.79l2.634.001c.061 0 .077-.016.075-.076-.005-.124-.006-.248 0-.371.003-.064-.019-.074-.077-.074-1.088.002-2.176.001-3.264.001-.09 0-.18-.003-.27.001-.053.003-.066-.012-.067-.065 0-.55.002-1.1-.007-1.65-.004-.249.067-.467.207-.667.144-.203.333-.354.546-.477.347-.2.726-.314 1.116-.393.687-.138 1.383-.165 2.08-.146.429.01.857.042 1.276.134.337.073.67.158.983.31.332.16.635.354.853.658.19.265.285.56.275.89-.01.317-.003.634-.003.952v2.375c0 .309-.042.61-.166.897-.195.448-.536.742-.983.922-.31.124-.631.182-.965.181-1.216-.001-2.432-.003-3.648.002-.404.001-.791.086-1.14.304-.423.264-.67.656-.808 1.124-.071.242-.106.49-.105.745.002.57 0 1.142.002 1.713 0 .056-.014.07-.07.07-.413-.003-.827.002-1.24-.003-.404-.005-.75-.163-1.055-.418-.37-.31-.597-.715-.758-1.162-.144-.396-.222-.807-.267-1.226-.04-.366-.055-.733-.048-1.1.013-.618.08-1.227.291-1.812.165-.46.408-.87.793-1.182.372-.3.799-.458 1.278-.46.844-.003 1.688 0 2.532 0v.002z" transform="translate(-149 -3077) translate(149 3077) translate(4 4) translate(5 4.924) rotate(-180 9.497 9.51)"/>
                    </g>
                </g>
            </g>
        </g>
    </g>
</svg>
