<svg xmlns="http://www.w3.org/2000/svg" width="33" height="33" viewBox="0 0 33 33">
    <g fill="none" fill-rule="evenodd">
        <g>
            <g>
                <g>
                    <path d="M0 0H33V33H0z" transform="translate(-149 -2867) translate(149 2867)"/>
                </g>
                <path fill="#ff6f44" fill-rule="nonzero" d="M25.41 4h.17l.159.003.15.005.14.005.133.008.125.009c.262.022.472.055.65.099l.082.02.038.012.076.023.072.025.07.027.067.028.033.015.065.03.032.016.064.032.032.017c.456.244.814.602 1.058 1.058l.033.064.016.032.031.065c.006.01.01.021.015.032l.03.067.013.034.027.07.025.071.023.076.011.038.021.081c.041.166.072.357.094.591l.01.121.008.129.004.067.005.141.005.15.002.16.001.168v4.391l-.003.159-.005.15-.005.14-.008.133-.009.125c-.022.262-.055.472-.099.65l-.02.082-.012.038-.023.076-.025.072-.027.07-.028.067-.015.033-.03.065-.016.032-.032.064-.017.032c-.244.456-.602.814-1.058 1.058l-.064.033-.032.016-.065.031c-.01.006-.021.01-.032.015l-.067.03-.034.013-.07.027-.071.025-.076.023-.038.011-.081.021c-.166.041-.357.072-.591.094l-.121.01-.129.008-.067.004-.141.005-.15.005-.16.002-.168.001H23.62l-.159-.003-.15-.005-.14-.005-.133-.008-.125-.009c-.262-.022-.472-.055-.65-.099l-.082-.02-.038-.012-.076-.023-.072-.025-.07-.027-.067-.028-.033-.015-.065-.03-.032-.016-.064-.032-.032-.017c-.456-.244-.814-.602-1.058-1.058l-.033-.064-.016-.032-.031-.065c-.006-.01-.01-.021-.015-.032l-.03-.067-.013-.034-.027-.07-.025-.071-.023-.076-.011-.038-.021-.081c-.041-.166-.072-.357-.094-.591l-.01-.121-.008-.129-.004-.067-.005-.141-.005-.15-.002-.16-.001-.168V7.504l.002-.164.001-.079.005-.15.005-.14.008-.133.009-.125c.022-.262.055-.472.099-.65l.02-.082.012-.038.023-.076.025-.072.027-.07.028-.067.015-.033.03-.065.016-.032.032-.064.017-.032c.244-.456.602-.814 1.058-1.058l.064-.033.032-.016.065-.031c.01-.006.021-.01.032-.015l.067-.03.034-.013.07-.027.071-.025.076-.023.038-.011.081-.021c.166-.041.357-.072.591-.094l.121-.01.129-.008.067-.004.141-.005.15-.005.16-.002.168-.001h1.622zm-1.758 2l-.129.002-.117.002-.105.002-.096.004-.086.005-.113.009-.065.007-.059.008-.053.01c-.008 0-.016.003-.024.004l-.046.011-.041.012-.039.014-.035.014-.035.016-.033.018c-.108.057-.18.13-.238.238l-.017.031-.015.033-.014.033-.013.036-.011.038-.006.02-.01.044-.01.048-.003.025-.008.056-.004.03-.009.1-.005.075-.006.129-.004.148-.002.172-.001.195v4.359l.002.129.002.117.002.105.004.096.005.086.009.113.007.065.008.059.01.053c0 .008.003.016.004.024l.011.046.012.041.014.039.014.035.016.035.018.033c.057.108.13.18.238.238l.031.017.033.015.033.014.036.013.038.011.02.006.044.01.048.01.025.003.056.008.03.004.1.009.075.005.129.006.148.004.172.002.195.001h1.755l.18-.002.155-.004.092-.003.084-.004.075-.005.068-.006.032-.003.086-.012.05-.008.023-.005.044-.01.04-.011.036-.013.035-.013.033-.015.032-.015.015-.009c.108-.057.18-.13.238-.238l.017-.031.015-.033.014-.033.013-.036.011-.038.006-.02.01-.044.01-.048.003-.025.008-.056.004-.03.009-.1.005-.075.006-.129.004-.148.002-.172.001-.195V7.456l-.002-.18-.004-.155-.003-.092-.004-.084-.005-.075-.006-.068-.003-.032-.012-.086-.008-.05-.005-.023-.01-.044-.011-.04-.013-.036-.013-.035-.015-.033-.015-.032-.009-.015c-.057-.108-.13-.18-.238-.238l-.031-.017-.033-.015-.033-.014-.036-.013-.038-.011-.02-.006-.044-.01-.048-.01-.025-.003-.056-.008-.03-.004-.1-.009-.075-.005-.129-.006-.148-.004-.172-.002h-1.954z" transform="translate(-149 -2867) translate(149 2867) matrix(-1 0 0 1 49.2 0)"/>
                <path fill="#ff6f44" fill-rule="nonzero" d="M14.41 4h.17l.159.003.15.005.14.005.133.008.125.009c.262.022.472.055.65.099l.082.02.038.012.076.023.072.025.07.027.067.028.033.015.065.03.032.016.064.032.032.017c.456.244.814.602 1.058 1.058l.033.064.016.032.031.065c.006.01.01.021.015.032l.03.067.013.034.027.07.025.071.023.076.011.038.021.081c.041.166.072.357.094.591l.01.121.008.129.004.067.005.141.005.15.002.16.001.168v4.391l-.003.159-.005.15-.005.14-.008.133-.009.125c-.022.262-.055.472-.099.65l-.02.082-.012.038-.023.076-.025.072-.027.07-.028.067-.015.033-.03.065-.016.032-.032.064-.017.032c-.244.456-.602.814-1.058 1.058l-.064.033-.032.016-.065.031c-.01.006-.021.01-.032.015l-.067.03-.034.013-.07.027-.071.025-.076.023-.038.011-.081.021c-.166.041-.357.072-.591.094l-.121.01-.129.008-.067.004-.141.005-.15.005-.16.002-.168.001H7.42l-.159-.003-.15-.005-.14-.005-.133-.008-.125-.009c-.262-.022-.472-.055-.65-.099l-.082-.02-.038-.012-.076-.023-.072-.025-.07-.027-.067-.028-.033-.015-.065-.03-.032-.016-.064-.032-.032-.017c-.456-.244-.814-.602-1.058-1.058l-.033-.064-.016-.032-.031-.065c-.006-.01-.01-.021-.015-.032l-.03-.067-.013-.034-.027-.07-.025-.071-.023-.076-.011-.038-.021-.081c-.041-.166-.072-.357-.094-.591l-.01-.121-.008-.129-.004-.067-.005-.141-.005-.15-.002-.16L4 11.812V7.504l.002-.164.001-.079.005-.15.005-.14.008-.133.009-.125c.022-.262.055-.472.099-.65l.02-.082.012-.038.023-.076.025-.072.027-.07.028-.067.015-.033.03-.065.016-.032.032-.064.017-.032c.244-.456.602-.814 1.058-1.058l.064-.033.032-.016.065-.031c.01-.006.021-.01.032-.015l.067-.03.034-.013.07-.027.071-.025.076-.023.038-.011.081-.021c.166-.041.357-.072.591-.094l.121-.01.129-.008.067-.004.141-.005.15-.005.16-.002L7.588 4h6.822zM7.453 6l-.129.002-.117.002-.105.002-.096.004-.086.005-.113.009-.065.007-.059.008-.053.01c-.008 0-.016.003-.024.004l-.046.011-.041.012-.039.014-.035.014-.035.016-.033.018c-.108.057-.18.13-.238.238l-.017.031-.015.033-.014.033-.013.036-.011.038-.006.02-.01.044-.01.048-.003.025-.008.056-.004.03-.009.1-.005.075-.006.129-.004.148-.002.172L6 7.589v4.359l.002.129.002.117.002.105.004.096.005.086.009.113.007.065.008.059.01.053c0 .008.003.016.004.024l.011.046.012.041.014.039.014.035.016.035.018.033c.057.108.13.18.238.238l.031.017.033.015.033.014.036.013.038.011.02.006.044.01.048.01.025.003.056.008.03.004.1.009.075.005.129.006.148.004.172.002.195.001h6.955l.18-.002.155-.004.092-.003.084-.004.075-.005.068-.006.032-.003.086-.012.05-.008.023-.005.044-.01.04-.011.036-.013.035-.013.033-.015.032-.015.015-.009c.108-.057.18-.13.238-.238l.017-.031.015-.033.014-.033.013-.036.011-.038.006-.02.01-.044.01-.048.003-.025.008-.056.004-.03.009-.1.005-.075.006-.129.004-.148.002-.172.001-.195V7.456l-.002-.18-.004-.155-.003-.092-.004-.084-.005-.075-.006-.068-.003-.032-.012-.086-.008-.05-.005-.023-.01-.044-.011-.04-.013-.036-.013-.035-.015-.033-.015-.032-.009-.015c-.057-.108-.13-.18-.238-.238l-.031-.017-.033-.015-.033-.014-.036-.013-.038-.011-.02-.006-.044-.01-.048-.01-.025-.003-.056-.008-.03-.004-.1-.009-.075-.005-.129-.006-.148-.004-.172-.002H7.452z" transform="translate(-149 -2867) translate(149 2867) matrix(-1 0 0 1 22 0)"/>
                <path fill="#ff6f44" fill-rule="nonzero" d="M25.41 17.6h.17l.159.003.15.005.14.005.133.008.125.009c.262.022.472.055.65.099l.082.02.038.012.076.023.072.025.07.027.067.028.033.015.065.03.032.016.064.032.032.017c.456.244.814.602 1.058 1.058l.033.064.016.032.031.065c.006.01.01.021.015.032l.03.067.013.034.027.07.025.071.023.076.011.038.021.081c.041.166.072.357.094.591l.01.121.008.129.004.067.005.141.005.15.002.16.001.168v4.391l-.003.159-.005.15-.005.14-.008.133-.009.125c-.022.262-.055.472-.099.65l-.02.082-.012.038-.023.076-.025.072-.027.07-.028.067-.015.033-.03.065-.016.032-.032.064-.017.032c-.244.456-.602.814-1.058 1.058l-.064.033-.032.016-.065.031c-.01.006-.021.01-.032.015l-.067.03-.034.013-.07.027-.071.025-.076.023-.038.011-.081.021c-.166.041-.357.072-.591.094l-.121.01-.129.008-.067.004-.141.005-.15.005-.16.002-.168.001H18.42l-.159-.003-.15-.005-.14-.005-.133-.008-.125-.009c-.262-.022-.472-.055-.65-.099l-.082-.02-.038-.012-.076-.023-.072-.025-.07-.027-.067-.028-.033-.015-.065-.03-.032-.016-.064-.032-.032-.017c-.456-.244-.814-.602-1.058-1.058l-.033-.064-.016-.032-.031-.065c-.006-.01-.01-.021-.015-.032l-.03-.067-.013-.034-.027-.07-.025-.071-.023-.076-.011-.038-.021-.081c-.041-.166-.072-.357-.094-.591l-.01-.121-.008-.129-.004-.067-.005-.141-.005-.15-.002-.16-.001-.168v-4.307l.002-.164.001-.079.005-.15.005-.14.008-.133.009-.125c.022-.262.055-.472.099-.65l.02-.082.012-.038.023-.076.025-.072.027-.07.028-.067.015-.033.03-.065.016-.032.032-.064.017-.032c.244-.456.602-.814 1.058-1.058l.064-.033.032-.016.065-.031c.01-.006.021-.01.032-.015l.067-.03.034-.013.07-.027.071-.025.076-.023.038-.011.081-.021c.166-.041.357-.072.591-.094l.121-.01.129-.008.067-.004.141-.005.15-.005.16-.002.168-.001h6.822zm-6.958 2l-.129.002-.117.002-.105.002-.096.004-.086.005-.113.009-.065.007-.059.008-.053.01c-.008 0-.016.003-.024.004l-.046.011-.041.012-.039.014-.035.014-.035.016-.033.018c-.108.057-.18.13-.238.238l-.017.031-.015.033-.014.033-.013.036-.011.038-.006.02-.01.044-.01.048-.003.025-.008.056-.004.03-.009.1-.005.075-.006.129-.004.148-.002.172-.001.195v4.359l.002.129.002.117.002.105.004.096.005.086.009.113.007.065.008.059.01.053c0 .008.003.016.004.024l.011.046.012.041.014.039.014.035.016.035.018.033c.057.108.13.18.238.238l.031.017.033.015.033.014.036.013.038.011.02.006.044.01.048.01.025.003.056.008.03.004.1.009.075.005.129.006.148.004.172.002.195.001h6.955l.18-.002.155-.004.092-.003.084-.004.075-.005.068-.006.032-.003.086-.012.05-.008.023-.005.044-.01.04-.011.036-.013.035-.013.033-.015.032-.015.015-.009c.108-.057.18-.13.238-.238l.017-.031.015-.033.014-.033.013-.036.011-.038.006-.02.01-.044.01-.048.003-.025.008-.056.004-.03.009-.1.005-.075.006-.129.004-.148.002-.172.001-.195v-4.355l-.002-.18-.004-.155-.003-.092-.004-.084-.005-.075-.006-.068-.003-.032-.012-.086-.008-.05-.005-.023-.01-.044-.011-.04-.013-.036-.013-.035-.015-.033-.015-.032-.009-.015c-.057-.108-.13-.18-.238-.238l-.031-.017-.033-.015-.033-.014-.036-.013-.038-.011-.02-.006-.044-.01-.048-.01-.025-.003-.056-.008-.03-.004-.1-.009-.075-.005-.129-.006-.148-.004-.172-.002h-7.154z" transform="translate(-149 -2867) translate(149 2867) matrix(-1 0 0 1 44 0)"/>
                <path fill="#ff6f44" fill-rule="nonzero" d="M9.21 17.6h.17l.159.003.15.005.14.005.133.008.125.009c.262.022.472.055.65.099l.082.02.038.012.076.023.072.025.07.027.067.028.033.015.065.03.032.016.064.032.032.017c.456.244.814.602 1.058 1.058l.033.064.016.032.031.065c.006.01.01.021.015.032l.03.067.013.034.027.07.025.071.023.076.011.038.021.081c.041.166.072.357.094.591l.01.121.008.129.004.067.005.141.005.15.002.16.001.168v4.391l-.003.159-.005.15-.005.14-.008.133-.009.125c-.022.262-.055.472-.099.65l-.02.082-.012.038-.023.076-.025.072-.027.07-.028.067-.015.033-.03.065-.016.032-.032.064-.017.032c-.244.456-.602.814-1.058 1.058l-.064.033-.032.016-.065.031c-.01.006-.021.01-.032.015l-.067.03-.034.013-.07.027-.071.025-.076.023-.038.011-.081.021c-.166.041-.357.072-.591.094l-.121.01-.129.008-.067.004-.141.005-.15.005-.16.002-.168.001H7.42l-.159-.003-.15-.005-.14-.005-.133-.008-.125-.009c-.262-.022-.472-.055-.65-.099l-.082-.02-.038-.012-.076-.023-.072-.025-.07-.027-.067-.028-.033-.015-.065-.03-.032-.016-.064-.032-.032-.017c-.456-.244-.814-.602-1.058-1.058l-.033-.064-.016-.032-.031-.065c-.006-.01-.01-.021-.015-.032l-.03-.067-.013-.034-.027-.07-.025-.071-.023-.076-.011-.038-.021-.081c-.041-.166-.072-.357-.094-.591l-.01-.121-.008-.129-.004-.067-.005-.141-.005-.15-.002-.16L4 25.412v-4.307l.002-.164.001-.079.005-.15.005-.14.008-.133.009-.125c.022-.262.055-.472.099-.65l.02-.082.012-.038.023-.076.025-.072.027-.07.028-.067.015-.033.03-.065.016-.032.032-.064.017-.032c.244-.456.602-.814 1.058-1.058l.064-.033.032-.016.065-.031c.01-.006.021-.01.032-.015l.067-.03.034-.013.07-.027.071-.025.076-.023.038-.011.081-.021c.166-.041.357-.072.591-.094l.121-.01.129-.008.067-.004.141-.005.15-.005.16-.002.168-.001h1.622zm-1.758 2l-.129.002-.117.002-.105.002-.096.004-.086.005-.113.009-.065.007-.059.008-.053.01c-.008 0-.016.003-.024.004l-.046.011-.041.012-.039.014-.035.014-.035.016-.033.018c-.108.057-.18.13-.238.238l-.017.031-.015.033-.014.033-.013.036-.011.038-.006.02-.01.044-.01.048-.003.025-.008.056-.004.03-.009.1-.005.075-.006.129-.004.148-.002.172-.001.195v4.359l.002.129.002.117.002.105.004.096.005.086.009.113.007.065.008.059.01.053c0 .008.003.016.004.024l.011.046.012.041.014.039.014.035.016.035.018.033c.057.108.13.18.238.238l.031.017.033.015.033.014.036.013.038.011.02.006.044.01.048.01.025.003.056.008.03.004.1.009.075.005.129.006.148.004.172.002.195.001h1.755l.18-.002.155-.004.092-.003.084-.004.075-.005.068-.006.032-.003.086-.012.05-.008.023-.005.044-.01.04-.011.036-.013.035-.013.033-.015.032-.015.015-.009c.108-.057.18-.13.238-.238l.017-.031.015-.033.014-.033.013-.036.011-.038.006-.02.01-.044.01-.048.003-.025.008-.056.004-.03.009-.1.005-.075.006-.129.004-.148.002-.172.001-.195v-4.355l-.002-.18-.004-.155-.003-.092-.004-.084-.005-.075-.006-.068-.003-.032-.012-.086-.008-.05-.005-.023-.01-.044-.011-.04-.013-.036-.013-.035-.015-.033-.015-.032-.009-.015c-.057-.108-.13-.18-.238-.238l-.031-.017-.033-.015-.033-.014-.036-.013-.038-.011-.02-.006-.044-.01-.048-.01-.025-.003-.056-.008-.03-.004-.1-.009-.075-.005-.129-.006-.148-.004-.172-.002H7.452z" transform="translate(-149 -2867) translate(149 2867) matrix(-1 0 0 1 16.8 0)"/>
            </g>
        </g>
    </g>
</svg>
