<svg xmlns="http://www.w3.org/2000/svg" width="34" height="34" viewBox="0 0 34 34">
    <g fill="none" fill-rule="evenodd">
        <g>
            <g>
                <g>
                    <path d="M0 0H34V34H0z" transform="translate(-215 -1596) translate(215 1596)"/>
                </g>
                <g fill="#FFF" fill-opacity=".5">
                    <path d="M11.8 2.626V2.57l-.003-.098c-.007-.184-.029-.291-.064-.38l-.019-.042-.02-.042c-.07-.13-.173-.232-.303-.302l-.042-.021-.043-.019c-.088-.035-.195-.057-.379-.064L10.83 1.6H7.17l-.098.003c-.184.007-.291.029-.38.064l-.042.019-.042.02c-.13.07-.232.173-.302.303l-.021.042-.019.043c-.035.088-.057.195-.064.379L6.2 2.57V3.2H4.6v-.287l.006-.225.005-.137.008-.129.009-.12c.011-.135.027-.253.046-.36l.017-.088.018-.083.02-.078.023-.074.024-.07.026-.068.027-.065.029-.064.03-.062.033-.062C5.13.837 5.437.53 5.828.32L5.89.288l.062-.03.064-.03.065-.026.067-.026.07-.024.075-.022.078-.02.083-.02.089-.016c.09-.017.19-.03.303-.041l.115-.01.061-.004.129-.008.137-.005L7.513 0h2.974l.225.005.137.005.129.008.12.009c.135.011.253.027.36.046l.088.017.083.018.078.02.074.023.07.024.068.026.065.027.064.029.062.03.062.033c.391.209.698.516.907.907l.033.062.03.062.03.064.026.065.026.067.024.07.022.075.02.078.02.083.016.089c.017.09.03.19.041.303l.01.115.004.061.008.129.005.137.005.225.001.164V3.2h3.674c.237 0 .386.037.517.107.13.07.232.172.302.302.07.13.107.28.107.517v.148c0 .237-.037.386-.107.517-.07.13-.172.232-.302.302-.13.07-.28.107-.517.107H.926C.69 5.2.54 5.163.41 5.093c-.13-.07-.232-.172-.302-.302C.037 4.66 0 4.51 0 4.274v-.148c0-.237.037-.386.107-.517.07-.13.172-.232.302-.302.13-.07.28-.107.517-.107H11.8v-.574zM15.583 6.4c.22 0 .4.18.4.4v.017l-.5 11.807c-.029.695-.11.945-.252 1.196-.144.25-.347.445-.604.578-.256.132-.509.202-1.205.202H4.378c-.696 0-.949-.07-1.205-.202-.257-.133-.46-.328-.604-.578-.143-.251-.223-.5-.252-1.196l-.5-11.807c-.009-.22.163-.407.383-.417h13.383zM9 7.8c-.331 0-.6.269-.6.6V18l.001.035c.018.315.28.565.599.565.331 0 .6-.269.6-.6V8.4l-.001-.035C9.581 8.05 9.319 7.8 9 7.8zm-3.425 0c-.331.014-.588.294-.574.625l.4 9.6.002.035c.031.314.303.553.622.54.331-.014.588-.294.574-.625l-.4-9.6-.002-.035c-.031-.314-.303-.553-.622-.54zm6.85 0c-.32-.013-.59.226-.622.54l-.002.035-.4 9.6.003.098c.035.286.273.514.571.526.32.014.59-.225.622-.539l.002-.035.4-9.6-.003-.098c-.035-.286-.273-.514-.571-.526z" transform="translate(-215 -1596) translate(215 1596) translate(8 6.2)"/>
                </g>
            </g>
        </g>
    </g>
</svg>
