<svg width="26" height="26" viewBox="0 0 26 26" fill="none" xmlns="http://www.w3.org/2000/svg">
<path d="M3.28154 3.4668C2.42639 3.4668 1.73315 4.16003 1.73315 5.01518V19.0785C1.73315 19.9336 2.42639 20.6269 3.28154 20.6269H14.0646C14.6254 20.6269 15.08 20.1723 15.08 19.6115C15.08 19.3232 14.9539 19.0518 14.755 18.8432C13.777 17.8171 13.1732 16.4331 13.1732 14.9069C13.1732 11.7528 15.7392 9.18682 18.8932 9.18682C20.4195 9.18682 21.8035 9.79066 22.8295 10.7686C23.0382 10.9675 23.3096 11.0936 23.5979 11.0936C24.1587 11.0936 24.6133 10.639 24.6133 10.0782V5.01518C24.6133 4.16003 23.92 3.4668 23.0649 3.4668H3.28154ZM7.45318 14.9069C7.45318 15.4333 7.0264 15.8601 6.49994 15.8601H5.54641C5.01995 15.8601 4.59317 15.4333 4.59317 14.9069C4.59317 14.3804 5.01995 13.9536 5.54641 13.9536H6.49994C7.0264 13.9536 7.45318 14.3804 7.45318 14.9069ZM11.2664 11.0935C11.2664 11.62 10.8396 12.0468 10.3131 12.0468H5.54655C5.02001 12.0468 4.59317 11.62 4.59317 11.0935C4.59317 10.5669 5.02001 10.1401 5.54655 10.1401H10.3131C10.8396 10.1401 11.2664 10.5669 11.2664 11.0935ZM13.1732 7.2802C13.1732 7.80674 12.7464 8.23358 12.2198 8.23358H5.54655C5.02001 8.23358 4.59317 7.80674 4.59317 7.2802C4.59317 6.75366 5.02001 6.32681 5.54655 6.32681H12.2198C12.7464 6.32681 13.1732 6.75366 13.1732 7.2802Z" fill="white"/>
<path d="M18.8933 11.0935C16.7884 11.0935 15.0801 12.8009 15.0801 14.9068C15.0801 16.3145 15.8517 17.5303 16.9866 18.1912V22.5333L18.8933 21.58L20.8001 22.5333V18.1912C21.935 17.53 22.7066 16.3142 22.7066 14.9068C22.7066 12.8009 20.9983 11.0935 18.8933 11.0935ZM18.8933 16.8135C17.8411 16.8135 16.9866 15.9607 16.9866 14.9068C16.9866 13.8528 17.8411 13 18.8933 13C19.9455 13 20.8001 13.8528 20.8001 14.9068C20.8001 15.9607 19.9455 16.8135 18.8933 16.8135Z" fill="white"/>
</svg>
