<svg xmlns="http://www.w3.org/2000/svg" width="20" height="20" viewBox="0 0 20 20">
    <g fill="none" fill-rule="evenodd">
        <g>
            <g>
                <path d="M0 0H20V20H0z" transform="translate(-1216 -384) translate(1216 384)"/>
                <path fill="#D0D0D0" fill-opacity=".3" d="M10.76 7.886l3.825 4.463c.36.42.31 1.05-.108 1.41-.182.156-.413.241-.651.241H6.174c-.552 0-1-.448-1-1 0-.239.086-.47.241-.65l3.826-4.464c.36-.42.99-.468 1.41-.109.039.034.075.07.108.109z" transform="translate(-1216 -384) translate(1216 384) matrix(1 0 0 -1 0 21)"/>
            </g>
        </g>
    </g>
</svg>
