<svg width="22" height="22" viewBox="0 0 22 22" fill="none" xmlns="http://www.w3.org/2000/svg">
<circle cx="11" cy="11" r="11" fill="#FFBA00"/>
<circle cx="11" cy="11" r="10.5" stroke="white" stroke-opacity="0.2"/>
<path fill-rule="evenodd" clip-rule="evenodd" d="M5.14863 5.74456C5 6.03626 5 6.41811 5 7.18182V14.8182C5 15.5819 5 15.9637 5.14863 16.2554C5.27936 16.512 5.48797 16.7206 5.74456 16.8514C6.03626 17 6.41811 17 7.18182 17H14.8182C15.5819 17 15.9637 17 16.2554 16.8514C16.512 16.7206 16.7206 16.512 16.8514 16.2554C17 15.9637 17 15.5819 17 14.8182V7.18182C17 6.41811 17 6.03626 16.8514 5.74456C16.7206 5.48797 16.512 5.27936 16.2554 5.14863C15.9637 5 15.5819 5 14.8182 5H7.18182C6.41811 5 6.03626 5 5.74456 5.14863C5.48797 5.27936 5.27936 5.48797 5.14863 5.74456ZM13.9061 15.9897C15.259 15.9897 16.0582 15.1748 16.0582 14.2174C16.0582 13.3629 15.6072 12.9199 14.8793 12.6271L14.1118 12.3027C13.6133 12.1128 13.194 11.9308 13.194 11.5352C13.194 11.1475 13.5263 10.9181 14.0406 10.9181C14.5232 10.9181 14.9109 11.0922 15.2828 11.4007L15.8762 10.6649C15.4015 10.1823 14.7368 9.91326 14.0406 9.91326C12.8617 9.91326 12.0151 10.6491 12.0151 11.6064C12.0151 12.461 12.6085 12.9278 13.2019 13.181L13.9852 13.5133L14.0856 13.5565C14.5588 13.7594 14.8634 13.89 14.8634 14.3045C14.8634 14.7159 14.539 14.977 13.9298 14.977C13.4155 14.977 12.8617 14.7159 12.4423 14.3282L11.7698 15.1352C12.3395 15.6812 13.1149 15.9897 13.9061 15.9897ZM9.30639 15.9899C10.5644 15.9899 11.1183 15.0879 11.1183 13.9881V10.0242H9.94727V13.8932C9.94727 14.7081 9.67826 14.9771 9.16397 14.9771C8.82375 14.9771 8.52309 14.811 8.29364 14.3679L7.48661 14.9613C7.89012 15.6576 8.45188 15.9899 9.30639 15.9899Z" fill="white"/>
</svg>
