<svg xmlns="http://www.w3.org/2000/svg" width="18" height="18" viewBox="0 0 18 18">
    <g fill="none" fill-rule="evenodd">
        <g fill="#FFF">
            <g>
                <g>
                    <path d="M11.428 2.964l.057.019.03.01.056.021c.124.05.249.12.404.24l.074.06c.05.041.104.088.162.141l.09.085.098.094.934.934c.15.15.353.234.565.234h1.25l.14.001.067.001.123.005.113.006c.323.022.513.071.68.147l.055.026.054.028c.26.139.465.344.604.604l.028.054.026.055c.071.158.12.336.143.628l.008.107.002.058.005.123.002.135v1.322c0 .211.084.415.234.565l.934.934.094.097.085.09c.053.059.1.113.142.163l.059.074c.11.143.179.26.228.375l.023.057.01.029.02.057.009.03c.085.282.085.572 0 .855l-.019.057-.01.03-.021.056c-.05.124-.12.249-.24.404l-.06.074c-.041.05-.088.104-.141.162l-.085.09-.094.098-.934.934c-.15.15-.234.353-.234.566v1.249l-.001.14-.001.067-.005.123-.006.113c-.022.323-.071.513-.147.68l-.026.055-.028.054c-.139.26-.344.465-.604.604l-.054.028-.055.026c-.158.071-.336.12-.628.143l-.107.008-.058.002-.123.005-.135.002h-1.321c-.213 0-.416.084-.566.234l-.934.934-.097.094-.09.085c-.059.053-.113.1-.163.142l-.074.059c-.143.11-.26.179-.375.228l-.057.023-.029.01-.057.02-.03.009c-.282.085-.572.085-.855 0l-.057-.019-.03-.01-.056-.021c-.124-.05-.249-.12-.404-.24l-.074-.06c-.05-.041-.104-.088-.162-.141l-.09-.085-.098-.094-.934-.934c-.15-.15-.354-.234-.566-.234h-1.32l-.136-.002-.123-.005-.113-.006c-.323-.022-.513-.071-.68-.147l-.055-.026-.054-.028c-.26-.139-.465-.344-.604-.604l-.028-.054-.026-.055c-.071-.158-.12-.336-.143-.628l-.008-.107-.002-.058-.005-.123-.002-.135v-1.322c0-.212-.084-.415-.234-.565l-.934-.934-.094-.097-.085-.09c-.053-.059-.1-.113-.142-.163l-.059-.074c-.11-.143-.179-.26-.228-.375l-.023-.057-.01-.029-.02-.057-.009-.03c-.085-.282-.085-.572 0-.855l.019-.057.01-.03.021-.056c.05-.124.12-.249.24-.404l.06-.074c.041-.05.088-.104.141-.162l.085-.09.094-.098.934-.934c.15-.15.234-.353.234-.565V6.78l.002-.135.005-.123.006-.113c.022-.323.071-.513.147-.68l.026-.055.028-.054c.139-.26.344-.465.604-.604l.054-.028.055-.026c.158-.071.336-.12.628-.143l.107-.008.058-.002.123-.005.135-.002h1.322c.212 0 .415-.084.565-.234l.934-.934.097-.094.09-.085c.059-.053.113-.1.163-.142l.074-.059c.143-.11.26-.179.375-.228l.057-.023.029-.01.057-.02.03-.009c.282-.085.572-.085.855 0zm2.824 4.977c-.365-.25-.862-.157-1.112.207l-2.913 4.243-1.22-1.414-.03-.032c-.293-.304-.776-.33-1.099-.05-.334.288-.371.793-.082 1.128l1.899 2.199.03.032c.347.362.946.318 1.235-.102l3.499-5.099.023-.035c.22-.36.122-.835-.23-1.077z" transform="translate(-386 -504) translate(382 500) translate(2 2)"/>
                </g>
            </g>
        </g>
    </g>
</svg>
