<svg xmlns="http://www.w3.org/2000/svg" width="28" height="28" viewBox="0 0 28 28">
    <g fill="none" fill-rule="evenodd">
        <g>
            <g>
                <g>
                    <g>
                        <g>
                            <path d="M0 0H28V28H0z" transform="translate(-1036 -582) translate(382 553) translate(646 23) translate(8 6)"/>
                        </g>
                        <path fill="#ff6f44" d="M16.83 6l.194.001.187.003.177.003.17.005.24.009.15.007.145.009.137.01.132.01.125.012.12.013.114.015.11.015.106.017.1.018.098.019.094.02.091.021.044.011.087.023.085.025.082.025.081.027.08.028.079.029.078.03.078.031.04.017c.73.304 1.343.764 1.852 1.387l.053.067.08.101.076.103.05.07.05.073.05.075.048.077.048.08.048.082.024.043.048.088.024.045.049.094.048.099.05.103.048.109.05.114.05.12.052.125.053.133.08.211.055.15.056.158.058.166.06.174.091.277.064.197 1.883 5.879c.504 1.572-.315 3.27-1.829 3.794-.294.101-.602.153-.912.153-1.097 0-2.152-.423-2.946-1.18l-1.682-1.606-.066-.06-.033-.028-.028-.022-.026-.017-.014-.008c-.048-.03-.096-.05-.151-.062l-.03-.006-.016-.002-.035-.004-.043-.003-.054-.001-.07-.001h-6.671l-.062.001-.048.002-.02.002-.035.004-.03.005-.016.003c-.055.012-.103.032-.151.062l-.026.016-.027.02-.015.011-.033.028-.041.037-.052.049-1.655 1.58c-.737.703-1.7 1.118-2.712 1.174l-.234.006c-1.595 0-2.889-1.343-2.889-3 0-.179.035-.428.103-.747l.045-.2 1.915-5.979.063-.191.09-.271.088-.252.056-.158.055-.15.08-.211.053-.133.051-.126.05-.12.05-.113.05-.109.049-.103.048-.099.049-.094.048-.09.024-.043.06-.105.06-.1.049-.077.049-.075.05-.072.05-.07.077-.104.052-.068.053-.067.027-.033c.509-.623 1.123-1.083 1.853-1.387l.117-.048.078-.03.08-.03.079-.027.08-.027.083-.025.085-.025.087-.023.09-.022.045-.01.094-.02.097-.02.101-.017.106-.017.11-.015.114-.015.12-.013.125-.012.132-.01.137-.01.144-.01.151-.006.24-.01.17-.004.177-.003.283-.003h5.758zM10.2 9.3c-.442 0-.8.358-.8.8v1.099l-1.1.001c-.442 0-.8.358-.8.8 0 .442.358.8.8.8l1.1-.001V13.9c0 .442.358.8.8.8.442 0 .8-.358.8-.8v-1.101l1.1.001c.442 0 .8-.358.8-.8 0-.442-.358-.8-.8-.8l-1.1-.001V10.1c0-.442-.358-.8-.8-.8zM16 12c-.663 0-1.2.537-1.2 1.2 0 .663.537 1.2 1.2 1.2.663 0 1.2-.537 1.2-1.2 0-.663-.537-1.2-1.2-1.2zm2.4-2.4c-.663 0-1.2.537-1.2 1.2 0 .663.537 1.2 1.2 1.2.663 0 1.2-.537 1.2-1.2 0-.663-.537-1.2-1.2-1.2z" transform="translate(-1036 -582) translate(382 553) translate(646 23) translate(8 6)"/>
                    </g>
                </g>
            </g>
        </g>
    </g>
</svg>
