<svg xmlns="http://www.w3.org/2000/svg" width="40" height="40" viewBox="0 0 40 40">
    <g fill="none" fill-rule="evenodd">
        <g>
            <g>
                <path d="M0 0H40V40H0z" transform="translate(-310 -2979) translate(310 2979)"/>
                <g>
                    <path fill="#4390F6" stroke="#FFF" stroke-opacity=".2" stroke-width="2" d="M14.101 1H25.9c4.62 0 6.31.446 8.002 1.351 1.616.864 2.884 2.132 3.748 3.748C38.554 7.792 39 9.48 39 14.1h0V25.9c0 4.62-.446 6.31-1.351 8.002-.864 1.616-2.132 2.884-3.748 3.748C32.208 38.554 30.52 39 25.9 39h0H14.1c-4.62 0-6.31-.446-8.002-1.351-1.616-.864-2.884-2.132-3.748-3.748C1.446 32.208 1 30.52 1 25.9h0V14.1c0-4.62.446-6.31 1.351-8.002.864-1.616 2.132-2.884 3.748-3.748C7.792 1.446 9.48 1 14.1 1h0z" transform="translate(-310 -2979) translate(310 2979)"/>
                    <g fill="#FFF">
                        <path d="M8.815 3.978c.586-.002 1.052-.467 1.057-1.056.005-.577-.473-1.056-1.056-1.06-.584-.006-1.062.475-1.06 1.064.003.588.471 1.053 1.059 1.052zm-.982 2.296c1.405 0 2.81 0 4.214.003.099 0 .124-.026.12-.122-.008-.198-.009-.397 0-.595.005-.102-.03-.118-.123-.118-1.74.003-3.481.002-5.222.002-.144 0-.289-.005-.433.002-.084.004-.106-.02-.106-.105 0-.88.002-1.76-.011-2.64-.006-.397.106-.747.331-1.066.23-.325.532-.567.873-.763.556-.32 1.161-.504 1.786-.63 1.1-.22 2.212-.263 3.329-.234.685.018 1.37.069 2.04.215.539.117 1.072.254 1.574.496.53.257 1.015.567 1.364 1.053.305.425.456.895.44 1.425-.015.507-.005 1.014-.005 1.522v3.8c0 .495-.067.978-.265 1.435-.312.718-.859 1.188-1.573 1.476-.495.198-1.01.29-1.544.29-1.945-.002-3.891-.005-5.836.002-.647.003-1.267.138-1.825.487-.676.422-1.07 1.049-1.292 1.798-.115.388-.17.785-.168 1.192.003.914 0 1.828.003 2.741 0 .09-.023.111-.111.11-.662-.003-1.324.005-1.986-.003-.646-.007-1.2-.261-1.688-.67-.591-.495-.955-1.143-1.213-1.857-.23-.635-.355-1.293-.427-1.962-.064-.585-.088-1.172-.076-1.76.02-.989.129-1.963.465-2.9.264-.736.653-1.392 1.27-1.89.594-.482 1.277-.734 2.043-.736 1.35-.005 2.701-.001 4.052-.001v.003z" transform="translate(-310 -2979) translate(310 2979) translate(8 7.879)"/>
                        <path d="M15.004 10.167c.586-.001 1.053-.467 1.057-1.056.005-.576-.472-1.055-1.056-1.06-.584-.005-1.062.475-1.059 1.064.003.588.471 1.054 1.058 1.052zm-.981 2.297c1.404 0 2.809-.001 4.213.002.1 0 .125-.025.12-.122-.007-.198-.008-.396.001-.594.005-.102-.03-.118-.123-.118-1.74.003-3.481.002-5.222.002-.144 0-.29-.006-.433.002-.084.004-.106-.02-.106-.105 0-.88.002-1.76-.012-2.641-.006-.397.106-.746.332-1.066.229-.324.532-.566.873-.763.555-.32 1.16-.503 1.785-.629 1.1-.22 2.213-.264 3.33-.234.685.018 1.369.068 2.04.214.539.117 1.071.254 1.573.497.531.257 1.016.566 1.365 1.052.305.425.455.896.44 1.425-.016.507-.005 1.015-.005 1.522v3.8c0 .495-.067.978-.266 1.436-.312.717-.858 1.188-1.573 1.475-.494.199-1.01.29-1.543.29-1.946-.002-3.891-.005-5.837.003-.647.002-1.267.138-1.825.486-.676.422-1.07 1.05-1.292 1.798-.115.388-.17.786-.168 1.192.003.914 0 1.828.004 2.742 0 .09-.024.11-.112.11-.662-.003-1.324.005-1.986-.003-.645-.008-1.2-.262-1.687-.67-.592-.495-.956-1.143-1.214-1.858-.229-.635-.354-1.292-.427-1.961-.063-.586-.087-1.173-.075-1.761.02-.988.128-1.963.465-2.9.264-.736.653-1.392 1.27-1.89.594-.482 1.276-.733 2.043-.736 1.35-.004 2.701 0 4.052 0v.003z" transform="translate(-310 -2979) translate(310 2979) translate(8 7.879) rotate(-180 15.195 15.215)"/>
                    </g>
                </g>
            </g>
        </g>
    </g>
</svg>
