<svg xmlns="http://www.w3.org/2000/svg" width="150" height="150" viewBox="0 0 150 150">
    <g fill="none" fill-rule="evenodd">
        <g>
            <g>
                <path d="M0 0H150V150H0z" transform="translate(-742 -328) translate(742 328)"/>
                <path fill="#FFF" fill-opacity=".2" fill-rule="nonzero" d="M108.335 8l.842.005.79.013.739.022.692.032.648.04.607.049.568.058c.183.02.36.042.532.066l.5.075c.482.079.92.171 1.325.276l.394.109.375.117.181.061.352.13.17.068.335.142.326.15.32.157.318.166c2.119 1.133 3.782 2.796 4.915 4.915l.166.318.158.32.15.326.141.334.068.171.13.352.061.18.117.376.11.394c.104.405.196.843.275 1.326l.075.499c.024.171.046.349.066.532l.058.568.049.607.04.648.032.692.022.74.013.79.005.841v16.212l-4.001 4.001V24.26l-.007-.766-.014-.71-.022-.657-.03-.608-.039-.563-.022-.265-.051-.502c-.14-1.209-.367-2.08-.703-2.874L119.97 17l-.075-.155-.159-.31c-.76-1.42-1.851-2.512-3.273-3.272l-.309-.16-.311-.146c-.837-.375-1.743-.622-3.032-.772l-.502-.051-.541-.043-.586-.034-.632-.026-1.044-.024-.766-.007H41.26l-1.16.014-.702.019-.647.027-.597.037-.552.045c-1.592.15-2.623.429-3.587.88l-.319.157-.16.084c-1.42.76-2.512 1.851-3.272 3.273l-.16.309-.146.311c-.375.837-.622 1.743-.772 3.032l-.051.502-.043.541-.034.586-.026.632-.024 1.044-.007.766v102.48l.014 1.16.019.702.027.647.037.597.045.552c.15 1.592.429 2.623.88 3.587l.157.319.084.16c.76 1.42 1.851 2.512 3.273 3.272l.309.16.311.146c.837.375 1.743.622 3.032.772l.502.051.541.043.586.034.632.026 1.044.024.766.007h67.48l.766-.007.71-.014.657-.022.608-.03.563-.039.265-.022.502-.051c1.209-.14 2.08-.367 2.874-.703l.314-.141.155-.075.31-.159c1.42-.76 2.512-1.851 3.272-3.273l.16-.309.146-.311c.375-.837.622-1.743.772-3.032l.051-.502.043-.541.034-.586.026-.632.024-1.044.007-.766V73.12L125 69.119v57.216l-.005.842-.013.79-.022.739-.032.692-.04.648-.049.607-.058.568c-.02.183-.042.36-.066.532l-.075.5c-.079.482-.171.92-.276 1.325l-.109.394-.117.375-.061.181-.13.352-.068.17-.142.335-.15.326-.157.32-.166.318c-1.133 2.119-2.796 3.782-4.915 4.915l-.318.166-.32.158-.326.15-.334.141-.171.068-.352.13-.18.061-.376.117-.394.11c-.405.104-.843.196-1.326.275l-.499.075c-.171.024-.349.046-.532.066l-.568.058-.607.049-.648.04-.692.032-.74.022-.79.013-.841.005h-66.67l-.842-.005-.79-.013-.739-.022-.692-.032-.648-.04-.607-.049-.568-.058c-.183-.02-.36-.042-.532-.066l-.5-.075c-.482-.079-.92-.171-1.325-.276l-.394-.109-.375-.117-.181-.061-.352-.13-.17-.068-.335-.142-.326-.15-.32-.157-.318-.166c-2.119-1.133-3.782-2.796-4.915-4.915l-.166-.318-.158-.32-.15-.326-.141-.334-.068-.171-.13-.352-.061-.18-.117-.376-.11-.394c-.104-.405-.196-.843-.275-1.326l-.075-.499c-.024-.171-.046-.349-.066-.532l-.058-.568-.049-.607-.04-.648-.032-.692-.022-.74-.013-.79-.005-.841V24.665c0-.29.002-.57.005-.842l.013-.79.022-.739.032-.692.04-.648.049-.607.058-.568c.02-.183.042-.36.066-.532l.075-.5c.079-.482.171-.92.276-1.325l.109-.394.117-.375.061-.181.13-.352.068-.17.142-.335.15-.326.157-.32.166-.318c1.133-2.119 2.796-3.782 4.915-4.915l.318-.166.32-.158.326-.15.334-.141.171-.068.352-.13.18-.061.376-.117.394-.11c.405-.104.843-.196 1.326-.275l.499-.075c.171-.024.349-.046.532-.066l.568-.058.607-.049.648-.04.692-.032.74-.022.79-.013.841-.005h66.67zm-3.938 21.001c2.901.024 4.404.336 5.965 1.17 1.49.797 2.67 1.978 3.467 3.467.761 1.424 1.088 2.8 1.157 5.236l.008.374.006.726-.001 10.904-4 4L111 39.974l-.004-.604-.012-.542-.02-.486-.03-.437c-.092-1.104-.288-1.736-.633-2.38-.423-.793-1.033-1.403-1.825-1.826-.591-.316-1.172-.507-2.114-.608l-.267-.025-.437-.03-.486-.02-.264-.007-.572-.008-58.827.001-.716.015-.259.01-.587.036-.108.009-.402.043c-.826.106-1.365.29-1.913.584-.792.423-1.402 1.033-1.825 1.825-.316.591-.507 1.172-.608 2.114l-.025.267-.03.437-.02.486-.007.264-.008.572L39 105.999l14.821.003c2.027.021 3.177.241 4.317.81l.2.104c1.18.63 2.116 1.567 2.746 2.745.646 1.209.891 2.372.914 4.518L62 129h42.026l.604-.004.542-.012.486-.02.437-.03c1.104-.092 1.736-.288 2.38-.633.793-.423 1.403-1.033 1.826-1.825.316-.591.507-1.172.608-2.114l.025-.267.03-.437.02-.486.007-.264.008-.572V83.121l4-4 .001 42.905-.006.726c-.046 2.672-.365 4.114-1.165 5.61-.797 1.49-1.978 2.67-3.467 3.467-1.424.761-2.8 1.088-5.236 1.157l-.374.008-.726.006H62.728c-2.387 0-4.676-.948-6.364-2.636l-18.728-18.728C35.948 109.948 35 107.66 35 105.272l.001-65.669c.023-2.775.31-4.271 1.064-5.762l.106-.203c.797-1.49 1.978-2.67 3.467-3.467 1.56-.834 3.064-1.146 5.965-1.17h58.794zm-50.741 81L41.829 110 58 126.171v-11.645l-.004-.52-.005-.234-.017-.42c-.05-.909-.176-1.353-.418-1.805-.257-.48-.622-.846-1.103-1.103-.448-.24-.886-.366-1.775-.417l-.232-.01-.451-.013-.34-.004zm73.506-61.386l4.222 4.222-42.778 42.779c-1.027 1.027-2.199 1.899-3.478 2.587l-5.028 2.708c-.363.195-.815.06-1.01-.304-.12-.22-.12-.486 0-.707l2.707-5.028c.688-1.28 1.56-2.45 2.587-3.478l42.778-42.78zM80.878 85l-1.444 1.444-.405.417c-.64.675-1.236 1.39-1.784 2.138L55 89c-1.105 0-2-.895-2-2 0-1.054.816-1.918 1.85-1.995L55 85h25.878zm14-14l-4 4H55c-1.105 0-2-.895-2-2 0-1.054.816-1.918 1.85-1.995L55 71h39.878zM95 57c1.105 0 2 .895 2 2 0 1.054-.816 1.918-1.85 1.995L95 61H55c-1.105 0-2-.895-2-2 0-1.054.816-1.918 1.85-1.995L55 57h40zm41.138-15.92c.323.098.602.249 1.094.72l.83.828c.581.581.751.882.858 1.234.107.352.107.712 0 1.064-.098.322-.249.602-.72 1.094l-4.002 4.002-4.222-4.222 3.865-3.862c.58-.581.881-.751 1.233-.858.352-.107.712-.107 1.064 0zM95 43c1.105 0 2 .895 2 2 0 1.054-.816 1.918-1.85 1.995L95 47H55c-1.105 0-2-.895-2-2 0-1.054.816-1.918 1.85-1.995L55 43h40zm-8.5-24c1.38 0 2.5 1.12 2.5 2.5S87.88 24 86.5 24h-23c-1.38 0-2.5-1.12-2.5-2.5s1.12-2.5 2.5-2.5h23z" transform="translate(-742 -328) translate(742 328)"/>
            </g>
        </g>
    </g>
</svg>
