<svg xmlns="http://www.w3.org/2000/svg" width="52" height="23" viewBox="0 0 52 23">
    <defs>
        <linearGradient id="72sbf4s4pa" x1="50%" x2="50%" y1="0%" y2="100%">
            <stop offset="0%" stop-color="#FECA35"/>
            <stop offset="100%" stop-color="#FFBD00"/>
        </linearGradient>
    </defs>
    <g fill="none" fill-rule="evenodd" stroke-opacity=".2">
        <g fill="url(#72sbf4s4pa)" stroke="#FFF" transform="translate(-382 -999)">
            <g>
                <path d="M11.51.582c.366-.125.78-.111 1.154.072.301.147.544.39.692.691h0l2.721 5.551 6.126.87c.413.06.762.28.994.588.232.309.346.706.288 1.118-.047.33-.204.637-.444.87h0l-4.444 4.301 1.064 6.09c.072.41-.03.81-.252 1.126-.222.315-.564.546-.975.618-.33.058-.67.004-.967-.153h0L12 19.432l-5.468 2.892c-.368.195-.781.222-1.15.109-.37-.114-.696-.368-.89-.736-.157-.295-.211-.635-.154-.964h0l1.064-6.09L.96 10.342c-.3-.29-.453-.673-.459-1.059-.006-.386.135-.774.425-1.073.234-.24.54-.396.872-.443h0l6.125-.871 2.722-5.55c.183-.375.501-.64.867-.764zM39.51.582c.366-.125.78-.111 1.154.072.301.147.544.39.692.691h0l2.721 5.551 6.126.87c.413.06.762.28.994.588.232.309.346.706.288 1.118-.047.33-.204.637-.444.87h0l-4.444 4.301 1.064 6.09c.072.41-.03.81-.252 1.126-.222.315-.564.546-.975.618-.33.058-.67.004-.967-.153h0L40 19.432l-5.468 2.892c-.368.195-.781.222-1.15.109-.37-.114-.696-.368-.89-.736-.157-.295-.211-.635-.154-.964h0l1.064-6.09-4.443-4.301c-.3-.29-.453-.673-.459-1.059-.006-.386.135-.774.425-1.073.234-.24.54-.396.872-.443h0l6.125-.871 2.722-5.55c.183-.375.501-.64.867-.764z" transform="translate(382 999)"/>
            </g>
        </g>
    </g>
</svg>
