<svg xmlns="http://www.w3.org/2000/svg" width="16" height="16" viewBox="0 0 16 16">
    <g fill="none" fill-rule="evenodd">
        <g>
            <g>
                <g>
                    <g>
                        <path d="M0 0H14.667V14.667H0z" transform="translate(-484 -602) translate(382 553) translate(100 47) translate(2.667 2.667)"/>
                        <path fill="#FFF" fill-rule="nonzero" stroke="#FFF" stroke-width=".667" d="M10.46 3.169c.275-.425.842-.547 1.267-.272.404.261.534.787.31 1.203L12 4.165l-5.042 7.791c-.318.492-1.002.559-1.41.158l-.052-.055-2.98-3.438c-.33-.382-.29-.961.093-1.293.363-.315.904-.293 1.242.038l.051.054 2.18 2.515L10.46 3.17z" transform="translate(-484 -602) translate(382 553) translate(100 47) translate(2.667 2.667)"/>
                    </g>
                </g>
            </g>
        </g>
    </g>
</svg>
