<svg xmlns="http://www.w3.org/2000/svg" xmlns:xlink="http://www.w3.org/1999/xlink" width="175" height="175" viewBox="0 0 175 175">
    <defs>
        <path id="lxi1p5xita" d="M0 0.253L96.359 0.253 96.359 61.066 0 61.066z"/>
        <path id="h617vapa5d" d="M73.349 18.91c.007-2.686-2.02-4.786-4.674-4.841-2.775-.059-4.985 2.178-4.905 4.965.077 2.683 2.153 4.664 4.86 4.636 2.711-.027 4.712-2.045 4.719-4.76m-9.854 10.183c.143-2.76-1.68-4.885-4.363-5.09-2.796-.213-5.12 1.863-5.205 4.647-.079 2.622 1.963 4.827 4.595 4.961 2.636.136 4.835-1.862 4.973-4.518M29.89 21.097c-2.368.116-4.281.185-6.19.31-1.303.087-2.286.89-2.283 2.105.003.993.484 2.197 1.168 2.908.508.529 1.674.506 2.559.572 1.526.113 3.06.104 4.753.15 0 2.082-.08 3.674.02 5.254.128 2 .977 2.878 2.6 2.947 1.753.075 2.727-.884 2.855-3.032.098-1.662.02-3.333.02-5.297 1.695 0 2.923.02 4.15-.004 3.04-.061 4.169-.803 4.251-2.76.088-2.099-1.047-2.88-4.367-2.962-1.22-.03-2.443-.005-4.038-.005 0-2.09.08-3.776-.021-5.45-.116-1.91-1.087-2.927-2.61-2.984-1.67-.064-2.727 1.015-2.849 3.1-.092 1.578-.018 3.166-.018 5.148M96.357 47.01c.093 6.584-2.375 10.88-7.158 12.92-5.262 2.246-11.414 1.12-15.445-3.045-2.215-2.288-4.24-4.773-6.22-7.272-1.326-1.672-2.899-2.335-5.016-2.321-9.574.063-19.15.066-28.723-.003-2.13-.015-3.69.691-5.002 2.352-1.835 2.324-3.757 4.585-5.735 6.79-3.293 3.67-7.449 5.123-12.314 4.426C4.2 59.92-.02 55.448 0 48.804c.01-3.594.624-7.28 1.572-10.759 2.52-9.248 6.216-18.067 10.276-26.751 2.392-5.115 6.239-7.897 11.696-8.86C39.98-.47 56.403-.478 72.84 2.431c5.314.94 9.206 3.561 11.527 8.569 4.7 10.141 9.125 20.37 11.45 31.373.165.78.314 1.566.4 2.356.096.906.113 1.82.14 2.281"/>
        <filter id="wpp9miye1c" width="116.6%" height="126.3%" x="-8.3%" y="-11.5%" filterUnits="objectBoundingBox">
            <feOffset dy="1" in="SourceAlpha" result="shadowOffsetOuter1"/>
            <feGaussianBlur in="shadowOffsetOuter1" result="shadowBlurOuter1" stdDeviation="2.5"/>
            <feColorMatrix in="shadowBlurOuter1" values="0 0 0 0 0 0 0 0 0 0 0 0 0 0 0 0 0 0 0.0986396416 0"/>
        </filter>
    </defs>
    <g fill="none" fill-rule="evenodd">
        <g>
            <g>
                <path fill="#FEBD03" stroke="#FFF" stroke-opacity=".05" stroke-width="5" d="M40.639 16.5h94.199c7.848.03 10.8.798 13.751 2.376 2.818 1.506 5.029 3.717 6.535 6.535 1.61 3.01 2.376 6.02 2.376 14.228h0v93.722c0 8.207-.766 11.219-2.376 14.228-1.506 2.818-3.717 5.029-6.535 6.535-3.01 1.61-6.02 2.376-14.228 2.376h0H40.64c-8.207 0-11.219-.766-14.228-2.376-2.818-1.506-5.029-3.717-6.535-6.535-1.577-2.948-2.344-5.897-2.375-13.738h0V39.162c.03-7.848.797-10.8 2.375-13.751 1.506-2.818 3.717-5.029 6.535-6.535 3.01-1.61 6.02-2.376 14.228-2.376h0z" transform="translate(-152 -835) translate(152 835)"/>
                <g>
                    <g transform="translate(-152 -835) translate(152 835) translate(27 26) translate(12 28)">
                        <mask id="sbhdg8r1eb" fill="#fff">
                            <use xlink:href="#lxi1p5xita"/>
                        </mask>
                        <g mask="url(#sbhdg8r1eb)">
                            <use fill="#000" filter="url(#wpp9miye1c)" xlink:href="#h617vapa5d"/>
                            <use fill="#FFF" xlink:href="#h617vapa5d"/>
                        </g>
                    </g>
                    <path d="M0 0H121V121H0z" transform="translate(-152 -835) translate(152 835) translate(27 26)"/>
                </g>
                <path d="M0 0H175V175H0z" transform="translate(-152 -835) translate(152 835)"/>
            </g>
        </g>
    </g>
</svg>
