<svg xmlns="http://www.w3.org/2000/svg" xmlns:xlink="http://www.w3.org/1999/xlink" width="175" height="175" viewBox="0 0 175 175">
    <defs>
        <filter id="h3of75nbra" width="124%" height="126%" x="-12%" y="-11.4%" filterUnits="objectBoundingBox">
            <feOffset dy="1" in="SourceAlpha" result="shadowOffsetOuter1"/>
            <feGaussianBlur in="shadowOffsetOuter1" result="shadowBlurOuter1" stdDeviation="2.5"/>
            <feColorMatrix in="shadowBlurOuter1" values="0 0 0 0 0 0 0 0 0 0 0 0 0 0 0 0 0 0 0.0986396416 0"/>
        </filter>
        <path id="5u11do6k2b" d="M60.294 38.795c.529-.717.918-1.233 1.294-1.759 7.449-10.419 20.797-8.048 26.917-.782 4.303 5.108 5.664 11.059 4.806 17.575-.86 6.524-3.881 12.1-7.864 17.19-6.26 7.999-14.152 14.139-22.617 19.608-1.569 1.014-3.141 1.25-4.791.185-10.517-6.787-20.266-14.4-26.727-25.43-3.96-6.757-5.493-14.002-3.325-21.668 2.768-9.79 12.153-15.412 21.627-13.193 3.847.9 6.754 3.157 9.106 6.234.472.618.95 1.232 1.574 2.04"/>
    </defs>
    <g fill="none" fill-rule="evenodd">
        <g>
            <g>
                <path fill="#FF4672" stroke="#FFF" stroke-opacity=".05" stroke-width="5" d="M134.838 17.5c7.848.03 10.8.798 13.751 2.376 2.818 1.506 5.029 3.717 6.535 6.535 1.61 3.01 2.376 6.02 2.376 14.228h0v93.722c0 8.207-.766 11.219-2.376 14.228-1.506 2.818-3.717 5.029-6.535 6.535-3.01 1.61-6.02 2.376-14.228 2.376h0H40.64c-8.207 0-11.219-.766-14.228-2.376-2.818-1.506-5.029-3.717-6.535-6.535-1.577-2.948-2.344-5.897-2.375-13.738h0V40.162c.03-7.848.797-10.8 2.375-13.751 1.506-2.818 3.717-5.029 6.535-6.535 3.01-1.61 6.02-2.376 14.228-2.376z" transform="translate(-842 -1133) translate(842 1133)"/>
                <g>
                    <g transform="translate(-842 -1133) translate(842 1133) translate(27 27)">
                        <use fill="#000" filter="url(#h3of75nbra)" xlink:href="#5u11do6k2b"/>
                        <use fill="#FFF" xlink:href="#5u11do6k2b"/>
                    </g>
                    <path d="M0 0H121V121H0z" transform="translate(-842 -1133) translate(842 1133) translate(27 27)"/>
                </g>
                <path d="M0 0H175V175H0z" transform="translate(-842 -1133) translate(842 1133)"/>
            </g>
        </g>
    </g>
</svg>
