<?xml version="1.0" encoding="UTF-8"?>
<svg width="40px" height="40px" viewBox="0 0 40 40" version="1.1" xmlns="http://www.w3.org/2000/svg" xmlns:xlink="http://www.w3.org/1999/xlink">
    <title>6</title>
    <g id="Page-1" stroke="none" stroke-width="1" fill="none" fill-rule="evenodd">
        <g id="Artboard" transform="translate(-149.000000, -212.000000)">
            <g id="6" transform="translate(149.000000, 212.000000)">
                <rect id="Rectangle" x="0" y="0" width="40" height="40"></rect>
                <path d="M23.0835296,10 C23.5328679,10 23.7466885,10.0244002 23.9842347,10.1008056 C24.2119793,10.1740584 24.4119329,10.2887329 24.5871955,10.4472109 C24.7491772,10.59368 24.8647263,10.7441255 25.028675,11.0310837 L25.863362,12.5100889 L25.898,12.571 L28.9525989,12.5714286 C29.8486575,12.5714286 30.2808032,12.6562856 30.7297626,12.9004365 C31.1370793,13.1219415 31.4591748,13.4494631 31.6768827,13.8633991 C31.8982379,14.2842698 31.9862562,14.6904592 31.9984877,15.4665752 L32,24.902895 C32,25.8133731 31.9166841,26.2520862 31.6768827,26.7080295 C31.4591748,27.1219655 31.1370793,27.4494871 30.7297626,27.670992 C30.3153385,27.8963622 29.915241,27.9860025 29.1513653,27.9984598 L28.9525989,28 L13.0474011,28 C12.1513425,28 11.7191968,27.915143 11.2702374,27.670992 C10.8629207,27.4494871 10.5408252,27.1219655 10.3231173,26.7080295 C10.1017621,26.2871588 10.0137438,25.8809694 10.0015123,25.1048534 L10,24.902895 L10,15.6685336 C10,14.7580554 10.0833159,14.3193424 10.3231173,13.8633991 C10.5408252,13.4494631 10.8629207,13.1219415 11.2702374,12.9004365 C11.6846615,12.6750664 12.084759,12.5854261 12.8486347,12.5729688 L16.083,12.571 L16.1141621,12.5080121 L16.8950144,11.1537938 C17.105314,10.7768286 17.2301208,10.6063444 17.4148254,10.4411212 C17.5898321,10.284573 17.7888879,10.1714518 18.0153655,10.0992524 C18.2219289,10.0334015 18.4103116,10.0067996 18.7534772,10.001178 L23.0835296,10 Z M23.2116651,10.8578867 L18.7830576,10.8578753 L18.5828944,10.8642509 C18.4417869,10.8725788 18.3570209,10.8889217 18.2693733,10.9168631 C18.1551164,10.9532873 18.0604868,11.0070643 17.9749107,11.0836144 C17.8975974,11.1527732 17.8376526,11.2255444 17.7403949,11.3868418 L16.8594615,12.9126297 L16.8501595,12.9341612 C16.8789065,13.1444165 16.7689685,13.3763301 16.5203455,13.4209289 L16.4315516,13.4285714 L12.8782875,13.4296392 L12.5847053,13.438595 C12.1406579,13.4615591 11.9083955,13.5262444 11.6704631,13.6556356 C11.4105617,13.796974 11.2090205,14.0019103 11.0698963,14.2664323 C10.9424143,14.5088186 10.8786665,14.7455181 10.8560334,15.1975717 L10.8472063,15.4964146 L10.8461538,15.6685336 L10.8461538,24.902895 L10.8504543,25.2315591 C10.8665542,25.7786274 10.9296661,26.0383714 11.0698963,26.3049963 C11.2090205,26.5695183 11.4105617,26.7744546 11.6704631,26.9157929 C11.9083955,27.0451842 12.1406579,27.1098695 12.5847053,27.1328336 L12.8782875,27.1417894 L13.0474011,27.1428571 L28.9525989,27.1428571 L29.2755095,27.1384942 C29.8129463,27.1221595 30.0678112,27.0581233 30.3295369,26.9157929 C30.5894383,26.7744546 30.7909795,26.5695183 30.9301037,26.3049963 C31.0575857,26.06261 31.1213335,25.8259104 31.1439666,25.3738569 L31.1527937,25.0750139 L31.1527937,15.4964146 L31.1439666,15.1975717 C31.1213335,14.7455181 31.0575857,14.5088186 30.9301037,14.2664323 C30.7909795,14.0019103 30.5894383,13.796974 30.3295369,13.6556356 C30.0916045,13.5262444 29.8593421,13.4615591 29.4152947,13.438595 L29.1217125,13.4296392 L25.7131886,13.4285714 L25.6852613,13.4274871 C25.5526094,13.4373936 25.4197849,13.383321 25.3312176,13.2773571 L25.2873268,13.2140681 L24.2560109,11.390722 L24.1706989,11.2560797 C24.1448839,11.2188078 24.1210368,11.1881141 24.0971947,11.1609072 L24.0237202,11.0866553 C23.9380704,11.009208 23.8430297,10.9547016 23.7281617,10.917755 C23.6400156,10.8894032 23.5547611,10.8728146 23.4128918,10.86436 L23.2116651,10.8578867 Z M21,16 C23.3365893,16 25.2307692,17.9187796 25.2307692,20.2857143 C25.2307692,22.6526489 23.3365893,24.5714286 21,24.5714286 C18.6634107,24.5714286 16.7692308,22.6526489 16.7692308,20.2857143 C16.7692308,17.9187796 18.6634107,16 21,16 Z M21,16.8571429 C19.1307285,16.8571429 17.6153846,18.3921666 17.6153846,20.2857143 C17.6153846,22.179262 19.1307285,23.7142857 21,23.7142857 C22.8692715,23.7142857 24.3846154,22.179262 24.3846154,20.2857143 C24.3846154,18.3921666 22.8692715,16.8571429 21,16.8571429 Z" id="Combined-Shape" fill="#FFFFFF" fill-rule="nonzero"></path>
                <path d="M15,28.00048 C15.8333247,34.4962835 17.6500042,39 19.7569551,39 C22.6526088,39 25,30.4934102 25,20 C25,9.50658975 22.6526088,1 19.7569551,1 C17.604426,1 16.1953063,3.11403614 15.387751,9.8372093" id="Path" stroke="#FFFFFF" stroke-linecap="round" stroke-linejoin="round"></path>
                <path d="M14.8999582,30.6789561 C15.7868693,35.7949185 17.4775854,39.9571846 19.238728,39.9571846 C21.9921539,39.9571846 24.5148091,33.5367565 24.0428154,15.9571846 M23.9850835,16.1714703 C23.4761851,7.95871664 21.6064344,2.95718463 19.238728,2.95718463 C17.7217305,2.95718463 16.8350426,4.22250205 16.1041714,7.30572779" id="Shape" stroke="#FFFFFF" stroke-linecap="round" stroke-linejoin="round" transform="translate(19.500000, 21.457185) rotate(-270.000000) translate(-19.500000, -21.457185) "></path>
                <path d="M15.1438858,8.89821364 C15.3015996,8.77207416 15.54138,8.7681323 15.704223,8.88638807 L15.7197365,8.89821364 L17.2942027,10.1574716 C17.4672503,10.2958751 17.4786246,10.5301714 17.3196079,10.6807869 C17.1652681,10.8269726 16.9071392,10.8405983 16.7338652,10.7147262 L16.7183521,10.7028988 L15.431726,9.6738897 L14.1452702,10.7028988 C13.9773122,10.8372316 13.7187828,10.8318565 13.558326,10.6937112 L13.5440144,10.6807869 C13.3896746,10.5346012 13.3958503,10.3095848 13.5545705,10.169928 L13.5694196,10.1574716 L15.1438858,8.89821364 Z" id="Path-Copy-8" fill="#FFFFFF" fill-rule="nonzero" transform="translate(15.431811, 9.800557) scale(1, -1) rotate(-9.000000) translate(-15.431811, -9.800557) "></path>
                <path d="M33.7120747,17.0976564 C33.8697885,16.9715169 34.1095689,16.967575 34.2724118,17.0858308 L34.2879253,17.0976564 L35.8623915,18.3569143 C36.0354392,18.4953178 36.0468135,18.7296141 35.8877967,18.8802297 C35.7334569,19.0264154 35.475328,19.040041 35.3020541,18.914169 L35.2865409,18.9023416 L33.9999149,17.8733324 L32.7134591,18.9023416 C32.5455011,19.0366744 32.2869717,19.0312993 32.1265149,18.8931539 L32.1122033,18.8802297 C31.9578635,18.7340439 31.9640391,18.5090276 32.1227593,18.3693707 L32.1376085,18.3569143 L33.7120747,17.0976564 Z" id="Path-Copy-9" fill="#FFFFFF" fill-rule="nonzero" transform="translate(34.000000, 18.000000) scale(-1, 1) rotate(64.000000) translate(-34.000000, -18.000000) "></path>
            </g>
        </g>
    </g>
</svg>