<?xml version="1.0" encoding="UTF-8"?>
<svg width="40px" height="40px" viewBox="0 0 40 40" version="1.1" xmlns="http://www.w3.org/2000/svg" xmlns:xlink="http://www.w3.org/1999/xlink">
    <title>7</title>
    <g id="Page-1" stroke="none" stroke-width="1" fill="none" fill-rule="evenodd">
        <g id="Artboard" transform="translate(-211.000000, -258.000000)">
            <g id="7" transform="translate(211.000000, 258.000000)">
                <rect id="Rectangle" x="0" y="0" width="40" height="40"></rect>
                <path d="M18.5,14 C22.0898509,14 25,16.9101491 25,20.5 C25,24.0898509 22.0898509,27 18.5,27 C14.9101491,27 12,24.0898509 12,20.5 C12,16.9101491 14.9101491,14 18.5,14 Z M18.5,15 C15.4624339,15 13,17.4624339 13,20.5 C13,23.5375661 15.4624339,26 18.5,26 C21.5375661,26 24,23.5375661 24,20.5 C24,17.4624339 21.5375661,15 18.5,15 Z" id="Oval-Copy-3" fill="#FFFFFF" fill-rule="nonzero"></path>
                <path d="M21.6508258,5.5 C22.2998092,5.5 22.6046544,5.53702994 22.9419265,5.65250477 C23.261357,5.76187103 23.5399734,5.93195947 23.7832317,6.16610086 C23.9544619,6.33091366 24.0880952,6.49884071 24.245122,6.76176518 L24.4122056,7.05975853 L24.5058311,7.23888534 L25.707,9.5 L30.1541722,9.5 C31.4488795,9.5 32.0631234,9.61861598 32.701068,9.95979246 C33.2770911,10.267853 33.732147,10.7229089 34.0402075,11.298932 C34.3586389,11.8943469 34.4831954,12.469116 34.4983877,13.5957505 L34.5,18.239551 C34.5,18.5156934 34.2761424,18.739551 34,18.739551 C33.7545401,18.739551 33.5503916,18.5626758 33.5080557,18.3294266 L33.5,18.239551 L33.5,13.8458278 C33.5,12.7020852 33.4115008,12.2437988 33.1583943,11.7705309 C32.9435336,11.3687762 32.6312238,11.0564664 32.2294691,10.8416057 C31.790006,10.6065782 31.3634607,10.5134826 30.3890235,10.5013823 L25.4069636,10.5 L25.3939166,10.4999161 C25.3745642,10.4993931 25.355303,10.4977462 25.3362316,10.4950054 L25.4069636,10.5 C25.3755592,10.5 25.344831,10.4971047 25.3150314,10.4915666 C25.2934178,10.487443 25.2719757,10.4819379 25.2509817,10.4750478 C25.2432772,10.4726599 25.23576,10.4699885 25.228328,10.4671448 C25.209723,10.4599057 25.1914297,10.4516416 25.1736592,10.4422885 C25.1666303,10.4386348 25.1595055,10.4346459 25.152491,10.4304905 C25.1391901,10.4226185 25.1266865,10.4144516 25.114539,10.4057098 C25.1024721,10.3969059 25.0907211,10.3875938 25.079415,10.3777825 C25.0707328,10.3704383 25.0620799,10.362398 25.0536923,10.3540222 C25.0416332,10.3417763 25.0304409,10.3294145 25.0198807,10.3165152 C25.0184566,10.3148968 25.0169837,10.3130667 25.0155222,10.3112241 L24.9970316,10.2863544 C24.9868073,10.271745 24.9773442,10.2565639 24.9686996,10.2408685 L24.9660391,10.2357659 L24.7358798,9.80532166 L23.4704983,7.42047113 C23.3597542,7.21972632 23.2782237,7.09618487 23.1940577,6.99710673 L23.089755,6.88657996 C22.9517285,6.75372642 22.7992542,6.66064466 22.618007,6.59858944 C22.4980257,6.55751035 22.3820757,6.53164585 22.2086917,6.51676958 L21.9691285,6.50392191 C21.9232954,6.50256952 21.8741814,6.50158905 21.8212948,6.50094667 L15.3830253,6.50093202 L15.108516,6.50898912 C14.8712299,6.52157552 14.7338682,6.54855103 14.5907226,6.59712648 C14.4104854,6.65828873 14.2587243,6.75009248 14.1208845,6.8813422 C14.0479024,6.95083511 13.9846165,7.0225075 13.9143129,7.12363937 L13.8015048,7.30084179 L13.6656346,7.54269342 L13.5851339,7.69425645 L12.455258,9.77764795 L12.2810611,10.1619659 C12.2320873,10.3212569 12.1084286,10.4559603 11.9100848,10.4910837 L11.8695988,10.4958972 C11.8589527,10.4972912 11.8482462,10.4983444 11.8374958,10.4990507 L11.8051465,10.5 L6.8458278,10.5 C5.70208522,10.5 5.24379883,10.5884992 4.77053087,10.8416057 C4.36877622,11.0564664 4.05646639,11.3687762 3.84160565,11.7705309 C3.62465725,12.1761891 3.52864481,12.5708405 3.50564021,13.395577 L3.5,13.8458278 L3.5,27.1541722 L3.50564021,27.604423 C3.52864481,28.4291595 3.62465725,28.8238109 3.84160565,29.2294691 C4.05646639,29.6312238 4.36877622,29.9435336 4.77053087,30.1583943 C5.17618912,30.3753427 5.5708405,30.4713552 6.39557702,30.4943598 L6.8458278,30.5 L23.5619915,30.5 C23.8381339,30.5 24.0619915,30.7238576 24.0619915,31 C24.0619915,31.2454599 23.8851163,31.4496084 23.6518671,31.4919443 L23.5619915,31.5 L6.8458278,31.5 C5.55112051,31.5 4.93687657,31.381384 4.29893202,31.0402075 C3.72290889,30.732147 3.267853,30.2770911 2.95979246,29.701068 C2.64136108,29.1056531 2.51680462,28.530884 2.50161234,27.4042495 L2.5,27.1541722 L2.5,13.8458278 C2.5,12.5511205 2.61861598,11.9368766 2.95979246,11.298932 C3.267853,10.7229089 3.72290889,10.267853 4.29893202,9.95979246 C4.89434693,9.64136108 5.46911598,9.51680462 6.59575054,9.50161234 L11.483,9.5 L11.5603517,9.33277365 L12.702621,7.22401798 C13.0021662,6.65246577 13.1749504,6.40123073 13.4313016,6.15713548 C13.6742652,5.92578777 13.9516819,5.7579721 14.2693776,5.65016429 C14.5673342,5.54905481 14.8396369,5.50904719 15.349678,5.50140487 L21.6508258,5.5 Z" id="Combined-Shape" fill="#FFFFFF" fill-rule="nonzero"></path>
                <g id="Group-4-Copy" transform="translate(24.000000, 17.000000)" stroke="#FFFFFF">
                    <path d="M4.35180923,2.38178697 L9.96589077,3.94250168 C10.0151845,3.95620534 10.0320376,3.96386357 10.0494692,3.97525411 C10.0669008,3.98664465 10.0808869,4.00064885 10.0922549,4.01809513 C10.103623,4.03554141 10.1112595,4.05240435 10.1248995,4.10171573 L11.6745775,9.70410249 C11.6985466,9.79075574 11.6477312,9.88043295 11.5610779,9.90440213 C11.5321854,9.91239409 11.5016472,9.91225299 11.4728299,9.9039944 L5.89627369,8.3058446 C5.84767062,8.29191576 5.83108483,8.28428833 5.81391526,8.27300456 C5.7967457,8.2617208 5.78295994,8.24791774 5.77169772,8.23073403 C5.7604355,8.21355032 5.75282888,8.19695498 5.73896101,8.14833448 L4.15165875,2.58328212 C4.12699831,2.49682305 4.17709599,2.40674288 4.26355506,2.38208244 C4.29238471,2.37385945 4.32292517,2.3737572 4.35180923,2.38178697 Z" id="Rectangle" transform="translate(7.912000, 6.144000) rotate(-45.000000) translate(-7.912000, -6.144000) "></path>
                    <path d="M1.96126381,6.55332003 L7.4554355,8.8342863 C7.50235329,8.85376474 7.51803424,8.86331012 7.53386044,8.87658491 C7.54968663,8.88985969 7.56182804,8.90527381 7.57102654,8.9237691 C7.58022504,8.9422644 7.5858319,8.95974495 7.59377885,9.00991999 L8.6596897,15.7398162 C8.67375429,15.8286166 8.61316901,15.912005 8.5243687,15.9260696 C8.49494705,15.9307296 8.46481079,15.9272273 8.43724192,15.9159444 L3.04417677,13.708754 C2.99743062,13.6896224 2.98179196,13.6802456 2.96596854,13.667177 C2.95014512,13.6541083 2.93795295,13.6389095 2.92862791,13.6206279 C2.91930286,13.6023464 2.91354173,13.585046 2.90500604,13.5352629 L1.73839458,6.73117965 C1.72320102,6.64256552 1.78272015,6.55841276 1.87133428,6.5432192 C1.90166297,6.53801911 1.93284441,6.54152139 1.96126381,6.55332003 Z" id="Rectangle-Copy-24" transform="translate(5.196710, 11.232787) rotate(9.000000) translate(-5.196710, -11.232787) "></path>
                    <path d="M7.38036864,6.55936036 L12.8977481,8.96017923 C12.9437424,8.98019304 12.9590649,8.98980151 12.9745165,9.00306141 C12.9899681,9.0163213 13.0017942,9.03159886 13.0107582,9.0498806 C13.0197223,9.06816234 13.0251839,9.08540401 13.0330315,9.13494627 L14.0986639,15.8623224 C14.1127301,15.9511225 14.0521462,16.034512 13.9633462,16.0485782 C13.9314758,16.0536265 13.898824,16.0490896 13.8695373,16.0355436 L8.32537729,13.4711994 C8.28063136,13.4505031 8.26578928,13.4408208 8.2508388,13.4275911 C8.23588833,13.4143614 8.22448218,13.3992738 8.21582994,13.3812826 C8.20717771,13.3632915 8.20190895,13.3463719 8.19419666,13.2976783 L7.1546277,6.73409831 C7.14056312,6.645298 7.20114839,6.56190952 7.28994871,6.54784493 C7.32057031,6.54299495 7.35194013,6.54699005 7.38036864,6.55936036 Z" id="Rectangle-Copy-24" transform="translate(10.627290, 11.302261) scale(-1, 1) rotate(9.000000) translate(-10.627290, -11.302261) "></path>
                </g>
            </g>
        </g>
    </g>
</svg>