<?xml version="1.0" encoding="UTF-8"?>
<svg width="40px" height="40px" viewBox="0 0 40 40" version="1.1" xmlns="http://www.w3.org/2000/svg" xmlns:xlink="http://www.w3.org/1999/xlink">
    <title>2</title>
    <g id="Page-1" stroke="none" stroke-width="1" fill="none" fill-rule="evenodd">
        <g id="Artboard" transform="translate(-149.000000, -74.000000)">
            <g id="2" transform="translate(149.000000, 74.000000)">
                <rect id="Rectangle" x="0" y="0" width="40" height="40"></rect>
                <path d="M28,10 C31.3137085,10 34,12.7237849 34,16.0837438 C34,17.5576487 33.4830791,18.9091352 32.6230318,19.9619828 L32.5344104,20.0992027 L32.4483715,20.2335724 L32.3649149,20.3650917 L32.2840404,20.4937608 L32.2057478,20.6195795 L32.1300368,20.742548 L32.0569073,20.8626662 L31.986359,20.9799342 L31.9520527,21.0374993 L31.9520527,21.0374993 L31.8853759,21.1504918 L31.8212798,21.2606341 L31.7597641,21.3679261 L31.7008288,21.4723679 L31.6444736,21.5739594 L31.5906982,21.6727007 L31.5395024,21.7685918 C31.5228671,21.8000804 31.5066617,21.831094 31.4908862,21.8616326 L31.4448491,21.9518232 C31.2357637,22.366585 31.0946936,22.8746895 31.0216388,23.4761366 L31.1384615,23.4778325 C31.5463026,23.4778325 31.8769231,23.8130676 31.8769231,24.226601 L31.8769231,26.2389163 C31.8769231,27.7638207 30.65776,29 29.1538462,29 L26.9384615,29 C25.5760202,29 24.4472766,27.9854553 24.2469722,26.6608038 L24.2153846,26.6600985 L24.2153846,24.226601 C24.2153846,23.8130676 24.5460051,23.4778325 24.9538462,23.4778325 L25.013,23.477 L24.9794199,23.3495601 L24.9447674,23.222758 L24.9105756,23.0996785 L24.8601518,22.922039 L24.8271117,22.8082659 L24.7945324,22.6982154 L24.7624138,22.5918874 L24.730756,22.489282 L24.6995588,22.3903991 L24.6688223,22.2952388 L24.6385466,22.203801 L24.6087315,22.1160859 L24.5793772,22.0320932 L24.5504835,21.9518232 C24.5393574,21.9213874 24.5273269,21.8901103 24.514392,21.8579919 L24.4873165,21.7926333 C24.4590351,21.7261528 24.4271363,21.656307 24.3916201,21.5830959 L24.3548981,21.5087629 C24.3422555,21.4836114 24.3292109,21.4580859 24.3157645,21.4321864 L24.2742192,21.3533664 L24.2302623,21.2723027 C24.2227352,21.2586051 24.2151076,21.2448141 24.2073795,21.2309295 L24.1598052,21.1465005 C24.1435452,21.1179836 24.1268832,21.0890927 24.1098193,21.0598279 L24.0574217,20.9709118 C24.0484878,20.9559054 24.0394535,20.9408056 24.0303186,20.9256123 L23.9743036,20.8333308 L23.915877,20.7388057 L23.8550388,20.6420371 L23.791789,20.5430248 L23.7261275,20.441769 L23.6580544,20.3382696 L23.5875697,20.2325267 C23.5636729,20.1969051 23.5393741,20.1609096 23.5146734,20.1245401 C22.5723563,19.0500459 22,17.6346683 22,16.0837438 C22,12.7237849 24.6862915,10 28,10 Z M30.9054248,26.6611943 L25.186668,26.6602732 C25.3719218,27.4551195 26.0697358,28.0491231 26.9067992,28.0637627 L26.9384615,28.0640394 L29.1538462,28.0640394 C30.0046056,28.0640394 30.7175108,27.4655776 30.9054248,26.6611943 Z M30.9538462,24.4137931 L25.1384615,24.4137931 L25.138,25.724 L30.953,25.724 L30.9538462,24.4137931 Z M28,10.9359606 C25.1960928,10.9359606 22.9230769,13.2407017 22.9230769,16.0837438 C22.9230769,17.34205 23.3688237,18.5276723 24.1650339,19.457088 L24.2044739,19.5025896 L24.242482,19.5459291 L24.3144347,19.6520521 L24.3915884,19.7670935 L24.4662506,19.8799189 L24.5026484,19.9355062 L24.5026484,19.9355062 L24.5735797,20.0450413 C24.5851946,20.0631157 24.596706,20.0810997 24.6081141,20.0989936 L24.6753224,20.205279 L24.7079971,20.2576166 L24.7079971,20.2576166 L24.77149,20.3606928 C24.781866,20.3776953 24.792139,20.3946095 24.802309,20.4114359 L24.8620943,20.5113435 L24.9194121,20.6091613 C24.9474548,20.6575507 24.9745734,20.7051631 25.0007699,20.7520088 L25.0519341,20.8446806 C25.0769021,20.8905084 25.1009493,20.935576 25.1240776,20.9798938 L25.1691097,21.0675325 C25.176411,21.0819733 25.1836104,21.0963315 25.1907079,21.1106075 L25.232071,21.1952804 C25.3056641,21.3487166 25.366947,21.4922978 25.4160149,21.6265238 L25.4326992,21.6725375 L25.4663984,21.7677097 L25.5005424,21.867083 L25.5351357,21.970667 L25.5701829,22.0784713 L25.6056888,22.1905055 L25.6416578,22.3067793 L25.6780947,22.4273022 L25.715004,22.552084 L25.7523904,22.6811341 L25.7902585,22.8144623 L25.8286129,22.952078 L25.87,23.1033547 L27.538,23.103 L27.538303,19.9557632 C26.7421247,19.747904 26.1538462,19.0150394 26.1538462,18.1428571 C26.1538462,17.1090236 26.9803974,16.270936 28,16.270936 C29.0196026,16.270936 29.8461538,17.1090236 29.8461538,18.1428571 C29.8461538,19.0150394 29.2578753,19.747904 28.461697,19.9557632 L28.461,23.103 L30.1412615,23.1033547 L30.1431724,23.0913892 C30.2331258,22.522944 30.3827353,22.0192173 30.5959389,21.5803545 L30.6229208,21.5258345 L30.6734611,21.4268287 L30.7267075,21.3249546 C30.7358076,21.3077362 30.7450205,21.2903979 30.7543463,21.2729397 L30.8116565,21.1667495 L30.8716788,21.057673 L30.9344155,20.945703 L30.9998692,20.8308322 L31.068042,20.7130535 C31.0796309,20.693181 31.0913332,20.673187 31.1031489,20.6530714 L31.1754051,20.5309172 L31.2503864,20.4058371 L31.3280953,20.2778239 L31.4085341,20.1468703 L31.4917051,20.0129692 L31.5776108,19.8761133 L31.6662536,19.7362955 L31.7576357,19.5935086 L31.8797006,19.4046603 L31.9121405,19.3649484 C32.6609777,18.4482412 33.0769231,17.2996627 33.0769231,16.0837438 C33.0769231,13.2407017 30.8039072,10.9359606 28,10.9359606 Z M28,17.2068966 C27.4901987,17.2068966 27.0769231,17.6259404 27.0769231,18.1428571 C27.0769231,18.6597739 27.4901987,19.0788177 28,19.0788177 C28.5098013,19.0788177 28.9230769,18.6597739 28.9230769,18.1428571 C28.9230769,17.6259404 28.5098013,17.2068966 28,17.2068966 Z" id="Combined-Shape-Copy-4" fill="#FFFFFF"></path>
                <path d="M12.7724118,5.59861421 L12.7879253,5.61220105 L14.3623915,7.05900957 C14.5354392,7.21802651 14.5468135,7.48721823 14.3877967,7.66026608 C14.2334569,7.82822429 13.975328,7.8438793 13.8020541,7.69926022 L13.7865409,7.68567129 L12.968,6.934 L12.9680846,15.5000005 C12.9680846,15.735015 12.7775676,15.9255319 12.5425531,15.9255319 C12.3075386,15.9255319 12.1170217,15.735015 12.1170217,15.5000005 L12.117,6.854 L11.2134591,7.68567129 C11.0455011,7.84001126 10.7869717,7.83383562 10.6265149,7.67511522 L10.6122033,7.66026608 C10.4578635,7.49230787 10.4640391,7.23377815 10.6227593,7.07332114 L10.6376085,7.05900957 L12.2120747,5.61220105 C12.3697885,5.46727469 12.6095689,5.46274574 12.7724118,5.59861421 Z" id="Combined-Shape-Copy-8" fill="#FFFFFF" transform="translate(12.500000, 10.712766) scale(-1, 1) rotate(-270.000000) translate(-12.500000, -10.712766) "></path>
                <path d="M12.7724118,14.5986142 L12.7879253,14.6122011 L14.3623915,16.0590096 C14.5354392,16.2180265 14.5468135,16.4872182 14.3877967,16.6602661 C14.2334569,16.8282243 13.975328,16.8438793 13.8020541,16.6992602 L13.7865409,16.6856713 L12.968,15.934 L12.9680846,24.5000005 C12.9680846,24.735015 12.7775676,24.9255319 12.5425531,24.9255319 C12.3075386,24.9255319 12.1170217,24.735015 12.1170217,24.5000005 L12.117,15.854 L11.2134591,16.6856713 C11.0455011,16.8400113 10.7869717,16.8338356 10.6265149,16.6751152 L10.6122033,16.6602661 C10.4578635,16.4923079 10.4640391,16.2337782 10.6227593,16.0733211 L10.6376085,16.0590096 L12.2120747,14.6122011 C12.3697885,14.4672747 12.6095689,14.4627457 12.7724118,14.5986142 Z" id="Combined-Shape-Copy-9" fill="#FFFFFF" transform="translate(12.500000, 19.712766) scale(-1, 1) rotate(-270.000000) translate(-12.500000, -19.712766) "></path>
                <path d="M12.7724118,23.5986142 L12.7879253,23.6122011 L14.3623915,25.0590096 C14.5354392,25.2180265 14.5468135,25.4872182 14.3877967,25.6602661 C14.2334569,25.8282243 13.975328,25.8438793 13.8020541,25.6992602 L13.7865409,25.6856713 L12.968,24.934 L12.9680846,33.5000005 C12.9680846,33.735015 12.7775676,33.9255319 12.5425531,33.9255319 C12.3075386,33.9255319 12.1170217,33.735015 12.1170217,33.5000005 L12.117,24.854 L11.2134591,25.6856713 C11.0455011,25.8400113 10.7869717,25.8338356 10.6265149,25.6751152 L10.6122033,25.6602661 C10.4578635,25.4923079 10.4640391,25.2337782 10.6227593,25.0733211 L10.6376085,25.0590096 L12.2120747,23.6122011 C12.3697885,23.4672747 12.6095689,23.4627457 12.7724118,23.5986142 Z" id="Combined-Shape-Copy-10" fill="#FFFFFF" transform="translate(12.500000, 28.712766) scale(-1, 1) rotate(-270.000000) translate(-12.500000, -28.712766) "></path>
            </g>
        </g>
    </g>
</svg>