<?xml version="1.0" encoding="UTF-8"?>
<svg width="40px" height="40px" viewBox="0 0 40 40" version="1.1" xmlns="http://www.w3.org/2000/svg" xmlns:xlink="http://www.w3.org/1999/xlink">
    <title>4</title>
    <g id="Page-1" stroke="none" stroke-width="1" fill="none" fill-rule="evenodd">
        <g id="Artboard" transform="translate(-149.000000, -138.000000)">
            <g id="4" transform="translate(149.000000, 138.000000)">
                <rect id="Rectangle" x="0" y="0" width="40" height="40"></rect>
                <path d="M20,1 C23.3137085,1 26,3.7237849 26,7.08374384 C26,8.55764873 25.4830791,9.90913516 24.6230318,10.9619828 L24.5344104,11.0992027 L24.4483715,11.2335724 L24.3649149,11.3650917 L24.2840404,11.4937608 L24.2057478,11.6195795 L24.1300368,11.742548 L24.0569073,11.8626662 L23.986359,11.9799342 L23.9520527,12.0374993 L23.9520527,12.0374993 L23.8853759,12.1504918 L23.8212798,12.2606341 L23.7597641,12.3679261 L23.7008288,12.4723679 L23.6444736,12.5739594 L23.5906982,12.6727007 L23.5395024,12.7685918 C23.5228671,12.8000804 23.5066617,12.831094 23.4908862,12.8616326 L23.4448491,12.9518232 C23.2357637,13.366585 23.0946936,13.8746895 23.0216388,14.4761366 L23.1384615,14.4778325 C23.5463026,14.4778325 23.8769231,14.8130676 23.8769231,15.226601 L23.8769231,17.2389163 C23.8769231,18.7638207 22.65776,20 21.1538462,20 L18.9384615,20 C17.5760202,20 16.4472766,18.9854553 16.2469722,17.6608038 L16.2153846,17.6600985 L16.2153846,15.226601 C16.2153846,14.8130676 16.5460051,14.4778325 16.9538462,14.4778325 L17.013,14.477 L16.9794199,14.3495601 L16.9447674,14.222758 L16.9105756,14.0996785 L16.8601518,13.922039 L16.8271117,13.8082659 L16.7945324,13.6982154 L16.7624138,13.5918874 L16.730756,13.489282 L16.6995588,13.3903991 L16.6688223,13.2952388 L16.6385466,13.203801 L16.6087315,13.1160859 L16.5793772,13.0320932 L16.5504835,12.9518232 C16.5393574,12.9213874 16.5273269,12.8901103 16.514392,12.8579919 L16.4873165,12.7926333 C16.4590351,12.7261528 16.4271363,12.656307 16.3916201,12.5830959 L16.3548981,12.5087629 C16.3422555,12.4836114 16.3292109,12.4580859 16.3157645,12.4321864 L16.2742192,12.3533664 L16.2302623,12.2723027 C16.2227352,12.2586051 16.2151076,12.2448141 16.2073795,12.2309295 L16.1598052,12.1465005 C16.1435452,12.1179836 16.1268832,12.0890927 16.1098193,12.0598279 L16.0574217,11.9709118 C16.0484878,11.9559054 16.0394535,11.9408056 16.0303186,11.9256123 L15.9743036,11.8333308 L15.915877,11.7388057 L15.8550388,11.6420371 L15.791789,11.5430248 L15.7261275,11.441769 L15.6580544,11.3382696 L15.5875697,11.2325267 C15.5636729,11.1969051 15.5393741,11.1609096 15.5146734,11.1245401 C14.5723563,10.0500459 14,8.63466829 14,7.08374384 C14,3.7237849 16.6862915,1 20,1 Z M22.9054248,17.6611943 L17.186668,17.6602732 C17.3719218,18.4551195 18.0697358,19.0491231 18.9067992,19.0637627 L18.9384615,19.0640394 L21.1538462,19.0640394 C22.0046056,19.0640394 22.7175108,18.4655776 22.9054248,17.6611943 Z M22.9538462,15.4137931 L17.1384615,15.4137931 L17.138,16.724 L22.953,16.724 L22.9538462,15.4137931 Z M20,1.93596059 C17.1960928,1.93596059 14.9230769,4.24070166 14.9230769,7.08374384 C14.9230769,8.34204999 15.3688237,9.52767228 16.1650339,10.457088 L16.2044739,10.5025896 L16.242482,10.5459291 L16.3144347,10.6520521 L16.3915884,10.7670935 L16.4662506,10.8799189 L16.5026484,10.9355062 L16.5026484,10.9355062 L16.5735797,11.0450413 C16.5851946,11.0631157 16.596706,11.0810997 16.6081141,11.0989936 L16.6753224,11.205279 L16.7079971,11.2576166 L16.7079971,11.2576166 L16.77149,11.3606928 C16.781866,11.3776953 16.792139,11.3946095 16.802309,11.4114359 L16.8620943,11.5113435 L16.9194121,11.6091613 C16.9474548,11.6575507 16.9745734,11.7051631 17.0007699,11.7520088 L17.0519341,11.8446806 C17.0769021,11.8905084 17.1009493,11.935576 17.1240776,11.9798938 L17.1691097,12.0675325 C17.176411,12.0819733 17.1836104,12.0963315 17.1907079,12.1106075 L17.232071,12.1952804 C17.3056641,12.3487166 17.366947,12.4922978 17.4160149,12.6265238 L17.4326992,12.6725375 L17.4663984,12.7677097 L17.5005424,12.867083 L17.5351357,12.970667 L17.5701829,13.0784713 L17.6056888,13.1905055 L17.6416578,13.3067793 L17.6780947,13.4273022 L17.715004,13.552084 L17.7523904,13.6811341 L17.7902585,13.8144623 L17.8286129,13.952078 L17.87,14.1033547 L19.538,14.103 L19.538303,10.9557632 C18.7421247,10.747904 18.1538462,10.0150394 18.1538462,9.14285714 C18.1538462,8.10902362 18.9803974,7.27093596 20,7.27093596 C21.0196026,7.27093596 21.8461538,8.10902362 21.8461538,9.14285714 C21.8461538,10.0150394 21.2578753,10.747904 20.461697,10.9557632 L20.461,14.103 L22.1412615,14.1033547 L22.1431724,14.0913892 C22.2331258,13.522944 22.3827353,13.0192173 22.5959389,12.5803545 L22.6229208,12.5258345 L22.6734611,12.4268287 L22.7267075,12.3249546 C22.7358076,12.3077362 22.7450205,12.2903979 22.7543463,12.2729397 L22.8116565,12.1667495 L22.8716788,12.057673 L22.9344155,11.945703 L22.9998692,11.8308322 L23.068042,11.7130535 C23.0796309,11.693181 23.0913332,11.673187 23.1031489,11.6530714 L23.1754051,11.5309172 L23.2503864,11.4058371 L23.3280953,11.2778239 L23.4085341,11.1468703 L23.4917051,11.0129692 L23.5776108,10.8761133 L23.6662536,10.7362955 L23.7576357,10.5935086 L23.8797006,10.4046603 L23.9121405,10.3649484 C24.6609777,9.44824116 25.0769231,8.29966269 25.0769231,7.08374384 C25.0769231,4.24070166 22.8039072,1.93596059 20,1.93596059 Z M20,8.20689655 C19.4901987,8.20689655 19.0769231,8.62594038 19.0769231,9.14285714 C19.0769231,9.6597739 19.4901987,10.0788177 20,10.0788177 C20.5098013,10.0788177 20.9230769,9.6597739 20.9230769,9.14285714 C20.9230769,8.62594038 20.5098013,8.20689655 20,8.20689655 Z" id="Combined-Shape-Copy-4" fill="#FFFFFF"></path>
                <path d="M20.924583,30.0012909 L21.7666236,30.0115351 L22.5984834,30.0318122 L23.4193461,30.0619015 L24.2283953,30.1015822 C24.362207,30.1089827 24.4954924,30.1167737 24.6282347,30.1249505 L25.4180328,30.1786048 C25.548534,30.1883067 25.6784579,30.1983852 25.8077875,30.2088358 L26.5764978,30.2759672 L27.330129,30.3518077 C27.4544323,30.3651612 27.5780732,30.3788685 27.7010349,30.3929248 L28.4305168,30.4814149 C28.5506931,30.4968492 28.6701561,30.5126233 28.7888888,30.5287328 L29.4923846,30.6293762 L30.1775357,30.737846 L30.8435259,30.8539215 C30.9528822,30.8738889 31.0614061,30.8941641 31.1690805,30.9147424 L31.8047985,31.0418128 L32.4193146,31.1759373 L33.0118124,31.3168953 C33.1086818,31.3409455 33.2045998,31.3652712 33.2995493,31.3898679 L33.8574889,31.5406624 L34.3913691,31.6977387 C37.2600511,32.5785292 39,33.7343474 39,35 C39,36.2656526 37.2600511,37.4214708 34.3913691,38.3022613 L33.8574889,38.4593376 L33.2995493,38.6101321 C33.2045998,38.6347288 33.1086818,38.6590545 33.0118124,38.6831047 L32.4193146,38.8240627 L31.8047985,38.9581872 L31.1690805,39.0852576 C31.0614061,39.1058359 30.9528822,39.1261111 30.8435259,39.1460785 L30.1775357,39.262154 L29.4923846,39.3706238 L28.7888888,39.4712672 L28.0678648,39.5638636 C27.9462788,39.5786135 27.8239965,39.5930189 27.7010349,39.6070752 L26.9552493,39.6871874 C26.8296384,39.699829 26.7033823,39.7121123 26.5764978,39.7240328 L25.8077875,39.7911642 L25.0248145,39.8493661 C24.8931758,39.85831 24.7609769,39.8668727 24.6282347,39.8750495 L23.8253984,39.9194433 C23.6905512,39.9260583 23.5551948,39.9322782 23.4193461,39.9380985 L22.5984834,39.9681878 L21.7666236,39.9884649 L20.924583,39.9987091 C20.7834398,39.9995682 20.6419065,40 20.5,40 L19.6531752,39.9948549 C19.5128294,39.993146 19.3728908,39.9910144 19.2333764,39.9884649 L18.4015166,39.9681878 L17.5806539,39.9380985 L16.7716047,39.8984178 C16.637793,39.8910173 16.5045076,39.8832263 16.3717653,39.8750495 L15.5819672,39.8213952 C15.451466,39.8116933 15.3215421,39.8016148 15.1922125,39.7911642 L14.4235022,39.7240328 L13.669871,39.6481923 C13.5455677,39.6348388 13.4219268,39.6211315 13.2989651,39.6070752 L12.5694832,39.5185851 C12.4493069,39.5031508 12.3298439,39.4873767 12.2111112,39.4712672 L11.5076154,39.3706238 L10.8224643,39.262154 L10.1564741,39.1460785 C10.0471178,39.1261111 9.93859394,39.1058359 9.83091947,39.0852576 L9.19520146,38.9581872 L8.58068538,38.8240627 L7.98818761,38.6831047 C7.8913182,38.6590545 7.79540023,38.6347288 7.70045072,38.6101321 L7.14251115,38.4593376 L6.60863085,38.3022613 C3.73994894,37.4214708 2,36.2656526 2,35 C2,33.7343474 3.73994894,32.5785292 6.60863085,31.6977387 L7.14251115,31.5406624 L7.70045072,31.3898679 C7.79540023,31.3652712 7.8913182,31.3409455 7.98818761,31.3168953 L8.58068538,31.1759373 L9.19520146,31.0418128 L9.83091947,30.9147424 C9.93859394,30.8941641 10.0471178,30.8738889 10.1564741,30.8539215 L10.8224643,30.737846 L11.5076154,30.6293762 L12.2111112,30.5287328 L12.9321352,30.4361364 C13.0537212,30.4213865 13.1760035,30.4069811 13.2989651,30.3929248 L14.0447507,30.3128126 C14.1703616,30.300171 14.2966177,30.2878877 14.4235022,30.2759672 L15.1922125,30.2088358 L15.9751855,30.1506339 C16.1068242,30.14169 16.2390231,30.1331273 16.3717653,30.1249505 L17.1746016,30.0805567 C17.3094488,30.0739417 17.4448052,30.0677218 17.5806539,30.0619015 L18.4015166,30.0318122 L19.2333764,30.0115351 L20.075417,30.0012909 L20.924583,30.0012909 Z M20.5,31 C20.2179334,31 19.9373206,31.0018493 19.65832,31.0054864 L18.8263134,31.0217001 C18.6885046,31.0252759 18.5511385,31.0292833 18.4142348,31.0337146 L17.5985213,31.0653284 C17.3285724,31.0775212 17.060632,31.0913484 16.7948585,31.1067486 L16.0041973,31.1576065 L15.2274886,31.2175339 C15.0992528,31.2282571 14.9716378,31.2393429 14.8446637,31.2507835 L14.0906669,31.3236244 L13.353,31.4046136 L12.6326138,31.4933829 L11.9304594,31.5895638 L11.2474877,31.6927879 L10.5846495,31.8026868 L9.94289589,31.9188921 L9.32317769,32.0410355 L8.72644587,32.1687484 L8.15365134,32.3016625 C8.06023319,32.3242278 7.96785205,32.3469945 7.87652773,32.3699549 L7.34142214,32.50998 C7.25440434,32.5336845 7.16848299,32.5575673 7.08367789,32.5816207 L6.58840082,32.727928 L6.12086477,32.8779628 L5.68202065,33.0313568 C3.98529595,33.6511599 3,34.3427412 3,35 C3,35.6572588 3.98529595,36.3488401 5.68202065,36.9686432 L6.12086477,37.1220372 L6.58840082,37.272072 L7.08367789,37.4183793 C7.16848299,37.4424327 7.25440434,37.4663155 7.34142214,37.49002 L7.87652773,37.6300451 L8.43699701,37.7654217 C8.53246936,37.7875766 8.62895892,37.8095224 8.72644587,37.8312516 L9.32317769,37.9589645 L9.94289589,38.0811079 L10.5846495,38.1973132 L11.2474877,38.3072121 L11.9304594,38.4104362 L12.6326138,38.5066171 L13.353,38.5953864 L14.0906669,38.6763756 L14.8446637,38.7492165 L15.6140395,38.8135404 C15.7434975,38.8235309 15.8735567,38.8331511 16.0041973,38.8423935 L16.7948585,38.8932514 C16.9277452,38.9009515 17.0611737,38.9082583 17.1951241,38.9151643 L18.0049312,38.9517273 C18.2768489,38.9622704 18.5506958,38.9711483 18.8263134,38.9782999 L19.65832,38.9945136 L20.5,39 L21.34168,38.9945136 L22.1736866,38.9782999 C22.3114954,38.9747241 22.4488615,38.9707167 22.5857652,38.9662854 L23.4014787,38.9346716 C23.6714276,38.9224788 23.939368,38.9086516 24.2051415,38.8932514 L24.9958027,38.8423935 L25.7725114,38.7824661 C25.9007472,38.7717429 26.0283622,38.7606571 26.1553363,38.7492165 L26.9093331,38.6763756 L27.647,38.5953864 L28.3673862,38.5066171 L29.0695406,38.4104362 L29.7525123,38.3072121 L30.4153505,38.1973132 L31.0571041,38.0811079 L31.6768223,37.9589645 L32.2735541,37.8312516 L32.8463487,37.6983375 C32.9397668,37.6757722 33.032148,37.6530055 33.1234723,37.6300451 L33.6585779,37.49002 C33.7455957,37.4663155 33.831517,37.4424327 33.9163221,37.4183793 L34.4115992,37.272072 L34.8791352,37.1220372 L35.3179794,36.9686432 C37.0147041,36.3488401 38,35.6572588 38,35 C38,34.3427412 37.0147041,33.6511599 35.3179794,33.0313568 L34.8791352,32.8779628 L34.4115992,32.727928 L33.9163221,32.5816207 C33.831517,32.5575673 33.7455957,32.5336845 33.6585779,32.50998 L33.1234723,32.3699549 L32.563003,32.2345783 C32.4675306,32.2124234 32.3710411,32.1904776 32.2735541,32.1687484 L31.6768223,32.0410355 L31.0571041,31.9188921 L30.4153505,31.8026868 L29.7525123,31.6927879 L29.0695406,31.5895638 L28.3673862,31.4933829 L27.647,31.4046136 L26.9093331,31.3236244 L26.1553363,31.2507835 L25.3859605,31.1864596 C25.2565025,31.1764691 25.1264433,31.1668489 24.9958027,31.1576065 L24.2051415,31.1067486 C24.0722548,31.0990485 23.9388263,31.0917417 23.8048759,31.0848357 L22.9950688,31.0482727 C22.7231511,31.0377296 22.4493042,31.0288517 22.1736866,31.0217001 L21.34168,31.0054864 C21.2021797,31.0036679 21.0622763,31.0022962 20.9219897,31.0013793 L20.5,31 Z" id="Oval" fill="#FFFFFF" fill-rule="nonzero"></path>
                <path d="M15.2966922,19.033681 C15.5663698,18.9742791 15.8331415,19.1447412 15.8925435,19.4144189 C15.9519454,19.6840965 15.7814833,19.9508682 15.5118056,20.0102701 C12.1600177,20.748569 9.28263343,22.6444472 6.86777827,25.7146236 C4.44425764,28.795817 3.15849361,31.8974069 2.996716,35.0258217 C2.98245509,35.3015956 2.74733543,35.5135937 2.47156154,35.4993328 C2.19578766,35.4850719 1.9837895,35.2499522 1.99805041,34.9741783 C2.17116713,31.6264908 3.53700043,28.3317534 6.08178013,25.0963947 C8.63522531,21.850019 11.7108208,19.8235415 15.2966922,19.033681 Z" id="Path-2" fill="#FFFFFF" fill-rule="nonzero"></path>
                <path d="M38.3809755,19.033681 C38.6506531,18.9742791 38.9174248,19.1447412 38.9768267,19.4144189 C39.0362287,19.6840965 38.8657665,19.9508682 38.5960889,20.0102701 C35.244301,20.748569 32.3669167,22.6444472 29.9520615,25.7146236 C27.5285011,28.7958677 26.2420715,31.8975316 26.0790251,35.026023 C26.064653,35.3017911 25.8294479,35.5136944 25.5536798,35.4993223 C25.2779117,35.4849502 25.0660083,35.2497451 25.0803804,34.973977 C25.2548466,31.6263661 26.6213235,28.3317028 29.1660634,25.0963947 C31.7195086,21.850019 34.7951041,19.8235415 38.3809755,19.033681 Z" id="Path-2" fill="#FFFFFF" fill-rule="nonzero" transform="translate(32.034164, 27.260941) scale(-1, 1) translate(-32.034164, -27.260941) "></path>
            </g>
        </g>
    </g>
</svg>