<?xml version="1.0" encoding="UTF-8"?>
<svg width="15px" height="15px" viewBox="0 0 15 15" version="1.1" xmlns="http://www.w3.org/2000/svg" xmlns:xlink="http://www.w3.org/1999/xlink">
    <!-- Generator: sketchtool 64 (101010) - https://sketch.com -->
    <title>44DCD9E5-86DD-48C2-BA96-81FD49D4B578</title>
    <desc>Created with sketchtool.</desc>
    <g id="design-system" stroke="none" stroke-width="1" fill="none" fill-rule="evenodd">
        <g id="icon" transform="translate(-89.000000, -1574.000000)" fill="#858997">
            <g id="camera-copy" transform="translate(89.000000, 1574.000000)">
                <path d="M13.1196429,14.5318054 L1.88142857,14.5318054 C1.38286094,14.5340678 0.90396126,14.337463 0.550814205,13.9855226 C0.19766715,13.6335822 -0.000575672541,13.1553582 -1.25026424e-06,12.6567857 L-1.25026424e-06,4.21821429 C0.000572292236,3.1866764 0.833835922,2.34910526 1.86535714,2.34321429 L3.36535714,2.34321429 L4.80214286,0.902142857 C5.09227458,0.633043681 5.47148699,0.480443112 5.86714286,0.473571429 L9.13392857,0.473571429 C9.53017387,0.482505848 9.90927035,0.636966684 10.1989286,0.9075 L11.6389286,2.34857143 L13.1389286,2.34857143 C14.1666904,2.35678317 14.996511,3.19042561 14.9999987,4.21821429 L14.9999987,12.6664286 C14.9940988,13.7004608 14.1526163,14.5347553 13.1185714,14.5318054 L13.1196429,14.5318054 Z M7.5,4.21821429 C9.57106781,4.21821429 11.25,5.89714647 11.25,7.96821429 C11.25,10.0392821 9.57106781,11.7182143 7.5,11.7182143 C5.42893219,11.7182143 3.75,10.0392821 3.75,7.96821429 C3.75,5.89714647 5.42893219,4.21821429 7.5,4.21821429 Z M7.5,9.84428602 C8.25889741,9.84471912 8.94330989,9.38790388 9.23402772,8.68689845 C9.52474555,7.98589302 9.36450141,7.17878558 8.82803312,6.64201073 C8.29156482,6.10523588 7.48454906,5.9445307 6.78337766,6.23484802 C6.08220627,6.52516534 5.625,7.20931675 5.625,7.96821429 C5.625,9.00392165 6.4642928,9.84369422 7.5,9.84428602 L7.5,9.84428602 Z" id="Camera"></path>
            </g>
        </g>
    </g>
</svg>