<?xml version="1.0" encoding="UTF-8"?>
<svg width="22px" height="22px" viewBox="0 0 22 22" version="1.1" xmlns="http://www.w3.org/2000/svg" xmlns:xlink="http://www.w3.org/1999/xlink">
    <!-- Generator: sketchtool 64 (101010) - https://sketch.com -->
    <title>5E773E7B-402F-42E9-B9C7-E9DB2EEFA206</title>
    <desc>Created with sketchtool.</desc>
    <g id="design-system" stroke="none" stroke-width="1" fill="none" fill-rule="evenodd">
        <g id="icon" transform="translate(-42.000000, -393.000000)" stroke="#858997">
            <g id="chat-bot" transform="translate(42.000000, 393.000000)">
                <g id="Group-4-Copy-2">
                    <g>
                        <g id="message-square">
                            <path d="M19.5555556,0.5 L2.44444444,0.5 C1.90750094,0.5 1.42138983,0.717639358 1.06951459,1.06951459 C0.717639358,1.42138983 0.5,1.90750094 0.5,2.44444444 L0.5,20.7928932 L4.68178211,16.6111111 L19.5555556,16.6111111 C20.0924991,16.6111111 20.5786102,16.3934718 20.9304854,16.0415965 C21.2823606,15.6897213 21.5,15.2036102 21.5,14.6666667 L21.5,2.44444444 C21.5,1.90750094 21.2823606,1.42138983 20.9304854,1.06951459 C20.5786102,0.717639358 20.0924991,0.5 19.5555556,0.5 Z" id="Path"></path>
                        </g>
                        <circle id="Oval" fill="#858997" cx="6" cy="9" r="1"></circle>
                        <circle id="Oval-Copy" fill="#858997" cx="11" cy="9" r="1"></circle>
                        <circle id="Oval-Copy-3" fill="#858997" cx="16" cy="9" r="1"></circle>
                    </g>
                </g>
            </g>
        </g>
    </g>
</svg>