<?xml version="1.0" encoding="UTF-8"?>
<svg width="20px" height="20px" viewBox="0 0 20 20" version="1.1" xmlns="http://www.w3.org/2000/svg" xmlns:xlink="http://www.w3.org/1999/xlink">
    <!-- Generator: sketchtool 64 (101010) - https://sketch.com -->
    <title>97E064E8-A1B5-4CF8-9946-3AA6D51DB226</title>
    <desc>Created with sketchtool.</desc>
    <g id="design-system" stroke="none" stroke-width="1" fill="none" fill-rule="evenodd">
        <g id="icon" transform="translate(-41.000000, -510.000000)">
            <g id="delete_b" transform="translate(41.000000, 510.000000)">
                <g id="Group-4">
                    <rect id="Rectangle-Copy-28" x="0" y="0" width="20" height="20"></rect>
                    <g id="Group-10-Copy-2">
                        <rect id="Rectangle-Copy-17" x="0" y="0" width="18.8888889" height="18.8888889"></rect>
                        <g id="trash-2" transform="translate(2.222222, 1.111111)" stroke="#858997" stroke-linecap="round" stroke-linejoin="round">
                            <polyline id="Path" points="0 3.69565217 1.6997674 3.69565217 15.2979066 3.69565217"></polyline>
                            <path d="M13.6876006,3.91304348 L13.6876006,15.5797101 C13.6876006,16.5001847 12.9151451,17.2463768 11.9622728,17.2463768 L3.33563377,17.2463768 C2.38276153,17.2463768 1.61030596,16.5001847 1.61030596,15.5797101 L1.61030596,3.91304348 M4.19829768,3.44927536 L4.19829768,1.72463768 C4.19829768,0.772146591 4.97075325,0 5.92362549,0 L9.37428111,0 C10.3271534,0 11.0996089,0.772146591 11.0996089,1.72463768 L11.0996089,3.44927536" id="Shape"></path>
                            <line x1="6.03864734" y1="8.21256039" x2="6.03864734" y2="13.1400966" id="Path"></line>
                            <line x1="9.25925926" y1="8.21256039" x2="9.25925926" y2="13.1400966" id="Path"></line>
                        </g>
                    </g>
                </g>
            </g>
        </g>
    </g>
</svg>