<svg xmlns="http://www.w3.org/2000/svg" width="16" height="16" viewBox="0 0 16 16">
    <path fill="#E5E6E8" d="M8 0C3.583 0 .002 3.58 0 7.997c-.002 4.417 3.577 8 7.994 8.003 4.417.003 8.001-3.574 8.006-7.99.002-2.124-.84-4.161-2.34-5.664C12.16.844 10.123 0 8 0zm3.305 4.19c.563.021 1.057.381 1.25.91.194.53.049 1.123-.367 1.503-.416.38-1.02.47-1.53.23-.51-.242-.823-.766-.793-1.329.04-.758.682-1.343 1.44-1.314zm-6.559 0c.563-.002 1.07.336 1.286.856.216.52.097 1.118-.301 1.515-.398.397-.997.515-1.516.299-.519-.217-.856-.725-.854-1.287.002-.764.621-1.383 1.385-1.384zm5.565 8.407c-1.15.705-2.559.847-3.826.387-1.36-.48-2.383-1.62-2.714-3.024-.039-.2.014-.408.143-.567.13-.158.324-.25.528-.25h7.092c.212.001.411.099.542.266.131.166.179.384.13.59-.25 1.088-.935 2.027-1.895 2.596v.002z"/>
</svg>
