<?xml version="1.0" encoding="UTF-8"?>
<svg width="12px" height="14px" viewBox="0 0 12 14" version="1.1" xmlns="http://www.w3.org/2000/svg" xmlns:xlink="http://www.w3.org/1999/xlink">
    <!-- Generator: sketchtool 64 (101010) - https://sketch.com -->
    <title>A72A8D08-F357-43DD-AAD2-79E7F33E1988</title>
    <desc>Created with sketchtool.</desc>
    <g id="design-system" stroke="none" stroke-width="1" fill="none" fill-rule="evenodd">
        <g id="icon" transform="translate(-126.000000, -607.000000)">
            <g id="Group-18-Copy" transform="translate(124.000000, 606.000000)">
                <rect id="Rectangle" x="0" y="0" width="16" height="16"></rect>
                <g id="bold" transform="translate(2.000000, 1.000000)" fill="#1DB6FF" fill-rule="nonzero">
                    <path d="M11.339,4.093 C11.3351466,1.83409657 9.50490343,0.00385338334 7.246,8.8817842e-16 L1.846,8.8817842e-16 C1.19160938,0.00110236595 0.66155037,0.531608679 0.661,1.186 L0.661,12.814 C0.661551395,13.4687812 1.19221882,13.9994486 1.847,14 L7.247,14 C9.50590343,13.9961466 11.3361466,12.1659034 11.34,9.907 C11.3372894,8.81008205 10.889862,7.76115335 10.1,7 C10.8896868,6.23881074 11.3367807,5.18981783 11.339,4.093 Z M7.246,5.814 L3.034,5.814 L3.034,2.373 L7.246,2.373 C8.18004949,2.3955203 8.92551808,3.15917907 8.92551808,4.0935 C8.92551808,5.02782093 8.18004949,5.7914797 7.246,5.814 Z M7.246,11.627 L3.034,11.627 L3.034,8.186 L7.246,8.186 C8.18004949,8.2085203 8.92551808,8.97217907 8.92551808,9.9065 C8.92551808,10.8408209 8.18004949,11.6044797 7.246,11.627 Z" id="Bold"></path>
                </g>
            </g>
        </g>
    </g>
</svg>