<?xml version="1.0" encoding="UTF-8"?>
<svg width="21px" height="22px" viewBox="0 0 21 22" version="1.1" xmlns="http://www.w3.org/2000/svg" xmlns:xlink="http://www.w3.org/1999/xlink">
    <!-- Generator: sketchtool 64 (101010) - https://sketch.com -->
    <title>37BB0818-8835-494D-A7DD-B88B98E62476</title>
    <desc>Created with sketchtool.</desc>
    <g id="dark-mode" stroke="none" stroke-width="1" fill="none" fill-rule="evenodd">
        <g id="Wizlab-Builder_sound-dark-mode" transform="translate(-101.000000, -178.000000)">
            <g id="iconspace_Not-B_25px-Copy" transform="translate(99.000000, 176.000000)">
                <polygon id="Path" points="0 0 25 0 25 25 0 25"></polygon>
                <path d="M6.5,16.75 C8.55463868,16.75 10.25,18.1781361 10.25,20 C10.25,21.8218639 8.55463868,23.25 6.5,23.25 C4.44536132,23.25 2.75,21.8218639 2.75,20 C2.75,18.1781361 4.44536132,16.75 6.5,16.75 Z M18.5,14.75 C20.5546387,14.75 22.25,16.1781361 22.25,18 C22.25,19.8218639 20.5546387,21.25 18.5,21.25 C16.4453613,21.25 14.75,19.8218639 14.75,18 C14.75,16.1781361 16.4453613,14.75 18.5,14.75 Z M22.1601958,3.94700836 C22.2196762,4.12544968 22.25,4.31231329 22.25,4.50040695 L22.25,15.3808266 C21.8440319,14.9163296 21.3326706,14.5316517 20.75,14.2527825 L20.75,4.50040695 C20.75,4.47353643 20.745668,4.44684163 20.7371708,4.42135001 C20.6935089,4.29036418 20.5519289,4.21957419 20.4209431,4.26323613 L10.4209431,7.59656946 C10.3188575,7.63059797 10.25,7.72613269 10.25,7.83374029 L10.2499265,17.3808288 C9.84403353,16.9163308 9.33267147,16.5316521 8.75,16.2527825 L8.75,7.83374029 C8.75,7.08048707 9.23200267,6.4117441 9.94660141,6.17354452 L19.9466014,2.84021118 C20.8635022,2.53457758 21.8545622,3.03010756 22.1601958,3.94700836 Z" id="Path" fill="#00BBFF" fill-rule="nonzero"></path>
            </g>
        </g>
    </g>
</svg>