<?xml version="1.0" encoding="UTF-8"?>
<svg width="16px" height="16px" viewBox="0 0 16 16" version="1.1" xmlns="http://www.w3.org/2000/svg" xmlns:xlink="http://www.w3.org/1999/xlink">
    <!-- Generator: sketchtool 64 (101010) - https://sketch.com -->
    <title>FBA2E7DD-91A4-40FB-8433-C663F52CA6F8</title>
    <desc>Created with sketchtool.</desc>
    <g id="design-system" stroke="none" stroke-width="1" fill="none" fill-rule="evenodd">
        <g id="icon" transform="translate(-147.000000, -1070.000000)" fill="#2C9EE0" fill-rule="nonzero">
            <g id="pen-tool-copy" transform="translate(147.000000, 1069.000000)">
                <path d="M10.9973878,9.91894511 L7.08233967,6.0027137 C6.79564883,5.71621692 6.37921702,5.60209748 5.98658275,5.70243124 L2.41053438,6.63867315 C1.90263078,6.76852276 1.55001921,7.2298422 1.55789853,7.75417113 C1.5800648,10.5664851 1.06760596,13.357382 0.0478085199,15.9782571 C-0.0558310695,16.2559752 0.0121212971,16.5686495 0.221670712,16.7782623 C0.431220126,16.987875 0.743799999,17.0558479 1.0214342,16.952177 C3.6417453,15.9332414 6.4317915,15.4217914 9.24303534,15.4450559 C9.76720585,15.4529376 10.2283859,15.1002195 10.3581963,14.5921624 L11.2975796,11.0150332 C11.397883,10.6222803 11.283798,10.2057226 10.9973878,9.91894511 Z M7.45101621,12.2595499 C6.903253,12.8075019 6.07944548,12.9714306 5.36374001,12.674895 C4.64803454,12.3783594 4.18137988,11.6797583 4.18137988,10.9048535 C4.18137988,10.1299488 4.64803454,9.43134767 5.36374001,9.13481206 C6.07944548,8.83827645 6.903253,9.00220512 7.45101621,9.55015714 C8.19768774,10.2988654 8.19768774,11.5108416 7.45101621,12.2595499 L7.45101621,12.2595499 Z" id="Shape"></path>
                <path d="M8.31128168,3.07002829 L15.0005483,3.07002829 C15.5528331,3.07002829 16.0005483,3.51774354 16.0005483,4.07002829 L16.0005483,6.62149496 C16.0005483,7.17377971 15.5528331,7.62149496 15.0005483,7.62149496 L8.31128168,7.62149496 C7.75899693,7.62149496 7.31128168,7.17377971 7.31128168,6.62149496 L7.31128168,4.07002829 C7.31128168,3.51774354 7.75899693,3.07002829 8.31128168,3.07002829 Z" id="Rectangle" transform="translate(11.655915, 5.345762) rotate(45.000000) translate(-11.655915, -5.345762) "></path>
            </g>
        </g>
    </g>
</svg>