<svg xmlns="http://www.w3.org/2000/svg" width="38" height="38" viewBox="0 0 38 38">
    <g fill="none" fill-rule="evenodd">
        <g>
            <g transform="translate(-39 -186) translate(39 186)">
                <circle cx="19" cy="19" r="19" fill="#1DB6FF"/>
                <g>
                    <path stroke="#FFF" stroke-linecap="round" stroke-linejoin="round" d="M12.709 10.96V14c0 .736-.607 1.333-1.356 1.333h-8.14L.5 18V7.333C.5 6.597 1.108 6 1.857 6h3.03" transform="translate(9 10)"/>
                    <path stroke="#FFF" stroke-linecap="round" stroke-linejoin="round" d="M5.195 9.333c0 .86.701 1.556 1.565 1.556h9.392L19.282 14V1.555c0-.859-.7-1.555-1.565-1.555H6.76c-.864 0-1.565.696-1.565 1.555v7.778z" transform="translate(9 10)"/>
                    <path fill="#FFF" d="M12.42 8.158c0 .261-.212.473-.473.473-.26 0-.473-.212-.473-.473 0-.26.212-.473.473-.473s.473.212.473.473M13.577 2.268c-.376-.354-.878-.53-1.505-.53-.678 0-1.21.206-1.6.62-.386.413-.581.907-.581 1.585 0 .232.188.42.42.42.232 0 .419-.188.419-.42.016-.408.082-.669.198-.885.205-.39.575-.585 1.11-.585.435 0 .745.113.932.34.188.226.282.493.282.801 0 .22-.065.432-.196.636-.072.116-.166.227-.281.334l-.384.373c-.37.355-.606.67-.713.945-.104.267-.157.505-.16.964.009.224.19.404.416.404.208 0 .373-.156.414-.376.013-.082.008-.167.014-.25.005-.073.013-.146.027-.218.02-.116.058-.228.107-.336.093-.202.293-.45.602-.742.423-.402.703-.707.84-.914.136-.208.204-.478.204-.81 0-.55-.188-1.002-.565-1.356" transform="translate(9 10)"/>
                </g>
            </g>
        </g>
    </g>
</svg>
