<svg xmlns="http://www.w3.org/2000/svg" width="18" height="18" viewBox="0 0 18 18">
    <g fill="none" fill-rule="evenodd">
        <g fill-rule="nonzero">
            <g>
                <g>
                    <path d="M18 0v18H0V0h18zm-.5.5H.5v17h17V.5z" transform="translate(-1662 -201) translate(1623 161) translate(39 40)"/>
                    <path fill="#1DB6FF" d="M9 .85c4.468 0 8.1 3.531 8.1 7.9s-3.632 7.9-8.1 7.9S.9 13.119.9 8.75 4.532.85 9 .85zm0 1.8c-3.485 0-6.3 2.737-6.3 6.1 0 3.363 2.815 6.1 6.3 6.1s6.3-2.737 6.3-6.1c0-3.363-2.815-6.1-6.3-6.1zm.2 4.914c.387 0 .7.313.7.7v3.189h.5c.387 0 .7.313.7.7 0 .373-.293.679-.662.699H7.6c-.387 0-.7-.313-.7-.7 0-.373.293-.678.662-.698l.038-.001h.9v-2.49H8c-.387 0-.7-.313-.7-.7 0-.373.293-.678.662-.698L8 7.564h1.2zM9 4.278c.608 0 1.1.479 1.1 1.07 0 .59-.492 1.069-1.1 1.069-.608 0-1.1-.48-1.1-1.07 0-.59.492-1.07 1.1-1.07z" transform="translate(-1662 -201) translate(1623 161) translate(39 40)"/>
                </g>
            </g>
        </g>
    </g>
</svg>
