<svg xmlns="http://www.w3.org/2000/svg" width="30" height="30" viewBox="0 0 30 30">
    <path fill="#FFF" fill-rule="evenodd" d="M15 0c8.284 0 15 6.716 15 15 0 8.284-6.716 15-15 15-8.284 0-15-6.716-15-15C0 6.716 6.716 0 15 0zm-4.537 9.216c-2.592 0-4.986 1.638-4.986 6.12v.648c0 4.266 2.177 5.994 4.95 5.994 2.646 0 4.968-1.62 4.968-6.066v-.63c0-4.392-2.287-6.066-4.932-6.066zm14.004.198h-6.552l-.468 6.984c.576-.288 1.745-.684 2.483-.684 1.639 0 2.52.612 2.52 2.07 0 1.386-.99 2.106-2.627 2.106-.919 0-1.747-.324-2.448-.684l-.433 1.908c.828.468 2.142.828 3.564.828 2.863 0 4.572-1.782 4.572-4.122 0-2.646-1.511-3.942-4.014-3.942-.431 0-1.098.09-1.44.216l.18-2.754h4.663V9.414zm-14.022 1.71c1.53 0 2.303 1.296 2.303 4.158v.774c0 2.88-.755 4.014-2.321 4.014-1.566 0-2.268-1.35-2.268-4.14v-.774c0-2.808.737-4.032 2.285-4.032z"/>
</svg>
