<svg xmlns="http://www.w3.org/2000/svg" width="30" height="30" viewBox="0 0 30 30">
    <g fill="none" fill-rule="evenodd">
        <circle cx="15" cy="15" r="15" fill="#3A405B"/>
        <path fill="#FFF" d="M9.68 21.978c-2.772 0-4.95-1.728-4.95-5.994v-.648c0-4.482 2.393-6.12 4.986-6.12 2.646 0 4.932 1.674 4.932 6.066v.63c0 4.446-2.322 6.066-4.968 6.066zm0-1.908c1.566 0 2.322-1.134 2.322-4.014v-.774c0-2.862-.775-4.158-2.305-4.158-1.547 0-2.285 1.224-2.285 4.032v.774c0 2.79.702 4.14 2.268 4.14zm11.861 1.944v-2.448H15.98v-1.368l6.3-8.838h1.674v8.37h1.873v1.836h-1.873v2.448h-2.412zM18.59 17.73h2.97v-4.158l-2.97 4.158z"/>
    </g>
</svg>
