<svg xmlns="http://www.w3.org/2000/svg" width="30" height="30" viewBox="0 0 30 30">
    <g fill="none" fill-rule="evenodd">
        <circle cx="15" cy="15" r="15" fill="#3A405B"/>
        <path fill="#FFF" d="M9.815 21.978c-2.772 0-4.95-1.728-4.95-5.994v-.648c0-4.482 2.393-6.12 4.986-6.12 2.645 0 4.931 1.674 4.931 6.066v.63c0 4.446-2.322 6.066-4.967 6.066zm0-1.908c1.566 0 2.322-1.134 2.322-4.014v-.774c0-2.862-.774-4.158-2.305-4.158-1.548 0-2.286 1.224-2.286 4.032v.774c0 2.79.702 4.14 2.269 4.14zm11.447 1.908c-3.096 0-4.698-2.124-4.698-5.49v-.846c0-4.77 2.556-6.408 5.563-6.408 1.242 0 2.358.378 2.898.684l-.432 1.872c-.505-.252-1.53-.54-2.377-.54-1.71 0-2.951.846-3.132 3.744.613-.504 1.602-1.008 2.845-1.008 2.16 0 3.672 1.332 3.672 3.69 0 2.394-1.476 4.302-4.338 4.302zm-.053-1.836c1.206 0 1.98-.81 1.98-2.268 0-1.548-.883-2.124-2.052-2.124-.793 0-1.639.54-2.035 1.062v.108c0 2.016.613 3.222 2.107 3.222z"/>
    </g>
</svg>
