<svg xmlns="http://www.w3.org/2000/svg" width="30" height="30" viewBox="0 0 30 30">
    <g fill="none" fill-rule="evenodd">
        <circle cx="15" cy="15" r="15" fill="#3A405B"/>
        <path fill="#FFF" d="M10.274 21.978c-2.772 0-4.95-1.728-4.95-5.994v-.648c0-4.482 2.394-6.12 4.986-6.12 2.646 0 4.931 1.674 4.931 6.066v.63c0 4.446-2.322 6.066-4.967 6.066zm0-1.908c1.566 0 2.322-1.134 2.322-4.014v-.774c0-2.862-.774-4.158-2.305-4.158-1.548 0-2.286 1.224-2.286 4.032v.774c0 2.79.702 4.14 2.268 4.14zm10.206 1.872c-1.512 0-3.079-.414-3.799-.864l.396-1.8c.612.378 1.998.684 2.952.684 1.512 0 2.323-.63 2.323-1.926 0-1.242-.829-1.692-2.287-1.728l-1.35-.036V14.49l1.207-.036c1.35-.036 2.177-.612 2.177-1.71 0-1.134-.72-1.548-2.015-1.548-.883 0-1.909.27-2.628.576l-.27-1.854c.791-.414 2.322-.702 3.6-.702 2.34 0 3.833 1.062 3.833 3.078 0 1.476-.828 2.43-2.177 2.916 1.547.288 2.591 1.188 2.591 3.006 0 2.322-1.692 3.726-4.553 3.726z"/>
    </g>
</svg>
