<svg xmlns="http://www.w3.org/2000/svg" width="30" height="30" viewBox="0 0 30 30">
    <g fill="none" fill-rule="evenodd">
        <circle cx="15" cy="15" r="15" fill="#3A405B"/>
        <path fill="#FFF" d="M9.68 21.978c-2.772 0-4.95-1.728-4.95-5.994v-.648c0-4.482 2.393-6.12 4.986-6.12 2.646 0 4.932 1.674 4.932 6.066v.63c0 4.446-2.322 6.066-4.968 6.066zm0-1.908c1.566 0 2.322-1.134 2.322-4.014v-.774c0-2.862-.775-4.158-2.305-4.158-1.547 0-2.285 1.224-2.285 4.032v.774c0 2.79.702 4.14 2.268 4.14zm11.34 1.908c-3.096 0-4.735-1.35-4.735-3.33 0-1.53 1.099-2.646 2.448-3.186-1.26-.594-2.105-1.422-2.105-2.934 0-1.998 1.692-3.312 4.41-3.312s4.32 1.152 4.32 3.114c0 1.296-.864 2.322-2.16 2.898 1.421.504 2.645 1.422 2.645 3.132 0 2.124-1.764 3.618-4.823 3.618zm-.072-1.782c1.476 0 2.357-.702 2.357-1.71 0-1.17-.918-1.854-2.645-2.25-1.063.36-2.052 1.17-2.052 2.16 0 1.116.863 1.8 2.34 1.8zm.395-5.778c.883-.342 1.692-.972 1.692-1.89 0-.882-.63-1.512-1.962-1.512-1.206 0-1.925.558-1.925 1.44 0 .99.683 1.62 2.195 1.962z"/>
    </g>
</svg>
