<svg xmlns="http://www.w3.org/2000/svg" width="30" height="30" viewBox="0 0 30 30">
    <g fill="none" fill-rule="evenodd">
        <circle cx="15" cy="15" r="15" fill="#3A405B"/>
        <path fill="#FFF" d="M10.364 21.978c-2.773 0-4.95-1.728-4.95-5.994v-.648c0-4.482 2.394-6.12 4.986-6.12 2.646 0 4.931 1.674 4.931 6.066v.63c0 4.446-2.322 6.066-4.967 6.066zm0-1.908c1.566 0 2.321-1.134 2.321-4.014v-.774c0-2.862-.774-4.158-2.303-4.158-1.548 0-2.287 1.224-2.287 4.032v.774c0 2.79.702 4.14 2.268 4.14zm7.65 1.692l4.373-10.386h-5.364V9.414h8.137v1.476l-4.338 10.872h-2.808z"/>
    </g>
</svg>
