<svg xmlns="http://www.w3.org/2000/svg" width="30" height="30" viewBox="0 0 30 30">
    <path fill="#FFF" fill-rule="evenodd" d="M15 0c8.284 0 15 6.716 15 15 0 8.284-6.716 15-15 15-8.284 0-15-6.716-15-15C0 6.716 6.716 0 15 0zm8.953 9.36H22.28l-6.3 8.838v1.368h5.563v2.448h2.411v-2.448h1.873V17.73h-1.873V9.36zM9.716 9.216c-2.592 0-4.986 1.638-4.986 6.12v.648c0 4.266 2.177 5.994 4.95 5.994 2.646 0 4.968-1.62 4.968-6.066v-.63c0-4.392-2.287-6.066-4.932-6.066zm-.018 1.908c1.53 0 2.303 1.296 2.303 4.158v.774c0 2.88-.755 4.014-2.321 4.014-1.566 0-2.268-1.35-2.268-4.14v-.774c0-2.808.737-4.032 2.285-4.032zm11.861 2.448v4.158h-2.97l2.97-4.158z"/>
</svg>
