<svg xmlns="http://www.w3.org/2000/svg" width="30" height="30" viewBox="0 0 30 30">
    <path fill="#FFF" fill-rule="evenodd" d="M15 0c8.284 0 15 6.716 15 15 0 8.284-6.716 15-15 15-8.284 0-15-6.716-15-15C0 6.716 6.716 0 15 0zm-4.69 9.216c-2.593 0-4.987 1.638-4.987 6.12v.648c0 4.266 2.178 5.994 4.95 5.994 2.646 0 4.969-1.62 4.969-6.066v-.63c0-4.392-2.287-6.066-4.933-6.066zm10.475 0c-1.277 0-2.808.288-3.6.702l.27 1.854c.72-.306 1.747-.576 2.629-.576 1.296 0 2.015.414 2.015 1.548 0 1.098-.828 1.674-2.177 1.71l-1.207.036v1.782l1.35.036c1.458.036 2.287.486 2.287 1.728 0 1.296-.81 1.926-2.323 1.926-.953 0-2.34-.306-2.951-.684l-.396 1.8c.72.45 2.286.864 3.798.864 2.861 0 4.553-1.404 4.553-3.726 0-1.818-1.044-2.718-2.591-3.006 1.35-.486 2.177-1.44 2.177-2.916 0-2.016-1.494-3.078-3.834-3.078zm-10.494 1.908c1.53 0 2.304 1.296 2.304 4.158v.774c0 2.88-.756 4.014-2.322 4.014s-2.268-1.35-2.268-4.14v-.774c0-2.808.738-4.032 2.286-4.032z"/>
</svg>
